<?xml version="1.0" encoding="UTF-8" standalone="no"?>
<!-- Created with Inkscape (http://www.inkscape.org/) -->

<svg
   xmlns:dc="http://purl.org/dc/elements/1.1/"
   xmlns:cc="http://creativecommons.org/ns#"
   xmlns:rdf="http://www.w3.org/1999/02/22-rdf-syntax-ns#"
   xmlns:svg="http://www.w3.org/2000/svg"
   xmlns="http://www.w3.org/2000/svg"
   xmlns:sodipodi="http://sodipodi.sourceforge.net/DTD/sodipodi-0.dtd"
   xmlns:inkscape="http://www.inkscape.org/namespaces/inkscape"
   width="525.64551"
   height="523.5163"
   id="svg7608"
   version="1.1"
   inkscape:version="0.48+devel r"
   viewBox="0 0 525.64551 523.51631"
   sodipodi:docname="connect_1.svg">
  <defs
     id="defs7610">
    <clipPath
       id="clipPath5850"
       clipPathUnits="userSpaceOnUse">
      <path
         inkscape:connector-curvature="0"
         id="path5852"
         d="M 0,0 L 620,0 L 620,610 L 0,610 L 0,0 Z" />
    </clipPath>
  </defs>
  <sodipodi:namedview
     id="base"
     pagecolor="#ffffff"
     bordercolor="#666666"
     borderopacity="1.0"
     inkscape:pageopacity="0.0"
     inkscape:pageshadow="2"
     inkscape:zoom="0.35"
     inkscape:cx="313.49194"
     inkscape:cy="34.088598"
     inkscape:document-units="px"
     inkscape:current-layer="layer1"
     showgrid="false"
     fit-margin-top="0"
     fit-margin-left="0"
     fit-margin-right="0"
     fit-margin-bottom="0"
     inkscape:window-width="2560"
     inkscape:window-height="1378"
     inkscape:window-x="0"
     inkscape:window-y="27"
     inkscape:window-maximized="1" />
  <metadata
     id="metadata7613">
    <rdf:RDF>
      <cc:Work
         rdf:about="">
        <dc:format>image/svg+xml</dc:format>
        <dc:type
           rdf:resource="http://purl.org/dc/dcmitype/StillImage" />
        <dc:title></dc:title>
      </cc:Work>
    </rdf:RDF>
  </metadata>
  <g
     inkscape:label="Layer 1"
     inkscape:groupmode="layer"
     id="layer1"
     transform="translate(-100.03441,-73.745617)">
    <g
       id="g7618"
       transform="matrix(1,0,0,-1,-3633.1207,8043.9742)">
      <path
         id="path7620"
         d="M 3107.33,5973 L 3635.33,7315 C 3695.2028,7467.177 3749.593,7621.44 3799.928,7777.032 C 3850.263,7932.624 3900.34,8090.802 3989.33,8228 C 4070.3022,8352.838 4183.526,8456.439 4314.649,8526.78 C 4445.772,8597.121 4594.49,8634.134 4743.289,8634.303 C 5040.885,8634.6428 5333.264,8481.379 5507.331,8239.999 C 5607.762,8100.73 5669.988,7937.801 5722.196,7774.227 C 5774.4045,7610.653 5819.2937,7444.847 5867.331,7279.999 L 6284.331,5848.999 Z"
         inkscape:connector-curvature="0"
         style="fill:currentColor" />
    </g>
  </g>
</svg>
