<?xml version="1.0" encoding="UTF-8" standalone="no"?>
<svg
   xmlns:dc="http://purl.org/dc/elements/1.1/"
   xmlns:cc="http://creativecommons.org/ns#"
   xmlns:rdf="http://www.w3.org/1999/02/22-rdf-syntax-ns#"
   xmlns:svg="http://www.w3.org/2000/svg"
   xmlns="http://www.w3.org/2000/svg"
   xmlns:sodipodi="http://sodipodi.sourceforge.net/DTD/sodipodi-0.dtd"
   xmlns:inkscape="http://www.inkscape.org/namespaces/inkscape"
   x="0"
   y="0"
   width="981.79669"
   height="1567.9073"
   version="1.1"
   id="svg6623"
   inkscape:version="0.48+devel r"
   sodipodi:docname="smooth_connections_1.svg">
  <metadata
     id="metadata6713">
    <rdf:RDF>
      <cc:Work
         rdf:about="">
        <dc:format>image/svg+xml</dc:format>
        <dc:type
           rdf:resource="http://purl.org/dc/dcmitype/StillImage" />
        <dc:title></dc:title>
      </cc:Work>
    </rdf:RDF>
  </metadata>
  <defs
     id="defs6711" />
  <sodipodi:namedview
     pagecolor="#ffffff"
     bordercolor="#666666"
     borderopacity="1"
     objecttolerance="10"
     gridtolerance="10"
     guidetolerance="10"
     inkscape:pageopacity="0"
     inkscape:pageshadow="2"
     inkscape:window-width="1600"
     inkscape:window-height="838"
     id="namedview6709"
     showgrid="false"
     fit-margin-top="0"
     fit-margin-left="0"
     fit-margin-right="0"
     fit-margin-bottom="0"
     inkscape:zoom="0.48458996"
     inkscape:cx="985.01394"
     inkscape:cy="738.81455"
     inkscape:window-x="0"
     inkscape:window-y="27"
     inkscape:window-maximized="1"
     inkscape:current-layer="g6625" />
  <g
     stroke-miterlimit="10"
     font-weight="normal"
     font-size="12"
     mix-blend-mode="normal"
     id="g6625"
     transform="translate(-19,11.059664)"
     style="font-weight:normal;font-size:12px;font-family:sans-serif;text-anchor:start;fill:none;stroke:none;stroke-width:2;stroke-linecap:butt;stroke-linejoin:miter;stroke-miterlimit:10;stroke-dasharray:none;stroke-dashoffset:0">
    <line
       x1="20"
       y1="203.19392"
       x2="20"
       y2="697.26233"
       id="line6627"
       style="stroke:#000000" />
    <path
       d="m 20,697.26235 c 0,0.5 0,0.5 0,0.5 c 0,7.35035 0.1259,14.761 1.73504,21.93305 c 1.60914,7.17205 4.68686,14.02759 9.12858,19.88411 c 4.44173,5.85652 10.16291,10.6664 16.40491,14.54778 c 6.242,3.88138 12.98463,6.87781 19.71013,9.84352 c 6.72549,2.96571 13.47235,5.95065 19.72672,9.81208 c 6.25436,3.86143 11.99693,8.64295 16.47359,14.4728 c 4.47666,5.82986 7.60307,12.66165 9.26917,19.82069 c 1.6661,7.15904 1.85623,14.56788 1.92014,21.91795 c 0.004,0.49998 0.004,0.49998 0.004,0.49998"
       id="path6629"
       inkscape:connector-curvature="0"
       style="stroke:#ff0000" />
    <line
       x1="114.37262"
       y1="830.49432"
       x2="119.92396"
       y2="1468.8973"
       id="line6637"
       style="stroke:#000000" />
    <path
       d="m 119.92396,1468.8973 c 0.004,0.5 0.004,0.5 0.004,0.5 c 0.0719,8.27 -0.1677,16.5387 -0.60127,24.7975 c -0.43357,8.2589 -0.8938,16.6576 1.03169,24.7006 c 2.33536,9.7551 8.29565,18.4947 16.14292,24.7426 c 7.84727,6.2478 17.50214,10.0597 27.42786,11.5073 c 19.85143,2.8951 40.06265,-3.5011 57.64041,-13.1698 c 17.57777,-9.6687 33.15253,-22.5307 49.62689,-33.9787 c 16.47436,-11.4481 34.39704,-21.6981 54.17466,-25.0607 c 16.27595,-2.7673 32.93355,-1.9373 49.41458,-2.9067 c 0.49914,-0.029 0.49914,-0.029 0.49914,-0.029"
       id="path6639"
       inkscape:connector-curvature="0"
       style="stroke:#ff0000" />
    <line
       x1="375.28519"
       y1="1480"
       x2="752.77563"
       y2="1457.7947"
       id="line6647"
       style="stroke:#000000" />
    <path
       d="m 752.77565,1457.7946 c 0.49914,-0.029 0.49914,-0.029 0.49914,-0.029 c 16.47183,-0.9689 32.96508,-1.6129 49.41458,-2.9068 c 45.4554,-3.5752 91.46422,-14.2652 129.33643,-39.6556 c 18.93611,-12.6952 35.59319,-28.9982 47.66856,-48.3355 c 12.07537,-19.3372 19.4654,-41.755 20.04905,-64.5455 c 0.42259,-16.4996 -1.78779,-32.9464 -2.6821,-49.4272 c -0.0271,-0.4993 -0.0271,-0.4993 -0.0271,-0.4993"
       id="path6649"
       inkscape:connector-curvature="0"
       style="stroke:#ff0000" />
    <line
       x1="997.03424"
       y1="1252.3954"
       x2="958.17493"
       y2="536.27374"
       id="line6657"
       style="stroke:#000000" />
    <path
       d="m 958.17491,536.27375 c -0.0271,-0.49927 -0.0271,-0.49927 -0.0271,-0.49927 c -0.89412,-16.47728 -2.51164,-32.92664 -2.6821,-49.42728 c -0.25879,-25.05073 3.93061,-50.02472 3.06362,-75.06178 c -0.43349,-12.51853 -2.15422,-25.07303 -6.23016,-36.91736 c -4.07593,-11.84433 -10.58646,-22.98337 -19.72799,-31.54689 c -6.02684,-5.64578 -13.03806,-10.11684 -19.99043,-14.57354 c -6.95237,-4.4567 -13.83795,-9.01731 -20.61168,-13.74109 c -0.41012,-0.28601 -0.41012,-0.28601 -0.41012,-0.28601"
       id="path6659"
       inkscape:connector-curvature="0"
       style="stroke:#ff0000" />
    <line
       x1="891.55896"
       y1="314.22055"
       x2="469.65778"
       y2="20"
       id="line6667"
       style="stroke:#000000" />
    <path
       d="m 469.65777,20 c -0.41012,-0.28601 -0.41012,-0.28601 -0.41012,-0.28601 C 462.4507,14.97402 455.89893,9.89496 449.5125,4.61487 C 443.12607,-0.66522 436.54874,-6.10962 428.64554,-8.60064 c -4.9239,-1.55197 -10.22129,-1.83823 -15.31362,-0.98877 c -5.09233,0.84947 -9.9775,2.8213 -14.32499,5.60568 c -8.69497,5.56877 -15.09554,14.2833 -19.03351,23.82826 c -7.87593,19.08991 -6.23347,40.55002 -5.55017,61.1895 c 0.54597,16.49116 0.56887,32.9949 0.85331,49.49264 c 0.009,0.49993 0.009,0.49993 0.009,0.49993"
       id="path6669"
       inkscape:connector-curvature="0"
       style="stroke:#ff0000" />
    <line
       x1="375.28519"
       y1="131.02661"
       x2="380.83646"
       y2="453.00378"
       id="line6677"
       style="stroke:#000000" />
    <path
       d="m 380.83646,453.00378 c 0.009,0.49993 0.009,0.49993 0.009,0.49993 c 0.14262,8.27204 -0.0487,16.54529 -0.44776,24.80892 c -0.39911,8.26364 -0.82357,16.68792 1.30107,24.68372 c 2.5934,9.75992 9.13481,18.32667 17.62549,23.79385 c 8.49068,5.46718 18.82498,7.87393 28.90043,7.19043 c 10.07544,-0.6835 19.864,-4.38807 28.15078,-10.15963 c 8.28678,-5.77156 15.08963,-13.5651 20.11621,-22.32382 c 10.05316,-17.51744 12.87601,-38.43542 11.5782,-58.59087 c -1.29781,-20.15546 -6.47096,-39.83258 -11.52359,-59.38757 c -5.05264,-19.55499 -10.0347,-39.30149 -10.93613,-59.47856 c -0.90143,-20.17707 2.5527,-41.05841 13.28654,-58.16722 c 5.36692,-8.55441 12.51545,-16.04727 21.07572,-21.40483 c 8.56027,-5.35756 18.54746,-8.53155 28.64567,-8.6201 c 10.09821,-0.0885 20.27261,2.97792 28.3674,9.01581 c 8.09478,6.03789 13.99692,15.07833 15.81576,25.01179 c 1.49018,8.13855 0.37287,16.50386 -0.70581,24.7071 c -1.07867,8.20324 -1.94843,16.43351 -2.48112,24.6902 c -0.0322,0.49896 -0.0322,0.49896 -0.0322,0.49896"
       id="path6679"
       inkscape:connector-curvature="0"
       style="stroke:#ff0000" />
    <line
       x1="569.58179"
       y1="319.77188"
       x2="547.3764"
       y2="663.95435"
       id="line6687"
       style="stroke:#000000" />
    <path
       d="m 547.3764,663.95437 c -0.0322,0.49896 -0.0322,0.49896 -0.0322,0.49896 c -0.53272,8.25713 -1.40563,16.48756 -2.48936,24.69058 c -1.08374,8.20302 -2.20631,16.57114 -0.69756,24.70672 c 1.84315,9.93876 7.81269,18.9598 15.96277,24.93911 c 8.15009,5.97931 18.36399,8.95285 28.47067,8.77674 c 10.10668,-0.17611 20.07321,-3.42888 28.6175,-8.82991 c 8.54429,-5.40103 15.68403,-12.90216 21.09533,-21.43995 c 10.82261,-17.07558 14.59498,-37.83106 14.44995,-58.04697 c -0.14503,-20.21592 -3.95822,-40.19814 -7.23633,-60.14704 c -3.27813,-19.94889 -6.03885,-40.21391 -4.06445,-60.33371 c 1.97439,-20.1198 9.0985,-40.31748 23.24272,-54.76204 c 7.07211,-7.22228 15.82166,-12.87578 25.47476,-15.87475 c 9.6531,-2.99897 20.20776,-3.27901 29.87178,-0.31542 c 9.66402,2.96359 18.36328,9.23689 23.82111,17.74503 c 5.45782,8.50813 7.52592,19.22767 5.1565,29.05426 c -1.94032,8.04697 -6.53641,15.16025 -11.01693,22.12039 c -4.48052,6.96014 -8.7703,14.04246 -12.74364,21.30408 c -0.24001,0.43863 -0.24001,0.43863 -0.24001,0.43863"
       id="path6689"
       inkscape:connector-curvature="0"
       style="stroke:#ff0000" />
    <line
       x1="564.0304"
       y1="852.69952"
       x2="725.01904"
       y2="558.47913"
       id="line6697"
       style="stroke:#000000" />
    <path
       d="m 564.03042,852.69955 c -0.24001,0.43863 -0.24001,0.43863 -0.24001,0.43863 c -3.96839,7.25256 -8.18739,14.36415 -12.55877,21.38119 c -4.37138,7.01704 -8.82378,14.12541 -11.2018,22.04329 c -2.87467,9.57151 -2.43675,19.95251 0.20722,29.5903 c 2.64397,9.63779 7.41487,18.58638 13.06035,26.83296 c 11.29096,16.49316 26.09487,30.37531 37.12471,47.04418 c 5.51492,8.3345 10.0783,17.4055 12.41746,27.1218 c 2.33917,9.7163 2.36679,20.1283 -0.95669,29.5534 c -3.32348,9.4251 -10.17888,17.7586 -19.26474,21.9208 c -4.54293,2.0812 -9.5841,3.1039 -14.57302,2.821 c -4.98892,-0.2828 -9.91458,-1.8853 -14.03987,-4.7051 c -6.85244,-4.684 -11.15084,-12.1848 -15.26536,-19.3936 c -4.11452,-7.2087 -8.4938,-14.2653 -13.28045,-21.0464 c -0.28834,-0.4084 -0.28834,-0.4084 -0.28834,-0.4084"
       id="path6699"
       inkscape:connector-curvature="0"
       style="stroke:#ff0000" />
    <line
       x1="525.17108"
       y1="1035.8936"
       x2="325.32318"
       y2="752.7757"
       id="line6707"
       style="stroke:#000000" />
  </g>
</svg>
