<?xml version="1.0" encoding="UTF-8" standalone="no"?>
<svg
   xmlns:dc="http://purl.org/dc/elements/1.1/"
   xmlns:cc="http://creativecommons.org/ns#"
   xmlns:rdf="http://www.w3.org/1999/02/22-rdf-syntax-ns#"
   xmlns:svg="http://www.w3.org/2000/svg"
   xmlns="http://www.w3.org/2000/svg"
   xmlns:sodipodi="http://sodipodi.sourceforge.net/DTD/sodipodi-0.dtd"
   xmlns:inkscape="http://www.inkscape.org/namespaces/inkscape"
   x="0"
   y="0"
   width="514.51459"
   height="122.98501"
   version="1.1"
   id="svg6802"
   inkscape:version="0.48+devel r"
   sodipodi:docname="smooth_connections_2.svg">
  <metadata
     id="metadata6822">
    <rdf:RDF>
      <cc:Work
         rdf:about="">
        <dc:format>image/svg+xml</dc:format>
        <dc:type
           rdf:resource="http://purl.org/dc/dcmitype/StillImage" />
        <dc:title></dc:title>
      </cc:Work>
    </rdf:RDF>
  </metadata>
  <defs
     id="defs6820" />
  <sodipodi:namedview
     pagecolor="#ffffff"
     bordercolor="#666666"
     borderopacity="1"
     objecttolerance="10"
     gridtolerance="10"
     guidetolerance="10"
     inkscape:pageopacity="0"
     inkscape:pageshadow="2"
     inkscape:window-width="640"
     inkscape:window-height="480"
     id="namedview6818"
     showgrid="false"
     fit-margin-top="0"
     fit-margin-left="0"
     fit-margin-right="0"
     fit-margin-bottom="0"
     inkscape:zoom="0.30809399"
     inkscape:cx="424.24241"
     inkscape:cy="-312.96262"
     inkscape:window-x="0"
     inkscape:window-y="27"
     inkscape:window-maximized="0"
     inkscape:current-layer="g6804" />
  <g
     stroke-miterlimit="10"
     font-weight="normal"
     font-size="12"
     mix-blend-mode="normal"
     id="g6804"
     style="font-weight:normal;font-size:12px;font-family:sans-serif;text-anchor:start;fill:none;stroke:none;stroke-width:2;stroke-linecap:butt;stroke-linejoin:miter;stroke-miterlimit:10;stroke-dasharray:none;stroke-dashoffset:0"
     transform="translate(6.7424135,52.947633)">
    <line
       x1="20"
       y1="20"
       x2="218.31111"
       y2="69.06665"
       id="line6806"
       style="stroke:#000000" />
    <path
       d="M 20,20 C 19.51464,19.87991 19.51464,19.87991 19.51464,19.87991 C 16.18515,19.05612 12.84668,18.21168 9.67308,16.91074 C 6.49948,15.6098 3.49182,13.84402 0.98986,11.49788 C -1.5121,9.15174 -3.48743,6.2285 -4.62053,2.99118 c -1.1331,-3.23732 -1.4129,-6.76711 -0.81511,-10.1445 c 0.59779,-3.37739 2.06194,-6.584 4.13234,-9.31851 c 2.07041,-2.73451 4.73059,-4.99665 7.66654,-6.76988 c 5.87191,-3.54645 12.70462,-5.08773 19.42084,-6.48377 c 147.95612,-30.75418 302.54017,-29.72439 449.85934,3.94896 c 6.74322,1.54133 13.60236,3.23527 19.44086,6.94453 c 2.91925,1.85463 5.54713,4.1997 7.56395,7.00934 c 2.01683,2.80964 3.40566,6.08311 3.90985,9.50473 c 0.50418,3.42162 0.11271,6.97215 -1.13543,10.19765 c -1.24814,3.22549 -3.34086,6.10416 -5.94709,8.37776 c -2.60622,2.2736 -5.70434,3.93965 -8.95257,5.12737 c -3.24823,1.18772 -6.64577,1.90577 -10.03329,2.6032 c -0.48973,0.10083 -0.48973,0.10083 -0.48973,0.10083"
       id="path6808"
       inkscape:connector-curvature="0"
       style="stroke:#ff0000" />
    <line
       x1="271.46667"
       y1="67.022232"
       x2="480"
       y2="24.0889"
       id="line6816"
       style="stroke:#000000" />
  </g>
</svg>
