<?xml version="1.0" encoding="UTF-8" standalone="no"?>
<!-- Created with Inkscape (http://www.inkscape.org/) -->

<svg
   xmlns:dc="http://purl.org/dc/elements/1.1/"
   xmlns:cc="http://creativecommons.org/ns#"
   xmlns:rdf="http://www.w3.org/1999/02/22-rdf-syntax-ns#"
   xmlns:svg="http://www.w3.org/2000/svg"
   xmlns="http://www.w3.org/2000/svg"
   xmlns:sodipodi="http://sodipodi.sourceforge.net/DTD/sodipodi-0.dtd"
   xmlns:inkscape="http://www.inkscape.org/namespaces/inkscape"
   width="1107.4302"
   height="729.60657"
   id="svg7608"
   version="1.1"
   inkscape:version="0.48+devel r"
   viewBox="0 0 1107.4302 729.60659"
   sodipodi:docname="spiro_connect_comparison.svg">
  <defs
     id="defs7610">
    <clipPath
       id="clipPath5850"
       clipPathUnits="userSpaceOnUse">
      <path
         inkscape:connector-curvature="0"
         id="path5852"
         d="M 0,0 L 620,0 L 620,610 L 0,610 L 0,0 Z" />
    </clipPath>
  </defs>
  <sodipodi:namedview
     id="base"
     pagecolor="#ffffff"
     bordercolor="#666666"
     borderopacity="1.0"
     inkscape:pageopacity="0.0"
     inkscape:pageshadow="2"
     inkscape:zoom="0.7"
     inkscape:cx="492.2648"
     inkscape:cy="433.71713"
     inkscape:document-units="px"
     inkscape:current-layer="layer1"
     showgrid="false"
     fit-margin-top="0"
     fit-margin-left="0"
     fit-margin-right="0"
     fit-margin-bottom="0"
     inkscape:window-width="2560"
     inkscape:window-height="1378"
     inkscape:window-x="0"
     inkscape:window-y="27"
     inkscape:window-maximized="1"
     showguides="true"
     inkscape:guide-bbox="true">
    <sodipodi:guide
       orientation="0,1"
       position="104.04571,807.11188"
       id="guide10086" />
  </sodipodi:namedview>
  <metadata
     id="metadata7613">
    <rdf:RDF>
      <cc:Work
         rdf:about="">
        <dc:format>image/svg+xml</dc:format>
        <dc:type
           rdf:resource="http://purl.org/dc/dcmitype/StillImage" />
        <dc:title></dc:title>
      </cc:Work>
    </rdf:RDF>
  </metadata>
  <g
     inkscape:label="Layer 1"
     inkscape:groupmode="layer"
     id="layer1"
     transform="translate(611.21786,78.786119)">
    <path
       style="fill:none;stroke:#000000;stroke-width:2"
       d="M -610.2873,509.3804 L -524.1462,290.4384"
       id="path9530"
       inkscape:connector-curvature="0" />
    <path
       style="fill:none;stroke:#00ff00;stroke-width:2"
       d="M -524.1462,290.4384 C -514.3782,265.6113 -505.5046,240.4439 -497.2927,215.0597 C -489.0807,189.6755 -480.9109,163.8694 -466.3925,141.486 C -453.1822,121.1192 -434.7102,104.2171 -413.318,92.7413 C -391.9258,81.2654 -367.663,75.2269 -343.3871,75.1993 C -294.8355,75.1439 -247.135,100.1483 -218.7366,139.5285 C -202.3517,162.2496 -192.1998,188.8309 -183.6823,215.5173 C -175.1646,242.2038 -167.8412,269.2544 -160.0041,296.1487"
       id="path9528"
       inkscape:connector-curvature="0" />
    <path
       style="fill:none;stroke:#000000;stroke-width:2"
       d="M -160.0041,296.1487 L -91.9722,529.6106"
       id="path7620"
       inkscape:connector-curvature="0" />
    <path
       style="fill:none;fill-rule:evenodd;stroke:#d40000;stroke-width:2;stroke-linecap:butt;stroke-linejoin:miter;stroke-opacity:1"
       d="M -159.9536,295.4788 L -522.91283,287.39368"
       id="path9524"
       inkscape:connector-curvature="0"
       sodipodi:nodetypes="cc" />
    <path
       style="fill:none;fill-rule:evenodd;stroke:#ffcc00;stroke-width:2;stroke-linecap:butt;stroke-linejoin:miter;stroke-opacity:1"
       d="M -522.55569,286.23297 C -450.60661,81.073964 -228.98303,81.073964 -159.9536,295.542"
       id="path9516"
       inkscape:connector-curvature="0"
       sodipodi:nodetypes="cc" />
    <circle
       r="5.5558395"
       cy="286.91919"
       cx="-522.55585"
       id="path9512"
       style="opacity:1;fill:#ff0000;fill-opacity:1;stroke:none;stroke-width:2;stroke-linecap:round;stroke-linejoin:round;stroke-miterlimit:4;stroke-dasharray:16.54453468, 8.27226734;stroke-dashoffset:20.68066788"
       d="M -517.00001,286.91919 A 5.5558395,5.5558395 0 0 1 -522.55585,292.47503 A 5.5558395,5.5558395 0 0 1 -528.11169,286.91919 A 5.5558395,5.5558395 0 0 1 -522.55585,281.36335 A 5.5558395,5.5558395 0 0 1 -517.00001,286.91919 Z" />
    <circle
       style="opacity:1;fill:#ff0000;fill-opacity:1;stroke:none;stroke-width:2;stroke-linecap:round;stroke-linejoin:round;stroke-miterlimit:4;stroke-dasharray:16.54453468, 8.27226734;stroke-dashoffset:20.68066788"
       id="circle9514"
       cx="-159.57512"
       cy="294.97427"
       r="5.5558395"
       d="M -154.01928,294.97427 A 5.5558395,5.5558395 0 0 1 -159.57512,300.53011 A 5.5558395,5.5558395 0 0 1 -165.13096,294.97427 A 5.5558395,5.5558395 0 0 1 -159.57512,289.41843 A 5.5558395,5.5558395 0 0 1 -154.01928,294.97427 Z" />
    <path
       style="fill:#cccccc;fill-rule:evenodd;stroke:#808080;stroke-width:1;stroke-linecap:butt;stroke-linejoin:miter;stroke-miterlimit:4;stroke-dasharray:6.00000016, 6.00000016;stroke-dashoffset:0;stroke-opacity:1"
       d="M -522.82275,287.9762 L -429.60846,21.190482"
       id="path9542"
       inkscape:connector-curvature="0"
       sodipodi:nodetypes="cc" />
    <path
       style="fill:#cccccc;fill-rule:evenodd;stroke:#808080;stroke-width:1;stroke-linecap:butt;stroke-linejoin:miter;stroke-miterlimit:4;stroke-dasharray:6.00000016, 6.00000016;stroke-dashoffset:0;stroke-opacity:1"
       d="M -159.9656,296.54763 L -248.00132,22.440482"
       id="path9544"
       inkscape:connector-curvature="0"
       sodipodi:nodetypes="cc" />
    <circle
       style="opacity:1;fill:#ffcc00;fill-opacity:1;stroke:none;stroke-width:2;stroke-linecap:round;stroke-linejoin:round;stroke-miterlimit:4;stroke-dasharray:16.54453468, 8.27226734;stroke-dashoffset:20.68066788"
       id="path9538"
       cx="-451.00381"
       cy="81.3265"
       r="3.5355339"
       d="M -447.46828,81.3265 A 3.5355339,3.5355339 0 0 1 -451.00381,84.862034 A 3.5355339,3.5355339 0 0 1 -454.53935,81.3265 A 3.5355339,3.5355339 0 0 1 -451.00381,77.790966 A 3.5355339,3.5355339 0 0 1 -447.46828,81.3265 Z" />
    <circle
       r="3.5355339"
       cy="82.67585"
       cx="-228.49232"
       id="circle9540"
       style="opacity:1;fill:#ffcc00;fill-opacity:1;stroke:none;stroke-width:2;stroke-linecap:round;stroke-linejoin:round;stroke-miterlimit:4;stroke-dasharray:16.54453468, 8.27226734;stroke-dashoffset:20.68066788"
       d="M -224.95679,82.67585 A 3.5355339,3.5355339 0 0 1 -228.49232,86.211384 A 3.5355339,3.5355339 0 0 1 -232.02786,82.67585 A 3.5355339,3.5355339 0 0 1 -228.49232,79.140316 A 3.5355339,3.5355339 0 0 1 -224.95679,82.67585 Z" />
    <circle
       style="opacity:1;fill:#00ff00;fill-opacity:1;stroke:none;stroke-width:2;stroke-linecap:round;stroke-linejoin:round;stroke-miterlimit:4;stroke-dasharray:16.54453468, 8.27226734;stroke-dashoffset:20.68066788"
       id="path9532"
       cx="-478.8942"
       cy="163.33334"
       r="5"
       d="M -473.8942,163.33334 A 5,5 0 0 1 -478.8942,168.33334 A 5,5 0 0 1 -483.8942,163.33334 A 5,5 0 0 1 -478.8942,158.33334 A 5,5 0 0 1 -473.8942,163.33334 Z" />
    <circle
       r="5"
       cy="171.33098"
       cx="-200.09561"
       id="circle9534"
       style="opacity:1;fill:#00ff00;fill-opacity:1;stroke:none;stroke-width:2;stroke-linecap:round;stroke-linejoin:round;stroke-miterlimit:4;stroke-dasharray:16.54453468, 8.27226734;stroke-dashoffset:20.68066788"
       d="M -195.09561,171.33098 A 5,5 0 0 1 -200.09561,176.33098 A 5,5 0 0 1 -205.09561,171.33098 A 5,5 0 0 1 -200.09561,166.33098 A 5,5 0 0 1 -195.09561,171.33098 Z" />
    <path
       sodipodi:nodetypes="cc"
       inkscape:connector-curvature="0"
       id="path10116"
       d="M 367.01459,306.46969 L 181.32644,260.07059"
       style="fill:none;fill-rule:evenodd;stroke:#d40000;stroke-width:2;stroke-linecap:butt;stroke-linejoin:miter;stroke-opacity:1" />
    <path
       inkscape:connector-curvature="0"
       id="path10134"
       d="M 180.82158,266.41933 L 301.37792,-78.621197"
       style="fill:#cccccc;fill-rule:evenodd;stroke:#808080;stroke-width:1;stroke-linecap:butt;stroke-linejoin:miter;stroke-miterlimit:4;stroke-dasharray:6.00000016, 6.00000016;stroke-dashoffset:0;stroke-opacity:1" />
    <path
       style="fill:none;fill-rule:evenodd;stroke:#ffcc00;stroke-width:2;stroke-linecap:butt;stroke-linejoin:miter;stroke-opacity:1"
       d="M 183.46384,260.22738 C 281.58697,-29.846884 253.04696,627.14196 366.44277,305.81154"
       id="path10122"
       inkscape:connector-curvature="0"
       sodipodi:nodetypes="cc" />
    <circle
       style="opacity:1;fill:#00ff00;fill-opacity:1;stroke:none;stroke-width:2;stroke-linecap:round;stroke-linejoin:round;stroke-miterlimit:4;stroke-dasharray:16.54453468, 8.27226734;stroke-dashoffset:20.68066788"
       id="circle10130"
       cx="262.2536"
       cy="34.467995"
       r="7.5999441"
       d="M 269.85355,34.467995 A 7.5999441,7.5999441 0 0 1 262.2536,42.067939 A 7.5999441,7.5999441 0 0 1 254.65366,34.467995 A 7.5999441,7.5999441 0 0 1 262.2536,26.868051 A 7.5999441,7.5999441 0 0 1 269.85355,34.467995 Z" />
    <path
       style="fill:#cccccc;fill-rule:evenodd;stroke:#808080;stroke-width:1;stroke-linecap:butt;stroke-linejoin:miter;stroke-miterlimit:4;stroke-dasharray:6.00000016, 6.00000016;stroke-dashoffset:0;stroke-opacity:1"
       d="M 247.33542,650.65553 L 367.89175,305.61501"
       id="path10136"
       inkscape:connector-curvature="0" />
    <circle
       style="opacity:1;fill:#00ff00;fill-opacity:1;stroke:none;stroke-width:2;stroke-linecap:round;stroke-linejoin:round;stroke-miterlimit:4;stroke-dasharray:16.54453468, 8.27226734;stroke-dashoffset:20.68066788"
       id="circle10138"
       cx="295.76447"
       cy="512.14777"
       r="6.8856583"
       d="M 302.65012,512.14777 A 6.8856583,6.8856583 0 0 1 295.76447,519.03342 A 6.8856583,6.8856583 0 0 1 288.87881,512.14777 A 6.8856583,6.8856583 0 0 1 295.76447,505.26211 A 6.8856583,6.8856583 0 0 1 302.65012,512.14777 Z" />
    <g
       id="g10142"
       transform="matrix(1.0068127,0,0,-1.0068127,-3805.1596,7419.7896)"
       style="fill:none;stroke:#000000;stroke-width:1.98646688">
      <path
         style="fill:none;stroke:#000000;stroke-width:1.98646688"
         d="M 3831.2877,6783.8623 L 3961.9741,7116.0234"
         id="path10158"
         inkscape:connector-curvature="0" />
      <path
         style="fill:none;stroke:#00ff00;stroke-width:1.98646688"
         d="M 3961.9741,7116.0234 C 3977.1322,7154.5504 3987.575,7194.7164 3994.88,7235.4685 C 3998.5326,7255.8445 4002.3769,7276.381 4010.3769,7295.4736 C 4018.377,7314.566 4031.2199,7332.466 4049.5935,7342.0021 C 4063.6012,7349.2726 4080.1971,7351.1686 4095.6364,7347.897 C 4111.0757,7344.6257 4125.3049,7336.3131 4136.2383,7324.9315 C 4147.1715,7313.5501 4154.8434,7299.1851 4158.893,7283.9314 C 4162.9426,7268.6777 4163.4245,7252.5625 4160.9811,7236.9707 C 4156.0946,7205.7872 4139.7495,7177.2923 4119.1103,7153.4109 C 4098.4711,7129.5295 4073.573,7109.7646 4048.7213,7090.3047 C 4023.8696,7070.8446 3998.7603,7051.4048 3977.5524,7028.027 C 3956.3447,7004.6491 3939.0262,6976.8544 3932.6451,6945.9419 C 3929.4545,6930.4856 3929.0634,6914.3873 3932.1886,6898.9178 C 3935.3138,6883.4483 3942.0087,6868.6285 3952.0924,6856.4878 C 3962.1761,6844.3474 3975.6895,6834.9636 3990.7989,6830.4047 C 4005.9082,6825.8459 4022.5762,6826.2371 4037.2178,6832.1275 C 4047.5106,6836.2683 4056.6579,6843.0051 4064.2411,6851.1033 C 4071.8243,6859.2016 4077.887,6868.6431 4082.7652,6878.6075 C 4092.5219,6898.5364 4096.3161,6920.7095 4102.6045,6941.9887 C 4115.466,6985.51 4129.075,7025.195 4144.3905,7068.0062"
         id="path10156"
         inkscape:connector-curvature="0"
         sodipodi:nodetypes="cssccssssssssssssssc" />
      <path
         style="fill:none;stroke:#000000;stroke-width:1.98646688"
         d="M 4144.3905,7068.0062 L 4244.7763,7360.0418"
         id="path10144"
         inkscape:connector-curvature="0"
         sodipodi:nodetypes="cc" />
    </g>
    <circle
       style="opacity:1;fill:#ff0000;fill-opacity:1;stroke:none;stroke-width:2;stroke-linecap:round;stroke-linejoin:round;stroke-miterlimit:4;stroke-dasharray:16.54453468, 8.27226734;stroke-dashoffset:20.68066788"
       id="circle10118"
       cx="181.69769"
       cy="259.80157"
       r="7.4527912"
       d="M 189.15048,259.80157 A 7.4527912,7.4527912 0 0 1 181.69769,267.25437 A 7.4527912,7.4527912 0 0 1 174.2449,259.80157 A 7.4527912,7.4527912 0 0 1 181.69769,252.34878 A 7.4527912,7.4527912 0 0 1 189.15048,259.80157 Z" />
    <circle
       r="7.0956483"
       cy="305.95065"
       cx="366.18658"
       id="circle10120"
       style="opacity:1;fill:#ff0000;fill-opacity:1;stroke:none;stroke-width:2;stroke-linecap:round;stroke-linejoin:round;stroke-miterlimit:4;stroke-dasharray:16.54453468, 8.27226734;stroke-dashoffset:20.68066788"
       d="M 373.28223,305.95065 A 7.0956483,7.0956483 0 0 1 366.18658,313.0463 A 7.0956483,7.0956483 0 0 1 359.09094,305.95065 A 7.0956483,7.0956483 0 0 1 366.18658,298.855 A 7.0956483,7.0956483 0 0 1 373.28223,305.95065 Z" />
    <circle
       style="opacity:1;fill:#ffcc00;fill-opacity:1;stroke:none;stroke-width:2;stroke-linecap:round;stroke-linejoin:round;stroke-miterlimit:4;stroke-dasharray:16.54453468, 8.27226734;stroke-dashoffset:20.68066788"
       id="circle10160"
       cx="283.42941"
       cy="-28.537462"
       r="5.1647625"
       d="M 288.59418,-28.537462 A 5.1647625,5.1647625 0 0 1 283.42941,-23.3727 A 5.1647625,5.1647625 0 0 1 278.26465,-28.537462 A 5.1647625,5.1647625 0 0 1 283.42941,-33.702225 A 5.1647625,5.1647625 0 0 1 288.59418,-28.537462 Z" />
    <circle
       r="4.8076196"
       cy="629.60931"
       cx="254.29048"
       id="circle10162"
       style="opacity:1;fill:#ffcc00;fill-opacity:1;stroke:none;stroke-width:2;stroke-linecap:round;stroke-linejoin:round;stroke-miterlimit:4;stroke-dasharray:16.54453468, 8.27226734;stroke-dashoffset:20.68066788"
       d="M 259.0981,629.60931 A 4.8076196,4.8076196 0 0 1 254.29048,634.41693 A 4.8076196,4.8076196 0 0 1 249.48286,629.60931 A 4.8076196,4.8076196 0 0 1 254.29048,624.80169 A 4.8076196,4.8076196 0 0 1 259.0981,629.60931 Z" />
  </g>
</svg>
