<?xml version="1.0" encoding="UTF-8" standalone="no"?>
<!-- Created with Inkscape (http://www.inkscape.org/) -->

<svg
   xmlns:dc="http://purl.org/dc/elements/1.1/"
   xmlns:cc="http://creativecommons.org/ns#"
   xmlns:rdf="http://www.w3.org/1999/02/22-rdf-syntax-ns#"
   xmlns:svg="http://www.w3.org/2000/svg"
   xmlns="http://www.w3.org/2000/svg"
   xmlns:sodipodi="http://sodipodi.sourceforge.net/DTD/sodipodi-0.dtd"
   xmlns:inkscape="http://www.inkscape.org/namespaces/inkscape"
   width="744.09448819"
   height="1052.3622047"
   id="svg2"
   version="1.1"
   inkscape:version="0.48.4 r9939"
   sodipodi:docname="New document 1">
  <defs
     id="defs4" />
  <sodipodi:namedview
     id="base"
     pagecolor="#ffffff"
     bordercolor="#666666"
     borderopacity="1.0"
     inkscape:pageopacity="0.0"
     inkscape:pageshadow="2"
     inkscape:zoom="3.959798"
     inkscape:cx="297.34919"
     inkscape:cy="573.56883"
     inkscape:document-units="px"
     inkscape:current-layer="layer1"
     showgrid="false"
     inkscape:window-width="1600"
     inkscape:window-height="838"
     inkscape:window-x="0"
     inkscape:window-y="27"
     inkscape:window-maximized="1" />
  <metadata
     id="metadata7">
    <rdf:RDF>
      <cc:Work
         rdf:about="">
        <dc:format>image/svg+xml</dc:format>
        <dc:type
           rdf:resource="http://purl.org/dc/dcmitype/StillImage" />
        <dc:title></dc:title>
      </cc:Work>
    </rdf:RDF>
  </metadata>
  <g
     inkscape:label="Layer 1"
     inkscape:groupmode="layer"
     id="layer1">
    <path
       inkscape:connector-curvature="0"
       id="path3043"
       d="M 362.16452,473.03314 L 414.66452,497.31886"
       style="fill:none;stroke:#cccccc;stroke-width:1px;stroke-linecap:butt;stroke-linejoin:miter;stroke-opacity:1" />
    <path
       sodipodi:nodetypes="cc"
       inkscape:connector-curvature="0"
       id="path3039"
       d="M 319.28571,469.77925 L 178.92857,485.93361"
       style="fill:none;stroke:#cccccc;stroke-width:1px;stroke-linecap:butt;stroke-linejoin:miter;stroke-opacity:1" />
    <path
       inkscape:connector-curvature="0"
       id="path3041"
       d="M 360,470.93361 L 477.85714,478.43361"
       style="fill:none;stroke:#cccccc;stroke-width:1px;stroke-linecap:butt;stroke-linejoin:miter;stroke-opacity:1" />
    <path
       sodipodi:nodetypes="csssssssssssc"
       style="fill:none;stroke:#00ff00;stroke-width:1.21419597000000001"
       inkscape:connector-curvature="0"
       d="M 319.81816,470.03123 L 311.47057,470.7901 C 303.37834,471.52577 295.2779,472.16937 287.18665,472.91494 C 134.50453,486.984 -11.74234,561.77421 -112.52516,677.32788 C -213.30783,792.88154 -267.52487,947.93725 -260.70746,1101.1157 C -253.88925,1254.2926 -186.10893,1403.9195 -75.456061,1510.0599 C 35.197111,1616.1996 187.51603,1677.6933 340.84471,1678.1274 C 494.17338,1678.5615 646.83727,1617.9283 758.08646,1512.4124 C 869.33534,1406.8973 937.95442,1257.6513 945.62358,1104.5139 C 953.29293,951.37646 899.92899,796.0216 799.77633,679.9217 C 699.62368,563.82165 553.77568,488.24569 401.16945,473.37179 C 392.64018,472.54047 384.08329,472.0224 375.51956,471.70227 L 359.27969,471.09517"
       id="path3003" />
    <path
       transform="matrix(0.45736434,0,0,0.45736434,157.0562,279.41469)"
       d="M 280.82239,457.44547 A 8.1443548,8.1443548 0 1 1 264.53368,457.44547 A 8.1443548,8.1443548 0 1 1 280.82239,457.44547 z"
       sodipodi:ry="8.1443548"
       sodipodi:rx="8.1443548"
       sodipodi:cy="457.44547"
       sodipodi:cx="272.67804"
       id="path3015"
       style="fill:#0000ff;stroke:none"
       sodipodi:type="arc" />
    <path
       sodipodi:type="arc"
       style="fill:#0000ff;stroke:none"
       id="path3031"
       sodipodi:cx="272.67804"
       sodipodi:cy="457.44547"
       sodipodi:rx="8.1443548"
       sodipodi:ry="8.1443548"
       d="M 280.82239,457.44547 A 8.1443548,8.1443548 0 1 1 264.53368,457.44547 A 8.1443548,8.1443548 0 1 1 280.82239,457.44547 z"
       transform="matrix(0.45736434,0,0,0.45736434,269.43567,280.42484)" />
    <path
       sodipodi:type="arc"
       style="fill:#00ff00;stroke:none"
       id="path3033"
       sodipodi:cx="272.67804"
       sodipodi:cy="457.44547"
       sodipodi:rx="8.1443548"
       sodipodi:ry="8.1443548"
       d="M 280.82239,457.44547 A 8.1443548,8.1443548 0 1 1 264.53368,457.44547 A 8.1443548,8.1443548 0 1 1 280.82239,457.44547 z"
       transform="matrix(0.45736434,0,0,0.45736434,149.98513,265.02001)" />
    <path
       transform="matrix(0.45736434,0,0,0.45736434,275.74912,264.51494)"
       d="M 280.82239,457.44547 A 8.1443548,8.1443548 0 1 1 264.53368,457.44547 A 8.1443548,8.1443548 0 1 1 280.82239,457.44547 z"
       sodipodi:ry="8.1443548"
       sodipodi:rx="8.1443548"
       sodipodi:cy="457.44547"
       sodipodi:cx="272.67804"
       id="path3035"
       style="fill:#00ff00;stroke:none"
       sodipodi:type="arc" />
    <path
       inkscape:connector-curvature="0"
       id="path3037"
       d="M 319.96582,471.77701 L 259.48294,490.84364"
       style="fill:none;stroke:#cccccc;stroke-width:1px;stroke-linecap:butt;stroke-linejoin:miter;stroke-opacity:1" />
    <path
       inkscape:connector-curvature="0"
       id="path3084"
       d="M 322.21065,469.94163 L 362.36421,470.95178"
       style="fill:#ff0000;stroke:#ff0000;stroke-width:1px;stroke-linecap:butt;stroke-linejoin:miter;stroke-opacity:1" />
    <g
       id="g2987"
       transform="matrix(0.15735496,0,0,-0.15735496,274.62562,569.26435)"
       style="fill:none;stroke:#000080;stroke-width:8">
      <path
         id="path2989"
         d="M 293.70279,620.46853 L 193.13637,584.01223 C 144.80875,566.49301 119.4761,554.43576 67.185316,528.02447 C -59.954117,463.80825 -159.619,347.876 -220.167,218.949 C -280.7152,90.022 -296.9643,-59.169 -265.8754,-198.171 C -234.7865,-337.173 -156.5984,-465.153 -47.2934,-556.48 C 62.0116,-647.807 201.7536,-701.979 344.0416,-708.481 C 486.3296,-714.98326 630.3406,-673.8277 747.8726,-593.363 C 865.4036,-512.8982 955.8226,-393.616 1001.8206,-258.812 C 1047.8187,-124.007 1049.1904,25.568 1005.9513,161.283 C 962.71218,296.998 875.13828,418.145 760.00028,501.999 C 721.30558,530.18 679.03408,553.0338 636.00028,573.999 L 558.00028,611.999"
         inkscape:connector-curvature="0"
         style="fill:none;stroke:#000080;stroke-width:8"
         sodipodi:nodetypes="csssssssssssc" />
    </g>
    <path
       sodipodi:type="arc"
       style="fill:#ff0000;stroke:none"
       id="path3082"
       sodipodi:cx="272.67804"
       sodipodi:cy="457.44547"
       sodipodi:rx="8.1443548"
       sodipodi:ry="8.1443548"
       d="M 280.82239,457.44547 A 8.1443548,8.1443548 0 1 1 264.53368,457.44547 A 8.1443548,8.1443548 0 1 1 280.82239,457.44547 z"
       transform="matrix(0.45736434,0,0,0.45736434,237.12799,261.80572)" />
    <path
       transform="matrix(0.45736434,0,0,0.45736434,197.48513,260.7343)"
       d="M 280.82239,457.44547 A 8.1443548,8.1443548 0 1 1 264.53368,457.44547 A 8.1443548,8.1443548 0 1 1 280.82239,457.44547 z"
       sodipodi:ry="8.1443548"
       sodipodi:rx="8.1443548"
       sodipodi:cy="457.44547"
       sodipodi:cx="272.67804"
       id="path3080"
       style="fill:#ff0000;stroke:none"
       sodipodi:type="arc" />
  </g>
</svg>
