<svg x="0" y="0" width="2480.46875" height="1205.07812" version="1.1" xmlns="http://www.w3.org/2000/svg" xmlns:xlink="http://www.w3.org/1999/xlink"><g fill="none" stroke="none" stroke-width="2" stroke-linecap="butt" stroke-linejoin="miter" stroke-miterlimit="10" stroke-dasharray="" stroke-dashoffset="0" font-family="sans-serif" font-weight="normal" font-size="12" text-anchor="start" mix-blend-mode="normal"><polygon points="20,712.85588 263.73036,36.81549 454.08906,35.92596 699.59848,711.07682 473.65868,712.85588 441.63569,607.00219 270.84658,607.89172 316.21244,438.8816 396.26985,437.10259 350.90396,282.32489 261.06177,606.11266 229.03881,711.07682" stroke="#000000"></polygon><path d="M441.63569,607.00219c-0.14478,-0.47858 -0.14478,-0.47858 -0.14478,-0.47858c-2.43783,-8.05837 -5.73449,-15.82204 -9.52786,-23.33807c-1.89669,-3.75802 -3.77664,-7.5604 -4.88879,-11.62035c-1.11215,-4.05995 -1.3988,-8.48102 0.08337,-12.42098c1.57607,-4.18956 5.11368,-7.51693 9.26951,-9.17991c4.15583,-1.66298 8.867,-1.72637 13.18274,-0.53857c4.31574,1.1878 8.24639,3.57854 11.56197,6.58576c3.31558,3.00722 6.0393,6.62049 8.36813,10.44319c4.65767,7.64538 7.77261,16.13291 12.19457,23.91699c2.21098,3.89204 4.7607,7.61895 7.88647,10.82301c3.12577,3.20406 6.84967,5.87948 11.03859,7.45727c3.88534,1.46345 8.07853,1.95861 12.23028,1.98219c4.15175,0.02357 8.2917,-0.40382 12.41979,-0.84707c8.25617,-0.88649 16.54503,-1.45949 24.8484,-1.52487c0.49998,-0.00394 0.49998,-0.00394 0.49998,-0.00394" stroke="#ff0000"></path><g stroke="#ff0000"><line x1="441.63569" y1="607.00219" x2="550.65807" y2="608.25826"></line><polyline points="544.82831,616.38316 550.65807,608.25826 545.01705,600.0012"></polyline></g><polyline points="355.31336,93.67983 414.02872,93.40546 613.5872,651.33554 520.70896,648.94177 491.04002,540.07731 361.96995,537.62451 372.4686,510.56616 497.14713,510.92136 384.4804,115.41877 396.54784,118.48742 577.99632,626.61501 539.55111,623.34618 516.06734,528.45179 527.58799,533.19701 551.55738,608.25118 550.65807,608.25826" stroke="#000000"></polyline><path d="M355.31336,93.67983c-0.49999,0.00234 -0.49999,0.00234 -0.49999,0.00234c-3.34086,0.01561 -6.69417,0.04806 -9.99916,0.53656c-3.30499,0.4885 -6.56273,1.44043 -9.49418,3.04298c-2.93146,1.60255 -5.51771,3.85749 -7.413,6.60876c-1.89529,2.75126 -3.08482,5.98267 -3.43459,9.3052c-0.34977,3.32254 0.1352,6.71737 1.30225,9.84779c1.16706,3.13043 3.00202,5.99175 5.22836,8.48273c4.45269,4.98196 10.35723,8.39694 16.22293,11.59694c110.18322,60.10977 236.62202,81.41274 359.96914,104.62941c4.89589,0.92152 9.83281,1.83812 14.81407,1.76061c4.98126,-0.0775 10.01097,-1.21863 14.27029,-3.80264c4.25933,-2.584 7.6058,-6.58426 9.56202,-11.16598c1.95622,-4.58172 2.50569,-9.62107 2.91678,-14.58594c0.04126,-0.49829 0.04126,-0.49829 0.04126,-0.49829" stroke="#ff0000"></path><g stroke="#ff0000"><line x1="355.31336" y1="93.67983" x2="748.79954" y2="219.44029"></line><polyline points="740.84225,225.49682 748.79954,219.44029 745.82982,209.89143"></polyline></g><polyline points="22.97484,710.74715 265.19632,38.892 451.17558,40.10629 690.70076,704.89669 479.8292,704.4737 449.35512,596.54518 287.16718,595.30655 327.46367,453.21851 418.37994,453.28204 350.41,213.97779 241.05779,600.28696 212.02697,688.30411 55.69813,687.55116 282.78782,63.81007 433.69471,65.18825 655.10989,680.17616 498.34079,679.32717 467.88174,571.44835 319.80839,570.1362 346.7515,477.79608 451.54508,477.55123 349.75138,122.84829 217.05301,593.29611 193.4686,663.46114 91.39629,662.24643 300.37932,88.72814 347.89209,90.58947 204.25047,589.56765 181.40566,647.31322 118.76485,642.84615 315.91848,110.7391 185.04664,583.97497 165.63105,626.1967 150.89318,620.0719 199.3603,485.63755" stroke="#000000"></polyline><path d="M22.97484,710.74715c-0.16958,0.47036 -0.16958,0.47036 -0.16958,0.47036c-1.83751,5.09675 -3.55161,10.37868 -3.34716,15.79269c0.20445,5.41402 2.39586,10.76271 6.21525,14.60531c3.81939,3.84261 9.05436,6.07745 14.40961,6.89883c5.35525,0.82138 10.81478,0.34263 16.20868,-0.16649c134.32944,-12.6791 270.34309,-33.44709 392.03107,-91.73254c6.19137,-2.96551 12.44655,-6.13659 17.26463,-11.02673c2.40904,-2.44507 4.42691,-5.29878 5.75416,-8.46426c1.32725,-3.16548 1.94804,-6.63823 1.68701,-10.06076c-0.26103,-3.42253 -1.41005,-6.77428 -3.3121,-9.63156c-1.90206,-2.85727 -4.54112,-5.20206 -7.54711,-6.85911c-3.00599,-1.65705 -6.35804,-2.62843 -9.75657,-3.1099c-3.39853,-0.48147 -6.84463,-0.4813 -10.27705,-0.46343c-0.49999,0.0026 -0.49999,0.0026 -0.49999,0.0026" stroke="#ff0000"></path><g stroke="#ff0000"><line x1="22.97484" y1="710.74715" x2="441.63569" y2="607.00219"></line><polyline points="438.0386,616.33284 441.63569,607.00219 434.09803,600.43076"></polyline></g><polygon points="1224.20045,532.14113 1216.07694,566.43349 1202.5789,597.5925 1183.73975,625.37736 1159.5932,649.5477 1130.17277,669.86291 1095.51215,686.08231 1055.64487,697.96542 1010.60453,705.27173 960.42475,707.76067 934.26946,707.14996 908.92705,705.34269 884.4715,702.37572 860.97665,698.2862 838.51638,693.11099 817.16461,686.88722 796.99525,679.65187 778.08219,671.44197 760.49945,662.29439 744.32074,652.24636 728.64482,499.06792 749.63826,513.41018 770.96084,526.21648 792.60597,537.49315 814.56688,547.24614 836.83678,555.48178 859.40899,562.20618 882.27682,567.42562 905.43359,571.1461 928.87243,573.37391 952.58675,574.11503 970.88624,573.38521 987.45906,571.23652 1002.25822,567.73098 1015.23685,562.93001 1026.34767,556.89534 1035.5439,549.68878 1042.77838,541.37195 1048.00401,532.00648 1051.17392,521.65404 1052.24105,510.37643 1051.46277,499.21392 1048.97147,489.05071 1044.53178,479.71403 1037.90871,471.03117 1028.86707,462.82943 1017.17168,454.93614 1002.58746,447.17852 984.87921,439.3839 963.81187,431.37956 939.15023,422.99276 903.61856,409.9932 871.62732,395.11226 843.22359,378.44254 818.45453,360.07656 797.36704,340.10685 780.00808,318.62589 766.42493,295.72622 756.66438,271.50041 750.77359,246.04089 748.79954,219.44029 751.49585,186.87603 759.48609,156.06351 772.62255,127.39756 790.75733,101.27294 813.7428,78.08439 841.43096,58.22672 873.6741,42.09469 910.32449,30.08304 951.23422,22.58655 996.25549,20 1021.79496,20.5942 1045.37945,22.28636 1067.0693,24.94077 1086.92515,28.42172 1105.00735,32.59352 1121.37633,37.32046 1136.09275,42.46683 1149.21683,47.89696 1160.80922,53.47512 1170.93027,59.06561 1157.49375,192.71115 1146.70421,186.56345 1134.59791,180.53915 1121.33604,174.76153 1107.07987,169.35403 1091.99069,164.43999 1076.22966,160.14276 1059.95807,156.58577 1043.3371,153.89226 1026.52801,152.18573 1009.692,151.58947 992.18759,152.31217 976.61133,154.41039 962.94298,157.77933 951.16257,162.314 941.24969,167.90966 933.18446,174.46138 926.94654,181.8643 922.51589,190.01361 919.87227,198.80439 918.99551,208.13183 919.77035,217.06241 922.23815,225.41939 926.61396,233.30757 933.11281,240.83182 941.94954,248.097 953.33927,255.20798 967.49687,262.26958 984.63735,269.38675 1004.97575,276.66427 1028.72712,284.207 1062.02951,295.82592 1093.1955,309.67777 1121.90262,325.71319 1147.82843,343.88281 1170.65037,364.13733 1190.04597,386.42733 1205.6928,410.70356 1217.26829,436.91659 1224.45018,465.01713 1226.91572,494.95575" stroke="#000000"></polygon><path d="M748.79954,219.44029c-0.037,-0.49863 -0.037,-0.49863 -0.037,-0.49863c-0.61723,-8.31731 -1.89114,-16.56812 -3.56479,-24.73866c-0.83682,-4.08527 -1.65437,-8.19187 -1.88761,-12.35544c-0.23324,-4.16357 0.15253,-8.43461 1.78905,-12.27016c1.78273,-4.17823 5.02724,-7.6796 8.95322,-9.96487c3.92598,-2.28527 8.50543,-3.37377 13.04777,-3.31993c9.08468,0.10769 17.70374,4.72379 24.12579,11.15031c6.42206,6.42652 10.87773,14.55066 14.5544,22.85879c3.67667,8.30813 6.66456,16.91932 10.64649,25.08554c7.23396,14.83557 16.83268,28.37803 25.25306,42.57385c0.25508,0.43004 0.25508,0.43004 0.25508,0.43004" stroke="#ff0000"></path><g stroke="#ff0000"><line x1="748.79954" y1="219.44029" x2="841.93499" y2="258.39114"></line><polyline points="833.48279,263.73532 841.93499,258.39114 839.80392,248.62085"></polyline></g><polyline points="900.77343,318.09085 888.07288,310.63709 871.53298,296.8168 849.15052,270.55573 841.93499,258.39114" stroke="#000000"></polyline><path d="M900.77343,318.09085c0.43122,0.25308 0.43122,0.25308 0.43122,0.25308c14.23707,8.35552 29.35445,15.32596 42.69092,25.05465c12.78786,9.3285 23.04467,21.82215 31.11662,35.4381c8.07195,13.61595 14.04261,28.37311 19.2701,43.31378c10.45499,29.88134 18.25789,61.17614 35.07531,87.99732c8.40871,13.41059 19.09386,25.57574 32.25802,34.36523c13.16416,8.7895 28.91846,14.0638 44.73445,13.42767c15.81599,-0.63614 31.57554,-7.50984 41.70993,-19.66897c5.06719,-6.07957 8.6848,-13.38924 10.25221,-21.14687c1.56741,-7.75763 1.06003,-15.95031 -1.63754,-23.39079c-2.81877,-7.77478 -7.8106,-14.54193 -12.70447,-21.20847c-4.89387,-6.66654 -9.63205,-13.4469 -14.11235,-20.39813c-0.27088,-0.42027 -0.27088,-0.42027 -0.27088,-0.42027" stroke="#ff0000"></path><g stroke="#ff0000"><line x1="900.77343" y1="318.09085" x2="1129.58698" y2="451.70719"></line><polyline points="1120.50314,455.88857 1129.58698,451.70719 1128.76462,441.74106"></polyline></g><polyline points="986.14289,86.61036 964.28747,89.55443 943.05183,94.49921 922.72565,102.01554 903.51272,112.51915 885.95455,126.37466 870.97561,143.64725 859.64539,163.79828 852.7109,185.68425 850.28474,207.88528 851.85123,229.90231 858.10599,252.29266 869.35185,273.28113 884.16766,290.98098 900.90897,305.20734 918.84154,316.82425 938.04731,326.80291 958.9538,335.88191 982.06236,344.54112 1005.96503,352.52933 1035.36189,363.18683 1060.60893,374.82249 1082.97779,387.75131 1102.17938,401.67094 1118.02591,416.24902 1130.49022,431.16844 1139.73281,446.24091 1146.05289,461.55109 1149.72606,477.55152 1150.78385,495.3089 1148.54057,520.49363 1142.98782,542.15588 1134.68272,560.29643 1123.68466,575.77443 1109.4463,589.41695 1099.21286,595.95946 1107.63392,586.93528 1121.33111,563.27156 1129.75436,537.23475 1132.64225,511.37075 1131.8143,486.65879 1126.6127,461.40021 1115.88292,436.18926 1103.21233,417.28801 1120.96246,438.32614 1129.58698,451.70719" stroke="#000000"></polyline><path d="M986.14289,86.61036c0.49552,-0.06675 0.49552,-0.06675 0.49552,-0.06675c4.90169,-0.66029 9.84179,-1.07439 14.78706,-0.99142c4.94527,0.08296 9.88345,0.40154 14.82632,0.57659c0.49969,0.0177 0.49969,0.0177 0.49969,0.0177" stroke="#ff0000"></path><g stroke="#ff0000"><line x1="986.14289" y1="86.61036" x2="1016.75147" y2="86.14648"></line><polyline points="1011.1405,94.42397 1016.75147,86.14648 1010.89224,78.04281"></polyline></g><polyline points="1223.99727,532.10985 1215.88171,566.36864 1202.21812,597.39431 1183.26365,624.98412 1159.06606,648.9156 1129.661,668.97117 1095.07359,684.93007 1055.32382,696.56432 1010.43214,703.63892 960.40057,705.91534 934.36632,705.10248 909.14309,703.09827 884.83066,699.94225 861.50451,695.6741 839.24046,690.3338 818.11452,683.96242 798.20284,676.6018 779.5815,668.29514 762.3263,659.08697 747.99928,649.94774 733.6204,507.43061 747.31471,517.03443 768.75677,530.15152 790.55869,541.74093 812.71402,551.80448 835.21531,560.34418 858.0542,567.36185 881.22128,572.85978 904.70629,576.84054 928.49809,579.30773 952.61326,580.26641 971.42226,579.72134 988.63951,577.69573 1004.21786,574.21621 1018.12288,569.29105 1030.29869,562.91114 1040.64803,555.06129 1049.01573,545.75392 1055.20732,535.07782 1059.05359,523.2164 1060.46476,510.47814 1059.79404,497.91214 1057.12297,486.14771 1052.09782,475.09869 1044.58118,464.90367 1034.57744,455.55026 1022.03936,446.83896 1006.79919,438.49842 988.61424,430.26823 967.21707,421.91755 942.56534,413.31588 907.63147,400.31503 876.59104,385.6485 849.23504,369.35412 825.59415,351.56744 805.67888,332.42327 789.47563,312.04373 776.95014,290.52215 768.06235,267.90968 762.7921,244.21554 761.16634,219.49308 763.90167,188.98221 771.54143,160.35121 783.91977,133.8397 800.91447,109.72279 822.448,88.29495 848.46979,69.88875 878.93401,54.8797 913.78101,43.67832 952.92814,36.71663 996.5016,34.42193 1021.10136,35.20266 1043.94726,37.05069 1064.85619,39.81942 1083.89305,43.3683 1101.12363,47.55743 1116.61497,52.24777 1130.43504,57.30139 1142.65204,62.58168 1153.3347,67.95328 1153.42876,68.24324 1143.36647,166.24469 1141.74719,165.20621 1127.79541,158.89887 1112.84024,153.00154 1097.01703,147.62751 1080.46291,142.89629 1063.31534,138.93277 1045.7105,135.867 1027.7832,133.83399 1009.63746,132.97934 990.54066,133.55574 973.0555,135.69733 957.16442,139.3959 942.84649,144.68034 930.14337,151.60775 919.20072,160.22396 910.2787,170.48348 903.68771,182.16276 899.6499,194.8539 898.19603,208.0572 899.10366,220.96939 902.62388,233.63835 909.01373,245.59395 917.99733,256.31912 929.21579,265.81675 942.58617,274.41407 958.27553,282.47645 976.56037,290.29819 997.73915,298.10143 1021.50914,305.87237 1053.53927,317.2718 1082.77995,330.49978 1109.41287,345.61926 1133.12501,362.49619 1153.63754,380.98438 1170.72375,400.9431 1184.21939,422.27281 1194.00754,444.96284 1199.96406,469.12449 1201.88833,495.07185 1199.24959,528.30005 1191.89904,558.40245 1180.05008,585.21718 1163.75429,608.87023 1142.85987,629.48289 1117.06991,647.03155 1086.0789,661.29784 1049.67798,671.92478 1007.77857,678.50511 960.06949,680.65756 935.55986,679.87153 911.56418,677.94609 888.52144,674.93528 866.51345,670.88768 845.62272,665.85483 825.93182,659.89262 807.52286,653.06177 790.4761,645.42906 774.86775,637.06781 771.93189,634.99292 764.04285,555.80569 779.72592,564.21717 803.31449,574.92884 827.31533,584.03439 851.70468,591.525 876.45549,597.39529 901.53844,601.64351 926.92314,604.27276 952.72112,605.29463 973.53373,604.68026 993.14607,602.35482 1011.47545,598.23454 1028.50144,592.1662 1044.10696,583.93555 1057.9981,573.32367 1069.65361,560.25276 1078.42387,544.97685 1083.80933,528.12489 1085.66611,510.7898 1084.71467,494.01822 1080.93083,477.66897 1073.68706,461.92908 1063.19259,447.81235 1050.15536,435.69267 1035.03315,425.22434 1017.80579,415.81456 998.17435,406.9359 975.75751,398.18627 950.96176,389.52424 917.30705,376.9799 888.33249,363.26244 863.1908,348.2551 841.86828,332.17168 824.28772,315.22099 810.30157,297.56483 799.70543,279.27106 792.28933,260.2774 787.91519,240.3999 786.59163,219.60159 788.99422,193.24227 795.53689,168.88563 806.05415,146.46162 820.50859,126.02339 838.98665,107.69359 861.64309,91.71448 888.63349,78.45574 920.06327,68.38788 955.96325,62.03433 996.93642,59.90195 1019.89278,60.65735 1041.48555,62.4284 1061.10299,65.05208 1078.81862,68.38244 1094.70835,72.27546 1108.85065,76.58966 1121.32557,81.18655 1126.60732,83.61132 1121.70848,130.12574 1121.06752,129.646 1104.11315,123.89186 1086.3713,118.82524 1067.94876,114.56957 1048.94992,111.26459 1029.4774,109.0633 1009.56463,108.13472 988.36576,108.78655 968.40994,111.2495 949.69475,115.63246 932.20893,122.12417 916.08339,130.97044 901.67887,142.38424 889.60459,156.36715 880.5673,172.52216 875.06288,190.05077 873.15457,207.96734 874.46277,225.62767 879.46164,243.34401 888.42672,259.96533 900.48251,274.26479 914.5977,286.15867 930.35521,296.25974 947.88226,305.25141 967.53886,313.65503 989.72835,321.83198 1013.58952,329.64378 1044.30517,340.59662 1071.54997,352.94995 1096.06203,366.89774 1117.54145,382.22376 1135.75814,398.68956 1150.5867,416.07101 1162.02362,434.23126 1170.15931,453.21231 1175.06127,473.30174 1176.63776,495.18898 1174.27491,524.45532 1167.89084,550.42778 1157.85598,573.02574 1144.21985,592.73562 1126.63106,610.02305 1104.45984,625.05887 1077.06967,637.62741 1044.02238,647.24268 1005.12013,653.32512 959.73776,655.3506 936.75585,654.58869 913.99052,652.73941 892.22062,649.87139 871.53435,646.04212 852.0209,641.31477 833.76949,635.76012 816.86819,629.45783 801.40146,622.4984 795.63433,619.24411 793.6599,597.7385 819.47388,607.54903 845.4019,615.51029 871.72455,621.75139 898.39358,626.26635 925.35956,629.0577 952.8282,630.14354 975.63017,629.4616 997.62079,626.83966 1018.68212,622.08433 1038.80768,614.88195 1057.81969,604.8145 1075.22897,591.46059 1090.15242,574.6539 1101.48705,554.81049 1108.40479,533.00161 1110.70762,511.09948 1109.47682,490.14908 1104.58848,469.24374 1095.14115,448.84191 1081.68843,430.82716 1065.63731,415.95741 1047.94755,403.74177 1028.74569,393.26817 1007.67701,383.7438 984.24705,374.59644 959.30854,365.87322 926.92591,353.78154 900.00569,341.00647 877.06614,327.27765 858.04699,312.88963 842.78558,298.12129 831.00121,283.17374 822.32043,268.08933 816.36451,252.69294 812.87834,236.60854 811.85424,219.70942 813.92539,197.47492 819.37723,177.36489 828.04472,159.00154 839.97476,142.21755 855.41677,126.96491 874.72951,113.39626 898.26867,101.8755 926.30273,92.92909 958.97762,87.17913 997.3683,85.20975 1018.69218,85.94404 1019.32551,86.23764 1016.75147,86.14648" stroke="#000000"></polyline><path d="M1223.99727,532.10985c0.11526,-0.48653 0.11526,-0.48653 0.11526,-0.48653c1.90922,-8.05953 3.43233,-16.20398 4.71244,-24.38704c1.28011,-8.18306 2.5857,-16.59022 6.69782,-23.77992c3.70222,-6.47303 9.65543,-11.57463 16.50308,-14.52697c6.84765,-2.95233 14.54663,-3.78609 21.92055,-2.67618c7.37392,1.10991 14.41562,4.12864 20.4928,8.45002c6.07719,4.32138 11.20086,9.92475 15.23541,16.19603c8.0691,12.54256 11.69835,27.51549 12.7845,42.38985c1.08615,14.87436 -0.23671,29.80474 -1.35356,44.67682c-1.11685,14.87208 -2.0253,29.86935 -0.11958,44.66105c1.90573,14.7917 6.80553,29.5102 16.20831,41.08664c4.70139,5.78822 10.49584,10.72586 17.11005,14.16951c6.61421,3.44366 14.0555,5.36756 21.51149,5.24586c7.45599,-0.1217 14.90977,-2.32569 21.06258,-6.53869c6.15282,-4.213 10.94898,-10.45662 13.14254,-17.58367c2.43722,-7.91871 1.74459,-16.41949 1.07799,-24.67792c-0.6666,-8.25842 -1.07799,-16.5368 -1.07799,-24.82208c0,-0.5 0,-0.5 0,-0.5" stroke="#ff0000"></path><g stroke="#ff0000"><line x1="1223.99727" y1="532.10985" x2="1410.02097" y2="609.00664"></line><polyline points="1401.59093,614.38571 1410.02097,609.00664 1407.84955,599.24524"></polyline></g><polygon points="1319.79923,692.33998 1319.79923,36.44867 1493.35431,36.44867 1493.35431,555.61033 1780,555.61033 1780,692.33998" stroke="#000000"></polygon><polyline points="1323.9659,688.17332 1323.9659,40.61533 1485.02098,44.782 1480.85431,568.11033 1763.33333,572.277 1759.16667,671.50665 1344.79923,667.33998 1348.9659,65.61533 1460.02098,69.782 1455.85431,593.11033 1738.33334,597.277 1734.16667,646.50665 1369.79923,642.33999 1373.9659,90.61533 1435.02098,94.782 1430.85431,618.11033 1713.33333,622.277 1390.63257,621.50664 1396.88257,113.532 1410.02097,119.782 1410.02097,609.00664" stroke="#000000"></polyline><path d="M1323.9659,688.17332c0,0.5 0,0.5 0,0.5c0,3.21558 0.05025,6.44806 0.62276,9.61227c0.57252,3.16421 1.65645,6.23355 3.19064,9.05954c3.06838,5.65198 7.91941,10.09104 11.78093,15.23385c4.46834,5.95099 7.43423,13.13436 7.80354,20.56699c0.36931,7.43263 -1.98607,15.08416 -6.96619,20.61396c-2.49006,2.7649 -5.60319,4.9782 -9.06469,6.34318c-3.46149,1.36498 -7.26859,1.87191 -10.95637,1.37654c-3.68778,-0.49537 -7.24584,-2.00135 -10.11613,-4.36916c-2.87029,-2.36781 -5.03544,-5.59782 -6.0555,-9.17617c-1.55668,-5.46079 -0.43149,-11.35725 1.57583,-16.66895c2.00732,-5.3117 4.83833,-10.26693 7.26572,-15.40027c2.4274,-5.13334 4.43517,-10.4921 5.52701,-16.06448c1.09184,-5.57237 1.22578,-11.28231 1.22578,-16.96064c0,-0.5 0,-0.5 0,-0.5" stroke="#ff0000"></path><g stroke="#ff0000"><line x1="1323.9659" y1="688.17332" x2="1319.79923" y2="692.33998"></line><polyline points="1318.06275,682.4919 1319.79923,692.33998 1329.64731,694.07646"></polyline></g></g></svg>