<svg x="0" y="0" width="1915.5249" height="930.61328" version="1.1" xmlns="http://www.w3.org/2000/svg" xmlns:xlink="http://www.w3.org/1999/xlink"><g fill="none" stroke="none" stroke-width="none" stroke-linecap="butt" stroke-linejoin="miter" stroke-miterlimit="10" stroke-dasharray="" stroke-dashoffset="0" font-family="sans-serif" font-weight="normal" font-size="12" text-anchor="start" mix-blend-mode="normal"><polygon points="276.34195,869.77302 274.89923,887.65244 270.72243,904.61324 264.03857,920.42869 255.0745,934.87166 244.05723,947.71528 231.21361,958.7327 216.77064,967.69676 200.95519,974.38062 183.99439,978.55742 166.11497,980 148.23555,978.55742 131.27461,974.38062 115.4593,967.69676 101.01633,958.7327 88.17271,947.71528 77.1553,934.87166 68.19123,920.42869 61.50737,904.61324 57.33058,887.65244 55.88799,869.77302 57.33058,851.9205 61.50737,835.03278 68.19123,819.32509 77.1553,805.01283 88.17271,792.31139 101.01633,781.43643 115.4593,772.60307 131.27475,766.02683 148.23555,761.92311 166.11497,760.50743 183.99425,761.92311 200.95519,766.02683 216.77064,772.60307 231.21361,781.43643 244.05723,792.31139 255.0745,805.01283 264.03857,819.32509 270.72243,835.03278 274.89923,851.9205" stroke="#000000" stroke-width="2"></polygon><path d="M274.89923,887.65244c-0.04022,0.49838 -0.04022,0.49838 -0.04022,0.49838c-0.66825,8.28146 -0.80744,16.59412 -0.61795,24.90033c0.09474,4.15311 0.17187,8.31763 -0.221,12.45319c-0.39287,4.13557 -1.28116,8.27219 -3.14236,11.98611c-2.56368,5.11568 -6.95,9.24948 -12.10284,11.73763c-5.15284,2.48815 -11.03565,3.35586 -16.72212,2.71815c-5.68647,-0.63771 -11.1708,-2.75212 -15.96232,-5.88006c-4.79151,-3.12794 -8.89936,-7.25296 -12.22708,-11.90795c-6.65544,-9.30997 -10.12651,-20.55957 -11.96774,-31.85471c-1.84123,-11.29515 -2.153,-22.775 -3.09009,-34.18081c-0.93708,-11.4058 -2.53797,-22.8974 -6.80191,-33.51763c-4.26395,-10.62023 -11.43332,-20.39552 -21.42259,-25.97986c-4.99464,-2.79217 -10.6339,-4.48551 -16.3538,-4.64479c-5.7199,-0.15928 -11.51063,1.2453 -16.39206,4.23096c-4.88144,2.98567 -8.81144,7.57407 -10.7748,12.94881c-1.96336,5.37474 -1.89454,11.51035 0.41911,16.74386c1.68377,3.80869 4.46226,7.04767 7.57712,9.81152c3.11487,2.76385 6.57698,5.10462 10.0386,7.41944c6.92324,4.62965 13.63363,9.57511 19.95505,14.99771c0.3795,0.32554 0.3795,0.32554 0.3795,0.32554" stroke="#ff0000" stroke-width="2"></path><g stroke="#ff0000" stroke-width="2"><line x1="274.89923" y1="887.65244" x2="165.42973" y2="870.45826"></line><polyline points="172.36707,863.25595 165.42973,870.45826 169.82498,879.44057"></polyline></g><polyline points="275.71492,869.77306 274.2803,887.55193 269.53242,904.21802 262.36838,919.56414 253.05178,933.38992 241.84105,945.49912 228.99099,955.69861 214.75335,963.79965 199.3743,969.62055 183.08984,972.98712 166.11497,973.72969 149.34111,971.74928 133.64595,967.24052 119.20572,960.45927 106.20245,951.65316 94.82123,941.06677 85.24619,928.94467 77.65565,915.52955 72.21752,901.05624 69.09009,885.74283 68.42868,869.77378 70.32721,854.03851 74.59077,839.40313 80.97511,825.9956 89.24954,813.96188 99.18766,803.45854 110.56217,794.64645 123.14711,787.68209 136.72534,782.71299 151.1,779.87803 166.11497,779.31611 180.93226,781.1163 194.72597,785.09674 207.37443,791.03298 218.73059,798.71107 228.63626,807.91735 236.9331,818.43634 243.47321,830.0559 248.12384,842.58156 250.76265,855.85404 251.26058,869.77454 249.52346,883.53161 245.73208,896.31358 240.09917,908.03674 232.82451,918.57252 224.11163,927.76981 214.17353,935.47139 203.22596,941.53044 191.46986,945.82023 179.06961,948.23026 166.11497,948.64846 153.36131,946.99242 141.5504,943.44019 130.73314,938.19009 121.01991,931.42595 112.55058,923.33741 105.47341,914.12721 99.92485,904.00216 96.01785,893.15181 93.84694,881.7226 93.51002,869.77529 95.08268,858.07282 98.37875,847.34921 103.20792,837.59647 109.40661,828.87694 116.81156,821.29396 125.24807,814.96954 134.53645,810.02137 144.51189,806.55035 155.05097,804.64342 166.11496,804.39433 176.98131,805.88169 186.93944,808.9341 195.98509,813.37226 204.04469,819.03416 211.0123,825.75272 216.77599,833.35133 221.2404,841.65678 224.33586,850.52764 226.00721,859.88844 226.17922,869.77605 224.76664,879.51128 221.93176,888.40914 217.82996,896.50935 212.59725,903.75513 206.38221,910.0405 199.35606,915.24417 191.69856,919.26122 183.56542,922.01989 175.04938,923.47339 166.11497,923.56722 157.38152,922.23553 149.45486,919.63984 142.26058,915.92087 135.83738,911.1987 130.27996,905.60803 125.70065,899.30973 122.1941,892.47475 119.81821,885.24736 118.60385,877.70236 118.59141,869.77681 119.83821,862.10713 122.16679,855.2953 125.44078,849.19738 129.56372,843.79205 134.43551,839.12944 139.93401,835.29269 145.92583,832.36071 152.29846,830.38778 159.00195,829.40888 166.11495,829.47264 173.03034,830.64716 179.15288,832.77155 184.5957,835.71162 189.35874,839.35733 193.38827,843.58817 196.61881,848.26639 199.0075,853.2577 200.54777,858.47375 201.25165,863.92286 201.09775,869.77757 200.00969,875.49094 198.13133,880.50467 195.56065,884.98191 192.3699,888.93767 188.65271,892.31112 184.53854,895.01686 180.17112,896.99191 175.66095,898.21945 171.02913,898.71642 166.11497,898.48588 161.40175,897.47857 157.35935,895.83941 153.78805,893.65159 150.65491,890.97139 148.0094,887.87859 145.92796,884.49221 144.46341,880.94731 143.61865,877.34289 143.36081,873.68211 143.67287,869.77832 144.59379,866.14145 145.95488,863.24142 147.6737,860.7983 149.72088,858.70718 152.05949,856.96495 154.61998,855.61588 157.31523,854.70009 160.08505,854.22525 162.95294,854.17439 166.11494,854.55098 169.07937,855.41266 171.36632,856.60903 173.20631,858.051 174.67277,859.68052 175.76422,861.42363 176.46161,863.18146 176.77458,864.85863 176.75968,866.41987 176.49609,867.95727 176.01628,869.77908 175.25275,871.47059 174.3309,872.6002 173.29134,873.45447 172.14255,874.12022 170.92322,874.58173 169.72101,874.78955 168.64368,874.7226 167.75648,874.41902 167.00888,873.95945 166.11497,873.40454 165.42197,872.7216 165.26384,872.03898 165.3307,871.353 165.58454,870.59106 165.42973,870.45826" stroke="#000000" stroke-width="2"></polyline><polygon points="568.57161,869.77302 567.12889,887.65244 562.95223,904.61338 556.26823,920.42869 547.30416,934.8718 536.28689,947.71542 523.44313,958.7327 509.00016,967.69676 493.18485,974.38062 476.22391,978.55742 458.34449,980 440.46507,978.55728 423.50427,974.38062 407.68896,967.69662 393.24599,958.73255 380.40237,947.71528 369.3851,934.87166 360.42103,920.42869 353.73703,904.61324 349.56038,887.65244 348.11765,869.77302 349.55131,851.90266 353.70375,834.96608 360.35178,819.1866 369.27223,804.78725 380.24207,791.99106 393.03825,781.02123 407.43774,772.10064 423.21723,765.4526 440.15367,761.30017 458.02403,759.86651 475.91251,761.30017 492.89766,765.4526 508.74894,772.10064 523.23553,781.02109 536.12659,791.99092 547.19144,804.7871 556.19899,819.1866 562.91881,834.96608 567.11996,851.90266" stroke="#000000" stroke-width="2"></polygon><path d="M536.12659,791.99092c0.38079,0.32404 0.38079,0.32404 0.38079,0.32404c6.3552,5.40805 13.13473,10.28872 20.1425,14.81936c3.50389,2.26532 7.00985,4.56042 10.1365,7.32321c3.12664,2.76279 5.88565,6.05671 7.41905,9.93713c1.57823,3.99389 1.7711,8.49397 0.70158,12.65307c-1.06952,4.1591 -3.37511,7.96907 -6.4473,10.96968c-3.07219,3.00061 -6.89391,5.1997 -10.98275,6.51249c-4.08884,1.31279 -8.43916,1.75049 -12.72314,1.45129c-8.56796,-0.59839 -16.73257,-4.10475 -23.90315,-8.83241c-7.17058,-4.72766 -13.4559,-10.65902 -19.64644,-16.6126c-6.19054,-5.95358 -12.35875,-11.98861 -19.35545,-16.97c-6.9967,-4.98139 -14.92615,-8.90774 -23.42931,-10.11779c-8.50316,-1.21005 -17.63105,0.51965 -24.38355,5.82736c-3.37625,2.65385 -6.10267,6.16213 -7.68379,10.15488c-1.58112,3.99275 -1.99177,8.46652 -0.9999,12.64482c0.96309,4.05708 3.18712,7.72259 5.84444,10.93602c2.65731,3.21343 5.74998,6.03565 8.84553,8.82939c6.1911,5.58748 12.10869,11.4757 17.53847,17.80557c0.32554,0.3795 0.32554,0.3795 0.32554,0.3795" stroke="#ff0000" stroke-width="2"></path><g stroke="#ff0000" stroke-width="2"><line x1="536.12659" y1="791.99092" x2="457.90619" y2="870.02592"></line><polyline points="456.18139,860.17579 457.90619,870.02592 467.7522,871.77409"></polyline></g><polyline points="567.94457,869.77319 566.50996,887.55194 561.76222,904.21816 554.59804,919.56413 545.28143,933.39006 534.07072,945.49924 521.22053,955.6986 506.98286,963.79965 491.60396,969.62055 475.31936,972.98712 458.34451,973.72969 441.57063,971.74914 425.87562,967.24052 411.4354,960.45915 398.43208,951.65301 387.05089,941.06676 377.47601,928.9447 369.88543,915.52951 364.44719,901.05624 361.31989,885.74283 360.65805,869.77012 362.54993,854.00362 366.79852,839.29954 373.16315,825.8025 381.41388,813.67099 391.32319,803.07218 402.66232,794.17467 415.20426,787.14005 428.73255,782.11867 443.05501,779.25064 458.02479,778.67668 472.81829,780.4893 486.61644,784.506 499.2967,790.50185 510.70535,798.26098 520.67489,807.56537 529.03664,818.19102 535.63288,829.91432 540.32425,842.52574 542.9853,855.8495 543.48982,869.77975 541.75311,883.53173 537.96187,896.3137 532.32888,908.03667 525.05413,918.57271 516.3414,927.76982 506.40319,935.4713 495.45543,941.53046 483.6995,945.82023 471.29916,948.23026 458.34461,948.64845 445.59086,946.9923 433.78009,943.44019 422.96291,938.19001 413.24947,931.42575 404.78025,923.3374 397.70327,914.12731 392.15458,904.00204 388.24753,893.1518 386.07672,881.72261 385.73881,869.76431 387.30918,858.00544 390.60718,847.17855 395.44376,837.30841 401.64994,828.4772 409.05296,820.80196 417.46856,814.41071 426.7102,809.42065 436.61159,805.92732 447.05685,804.00988 458.0258,803.7569 468.82575,805.24946 478.76491,808.32274 487.83945,812.80634 495.96398,818.5432 503.01582,825.36473 508.86464,833.08426 513.39927,841.51184 516.54051,850.48327 518.2318,859.89754 518.40804,869.78648 516.99628,879.51153 514.16153,888.40925 510.05972,896.50922 504.82684,903.75536 498.61208,910.0404 491.58585,915.244 483.928,919.26127 475.79505,922.01989 467.27895,923.47338 458.34471,923.5672 449.61109,922.23543 441.68458,919.63983 434.49043,915.92085 428.06688,911.19846 422.50964,905.60801 417.93056,899.30989 414.42378,892.47455 412.04791,885.24735 410.83361,877.70237 410.81964,869.7585 412.06849,862.00728 414.4159,855.05758 417.72443,848.81436 421.88606,843.28346 426.78279,838.53178 432.27485,834.6468 438.21618,831.70132 444.49064,829.73605 451.05871,828.76922 458.02681,828.83721 464.83319,830.00971 470.91336,832.13956 476.38215,835.11092 481.22255,838.8255 485.35667,843.16416 488.69256,847.97756 491.16556,853.10942 492.75667,858.44084 493.4782,863.9456 493.32615,869.79321 492.23932,875.49131 490.36108,880.50476 487.79047,884.98171 484.59945,888.93795 480.88268,892.3109 476.76845,895.01661 472.40053,896.99198 467.89056,898.21945 463.25872,898.71641 458.34481,898.48585 453.63134,897.47848 449.58909,895.83939 446.01798,893.65161 442.88434,890.97111 440.23909,887.87856 438.15791,884.49244 436.69304,880.94703 435.84836,877.34288 435.59056,873.68212 435.90052,869.75269 436.82786,866.00912 438.22467,862.93663 440.00515,860.32032 442.12222,858.08975 444.51264,856.26164 447.08117,854.88294 449.72218,853.98203 452.36971,853.54481 455.06058,853.52858 458.02782,853.91754 460.84064,854.76998 463.06179,855.95641 464.92484,857.41551 466.48111,859.10781 467.69751,860.9636 468.52047,862.87087 468.93184,864.707 468.97282,866.39841 468.72458,867.99366 468.24425,869.79994 467.48237,871.47109 466.56063,872.60027 465.52121,873.45421 464.37206,874.12053 463.15328,874.58141 461.95105,874.78922 460.87305,874.72269 459.98607,874.41902 459.2385,873.95944 458.34491,873.40451 457.65158,872.72153 457.4936,872.03895 457.54554,871.38238 457.7018,870.74376 457.99186,870.1258 457.90619,870.02592" stroke="#000000" stroke-width="2"></polyline><path d="M567.94457,869.77319c0.04022,-0.49838 0.04022,-0.49838 0.04022,-0.49838c1.32759,-16.45263 4.10167,-32.83397 3.98131,-49.33963c-0.25074,-34.38457 -18.11931,-67.77109 -45.41755,-88.67964c-27.29824,-20.90855 -63.24443,-29.48511 -97.36137,-25.19612c-34.11694,4.28899 -66.21007,20.98277 -90.8352,44.98203c-24.62512,23.99926 -41.9279,55.03425 -51.49686,88.06146c-4.59206,15.84948 -7.89057,32.04143 -11.83633,48.06403c-0.11956,0.4855 -0.11956,0.4855 -0.11956,0.4855" stroke="#ff0000" stroke-width="2"></path><g stroke="#ff0000" stroke-width="2"><line x1="567.94457" y1="869.77319" x2="274.89923" y2="887.65244"></line><polyline points="280.12549,879.12683 274.89923,887.65244 281.1232,895.47946"></polyline></g><polygon points="433.99221,20 433.99221,261.6022 169.96011,139.8398" stroke="#000000" stroke-width="2"></polygon><path d="M169.96011,139.8398c-0.45404,-0.20939 -0.45404,-0.20939 -0.45404,-0.20939c-7.52749,-3.47142 -15.23003,-6.54483 -23.0252,-9.36425c-7.79517,-2.81942 -15.84603,-5.72988 -21.92517,-11.36529c-5.96908,-5.53339 -9.47763,-13.54329 -9.85041,-21.67406c-0.37278,-8.13077 2.31641,-16.30842 7.15769,-22.85138c4.84128,-6.54296 11.76422,-11.45589 19.42241,-14.21277c7.65819,-2.75688 16.02077,-3.393 24.07101,-2.19217c16.10048,2.40165 30.50485,11.99943 41.23012,24.24532c10.72528,12.24589 18.12227,27.03437 24.37592,42.06386c6.25364,15.02949 11.49186,30.49447 18.53923,45.16854c7.04736,14.67406 16.08245,28.71591 28.62475,39.09301c12.5423,10.3771 28.96168,16.78529 45.12503,14.85146c8.08167,-0.96691 15.95284,-4.01957 22.35213,-9.04923c6.39928,-5.02966 11.27253,-12.06027 13.38864,-19.91969c2.152,-7.99274 1.5368,-16.43757 0.94951,-24.69409c-0.58729,-8.25652 -0.94951,-16.52854 -0.94951,-24.80591c0,-0.5 0,-0.5 0,-0.5" stroke="#ff0000" stroke-width="2"></path><g stroke="#ff0000" stroke-width="2"><line x1="169.96011" y1="139.8398" x2="358.99221" y2="144.42374"></line><polyline points="353.05955,152.4738 358.99221,144.42374 353.45672,136.09558"></polyline></g><polyline points="425.65887,32.9339 425.65887,248.58237 210.01991,139.96041 408.99221,58.80171 400.65887,209.52288 270.1096,140.14131 383.99221,97.60342 375.65888,170.4634 330.19927,140.32222 358.99221,136.40512 358.99221,144.42374" stroke="#000000" stroke-width="2"></polyline><path d="M425.65887,32.9339c0,-0.5 0,-0.5 0,-0.5c0,-3.24965 -0.01597,-6.51096 -0.46605,-9.72929c-0.45008,-3.21833 -1.34092,-6.39476 -2.85463,-9.27033c-1.51371,-2.87557 -3.65197,-5.43296 -6.27812,-7.34699c-2.62616,-1.91403 -5.72559,-3.17088 -8.94178,-3.636c-3.21619,-0.46512 -6.53175,-0.14258 -9.63044,0.83636c-3.09869,0.97894 -5.9757,2.60155 -8.52798,4.61305c-5.10455,4.02299 -8.82523,9.50436 -12.3739,14.94935c-87.14036,133.70604 -132.65421,289.72926 -172.50895,444.2684c-1.28802,4.99439 -2.56426,10.04216 -2.72119,15.19757c-0.15694,5.15541 0.89215,10.42497 3.57232,14.83174c2.68017,4.40677 6.95643,7.77395 11.80419,9.53522c4.84777,1.76127 10.10986,1.91206 15.26766,1.91206c0.5,0 0.5,0 0.5,0" stroke="#ff0000" stroke-width="2"></path><g stroke="#ff0000" stroke-width="2"><line x1="425.65887" y1="32.9339" x2="232.5" y2="508.59505"></line><polyline points="227.06845,500.19872 232.5,508.59505 242.24766,506.36277"></polyline></g><polygon points="20,294.9267 604.4596,294.9267 604.4596,721.09505 20,721.09505" stroke="#000000" stroke-width="2"></polygon><path d="M20,294.9267c0.03383,0.49885 0.03383,0.49885 0.03383,0.49885c2.14556,31.63919 4.67816,63.41881 12.28331,94.20523c7.60514,30.78642 20.24293,60.41433 38.14307,86.59117c35.80028,52.35368 91.59813,87.73292 149.66908,113.23454c58.07095,25.50162 119.07607,44.90316 173.88165,76.82363c54.80558,31.92047 100.3044,77.35731 141.78861,125.33259c0.32704,0.37821 0.32704,0.37821 0.32704,0.37821" stroke="#ff0000" stroke-width="2"></path><g stroke="#ff0000" stroke-width="2"><line x1="20" y1="294.9267" x2="536.12659" y2="791.99092"></line><polyline points="526.31292,793.91235 536.12659,791.99092 537.67751,782.11192"></polyline></g><polyline points="26.25,301.1767 598.2096,301.1767 591.9596,708.59505 38.75,702.34505 45,319.9267 573.2096,326.1767 566.9596,683.59505 63.75,677.34505 70,344.9267 548.2096,351.1767 541.9596,658.59505 88.75,652.34505 95,369.9267 523.2096,376.1767 516.9596,633.59505 113.75,627.34505 120,394.9267 498.2096,401.1767 491.9596,608.59505 138.75,602.34505 145,419.9267 473.2096,426.1767 466.9596,583.59505 163.75,577.34505 170,444.9267 448.2096,451.1767 441.9596,558.59505 188.75,552.34505 195,469.9267 423.2096,476.1767 416.9596,533.59505 213.75,527.34505 220,494.9267 398.2096,501.1767 391.9596,508.59505 232.5,508.59505" stroke="#000000" stroke-width="2"></polyline><path d="M26.25,301.1767c-0.5,0 -0.5,0 -0.5,0c-3.24363,0 -6.50168,0.0466 -9.70141,0.57846c-3.19972,0.53186 -6.3184,1.53884 -9.22936,2.96973c-5.82191,2.86179 -10.60611,7.42518 -16.01657,11.00448c-6.00371,3.97176 -13.0159,6.56943 -20.21128,6.78365c-7.19538,0.21422 -14.55457,-2.07356 -19.94521,-6.84434c-2.69532,-2.38539 -4.87704,-5.36231 -6.26001,-8.6853c-1.38297,-3.32299 -1.95777,-6.99013 -1.57176,-10.56865c0.38601,-3.57853 1.74154,-7.05906 3.94597,-9.90429c2.20443,-2.84523 5.25926,-5.03835 8.68696,-6.13641c5.30776,-1.70033 11.1329,-0.74443 16.38455,1.12202c5.25165,1.86645 10.15552,4.57679 15.21697,6.91028c5.06145,2.3335 10.32953,4.2756 15.80186,5.33252c5.47233,1.05693 11.07584,1.18784 16.6493,1.18784c0.5,0 0.5,0 0.5,0" stroke="#ff0000" stroke-width="2"></path><g stroke="#ff0000" stroke-width="2"><line x1="26.25" y1="301.1767" x2="20" y2="294.9267"></line><polyline points="29.84808,293.19022 20,294.9267 18.26352,304.77478"></polyline></g><line x1="309.72536" y1="123.78363" x2="310.31681" y2="123.78363" stroke="#ff0000" stroke-width="3"></line></g></svg>