<?xml version="1.0" encoding="UTF-8" standalone="no"?>
<!-- Created with Inkscape (http://www.inkscape.org/) -->

<svg
   xmlns:dc="http://purl.org/dc/elements/1.1/"
   xmlns:cc="http://creativecommons.org/ns#"
   xmlns:rdf="http://www.w3.org/1999/02/22-rdf-syntax-ns#"
   xmlns:svg="http://www.w3.org/2000/svg"
   xmlns="http://www.w3.org/2000/svg"
   xmlns:sodipodi="http://sodipodi.sourceforge.net/DTD/sodipodi-0.dtd"
   xmlns:inkscape="http://www.inkscape.org/namespaces/inkscape"
   width="1856.8047"
   height="683.30896"
   id="svg5758"
   version="1.1"
   inkscape:version="0.48+devel r"
   viewBox="0 0 1856.8047 683.30897"
   sodipodi:docname="minkowski_crossing_avoidance.svg">
  <defs
     id="defs5760" />
  <sodipodi:namedview
     id="base"
     pagecolor="#ffffff"
     bordercolor="#666666"
     borderopacity="1.0"
     inkscape:pageopacity="0.0"
     inkscape:pageshadow="2"
     inkscape:zoom="0.35"
     inkscape:cx="311.97377"
     inkscape:cy="-21.202654"
     inkscape:document-units="px"
     inkscape:current-layer="layer1"
     showgrid="false"
     fit-margin-top="0"
     fit-margin-left="0"
     fit-margin-right="0"
     fit-margin-bottom="0"
     inkscape:window-width="2560"
     inkscape:window-height="1378"
     inkscape:window-x="0"
     inkscape:window-y="27"
     inkscape:window-maximized="1" />
  <metadata
     id="metadata5763">
    <rdf:RDF>
      <cc:Work
         rdf:about="">
        <dc:format>image/svg+xml</dc:format>
        <dc:type
           rdf:resource="http://purl.org/dc/dcmitype/StillImage" />
        <dc:title></dc:title>
      </cc:Work>
    </rdf:RDF>
  </metadata>
  <g
     inkscape:label="Layer 1"
     inkscape:groupmode="layer"
     id="layer1"
     transform="translate(431.25949,172.14945)">
    <path
       sodipodi:type="star"
       style="opacity:1;fill:#cccccc;fill-opacity:1;stroke:#000000;stroke-width:2;stroke-linecap:round;stroke-linejoin:round;stroke-miterlimit:4;stroke-dasharray:1, 2;stroke-dashoffset:0"
       id="path4908"
       sodipodi:sides="5"
       sodipodi:cx="532.40924"
       sodipodi:cy="198.37344"
       sodipodi:r1="307.09418"
       sodipodi:r2="153.54709"
       sodipodi:arg1="0.93744143"
       sodipodi:arg2="1.56576"
       inkscape:flatsided="true"
       inkscape:rounded="0"
       inkscape:randomized="0"
       d="M 714.16363,445.90562 L 353.15735,447.72379 L 239.87109,104.94826 L 530.86261,-108.71684 L 823.99152,102.00639 Z"
       inkscape:transform-center-x="0.47793512"
       inkscape:transform-center-y="-28.86997" />
    <path
       inkscape:connector-curvature="0"
       style="opacity:1;fill:none;fill-opacity:1;stroke:#0000ff;stroke-width:2;stroke-linecap:round;stroke-linejoin:round;stroke-miterlimit:4;stroke-dasharray:0.20680668, 0.41361336;stroke-dashoffset:0"
       d="M 844.36861,243.43083 C 820.79241,317.25393 797.21611,391.07706 773.63991,464.90006 A 62.442126,62.442126 0 0 1 714.47831,508.34076 C 594.14281,508.94686 473.80761,509.55276 353.47221,510.15876 L 353.47221,510.15876 A 62.442126,62.442126 0 0 1 293.8755,467.31626 C 269.2111,392.68806 244.5466,318.05968 219.8821,243.43133"
       id="path5740" />
    <path
       inkscape:connector-curvature="0"
       style="opacity:1;fill:none;fill-opacity:1;stroke:#ff6600;stroke-width:2;stroke-linecap:round;stroke-linejoin:round;stroke-miterlimit:4;stroke-dasharray:0.20680668, 0.41361336;stroke-dashoffset:0"
       d="M 219.8821,243.43133 C 206.7844,203.80111 193.6867,164.17089 180.5891,124.54066 A 62.442126,62.442126 0 0 1 202.9181,54.621849 C 299.9154,-16.599911 396.91261,-87.821337 493.90971,-159.043 A 62.442126,62.442126 0 0 1 567.30671,-159.41258 L 860.43571,51.310499 A 62.442126,62.442126 0 0 1 883.46801,121.00073 C 870.43491,161.81077 857.40181,202.6208 844.36861,243.43083"
       id="path4913" />
    <path
       style="fill:none;fill-rule:evenodd;stroke:#000000;stroke-width:2;stroke-linecap:butt;stroke-linejoin:miter;stroke-opacity:1"
       d="M -431.2595,243.79936 L -137.49999,243.79936"
       id="path5715"
       inkscape:connector-curvature="0" />
    <path
       style="fill:none;fill-rule:evenodd;stroke:#000000;stroke-width:2;stroke-linecap:butt;stroke-linejoin:miter;stroke-opacity:1"
       d="M 1063.2418,246.24736 L 1425.5452,246.24736"
       id="path5717"
       inkscape:connector-curvature="0" />
    <path
       style="fill:none;fill-rule:evenodd;stroke:#ff0000;stroke-width:2;stroke-linecap:butt;stroke-linejoin:miter;stroke-miterlimit:4;stroke-dasharray:16.54453468, 8.27226734;stroke-dashoffset:20.68066788;stroke-opacity:1"
       d="M -125.25999,245.02336 L 1052.2259,245.02336"
       id="path5719"
       inkscape:connector-curvature="0" />
    <path
       style="fill:none;fill-rule:evenodd;stroke:#0000ff;stroke-width:2;stroke-linecap:butt;stroke-linejoin:miter;stroke-opacity:1"
       d="M -119.4128,244.40917 C 31.249202,245.45544 91.807802,182.22123 119.1353,160.70809 C 143.7225,141.35222 184.0036,136.64403 199.6976,185.81841 C 215.3915,234.9928 220.6229,245.45544 220.6229,245.45544"
       id="path5733"
       inkscape:connector-curvature="0"
       sodipodi:nodetypes="cssc" />
    <path
       sodipodi:nodetypes="csssc"
       inkscape:connector-curvature="0"
       id="path5735"
       d="M 1057.6509,247.01423 C 991.75781,247.43769 965.19661,286.09863 933.24561,253.21708 C 894.30251,213.13983 998.37711,160.62427 952.16001,131.94357 C 924.23501,114.61433 883.64701,136.65702 866.69151,185.82064 C 849.73621,234.98427 844.08421,245.44462 844.08421,245.44462"
       style="fill:none;fill-rule:evenodd;stroke:#0000ff;stroke-width:2;stroke-linecap:butt;stroke-linejoin:miter;stroke-opacity:1" />
  </g>
</svg>
