<svg x="0" y="0" width="4166.66667" height="1038.41146" version="1.1" xmlns="http://www.w3.org/2000/svg" xmlns:xlink="http://www.w3.org/1999/xlink"><g fill="none" stroke="none" stroke-width="2" stroke-linecap="butt" stroke-linejoin="miter" stroke-miterlimit="10" stroke-dasharray="" stroke-dashoffset="0" font-family="sans-serif" font-weight="normal" font-size="12" text-anchor="start" mix-blend-mode="normal"><polygon points="509.66212,898.3687 477.37219,852.26625 438.66471,803.6391 394.95617,753.05224 347.66312,701.07093 298.20211,648.25999 247.98952,595.18467 198.44202,542.4099 150.976,490.5009 107.00806,440.0226 67.95473,391.54016 40.0995,343.1196 24.39026,292.823 20,242.29281 26.10161,193.17138 41.868,147.10112 66.47217,105.72438 99.08704,70.68353 138.88553,43.62092 185.0406,26.17896 236.72512,20 296.40619,26.6744 347.45373,44.79072 390.42154,71.48844 425.86343,103.90709 454.33329,139.18619 476.38485,174.46533 492.57206,206.88397 503.44867,233.5817 509.56847,251.69802 511.48535,258.37238 513.37825,251.68553 519.25727,233.53749 529.42242,206.79694 544.17394,174.33272 563.81199,139.01357 588.6366,103.70818 618.94807,71.28541 655.04643,44.61393 697.2319,26.56252 745.80467,20 804.24854,26.61404 854.97027,44.86031 897.60554,72.84191 931.79034,108.66177 957.16051,150.42298 973.35173,196.22856 980,244.18148 976.74115,292.38486 963.21102,338.94157 939.04544,381.95477 903.03151,434.03874 860.48959,487.78988 813.29049,542.54606 763.30526,597.64515 712.40493,652.42532 662.46054,706.22434 615.34306,758.38025 572.92346,808.23099 537.07285,855.11449" stroke="#000000"></polygon><polyline points="394.47932,287.6428 511.35367,694.58601 507.57153,697.70048 486.44602,671.93193 438.13782,617.55383 388.48469,563.27664 338.87016,509.5343 290.70291,456.92522 245.48576,406.15248 204.80764,358.09172 174.28951,318.78193 159.31722,290.96516 152.9168,267.47794 151.83629,244.72649 155.46738,223.00565 163.22004,203.2116 174.24953,186.47499 187.44945,173.65224 201.92322,164.92993 217.7911,159.9233 237.25256,158.52918 265.12962,162.57849 286.62976,171.19121 305.2723,183.86471 322.60023,200.96939 338.25772,221.84613 351.35424,244.54549 361.20072,266.33803 367.47462,284.19211 370.22218,295.21882 457.95562,604.05098 405.82174,546.95721 356.24726,493.15727 308.26907,440.64922 263.40451,390.1603 223.27299,342.62251 194.28368,305.10117 181.64234,281.19854 176.8879,262.7509 176.32631,245.17858 179.36486,228.51688 185.51358,213.51964 193.94102,201.22855 203.50621,192.36318 213.31651,186.85505 223.67879,183.96706 237.34688,183.3014 259.56598,186.7538 275.86639,193.55896 290.28212,203.6481 304.51425,217.96932 317.99961,236.27237 329.60969,256.7334 338.4327,276.64203 343.98991,292.93326 346.23701,302.70989 404.93245,510.7034 373.93692,476.48566 326.12812,424.10185 281.59861,373.92235 241.99812,326.93567 214.53332,291.24561 204.22405,271.31966 201.1039,257.97558 201.03545,245.63471 203.47865,234.07798 208.0112,223.92204 213.81481,216.11869 219.71325,211.24925 224.83695,209.02487 229.64276,208.32232 237.44259,208.43893 253.91037,211.32875 264.90592,216.3363 274.99084,223.82886 286.03298,235.3408 297.32651,250.99413 307.44932,269.15438 315.26014,287.12912 320.11955,301.81796 321.89005,310.31396 351.31213,416.53189 344.16116,407.39327 299.97209,357.52432 260.91003,311.09235 235.02477,277.22459 227.1197,261.30345 225.7039,253.12453 226.18454,246.09896 228.06862,239.74891 231.04174,234.57085 234.23742,231.42004 236.0658,231.20299 237.53317,232.22652 248.542,234.65559 254.4704,238.02274 260.31194,243.20144 268.14774,252.15204 277.12933,265.37698 285.46008,281.47944 291.91316,297.69514 295.70671,310.90457 296.34891,317.68788 279.35504,295.64018 255.76494,263.03338 249.21027,251.63944" stroke="#000000"></polyline><path d="M394.47932,287.6428c-0.13802,-0.48057 -0.13802,-0.48057 -0.13802,-0.48057c-2.28152,-7.94399 -4.82085,-15.81087 -7.51894,-23.62321c-2.69809,-7.81234 -5.45044,-15.71762 -6.14512,-23.9535c-0.77545,-9.19335 1.18189,-18.56144 5.31204,-26.81135c4.13014,-8.24991 10.39668,-15.37974 17.87797,-20.77877c14.96257,-10.79805 34.42642,-14.38777 52.70404,-11.85695c18.27762,2.53082 35.42192,10.80729 50.29684,21.72576c14.87492,10.91847 27.64792,24.43446 39.66307,38.43848c24.0303,28.00804 46.27962,59.06545 78.35414,77.31732c16.03726,9.12593 34.43355,14.70663 52.85716,13.68331c18.4236,-1.02332 36.78576,-9.11569 48.32163,-23.51708c5.16437,-6.44721 8.90298,-13.89623 12.62673,-21.26989c3.72374,-7.37366 7.57272,-14.68386 11.61883,-21.88568c0.2449,-0.43591 0.2449,-0.43591 0.2449,-0.43591" stroke="#ff0000"></path><g stroke="#ff0000"><line x1="394.47932" y1="287.6428" x2="750.55458" y2="264.19475"></line><polyline points="745.36947,272.74546 750.55458,264.19475 744.29295,256.39783"></polyline></g><polyline points="509.64478,897.61764 477.70614,852.01675 439.30625,803.10697 395.89154,752.22289 348.88781,699.94041 299.7191,646.83204 249.80887,593.47003 200.58153,540.42753 153.4631,488.2812 109.88318,437.61399 71.40396,389.18007 44.32397,341.27151 29.32455,291.84997 25.44581,242.39334 31.81607,194.48925 47.57138,149.73823 71.83789,109.74457 103.72903,76.09284 142.36801,50.32256 186.93746,33.92523 236.75706,28.38886 294.43078,35.25803 343.4559,53.09874 384.60906,79.15949 418.55618,110.77555 445.83284,145.23955 466.92394,179.76821 482.31535,211.5258 492.50971,237.65325 498.03151,255.30125 511.57224,303.95797 525.74073,255.43627 531.83892,237.96367 542.12058,212.08925 556.8342,180.71562 576.18388,146.77253 600.30668,113.18966 629.2453,82.84549 662.97149,58.44476 701.59522,42.37065 745.98608,36.79358 800.34411,43.36456 847.0988,60.62657 886.0602,86.69538 917.15441,119.88034 940.12881,158.50044 954.63342,200.78478 960.32522,244.87293 956.93251,288.87916 944.26088,330.98874 921.35768,370.90431 885.94314,421.38881 843.78197,473.9875 796.74651,527.91566 746.73101,582.42799 695.61335,636.82992 645.25243,690.46522 597.48356,742.72062 554.10948,793.05009 516.88723,841.0414 508.62207,853.30543 497.74334,837.04685 458.55238,787.14328 414.599,735.63575 367.25817,682.98276 317.923,629.69665 268.00234,576.32362 218.92019,523.43577 172.11635,471.63348 129.05063,421.5566 92.09934,375.01951 67.36652,331.19103 53.99602,286.98483 50.58029,242.85732 56.30662,200.13725 70.38487,160.28669 91.95932,124.82025 120.11252,95.18451 153.97626,72.66134 192.92753,58.38711 236.85288,53.55541 288.78675,59.78267 332.55276,75.75696 369.4461,99.17091 400.28805,127.94668 425.43177,159.76759 445.08492,192.00907 459.50981,221.84679 469.04925,246.38538 474.135,262.76464 511.74627,395.25782 549.70863,262.70806 555.47614,246.27917 565.2603,221.73335 579.23916,192.01147 597.46512,160.11896 619.83428,129.05507 646.01962,101.677 675.54898,80.39499 708.34632,66.82966 746.25991,62.14221 794.59112,68.0456 835.77028,83.31717 869.82144,106.18058 897.02505,135.30966 917.21195,169.369 929.98065,206.78549 934.94964,245.76474 931.9023,284.44935 920.79082,321.13904 899.87704,357.48424 865.58578,406.31897 824.24989,457.85178 777.75989,511.12515 728.05131,565.27776 677.02226,619.56322 626.52979,673.3191 578.38229,725.97218 534.32313,777.08459 508.14099,810.61459 477.49912,771.42792 433.02619,719.29711 385.36387,666.26941 335.87509,612.79827 285.95461,559.40451 237.02628,506.6595 190.54376,455.18732 147.99703,405.68439 112.56795,361.01413 90.16983,321.21522 78.42551,282.1674 75.4827,243.31702 80.58513,205.73634 93.01395,170.74987 111.92966,139.78274 136.3824,114.1438 165.51069,94.85807 198.88297,82.70751 236.9482,78.59086 283.16888,84.19365 321.69387,98.3232 354.33598,119.1126 382.07309,145.06784 405.07834,174.26171 423.29666,204.22147 436.75705,232.14389 445.64283,255.0974 450.2933,270.21091 511.9199,486.34925 573.62206,269.96333 579.05989,254.57585 588.34791,231.35574 601.58086,203.27544 618.67413,173.42009 639.28447,144.85759 662.71788,120.42313 688.06227,102.23321 715.05914,91.14993 746.53203,87.33268 788.87729,92.55864 824.52529,105.84047 853.71161,125.51108 877.06688,150.60776 894.50292,180.13899 905.56536,212.72841 909.83279,246.64746 907.14138,280.0672 897.58645,311.40084 878.65163,344.22362 845.48172,391.43664 804.97177,441.92587 759.03076,494.56234 709.63538,548.36971 658.70408,602.54997 608.09243,656.43422 559.5827,709.48826 514.86028,761.38011 507.74528,769.97513 496.74537,755.46413 451.73376,702.70987 403.73434,649.31165 354.0791,595.66276 304.14819,542.25799 255.36506,489.66764 209.19713,438.53949 167.1646,389.6269 133.26345,346.85349 113.21252,311.13468 103.09713,277.30223 100.61734,243.781 105.07583,211.38438 115.82759,181.29839 132.05122,154.85852 152.76598,133.23559 177.11901,117.197 204.87308,107.16955 237.04402,103.75757 277.52481,108.71845 310.79066,120.98157 339.16834,139.13019 363.7938,162.24947 384.65864,188.80302 401.43727,216.47375 413.92978,242.47471 422.15956,263.83802 426.37309,277.68169 512.09411,577.74141 597.61466,277.24261 602.72193,262.90008 611.51238,241.01016 624.00368,214.5803 639.96655,186.77353 658.82312,160.73198 679.50236,139.26606 700.64789,124.19763 721.81488,115.62574 746.80606,112.69974 783.11989,117.25861 813.18762,128.5494 837.45909,145.01279 856.91966,166.05077 871.5648,191.01762 880.88874,218.73493 884.43165,247.54017 882.08497,275.63276 874.09088,301.54043 857.14678,330.78843 825.10061,376.34922 785.41612,425.77069 740.02048,477.75091 690.93167,531.19744 640.08836,585.26039 589.34424,639.26471 540.45462,692.71631 507.69541,730.52546 470.14616,686.38435 421.82626,632.61101 372.01829,578.77654 322.0883,525.35035 273.45964,472.90204 227.6136,422.1031 186.10053,373.76346 153.7216,332.85526 136.00512,301.16355 127.51617,272.48687 125.51013,244.24052 129.34595,216.98154 138.44979,191.75839 152.01631,169.81708 169.03226,152.19068 188.65137,139.38973 210.82768,131.48656 237.13933,128.79057 271.90726,133.12803 299.93195,143.54745 324.06242,159.06632 345.58869,179.36138 364.32155,203.28551 379.66603,228.67662 391.19431,252.76399 398.77043,272.5436 402.54849,285.12262 512.26762,668.76941 621.51195,284.49298 626.29026,271.19134 634.58538,250.62647 646.33824,225.84066 661.17542,200.07457 678.27318,176.53439 696.20051,158.01207 713.1611,146.0357 728.52764,139.94585 747.07818,137.89002 777.4061,141.77148 801.94271,151.07254 821.34937,164.34315 836.96163,181.34876 848.85595,201.78753 856.47364,224.6778 858.86648,248.43864 856.43993,271.09414 849.64362,291.28062 834.40545,316.58073 803.20171,360.13823 764.04715,408.1175 718.90082,459.07408 669.81198,511.807 618.72942,565.423 567.49272,619.25316 534.02588,654.91748 638.39718,289.61591 643.39029,277.20708 651.7636,257.78596 663.38997,234.43759 677.76944,210.48143 693.86414,189.20144 709.90584,173.39821 723.67157,164.37857 734.29478,160.83997 747.31718,160.01489 772.27804,163.77152 791.63484,171.71881 806.2731,182.43346 817.8727,195.98059 826.66806,212.31036 832.11558,230.60678 833.73951,249.32171 831.60102,266.69819 826.30242,281.48499 812.99656,303.20549 782.86863,345.08636 744.52197,391.98749 699.90499,442.27542 651.10757,494.6341 600.0982,548.11902 585.79943,562.10807 661.91553,296.75131 666.61123,285.37613 674.52228,267.27125 685.44519,245.55712 698.73669,223.63094 713.12033,204.84634 726.48702,192.01291 736.1342,186.12837 741.0003,185.13385 747.58982,185.25264 766.53656,188.40321 780.3021,194.41786 789.98983,201.97206 797.66896,211.46692 803.64469,223.22943 807.32477,236.6411 808.19772,250.21936 806.38309,262.23516 802.63407,271.55208 791.31409,289.65933 762.30073,329.86066 724.76942,375.66964 680.68612,425.27953 635.67179,473.34883 684.78149,303.68877 689.23096,293.33367 696.73369,276.52846 707.01059,256.4297 719.31516,236.53663 732.08983,220.25832 742.83069,210.36096 747.87541,207.9851 761.35013,210.65364 770.03371,214.98506 775.19123,219.72918 779.2264,225.6033 782.5363,233.2403 784.49721,242.19754 784.57723,251.04949 782.90868,258.0807 780.45854,262.24565 770.86805,276.88563 742.73383,315.37597 705.81362,360.01 686.7683,380.19015 707.75061,310.65753 712.07337,301.36956 719.28142,285.92584 729.01602,267.52413 740.34326,249.7243 751.55215,236.07069 756.01982,233.21854 759.59812,235.88716 760.07824,237.86355 760.30161,240.10931 760.7737,243.56144 760.85284,247.9528 759.46306,251.93211 756.89079,252.91669 750.55458,264.19475" stroke="#000000"></polyline><path d="M509.64478,897.61764c0.28684,0.40954 0.28684,0.40954 0.28684,0.40954c1.59025,2.2705 3.2218,4.52914 5.1823,6.48886c1.96051,1.95971 4.23146,3.60825 6.70728,4.855c4.95164,2.49349 10.56622,3.21696 15.93938,4.58278c6.87493,1.74756 13.48892,4.87982 18.6956,9.6974c5.20669,4.81758 8.92171,11.40441 9.60357,18.46513c0.34093,3.53036 -0.07603,7.14274 -1.30563,10.46956c-1.22961,3.32682 -3.27864,6.36007 -5.97092,8.66902c-2.69228,2.30896 -6.0286,3.8793 -9.53894,4.38644c-3.51034,0.50713 -7.18322,-0.06458 -10.33,-1.70086c-2.69945,-1.40368 -4.97199,-3.55264 -6.74372,-6.02616c-1.77173,-2.47352 -3.06061,-5.26809 -4.03357,-8.15091c-1.94592,-5.76566 -2.69448,-11.85312 -3.79747,-17.8375c-1.10299,-5.98438 -2.61235,-11.92379 -5.06377,-17.49335c-2.45142,-5.56955 -5.83584,-10.6701 -9.32678,-15.65435c-0.28684,-0.40954 -0.28684,-0.40954 -0.28684,-0.40954" stroke="#ff0000"></path><g stroke="#ff0000"><line x1="509.64478" y1="897.61764" x2="509.66212" y2="898.3687"></line><polyline points="501.34043,892.82347 509.66212,898.3687 517.71911,892.44545"></polyline></g></g></svg>