<svg x="0" y="0" width="4753.32622" height="2309.29313" version="1.1" xmlns="http://www.w3.org/2000/svg" xmlns:xlink="http://www.w3.org/1999/xlink"><g fill="none" stroke="none" stroke-width="none" stroke-linecap="butt" stroke-linejoin="miter" stroke-miterlimit="10" stroke-dasharray="" stroke-dashoffset="0" font-family="sans-serif" font-weight="normal" font-size="12" text-anchor="start" mix-blend-mode="normal"><line x1="20" y1="34.39595" x2="20" y2="211.53715" stroke="#000000" stroke-width="16"></line><path d="M20,211.53715c0,0.5 0,0.5 0,0.5c0,16.5137 2.16667,33.12905 0,49.5c-2.33796,17.66513 -11.5994,34.25269 -25.1567,45.81654c-13.55729,11.56385 -31.24836,18.07247 -49.06347,18.4528c-17.81511,0.38033 -35.64475,-5.29883 -50.19503,-15.58534c-14.55028,-10.28651 -25.79213,-25.08438 -32.18294,-41.7181c-6.39081,-16.63371 -7.95957,-35.03192 -4.88099,-52.58314c3.07857,-17.55122 10.75418,-34.22534 21.76312,-48.23698c22.01789,-28.02327 57.04762,-44.56602 92.61162,-46.86666c16.46888,-1.06537 32.9967,0 49.5,0c0.5,0 0.5,0 0.5,0" stroke="#ff0000" stroke-width="1"></path><g stroke="#ff0000" stroke-width="1"><line x1="20" y1="211.53715" x2="22.89562" y2="120.81629"></line><polyline points="30.89999,126.81046 22.89562,120.81629 14.52529,126.28781"></polyline></g><line x1="109.80576" y1="34.39595" x2="109.80576" y2="211.53715" stroke="#000000" stroke-width="16"></line><path d="M109.80576,211.53715c0,0.5 0,0.5 0,0.5c0,8.40899 -0.87947,16.78659 -2.2904,25.07637c-0.70546,4.14489 -1.38298,8.32511 -1.2762,12.52825c0.10679,4.20314 1.07652,8.50756 3.5666,11.89537c2.03752,2.7721 5.03688,4.79921 8.33656,5.77293c3.29967,0.97373 6.88058,0.90776 10.17915,-0.06969c3.29857,-0.97745 6.31134,-2.8503 8.73734,-5.28967c2.426,-2.43937 4.27037,-5.43513 5.47444,-8.65789c2.40814,-6.44553 2.22144,-13.66666 0.40123,-20.30223c-1.82021,-6.63557 -5.19338,-12.74952 -9.03938,-18.45497c-7.69202,-11.41091 -17.51157,-21.70623 -22.15643,-34.66004c-2.32243,-6.4769 -3.24189,-13.58989 -1.6736,-20.28947c0.78415,-3.34979 2.18748,-6.566 4.21302,-9.34686c2.02553,-2.78087 4.67961,-5.11871 7.75199,-6.66676c3.7223,-1.87552 7.94864,-2.55904 12.1161,-2.63262c4.16746,-0.07358 8.32192,0.42649 12.45742,0.94688c8.27099,1.04078 16.59027,1.68574 24.92648,1.68574c0.5,0 0.5,0 0.5,0" stroke="#ff0000" stroke-width="1"></path><g stroke="#ff0000" stroke-width="1"><line x1="109.80576" y1="211.53715" x2="172.03006" y2="143.5725"></line><polyline points="174.19867,153.33453 172.03006,143.5725 162.11506,142.27151"></polyline></g><line x1="22.89562" y1="120.81629" x2="109.45049" y2="120.81629" stroke="#000000" stroke-width="16"></line><path d="M109.45049,120.81629c0.5,0 0.5,0 0.5,0c16.50366,0 33.03445,1.12081 49.5,0c34.74286,-2.36494 68.84288,-19.04204 89.84108,-46.82215c10.4991,-13.89005 17.65573,-30.34472 20.28119,-47.55726c2.62546,-17.21255 0.6732,-35.1511 -5.9451,-51.25584c-6.61831,-16.10474 -17.92654,-30.30636 -32.35366,-40.05433c-14.42712,-9.74797 -31.94164,-14.95323 -49.34079,-14.29421c-17.39915,0.65901 -34.57858,7.24279 -47.72232,18.66238c-13.14374,11.41958 -22.1028,27.64235 -24.40513,44.90108c-2.18363,16.36891 0,32.98608 0,49.5c0,0.5 0,0.5 0,0.5" stroke="#ff0000" stroke-width="1"></path><g stroke="#ff0000" stroke-width="1"><line x1="109.45049" y1="120.81629" x2="109.80576" y2="34.39595"></line><polyline points="117.97363,40.16534 109.80576,34.39595 101.59073,40.09799"></polyline></g><polyline points="172.03006,143.5725 271.58848,143.5725 271.64424,143.21267 271.75287,142.13952 271.82678,140.36209 271.77807,137.8896 271.51914,134.73118 270.96217,130.89614 270.01929,126.39353 268.60298,121.23257 266.62534,115.42258 263.99858,108.9726 261.16388,103.48415 257.83253,98.68748 254.04403,94.557 249.83756,91.06752 245.25231,88.19333 240.32756,85.90914 235.10251,84.18944 229.61654,83.00876 223.90884,82.34167 218.01849,82.1627 209.52142,83.1033 201.86922,85.66925 195.0841,89.73008 189.1882,95.15553 184.20363,101.81515 180.15252,109.57867 177.057,118.31562 174.93918,127.89586 173.82119,138.18891 173.72515,149.06433 174.80058,159.32464 177.13299,168.79475 180.59321,177.40641 185.05187,185.09145 190.3797,191.78143 196.44733,197.40818 203.1256,201.90334 210.28493,205.19868 217.79626,207.22602 225.53021,207.91691 226.61199,207.75014 229.55672,207.27145 233.91379,206.5135 239.23259,205.5092 245.06232,204.29121 250.95247,202.89206 256.45223,201.3447 261.1111,199.68175 264.47816,197.93587 266.10301,196.13979" stroke="#000000" stroke-width="16"></polyline><path d="M266.10301,196.13979c0.33544,-0.37079 0.33544,-0.37079 0.33544,-0.37079c11.0694,-12.23595 22.15114,-24.46074 33.20819,-36.70785c16.12609,-17.86171 32.32878,-35.9212 51.69023,-50.21196c19.36145,-14.29076 42.37632,-24.72257 66.43655,-25.16599c12.03012,-0.22171 24.16806,2.09821 35.02014,7.29488c10.85208,5.19666 20.37416,13.32125 26.71409,23.54759c6.33993,10.22635 9.39305,22.56157 7.97086,34.50938c-1.4222,11.94781 -7.43117,23.39425 -16.82727,30.90998c-6.4567,5.16457 -14.18688,8.43711 -21.79303,11.67874c-7.60615,3.24164 -15.13999,6.6521 -22.54607,10.32793c-0.44787,0.22229 -0.44787,0.22229 -0.44787,0.22229" stroke="#ff0000" stroke-width="1"></path><g stroke="#ff0000" stroke-width="1"><line x1="266.10301" y1="196.13979" x2="425.86425" y2="202.17399"></line><polyline points="419.8234,210.14318 425.86425,202.17399 420.44174,193.77182"></polyline></g><polyline points="313.22688,29.19491 367.82151,29.76963 366.09745,184.35879 366.32285,185.11457 367.00323,187.16324 368.14572,190.17751 369.75708,193.8296 371.84424,197.79202 374.41436,201.73717 377.47397,205.33757 381.03002,208.26553 385.08966,210.19366 389.65944,210.79418 395.42111,210.5528 400.92782,209.89772 406.09642,208.93222 410.84457,207.75986 415.08914,206.48403 418.74757,205.2083 421.73695,204.03595 423.97471,203.07044 425.37812,202.41526 425.86425,202.17399" stroke="#000000" stroke-width="16"></polyline><path d="M313.22688,29.19491c-0.49997,-0.00526 -0.49997,-0.00526 -0.49997,-0.00526c-8.3017,-0.08739 -16.59844,0.32596 -24.86904,1.04908c-4.1353,0.36156 -8.28186,0.70729 -12.43175,0.60819c-4.14989,-0.0991 -8.33164,-0.66354 -12.19646,-2.17833c-4.76723,-1.86849 -8.93938,-5.17993 -11.94441,-9.32571c-3.00503,-4.14578 -4.84718,-9.10595 -5.40338,-14.19598c-1.1124,-10.18005 3.03128,-20.60678 10.18091,-27.93847c7.14963,-7.3317 17.06658,-11.66724 27.2298,-12.92419c10.16322,-1.25695 20.55413,0.43119 30.19094,3.8957c19.27362,6.92901 35.25259,20.53981 51.41734,33.11695c16.16475,12.57714 33.77364,24.71529 54.02396,27.78262c16.32921,2.4734 32.9827,0.34721 49.49726,0.52106c0.49997,0.00526 0.49997,0.00526 0.49997,0.00526" stroke="#ff0000" stroke-width="1"></path><g stroke="#ff0000" stroke-width="1"><line x1="313.22688" y1="29.19491" x2="468.92203" y2="29.60583"></line><polyline points="463.16467,37.78219 468.92203,29.60583 463.20791,21.3992"></polyline></g><polygon points="694.92555,82.53573 700.24456,83.03901 705.34927,84.45443 710.18472,86.65162 714.69517,89.50041 718.82525,92.87045 722.5194,96.63147 725.72207,100.65311 728.3779,104.80522 730.43114,108.95732 731.82661,112.97936 733.69135,121.4177 734.9021,130.21676 735.46839,139.18874 735.39914,148.14614 734.70388,156.90126 733.39174,165.26638 731.47224,173.054 728.95471,180.07633 725.84807,186.14575 722.16165,191.07466 719.77587,193.52493 717.11448,195.97331 714.17769,198.35969 710.9657,200.62364 707.47829,202.70476 703.71589,204.54281 699.67827,206.07747 695.36584,207.24834 690.77821,207.99509 685.91597,208.2574 680.77852,207.83645 675.45138,206.57362 670.06333,204.46889 664.74294,201.52208 659.61898,197.73309 654.81984,193.102 650.47467,187.62863 646.71187,181.31287 643.65999,174.15483 641.44802,166.1542 640.47637,160.75514 639.73984,154.76012 639.34816,148.27224 639.41146,141.39476 640.03945,134.23047 641.34207,126.88254 643.42943,119.45405 646.41146,112.04798 650.39788,104.76742 655.49882,97.71543 657.96735,94.92745 660.60135,92.40178 663.46175,90.14606 666.60906,88.16763 670.1044,86.47384 674.00829,85.07221 678.38143,83.97019 683.28494,83.17513 688.77934,82.69446" stroke="#000000" stroke-width="16"></polygon><path d="M643.65999,174.15483c-0.1961,-0.45994 -0.1961,-0.45994 -0.1961,-0.45994c-6.47184,-15.17944 -13.6126,-30.08593 -19.41374,-45.53413c-15.9827,-42.56123 -17.71854,-90.64184 -3.09533,-133.6891c14.62321,-43.04726 45.85042,-80.55787 86.38249,-101.15049c40.53207,-20.59261 90.02355,-23.54817 132.0775,-6.27477c42.05394,17.27341 75.56705,54.95164 86.13967,99.16843c3.83796,16.05112 5.49584,32.5355 8.24466,48.80856c0.08328,0.49302 0.08328,0.49302 0.08328,0.49302" stroke="#ff0000" stroke-width="1"></path><g stroke="#ff0000" stroke-width="1"><line x1="643.65999" y1="174.15483" x2="933.88242" y2="35.51642"></line><polyline points="932.23774,45.38024 933.88242,35.51642 925.17597,30.5973"></polyline></g><polyline points="933.88242,35.51642 962.61638,205.622 997.67195,61.9517 1031.57829,204.47266 1067.7831,37.24048" stroke="#000000" stroke-width="16"></polyline><path d="M1067.7831,37.24048c0.1058,-0.48868 0.1058,-0.48868 0.1058,-0.48868c1.78276,-8.23467 2.65444,-16.63109 2.96146,-25.05093c0.15351,-4.20992 0.34407,-8.4518 1.34636,-12.54355c1.00229,-4.09175 2.92173,-8.09741 6.166,-10.78474c3.51511,-2.91169 8.37438,-3.99228 12.87605,-3.23802c4.50167,0.75426 8.62358,3.24149 11.71065,6.60363c3.08707,3.36214 5.17906,7.56056 6.42524,11.95157c1.24619,4.39101 1.6738,8.98042 1.7015,13.54476c0.0554,9.12868 -1.46382,18.23841 -0.98508,27.35469c0.23937,4.55814 0.98849,9.1218 2.6362,13.37844c1.64771,4.25664 4.22671,8.2053 7.7504,11.10661c3.21119,2.64401 7.10343,4.35233 11.094,5.52618c3.99057,1.17385 8.10815,1.85017 12.21592,2.50493c8.21556,1.30951 16.37357,2.97221 24.39037,5.19508c0.48182,0.1336 0.48182,0.1336 0.48182,0.1336" stroke="#ff0000" stroke-width="1"></path><g stroke="#ff0000" stroke-width="1"><line x1="1067.7831" y1="37.24048" x2="1168.65981" y2="82.43404"></line><polyline points="1160.07622,87.56454 1168.65981,82.43404 1166.77447,72.61337"></polyline></g><polyline points="1258.00245,84.93897 1302.25293,85.51369 1301.10369,199.87521" stroke="#000000" stroke-width="16"></polyline><path d="M1301.10369,199.87521c-0.00502,0.49997 -0.00502,0.49997 -0.00502,0.49997c-0.1659,16.50928 1.52985,33.11232 -0.49741,49.4975c-2.69327,21.76817 -14.76886,42.50296 -33.20508,54.38624c-9.21811,5.94164 -19.88912,9.65472 -30.82177,10.52298c-10.93265,0.86826 -22.1051,-1.13081 -31.97474,-5.91276c-9.86963,-4.78195 -18.39773,-12.35436 -24.14915,-21.69234c-5.75142,-9.33798 -8.68164,-20.42046 -8.10421,-31.37232c0.57743,-10.95186 4.68989,-21.71854 11.70912,-30.1451c7.01923,-8.42657 16.92825,-14.43992 27.68264,-16.58928c8.10511,-1.61988 16.46491,-1.15268 24.71856,-0.71208c8.25365,0.4406 16.51604,0.71208 24.78144,0.71208c0.5,0 0.5,0 0.5,0" stroke="#ff0000" stroke-width="1"></path><g stroke="#ff0000" stroke-width="1"><line x1="1301.10369" y1="199.87521" x2="1261.73808" y2="209.07012"></line><polyline points="1265.4603,199.78868 1261.73808,209.07012 1269.1867,215.7423"></polyline></g><line x1="1261.73808" y1="209.07012" x2="1350.52615" y2="209.07012" stroke="#000000" stroke-width="16"></line><path d="M1350.52615,209.07012c0.5,0 0.5,0 0.5,0c8.38204,0 16.73806,0.80026 25.02076,2.08687c4.14135,0.64331 8.31194,1.26128 12.50189,1.16629c4.18994,-0.09499 8.46625,-0.96476 11.97735,-3.25316c3.07556,-2.00453 5.4337,-5.05174 6.72837,-8.48701c1.29467,-3.43526 1.53912,-7.23931 0.82706,-10.84072c-0.71206,-3.60141 -2.36488,-6.99631 -4.65511,-9.86546c-2.29023,-2.86915 -5.20781,-5.2172 -8.43683,-6.9638c-6.45803,-3.49321 -14.03734,-4.53638 -21.35879,-3.98404c-7.32145,0.55233 -14.44491,2.6227 -21.37221,5.05608c-6.9273,2.43338 -13.72705,5.24285 -20.75916,7.35432c-7.0321,2.11147 -14.36767,3.52214 -21.69534,3.05959c-7.32767,-0.46255 -14.68081,-2.91888 -20.16966,-7.79549c-2.74443,-2.4383 -4.98981,-5.45778 -6.4092,-8.84341c-1.41939,-3.38563 -1.99886,-7.13793 -1.53174,-10.77921c0.53071,-4.13697 2.37185,-8.01318 4.69503,-11.47714c2.32318,-3.46396 5.12409,-6.57789 7.93065,-9.66324c5.61312,-6.17071 10.921,-12.61692 15.69332,-19.45868c0.28605,-0.41009 0.28605,-0.41009 0.28605,-0.41009" stroke="#ff0000" stroke-width="1"></path><g stroke="#ff0000" stroke-width="1"><line x1="1350.52615" y1="209.07012" x2="1310.2986" y2="115.97181"></line><polyline points="1320.09327,117.98788 1310.2986,115.97181 1305.05414,124.48624"></polyline></g><polyline points="1310.2986,115.97181 1310.87262,115.14887 1312.47763,112.90525 1314.93802,109.57906 1318.0774,105.50801 1321.72036,101.03011 1325.69071,96.48315 1329.81305,92.20525 1333.91099,88.53421 1337.80911,85.80794 1341.33124,84.36435 1344.64443,83.85402 1347.97468,83.66096 1351.23589,83.72296 1354.34213,83.97813 1357.20689,84.36435 1359.74407,84.81942 1361.86754,85.28154 1363.491,85.6884 1364.52833,85.97799 1364.89323,86.08831" stroke="#000000" stroke-width="16"></polyline><path d="M1364.89323,86.08831c0.4786,0.1447 0.4786,0.1447 0.4786,0.1447c8.12281,2.45584 15.88941,5.92803 23.34802,9.9753c3.7293,2.02364 7.51932,4.02954 11.61879,5.12369c2.04973,0.54707 4.17364,0.85472 6.29347,0.77096c2.11983,-0.08376 4.23838,-0.56762 6.12151,-1.54461c2.27593,-1.18077 4.16314,-3.07053 5.4216,-5.30444c1.25847,-2.23391 1.89473,-4.8013 1.91795,-7.3652c0.04643,-5.12779 -2.35963,-10.0966 -5.94151,-13.76628c-3.58188,-3.66968 -8.25845,-6.12893 -13.13258,-7.72245c-4.87413,-1.59352 -9.97308,-2.36861 -15.05423,-3.06017c-5.08115,-0.69156 -10.18983,-1.30939 -15.15152,-2.60479c-4.96168,-1.29541 -9.81147,-3.30397 -13.81074,-6.51368c-3.99927,-3.20971 -7.09965,-7.70939 -7.98107,-12.76107c-0.44071,-2.52584 -0.31975,-5.15876 0.44026,-7.60753c0.76001,-2.44877 2.16706,-4.70612 4.09304,-6.39866c3.17807,-2.79287 7.5467,-3.90039 11.77673,-3.98492c4.23003,-0.08453 8.42099,0.74015 12.56421,1.5969c8.28644,1.7135 16.69504,2.82001 25.15632,2.90908c0.49997,0.00526 0.49997,0.00526 0.49997,0.00526" stroke="#ff0000" stroke-width="1"></path><g stroke="#ff0000" stroke-width="1"><line x1="1364.89323" y1="86.08831" x2="1403.55207" y2="27.98039"></line><polyline points="1407.19506,37.29321 1403.55207,27.98039 1393.55491,28.2185"></polyline></g><polyline points="1656.83118,101.60473 1656.176,101.12148 1654.34857,99.80716 1651.55563,97.86533 1648.00414,95.49939 1643.90085,92.91271 1639.4529,90.30887 1634.86686,87.89114 1630.34986,85.8631 1626.10867,84.42814 1622.35043,83.78963 1618.25408,83.97237 1613.0956,84.97578 1607.22698,86.96532 1600.99981,90.10648 1594.76571,94.56494 1588.87625,100.50598 1583.68344,108.09519 1579.53888,117.49814 1576.79416,128.88021 1575.80127,142.40709 1576.54256,156.17534 1578.62854,168.21259 1581.85264,178.58095 1586.00752,187.34261 1590.88663,194.55938 1596.28281,200.29358 1601.98933,204.60719 1607.79941,207.56214 1613.50593,209.22072 1618.90231,209.64484 1624.33064,208.66842 1630.12466,206.31627 1636.06332,202.93651 1641.92619,198.87756 1647.49262,194.48756 1652.54177,190.11481 1656.85301,186.10755 1660.20568,182.81411 1662.37916,180.58259 1663.15259,179.76134" stroke="#000000" stroke-width="16"></polyline><path d="M1663.15259,179.76134c0.3428,-0.36399 0.3428,-0.36399 0.3428,-0.36399c11.31438,-12.01391 21.90432,-24.7407 33.93696,-36.03516c23.34532,-21.91313 53.86174,-36.0895 85.68056,-39.66047c31.81882,-3.57097 64.76115,3.50665 92.23585,19.94837c27.4747,16.44173 49.30412,42.16873 60.92677,72.00334c11.62265,29.8346 12.94204,63.59582 3.55369,94.20706c-9.38836,30.61124 -29.44522,57.85984 -55.95932,75.80955c-26.5141,17.94971 -59.31219,26.45249 -91.19535,23.51085c-31.88316,-2.94164 -62.61148,-17.33178 -85.18984,-40.03436c-22.57835,-22.70258 -36.81073,-53.55844 -39.28947,-85.48092c-1.27765,-16.45419 -0.29373,-32.99497 -0.44064,-49.49804c-0.00445,-0.49998 -0.00445,-0.49998 -0.00445,-0.49998" stroke="#ff0000" stroke-width="1"></path><g stroke="#ff0000" stroke-width="1"><line x1="1663.15259" y1="179.76134" x2="1667.75015" y2="213.66757"></line><polyline points="1658.86221,209.08449 1667.75015,213.66757 1675.09669,206.88315"></polyline></g><line x1="1666.02609" y1="20" x2="1667.75015" y2="213.66757" stroke="#000000" stroke-width="16"></line><path d="M1666.02609,20c-0.00445,-0.49998 -0.00445,-0.49998 -0.00445,-0.49998c-0.07356,-8.26348 -0.40408,-16.52197 -0.89467,-24.77119c-0.49059,-8.24923 -1.00793,-16.59339 0.45403,-24.72685c2.44009,-13.57518 10.74073,-25.92172 22.18175,-33.62513c11.44101,-7.70342 25.8429,-10.75454 39.48697,-8.73493c13.64407,2.01961 26.43298,9.01521 35.78517,19.15306c9.35218,10.13786 15.26543,23.31662 17.01495,36.99794c2.09467,16.38039 -0.15631,32.98585 -0.23457,49.49944c-0.00237,0.49999 -0.00237,0.49999 -0.00237,0.49999" stroke="#ff0000" stroke-width="1"></path><g stroke="#ff0000" stroke-width="1"><line x1="1666.02609" y1="20" x2="1779.81289" y2="33.79236"></line><polyline points="1773.13311,41.23417 1779.81289,33.79236 1775.1045,24.97017"></polyline></g><line x1="1779.81289" y1="33.79236" x2="1779.23827" y2="155.05011" stroke="#000000" stroke-width="16"></line><path d="M1779.23827,155.05011c-0.00237,0.49999 -0.00237,0.49999 -0.00237,0.49999c-0.04996,10.54208 0.7641,21.07035 0.7641,31.61255c0,0.5 0,0.5 0,0.5" stroke="#ff0000" stroke-width="1"></path><g stroke="#ff0000" stroke-width="1"><line x1="1779.23827" y1="155.05011" x2="1780" y2="187.66266"></line><polyline points="1771.67678,182.11973 1780,187.66266 1788.05535,181.73718"></polyline></g><line x1="1780" y1="187.66266" x2="1780" y2="208.59024" stroke="#000000" stroke-width="16"></line><polyline points="468.92203,29.60583 523.51666,30.18055 521.7926,184.76972 522.0178,185.52539 522.69838,187.57416 523.84087,190.58834 525.45223,194.24043 527.53939,198.20294 530.10951,202.14809 533.16892,205.74849 536.72517,208.67646 540.78461,210.60459 545.35459,211.2051 551.11626,210.96372 556.62297,210.30855 561.79157,209.34314 566.53952,208.17079 570.78429,206.89496 574.44253,205.61922 577.4321,204.44687 579.66986,203.48137 581.07327,202.82619 581.5594,202.58481" stroke="#000000" stroke-width="16"></polyline><path d="M581.5594,202.58481c0.44783,-0.22236 0.44783,-0.22236 0.44783,-0.22236c7.6379,-3.79245 14.70608,-8.60806 21.33355,-13.97434c3.31373,-2.68314 6.70043,-5.36032 10.58628,-7.11538c1.94292,-0.87753 4.00897,-1.5107 6.13047,-1.72108c2.1215,-0.21038 4.30284,0.01247 6.2852,0.79686c2.33545,0.9241 4.33039,2.6052 5.83006,4.61997c1.49967,2.01476 2.52298,4.35467 3.2167,6.7686c1.38743,4.82786 1.48198,9.91828 2.19351,14.89089c0.35577,2.48631 0.87088,4.96216 1.7661,7.30884c0.89522,2.34667 2.18291,4.5679 3.95086,6.3519c1.76794,1.784 4.03547,3.11439 6.50681,3.56249c2.47133,0.4481 5.1407,-0.03416 7.17711,-1.50431c1.79054,-1.29264 3.01781,-3.28153 3.59164,-5.41406c0.57383,-2.13253 0.52503,-4.40221 0.07525,-6.5643c-0.89957,-4.32418 -3.28946,-8.17345 -5.6997,-11.8746c-2.41024,-3.70115 -4.87019,-7.38888 -6.77519,-11.3737c-1.905,-3.98482 -3.20566,-8.22642 -4.38263,-12.48348c-0.13324,-0.48192 -0.13324,-0.48192 -0.13324,-0.48192" stroke="#ff0000" stroke-width="1"></path><g stroke="#ff0000" stroke-width="1"><line x1="581.5594" y1="202.58481" x2="643.65999" y2="174.15483"></line><polyline points="641.85455,183.9905 643.65999,174.15483 635.03498,169.09427"></polyline></g><polyline points="1403.55207,27.98039 1458.1467,28.55511 1456.42264,183.14427 1456.64785,183.89995 1457.32842,185.94872 1458.47092,188.96289 1460.08227,192.61498 1462.16943,196.5775 1464.73955,200.52265 1467.79896,204.12305 1471.35521,207.05101 1475.41466,208.97914 1479.98463,209.57966 1485.7463,209.33828 1491.25301,208.6831 1496.42161,207.7177 1501.16956,206.54534 1505.41433,205.26951 1509.07257,203.99378 1512.06214,202.82143 1514.2999,201.85592 1515.70331,201.20074 1516.18944,200.95937" stroke="#000000" stroke-width="16"></polyline><path d="M1516.18944,200.95937c0.44783,-0.22236 0.44783,-0.22236 0.44783,-0.22236c7.39873,-3.6737 14.69553,-7.54804 21.92453,-11.5454c7.229,-3.99736 14.51277,-8.04865 22.41097,-10.46854c14.14571,-4.33403 29.38822,-2.995 43.96269,-0.45145c14.57448,2.54355 29.04839,6.25932 43.8398,6.57393c7.39571,0.1573 14.85064,-0.55207 21.94421,-2.65028c7.09357,-2.09821 13.82612,-5.62118 19.22938,-10.67351c5.40326,-5.05233 9.42739,-11.67742 10.8919,-18.92838c1.46451,-7.25096 0.25665,-15.10462 -3.77103,-21.30938c-4.51976,-6.96283 -11.93779,-11.41528 -19.06332,-15.67392c-7.12553,-4.25864 -14.09231,-8.78112 -20.77284,-13.70856c-0.40239,-0.29679 -0.40239,-0.29679 -0.40239,-0.29679" stroke="#ff0000" stroke-width="1"></path><g stroke="#ff0000" stroke-width="1"><line x1="1516.18944" y1="200.95937" x2="1656.83118" y2="101.60473"></line><polyline points="1656.87286,111.60464 1656.83118,101.60473 1647.42008,98.22372"></polyline></g><polygon points="1163.3408,81.93075 1168.65981,82.43404 1173.76452,83.84945 1178.59997,86.04674 1183.11042,88.89553 1187.2405,92.26557 1190.93465,96.02649 1194.13732,100.04823 1196.79316,104.20024 1198.84639,108.35244 1200.24187,112.37438 1202.1066,120.81282 1203.31735,129.61178 1203.88364,138.58387 1203.81439,147.54127 1203.11913,156.29628 1201.80699,164.6615 1199.88749,172.44903 1197.36996,179.47135 1194.26332,185.54087 1190.5769,190.46978 1188.19112,192.91995 1185.52974,195.36843 1182.59295,197.75481 1179.38095,200.01867 1175.89355,202.09988 1172.13114,203.93793 1168.09352,205.47249 1163.78109,206.64336 1159.19346,207.39011 1154.33122,207.65242 1149.19377,207.23157 1143.86663,205.96874 1138.47858,203.86392 1133.15819,200.91711 1128.03423,197.12821 1123.23509,192.49702 1118.88992,187.02365 1115.12712,180.70799 1112.07524,173.54985 1109.86328,165.54932 1108.89162,160.15016 1108.15509,154.15515 1107.76341,147.66736 1107.82671,140.78978 1108.4547,133.62549 1109.75732,126.27766 1111.84468,118.84907 1114.82671,111.44301 1118.81314,104.16254 1123.91408,97.11055 1126.3826,94.32247 1129.0166,91.79691 1131.877,89.54119 1135.02432,87.56266 1138.51965,85.86896 1142.42354,84.46733 1146.79668,83.36531 1151.70019,82.57025 1157.1946,82.08958" stroke="#000000" stroke-width="16"></polygon><path d="M1168.65981,82.43404c0.49778,0.0471 0.49778,0.0471 0.49778,0.0471c14.67233,1.38831 29.39452,2.27398 44.13219,2.34865c14.73767,0.07467 29.47611,-0.08871 44.21273,0.10269c0.49996,0.00649 0.49996,0.00649 0.49996,0.00649" stroke="#ff0000" stroke-width="1"></path><g stroke="#ff0000" stroke-width="1"><line x1="1168.65981" y1="82.43404" x2="1258.00245" y2="84.93897"></line><polyline points="1252.03936,92.96652 1258.00245,84.93897 1252.49852,76.58991"></polyline></g></g></svg>