<svg x="0" y="0" width="4298.0742" height="2088.11951" version="1.1" xmlns="http://www.w3.org/2000/svg" xmlns:xlink="http://www.w3.org/1999/xlink"><g fill="none" stroke="none" stroke-width="2" stroke-linecap="butt" stroke-linejoin="miter" stroke-miterlimit="10" stroke-dasharray="" stroke-dashoffset="0" font-family="sans-serif" font-weight="normal" font-size="12" text-anchor="start" mix-blend-mode="normal"><polygon points="464.71292,24.28782 472.38877,24.45903 484.09483,25.54261 498.94166,28.19166 516.03989,33.05929 534.5001,40.79859 553.43292,52.06266 571.94894,67.50462 589.15874,87.77755 604.17294,113.53456 608.24605,124.12993 611.35037,137.7287 612.66656,154.14948 611.37521,173.21089 606.65683,194.73158 597.69202,218.53016 583.66142,244.42524 563.7456,272.23547 537.1251,301.77946 502.98058,332.87584 489.19491,344.83945 476.95196,356.51219 466.27958,367.93154 457.20563,379.13489 449.75798,390.15962 443.96448,401.04319 439.85302,411.823 437.4514,422.53643 436.78755,433.22094 437.88929,443.91393 443.7329,460.70406 454.70634,480.02291 469.45645,500.8586 486.63013,522.19923 504.87415,543.03291 522.83545,562.34775 539.16083,579.13186 552.49714,592.37332 561.49123,601.06028 564.78998,604.18075 567.29057,603.02575 574.34052,599.88129 585.26188,595.2284 599.37685,589.54794 616.00756,583.32088 634.47613,577.02824 654.10471,571.15085 674.21543,566.16977 694.13049,562.56583 713.17196,560.82009 731.46555,561.55502 749.46316,564.64693 766.97631,569.45738 783.81637,575.34789 799.79478,581.67996 814.72296,587.81509 828.41234,593.11482 840.67443,596.94071 851.32058,598.65425 860.16226,597.61696 869.31224,591.84079 880.58889,580.55097 893.36213,564.92908 907.00174,546.1565 920.87766,525.41481 934.35981,503.88547 946.8179,482.74992 957.62198,463.18972 966.14184,446.38632 971.74738,433.52122 973.00978,422.42177 969.50688,410.36402 962.11826,397.7024 951.72334,384.79134 939.20171,371.98532 925.43296,359.63875 911.29671,348.10611 897.67234,337.74183 885.43957,328.90034 875.47788,321.93613 865.44617,313.8845 852.98582,301.89457 838.95018,286.49145 824.19249,268.20025 809.5661,247.54606 795.92427,225.05401 784.12034,201.24919 775.00756,176.65671 769.43923,151.80168 768.26865,127.2092 773.80417,104.53555 786.55989,84.97315 804.69791,68.35135 826.38043,54.49949 849.76956,43.2469 873.02737,34.42292 894.31609,27.85691 911.79774,23.37819 923.63449,20.81611 927.98847,20 927.68045,20.85237 926.66978,23.23328 924.82692,26.87845 922.02213,31.52359 918.12565,36.90443 913.00793,42.75668 906.53923,48.81607 898.58981,54.8183 889.03,60.4991 877.73022,65.59418 872.55032,68.32073 867.92987,72.17015 863.81672,76.98939 860.15867,82.62538 856.9036,88.92505 853.99932,95.73534 851.39362,102.90317 849.03443,110.27548 846.86948,117.6992 844.84669,125.02126 843.95836,132.19553 845.09173,139.35666 848.03671,146.62282 852.58323,154.11215 858.52134,161.9428 865.64088,170.23291 873.7319,179.10065 882.5843,188.66414 891.9881,199.04156 901.73322,210.35104 913.18923,221.42422 927.48092,231.19776 944.03048,239.94734 962.26047,247.94865 981.59311,255.47736 1001.45085,262.80915 1021.2561,270.21972 1040.43123,277.98474 1058.39862,286.37987 1074.58066,295.68081 1088.28378,306.30328 1099.4007,318.43542 1108.23341,332.01161 1115.08388,346.9662 1120.254,363.23356 1124.04567,380.74803 1126.76095,399.444 1128.70163,419.25584 1130.16971,440.11787 1131.46724,461.96449 1129.75838,486.88514 1122.78543,516.13794 1111.71667,548.41012 1097.72035,582.38887 1081.96503,616.76144 1065.61887,650.21508 1049.85033,681.43701 1035.82786,709.11449 1024.71963,731.93473 1017.69418,748.58499 1011.95078,768.71408 1004.304,800.65805 995.34429,841.13497 985.66267,886.86299 975.84971,934.56011 966.49633,980.94449 958.19308,1022.7342 951.5308,1056.64737 947.10014,1079.40198 945.49203,1087.71618 944.24492,1082.96173 940.7661,1069.89752 935.44942,1050.32201 928.68865,1026.0337 920.87766,998.83096 912.41039,970.51246 903.68042,942.87648 895.0818,917.72174 887.00835,896.84658 879.85377,882.04952 873.61812,872.45978 868.03888,865.7187 863.11597,861.39314 858.84952,859.04986 855.2394,858.25563 852.28569,858.57725 849.98835,859.58154 848.34737,860.83521 847.36282,861.90513 847.03459,862.35801 711.38217,952.06367 577.91765,875.48568 577.8914,875.14876 577.70759,874.36548 577.20873,873.47715 576.2373,872.82517 574.63571,872.75076 572.24649,873.59528 568.91204,875.70008 564.47492,879.40647 558.7775,885.05573 551.6623,892.98924 543.7507,905.51739 535.89164,923.6379 528.26884,945.72302 521.0661,970.14485 514.46728,995.27555 508.65608,1019.48738 503.81636,1041.15239 500.13187,1058.64273 497.7864,1070.33075 496.96374,1074.58851 496.46271,1074.00429 495.05585,1072.27805 492.88761,1069.44898 490.10236,1065.55666 486.8445,1060.64036 483.25848,1054.73945 479.48865,1047.89342 475.67945,1040.14154 471.97525,1031.52318 468.5205,1022.07783 464.32839,1007.91097 458.61349,986.19564 451.8221,958.57279 444.4006,926.68358 436.79532,892.16876 429.45257,856.66938 422.81874,821.82637 417.34014,789.28075 413.46309,760.67339 411.63397,737.64527 408.62556,717.37397 401.48191,695.98687 391.05637,673.54949 378.20221,650.12755 363.77271,625.78669 348.62121,600.59253 333.60098,574.61074 319.56534,547.90686 307.36755,520.54664 297.86093,492.59568 291.83753,465.34048 289.31921,439.96252 290.00403,416.36993 293.59007,394.47081 299.77539,374.17326 308.25805,355.38538 318.7361,338.01532 330.90764,321.97113 344.47069,307.16094 359.12333,293.49287 376.62033,279.97795 398.01622,265.71474 421.95888,250.74265 447.09614,235.10105 472.07591,218.82932 495.54595,201.96684 516.15419,184.553 532.54846,166.62719 543.37657,148.22878 547.28646,129.39715 544.89719,111.03812 538.41216,94.11 528.85519,78.73095 517.25036,65.01911 504.62155,53.09264 491.99274,43.06967 480.38789,35.06837 470.83097,29.20687 464.34591,25.60333 461.95666,24.37589" stroke="#000000"></polygon><path d="M567.29057,603.02575c0.45392,-0.20966 0.45392,-0.20966 0.45392,-0.20966c14.98123,-6.91966 29.62096,-14.61572 44.938,-20.75635c46.8509,-18.78261 99.32839,-17.14041 149.35336,-10.41019c50.02497,6.73021 99.68103,18.2686 150.15665,18.34048c25.23781,0.03594 50.62452,-2.8489 74.67869,-10.48729c24.05417,-7.6384 46.77604,-20.16076 64.74965,-37.87793c17.9736,-17.71717 31.01161,-40.78401 35.03287,-65.69942c4.02125,-24.91541 -1.38919,-51.57459 -16.34715,-71.90211c-9.78463,-13.29708 -22.28816,-24.32356 -33.44149,-36.49543c-0.33779,-0.36864 -0.33779,-0.36864 -0.33779,-0.36864" stroke="#ff0000"></path><g stroke="#ff0000"><line x1="567.29057" y1="603.02575" x2="1036.52727" y2="367.1592"></line><polyline points="1035.08144,377.05412 1036.52727,367.1592 1027.72359,362.41629"></polyline></g><polyline points="1041.00614,375.60534 1035.28863,365.80744 1036.52727,367.1592" stroke="#000000"></polyline><path d="M1041.00614,375.60534c0.252,0.43185 0.252,0.43185 0.252,0.43185c8.31645,14.25161 17.04728,28.2671 24.94835,42.75313c25.7244,47.16379 39.30627,100.55017 41.93802,154.20873c2.63175,53.65856 -5.51224,107.58669 -21.28982,158.94071c-31.55516,102.70804 -92.72121,193.83546 -160.49523,277.21023c-10.40775,12.80349 -20.94644,25.49991 -31.41968,38.24989c-0.31737,0.38636 -0.31737,0.38636 -0.31737,0.38636" stroke="#ff0000"></path><g stroke="#ff0000"><line x1="1041.00614" y1="375.60534" x2="894.62241" y2="1047.78624"></line><polyline points="887.83898,1040.43879 894.62241,1047.78624 903.84683,1043.92488"></polyline></g><polyline points="770.09358,1779.55407 991.16597,1403.88559 943.60416,1395.99023 944.85161,1394.53404 949.35127,1388.47641 956.66787,1378.80816 966.74953,1365.94778 979.54232,1350.31245 994.99368,1332.32086 1013.05246,1312.39293 1033.66369,1290.94602 1056.77396,1268.39866 1082.32239,1245.17569 1108.02244,1223.89331 1131.73565,1206.61918 1153.61728,1192.96112 1173.81496,1182.5253 1192.48273,1174.91466 1209.78563,1169.73075 1225.90075,1166.57413 1241.01839,1165.05005 1255.33751,1164.77631 1268.90151,1165.37567 1280.02466,1167.05024 1287.74841,1169.90076 1293.21689,1173.55532 1297.51222,1177.92458 1301.52009,1183.03256 1306.03559,1188.70821 1311.89589,1194.48485 1319.83312,1199.6383 1330.32165,1203.4864 1343.64036,1205.61697 1360.13638,1206.60543 1379.40668,1207.22413 1400.5649,1207.55465 1422.51723,1207.66154 1444.15635,1207.61033 1464.36936,1207.4662 1477.78219,1207.3936 1473.09804,1210.18948 1459.45388,1218.50129 1445.01344,1226.79216 1430.62745,1234.34736 1417.22132,1240.43603 1405.94251,1244.30983 1397.58743,1245.56283 1391.09056,1245.23449 1385.40284,1244.31969 1380.42132,1242.82423 1375.28756,1240.58938 1369.28793,1237.37329 1361.9107,1233.01792 1352.73408,1227.47126 1341.33674,1220.72094 1327.26993,1212.74961 1306.82366,1201.83946 1285.37172,1203.3156 1266.05866,1209.44145 1247.55745,1218.78167 1230.05777,1230.17382 1213.83505,1242.5232 1199.3513,1254.88715 1187.08875,1266.26746 1177.55172,1275.65362 1171.26718,1282.0228 1147.13918,1309.05714 1182.40858,1311.73617 1189.00061,1312.5567 1198.91581,1313.68906 1211.22489,1315.12686 1224.98726,1316.86176 1239.24504,1318.88161 1253.00318,1321.16946 1265.17526,1323.67428 1274.38646,1326.2234 1279.731,1328.55572 1283.62454,1331.05576 1288.02169,1334.32943 1292.56656,1338.42727 1297.67661,1343.93664 1303.60766,1351.43561 1310.50008,1361.42618 1318.44975,1374.34044 1324.9494,1386.13875 1309.76535,1382.3894 1276.54888,1379.16729 1244.51693,1380.16031 1213.70747,1384.71989 1184.08409,1392.14558 1155.53595,1401.73872 1127.9059,1412.82999 1101.02073,1424.7847 1074.26197,1437.20245 1047.83352,1450.5903 1022.28339,1466.105 997.19286,1484.37988 971.79317,1506.13102 952.0572,1525.2508 1036.49488,1382.57387 994.4872,1375.38331 1000.99055,1367.91873 1016.11647,1350.62153 1033.78806,1331.4345 1053.93633,1310.77317 1076.49628,1289.057 1101.32666,1266.78271 1125.97849,1246.65642 1148.28334,1230.69769 1168.42611,1218.41355 1186.52953,1209.34151 1202.77446,1203.0044 1217.41329,1198.8986 1230.79271,1196.55273 1243.33126,1195.56845 1244.47991,1195.99973 1236.27667,1199.72536 1216.91376,1212.08034 1199.40308,1225.25035 1183.9661,1238.26756 1170.94911,1250.15099 1160.80198,1259.93484 1154.01364,1266.59839 1098.51029,1329.20932 1180.79453,1335.16968 1187.22221,1336.15249 1196.92482,1337.45331 1208.96062,1339.06394 1222.36124,1340.9718 1236.12067,1343.14303 1249.14944,1345.53389 1260.14824,1348.0465 1267.1592,1350.31908 1269.324,1351.74348 1270.58606,1353.09829 1272.86269,1355.35678 1242.16945,1356.98544 1208.82545,1361.65099 1177.08525,1369.30884 1146.85578,1379.06417 1117.995,1390.20452 1090.30651,1401.9969 1062.73117,1414.21299 1039.76375,1425.05507 1077.48543,1363.30187 1044.74225,1356.81485 1053.21917,1349.27816 1071.66404,1331.92893 1179.45086,1354.67761 1173.22188,1356.7029 1141.42969,1364.88999 1110.79724,1373.77286 1089.13871,1379.15276 1099.3223,1361.84778" stroke="#000000"></polyline><path d="M770.09358,1779.55407c-0.25359,0.43092 -0.25359,0.43092 -0.25359,0.43092c-4.19863,7.13473 -8.07615,14.45196 -11.74777,21.87166c-3.67162,7.4197 -7.41857,15.02215 -13.3574,20.78957c-5.60156,5.43989 -13.03788,8.89513 -20.77596,9.94017c-7.73808,1.04504 -15.74307,-0.28442 -22.84747,-3.52441c-7.10439,-3.23999 -13.3065,-8.35564 -18.06426,-14.54706c-4.75776,-6.19142 -8.08526,-13.43907 -9.95561,-21.02009c-3.74069,-15.16203 -1.61672,-31.36679 3.90729,-45.97382c5.52401,-14.60703 14.2986,-27.77536 23.96429,-40.04134c19.33138,-24.53196 42.91107,-46.66718 54.67735,-75.59941c5.88314,-14.46612 8.53671,-30.55476 5.42329,-45.85791c-1.55671,-7.65158 -4.55009,-15.03647 -8.99626,-21.45531c-4.44617,-6.41884 -10.35995,-11.8539 -17.26589,-15.49781c-7.31131,-3.8578 -15.48793,-5.70616 -23.54664,-7.54873c-8.05871,-1.84258 -16.07785,-3.85685 -24.02197,-6.1435c-0.48049,-0.13831 -0.48049,-0.13831 -0.48049,-0.13831" stroke="#ff0000"></path><g stroke="#ff0000"><line x1="770.09358" y1="1779.55407" x2="686.7525" y2="1535.2387"></line><polyline points="696.35717,1538.02265 686.7525,1535.2387 680.85145,1543.31197"></polyline></g><polyline points="545.64549,1029.18864 584.48148,1014.42009 680.20396,1045.59825" stroke="#000000"></polyline><path d="M680.20396,1045.59825c0.47542,0.15485 0.47542,0.15485 0.47542,0.15485c7.85677,2.55906 15.6338,5.35473 23.3556,8.29606c7.7218,2.94134 15.52113,5.93475 23.7107,7.03409c8.49737,1.14066 17.28808,0.10178 25.25628,-3.06274c7.9682,-3.16452 15.09157,-8.45523 20.36085,-15.21845c5.26928,-6.76322 8.66243,-14.98594 9.61715,-23.5062c0.95471,-8.52027 -0.54206,-17.31194 -4.33369,-25.00154c-3.79163,-7.6896 -9.87384,-14.24418 -17.29875,-18.53104c-7.42491,-4.28685 -16.16718,-6.27814 -24.7099,-5.55125c-8.54272,0.72689 -16.84426,4.18062 -23.3306,9.78722c-6.48633,5.6066 -11.11416,13.34567 -12.90747,21.72962c-1.73031,8.08942 -0.94247,16.48065 -0.1869,24.71847c0.75557,8.23782 1.3078,16.49388 1.53271,24.76323c0.01359,0.49982 0.01359,0.49982 0.01359,0.49982" stroke="#ff0000"></path><g stroke="#ff0000"><line x1="680.20396" y1="1045.59825" x2="701.75896" y2="1051.71039"></line><polyline points="694.00607,1058.02646 701.75896,1051.71039 698.47544,1042.26483"></polyline></g><polyline points="464.71337,24.37977 472.3835,24.55085 484.07017,25.72494 498.87953,28.46066 515.91804,33.40686 534.29276,41.20998 553.11314,52.51449 571.4936,67.96396 588.55479,88.20491 603.42196,113.89491 607.35999,124.39987 610.34196,137.88338 611.55237,154.15635 610.1792,173.04023 605.40829,194.36165 596.42215,217.95023 582.39851,243.6352 562.5117,271.24289 535.93579,300.59646 501.8046,331.55309 487.94015,343.46016 475.5594,355.13344 464.72933,366.58231 455.4768,377.85455 447.83191,389.00078 441.83009,400.07264 437.51482,411.11902 434.9374,422.17885 434.15203,433.27448 435.21254,444.50913 441.15385,461.87363 452.24191,481.58969 467.05075,502.67541 484.2477,524.19951 502.49301,545.18175 520.44123,564.62481 536.74366,581.5243 550.04985,594.8724 559.00741,603.6588 564.06887,608.5801 568.85652,606.47547 575.89354,603.4433 586.78611,598.90841 600.85412,593.3517 617.4141,587.2554 635.77927,581.10116 655.2584,575.37086 675.15205,570.54455 694.74715,567.09814 713.29188,565.49678 730.96425,566.30526 748.40449,569.40128 765.49787,574.1985 782.04757,580.09172 797.86324,586.46558 812.77372,592.70027 826.64488,598.17718 839.42142,602.26792 851.2005,604.2647 862.09674,603.08665 872.93043,596.36539 884.93876,584.48398 898.08115,568.56795 911.97055,549.6217 926.04639,528.76102 939.70713,507.13492 952.33917,485.90117 963.32902,466.21148 972.07627,449.18074 978.24859,435.26518 979.87633,421.83851 975.85531,407.63884 967.86392,393.74586 957.00662,380.10105 944.15447,366.81396 930.15171,354.1227 915.85076,342.32612 902.11549,331.7503 889.82008,322.73815 880.07588,315.80198 870.57779,308.04833 858.62544,296.40619 845.00016,281.30253 830.63082,263.33083 816.40126,243.06115 803.17925,221.06451 791.81912,197.92501 783.15433,174.24663 777.97366,150.65136 777.00083,128.0496 781.98282,108.07699 793.39217,90.76777 810.19657,75.50766 830.8158,62.45767 853.40131,51.70634 876.05067,43.2237 896.87039,36.91045 907.85892,34.20188 906.08828,36.06972 900.2744,41.37417 893.10757,46.65605 884.44254,51.68498 873.33144,56.58166 866.88804,59.85604 860.7123,64.8662 855.51597,70.79478 851.12106,77.37472 847.35782,84.43095 844.0913,91.82512 841.21711,99.42665 838.65192,107.10092 836.32571,114.70553 833.96579,122.85673 832.6809,132.38597 834.15942,142.39424 837.83663,151.74437 843.07672,160.57692 849.50291,169.2236 856.88731,177.982 865.04828,187.08095 873.80955,196.70063 882.99253,206.99079 892.92069,218.67361 905.44284,230.92339 921.10467,241.76118 938.62317,251.14235 957.46704,259.52829 977.11185,267.29225 997.01162,274.75248 1016.5928,282.19279 1035.25461,289.86472 1052.36922,297.97882 1067.23159,306.64396 1079.25976,316.10263 1088.78868,326.65922 1096.38657,338.53253 1102.38082,351.87341 1107.00219,366.76538 1110.452,383.20357 1112.94652,401.12284 1114.73011,420.4315 1116.07225,441.03252 1117.2041,461.89929 1115.53189,484.71707 1108.89206,512.10965 1098.09043,543.27227 1084.27125,576.53927 1068.61378,610.44087 1052.29436,643.59537 1036.47851,674.67298 1022.30943,702.40036 1010.8716,725.64827 1003.22519,743.48939 997.03021,764.80153 989.1682,797.17153 980.05572,837.82449 970.24114,883.6441 960.30397,931.39358 950.83103,977.80877 942.89027,1017.2014 936.42334,994.27513 928.0016,965.71931 919.28225,937.74644 910.62102,912.06349 902.28906,890.21053 894.47931,873.80205 887.23162,862.45118 880.26022,853.85298 872.9885,847.31505 864.96261,842.77962 856.18725,840.73475 847.74836,841.54087 841.02255,844.35818 836.40342,847.74539 835.20259,848.88403 710.71686,931.07026 591.79271,862.70528 590.88025,860.85045 582.16444,854.86518 571.90635,854.27535 564.15075,856.89619 557.96306,860.66705 551.89429,865.58765 545.1603,872.10395 536.5315,881.55417 526.89122,896.6059 518.05092,916.70194 509.93721,939.85946 502.41881,964.94808 495.58281,990.5305 489.57581,1015.06674 488.5005,1019.35437 487.34353,1015.85734 483.52425,1002.54626 478.03872,981.25192 471.4275,953.88152 464.17312,922.20452 456.73385,887.91017 449.56294,852.67538 443.11331,818.18668 437.83955,786.16707 434.19841,758.44653 432.4734,735.27406 429.2027,712.45061 421.20453,688.13985 410.0799,663.92326 396.8128,639.50833 382.26682,614.74401 367.27626,589.59186 352.66964,564.09317 339.27005,538.34835 327.87811,512.50607 319.20112,486.62813 313.8415,461.82997 311.71235,439.17967 312.42996,418.52188 315.64584,399.61298 321.07833,382.19042 328.50978,366.01742 337.75794,350.9145 348.64099,336.76387 360.9538,323.4935 374.22694,311.2735 390.29183,299.01376 410.78842,285.49246 434.48079,270.81663 459.8677,255.15923 485.57591,238.55439 510.32474,220.91905 532.91558,201.98504 552.15987,181.11853 566.42,157.12225 572.1033,130.33196 568.92196,104.9642 567.1873,100.10337 568.79763,102.18515 581.59115,124.37008 584.18823,131.45923 586.37141,141.56034 587.27246,154.30615 586.11544,169.60644 582.07968,187.44974 574.2718,207.83446 561.73917,230.71136 543.51066,255.95801 518.63391,283.38634 485.5906,313.31566 471.49735,325.38551 458.17415,337.92052 446.25127,350.50016 435.76401,363.25567 426.78157,376.33553 419.43037,389.88712 413.91284,404.01291 410.49556,418.70236 409.43738,433.77649 410.97647,449.89823 418.57888,472.11104 431.36262,494.86386 447.30117,517.59042 465.27893,540.12569 484.0883,561.79099 502.45954,581.72662 519.0886,598.99871 532.65202,612.63836 541.80825,621.6523 559.2016,638.27433 579.1664,629.18781 585.87241,626.33095 596.35047,622.00012 609.912,616.67449 625.84509,610.8395 643.41966,604.98094 661.87757,599.58263 680.41325,595.11854 698.14008,592.03574 713.93842,590.71101 728.31468,591.41181 742.91675,594.04596 757.97847,598.31204 773.21703,603.77479 788.39504,609.92412 803.38813,616.22244 818.28395,622.12463 833.59607,627.03443 850.65165,629.90748 870.79181,627.6718 888.92886,616.37163 903.8656,601.59701 918.29253,584.15311 932.92249,564.23338 947.50989,542.65641 961.5803,520.42681 974.59203,498.60189 985.9981,478.21428 995.31338,460.12274 1003.3489,441.99837 1006.02212,419.61761 999.70064,397.40281 989.15717,379.08304 976.32948,362.94697 962.03446,348.14483 946.96885,334.46404 931.87626,321.98659 917.55463,310.9308 904.85236,301.59179 895.66116,295.00979 887.7617,288.50514 877.28551,278.24654 864.78286,264.33542 851.43942,247.59293 838.23984,228.73171 826.09616,208.46252 815.86565,187.54222 808.31792,166.80242 804.04438,147.1374 803.3857,130.58891 806.43058,118.66312 812.69732,109.29197 810.12437,118.11397 808.17405,132.79981 810.59554,148.94152 816.02777,162.6948 822.91248,174.28931 830.5246,184.54526 838.60999,194.16197 847.05697,203.61506 855.77036,213.22209 864.64132,223.20744 875.07952,235.52283 889.87769,250.01045 908.38777,262.82904 927.91865,273.30444 948.0466,282.28556 968.36864,290.34381 988.41249,297.8876 1007.62401,305.22029 1025.36825,312.55326 1040.93402,319.97704 1053.38929,327.29352 1062.37828,334.43452 1069.07035,341.93993 1074.51893,350.56927 1079.08582,360.87229 1082.85815,373.20015 1085.84398,387.64872 1088.09908,404.14249 1089.76094,422.53259 1091.03786,442.65674 1092.03477,461.78425 1090.58371,480.91504 1084.67785,505.08889 1074.48505,534.37173 1061.11209,566.46633 1045.75943,599.62147 1029.61989,632.33053 1013.85616,663.22963 999.57275,691.10783 987.71789,715.13738 979.17464,735.01941 972.37403,758.33606 964.30182,791.44357 955.08574,832.41767 945.20056,878.41747 937.69979,914.16701 934.19721,903.47877 925.34629,880.19732 916.42896,861.42447 907.55313,847.51088 898.40675,836.23447 887.57074,826.52095 873.94508,818.8724 857.57284,815.12251 841.14942,816.76375 828.04955,822.33085 819.20873,828.9011 818.57854,829.37002 709.76863,901.14971 610.59332,844.0773 610.17369,843.03148 590.48812,829.64335 568.09215,828.45648 552.8926,833.674 542.81187,839.86438 534.5695,846.55773 526.49816,854.35376 515.89389,865.95736 504.00392,884.50826 493.9446,907.3301 489.2697,920.41558 488.55437,916.68144 481.21576,882.68119 474.15207,847.79188 467.8241,813.75498 462.69811,782.39127 459.24137,755.75705 457.53986,732.42187 453.85383,706.55249 444.73707,678.77699 432.68778,652.4833 418.84233,626.93826 404.07234,601.72412 389.18541,576.67229 374.97741,551.78903 362.23265,527.20946 351.68564,503.17302 343.87472,479.72842 339.18369,457.78689 337.40416,438.28151 338.06167,420.98146 340.75938,405.46805 345.2447,391.2852 351.39983,378.03456 359.18001,365.44132 368.54011,353.36324 379.38385,341.75521 391.05521,331.08448 405.47188,320.15005 424.9218,307.37794 448.29101,292.95591 473.90663,277.20785 500.36677,260.16555 518.65351,247.227 501.34724,266.19135 469.38157,295.08381 455.05018,307.30607 440.77335,320.69221 427.74483,334.39331 416.00802,348.6248 405.67134,363.63424 396.95229,379.66598 390.21293,396.87732 385.93606,415.20913 384.58518,434.28129 386.58442,455.32201 395.83902,482.42323 410.31375,508.24585 427.37602,532.63803 446.12494,556.20738 465.48783,578.5769 484.27094,599.02521 501.21422,616.69017 515.02137,630.64208 524.36242,639.90386 554.25964,668.42427 589.64484,652.27149 596.02458,649.61606 606.09063,645.51627 619.14554,640.44956 634.44823,634.90514 651.22387,629.37273 668.64552,624.33865 685.79816,620.27034 701.6163,617.58547 714.60154,616.57176 725.59428,617.18959 737.27657,619.37519 750.24275,623.11927 764.12416,628.16139 778.6361,634.10302 793.70591,640.48806 809.65058,646.85239 827.57522,652.63211 850.08383,656.43713 879.79694,653.13363 905.51493,637.11273 923.50791,619.35694 939.28951,600.34405 954.71259,579.42957 969.8563,557.12339 984.3791,534.28118 997.81285,511.85507 1009.67996,490.75332 1019.61596,471.56644 1029.62954,449.04817 1033.428,417.28968 1024.72304,386.6615 1011.52748,363.67855 996.65329,344.90428 980.86242,328.48589 964.69831,313.73891 980.34583,319.59014 999.20015,326.84865 1016.07166,333.8883 1030.1684,340.68717 1040.34232,346.75663 1046.44827,351.7332 1050.44182,356.37611 1053.83992,361.95174 1057.03585,369.39022 1059.98261,379.29686 1062.50655,391.86436 1064.51173,407.00901 1066.03321,424.52922 1067.22331,444.20183 1068.06693,461.67469 1066.80185,477.29075 1061.57326,498.38987 1051.93968,525.87087 1038.97163,556.83647 1023.88944,589.26807 1007.90131,621.54058 992.1669,652.25829 977.75244,680.27044 965.47474,705.03985 956.04652,726.87429 948.63757,752.11176 940.33803,785.92352 930.99616,827.20149 928.86761,836.28163 927.07787,833.15636 915.86249,819.28666 901.61353,806.49612 882.60487,795.82402 858.91013,790.40302 834.77421,792.82667 815.5038,801.02896 802.72416,810.53452 708.85614,872.35669 628.70871,826.12825 628.7891,825.83872 598.5301,805.2751 564.40201,803.47744 541.98566,811.17624 528.11291,819.68259 517.73965,828.07147 508.34403,837.08676 498.80075,847.40757 498.11774,843.03221 491.94139,809.42972 486.9892,778.70167 483.74427,753.12558 482.09974,729.62733 478.04011,700.76559 467.85637,669.57854 454.9279,641.22944 440.5419,614.55646 425.581,588.88148 410.82666,563.9107 397.04687,539.61633 384.98601,516.17209 375.31452,493.91 368.40484,472.86884 365.80267,460.0116 376.4053,491.23613 392.28879,519.70536 410.27863,545.5501 429.65928,570.03195 449.46519,593.03644 468.56922,613.9586 485.75217,631.99401 499.74062,646.24617 509.21277,655.75319 549.9593,694.65982 598.78385,672.40443 604.89928,669.97114 614.6245,666.12004 627.25488,661.32996 642.03557,656.12929 658.13522,650.97393 674.66447,646.35491 690.60802,642.73617 704.73472,640.50544 715.19889,639.86793 723.13304,640.51162 732.15167,642.39041 743.18346,645.75728 755.78772,650.51929 769.64854,656.37073 784.74693,662.94107 801.62555,669.83776 821.95215,676.5386 849.55108,681.32763 888.28323,677.12845 921.21721,656.74864 942.18686,636.24583 959.34921,615.81224 975.62344,594.01259 991.39645,571.0684 1006.45428,547.69582 1020.40148,524.74744 1032.82825,503.00985 1042.35222,485.03906 1040.2593,492.21003 1031.02458,517.98472 1018.31261,547.85095 1003.35998,579.54929 987.39258,611.3517 971.55979,641.83434 956.89663,669.91208 944.08312,695.32889 933.66149,718.99086 925.5214,746.05012 916.8502,780.51311 914.9832,787.01963 891.0362,773.38368 860.22148,766.16304 828.47393,769.17089 803.01001,779.81529 788.40745,790.40961 707.92877,843.09419 642.90557,805.26175 606.73096,780.42543 560.60891,777.80134 530.6818,787.85976 515.17472,797.05701 511.95359,774.9098 509.15697,750.39639 507.7975,726.70331 503.57905,694.65505 497.70356,675.34918 545.57869,721.38502 608.16686,693.07492 614.08646,691.04294 623.53088,687.62315 635.78843,683.30266 650.0567,678.56688 665.47489,673.91382 681.08315,669.83334 695.75664,666.78432 708.08516,665.13069 715.84377,665.01711 720.46445,665.79846 726.57119,667.45153 735.46426,670.51153 746.63548,675.06512 759.74212,680.91502 774.8368,687.77783 792.71696,695.35383 815.68689,703.17539 848.9553,709.16311 897.80852,704.06101 922.54959,689.20064 912.42192,711.51084 903.52827,740.28296 899.8197,752.9493 899.13678,751.82363 861.48182,742.86584 822.41984,746.43953 790.99713,759.41817 774.63264,771.04644 707.03573,814.91509 655.70574,784.66283 614.69268,756.30038 556.93346,752.92172 534.09012,760.23856 533.12817,747.82201 533.3015,740.98326 541.0058,749.28334 617.92253,714.56633 623.59119,712.84308 632.70036,709.76149 644.53214,705.8165 658.26739,701.53472 672.98906,697.39911 687.66398,693.90488 701.0437,691.47907 711.53103,690.4573 716.5066,690.86682 717.71225,691.87757 720.79689,693.38312 727.45123,696.20806 737.1122,700.60605 749.39568,706.54952 764.44712,713.81647 783.32883,722.24337 803.43644,729.60833 779.04971,739.13221 760.87459,751.70683 706.13839,786.60023 668.64757,763.83594 625.75794,733.68181 632.00048,732.13072 640.92638,729.62198 652.47142,726.25903 665.82132,722.66541 679.97488,719.23306 693.84898,716.52854 706.06524,714.93365 714.84829,714.83869 716.03181,716.29924 720.31406,719.09584 728.52935,723.62481 739.90852,730.05507 746.37846,734.79322 705.27873,759.47442 681.37354,743.35642 680.19992,739.55787 686.62271,740.01062 699.96886,738.91401 710.3373,740.02528 704.77885,743.70102" stroke="#000000"></polyline><polyline points="770.4566,1047.23922 854.14545,1008.95015 898.45128,1016.60799" stroke="#000000"></polyline><path d="M898.45128,1016.60799c0.49269,0.08516 0.49269,0.08516 0.49269,0.08516c8.13946,1.40683 16.31447,2.59631 24.50719,3.64948c8.19273,1.05317 16.45841,2.09499 24.2696,4.78111c17.23486,5.92675 31.15868,20.22935 37.54138,37.30061c6.3827,17.07126 5.38931,36.57774 -1.78678,53.33096c-7.17609,16.75322 -20.29808,30.71582 -36.08807,39.81764c-15.78999,9.10182 -34.1338,13.44182 -52.35924,13.42389c-36.45087,-0.03587 -71.20121,-17.12634 -99.29359,-40.35316c-28.09238,-23.22682 -50.52581,-52.41109 -73.08219,-81.04457c-22.55635,-28.6336 -45.82063,-57.30344 -75.07825,-79.04427c-29.25762,-21.74083 -65.54851,-36.16094 -101.80762,-32.4261c-18.12956,1.86742 -35.90187,8.33497 -50.3839,19.40017c-14.48203,11.0652 -25.52955,26.81299 -30.02547,44.47523c-4.49592,17.66224 -2.19268,37.14668 7.16426,52.78687c9.35695,15.64019 25.86508,27.03976 43.95071,29.29318c8.19733,1.02134 16.50103,0.29284 24.7319,-0.40866c8.23087,-0.70149 16.47353,-1.26223 24.72746,-1.59692c0.49959,-0.02026 0.49959,-0.02026 0.49959,-0.02026" stroke="#ff0000"></path><g stroke="#ff0000"><line x1="898.45128" y1="1016.60799" x2="566.43095" y2="1080.05835"></line><polyline points="570.52715,1070.93579 566.43095,1080.05835 573.60236,1087.02763"></polyline></g><polygon points="545.09847,1062.55479 570.25982,1047.78624 612.92472,1046.14527 656.13661,1062.55479 665.98234,1077.87036 639.18002,1063.10181 605.81391,1056.53793 579.0116,1068.57165 566.43095,1080.05835" stroke="#000000"></polygon><path d="M566.43095,1080.05835c-0.36924,0.33714 -0.36924,0.33714 -0.36924,0.33714c-12.18586,11.12624 -24.80466,21.79112 -36.555,33.37637c-34.69751,34.20998 -58.70549,79.1882 -67.44038,127.12506c-8.73489,47.93686 -2.09577,98.61137 19.03885,142.51544c21.13462,43.90408 56.70779,80.77475 100.00334,103.12951c43.29556,22.35476 94.08612,30.00204 141.97591,21.01268c47.88979,-8.98937 92.55117,-34.6242 124.18015,-71.68965c31.62899,-37.06545 49.9413,-85.33987 50.47498,-134.06312c0.53368,-48.72325 -16.79124,-97.5079 -48.22488,-134.73916c-31.43364,-37.23126 -76.76165,-62.5326 -125.00518,-69.37385c-16.33828,-2.31687 -32.8524,-3.09928 -49.28119,-4.64917c-0.49779,-0.04696 -0.49779,-0.04696 -0.49779,-0.04696" stroke="#ff0000"></path><g stroke="#ff0000"><line x1="566.43095" y1="1080.05835" x2="674.73053" y2="1092.99264"></line><polyline points="668.06383,1100.44616 674.73053,1092.99264 670.00666,1084.17873"></polyline></g><polyline points="568.36677,1071.71988 571.35579,1075.7733 574.31696,1079.36261 577.29201,1082.51093 580.32282,1085.2416 583.45108,1087.57775 586.71858,1089.54252 590.16709,1091.15932 593.83836,1092.45109 597.77422,1093.44126 602.0164,1094.15297 607.04993,1094.53625 613.09059,1094.57374 619.77642,1094.33739 626.7454,1093.89924 633.63544,1093.33107 640.08455,1092.70482 645.73073,1092.09255 650.21196,1091.56621 653.16614,1091.19756 654.23133,1091.05875 674.73053,1092.99264" stroke="#000000"></polyline><path d="M568.36677,1071.71988c-0.29675,-0.40242 -0.29675,-0.40242 -0.29675,-0.40242c-3.3282,-4.51337 -6.61152,-9.19112 -8.28993,-14.54186c-1.67841,-5.35074 -1.64833,-11.29033 0.49469,-16.4725c2.14303,-5.18217 6.31546,-9.43809 11.33521,-11.938c5.01975,-2.49992 10.77326,-3.29802 16.36786,-2.91351c4.08921,0.28105 8.11027,1.16214 12.16605,1.75486c4.91838,0.71879 9.90673,1.03154 14.74696,2.16259c4.84024,1.13105 9.55749,3.1589 13.24199,6.49531c3.6845,3.33641 6.17583,7.93282 7.06358,12.82353c0.88774,4.89071 0.18027,9.91416 -0.66184,14.81293c-0.08471,0.49277 -0.08471,0.49277 -0.08471,0.49277" stroke="#ff0000"></path><g stroke="#ff0000"><line x1="568.36677" y1="1071.71988" x2="634.44988" y2="1063.99359"></line><polyline points="629.70418,1072.79577 634.44988,1063.99359 627.80167,1056.52357"></polyline></g><polyline points="549.93985,1062.93404 571.064,1050.53514 602.08614,1052.12181 573.14416,1059.63536 566.06204,1066.10165" stroke="#000000"></polyline><path d="M549.93985,1062.93404c-0.43121,0.2531 -0.43121,0.2531 -0.43121,0.2531c-7.38771,4.33624 -14.35958,9.36298 -20.6957,15.12796c-3.16806,2.88249 -6.28299,5.84104 -9.73227,8.3803c-3.44927,2.53926 -7.30409,4.66272 -11.51227,5.46061c-5.89762,1.11821 -12.21513,-0.559 -16.94122,-4.25987c-4.72609,-3.70087 -7.84032,-9.32407 -8.72545,-15.26114c-0.88513,-5.93708 0.41286,-12.13393 3.38103,-17.35143c2.96817,-5.2175 7.55854,-9.45426 12.87848,-12.23464c7.25066,-3.78944 15.52937,-4.97487 23.53739,-6.64929c8.00802,-1.67441 15.83256,-4.12531 23.4795,-7.03328c0.46735,-0.17772 0.46735,-0.17772 0.46735,-0.17772" stroke="#ff0000"></path><g stroke="#ff0000"><line x1="549.93985" y1="1062.93404" x2="545.64549" y2="1029.18864"></line><polyline points="554.49556,1033.84442 545.64549,1029.18864 538.24358,1035.91261"></polyline></g><polygon points="785.22524,1060.91382 831.17204,1033.0176 858.52129,1035.75252 884.77663,1033.0176 894.62241,1047.78624 882.04171,1063.10181 832.81301,1053.25608 788.50713,1061.46084" stroke="#000000"></polygon><path d="M894.62241,1047.78624c0.27735,0.41602 0.27735,0.41602 0.27735,0.41602c4.58613,6.87918 9.41285,13.59379 14.38501,20.19934c4.97215,6.60556 10.03491,13.29768 13.07268,20.98713c5.04898,12.78036 3.62375,27.96986 -3.85288,39.49938c-7.47662,11.52953 -20.85012,19.04672 -34.58971,19.2776c-6.8698,0.11544 -13.76464,-1.50858 -19.85032,-4.69794c-6.08567,-3.18936 -11.34832,-7.93939 -15.12377,-13.6799c-3.77545,-5.74051 -6.05338,-12.46005 -6.52475,-19.31463c-0.47137,-6.85458 0.86731,-13.82834 3.86345,-20.01143c3.60723,-7.44419 9.3736,-13.58796 15.02158,-19.63183c5.64798,-6.04387 11.14744,-12.22598 16.3981,-18.61806c0.31737,-0.38636 0.31737,-0.38636 0.31737,-0.38636" stroke="#ff0000"></path><g stroke="#ff0000"><line x1="894.62241" y1="1047.78624" x2="878.01652" y2="1051.82557"></line><polyline points="881.65367,1042.51047 878.01652,1051.82557 885.52588,1058.42933"></polyline></g><polyline points="831.90074,1036.23106 858.52777,1038.89375 881.44812,1040.09698 881.85753,1047.14958 878.01652,1051.82557" stroke="#000000"></polyline><path d="M831.90074,1036.23106c-0.49752,-0.04975 -0.49752,-0.04975 -0.49752,-0.04975c-4.63454,-0.46345 -9.29595,-0.85485 -13.94442,-0.56245c-4.64847,0.29239 -9.24549,1.25352 -13.65957,2.74003c-8.82814,2.97304 -16.87614,8.21539 -25.9848,10.16665c-5.39703,1.15615 -11.07411,1.00921 -16.39161,-0.47029c-5.3175,-1.47949 -10.26411,-4.29316 -14.22074,-8.14151c-3.95662,-3.84835 -6.91118,-8.7265 -8.44368,-14.02896c-1.5325,-5.30246 -1.63406,-11.0174 -0.24538,-16.35933c1.38868,-5.34193 4.26903,-10.29415 8.25822,-14.10874c3.98918,-3.81459 9.07832,-6.47481 14.49656,-7.52712c5.41824,-1.05231 11.14679,-0.48662 16.23672,1.64817c5.08992,2.13479 9.51743,5.83599 12.48171,10.49193c2.89395,4.54548 4.36672,9.85413 5.29288,15.16247c0.92616,5.30835 1.36191,10.68942 2.11984,16.02438c1.51587,10.66993 5.17287,20.91349 9.88193,30.60731c0.21848,0.44974 0.21848,0.44974 0.21848,0.44974" stroke="#ff0000"></path><g stroke="#ff0000"><line x1="831.90074" y1="1036.23106" x2="807.49936" y2="1062.27358"></line><polyline points="805.44356,1052.48718 807.49936,1062.27358 817.39869,1063.68892"></polyline></g><polygon points="512.75431,1121.705 514.59924,1124.19969 519.62348,1130.98765 527.0612,1141.02451 536.14659,1153.26606 546.11385,1166.66786 556.19712,1180.18571 565.63062,1192.77533 573.64851,1203.39235 579.48501,1210.99258 582.37423,1214.53155 584.54867,1218.937 588.4451,1228.88877 593.60394,1242.9713 599.5657,1259.76902 605.87095,1277.86634 612.06014,1295.84762 617.67384,1312.29727 622.25252,1325.79963 625.33668,1334.93923 626.46684,1338.3003 625.0288,1336.9682 621.08907,1333.30628 615.20932,1327.81557 607.95106,1320.9974 599.8759,1313.35316 591.5455,1305.384 583.52139,1297.59123 576.36525,1290.47608 570.63861,1284.53986 566.90313,1280.2837 564.03559,1276.54586 560.67135,1271.9169 557.01014,1266.52685 553.25143,1260.50546 549.59485,1253.98284 546.23996,1247.08893 543.3863,1239.95367 541.23348,1232.70697 539.98113,1225.47888 539.82872,1218.39933 539.44657,1210.05264 537.60707,1199.43175 534.66294,1187.27924 530.96688,1174.33769 526.87168,1161.34967 522.73007,1149.05788 518.89478,1138.20488 515.71855,1129.53337 513.55416,1123.78591" stroke="#000000"></polygon><path d="M583.52139,1297.59123c-0.35869,-0.34834 -0.35869,-0.34834 -0.35869,-0.34834c-11.83731,-11.49602 -23.28867,-23.39918 -35.50995,-34.48614c-8.35812,-7.58236 -17.21478,-14.67449 -24.71204,-23.10903c-7.49726,-8.43454 -13.67139,-18.46761 -15.42946,-29.61479c-0.87904,-5.57359 -0.61929,-11.35905 1.06022,-16.74577c1.67951,-5.38673 4.80906,-10.35789 9.14569,-13.96776c4.33663,-3.60988 9.89383,-5.80476 15.53627,-5.82804c5.64243,-0.02328 11.31777,2.1937 15.24225,6.24784c2.90079,2.99664 4.78247,6.85249 6.04292,10.82813c1.26045,3.97564 1.95075,8.10634 2.61526,12.22373c1.32902,8.23477 3.0628,16.40261 5.4382,24.39856c0.14239,0.4793 0.14239,0.4793 0.14239,0.4793" stroke="#ff0000"></path><g stroke="#ff0000"><line x1="583.52139" y1="1297.59123" x2="562.73444" y2="1227.66892"></line><polyline points="572.2208,1230.83261 562.73444,1227.66892 556.51701,1235.50113"></polyline></g><polyline points="519.22167,1131.28523 526.65959,1141.32234 535.31827,1153.88147 544.85041,1167.60891 554.4904,1181.46167 563.46308,1194.40585 571.01707,1205.3963 576.425,1213.41575 578.52807,1217.0054 579.78591,1221.04021 582.96524,1230.96497 587.45607,1245.1883 592.72663,1262.17403 598.32567,1280.4793 603.811,1298.67487 605.26765,1305.36216 598.69905,1297.96235 591.31149,1289.66361 584.85837,1282.11022 580.09442,1275.83828 577.55406,1271.54014 575.81362,1267.75029 573.51712,1262.88952 571.07752,1257.36345 568.63544,1251.39859 566.49372,1245.14369 564.88729,1238.8357 564.23092,1232.70627 562.73444,1227.66892" stroke="#000000"></polyline><path d="M519.22167,1131.28523c-0.29769,-0.40172 -0.29769,-0.40172 -0.29769,-0.40172c-9.82634,-13.26018 -20.63896,-25.82848 -29.47148,-39.77037c-18.10963,-28.58556 -24.1411,-63.95799 -19.70971,-97.5058c4.43139,-33.54781 18.85146,-65.30341 38.57425,-92.80076c39.44558,-54.9947 98.22961,-92.30868 154.75609,-129.52598c13.78116,-9.07358 27.52577,-18.20253 41.28865,-27.3038c0.41706,-0.2758 0.41706,-0.2758 0.41706,-0.2758" stroke="#ff0000"></path><g stroke="#ff0000"><line x1="519.22167" y1="1131.28523" x2="704.77885" y2="743.70102"></line><polyline points="709.69049,752.4117 704.77885,743.70102 694.91362,745.33722"></polyline></g><polyline points="809.99268,1283.18453 808.94798,1282.836 806.06768,1281.88189 801.73226,1280.45886 796.32243,1278.70411 790.21869,1276.75436 783.80169,1274.74663 777.45192,1272.81775 771.55012,1271.10473 766.47674,1269.7444 762.61246,1268.87377 759.17594,1268.57169 755.26369,1268.7546 751.07297,1269.31588 746.801,1270.14855 742.64508,1271.14609 738.80242,1272.2016 735.47034,1273.20839 732.84609,1274.05966 731.12684,1274.64871 730.50994,1274.86882 729.86556,1274.64757 728.09334,1274.05041 725.43467,1273.17704 722.13082,1272.12738 718.42315,1271.00104 714.55306,1269.89794 710.76187,1268.91787 707.29093,1268.16055 704.3816,1267.72581 702.2752,1267.71344 699.48093,1268.44308 694.68044,1270.02324 688.37383,1272.23701 681.06123,1274.86731 673.24272,1277.69713 665.41841,1280.50957 658.08839,1283.08765 651.75279,1285.21436 646.9117,1286.6727 644.06521,1287.24569 642.53453,1287.31972 641.28813,1287.42048 640.29701,1287.53983 639.53219,1287.66958 638.96458,1287.80168 638.56525,1287.92793 638.30515,1288.0403 638.15524,1288.13067 638.08659,1288.19082 638.07016,1288.21263 638.20496,1288.17817 638.59155,1288.0997 639.2032,1288.01424 640.01335,1287.95891 640.99516,1287.9709 642.12202,1288.08733 643.36729,1288.34531 644.70416,1288.78194 646.10604,1289.43444 647.54621,1290.33991 649.04209,1291.94462 650.64817,1294.54498 652.39348,1297.95289 654.30707,1301.98034 656.41791,1306.43952 658.755,1311.14232 661.34739,1315.90083 664.22404,1320.52714 667.41401,1324.83306 670.94623,1328.63086 675.16037,1332.0451 680.24669,1335.29361 686.01053,1338.32815 692.25695,1341.10028 698.79127,1343.56164 705.41866,1345.66408 711.9443,1347.35906 718.17339,1348.59843 723.91117,1349.33384 728.96283,1349.51684 734.32436,1349.39172 740.40987,1349.14243 747.01526,1348.61005 753.93627,1347.63555 760.96866,1346.06002 767.90822,1343.72443 774.55071,1340.46988 780.69199,1336.13742 786.12774,1330.56806 790.65381,1323.60276 794.4595,1316.23171 797.86953,1309.56272 800.88273,1303.6131 803.49792,1298.40038 805.71396,1293.94177 807.52967,1290.25483 808.94392,1287.35693 809.95557,1285.26535 810.56336,1283.99774 810.76624,1283.57131" stroke="#000000"></polyline><path d="M810.76624,1283.57131c0.21481,-0.45151 0.21481,-0.45151 0.21481,-0.45151c3.56652,-7.49657 6.67845,-15.19819 9.49952,-23.0059c2.82107,-7.8077 5.77876,-15.94276 11.76625,-21.69329c3.3607,-3.2277 7.5905,-5.51533 12.09609,-6.70362c4.50558,-1.18829 9.27762,-1.28862 13.85859,-0.43599c9.16195,1.70525 17.3721,7.18816 23.3716,14.31945c5.99949,7.13129 9.91561,15.83098 12.43657,24.80283c2.52097,8.97184 3.70633,18.25884 4.73217,27.52151c2.05167,18.52533 3.76636,37.93264 13.80333,53.63794c5.01849,7.85265 12.1513,14.53742 20.80529,17.99543c4.32699,1.72901 8.99707,2.63451 13.65475,2.49919c4.65768,-0.13532 9.29848,-1.32299 13.37941,-3.57208c7.26526,-4.00405 12.38707,-10.92328 17.31687,-17.59512c4.92981,-6.67184 10.09292,-13.17026 15.61126,-19.36416c0.33261,-0.37333 0.33261,-0.37333 0.33261,-0.37333" stroke="#ff0000"></path><g stroke="#ff0000"><line x1="810.76624" y1="1283.57131" x2="993.64534" y2="1331.15266"></line><polyline points="986.03178,1337.63601 993.64534,1331.15266 990.15697,1321.78082"></polyline></g><polyline points="701.75896,1051.71039 701.83478,1054.49828 701.99413,1062.13175 702.13492,1073.51534 702.15504,1087.55377 701.95235,1103.15177 701.42478,1119.21389 700.47025,1134.64476 698.98655,1148.34901 696.87165,1159.23137 694.02341,1166.19648 691.15355,1170.75735 688.97987,1175.11398 687.40953,1179.20149 686.34976,1182.95472 685.7077,1186.3089 685.39056,1189.19887 685.30548,1191.55976 685.35964,1193.3266 685.46016,1194.43434 685.51431,1194.818" stroke="#000000"></polyline><path d="M685.51431,1194.818c0.06988,0.49509 0.06988,0.49509 0.06988,0.49509c1.17429,8.31931 1.49387,16.72902 1.28698,25.12825c-0.10345,4.19962 -0.17519,8.42879 0.51443,12.57269c0.68962,4.1439 2.22441,8.26684 5.11703,11.31319c2.12367,2.23654 4.92022,3.80358 7.91,4.56073c2.98978,0.75715 6.16372,0.71552 9.16239,-0.00563c5.99734,-1.4423 11.13899,-5.55377 14.64385,-10.62961c3.50486,-5.07585 5.49205,-11.06546 6.66105,-17.122c1.169,-6.05654 1.56002,-12.2313 2.13799,-18.37249c0.57797,-6.14119 1.35477,-12.3095 3.25892,-18.17657c1.90415,-5.86707 5.00787,-11.46337 9.64456,-15.53146c2.31835,-2.03404 5.00369,-3.66544 7.91847,-4.67348c2.91478,-1.00804 6.06024,-1.3839 9.11698,-0.97353c3.05674,0.41037 6.01812,1.61834 8.41808,3.55541c2.39997,1.93707 4.22033,4.60922 5.03378,7.58418c1.11253,4.06882 0.32299,8.45978 -1.28558,12.35921c-1.60856,3.89943 -3.98392,7.42815 -6.37012,10.90652c-4.7724,6.95675 -9.06322,14.24027 -12.49806,21.94572c-0.20357,0.45668 -0.20357,0.45668 -0.20357,0.45668" stroke="#ff0000"></path><g stroke="#ff0000"><line x1="685.51431" y1="1194.818" x2="756.05138" y2="1220.21092"></line><polyline points="747.88007,1225.97545 756.05138,1220.21092 753.42925,1210.56082"></polyline></g><polygon points="689.38208,1218.79819 689.65054,1218.69914 690.41555,1218.47024 691.61691,1218.2134 693.19419,1218.03078 695.08705,1218.02464 697.23524,1218.29697 699.57833,1218.94984 702.05603,1220.08534 704.60799,1221.80573 707.17384,1224.21307 709.83718,1226.64129 712.70015,1228.41503 715.73016,1229.62257 718.89477,1230.35203 722.16146,1230.69159 725.49779,1230.72946 728.87128,1230.55392 732.2494,1230.25298 735.59966,1229.91492 738.88958,1229.62796 741.72082,1229.32239 743.80942,1228.8544 745.29464,1228.20077 746.31573,1227.33827 747.01191,1226.24366 747.52248,1224.89381 747.98659,1223.26549 748.54358,1221.33547 749.33257,1219.08053 750.4929,1216.47753 751.77778,1214.1986 752.88165,1212.82014 753.85558,1212.17501 754.75057,1212.09607 755.6177,1212.41637 756.50806,1212.96868 757.47269,1213.58595 758.56263,1214.10115 759.82896,1214.34714 761.32267,1214.15686 762.89843,1213.82419 764.3674,1213.72363 765.7157,1213.8088 766.92943,1214.03307 767.99457,1214.35025 768.89731,1214.7138 769.62369,1215.07735 770.15976,1215.39453 770.49163,1215.61889 770.60532,1215.70397 770.38257,1215.8865 769.75131,1216.42182 768.76737,1217.29131 767.48636,1218.47638 765.96399,1219.95852 764.25598,1221.71914 762.41803,1223.73961 760.50582,1226.00154 758.575,1228.48623 756.68134,1231.17507 754.19746,1233.97221 750.64144,1236.75085 746.28708,1239.44593 741.40831,1241.99246 736.27883,1244.3255 731.17264,1246.38006 726.36342,1248.09119 722.12511,1249.39383 718.73155,1250.22309 716.4565,1250.51393 714.54272,1250.00572 712.09987,1248.58316 709.20211,1246.39942 705.9238,1243.60765 702.33912,1240.36103 698.52244,1236.8127 694.54791,1233.11594 690.48982,1229.42371 686.42247,1225.88936 682.42009,1222.66597" stroke="#000000"></polygon><path d="M760.50582,1226.00154c-0.3228,0.38184 -0.3228,0.38184 -0.3228,0.38184c-10.65338,12.60172 -20.77504,25.66701 -31.95734,37.80183c-4.3963,4.77079 -9.05105,9.38071 -14.49601,12.90779c-5.44496,3.52708 -11.76561,5.9374 -18.25313,5.93638c-3.24376,-0.00051 -6.49893,-0.60913 -9.47518,-1.89905c-2.97625,-1.28992 -5.66714,-3.26965 -7.68689,-5.80787c-2.01975,-2.53823 -3.353,-5.63859 -3.68185,-8.86564c-0.32885,-3.22705 0.36671,-6.56952 2.06194,-9.33505c2.20346,-3.59464 5.92817,-6.03769 9.85978,-7.56054c3.93162,-1.52285 8.1211,-2.24366 12.28233,-2.9225c8.32246,-1.35769 16.5493,-3.28345 24.49389,-6.11015c0.47107,-0.16761 0.47107,-0.16761 0.47107,-0.16761" stroke="#ff0000"></path><g stroke="#ff0000"><line x1="760.50582" y1="1226.00154" x2="723.80162" y2="1240.36097"></line><polyline points="726.15873,1230.64273 723.80162,1240.36097 732.12759,1245.89976"></polyline></g><polyline points="755.33246,1221.90771 755.46916,1221.51702 756.05138,1220.21092" stroke="#000000"></polyline><path d="M755.33246,1221.90771c-0.16513,0.47194 -0.16513,0.47194 -0.16513,0.47194c-5.44969,15.57521 -11.48215,30.95515 -16.34799,46.72251c-17.78703,57.63752 -13.68826,121.75458 11.35166,176.6314c25.03992,54.87682 70.80429,100.00519 126.05198,124.21583c55.24769,24.21064 119.47208,27.26634 176.7487,8.34936c57.27661,-18.91699 107.0634,-59.64238 136.90355,-112.06402c29.84015,-52.42164 39.43782,-116.04828 26.32581,-174.92559c-13.112,-58.87731 -48.82134,-112.43571 -98.16686,-147.12695c-49.34552,-34.69125 -111.85472,-50.16577 -171.67735,-42.43814c-59.82262,7.72764 -116.3669,38.59544 -155.17097,84.77668c-10.61531,12.63342 -20.24812,26.05643 -30.37324,39.08601c-0.3068,0.39481 -0.3068,0.39481 -0.3068,0.39481" stroke="#ff0000"></path><g stroke="#ff0000"><line x1="755.33246" y1="1221.90771" x2="760.50582" y2="1226.00154"></line><polyline points="750.9248,1228.86584 760.50582,1226.00154 761.09115,1216.01869"></polyline></g><polyline points="689.51121,1219.07953 689.7483,1218.99205 690.57074,1219.07629 691.77049,1219.14755 693.26979,1219.30509 694.9884,1219.62847 696.85148,1220.20066 698.7911,1221.10156 700.76387,1222.38761 702.73514,1224.15348 704.88394,1226.68895 707.55928,1229.65671 710.81133,1232.16166 714.35303,1234.02926 718.06598,1235.32745 721.83609,1236.34771 725.62736,1237.10507 729.37658,1237.71752 728.28724,1238.76497 723.80162,1240.36097" stroke="#000000"></polyline><path d="M689.51121,1219.07953c-0.46909,0.17308 -0.46909,0.17308 -0.46909,0.17308c-15.48043,5.71191 -31.12165,11.00083 -46.43961,17.13512c-65.24149,26.12686 -121.99189,73.21915 -159.20922,132.83404c-37.21732,59.61489 -54.61565,131.47669 -48.20912,201.46255c6.40652,69.98586 36.67998,137.65923 85.00689,188.68446c48.3269,51.02524 114.45717,84.98295 184.16062,93.95474c69.70345,8.97179 142.47112,-7.2209 201.48218,-45.3884c59.01107,-38.1675 103.71244,-98.09204 122.9303,-165.69188c19.21786,-67.59984 12.65833,-142.29117 -18.56076,-205.25491c-31.21909,-62.96374 -86.89962,-113.51071 -152.78064,-137.98019c-15.4684,-5.74526 -31.30301,-10.4433 -46.95579,-15.66537c-0.4743,-0.15824 -0.4743,-0.15824 -0.4743,-0.15824" stroke="#ff0000"></path><g stroke="#ff0000"><line x1="689.51121" y1="1219.07953" x2="809.99268" y2="1283.18453"></line><polyline points="801.08133,1287.72191 809.99268,1283.18453 808.7768,1273.25872"></polyline></g><polygon points="585.07057,1306.05331 592.61188,1314.59064 604.26213,1327.19103 619.26977,1342.52199 636.88325,1359.25105 656.35101,1376.04565 676.9215,1391.57349 697.84317,1404.50211 718.36442,1413.49893 737.73373,1417.23148 754.96926,1416.36784 769.94026,1412.61933 783.17185,1406.219 795.1891,1397.39999 806.51721,1386.39515 817.68115,1373.43764 829.20615,1358.76031 841.61725,1342.5964 855.43958,1325.17867 871.19826,1306.74036 871.64736,1317.06475 873.1499,1326.65071 875.44672,1335.41618 878.27842,1343.27902 881.38586,1350.15744 884.50969,1355.96911 887.39069,1360.63216 889.76952,1364.06452 891.38697,1366.18405 891.98371,1366.90888 892.90812,1367.61445 895.17812,1369.92822 898.03882,1374.14547 900.73549,1380.56157 902.5132,1389.472 902.61716,1401.17201 900.29244,1415.95699 894.78426,1434.1224 885.33782,1455.96361 871.19826,1481.7758 847.84851,1503.40747 822.50341,1519.67969 795.76015,1531.00945 768.21615,1537.81337 740.46865,1540.50835 713.11502,1539.51119 686.7525,1535.2387 661.9784,1528.10768 639.39008,1518.53485 619.58483,1506.9371 603.30378,1494.50848 590.61647,1482.27022 581.11257,1470.37994 574.38193,1458.99494 570.01425,1448.27291 567.5993,1438.37138 566.72684,1429.44792 566.98666,1421.65988 567.96852,1415.16502 569.26214,1410.12067 570.69305,1405.00692 572.30777,1398.28827 574.02749,1390.09938 575.77347,1380.5747 577.46694,1369.8489 579.02911,1358.05635 580.38128,1345.33188 581.44458,1331.80979 582.14038,1317.6248 582.38981,1302.9114" stroke="#000000"></polygon><path d="M686.7525,1535.2387c-0.49356,-0.07999 -0.49356,-0.07999 -0.49356,-0.07999c-7.59177,-1.23038 -15.22092,-2.58917 -22.38975,-5.37428c-7.16883,-2.7851 -13.81036,-6.97366 -19.25291,-12.40758c-5.44255,-5.43393 -9.64895,-12.02806 -12.77118,-19.05661c-3.12224,-7.02855 -5.20188,-14.47017 -7.0901,-21.9256c-3.77644,-14.91087 -7.43121,-30.30497 -16.40186,-42.79989c-4.48532,-6.24746 -10.14875,-11.6289 -16.54806,-15.89478c-6.39931,-4.26588 -13.48522,-7.3748 -20.57336,-10.35928c-0.46082,-0.19403 -0.46082,-0.19403 -0.46082,-0.19403" stroke="#ff0000"></path><g stroke="#ff0000"><line x1="686.7525" y1="1535.2387" x2="570.77091" y2="1407.14666"></line><polyline points="580.69294,1405.90035 570.77091,1407.14666 568.54852,1416.89658"></polyline></g><polyline points="688.60729,1469.73981 683.21221,1468.18688 667.92177,1461.70686" stroke="#000000"></polyline><path d="M688.60729,1469.73981c0.48049,0.13831 0.48049,0.13831 0.48049,0.13831c7.88604,2.26993 15.75452,4.64356 23.78883,6.31452c8.03431,1.67095 16.24191,2.32785 24.4427,2.6268c0.49967,0.01822 0.49967,0.01822 0.49967,0.01822" stroke="#ff0000"></path><g stroke="#ff0000"><line x1="688.60729" y1="1469.73981" x2="737.81898" y2="1478.83765"></line><polyline points="730.68965,1485.84997 737.81898,1478.83765 733.66794,1469.73991"></polyline></g><polyline points="807.49936,1062.27358 808.7348,1064.81681 810.12908,1067.14003 811.65872,1069.23321 813.3004,1071.08627 815.03075,1072.6889 816.82634,1074.03129 818.66382,1075.10315 820.51985,1075.89455 822.37097,1076.39521 824.19386,1076.5952 827.28638,1076.27292 830.17215,1075.23846 832.82751,1073.63545 835.22872,1071.60742 837.35208,1069.29809 839.17392,1066.85117 840.67056,1064.41021 841.81829,1062.119 842.5934,1060.121 842.9722,1058.56001" stroke="#000000"></polyline><path d="M842.9722,1058.56001c0.11791,-0.4859 0.11791,-0.4859 0.11791,-0.4859c1.98426,-8.17696 3.3601,-16.49623 3.97412,-24.88807c0.30701,-4.19592 0.54076,-8.40433 1.1839,-12.56202c0.64314,-4.15769 1.72369,-8.2979 3.75808,-11.98046c3.05647,-5.53267 8.28591,-9.82641 14.30768,-11.74753c6.02177,-1.92112 12.77165,-1.44911 18.46741,1.29147c5.69576,2.74058 10.27663,7.72051 12.53297,13.62486c2.25634,5.90435 2.16405,12.67015 -0.25256,18.51073c-1.60852,3.88755 -4.16996,7.31515 -7.018,10.41176c-2.84804,3.09661 -5.99119,5.90487 -9.07888,8.76259c-6.17537,5.71543 -11.81873,11.98099 -16.97121,18.6333c-0.30617,0.3953 -0.30617,0.3953 -0.30617,0.3953" stroke="#ff0000"></path><g stroke="#ff0000"><line x1="842.9722" y1="1058.56001" x2="863.68745" y2="1068.52604"></line><polyline points="854.96744,1073.42108 863.68745,1068.52604 862.07004,1058.65771"></polyline></g><polyline points="584.80087,1306.28745 592.3469,1314.83012 603.74458,1327.68342 618.51777,1343.28542 635.92422,1360.31041 655.22867,1377.4358 675.70721,1393.34819 696.67362,1406.73037 717.50529,1416.2589 737.50533,1420.48198 755.5012,1419.94301 771.29748,1416.36137 785.40996,1409.93741 798.22462,1400.98923 810.20205,1389.86617 821.8716,1376.88507 833.78142,1362.31296 846.47758,1346.39048 860.49194,1329.34013 865.69993,1323.82958 865.99298,1328.14531 868.10383,1337.69544 870.80302,1346.30822 873.8155,1353.8965 876.86908,1360.37755 879.69464,1365.67153 882.02018,1369.70221 883.57663,1372.37578 884.75353,1374.41044 885.78406,1375.68086 886.53439,1377.00344 887.86622,1379.66268 889.29416,1384.06825 890.22086,1390.74141 889.90839,1400.23576 887.49566,1413.02563 882.09427,1429.47133 872.83937,1449.85392 859.77389,1472.86604 838.80625,1491.73221 815.41901,1506.26039 790.83826,1516.22891 765.52028,1522.06081 739.97402,1524.13022 714.76721,1522.80122 690.51382,1518.45536 667.86061,1511.50835 647.47823,1502.42527 629.85366,1491.62956 615.58419,1480.21234 604.86292,1469.29162 597.32326,1459.19144 592.41304,1450.05309 589.57433,1441.9419 588.28953,1434.85501 588.12686,1428.76167 588.72836,1423.65907 589.77818,1419.5983 591.1489,1415.98849 593.05072,1410.81948 595.27107,1403.45779 597.55315,1394.72511 599.84818,1384.68118 602.08596,1373.42251 603.93908,1362.89487 619.56222,1378.38408 639.83808,1396.49878 661.80257,1413.66991 685.16324,1428.66021 710.08375,1440.10077 735.74553,1445.52629 759.20305,1444.82317 779.91578,1440.12328 798.48716,1431.66398 814.63797,1420.39659 828.75371,1407.3413 841.63368,1393.14308 854.09338,1378.08498 857.9515,1373.88127 860.18449,1378.44676 863.07028,1383.48837 865.12424,1387.0041 868.226,1391.55831 868.03493,1393.03253 867.5741,1398.59041 865.57735,1408.0048 860.89145,1421.70018 852.44676,1439.88528 841.55655,1458.65851 824.69957,1473.51783 804.59808,1485.76331 783.46861,1494.09773 761.5607,1498.92416 739.26095,1500.51917 717.1064,1499.14298 695.74962,1495.09277 675.91523,1488.77861 658.37829,1480.71508 643.48,1471.31705 631.62646,1461.53685 623.21332,1452.57429 617.92026,1444.97556 615.0065,1438.84872 613.75341,1434.11585 613.54658,1430.5625 613.93368,1427.9341 614.6382,1426.04153 615.48759,1424.82429 616.69469,1422.83729 618.89826,1417.53934 620.90659,1412.15473 624.17871,1415.8947 647.58088,1434.45501 673.31972,1451.22477 702.40224,1464.77784 733.91346,1471.59901 763.08956,1470.94451 789.03939,1465.27842 812.45843,1454.87596 823.12638,1448.0808 812.04195,1457.17447 794.77642,1467.15906 776.67501,1473.69642 738.60702,1478.86638 737.81898,1478.83765" stroke="#000000"></polyline><path d="M584.80087,1306.28745c-0.33102,-0.37474 -0.33102,-0.37474 -0.33102,-0.37474c-0.24401,-0.27624 -0.48513,-0.55982 -0.65616,-0.88631c-0.17102,-0.32649 -0.26934,-0.69179 -0.27568,-1.06031c-0.00634,-0.36852 0.07711,-0.7349 0.21226,-1.0778c0.13515,-0.3429 0.31958,-0.6638 0.50201,-0.98406c0.18243,-0.32026 0.36305,-0.64369 0.49001,-0.98971c0.12696,-0.34602 0.19754,-0.71585 0.17481,-1.08372c-0.02273,-0.36787 -0.14069,-0.72797 -0.33072,-1.04378c-0.19003,-0.31581 -0.44907,-0.58338 -0.71044,-0.84325c-0.35457,-0.35254 -0.35457,-0.35254 -0.35457,-0.35254" stroke="#ff0000"></path><g stroke="#ff0000"><line x1="584.80087" y1="1306.28745" x2="583.52139" y2="1297.59123"></line><polyline points="592.46058,1302.07351 583.52139,1297.59123 576.25204,1304.45829"></polyline></g><polyline points="601.99619,1060.97539 601.92782,1063.35611 602.09373,1066.03399 602.52503,1068.87883 603.25288,1071.76001 604.30845,1074.54706 605.72289,1077.10955 607.52736,1079.317 609.75303,1081.03889 612.43101,1082.14484 615.59251,1082.50423 620.08218,1081.91953 623.81412,1080.47412 626.85541,1078.38537 629.27329,1075.87037 631.13489,1073.14631 632.5074,1070.43056 633.45801,1067.94021 634.05381,1065.89244 634.36207,1064.50445 634.44988,1063.99359" stroke="#000000"></polyline><path d="M601.99619,1060.97539c0.01435,-0.49979 0.01435,-0.49979 0.01435,-0.49979c0.47373,-16.49665 2.03682,-32.98765 1.42088,-49.4796c-1.03492,-27.70994 -10.51639,-55.08301 -27.04121,-77.35052c-16.52482,-22.26751 -40.04795,-39.30677 -66.43361,-47.83374c-26.38565,-8.52697 -55.51132,-8.46091 -81.78083,0.41741c-26.26951,8.87832 -49.51909,26.55725 -64.89331,49.63419c-15.37422,23.07694 -22.73807,51.42804 -20.29567,79.04953c2.44239,27.62149 14.71938,54.31148 34.27543,73.97038c19.55605,19.65891 46.26964,32.09591 73.92148,34.16655c27.65184,2.07065 56.00121,-6.29408 77.9541,-23.23464c13.06712,-10.08361 24.366,-22.24726 36.555,-33.37637c0.36924,-0.33714 0.36924,-0.33714 0.36924,-0.33714" stroke="#ff0000"></path><g stroke="#ff0000"><line x1="601.99619" y1="1060.97539" x2="566.06204" y2="1066.10165"></line><polyline points="570.58345,1057.18218 566.06204,1066.10165 572.89718,1073.40102"></polyline></g><polyline points="769.31378,1088.63846 788.84604,1080.61283 789.22172,1080.76968 790.30868,1081.19546 792.04658,1081.82302 794.37504,1082.58506 797.2338,1083.41451 800.56253,1084.24416 804.30094,1085.00676 808.38863,1085.63527 812.76537,1086.06247 817.37086,1086.22111 825.77175,1086.03952 832.96013,1085.49052 839.07648,1084.57947 844.26152,1083.31197 848.65582,1081.69347 852.39999,1079.72937 855.63462,1077.42513 858.50033,1074.78615 861.1377,1071.81799 863.68745,1068.52604" stroke="#000000"></polyline><path d="M769.31378,1088.63846c-0.46248,0.19003 -0.46248,0.19003 -0.46248,0.19003c-8.09615,3.32664 -15.80683,7.55845 -22.8322,12.7794c-3.51269,2.61047 -6.96989,5.32388 -10.77311,7.48932c-3.80321,2.16544 -8.05538,3.77148 -12.43149,3.71469c-2.89595,-0.03759 -5.77249,-0.81682 -8.31953,-2.19541c-2.54704,-1.37859 -4.76351,-3.35027 -6.47677,-5.68537c-3.42652,-4.67021 -4.75213,-10.73221 -4.02318,-16.47855c0.72896,-5.74634 3.426,-11.15916 7.24403,-15.51512c3.81804,-4.35596 8.72021,-7.68743 14.00141,-10.06665c7.20595,-3.24635 15.02482,-4.83832 22.62328,-7.01271c7.59846,-2.17438 14.9512,-5.12268 22.13817,-8.41084c0.45467,-0.20802 0.45467,-0.20802 0.45467,-0.20802" stroke="#ff0000"></path><g stroke="#ff0000"><line x1="769.31378" y1="1088.63846" x2="770.4566" y2="1047.23922"></line><polyline points="778.48672,1053.19884 770.4566,1047.23922 762.10992,1052.74676"></polyline></g><polygon points="20,1193.64558 23.34949,1194.90185 32.6863,1198.31165 46.94291,1203.33664 65.05182,1209.43848 85.94553,1216.07866 108.55654,1222.71885 131.81733,1228.82069 154.66039,1233.84568 176.01824,1237.25548 194.82335,1238.51175 212.74816,1237.9161 231.84258,1236.34585 251.60536,1234.12566 271.53522,1231.58073 291.1309,1229.0357 309.89116,1226.81561 327.3147,1225.24527 342.90028,1224.64962 356.14663,1225.35358 366.55248,1227.68198 379.37029,1234.34228 398.918,1246.80423 423.29272,1263.53622 450.59147,1283.00663 478.91129,1303.68373 506.34925,1324.036 531.00248,1342.53162 550.96793,1357.63916 564.34267,1367.82691 569.2238,1371.56315 570.77091,1407.14666 541.37583,1394.76979 541.37583,1428.80619 648.12637,1575.78157 648.12637,1608.27087 476.39724,1428.80619 474.43396,1428.44727 468.85973,1427.41999 460.14794,1425.79866 448.77205,1423.65741 435.20546,1421.07064 419.92157,1418.11259 403.3938,1414.85747 386.09557,1411.37959 368.5003,1407.75317 351.08139,1404.05244 333.12873,1400.80818 314.02503,1398.52 294.38292,1397.21576 274.81509,1396.92341 255.93417,1397.67062 238.35282,1399.48543 222.6837,1402.39551 209.53945,1406.42882 199.53275,1411.6132 193.27624,1417.97643 188.98302,1425.95484 184.55054,1435.5764 180.11808,1446.25602 175.82485,1457.40921 171.8101,1468.45087 168.21307,1478.7964 165.173,1487.86093 162.82913,1495.05965 161.3207,1499.80769 160.78695,1501.52033 160.9695,1499.07898 161.50481,1492.38621 162.37428,1482.38883 163.55936,1470.03358 165.0415,1456.26738 166.80211,1442.03707 168.82263,1428.28948 171.08451,1415.97134 173.56916,1406.02967 176.25804,1399.41111 180.55127,1393.77659 187.58288,1386.45256 196.93516,1377.88463 208.19037,1368.51841 220.93082,1358.7995 234.73877,1349.17341 249.19651,1340.08565 263.88631,1331.98193 278.39046,1325.30766 292.29123,1320.50854 304.57991,1317.41432 314.66863,1315.43407 322.77084,1314.38195 329.10007,1314.07261 333.8698,1314.3201 337.29355,1314.93899 339.58482,1315.74342 340.95709,1316.54795 341.6239,1317.16683 341.79873,1317.41432 340.20056,1315.89819 335.69693,1311.78282 328.72411,1305.71818 319.71838,1298.35392 309.11605,1290.33991 297.35338,1282.3259 284.86666,1274.96164 272.09218,1268.897 259.46621,1264.78163 247.42507,1263.2655 237.03469,1263.61979 228.72361,1264.61459 221.97203,1266.14782 216.2601,1268.11721 211.068,1270.42088 205.87589,1272.95655 200.16397,1275.62226 193.41239,1278.31582 185.10131,1280.93506 174.71093,1283.37792 161.98286,1284.37423 147.33328,1282.80861 131.25418,1278.81091 114.23752,1272.51104 96.7753,1264.03905 79.35949,1253.52487 62.48208,1241.09851 46.63503,1226.88992 32.31035,1211.02893" stroke="#000000"></polygon><path d="M570.77091,1407.14666c0.02172,0.49953 0.02172,0.49953 0.02172,0.49953c0.35959,8.27047 1.08676,16.51942 2.04175,24.74243c0.955,8.22301 1.94621,16.63915 0.10839,24.71085c-2.55986,11.24291 -10.84916,20.8019 -21.19508,25.89286c-10.34592,5.09096 -22.5245,5.9078 -33.75715,3.30325c-11.23265,-2.60455 -21.5479,-8.47725 -30.30377,-15.97998c-8.75586,-7.50272 -16.02386,-16.60651 -22.40262,-26.21211c-12.75751,-19.2112 -22.15019,-40.59877 -36.06019,-58.99269c-6.955,-9.19696 -15.06753,-17.63175 -24.67488,-24.00786c-9.60736,-6.37611 -20.78278,-10.63272 -32.30226,-11.14016c-8.25386,-0.36359 -16.46611,1.11789 -24.6004,2.56421c-8.13429,1.44632 -16.29438,2.74621 -24.48746,3.81012c-0.49584,0.06439 -0.49584,0.06439 -0.49584,0.06439" stroke="#ff0000"></path><g stroke="#ff0000"><line x1="570.77091" y1="1407.14666" x2="322.66313" y2="1356.4015"></line><polyline points="329.92398,1349.52546 322.66313,1356.4015 326.64114,1365.57622"></polyline></g><polyline points="197.90994,1379.00087 209.11391,1369.67729 222.08754,1360.38518 236.0934,1351.21868 250.69643,1342.63017 265.45322,1335.08432 279.88066,1329.01868 293.5847,1324.85021 305.68783,1322.36315 315.57154,1320.97699 323.32059,1320.54368 329.08992,1320.83056 333.02598,1321.60375 335.2627,1322.6277 335.88481,1323.50851 428.59087,1410.42649 421.80933,1408.44388 405.44491,1404.5504 388.33053,1400.40114 370.93749,1396.10737 353.52683,1391.6097 335.12776,1387.49086 315.3521,1384.25396 295.00102,1382.00783 274.61677,1380.81032 254.71909,1380.63548 235.7652,1381.54477 220.32263,1383.3533 232.89093,1375.19496 246.57324,1367.04171 260.686,1359.57692 274.62626,1353.2463 287.79085,1348.71732 299.88864,1346.01 310.7112,1344.80144 319.44969,1344.78468 325.56252,1345.67156 349.48673,1369.91305 338.4134,1365.60242 317.55376,1360.58605 321.36937,1356.5695 322.66313,1356.4015" stroke="#000000"></polyline><path d="M197.90994,1379.00087c-0.38433,0.31983 -0.38433,0.31983 -0.38433,0.31983c-4.58972,3.81942 -9.17538,7.94178 -11.70033,13.3527c-1.26248,2.70546 -1.99985,5.66417 -2.06521,8.64898c-0.06536,2.98481 0.54318,5.9813 1.76056,8.70735c2.43477,5.4521 7.27659,9.59895 12.74586,11.9949c5.46927,2.39594 11.48313,3.19932 17.41487,3.88329c81.84073,9.43676 165.18673,4.82493 245.74384,-12.42354c5.76184,-1.23369 11.59139,-2.58361 16.75509,-5.42209c5.1637,-2.83848 9.57135,-7.30857 11.55312,-12.85775c1.98176,-5.54918 1.32707,-11.91034 -1.49552,-17.08275c-2.82259,-5.1724 -7.56615,-8.97408 -12.29876,-12.48452c-0.40158,-0.29788 -0.40158,-0.29788 -0.40158,-0.29788" stroke="#ff0000"></path><g stroke="#ff0000"><line x1="197.90994" y1="1379.00087" x2="475.53754" y2="1365.33939"></line><polyline points="470.21131,1373.80291 475.53754,1365.33939 469.40611,1357.43967"></polyline></g><polyline points="213.54974,1253.03745 210.71251,1254.01569 204.19399,1255.66467 198.32389,1257.14037 192.6538,1258.25385 186.5314,1259.01414 171.27458,1261.3157 162.29978,1262.01822" stroke="#000000"></polyline><path d="M213.54974,1253.03745c0.47269,-0.16298 0.47269,-0.16298 0.47269,-0.16298c20.99562,-7.23899 42.18085,-14.27445 64.10395,-17.82368c21.92309,-3.54924 44.47531,-3.5926 66.26722,0.68896c43.58382,8.56311 81.85837,34.67096 113.86945,65.46328c32.01108,30.79232 60.18679,65.58571 94.2202,94.12697c34.03341,28.54126 74.08205,48.85016 114.97816,66.18176c0.46036,0.1951 0.46036,0.1951 0.46036,0.1951" stroke="#ff0000"></path><g stroke="#ff0000"><line x1="213.54974" y1="1253.03745" x2="667.92177" y2="1461.70686"></line><polyline points="659.29074,1466.75713 667.92177,1461.70686 666.12806,1451.86905"></polyline></g><polyline points="20.5354,1194.0583 23.28062,1195.08793 32.55174,1198.68666 46.74684,1203.90547 64.8014,1210.20348 85.6503,1217.04444 108.19044,1224.03604 131.41201,1230.50217 154.2705,1235.90154 175.74244,1239.69646 194.77614,1241.33113 212.9313,1241.09034 232.18542,1239.8705 252.07047,1238.00117 272.08005,1235.81132 291.70153,1233.63368 310.40956,1231.78998 327.65838,1230.60452 342.85752,1230.39155 355.31245,1231.42162 364.3167,1233.81314 375.94871,1240.2716 394.9375,1252.81974 418.94366,1269.75132 445.93423,1289.46025 473.97295,1310.39411 501.14434,1331.01323 525.53634,1349.78641 545.24627,1365.17562 558.37026,1375.64852 559.22094,1376.77669 559.45508,1390.88225 530.39838,1378.23686 530.01959,1432.49513 634.70325,1577.26937 482.43919,1417.59025 476.69254,1416.14257 471.20902,1414.7348 462.59322,1412.734 461.53076,1412.12371 349.80784,1305.57974 345.52901,1300.75451 338.69782,1293.8927 329.72293,1285.63095 318.98539,1276.59303 306.81704,1267.41289 293.51926,1258.66329 279.21929,1251.00961 293.59684,1248.90551 312.05604,1247.58912 328.70687,1246.95399 342.73174,1247.28068 352.93486,1248.71703 358.12475,1250.79326 366.68501,1256.32487 384.37213,1268.7866 407.58457,1285.98422 433.94933,1306.06794 461.43754,1327.42763 488.09889,1348.50079 509.71742,1366.1403 508.58106,1415.00485 493.31277,1397.40514 480.76498,1393.95599 475.45256,1391.82146 472.78859,1390.05421 366.57589,1287.57043 362.28681,1281.95784 355.29207,1274.21749 349.4558,1267.65086 374.64397,1283.48824 396.97316,1301.14864 422.26536,1322.25864 448.36835,1345.18648 475.53754,1365.33939" stroke="#000000"></polyline><path d="M20.5354,1194.0583c-0.46815,-0.17559 -0.46815,-0.17559 -0.46815,-0.17559c-7.75033,-2.90686 -15.36807,-6.15192 -22.89194,-9.60282c-7.52388,-3.4509 -15.21526,-6.99442 -23.45539,-7.78035c-5.89935,-0.56267 -11.92428,0.38553 -17.40632,2.63632c-5.48204,2.2508 -10.41677,5.79243 -14.38266,10.1959c-7.9318,8.80694 -11.78109,20.96779 -11.15315,32.80338c0.62794,11.83559 5.56222,23.27193 13.13052,32.39313c7.5683,9.1212 17.67463,15.98063 28.65873,20.43316c21.96821,8.90505 46.68025,8.21403 70.0769,4.40626c23.39665,-3.80777 46.2788,-10.57298 69.80833,-13.44758c16.37971,-2.0011 32.89787,-2.57514 49.34904,-3.86288c0.49848,-0.03902 0.49848,-0.03902 0.49848,-0.03902" stroke="#ff0000"></path><g stroke="#ff0000"><line x1="20.5354" y1="1194.0583" x2="162.29978" y2="1262.01822"></line><polyline points="153.58658,1266.92536 162.29978,1262.01822 160.66866,1252.15214"></polyline></g><polygon points="769.57445,1780 990.81108,1404.05244 942.85069,1396.3169 944.30422,1394.15865 948.63073,1387.96256 955.77912,1378.14611 965.69841,1365.12721 978.33751,1349.32345 993.64534,1331.15266 1011.57099,1311.0325 1032.0632,1289.38071 1055.07107,1266.61496 1080.54342,1243.15308 1106.21302,1221.59949 1129.95186,1204.0236 1151.91771,1190.04003 1172.26847,1179.26362 1191.16173,1171.30919 1208.75547,1165.79147 1225.20739,1162.32511 1240.67546,1160.52503 1255.31729,1160.00606 1269.29075,1160.38273 1281.20814,1161.92446 1290.09004,1164.91886 1296.70709,1169.00864 1301.82953,1173.83637 1306.22799,1179.04474 1310.67281,1184.27633 1315.93453,1189.17366 1322.78358,1193.37948 1331.99041,1196.5364 1344.32555,1198.28691 1360.3838,1199.01712 1379.50066,1199.39464 1400.55755,1199.48435 1422.43597,1199.3513 1444.01741,1199.06046 1464.18318,1198.6768 1481.81488,1198.26528 1495.79373,1197.89088 1505.00141,1197.61855 1508.31914,1197.51335 1506.03719,1199.13865 1499.71721,1203.55325 1490.14835,1210.06586 1478.11953,1217.98469 1464.41991,1226.61835 1449.83842,1235.27523 1435.16412,1243.26375 1421.18593,1249.89231 1408.693,1254.46943 1398.47438,1256.30351 1390.38066,1256.19982 1383.38695,1255.38142 1376.96876,1253.78332 1370.60167,1251.34037 1363.76111,1247.98779 1355.92264,1243.66053 1346.56189,1238.29362 1335.15432,1231.82209 1321.17538,1224.18087 1304.10071,1215.30511 1288.06258,1216.59622 1271.40717,1222.1062 1254.67754,1230.80944 1238.41665,1241.68028 1223.16756,1253.69276 1209.47332,1265.82129 1197.87698,1277.04019 1188.92152,1286.3236 1183.14998,1292.64584 1181.10552,1294.98124 1183.55149,1295.1429 1190.27675,1295.62486 1200.36242,1296.4224 1212.88934,1297.53089 1226.93863,1298.94571 1241.59132,1300.66222 1255.92833,1302.6758 1269.03079,1304.98174 1279.97972,1307.57549 1287.85606,1310.45233 1293.89134,1313.69896 1300.02869,1317.67428 1306.41675,1322.78199 1313.20386,1329.42604 1320.53875,1338.01021 1328.56976,1348.93828 1337.44552,1362.61392 1347.31458,1379.441 1358.32536,1399.82339 1370.62641,1424.16486 1337.73872,1412.21273 1306.2667,1405.22203 1276.04774,1402.63139 1246.91952,1403.87917 1218.71962,1408.40369 1191.28553,1415.64339 1164.45474,1425.03662 1138.06493,1436.02191 1111.95359,1448.0375 1085.9583,1460.52193 1061.00805,1473.57718 1037.47809,1488.28945 1014.37513,1505.57299 990.70589,1526.34216 965.47716,1551.5113 937.69577,1581.99475 906.36832,1618.70687 870.50166,1662.562 829.10256,1714.47448 781.17777,1775.35867" stroke="#000000"></polygon><path d="M993.64534,1331.15266c0.32214,-0.38239 0.32214,-0.38239 0.32214,-0.38239c10.63229,-12.62081 20.57635,-25.84506 31.89216,-37.85683c38.13187,-40.47711 94.32884,-59.54655 149.61791,-65.50932c55.28907,-5.96277 111.07539,-0.3113 166.67195,0.89646c16.49617,0.35836 32.99723,0.4227 49.49594,0.63405c0.49996,0.0064 0.49996,0.0064 0.49996,0.0064" stroke="#ff0000"></path><g stroke="#ff0000"><line x1="993.64534" y1="1331.15266" x2="1392.14541" y2="1228.94103"></line><polyline points="1388.62466,1238.30075 1392.14541,1228.94103 1384.55431,1222.4314"></polyline></g><polyline points="1330.09447,1211.67319 1342.90431,1213.49106 1359.8479,1215.45324 1379.289,1217.02787 1400.57475,1218.36857 1422.6342,1219.62333 1430.60959,1220.98657 1412.12492,1228.28021 1402.08391,1230.05721 1396.21913,1228.99321 1392.14541,1228.94103" stroke="#000000"></polyline><path d="M1330.09447,1211.67319c-0.49504,-0.07025 -0.49504,-0.07025 -0.49504,-0.07025c-16.3424,-2.31919 -32.5259,-6.08236 -49.00896,-6.95497c-33.84242,-1.79163 -67.01702,13.05796 -92.94646,34.87959c-25.92945,21.82163 -45.4646,50.2052 -62.96296,79.22807c-8.51951,14.1305 -16.73673,28.44074 -25.10517,42.66123c-0.25359,0.43092 -0.25359,0.43092 -0.25359,0.43092" stroke="#ff0000"></path><g stroke="#ff0000"><line x1="1330.09447" y1="1211.67319" x2="1099.3223" y2="1361.84778"></line><polyline points="1099.66187,1351.85355 1099.3223,1361.84778 1108.59766,1365.58511"></polyline></g></g></svg>