<svg x="0" y="0" width="2640.73679" height="318.13601" version="1.1" xmlns="http://www.w3.org/2000/svg" xmlns:xlink="http://www.w3.org/1999/xlink"><g fill="none" stroke="none" stroke-width="2" stroke-linecap="butt" stroke-linejoin="miter" stroke-miterlimit="10" stroke-dasharray="" stroke-dashoffset="0" font-family="sans-serif" font-weight="normal" font-size="12" text-anchor="start" mix-blend-mode="normal"><polyline points="343.28657,803.08464 419.69458,948.35417 420.82704,951.34088 424.06062,959.61925 429.14979,972.16654 435.84897,987.96009 443.91262,1005.97725 453.09516,1025.19538 463.15096,1044.59173 473.83453,1063.14375 484.90025,1079.82858 496.10258,1093.62379 504.44371,1102.79207 512.78212,1112.25902 521.17006,1121.88726 529.65979,1131.53927 538.30361,1141.07765 547.15384,1150.3649 556.26267,1159.26352 565.68243,1167.63611 575.4654,1175.34515 585.6638,1182.25316 596.5571,1188.55756 608.28199,1194.50473 620.67632,1200.03049 633.57826,1205.07072 646.82584,1209.56124 660.25698,1213.43785 673.70972,1216.63657 687.02219,1219.09308 700.03231,1220.74331 712.5781,1221.52315 726.03094,1221.16295 740.0227,1219.49667 754.37832,1216.68422 768.92246,1212.88557 783.48007,1208.26032 797.87601,1202.96856 811.93523,1197.16988 825.48238,1191.02438 838.34251,1184.69174 850.34038,1178.33196 861.28895,1171.80684 871.23033,1164.87387 880.33322,1157.53632 888.76624,1149.79756 896.69798,1141.66065 904.29717,1133.12906 911.7325,1124.20588 919.17248,1114.89435 926.78583,1105.19786 934.74115,1095.11968 944.23951,1082.38159 954.85374,1066.84561 966.09366,1049.48644 977.46911,1031.27897 988.4901,1013.19801 998.66626,996.21845 1007.50762,981.3152 1014.52401,969.46305 1019.22514,961.63691 1021.12105,958.81158 1094.16044,823.83749" stroke="#000000"></polyline><path d="M343.28657,803.08464c-0.23275,-0.44252 -0.23275,-0.44252 -0.23275,-0.44252c-3.85779,-7.33456 -8.08624,-14.46591 -12.53686,-21.45664c-4.45062,-6.99073 -9.04264,-14.19595 -10.50587,-22.35298c-1.05505,-5.88156 -0.33503,-12.04571 1.88261,-17.5944c2.21765,-5.54868 5.90941,-10.47705 10.4977,-14.30503c9.17659,-7.65595 21.72465,-10.68404 33.60603,-9.3971c11.88138,1.28694 23.09311,6.62383 32.52463,13.96343c9.43152,7.3396 17.19178,16.62576 23.99752,26.44947c13.61148,19.64742 23.7915,41.82497 40.04865,59.34634c8.12857,8.76069 17.80916,16.28224 28.92047,20.68248c11.11131,4.40024 23.73844,5.50786 35.08839,1.76593c7.85222,-2.58877 14.81964,-7.26833 21.69433,-11.86157c6.87468,-4.59323 13.85065,-9.03427 20.97822,-13.22435c0.43104,-0.25339 0.43104,-0.25339 0.43104,-0.25339" stroke="#ff0000"></path><g stroke="#ff0000"><line x1="343.28657" y1="803.08464" x2="569.68069" y2="814.40431"></line><polyline points="563.54302,822.29918 569.68069,814.40431 564.36115,805.93658"></polyline></g><polyline points="569.68069,814.40431 571.03724,813.60684 574.8243,811.40779 580.61807,808.09694 587.9948,803.96444 596.5306,799.29996 605.8017,794.39366 615.38427,789.53541 624.85459,785.01517 633.78868,781.12281 641.76292,778.14828 648.93741,775.94606 656.5043,773.9282 664.39701,772.11274 672.54908,770.51739 680.89402,769.1601 689.36527,768.0589 697.89636,767.2315 706.42071,766.69596 714.87196,766.47019 723.18342,766.57193 732.18536,767.01505 741.06764,767.7511 749.86531,768.78891 758.61335,770.13748 767.34703,771.80573 776.10111,773.80259 784.91087,776.13696 793.81127,778.81776 802.83739,781.854 812.02429,785.25461 818.50185,788.13889 825.4167,791.84561 832.5052,796.10937 839.50375,800.66518 846.14884,805.24763 852.17685,809.59163 857.32417,813.43199 861.32719,816.5034 863.9223,818.54077 864.84589,819.27881" stroke="#000000"></polyline><path d="M864.84589,819.27881c0.39061,0.31213 0.39061,0.31213 0.39061,0.31213c6.55687,5.23959 12.57109,11.113 18.2077,17.33188c2.8183,3.10944 5.67792,6.21805 9.01781,8.75904c3.33988,2.54099 7.25897,4.50557 11.44449,4.81024c3.91595,0.28505 7.89616,-0.94189 11.07092,-3.25204c3.17476,-2.31015 5.54349,-5.66745 6.81384,-9.38257c1.27035,-3.71512 1.45942,-7.77065 0.70501,-11.6238c-0.75441,-3.85315 -2.43611,-7.50287 -4.73885,-10.68301c-4.60548,-6.36028 -11.56743,-10.72585 -18.95554,-13.38655c-7.38811,-2.6607 -15.24191,-3.74185 -23.05123,-4.5653c-16.40949,-1.7303 -32.89203,-2.66145 -49.33875,-3.99223c-0.49837,-0.04033 -0.49837,-0.04033 -0.49837,-0.04033" stroke="#ff0000"></path><g stroke="#ff0000"><line x1="864.84589" y1="819.27881" x2="825.91351" y2="793.56627"></line><polyline points="835.21399,789.89191 825.91351,793.56627 826.18533,803.56258"></polyline></g><polygon points="267.56202,829.22068 261.81595,797.6643 260.06666,766.3523 261.79742,735.29748 266.49128,704.51281 273.63149,674.01112 282.70125,643.80538 293.18362,613.90843 304.56179,584.3332 316.31898,555.09255 327.93832,526.19943 300.7408,531.14392 273.08931,532.83867 245.30893,531.41501 217.72471,527.00424 190.66171,519.73771 164.44501,509.7467 139.39962,497.16257 115.85061,482.11661 94.12304,464.7402 74.54194,445.16459 53.09749,413.43752 36.96187,378.96683 26.09429,342.50742 20.45394,304.81404 20,266.64152 24.69167,228.74465 34.48817,191.8782 49.34862,156.79702 69.2323,124.25588 94.09833,95.00959 127.03687,66.41636 164.55452,44.64514 205.39784,29.70496 248.31343,21.60483 292.04774,20.35374 335.34735,25.96071 376.95884,38.43475 415.6288,57.78486 450.10364,84.02005 479.13006,117.14932 493.35808,137.03683 505.38949,158.20508 515.24557,180.44341 522.94763,203.5411 528.51697,227.28752 531.97494,251.47196 533.34283,275.88377 532.64199,300.31228 529.89363,324.54682 525.11919,348.37672 561.57459,335.75747 598.90311,325.88345 636.87614,318.80689 675.26514,314.57993 713.84158,313.25474 752.37681,314.88342 790.64218,319.51822 828.40935,327.21122 865.44949,338.01467 901.53414,351.98061 881.63405,349.0208 861.2633,348.47183 840.8553,350.34505 820.84306,354.6518 801.6597,361.40339 783.73843,370.61124 767.51237,382.28655 753.41471,396.44077 741.87858,413.08519 733.33709,432.23115 728.03315,426.57642 722.24805,420.59343 716.04677,414.37378 709.4947,408.00915 702.65694,401.59107 695.59865,395.21113 688.38512,388.96101 681.08135,382.93231 673.75272,377.2166 666.4643,371.90547 655.54257,366.73636 639.28322,362.4984 618.8247,359.54314 595.30511,358.22211 569.86282,358.88669 543.63609,361.88836 517.76326,367.57866 493.3826,376.30906 471.63232,388.43096 453.65082,404.29589 431.2945,430.65329 413.18258,459.6543 399.21897,490.78847 389.3075,523.54528 383.35196,557.41429 381.25624,591.88503 382.92415,626.44695 388.25959,660.58963 397.16639,693.80259 409.54843,725.57523 397.38745,717.26367 382.40529,712.06038 365.52886,709.95683 347.68482,710.94441 329.8,715.0147 312.80113,722.15917 297.615,732.36912 285.16841,745.63621 276.38813,761.95173 272.20089,781.30726 271.82519,785.83325 271.39356,790.36508 270.91973,794.92267 270.41723,799.52593 269.89971,804.19476 269.38066,808.9492 268.87379,813.80903 268.39268,818.79428 267.9509,823.92486" stroke="#000000"></polygon><path d="M543.63609,361.88836c-0.49676,0.05685 -0.49676,0.05685 -0.49676,0.05685c-16.39301,1.87619 -32.77497,3.85087 -49.17895,5.62857c-49.30617,5.34332 -99.08775,8.34795 -147.34473,19.78971c-48.25698,11.44176 -95.68327,32.11462 -130.23923,67.68897c-17.27798,17.78718 -31.06236,39.15138 -38.8974,62.67848c-7.83504,23.5271 -9.5827,49.2335 -3.72434,73.32898c5.85836,24.09548 19.49388,46.44176 39.05697,61.67981c19.56309,15.23805 45.05955,23.028 69.68057,20.07539c16.39119,-1.96567 32.16881,-7.32109 48.26583,-10.9845c0.48753,-0.11095 0.48753,-0.11095 0.48753,-0.11095" stroke="#ff0000"></path><g stroke="#ff0000"><line x1="543.63609" y1="361.88836" x2="331.24558" y2="661.71967"></line><polyline points="327.87668,652.30423 331.24558,661.71967 341.24543,661.77421"></polyline></g><polyline points="530.78282,355.71653 564.13933,344.16997 601.00104,335.20306 638.38941,329.03015 676.06669,325.69289 713.79427,325.23068 751.33535,327.65142 788.44877,333.04608 818.71399,340.15591 795.49862,347.09179 775.05624,356.42386 756.01303,368.78712 738.90723,384.35127 727.95738,398.05996 724.12991,392.68229 717.82116,385.12803 711.35309,377.4094 704.68584,369.68679 697.80035,362.09649 690.83996,354.55436 681.87339,345.95811 713.7152,345.24613 749.60637,348.84825 744.00164,354.68657 725.25916,369.568 723.7558,363.39494 715.82126,356.5201" stroke="#000000"></polyline><path d="M530.78282,355.71653c-0.47249,0.16356 -0.47249,0.16356 -0.47249,0.16356c-7.96499,2.75713 -16.20193,4.62065 -24.52967,5.92123c-4.16387,0.65029 -8.35565,1.3417 -12.29898,2.82861c-3.94333,1.48691 -7.68964,3.88414 -9.94813,7.44222c-2.10928,3.32302 -2.75025,7.50402 -1.91691,11.35072c0.83334,3.84669 3.09403,7.3356 6.14639,9.82048c3.05236,2.48488 6.86463,3.97924 10.77509,4.42626c3.91046,0.44702 7.91095,-0.13264 11.60704,-1.48557c7.39218,-2.70586 13.39623,-8.38356 17.87134,-14.85962c4.47511,-6.47607 7.5841,-13.77696 10.71025,-21.00145c3.12615,-7.22449 6.33669,-14.49307 10.98096,-20.84892c4.64427,-6.35585 10.89445,-11.80967 18.41897,-14.12216c3.76226,-1.15625 7.79611,-1.49804 11.66863,-0.79444c3.87252,0.70361 7.57305,2.47356 10.41953,5.19184c2.84648,2.71828 4.80411,6.39556 5.27944,10.30268c0.47534,3.90712 -0.57792,8.01388 -3.02527,11.09641c-2.62237,3.30295 -6.62378,5.26939 -10.71582,6.28994c-4.09203,1.02055 -8.34053,1.20776 -12.55528,1.35657c-8.4295,0.29761 -16.83561,1.17429 -25.07348,2.98607c-0.48833,0.1074 -0.48833,0.1074 -0.48833,0.1074" stroke="#ff0000"></path><g stroke="#ff0000"><line x1="530.78282" y1="355.71653" x2="543.63609" y2="361.88836"></line><polyline points="534.91974,366.78991 543.63609,361.88836 542.0113,352.02124"></polyline></g><polyline points="360.49823,521.99952 354.8617,554.05432 350.90349,591.6953 350.9501,629.70733 354.93161,667.64139 354.79482,674.55572 342.37776,673.15642 317.42884,676.50354 323.67365,657.13186 336.48464,631.38751 335.99503,660.63877 331.24558,661.71967" stroke="#000000"></polyline><path d="M360.49823,521.99952c0.08659,-0.49244 0.08659,-0.49244 0.08659,-0.49244c2.85773,-16.25181 5.09875,-32.62069 8.57258,-48.75203c6.19996,-28.7906 17.53823,-56.16863 27.04493,-84.04264c9.5067,-27.87401 17.2834,-56.94451 15.93327,-86.36415c-0.67506,-14.70982 -3.67381,-29.38889 -9.64197,-42.85053c-5.96816,-13.46163 -14.96772,-25.68075 -26.60726,-34.70047c-11.63955,-9.01973 -25.96265,-14.73706 -40.67481,-15.35901c-14.71216,-0.62195 -29.73363,4.01293 -41.01943,13.47153c-6.33161,5.30651 -11.42197,11.91278 -16.48065,18.44409c-5.05868,6.53131 -10.23172,12.97379 -15.58294,19.26765c-0.32387,0.38093 -0.32387,0.38093 -0.32387,0.38093" stroke="#ff0000"></path><g stroke="#ff0000"><line x1="360.49823" y1="521.99952" x2="261.80466" y2="261.00245"></line><polyline points="271.4954,263.47014 261.80466,261.00245 256.17136,269.26478"></polyline></g><polyline points="267.47401,827.57442 262.02324,797.63973 260.48397,766.35227 262.41979,735.36212 267.31015,704.67083 274.6401,674.28032 283.89359,644.1932 294.5575,614.41343 306.12098,584.94655 318.07003,555.79668 331.30505,523.45378 300.46223,528.8438 273.07663,530.30634 245.5966,528.68226 218.34373,524.10622 191.6418,516.71155 165.81482,506.63642 141.18735,494.01897 118.0845,478.99785 96.82788,461.71727 77.84998,442.4346 57.01532,411.21463 41.37948,377.28512 30.92738,341.43115 25.6158,304.3991 25.39974,266.94228 30.23115,229.81833 40.05039,193.78468 54.79436,159.59478 74.38862,127.98832 98.79291,99.65621 131.02324,71.99609 167.56499,51.0691 207.34378,36.77429 249.12637,29.13263 291.65658,28.15647 333.66756,33.84131 373.85458,46.26118 410.98098,65.24406 443.85445,90.71591 471.69564,123.04222 485.05891,142.34371 496.27058,162.80295 505.38519,184.26249 512.42598,206.52245 517.41446,229.37898 520.37215,252.62438 521.32178,276.04783 520.28831,299.43614 517.2996,322.57469 510.15496,356.39027 487.79495,364.00078 463.58718,377.05864 443.4652,394.30696 419.46243,422.01088 399.91766,452.5801 384.78032,485.39141 373.94193,519.88361 367.28519,555.51947 364.69523,591.78151 366.06603,628.16596 371.30419,664.17717 378.84716,693.78938 366.15227,691.81944 345.10832,692.59892 324.01465,697.00504 303.62541,705.15725 284.82952,717.33065 286.1425,708.30497 293.3402,679.2715 302.46694,650.23427 313.0562,621.21308 324.62656,592.2262 336.68547,563.28226 363.77118,496.97679 298.00278,508.5364 272.97338,509.67909 247.77413,507.99656 222.72482,503.59554 198.159,496.58864 174.41264,487.11439 151.8216,475.31935 130.71561,461.36339 111.41234,445.41766 94.90826,428.3571 76.37594,400.22989 62.33882,369.30623 53.11246,336.49081 48.57203,302.55375 48.69593,268.23986 53.43182,234.31519 62.69029,201.54463 76.34747,170.66774 94.26013,142.37247 116.43248,117.11555 145.64453,92.46158 178.35546,74.09465 214.16683,61.5615 251.91741,54.97755 290.34046,54.41053 328.12583,59.83981 363.98483,71.1447 396.7254,88.12259 425.33299,110.56124 450.37085,139.94534 461.98736,157.09674 471.66907,175.20735 479.53751,194.2737 485.59625,214.12474 489.84555,234.57234 492.2882,255.41375 492.93337,276.43528 491.79932,297.41566 488.91486,318.12987 485.05045,334.71006 475.75269,337.47448 446.6339,353.09407 422.4631,373.7104 395.58829,404.57267 373.70846,438.60272 356.82709,474.94269 295.23695,485.69933 272.85749,486.52646 250.21367,484.82184 227.62402,480.65933 205.43026,474.13749 183.98361,465.38271 163.63324,454.54937 144.71573,441.81764 127.54404,427.38885 113.73771,412.81791 97.70565,388.12793 85.38804,360.53176 77.19092,331.12885 73.16867,300.57653 73.34397,269.61273 77.67963,239.01501 86.06956,209.55801 98.34626,181.96967 114.31017,156.88585 134.02909,134.53238 160.06716,112.64899 188.88174,96.55646 220.75018,85.47792 254.58135,79.6455 289.09766,79.20181 322.94757,84.13313 354.81856,94.25459 383.56343,109.246 408.33184,128.77759 430.90956,155.37136 441.05277,170.48329 449.46267,186.4041 456.3271,203.26345 461.6279,220.91625 465.34264,239.18813 467.4541,257.88034 467.95648,276.77616 466.85931,295.64688 464.18956,314.25808 463.18693,316.43438 432.3914,332.96137 404.89435,356.48091 375.69763,390.04408 351.95999,427.00425 339.62344,453.15302 292.26948,461.19727 272.73391,461.838 252.79922,460.26012 232.78506,456.4972 213.05011,450.60998 193.96139,442.72736 175.88347,433.00817 159.1614,421.64984 144.10459,408.88077 132.97022,396.94611 119.38278,375.82885 108.69617,351.65872 101.55258,325.70382 98.0676,298.575 98.30794,271.0032 102.25102,243.77756 109.77313,217.68254 120.66178,193.43432 134.65943,171.61582 151.89756,152.21828 174.72017,133.15887 199.58168,119.38883 227.44559,109.80143 257.29202,104.74626 287.83241,104.44101 317.67305,108.87807 345.4771,117.80616 370.14305,130.78414 390.98804,147.36107 411.04592,171.1163 419.67449,184.15356 426.79592,197.83297 432.64627,212.4354 437.18484,227.84228 440.36573,243.89322 442.15103,260.39351 442.5194,277.12332 441.47121,293.84632 440.11021,300.80519 417.92848,312.51708 387.06184,338.99274 355.51755,375.3041 329.90512,415.24238 322.23497,430.9558 289.26293,436.3726 272.6087,436.82409 255.41889,435.37423 238.01431,432.0158 220.76293,426.79543 204.0508,419.81851 188.25839,411.24769 173.73957,401.29706 160.80038,390.22154 152.34049,380.96061 141.1935,363.45398 132.12464,342.73987 126.01573,320.25619 123.04546,296.56714 123.32626,272.39669 126.85155,248.54574 133.48135,225.80867 142.95964,204.88989 154.98326,186.32739 169.73553,169.874 189.34149,153.6244 210.25361,142.16144 234.12043,134.05021 259.99314,129.75851 286.57219,129.5798 312.42189,133.51339 336.18124,141.24278 356.79421,152.20746 373.74449,165.83714 391.306,186.76318 398.43891,197.73258 404.27987,209.18585 409.12225,221.54662 412.903,234.72262 415.5529,248.56739 417.01351,262.89023 417.24807,277.46822 416.42939,285.73051 403.57573,292.22854 369.36469,321.63731 335.4901,360.6756 308.01645,403.56914 304.97705,408.92525 286.27888,411.73363 272.48443,411.99661 258.0191,410.67314 243.20487,407.71553 228.42276,403.14449 214.07624,397.05494 200.56139,389.6137 188.2407,381.05183 177.41677,371.65104 171.62889,365.04268 162.92354,351.12488 155.47884,333.8493 150.41426,314.82295 147.97055,294.56351 148.30493,273.78798 151.42609,253.30889 157.17707,233.93051 165.25753,216.34548 175.29638,201.0312 187.56456,187.52087 203.95585,174.08017 220.92073,164.92377 240.79243,158.28866 262.69318,154.76073 285.31172,154.7237 307.1665,158.16857 326.87229,164.71241 343.41854,173.67385 356.45591,184.36146 371.50265,202.46033 377.12238,211.36337 381.66449,220.58882 385.48037,230.70348 388.48497,241.64155 390.58607,253.27058 391.70498,265.40394 391.41976,271.21277 389.12101,271.79585 351.53103,304.14802 315.29598,345.92536 288.88594,387.06231 283.338,387.45117 272.36188,387.51299 260.58491,386.2989 248.32994,383.7218 235.99539,379.76279 223.99987,374.52253 212.75456,368.17282 202.63019,360.96247 193.92559,353.20076 190.81603,349.20831 184.5661,338.84542 178.76753,324.98366 174.78981,309.39483 172.91856,292.55805 173.35301,275.18313 176.11456,258.09413 181.02659,242.10506 187.74147,227.89666 195.84115,215.90269 205.63158,205.4033 218.79369,194.84875 231.77167,188.07836 247.59234,182.9918 265.45021,180.29072 284.02367,180.41755 301.79216,183.38182 317.34554,188.73114 329.71977,195.65876 338.73663,203.34727 351.19101,218.56038 355.24262,225.3543 358.43456,232.30165 361.17831,240.11605 363.3668,248.75886 364.88471,258.11213 364.5213,260.21844 333.63191,286.59453 295.01182,331.10935 274.01647,363.48536 272.23885,362.93518 263.16266,361.8113 253.48297,359.59725 243.61142,356.24708 233.98313,351.85473 225.03366,346.58086 217.13596,340.71077 210.58484,334.58237 210.19771,333.2134 206.45023,326.4289 202.33994,316.01002 199.45552,303.90209 198.15662,290.52926 198.6854,276.59412 201.07648,262.93236 205.13376,250.36793 210.46218,239.56948 216.56916,230.90683 223.84073,223.42641 233.73273,215.75898 242.68532,211.36675 254.42978,207.8313 268.22175,205.95502 282.7274,206.27566 296.3774,208.78467 307.72822,212.97823 315.86362,217.89624 320.77881,222.58866 330.56598,234.90884 332.98244,239.5885 334.75539,244.24099 336.35902,249.72894 336.12961,251.43584 315.40023,268.7149 274.30977,315.98811 260.46988,336.71853 258.60265,335.62879 251.1952,332.83094 243.94636,329.23239 237.29679,325.01697 231.64774,320.45067 228.51393,316.91181 227.75121,314.34324 225.32584,307.25965 223.56616,298.53296 222.91332,288.53918 223.62118,277.98302 225.73252,267.71131 229.0272,258.55754 233.05812,251.17819 237.29,245.90578 242.13704,241.53578 248.83768,236.90145 253.78895,235.06055 261.41851,233.22043 271.07119,232.3408 281.38731,233.00762 290.74907,235.18947 297.69442,238.27532 301.35435,241.18192 301.90623,242.8102 304.04087,246.76403 297.52205,251.18194 253.89198,301.07449 249.51652,306.11406 248.88893,304.63296 246.1772,301.6105 246.38356,299.24331 245.98789,293.53993 246.36188,286.65424 247.83742,279.33184 250.36438,272.48557 253.66878,267.00358 257.34871,263.65754 260.41075,262.64191 261.80466,261.00245" stroke="#000000"></polyline><path d="M267.47401,827.57442c0.08957,0.49191 0.08957,0.49191 0.08957,0.49191c2.95611,16.23444 5.23608,32.60242 8.8676,48.69924c14.64513,64.91508 59.60514,121.7879 118.1779,153.37397c58.57276,31.58606 129.62999,38.08684 193.73804,20.2373c64.10805,-17.84954 120.88714,-59.34606 159.62689,-113.45409c38.73975,-54.10803 59.62375,-120.31047 61.73394,-186.82359c0.52323,-16.49221 0.20963,-32.99883 0.31444,-49.499c0.00318,-0.49999 0.00318,-0.49999 0.00318,-0.49999" stroke="#ff0000"></path><g stroke="#ff0000"><line x1="267.47401" y1="827.57442" x2="810.02557" y2="700.10017"></line><polyline points="806.31546,709.38646 810.02557,700.10017 802.56825,693.43771"></polyline></g><polygon points="1094.39047,730.4953 1083.79467,729.24203 1072.57357,730.04019 1061.3806,732.01 1050.8693,734.27176 1041.693,735.94556 1034.50533,736.15172 1029.95963,734.01043 1028.70953,728.64189 1031.40846,719.16632 1038.70995,704.7039 1049.58007,673.55685 1056.88096,641.33891 1060.59333,608.48848 1060.69784,575.44414 1057.17519,542.64423 1050.00585,510.52734 1039.1706,479.53185 1024.64994,450.0962 1006.42464,422.65894 984.47529,397.65848 970.63946,382.86133 960.357,366.45268 953.21085,348.72419 948.78412,329.96746 946.65977,310.47408 946.42083,290.53575 947.65022,270.44408 949.9312,250.49067 952.84648,230.96715 955.97932,212.16516 969.11337,174.81357 988.2886,140.58557 1012.713,109.85677 1041.59433,83.00273 1074.14038,60.39907 1109.55902,42.42139 1147.05802,29.44525 1185.84517,21.84625 1225.12834,20 1264.1153,24.28209 1294.55869,31.76268 1323.31689,43.07773 1350.22841,57.87102 1375.13189,75.78631 1397.86574,96.46731 1418.26859,119.55784 1436.17896,144.7016 1451.43518,171.54239 1463.87597,199.72395 1473.33985,228.89002 1480,271.12652 1477.97511,313.13477 1468.09258,354.0381 1451.18078,392.95992 1428.06721,429.02362 1399.57986,461.35257 1366.54681,489.07014 1329.79565,511.2997 1290.15446,527.16457 1248.45093,535.78824 1234.08967,536.73262 1218.88912,536.6188 1203.19018,535.62894 1187.33323,533.94518 1171.65885,531.74975 1156.50784,529.22483 1142.22058,526.5526 1129.13784,523.91524 1117.60013,521.49488 1107.94802,519.4738 1125.78241,550.48737 1140.79295,582.75712 1153.11179,616.08895 1162.87119,650.28874 1170.20329,685.16223 1175.24025,720.51529 1178.11433,756.15385 1178.95757,791.88355 1177.90223,827.51033 1175.08046,862.84 1169.12685,845.99617 1163.69937,828.859 1158.42455,811.83932 1152.92872,795.34786 1146.8382,779.79543 1139.77951,765.59277 1131.37899,753.15069 1121.26306,742.87992 1109.05805,735.19118" stroke="#000000"></polygon><path d="M1109.05805,735.19118c-0.42305,-0.26651 -0.42305,-0.26651 -0.42305,-0.26651c-7.0444,-4.43773 -13.75433,-9.37852 -20.23032,-14.61096c-3.238,-2.61622 -6.5002,-5.22522 -10.05831,-7.38604c-3.55811,-2.16081 -7.46312,-3.86888 -11.59355,-4.38733c-4.68615,-0.5882 -9.5351,0.41505 -13.67838,2.68202c-4.14328,2.26697 -7.57615,5.77036 -9.89393,9.88544c-2.31777,4.11508 -3.53053,8.82487 -3.64419,13.54642c-0.11366,4.72155 0.85885,9.44977 2.68281,13.80627c3.64791,8.71301 10.62407,15.77957 18.73503,20.62067c8.11096,4.84109 17.32386,7.58731 26.62514,9.23356c18.60255,3.29249 37.91018,2.37351 56.12194,7.39617c9.10588,2.51133 17.92039,6.56808 24.9846,12.83871c7.06421,6.27063 12.27105,14.89807 13.35235,24.28181c0.9481,8.22778 -1.14583,16.47108 -3.17559,24.50073c-2.02976,8.02965 -3.82216,16.11869 -5.22828,24.28067c-0.08489,0.49274 -0.08489,0.49274 -0.08489,0.49274" stroke="#ff0000"></path><g stroke="#ff0000"><line x1="1109.05805" y1="735.19118" x2="1173.54941" y2="872.10556"></line><polyline points="1163.69468,870.40726 1173.54941,872.10556 1178.51581,863.42599"></polyline></g><polyline points="1133.63621,502.04465 1122.18028,499.64145 1066.07166,487.41974 1060.65356,470.51767 1045.24714,438.23998 1025.6672,407.92666 1002.73916,381.10976 990.62943,367.48078 983.2255,354.79379 978.09324,340.82314 974.94603,325.47234 973.6001,308.84851 973.85171,291.20972 975.43708,272.88074 978.03915,254.1947 981.30439,235.46237 984.43666,219.48056 996.31227,187.10343 1013.4444,157.46964 1035.28078,130.74091 1061.167,107.30391 1090.37452,87.58258 1122.1111,71.993 1155.54103,60.91483 1189.8105,54.67267 1224.08148,53.52546 1258.1941,57.73793 1284.12065,64.58537 1308.49188,74.67186 1331.35457,87.7678 1352.58838,103.61348 1372.03345,121.92854 1389.50846,142.40473 1404.82536,164.70558 1417.8009,188.47077 1428.26508,213.32117 1435.75143,237.89282 1440.85762,273.24686 1438.74297,307.50145 1430.10047,341.30103 1415.43302,373.89586 1395.35965,404.35801 1370.64319,431.70728 1342.16713,454.99679 1310.89374,473.37196 1277.8024,486.11685 1242.63699,492.91577 1232.82003,493.09737 1220.44254,492.5417 1206.94568,491.22681 1192.83319,489.26272 1178.55183,486.79492 1164.50738,483.98506 1151.0714,481.00106 1138.57957,478.01054 1127.30849,475.17308 1085.01271,465.84367 1083.74936,460.82674 1066.95844,425.74245 1045.56224,392.69483 1021.26758,364.32134 1010.53498,352.16518 1005.58511,343.39434 1001.98926,333.23529 999.63181,321.23084 998.58383,307.34099 998.86087,291.82418 1000.35016,275.06538 1002.82854,257.46141 1005.9991,239.36317 1008.74034,225.72819 1019.17954,197.43604 1034.26971,171.44716 1053.6815,147.76887 1076.88826,126.82324 1103.22308,109.09703 1131.90199,95.05947 1162.06372,85.11222 1192.81669,79.559 1223.29855,78.59862 1253.82468,82.42596 1276.51923,88.48822 1297.83549,97.38211 1317.96112,108.98345 1336.79246,123.11159 1354.15828,139.54696 1369.85164,158.02 1383.6557,178.21208 1395.3631,199.76387 1404.7894,222.28484 1411.2613,243.75845 1415.64904,274.61241 1413.76436,303.91479 1406.18358,333.28275 1393.17925,362.02805 1375.22225,389.17187 1353.021,413.65355 1327.47955,434.46925 1299.62718,450.76496 1270.5172,461.90704 1239.24355,467.89229 1232.08659,467.89021 1221.3308,467.33795 1209.07154,466.09234 1195.91556,464.22103 1182.3769,461.84843 1168.90329,459.12485 1155.88825,456.21069 1143.66902,453.26621 1132.49225,450.43961 1103.01468,443.7853 1088.51808,413.33222 1065.32525,377.56408 1039.67951,347.63846 1030.32235,336.94051 1027.81977,332.05859 1025.7601,325.68719 1024.1969,317.01008 1023.45413,305.84033 1023.76523,292.43608 1025.16755,277.24164 1027.53137,260.71672 1030.6162,243.2517 1032.97613,231.95837 1041.99092,207.7434 1055.0514,185.39542 1072.0501,164.76711 1092.58758,146.31532 1116.0582,130.58898 1141.68604,118.10986 1168.58415,109.30119 1195.82289,104.44537 1222.51589,103.66306 1249.4583,107.09678 1268.92576,112.36608 1287.19395,120.06069 1304.59101,130.16214 1321.02957,142.56893 1336.3267,157.12242 1350.24959,173.59176 1362.55238,191.67626 1373.00341,211.01767 1381.40357,231.21419 1386.87341,249.5996 1390.55443,275.97179 1388.90731,300.34559 1382.39136,325.30628 1371.04918,350.22622 1355.20375,374.0754 1335.50893,395.71263 1312.88883,414.07708 1288.43879,428.31483 1263.28507,437.87357 1235.876,443.05968 1231.359,442.884 1222.21168,442.34379 1211.17899,441.17551 1198.97019,439.40478 1186.16623,437.13509 1173.25661,434.50549 1160.65679,431.66899 1148.70566,428.77857 1137.62047,425.97117 1120.05079,421.81029 1110.22945,400.83466 1085.22034,362.33221 1058.20798,330.85 1050.22795,321.62487 1050.17943,320.65912 1049.65618,318.09932 1048.88274,312.76857 1048.43792,304.33281 1048.77445,293.05055 1050.08069,279.42629 1052.32081,263.98344 1055.31096,247.1525 1057.27985,238.20602 1064.85823,218.07602 1075.87674,199.37297 1090.45753,181.80127 1108.32028,165.84885 1128.92076,152.1269 1151.49116,141.20984 1175.1187,133.54252 1198.83563,129.38592 1221.73124,128.79116 1245.07925,131.83923 1261.30749,136.32193 1276.5138,142.82156 1291.16753,151.42536 1305.19804,162.111 1318.41099,174.78078 1330.54796,189.24263 1341.33419,205.21372 1350.50546,222.34105 1357.85586,240.20536 1362.29864,255.4855 1365.24897,277.34258 1363.82302,296.74375 1358.36403,317.25098 1348.68405,338.29903 1334.9578,358.80741 1317.78494,377.55461 1298.11075,393.42305 1277.09846,405.5598 1255.94936,413.49593 1232.45773,417.85308 1230.61991,417.48268 1223.10712,416.93621 1213.32286,415.82812 1202.07986,414.14134 1190.02664,411.95813 1177.69483,409.40607 1165.52184,406.63059 1153.84797,403.77719 1142.86007,400.9713 1137.46953,399.34173 1132.4445,388.04716 1105.5995,346.72973 1077.20824,313.63405 1072.77388,308.1595 1072.70027,302.86883 1073.0898,293.64797 1074.33083,281.55281 1076.47861,267.16692 1079.40445,250.95832 1081.01934,244.30861 1087.22053,228.18046 1096.26575,213.05767 1108.48689,198.48558 1123.73636,184.98927 1141.52979,173.24026 1161.10704,163.86402 1181.52982,157.32602 1201.79271,153.86571 1220.96077,153.46539 1240.77749,156.14495 1253.82056,159.86478 1266.01337,165.19941 1277.96443,172.33948 1289.61993,181.34025 1300.76745,192.1709 1311.1212,204.67514 1320.38577,218.57907 1328.28248,233.52604 1334.58436,249.09106 1338.00007,261.30524 1340.21551,278.69865 1338.99609,293.17887 1334.56094,309.27086 1326.50693,326.47211 1314.86333,343.65365 1300.1772,359.51568 1283.41597,372.88544 1265.8116,382.91209 1248.64151,389.21084 1229.33933,392.65908 1223.98289,392.08704 1215.4216,391.01426 1205.12697,389.38623 1193.81296,387.26443 1182.05195,384.76521 1170.3047,382.01515 1158.91049,379.16377 1154.29673,377.6406 1153.93419,375.6772 1125.32606,331.62689 1096.47469,297.94125 1096.97379,294.23479 1098.16639,283.64297 1100.23893,270.29802 1103.11696,254.70396 1104.39863,250.31862 1109.25781,238.13804 1116.38146,226.55893 1126.30151,214.97116 1138.99181,203.93024 1154.0262,194.16506 1170.65133,186.34954 1187.90273,180.96775 1204.73655,178.23586 1220.19261,178.06561 1236.48228,180.41366 1246.33398,183.40651 1255.49799,187.60914 1264.7093,193.33605 1273.94126,200.69363 1282.98037,209.70248 1291.52059,220.24576 1299.23288,232.07488 1305.8161,244.83353 1311.0303,258.08465 1313.37767,267.20255 1314.81881,280.07439 1313.77961,289.55806 1310.37758,301.16325 1303.96924,314.45289 1294.43648,328.24923 1282.27325,341.17329 1268.46986,351.99657 1254.32855,359.8707 1241.20459,364.49684 1226.79955,366.88189 1224.89219,366.2862 1217.60124,365.24393 1208.29228,363.6708 1197.74708,361.60672 1186.58025,359.15635 1175.27213,356.44985 1170.07822,354.80971 1145.24631,316.37577 1121.87385,288.87316 1122.64502,285.78952 1124.63363,273.51272 1127.45594,258.54857 1128.38907,256.48573 1131.86504,248.35315 1136.99148,240.39196 1144.53103,231.84069 1154.58305,223.28814 1166.78177,215.52383 1180.38148,209.27293 1194.39172,205.04006 1207.73031,203.01927 1219.41238,203.05227 1232.12252,205.04709 1238.73997,207.28608 1244.8388,210.32534 1251.30184,214.57389 1258.11646,220.22739 1265.05852,227.36691 1271.79708,235.91401 1277.96198,245.64597 1283.23986,256.19632 1287.3772,267.11606 1288.6685,273.12065 1289.34984,281.45404 1288.50839,285.92938 1286.14744,293.03996 1281.39323,302.41324 1273.97967,312.82222 1264.34722,322.80827 1253.50878,331.08678 1242.83665,336.81155 1233.76364,339.76948 1224.57208,341.03193 1219.72787,340.10025 1211.38004,338.58532 1201.58413,336.58215 1190.99599,334.18402 1185.00894,332.42838 1165.03337,301.2266 1147.72697,280.56719 1148.79845,276.69713 1151.57574,262.43828 1153.73345,258.23442 1156.9568,253.79228 1162.21576,248.20608 1169.73009,242.09452 1179.19168,236.30378 1189.86146,231.60692 1200.72284,228.52677 1210.65538,227.23404 1218.64897,227.50008 1227.85557,229.15616 1231.3055,230.66397 1234.40059,232.57061 1238.16144,235.38869 1242.59404,239.3879 1247.46464,244.70807 1252.41859,251.30818 1257.07158,258.9743 1261.07634,267.35138 1264.16579,275.97882 1264.39476,278.93445 1264.2759,282.63906 1262.92923,285.25592 1259.7356,290.86335 1254.33292,298.00609 1247.11172,305.1507 1239.10796,310.96001 1231.76281,314.59126 1226.58546,315.9153 1222.80429,315.98806 1221.83131,315.23089 1214.43734,313.74742 1205.38729,311.7786 1199.64438,310.11753 1184.61422,286.23532 1173.70334,272.75518 1175.07547,268.26826 1175.84728,268.22659 1177.15696,267.35022 1180.11804,264.77278 1185.11367,261.19458 1191.83633,257.4768 1199.55187,254.43669 1207.21519,252.61158 1213.66748,252.16926 1217.8596,252.77958 1223.41814,254.22845 1223.52132,255.14152 1223.39769,256.01929 1224.22813,257.45951 1225.99815,259.87347 1228.38471,263.51394 1231.10783,268.23733 1233.7665,273.84323 1236.00007,279.97245 1235.32365,281.25405 1233.32621,282.16439 1228.38772,285.96818 1223.14485,288.64977 1219.98264,288.8438 1217.72563,287.03286 1215.64064,285.05789 1210.64377,274.30803 1216.2495,275.00041 1216.49982,275.22812" stroke="#000000"></polyline><path d="M1133.63621,502.04465c0.48935,0.10265 0.48935,0.10265 0.48935,0.10265c8.11942,1.70328 16.32666,2.9439 24.56824,3.89399c8.24157,0.95008 16.79714,1.94472 23.87727,6.26881c4.88943,2.98615 8.78235,7.51907 11.19286,12.71648c2.41051,5.19741 3.35657,11.0353 2.92805,16.74844c-0.85703,11.42628 -7.17475,22.01993 -15.82644,29.53276c-8.6517,7.51283 -19.47776,12.17065 -30.57793,15.01328c-11.10018,2.84264 -22.556,3.96878 -33.95382,5.14528c-11.39782,1.1765 -22.85053,2.42376 -33.88911,5.49691c-11.03858,3.07316 -21.73801,8.08095 -30.06939,15.94749c-8.33139,7.86654 -14.10687,18.81656 -14.24886,30.27406c-0.071,5.72875 1.26958,11.49661 4.05217,16.50469c2.78259,5.00807 7.02355,9.22946 12.14447,11.79845c7.41676,3.72073 16.03923,3.94012 24.33452,4.14085c8.29529,0.20073 16.58253,0.69882 24.82281,1.67348c0.49654,0.05873 0.49654,0.05873 0.49654,0.05873" stroke="#ff0000"></path><g stroke="#ff0000"><line x1="1133.63621" y1="502.04465" x2="1103.97694" y2="677.36101"></line><polyline points="1096.85694,670.33921 1103.97694,677.36101 1113.01045,673.07199"></polyline></g><polyline points="1094.44968,730.22259 1083.80119,728.96308 1072.50553,729.48807 1061.22067,731.19201 1050.65269,733.18183 1041.54764,734.56027 1034.85546,734.47432 1031.63991,732.65256 1031.00422,728.69778 1033.74756,720.08031 1041.27222,705.79221 1052.52189,674.4006 1060.17255,641.8961 1064.2038,608.69757 1064.58739,575.24204 1061.29603,541.96523 1054.293,509.30401 1043.5418,477.69772 1029.00305,447.59045 1010.63713,419.43382 988.60659,393.91514 975.30149,379.2743 965.84502,363.65477 959.34446,346.77655 955.39782,328.8311 953.63401,310.05325 953.68635,290.71426 955.1742,271.10387 957.70945,251.51568 960.88556,232.237 964.17702,214.27251 977.09559,178.42035 995.80304,145.62911 1019.56905,116.20133 1047.63698,90.50521 1079.23003,68.92152 1113.55263,51.82999 1149.79531,39.59982 1187.14252,32.58621 1224.78114,31.11878 1262.12573,35.5235 1291.0072,42.93045 1318.21159,53.95783 1343.65299,68.28671 1367.18746,85.59272 1388.66124,105.53959 1407.91114,127.78574 1424.77091,151.98007 1439.06846,177.76665 1450.6494,204.77422 1459.24168,232.26668 1465.17961,271.92934 1462.98431,310.98225 1453.44279,349.12667 1437.27431,385.54368 1415.23425,419.34595 1388.13199,449.62435 1356.82397,475.48137 1322.19658,496.05174 1285.14973,510.53311 1246.07737,518.28539 1233.56751,518.78683 1219.53258,518.36121 1204.75663,517.1084 1189.64288,515.18124 1174.5726,512.74678 1159.91108,509.97849 1146.00954,507.05234 1133.20442,504.14398 1121.80812,501.41718 1066.67362,489.52728 1106.95636,560.25566 1120.90425,591.04195 1132.31408,622.88875 1140.47659,655.8309 1146.31187,689.37109 1149.88911,723.34081 1149.36432,733.20209 1139.0147,720.81895 1121.62338,708.22151 1100.99527,700.07322 1084.55839,696.55568 1078.06921,695.45081 1084.02732,683.43665 1093.97514,647.61814 1100.07404,610.77486 1102.19669,598.3479 1111.58879,629.66487 1118.04032,661.38338 1119.64383,686.36816 1105.87742,677.5858 1103.97694,677.36101" stroke="#000000"></polyline><path d="M1094.44968,730.22259c0.49654,0.05873 0.49654,0.05873 0.49654,0.05873c7.79554,0.92206 15.71798,1.23867 23.44482,-0.14577c7.72683,-1.38444 15.19734,-4.15434 23.00745,-4.94348c7.26561,-0.73413 14.80285,0.46533 21.21241,3.9647c6.40956,3.49938 11.60249,9.38192 13.72379,16.36964c1.06065,3.49386 1.35372,7.22736 0.77421,10.83238c-0.57951,3.60502 -2.03771,7.07492 -4.2691,9.96505c-2.2314,2.89014 -5.23763,5.18887 -8.64018,6.5135c-3.40255,1.32463 -7.1942,1.6618 -10.7616,0.88358c-4.80606,-1.04843 -8.99564,-4.01651 -12.49953,-7.46906c-3.50389,-3.45256 -6.46002,-7.41124 -9.56042,-11.23026c-6.20081,-7.63803 -13.70315,-14.11834 -21.90325,-19.55416c-0.41675,-0.27626 -0.41675,-0.27626 -0.41675,-0.27626" stroke="#ff0000"></path><g stroke="#ff0000"><line x1="1094.44968" y1="730.22259" x2="1109.05805" y2="735.19118"></line><polyline points="1100.99007,741.09947 1109.05805,735.19118 1106.26548,725.58902"></polyline></g><polygon points="606.64435,773.7486 605.55117,771.20669 604.38888,768.31627 603.18093,765.14618 601.95089,761.76539 600.72234,758.24303 599.5188,754.64776 598.36385,751.04883 597.28102,747.51488 596.29393,744.11506 595.42607,740.91823 594.16299,735.97122 593.1497,731.62385 592.36655,727.55723 591.7937,723.45237 591.41151,718.99028 591.20025,713.85197 591.14022,707.71855 591.21169,700.27094 591.39491,691.19024 591.67022,680.15746 592.50955,656.53965 593.75682,636.15944 595.47917,618.79026 597.7434,604.2056 600.61659,592.1789 604.16569,582.48375 608.45764,574.89358 613.55939,569.18184 619.53797,565.1221 626.46034,562.48781 631.96003,561.44104 637.26041,561.29641 642.32888,562.03256 647.13314,563.6283 651.6406,566.06243 655.81887,569.31369 659.63545,573.36085 663.05795,578.18264 666.05397,583.75788 668.59113,590.0653 669.8764,594.69694 671.15008,600.96801 672.38394,608.60404 673.54973,617.33049 674.61934,626.87293 675.56452,636.95681 676.35714,647.30773 676.96906,657.65111 677.37206,667.71251 677.53789,677.21741 677.49391,685.88402 677.26457,693.78347 676.8173,701.10923 676.11948,708.05528 675.13834,714.81498 673.84148,721.58222 672.19611,728.55055 670.16973,735.91366 667.72966,743.86532 664.8433,752.599 663.16563,757.5044 661.75415,761.48008 660.531,764.64313 659.4184,767.11074 658.33859,768.99982 657.2138,770.42754 655.96608,771.51102 654.51765,772.36714 652.79074,773.1131 650.70751,773.86599 649.25392,774.38133 647.51107,775.01624 645.52521,775.75288 643.34251,776.57354 641.00933,777.46077 638.57174,778.39673 636.07599,779.3639 633.56836,780.34445 631.0949,781.32084 628.70198,782.27543 626.40209,783.19416 624.19799,784.06682 622.12099,784.88153 620.2024,785.6263 618.47371,786.28935 616.96604,786.85848 615.71098,787.322 614.73975,787.66784 614.08364,787.8841 613.77416,787.95879 613.56721,787.77195 613.20791,787.23126 612.71109,786.36652 612.09194,785.20775 611.3653,783.78458 610.54623,782.12693 609.64959,780.2647 608.69044,778.22763 607.68364,776.04572" stroke="#000000"></polygon><path d="M622.12099,784.88153c-0.46547,0.18258 -0.46547,0.18258 -0.46547,0.18258c-5.04911,1.98053 -10.28615,3.8434 -15.70958,3.79398c-5.42343,-0.04941 -10.83936,-2.08533 -14.79583,-5.7951c-3.95647,-3.70977 -6.34494,-8.88497 -7.31141,-14.22182c-0.96646,-5.33685 -0.62377,-10.81414 -0.22592,-16.22318c9.56457,-130.03698 39.4518,-258.25872 84.3805,-380.66178c1.82654,-4.97619 3.7188,-9.98916 6.6775,-14.38743c2.9587,-4.39827 7.06878,-8.12604 12.01642,-10.02858c4.94763,-1.90254 10.57426,-1.84374 15.55994,-0.04328c4.98569,1.80045 9.19002,5.2246 13.19623,8.69576c0.37789,0.32742 0.37789,0.32742 0.37789,0.32742" stroke="#ff0000"></path><g stroke="#ff0000"><line x1="622.12099" y1="784.88153" x2="715.82126" y2="356.5201"></line><polyline points="722.5979,363.87382 715.82126,356.5201 706.59328,360.37295"></polyline></g><polyline points="606.87309,773.64768 605.782,771.11065 604.85449,768.13396 603.88616,764.88355 602.90009,761.4272 601.91724,757.83467 600.96363,754.17411 600.06314,750.51585 599.23716,746.93126 598.50997,743.49262 597.90642,740.26495 596.91318,735.2997 596.17927,730.97932 595.68502,727.00651 595.40092,723.04647 595.29933,718.74397 595.36289,713.74605 595.57564,707.71813 595.91819,700.341 596.37235,691.30255 596.91832,680.31619 598.02572,656.80642 599.53621,636.62267 601.50462,619.55613 603.97842,605.4323 606.97264,594.09442 610.4551,585.38937 614.32952,579.10192 618.51106,574.83739 623.13768,572.03524 628.65381,570.23665 632.85565,569.72609 636.75651,569.90384 640.27644,570.70215 643.48603,572.06757 646.46025,574.0003 649.25091,576.53592 651.86456,579.73117 654.2726,583.63189 656.42127,588.2666 658.23151,593.57402 658.95768,597.31729 659.81154,603.03466 660.68528,610.3303 661.51408,618.8088 662.25382,628.14537 662.87104,638.03763 663.33121,648.1917 663.61302,658.31361 663.68853,668.10587 663.53251,677.30403 663.17374,685.63984 662.63579,693.1247 661.9007,699.90505 660.94275,706.19243 659.73932,712.22327 658.25381,718.24991 656.43889,724.52345 654.24284,731.27945 651.61251,738.72984 648.49029,747.10054 646.55491,751.71552 644.9384,755.24508 643.94083,756.87526 642.95696,756.86072 640.96904,757.22042 638.772,757.67014 636.39272,758.19375 633.87148,758.78101 631.24983,759.41571 628.56636,760.07261 625.86779,760.74434 624.49057,760.90403 624.66387,760.37773 623.92003,757.42263 623.139,754.21624 622.35431,750.85015 621.59628,747.41029 620.88862,743.98401 620.26006,740.65899 619.74,737.52949 619.33693,734.62054 618.55224,730.01603 618.08542,726.31883 617.9055,723.31894 617.90846,720.51388 618.02559,717.30421 618.24632,713.16379 618.58364,707.71594 619.04176,700.68524 619.6112,691.82694 620.28414,681.02288 621.50787,657.94205 623.1076,638.51196 625.10849,622.55632 627.48516,610.05707 630.10082,601.06453 632.58879,595.61485 634.36066,593.4581 635.66208,595.17535 636.39528,597.64003 637.07999,600.73787 637.0385,602.57761 637.38188,607.12286 637.85554,613.69906 638.30386,621.65965 638.65795,630.57343 638.85179,640.0828 638.9032,649.84946 638.7181,659.54847 638.25614,668.83697 637.54447,677.46478 636.50528,685.18512 635.11977,691.88559 634.76389,697.71435" stroke="#000000"></polyline><path d="M606.87309,773.64768c0.19754,0.45932 0.19754,0.45932 0.19754,0.45932c3.2649,7.59166 6.29135,15.28291 9.16674,23.03049c2.8754,7.74758 5.76494,15.59381 10.38957,22.44259c7.64028,11.31477 20.30617,19.2655 33.89822,20.55166c6.79603,0.64308 13.75109,-0.34028 20.0682,-2.92748c6.31711,-2.58721 11.98051,-6.78168 16.22578,-12.12744c4.24527,-5.34577 7.05412,-11.83613 7.95507,-18.6028c0.90095,-6.76667 -0.11983,-13.79079 -2.99211,-19.98349c-2.87229,-6.1927 -7.59673,-11.52607 -13.44476,-15.04743c-5.84804,-3.52136 -12.80071,-5.20356 -19.60505,-4.65542c-8.25651,0.66513 -15.92396,4.36444 -23.388,7.95618c-7.46404,3.59174 -15.03531,6.95922 -22.75718,9.95674c-0.46611,0.18094 -0.46611,0.18094 -0.46611,0.18094" stroke="#ff0000"></path><g stroke="#ff0000"><line x1="606.87309" y1="773.64768" x2="622.12099" y2="784.88153"></line><polyline points="612.64437,788.0743 622.12099,784.88153 622.36197,774.88444"></polyline></g><polygon points="821.75109,792.09535 821.01117,791.69434 819.82972,791.15305 818.25241,790.48881 816.325,789.71898 814.09316,788.86088 811.60286,787.93185 808.89967,786.94912 806.02926,785.92994 803.0376,784.89184 799.97025,783.85195 781.24318,777.57915 778.24943,767.02287 775.08381,754.63459 772.46443,741.7487 770.39397,728.4186 768.87491,714.69809 767.90981,700.64085 767.50147,686.30049 767.65225,671.73069 768.36492,656.9851 769.64197,642.11741 771.48596,627.18122 773.37454,614.52338 775.19674,603.72553 777.0129,594.62527 778.88315,587.06001 780.86782,580.86736 783.02715,575.88478 785.42135,571.94986 788.11077,568.9 791.15553,566.57286 794.61608,564.80584 797.6332,563.7611 800.99973,562.97204 804.61263,562.43615 808.36888,562.15114 812.16536,562.11463 815.89912,562.32426 819.46705,562.77763 822.76611,563.47237 825.69319,564.40616 828.14534,565.57656 832.61021,569.16183 836.56548,574.36953 840.02067,581.24702 842.98529,589.84161 845.46866,600.20055 847.48027,612.37124 849.02945,626.40089 850.1259,642.33684 850.77884,660.22641 850.99768,680.11694 850.98698,691.28554 850.92794,700.57992 850.79588,708.29937 850.56605,714.74296 850.21387,720.20977 849.71478,724.99887 849.04401,729.40965 848.1769,733.74097 847.08887,738.29202 845.75515,743.36207 843.85419,750.08364 841.75817,756.93191 839.53931,763.71687 837.27013,770.24873 835.02294,776.33727 832.87025,781.79278 830.8844,786.42507 829.13778,790.04431 827.70292,792.46041 826.65194,793.48355 826.31333,793.55181 825.91351,793.56627 825.46296,793.52981 824.9718,793.44551 824.45051,793.31603 823.90932,793.14455 823.35842,792.93374 822.80831,792.68667 822.2691,792.40622" stroke="#000000"></polygon><path d="M825.91351,793.56627c-0.49967,0.01808 -0.49967,0.01808 -0.49967,0.01808c-14.5947,0.52795 -29.30087,1.39004 -43.74031,-0.79781c-5.15328,-0.78082 -10.23924,-1.97531 -15.40384,-2.67737c-5.16459,-0.70206 -10.47223,-0.90161 -15.54425,0.29858c-5.07203,1.20019 -9.91854,3.91471 -12.94177,8.16042c-1.51161,2.12285 -2.54238,4.60176 -2.87213,7.18686c-0.32975,2.5851 0.05488,5.27261 1.19565,7.61571c1.00569,2.06566 2.57435,3.8303 4.40371,5.2202c1.82936,1.3899 3.91591,2.41718 6.08074,3.18652c4.32966,1.53868 8.93653,2.08838 13.48591,2.7338c9.09877,1.29083 17.93464,4.05091 26.18241,8.10409c0.44874,0.22052 0.44874,0.22052 0.44874,0.22052" stroke="#ff0000"></path><g stroke="#ff0000"><line x1="825.91351" y1="793.56627" x2="786.7087" y2="832.83587"></line><polyline points="784.96409,822.98923 786.7087,832.83587 796.55821,834.56422"></polyline></g><polyline points="821.90224,791.8305 821.14746,791.42142 820.0751,790.59476 818.59956,789.64258 816.77001,788.58353 814.63445,787.43178 812.23767,786.20821 809.62643,784.92641 806.84596,783.60335 803.94028,782.26012 800.96241,780.90774 784.05041,774.90051 781.88069,766.04419 779.07536,753.7195 776.8278,740.96679 775.12302,727.78986 773.96758,714.24155 773.36369,700.37609 773.31867,686.24778 773.82419,671.91171 774.88204,657.42233 776.49867,642.8349 778.67533,628.16119 780.89801,615.71934 783.0456,605.17068 785.15676,596.44357 787.26761,589.437 789.37528,584.06516 791.43943,580.24056 793.36303,577.79694 795.09741,576.39427 796.8173,575.5565 798.91982,574.90823 800.78887,574.66188 803.19906,574.48603 805.95874,574.45963 808.90113,574.61625 811.8667,574.96653 814.6927,575.51041 817.20195,576.21697 819.1864,577.02792 820.38144,577.81918 821.93669,579.55089 823.62948,582.4358 825.62833,587.31267 827.61963,594.32212 829.39359,603.45154 830.83808,614.66372 831.8979,627.93543 832.54825,643.26208 832.77952,660.65382 832.58481,680.20941 832.16443,691.21674 831.69654,700.35435 831.15277,707.78109 830.52329,713.74014 829.79982,718.48919 828.95749,722.34044 828.00211,725.70549 826.86655,729.06216 825.48074,732.86771 823.81642,737.37474 821.58604,743.52781 819.17768,749.78486 816.6407,755.99585 814.06762,761.93743 813.53476,761.90768 811.36475,760.61464 808.33618,759.02625 803.22191,756.74003 801.68639,748.53579 799.86329,736.83885 798.54901,724.67529 797.72966,712.11139 797.44037,699.20728 797.66055,686.02725 798.39444,672.63234 799.65968,659.08464 801.49113,645.4501 803.8822,631.59709 806.34967,619.76525 808.75932,609.90514 810.61963,604.45448 812.0877,617.2466 812.59163,629.66478 812.67105,644.30836 812.28473,661.1405 811.40867,680.31575 810.08252,691.13603 810.02557,700.10017" stroke="#000000"></polyline><path d="M821.90224,791.8305c0.43959,0.23825 0.43959,0.23825 0.43959,0.23825c7.29262,3.95241 14.79854,7.49282 22.41907,10.76871c7.62052,3.27589 15.5215,6.67915 21.10029,12.81763c4.72735,5.20161 7.35653,12.18921 7.55403,19.21528c0.1975,7.02607 -1.98012,14.05027 -5.84665,19.92007c-3.86653,5.8698 -9.377,10.59388 -15.62215,13.8192c-6.24515,3.22533 -13.20743,4.97561 -20.22183,5.42595c-14.0288,0.90068 -27.98158,-3.33748 -40.552,-9.63056c-12.57043,-6.29308 -23.99676,-14.6046 -35.62702,-22.50115c-11.63026,-7.89655 -23.65953,-15.4798 -36.94567,-20.07295c-13.28614,-4.59315 -28.06697,-6.01452 -41.38103,-1.50293c-6.65703,2.2558 -12.85083,5.98475 -17.72273,11.05123c-4.87189,5.06649 -8.38617,11.48766 -9.7038,18.39189c-1.31762,6.90424 -0.38154,14.27143 2.91186,20.48094c3.29341,6.20952 8.97739,11.177 15.67563,13.30731c3.95625,1.25824 8.16814,1.53909 12.31552,1.35379c4.14738,-0.1853 8.26057,-0.81787 12.36124,-1.46559c8.20135,-1.29545 16.45066,-2.28114 24.73967,-2.76342c0.49916,-0.02904 0.49916,-0.02904 0.49916,-0.02904" stroke="#ff0000"></path><g stroke="#ff0000"><line x1="821.90224" y1="791.8305" x2="718.29542" y2="880.65509"></line><polyline points="717.31833,870.70294 718.29542,880.65509 727.98156,883.14076"></polyline></g><polygon points="676.1603,942.73747 664.24544,939.62743 653.45666,936.07565 643.79742,932.08441 635.27109,927.6563 627.88093,922.79399 621.63042,917.49975 616.52292,911.77627 612.5618,905.62591 609.75034,899.05126 608.09199,892.05489 607.97965,883.15161 610.13501,874.06328 614.36112,864.97971 620.46115,856.0909 628.23836,847.58666 637.49589,839.65679 648.03691,832.49142 659.66457,826.28023 672.18214,821.21315 685.39267,817.48018 695.18862,815.65679 704.95416,814.56401 714.72871,814.20767 724.55151,814.59382 734.46198,815.72832 744.49965,817.61719 754.70375,820.26639 765.1137,823.68196 775.76885,827.86983 786.7087,832.83587 791.36595,835.12457 795.4085,837.2084 798.91203,839.14215 801.95194,840.9803 804.60372,842.77744 806.94284,844.58815 809.0449,846.46692 810.98539,848.46853 812.83969,850.64737 814.68339,853.05812 817.0562,856.49835 819.29021,860.12938 821.35919,863.88712 823.23697,867.70727 824.8976,871.52563 826.31482,875.27792 827.46259,878.89994 828.31475,882.32749 828.84524,885.49619 829.02782,888.34183 828.46206,892.96886 826.84214,897.94203 824.28409,903.1262 820.90369,908.38626 816.81715,913.58728 812.14039,918.59393 806.9894,923.27119 801.4802,927.48403 795.72868,931.09723 789.85085,933.97566 781.47886,936.86024 771.26129,939.38937 759.64046,941.52898 747.0586,943.24508 733.95823,944.50351 720.78158,945.27017 707.97118,945.511 695.96925,945.19191 685.21811,944.27873" stroke="#000000"></polygon><path d="M786.7087,832.83587c0.45529,0.20667 0.45529,0.20667 0.45529,0.20667c7.55115,3.42777 14.90745,7.26452 22.12582,11.34675c7.21837,4.08224 14.69427,8.30639 22.9476,9.11386c7.01332,0.68615 14.21468,-1.32889 20.0042,-5.34623c5.78952,-4.01733 10.15927,-9.97486 12.50024,-16.62146c2.34097,-6.6466 2.67971,-13.94751 1.22247,-20.84199c-1.45724,-6.89448 -4.68087,-13.3767 -9.09336,-18.87101c-8.82498,-10.98861 -22.16721,-17.77589 -35.99829,-20.48346c-13.83108,-2.70757 -28.16937,-1.60548 -42.00098,1.0994c-27.66323,5.40976 -54.28381,17.17697 -82.46374,17.81801c-14.08997,0.32052 -28.51034,-2.31272 -40.64133,-9.48691c-6.06549,-3.5871 -11.50036,-8.28719 -15.71103,-13.93765c-4.21068,-5.65046 -7.17787,-12.25991 -8.33881,-19.21043c-1.3625,-8.15729 -0.31821,-16.5038 0.68972,-24.71245c1.00794,-8.20865 1.8229,-16.44062 2.32691,-24.69554c0.03047,-0.49907 0.03047,-0.49907 0.03047,-0.49907" stroke="#ff0000"></path><g stroke="#ff0000"><line x1="786.7087" y1="832.83587" x2="634.76389" y2="697.71435"></line><polyline points="644.49351,695.4047 634.76389,697.71435 633.60654,707.64715"></polyline></g><polyline points="676.23549,942.38799 664.34648,939.28469 653.70507,935.40543 644.24977,931.11203 635.99482,926.42243 628.95266,921.36157 623.12959,915.96134 618.51865,910.2579 615.0942,904.28123 612.81429,898.0413 611.65815,891.6152 611.91402,883.58662 614.20453,875.47613 618.40777,867.28836 624.38634,859.20773 631.97135,851.44286 640.97156,844.20367 651.18273,837.69436 662.39275,832.11117 674.38439,827.64228 687.02078,824.44267 696.29333,823.07998 705.53498,822.40519 714.71698,822.42784 723.89482,823.14606 733.12692,824.56237 742.47198,826.68432 751.98637,829.52344 761.72315,833.09401 771.7313,837.41133 782.13052,842.52416 786.3876,845.01415 790.02794,847.29245 793.013,849.34797 795.39984,851.20858 797.26428,852.90357 798.71352,854.47707 799.88639,856.00436 800.93519,857.59928 801.99676,859.3977 803.12274,861.45789 804.78521,864.49726 806.32488,867.68129 807.73436,870.98172 808.97266,874.3105 810.00224,877.57338 810.78842,880.66566 811.30078,883.46481 811.51736,885.81615 811.43822,887.50643 811.10081,887.82542 810.59665,889.00605 809.59724,890.92112 807.78246,893.79186 805.17392,897.19026 801.88998,900.79174 798.08649,904.34032 793.93748,907.61836 789.64839,910.44207 785.45434,912.64896 781.60904,914.12861 775.29353,915.92141 766.5855,917.70363 756.07534,919.27034 744.41547,920.49501 732.16994,921.30733 719.87314,921.65987 708.06457,921.51416 697.32486,920.86085 688.34379,919.72904 681.44379,918.18202 671.44871,915.19312 662.43917,911.84002 654.85748,908.30944 648.73168,904.70758 644.05134,901.18153 640.7412,897.88882 638.62704,894.95927 637.43959,892.41596 636.86673,890.11294 636.87514,888.50607 637.22719,886.3854 638.22588,883.81581 640.4756,879.87827 644.27978,875.00433 649.64451,869.69938 656.41478,864.4065 664.35236,859.4759 673.19112,855.19053 682.65121,851.77604 692.83311,849.29857 700.05426,848.35177 707.42497,847.92004 714.68045,848.04642 721.93093,848.72238 729.28901,849.95786 736.85988,851.78002 744.73269,854.23395 752.98227,857.35832 761.66595,861.19772 771.08086,865.90732 774.74187,868.14859 777.81298,870.18532 780.00375,871.85507 781.3469,873.14617 781.93748,874.04975 781.96765,874.60002 781.70727,874.93561 781.45637,875.29605 781.45086,875.9784 781.69226,877.02892 782.50408,879.02135 783.25203,881.12051 783.95789,883.3624 784.54198,885.61996 781.85421,887.87738 779.04247,889.75516 776.29743,891.21198 773.98279,892.051 772.50138,892.19653 768.52698,893.01503 761.52049,894.21277 752.24689,895.3676 741.59972,896.25912 730.27966,896.78841 718.9192,896.86703 708.16201,896.47391 698.73238,895.59799 691.57344,894.36267 686.87724,892.9296 678.83159,890.14956 671.62172,887.06465 666.77867,884.29062 670.16171,882.39026 676.28134,879.20551 683.15209,876.48011 690.44441,874.52711 698.44679,873.30499 703.77165,873.33101 709.33877,873.75621 714.64243,874.69998 719.82453,876.15466 725.0287,878.14837 727.15984,880.13933 718.29542,880.65509" stroke="#000000"></polyline><path d="M676.23549,942.38799c0.48379,0.12628 0.48379,0.12628 0.48379,0.12628c8.0177,2.0928 16.13395,3.77986 24.29573,5.2112c8.16177,1.43134 16.57145,2.90087 23.59954,7.29056c4.42112,2.7614 8.11007,6.64857 10.77978,11.12565c2.66971,4.47708 4.32905,9.5334 4.9969,14.70308c1.3357,10.33936 -1.30973,20.95001 -6.24623,30.13247c-9.873,18.36491 -27.89125,30.62289 -44.8511,42.75177c-8.47992,6.06444 -16.89306,12.30349 -24.26134,19.67878c-7.36828,7.37529 -13.70067,15.96896 -17.34986,25.73471c-3.64919,9.76575 -4.46582,20.78372 -1.06809,30.63978c1.69887,4.92803 4.4336,9.51493 8.08141,13.23852c3.64781,3.72359 8.21463,6.56835 13.2141,8.04378c7.95235,2.34686 16.46352,1.2899 24.69157,0.26674c8.22804,-1.02316 16.48955,-1.77113 24.77544,-2.07382c0.49967,-0.01825 0.49967,-0.01825 0.49967,-0.01825" stroke="#ff0000"></path><g stroke="#ff0000"><line x1="676.23549" y1="942.38799" x2="717.87679" y2="1149.23924"></line><polyline points="708.71442,1145.23288 717.87679,1149.23924 724.77525,1141.99967"></polyline></g><polygon points="681.50506,1217.47991 666.51443,1213.9205 651.67914,1209.64554 637.07476,1204.62512 622.777,1198.82912 608.86143,1192.22772 595.40363,1184.79081 582.47926,1176.48836 570.16388,1167.29057 558.5332,1157.16721 547.66274,1146.08846 535.67091,1133.67105 523.88756,1121.00915 512.3926,1108.07065 501.266,1094.82327 490.58783,1081.23491 480.43797,1067.27337 470.89651,1052.90646 462.04331,1038.10218 453.95846,1022.82812 446.72191,1007.05231 444.07504,1001.23213 441.40514,995.41721 438.73226,989.60051 436.07647,983.77479 433.45789,977.93312 430.89646,972.06837 428.41235,966.1734 426.02558,960.24109 423.7562,954.26449 421.62427,948.23648 429.1491,953.86724 436.50652,959.75894 443.74441,965.84193 450.91063,972.04667 458.05307,978.30332 465.21964,984.54244 472.45817,990.69419 479.81658,996.68911 487.34265,1002.45737 495.08439,1007.92943 511.72604,1018.91287 528.986,1028.83652 546.79359,1037.73762 565.07813,1045.65391 583.76889,1052.62294 602.79508,1058.68215 622.08602,1063.8693 641.57103,1068.22172 661.17938,1071.77707 680.84023,1074.57289 699.55224,1075.70213 718.3006,1076.20894 737.06452,1076.10403 755.82328,1075.3982 774.55629,1074.10193 793.24284,1072.22613 811.86212,1069.78131 830.39353,1066.77835 848.81636,1063.22775 867.10992,1059.14043 878.40066,1056.20345 889.57441,1052.76975 900.57212,1048.80863 911.33485,1044.28938 921.80345,1039.18119 931.91918,1033.45345 941.62291,1027.07534 950.85567,1020.01626 959.55854,1012.2453 967.67246,1003.73184 975.11374,996.50128 982.49835,989.19058 989.76764,981.76268 996.86278,974.18053 1003.72482,966.40729 1010.29512,958.40581 1016.51472,950.13912 1022.32489,941.57019 1027.66667,932.66196 1032.48133,923.37758 1034.11383,920.70094 1034.57933,920.46408 1034.09679,922.19762 1032.88473,925.43239 1031.16189,929.69893 1029.147,934.52785 1027.05881,939.4499 1025.11594,943.9958 1023.53705,947.69608 1022.54095,950.08137 1015.23727,966.64723 1007.90824,983.25123 1000.44319,999.8158 992.73177,1016.26377 984.66331,1032.51758 976.12737,1048.49995 967.01329,1064.13361 957.2106,1079.34109 946.60885,1094.04492 935.09739,1108.16793 928.1238,1116.90815 920.94703,1125.52334 913.53231,1133.94447 905.84526,1142.10238 897.851,1149.92822 889.51497,1157.35285 880.8025,1164.30742 871.6791,1170.72268 862.10991,1176.52987 852.06035,1181.65976 836.35408,1189.85809 820.20597,1197.45509 803.66943,1204.29157 786.79756,1210.20833 769.64365,1215.04618 752.2608,1218.6459 734.70231,1220.84832 717.02137,1221.49422 699.27119,1220.42452" stroke="#000000"></polygon><polyline points="681.5462,1217.27555 666.56737,1213.71894 651.80516,1209.24642 637.29577,1204.03461 623.11667,1198.05616 609.34516,1191.28456 596.05918,1183.69203 583.33447,1175.2549 571.24665,1165.94845 559.86889,1155.74931 549.22184,1144.57078 537.41645,1132.01625 525.83844,1119.23521 514.56484,1106.1941 503.67876,1092.86287 493.25777,1079.21645 483.38199,1065.227 474.1309,1050.86693 465.58477,1036.10776 457.82117,1020.9218 450.85927,1005.1626 448.43282,999.2408 445.98173,993.31504 443.53456,987.40252 441.11455,981.49727 438.74493,975.59364 436.44171,969.68917 435.70928,967.30075 439.50049,970.81689 446.45026,977.16826 453.41968,983.60905 460.45966,990.0762 467.62422,996.50331 474.96731,1002.82519 482.54947,1008.96801 490.37567,1014.82202 507.20337,1026.24692 524.78502,1036.6623 542.92868,1046.03192 561.56045,1054.39147 580.60584,1061.77962 599.99028,1068.23812 619.64134,1073.80658 639.48785,1078.52125 659.4577,1082.42445 679.72627,1085.59041 699.05708,1087.0384 718.17594,1087.83943 737.32187,1088.01648 756.47396,1087.5834 775.61126,1086.5472 794.71322,1084.92186 813.75914,1082.71766 832.72802,1079.94176 851.59911,1076.60431 870.38988,1072.71085 882.29293,1069.92961 894.18521,1066.59406 905.97642,1062.6752 917.60931,1058.12531 929.02498,1052.89842 940.16366,1046.95058 950.95715,1040.23014 961.33598,1032.69318 968.99634,1026.28278 961.21022,1040.17204 952.17217,1055.03059 942.5581,1069.3462 932.27587,1083.05175 920.78982,1096.62969 913.62255,1105.08523 906.48292,1113.13504 899.20638,1120.89482 891.77057,1128.29347 884.16189,1135.2691 876.36199,1141.75761 868.35904,1147.70761 860.13326,1153.06723 851.66488,1157.80022 842.06852,1162.30344 826.51714,1170.02372 811.11876,1176.87888 795.52134,1182.94609 779.80592,1188.08416 764.05186,1192.15076 748.34149,1195.03414 732.7441,1196.62004 717.3136,1196.81035 702.07797,1195.51837 686.52215,1192.56188 673.06414,1188.98287 659.55489,1184.70171 646.37465,1179.77628 633.60196,1174.19589 621.31425,1167.94748 609.57961,1161.03002 598.46811,1153.42787 588.0342,1145.13997 578.32207,1136.16043 568.61102,1125.6967 557.17562,1113.28423 546.10556,1100.80629 535.41818,1088.17933 525.19502,1075.38063 515.50527,1062.39748 510.36311,1054.62726 513.82037,1057.08776 533.07519,1067.17807 552.79301,1076.16895 572.89052,1084.11472 593.2927,1091.05684 613.92481,1097.0434 634.71304,1102.12858 655.58745,1106.35924 677.26985,1109.88553 697.98536,1111.57508 717.91107,1112.55248 737.859,1112.87955 757.80851,1112.57566 777.7387,1111.64405 797.63072,1110.11253 817.46426,1107.98401 837.21827,1105.26079 856.8725,1101.95325 876.51389,1098.04811 889.45283,1095.17916 893.50145,1094.43797 889.45181,1098.54814 882.51219,1105.68789 875.54145,1112.37081 868.53259,1118.53233 861.48195,1124.11463 854.40716,1129.09553 847.30593,1133.45216 840.16393,1137.17714 831.16195,1141.17507 815.87056,1148.55683 801.36027,1154.78269 786.83366,1160.18707 772.40313,1164.65895 758.17644,1168.09402 744.25203,1170.39732 730.71457,1171.50941 717.61452,1171.39233 704.95004,1170.0328 691.62442,1167.22082 679.68875,1163.76008 667.4783,1159.60693 655.68749,1154.89281 644.39299,1149.63986 633.69119,1143.81519 623.6284,1137.4824 614.25533,1130.65819 605.61997,1123.34208 599.25609,1116.88231 608.25588,1120.08675 629.94398,1125.70752 651.69279,1130.44496 674.77417,1134.5689 696.88502,1136.7669 717.63596,1138.22103 738.42396,1139.03075 759.23076,1139.21007 780.04189,1138.81416 788.6985,1139.03761 779.69026,1141.47357 766.13746,1144.83201 753.0033,1146.91273 728.88212,1148.8372 717.87679,1149.23924" stroke="#000000"></polyline><path d="M681.5462,1217.27555c0.48647,0.11551 0.48647,0.11551 0.48647,0.11551c4.58777,1.08933 9.23676,2.08633 13.95194,2.12277c4.71518,0.03644 9.4215,-0.8766 13.82807,-2.55483c4.40657,-1.67823 8.49519,-4.07798 12.56293,-6.46288c4.06774,-2.38491 8.20114,-4.76977 12.73204,-6.07559c4.68284,-1.34961 9.71195,-1.47983 14.45753,-0.37084c4.74558,1.10899 9.19691,3.45507 12.79158,6.74579c3.59466,3.29072 6.32424,7.51889 7.83991,12.15065c1.51567,4.63176 1.81359,9.65658 0.85228,14.43427c-0.96131,4.77769 -3.17998,9.29706 -6.37477,12.97725c-3.19479,3.68019 -7.35846,6.51228 -11.95618,8.12824c-4.59773,1.61597 -9.61869,2.01159 -14.41211,1.13208c-4.79342,-0.87951 -9.34768,-3.03241 -13.06737,-6.18112c-3.69075,-3.12421 -6.5121,-7.13157 -9.23269,-11.12915c-2.7206,-3.99758 -5.41769,-8.03994 -8.71414,-11.57769c-3.29645,-3.53776 -7.19705,-6.52509 -11.53757,-8.65633c-4.34052,-2.13124 -9.05788,-3.36116 -13.76259,-4.47826c-0.48647,-0.11551 -0.48647,-0.11551 -0.48647,-0.11551" stroke="#ff0000"></path><g stroke="#ff0000"><line x1="681.5462" y1="1217.27555" x2="681.50506" y2="1217.47991"></line><polyline points="674.60683,1210.24012 681.50506,1217.47991 690.66756,1213.47385"></polyline></g><polyline points="265.81976,842.23546 269.39096,875.92175 275.50248,909.23139 284.07607,941.99746 295.03336,974.05304 308.29605,1005.231 323.78596,1035.36461 341.4247,1064.28676 361.13399,1091.83062 382.83558,1117.82926 406.45111,1142.11555 431.86274,1164.51585 458.89101,1184.92068 487.36534,1203.26011 517.11513,1219.46408 547.96979,1233.46247 579.75883,1245.18544 612.31166,1254.56274 645.45755,1261.52444 679.02615,1266.0005 712.84677,1267.92087 746.04972,1267.27745 779.10496,1264.17225 811.84874,1258.66433 844.11771,1250.81243 875.74829,1240.6757 906.57695,1228.31277 936.44022,1213.7828 965.17464,1197.14452 992.61646,1178.45689 1018.60242,1157.77883 1042.95925,1135.20468 1065.56768,1110.89123 1086.3449,1084.99136 1105.20798,1057.65782 1122.07411,1029.04347 1136.86036,999.30096 1149.48393,968.58316 1159.86179,937.04272 1167.91132,904.8326 1173.54941,872.10556" stroke="#000000"></polyline><path d="M265.81976,842.23546c-0.05271,-0.49721 -0.05271,-0.49721 -0.05271,-0.49721c-0.51079,-4.81813 -0.91389,-9.71875 -0.00076,-14.47705c0.91313,-4.7583 3.1459,-9.27458 6.49162,-12.77906c3.34572,-3.50449 7.69801,-5.9469 12.29761,-7.46969c4.59961,-1.52279 9.43315,-2.18101 14.23655,-2.81548c255.09272,-33.69477 514.00023,-53.61498 769.53613,-23.46472c5.28844,0.62397 10.62945,1.29891 15.61582,3.16787c4.98637,1.86896 9.58276,5.03005 12.56958,9.43866c2.98681,4.40861 4.19104,9.93787 3.52728,15.22146c-0.66376,5.28359 -3.10814,10.15414 -5.64248,14.83752c-0.23796,0.43974 -0.23796,0.43974 -0.23796,0.43974" stroke="#ff0000"></path><g stroke="#ff0000"><line x1="265.81976" y1="842.23546" x2="1094.16044" y2="823.83749"></line><polyline points="1088.60798,832.15435 1094.16044,823.83749 1088.2442,815.77535"></polyline></g></g></svg>