<svg x="0" y="0" width="3100.58594" height="373.53516" version="1.1" xmlns="http://www.w3.org/2000/svg" xmlns:xlink="http://www.w3.org/1999/xlink"><g fill="none" stroke="none" stroke-width="2" stroke-linecap="butt" stroke-linejoin="miter" stroke-miterlimit="10" stroke-dasharray="" stroke-dashoffset="0" font-family="sans-serif" font-weight="normal" font-size="12" text-anchor="start" mix-blend-mode="normal"><polyline points="343.28657,803.08464 419.69458,948.35417 420.82704,951.34088 424.06062,959.61925 429.14979,972.16654 435.84897,987.96009 443.91262,1005.97725 453.09516,1025.19538 463.15096,1044.59173 473.83453,1063.14375 484.90025,1079.82858 496.10258,1093.62379 504.44371,1102.79207 512.78212,1112.25902 521.17006,1121.88726 529.65979,1131.53927 538.30361,1141.07765 547.15384,1150.3649 556.26267,1159.26352 565.68243,1167.63611 575.4654,1175.34515 585.6638,1182.25316 596.5571,1188.55756 608.28199,1194.50473 620.67632,1200.03049 633.57826,1205.07072 646.82584,1209.56124 660.25698,1213.43785 673.70972,1216.63657 687.02219,1219.09308 700.03231,1220.74331 712.5781,1221.52315 726.03094,1221.16295 740.0227,1219.49667 754.37832,1216.68422 768.92246,1212.88557 783.48007,1208.26032 797.87601,1202.96856 811.93523,1197.16988 825.48238,1191.02438 838.34251,1184.69174 850.34038,1178.33196 861.28895,1171.80684 871.23033,1164.87387 880.33322,1157.53632 888.76624,1149.79756 896.69798,1141.66065 904.29717,1133.12906 911.7325,1124.20588 919.17248,1114.89435 926.78583,1105.19786 934.74115,1095.11968 944.23951,1082.38159 954.85374,1066.84561 966.09366,1049.48644 977.46911,1031.27897 988.4901,1013.19801 998.66626,996.21845 1007.50762,981.3152 1014.52401,969.46305 1019.22514,961.63691 1021.12105,958.81158 1094.16044,823.83749" stroke="#000000"></polyline><path d="M343.28657,803.08464c-0.23275,-0.44252 -0.23275,-0.44252 -0.23275,-0.44252c-3.90738,-7.42884 -7.06204,-15.22154 -9.7313,-23.17957c-1.33463,-3.97902 -2.70756,-7.97391 -4.74934,-11.64064c-2.04178,-3.66673 -4.84702,-7.03694 -8.56208,-8.9894c-3.01283,-1.5834 -6.52602,-2.15333 -9.90377,-1.73478c-3.37774,0.41854 -6.61255,1.80719 -9.32572,3.86219c-5.42634,4.11 -8.60031,10.74757 -9.41061,17.50632c-0.81031,6.75875 0.56403,13.63304 2.93052,20.01559c2.36648,6.38255 5.70318,12.35218 8.97014,18.32413c3.26696,5.97195 6.49419,12.0134 8.61756,18.48089c2.12337,6.4675 3.10699,13.43996 1.78807,20.11811c-0.65946,3.33908 -1.89494,6.57631 -3.74426,9.43364c-1.84932,2.85733 -4.31984,5.3282 -7.24829,7.06269c-2.92846,1.73449 -6.31733,2.71807 -9.72077,2.68699c-3.40343,-0.03109 -6.80993,-1.09516 -9.54962,-3.11467c-3.38185,-2.49287 -5.61149,-6.28727 -7.0094,-10.24923c-1.39791,-3.96197 -2.05848,-8.14049 -2.68255,-12.29523c-1.24814,-8.30948 -3.01818,-16.53803 -5.61687,-24.52878c-0.15463,-0.47549 -0.15463,-0.47549 -0.15463,-0.47549" stroke="#ff0000"></path><g stroke="#ff0000"><line x1="343.28657" y1="803.08464" x2="267.9509" y2="823.92486"></line><polyline points="271.29504,814.5006 267.9509,823.92486 275.66305,830.29061"></polyline></g><polyline points="569.68069,814.40431 571.03724,813.60684 574.8243,811.40779 580.61807,808.09694 587.9948,803.96444 596.5306,799.29996 605.8017,794.39366 615.38427,789.53541 624.85459,785.01517 633.78868,781.12281 641.76292,778.14828 648.93741,775.94606 656.5043,773.9282 664.39701,772.11274 672.54908,770.51739 680.89402,769.1601 689.36527,768.0589 697.89636,767.2315 706.42071,766.69596 714.87196,766.47019 723.18342,766.57193 732.18536,767.01505 741.06764,767.7511 749.86531,768.78891 758.61335,770.13748 767.34703,771.80573 776.10111,773.80259 784.91087,776.13696 793.81127,778.81776 802.83739,781.854 812.02429,785.25461 818.50185,788.13889 825.4167,791.84561 832.5052,796.10937 839.50375,800.66518 846.14884,805.24763 852.17685,809.59163 857.32417,813.43199 861.32719,816.5034 863.9223,818.54077 864.84589,819.27881" stroke="#000000"></polyline><path d="M569.68069,814.40431c-0.43104,0.25339 -0.43104,0.25339 -0.43104,0.25339c-14.22448,8.36215 -28.62555,16.42895 -42.67255,25.08592c-94.67595,58.3475 -166.02085,153.44043 -195.63936,260.63517c-29.61851,107.19473 -17.22718,225.39662 33.90627,324.1556c51.13345,98.75899 140.47728,177.08776 245.04949,214.93775c104.5722,37.84999 223.32101,34.85985 325.887,-8.13068c102.56599,-42.99053 187.93916,-125.53848 234.4291,-226.56646c46.48994,-101.02798 53.6559,-219.53506 19.75522,-325.45348c-33.90068,-105.91842 -108.52034,-198.22086 -204.94483,-253.631c-96.4245,-55.41015 -213.71257,-73.40773 -322.33198,-49.53745c-16.11577,3.54161 -32.07855,7.74239 -48.11831,11.6137c-0.48604,0.11731 -0.48604,0.11731 -0.48604,0.11731" stroke="#ff0000"></path><g stroke="#ff0000"><line x1="569.68069" y1="814.40431" x2="614.08364" y2="787.8841"></line><polyline points="613.35966,797.85785 614.08364,787.8841 604.95899,783.79255"></polyline></g><polygon points="267.56202,829.22068 261.81595,797.6643 260.06666,766.3523 261.79742,735.29748 266.49128,704.51281 273.63149,674.01112 282.70125,643.80538 293.18362,613.90843 304.56179,584.3332 316.31898,555.09255 327.93832,526.19943 300.7408,531.14392 273.08931,532.83867 245.30893,531.41501 217.72471,527.00424 190.66171,519.73771 164.44501,509.7467 139.39962,497.16257 115.85061,482.11661 94.12304,464.7402 74.54194,445.16459 53.09749,413.43752 36.96187,378.96683 26.09429,342.50742 20.45394,304.81404 20,266.64152 24.69167,228.74465 34.48817,191.8782 49.34862,156.79702 69.2323,124.25588 94.09833,95.00959 127.03687,66.41636 164.55452,44.64514 205.39784,29.70496 248.31343,21.60483 292.04774,20.35374 335.34735,25.96071 376.95884,38.43475 415.6288,57.78486 450.10364,84.02005 479.13006,117.14932 493.35808,137.03683 505.38949,158.20508 515.24557,180.44341 522.94763,203.5411 528.51697,227.28752 531.97494,251.47196 533.34283,275.88377 532.64199,300.31228 529.89363,324.54682 525.11919,348.37672 561.57459,335.75747 598.90311,325.88345 636.87614,318.80689 675.26514,314.57993 713.84158,313.25474 752.37681,314.88342 790.64218,319.51822 828.40935,327.21122 865.44949,338.01467 901.53414,351.98061 881.63405,349.0208 861.2633,348.47183 840.8553,350.34505 820.84306,354.6518 801.6597,361.40339 783.73843,370.61124 767.51237,382.28655 753.41471,396.44077 741.87858,413.08519 733.33709,432.23115 728.03315,426.57642 722.24805,420.59343 716.04677,414.37378 709.4947,408.00915 702.65694,401.59107 695.59865,395.21113 688.38512,388.96101 681.08135,382.93231 673.75272,377.2166 666.4643,371.90547 655.54257,366.73636 639.28322,362.4984 618.8247,359.54314 595.30511,358.22211 569.86282,358.88669 543.63609,361.88836 517.76326,367.57866 493.3826,376.30906 471.63232,388.43096 453.65082,404.29589 431.2945,430.65329 413.18258,459.6543 399.21897,490.78847 389.3075,523.54528 383.35196,557.41429 381.25624,591.88503 382.92415,626.44695 388.25959,660.58963 397.16639,693.80259 409.54843,725.57523 397.38745,717.26367 382.40529,712.06038 365.52886,709.95683 347.68482,710.94441 329.8,715.0147 312.80113,722.15917 297.615,732.36912 285.16841,745.63621 276.38813,761.95173 272.20089,781.30726 271.82519,785.83325 271.39356,790.36508 270.91973,794.92267 270.41723,799.52593 269.89971,804.19476 269.38066,808.9492 268.87379,813.80903 268.39268,818.79428 267.9509,823.92486" stroke="#000000"></polygon><polygon points="143.37817,464.10401 133.34444,457.69325 114.15801,442.34909 97.78629,425.98197 79.27038,398.58766 65.07606,368.2642 55.45009,335.97025 50.42741,302.4046 50.02201,268.31372 54.21233,234.46648 62.93806,201.62956 76.10608,170.54373 93.60804,141.90045 115.48131,116.1741 144.5547,90.93613 177.33384,71.91463 213.38654,58.72682 251.54453,51.52467 290.54105,50.40911 329.07249,55.39864 365.85662,66.42556 399.6944,83.35769 429.53098,106.06319 455.59142,135.80725 468.04927,153.22047 478.56868,171.72848 487.23878,191.29087 494.05376,211.72828 499.00671,232.84659 502.09418,254.43979 503.31873,276.29354 502.69059,298.18808 500.22815,319.90144 496.2003,340.00498 494.67756,343.97995 483.4787,347.99012" fill="#ffffff" stroke="#008000"></polygon><path d="M267.9509,823.92486c-0.04289,0.49816 -0.04289,0.49816 -0.04289,0.49816c-1.41619,16.4468 -4.45274,32.81113 -4.2466,49.31751c0.37413,29.95852 15.71767,59.04441 39.28898,77.53891c23.5713,18.49449 54.7403,26.48045 84.52216,23.21037c29.78186,-3.27008 57.98727,-17.43113 79.58689,-38.19429c21.59963,-20.76316 36.69486,-47.88849 44.6058,-76.78606c15.82187,-57.79515 2.93797,-120.45621 -23.31797,-174.31934c-26.25593,-53.86313 -65.0452,-100.45618 -103.68845,-146.25257c-38.64343,-45.79638 -77.88447,-91.91228 -105.27647,-145.20675c-27.392,-53.29447 -42.23977,-115.29631 -28.88199,-173.71028c6.67889,-29.20699 20.4438,-56.98469 40.91317,-78.86301c20.46936,-21.87832 47.75726,-37.63511 77.27111,-42.79148c29.51385,-5.15637 61.10112,0.65216 85.97867,17.34837c24.87754,16.69621 42.44843,44.41377 45.35871,74.23299c1.60343,16.42943 0,32.99251 0,49.5c0,0.5 0,0.5 0,0.5" stroke="#ff0000"></path><g stroke="#ff0000"><line x1="267.9509" y1="823.92486" x2="500.02201" y2="239.94738"></line><polyline points="505.51621,248.30284 500.02201,239.94738 490.29131,242.2525"></polyline></g><line x1="125.02201" y1="107.89203" x2="125.02201" y2="451.03747" stroke="#000000"></line><path d="M125.02201,107.89203c0,-0.5 0,-0.5 0,-0.5c0,-9.30421 1.31383,-18.57397 3.98606,-27.48618c1.33611,-4.4561 2.7801,-8.91735 3.29622,-13.54074c0.25806,-2.31169 0.27247,-4.66129 -0.1178,-6.95436c-0.39027,-2.29308 -1.19492,-4.53223 -2.49683,-6.45981c-1.62864,-2.41132 -4.01775,-4.28356 -6.71243,-5.38158c-2.69468,-1.09802 -5.683,-1.43041 -8.56799,-1.05124c-5.76998,0.75834 -10.95398,4.34736 -14.34255,9.07867c-3.38857,4.73131 -5.09795,10.51447 -5.63122,16.30958c-0.53327,5.79511 0.05413,11.63635 0.91891,17.39134c1.11171,7.39825 2.63162,14.73472 3.54698,22.15982c0.91536,7.4251 1.12066,14.91777 1.12066,22.39908c0,0.5 0,0.5 0,0.5" stroke="#ff0000"></path><g stroke="#ff0000"><line x1="125.02201" y1="107.89203" x2="100.02201" y2="134.35663"></line><polyline points="98.00608,124.56193 100.02201,134.35663 109.9155,135.81226"></polyline></g><polygon points="143.37817,464.10401 133.34444,457.69325 114.15801,442.34909 97.78629,425.98197 79.27038,398.58766 65.07606,368.2642 55.45009,335.97025 50.42741,302.4046 50.02201,268.31372 54.21233,234.46648 62.93806,201.62956 76.10608,170.54373 93.60804,141.90045 115.48131,116.1741 144.5547,90.93613 177.33384,71.91463 213.38654,58.72682 251.54453,51.52467 290.54105,50.40911 329.07249,55.39864 365.85662,66.42556 399.6944,83.35769 429.53098,106.06319 455.59142,135.80725 468.04927,153.22047 478.56868,171.72848 487.23878,191.29087 494.05376,211.72828 499.00671,232.84659 502.09418,254.43979 503.31873,276.29354 502.69059,298.18808 500.22815,319.90144 496.2003,340.00498 494.67756,343.97995 483.4787,347.99012" stroke="#000000"></polygon><path d="M499.00671,232.84659c0.11417,0.48679 0.11417,0.48679 0.11417,0.48679c6.60102,28.14526 12.82766,56.57261 13.80242,85.46516c0.97476,28.89254 -3.30441,58.01248 -13.25162,85.15621c-9.94721,27.14373 -25.3527,52.09055 -43.69747,74.4333c-18.34477,22.34275 -39.51317,42.18268 -60.87277,61.66335c-42.71921,38.96133 -86.44051,79.32271 -110.91214,131.70645c-12.23581,26.19187 -19.48064,54.6418 -21.7997,83.45761c-2.31907,28.81581 0.3298,57.7749 3.37746,86.52278c0.05271,0.49721 0.05271,0.49721 0.05271,0.49721" stroke="#ff0000"></path><g stroke="#ff0000"><line x1="499.00671" y1="232.84659" x2="265.81976" y2="842.23546"></line><polyline points="260.21911,833.95097 265.81976,842.23546 275.52017,839.80603"></polyline></g><line x1="75.02201" y1="173.10291" x2="75.02201" y2="389.51182" stroke="#000000"></line><path d="M75.02201,173.10291c0,-0.5 0,-0.5 0,-0.5c0,-16.50275 -0.97224,-33.02591 0,-49.5c3.03645,-51.45078 32.57375,-100.02965 75.30112,-128.8528c42.72738,-28.82315 97.45507,-38.14555 147.98813,-28.00587c50.53305,10.13968 96.59046,39.01981 130.11503,78.16704c33.52457,39.14723 54.75871,88.14564 63.50325,138.93871c2.79957,16.26141 4.67085,32.66712 7.00641,49.00164c0.07077,0.49497 0.07077,0.49497 0.07077,0.49497" stroke="#ff0000"></path><g stroke="#ff0000"><line x1="75.02201" y1="173.10291" x2="499.00671" y2="232.84659"></line><polyline points="492.18408,240.15765 499.00671,232.84659 494.47003,223.93488"></polyline></g><line x1="100.02201" y1="428.21706" x2="100.02201" y2="134.35663" stroke="#000000"></line><path d="M100.02201,428.21706c0,0.5 0,0.5 0,0.5c0,8.78165 1.20791,17.51139 3.26448,26.04884c1.02828,4.26872 2.05319,8.58859 2.05196,12.97942c-0.00061,2.19541 -0.26951,4.40215 -0.94582,6.4908c-0.67631,2.08865 -1.77098,4.05942 -3.30639,5.6286c-1.94443,1.98719 -4.56358,3.27561 -7.30749,3.7236c-2.74391,0.44799 -5.60087,0.07103 -8.18306,-0.95955c-5.16436,-2.06116 -9.05802,-6.64458 -11.15387,-11.79496c-2.09585,-5.15038 -2.54988,-10.8361 -2.29032,-16.39053c0.25956,-5.55443 1.2045,-11.05128 1.80626,-16.57911c1.72749,-15.86871 1.06423,-31.88989 1.06423,-47.85234c0,-0.5 0,-0.5 0,-0.5" stroke="#ff0000"></path><g stroke="#ff0000"><line x1="100.02201" y1="428.21706" x2="75.02201" y2="389.51182"></line><polyline points="85.01502,389.88545 75.02201,389.51182 71.25309,398.77439"></polyline></g><line x1="150.02201" y1="461.83574" x2="150.02201" y2="87.76349" stroke="#000000"></line><path d="M150.02201,461.83574c0,0.5 0,0.5 0,0.5c0,9.26913 1.20641,18.56633 4.39908,27.26827c1.59633,4.35097 3.47061,8.60466 4.81822,13.03898c1.34761,4.43432 2.14125,9.16193 1.23332,13.7067c-0.6416,3.21159 -2.13695,6.24216 -4.25642,8.73892c-2.11947,2.49676 -4.85539,4.45839 -7.88087,5.71236c-6.05095,2.50794 -13.1686,2.06895 -19.04588,-0.82264c-5.87728,-2.89159 -10.49116,-8.11518 -13.0056,-14.16344c-2.51443,-6.04825 -2.98186,-12.86545 -1.71247,-19.29136c1.5035,-7.61099 5.16708,-14.60867 7.48612,-22.01203c2.31903,-7.40336 2.9645,-15.21595 2.9645,-22.97402c0,-0.5 0,-0.5 0,-0.5" stroke="#ff0000"></path><g stroke="#ff0000"><line x1="150.02201" y1="461.83574" x2="125.02201" y2="451.03747"></line><polyline points="133.53571,445.79181 125.02201,451.03747 127.03945,460.83185"></polyline></g><line x1="175.02201" y1="73.25617" x2="175.02201" y2="453.30047" stroke="#000000"></line><path d="M175.02201,73.25617c0,-0.5 0,-0.5 0,-0.5c0,-9.37506 1.25825,-18.76062 4.37662,-27.60187c1.55919,-4.42062 3.35794,-8.76932 4.51579,-13.3116c1.15785,-4.54228 1.62919,-9.40653 0.23062,-13.88056c-0.9474,-3.03072 -2.74465,-5.78201 -5.09554,-7.91653c-2.35089,-2.13452 -5.24593,-3.65298 -8.32274,-4.43789c-6.15362,-1.56982 -12.90815,-0.11706 -18.16587,3.44492c-5.25772,3.56198 -9.03813,9.1033 -10.93272,15.1648c-1.8946,6.0615 -1.97001,12.61177 -0.7292,18.84007c1.47918,7.42482 4.63381,14.40695 6.61327,21.71432c1.97946,7.30737 2.50976,14.92092 2.50976,22.49165c0,0.5 0,0.5 0,0.5" stroke="#ff0000"></path><g stroke="#ff0000"><line x1="175.02201" y1="73.25617" x2="150.02201" y2="87.76349"></line><polyline points="150.87161,77.79965 150.02201,87.76349 159.09438,91.96969"></polyline></g><line x1="200.02201" y1="444.76521" x2="200.02201" y2="63.61547" stroke="#000000"></line><path d="M200.02201,444.76521c0,0.5 0,0.5 0,0.5c0,7.90667 0.71704,15.87399 3.23164,23.37014c2.5146,7.49615 6.46671,14.54946 7.92749,22.32002c1.23111,6.54888 0.45386,13.51056 -2.48699,19.4901c-2.94085,5.97954 -8.08177,10.90799 -14.30168,13.29883c-6.21991,2.39084 -13.47019,2.1377 -19.36962,-0.96073c-2.94971,-1.54921 -5.54534,-3.7777 -7.48923,-6.48365c-1.94389,-2.70595 -3.22971,-5.88712 -3.67074,-9.1896c-0.60694,-4.54482 0.36686,-9.16432 1.81579,-13.51453c1.44893,-4.35022 3.35457,-8.53323 4.96169,-12.82752c3.21425,-8.58858 4.38165,-17.79745 4.38165,-26.96779c0,-0.5 0,-0.5 0,-0.5" stroke="#ff0000"></path><g stroke="#ff0000"><line x1="200.02201" y1="444.76521" x2="175.02201" y2="453.30047"></line><polyline points="177.80346,443.69508 175.02201,453.30047 183.09681,459.19942"></polyline></g><line x1="225.02201" y1="56.53068" x2="225.02201" y2="436.22995" stroke="#000000"></line><path d="M225.02201,56.53068c0,-0.5 0,-0.5 0,-0.5c0,-9.09352 1.13954,-18.23188 4.35613,-26.73751c1.60829,-4.25281 3.52665,-8.38638 5.0321,-12.67668c1.50545,-4.2903 2.58423,-8.83243 2.16458,-13.35978c-0.62104,-6.69997 -4.69945,-12.93158 -10.46237,-16.40493c-5.76292,-3.47335 -13.05143,-4.19103 -19.46532,-2.15697c-6.41389,2.03406 -11.88942,6.72622 -15.11912,12.62913c-3.2297,5.90292 -4.23667,12.94069 -3.0588,19.56549c1.40271,7.88932 5.52589,14.99928 8.15796,22.56771c2.63207,7.56843 3.39484,15.64528 3.39484,23.65832c0,0.5 0,0.5 0,0.5" stroke="#ff0000"></path><g stroke="#ff0000"><line x1="225.02201" y1="56.53068" x2="200.02201" y2="63.61547"></line><polyline points="203.307,54.17043 200.02201,63.61547 207.77391,69.93275"></polyline></g><line x1="250.02201" y1="427.69469" x2="250.02201" y2="51.81204" stroke="#000000"></line><path d="M250.02201,427.69469c0,0.5 0,0.5 0,0.5c0,7.90667 0.71704,15.87399 3.23164,23.37014c2.5146,7.49615 6.46671,14.54946 7.92749,22.32002c1.23111,6.54888 0.45386,13.51056 -2.48699,19.4901c-2.94085,5.97954 -8.08177,10.90799 -14.30168,13.29883c-6.21991,2.39084 -13.47019,2.1377 -19.36962,-0.96073c-2.94971,-1.54921 -5.54534,-3.7777 -7.48923,-6.48365c-1.94389,-2.70595 -3.22971,-5.88712 -3.67074,-9.1896c-0.60694,-4.54482 0.36686,-9.16432 1.81579,-13.51453c1.44893,-4.35022 3.35457,-8.53323 4.96169,-12.82752c3.21425,-8.58858 4.38165,-17.79745 4.38165,-26.96779c0,-0.5 0,-0.5 0,-0.5" stroke="#ff0000"></path><g stroke="#ff0000"><line x1="250.02201" y1="427.69469" x2="225.02201" y2="436.22995"></line><polyline points="227.80346,426.62456 225.02201,436.22995 233.09681,442.1289"></polyline></g><line x1="275.02201" y1="50.85306" x2="275.02201" y2="419.15942" stroke="#000000"></line><path d="M275.02201,50.85306c0,-0.5 0,-0.5 0,-0.5c0,-8.66883 0.99802,-17.40212 4.10282,-25.49587c1.5524,-4.04687 3.44439,-7.95455 5.0882,-11.96516c1.64381,-4.01061 3.03701,-8.19077 3.2906,-12.51776c0.40297,-6.87605 -2.26879,-13.86834 -7.12843,-18.74957c-4.85964,-4.88123 -11.82335,-7.58198 -18.70503,-7.29047c-6.88168,0.29151 -13.57941,3.5608 -18.07062,8.78302c-4.49121,5.22222 -6.72027,12.31752 -6.05918,19.17357c0.40852,4.23668 1.84931,8.30509 3.4971,12.22951c1.64779,3.92442 3.50138,7.76337 5.0137,11.74196c3.02464,7.95719 3.97082,16.53708 3.97082,25.04974c0,0.5 0,0.5 0,0.5" stroke="#ff0000"></path><g stroke="#ff0000"><line x1="275.02201" y1="50.85306" x2="250.02201" y2="51.81204"></line><polyline points="255.43957,43.40668 250.02201,51.81204 256.06755,59.77768"></polyline></g><line x1="300.02201" y1="410.62416" x2="300.02201" y2="51.63682" stroke="#000000"></line><path d="M300.02201,410.62416c0,0.5 0,0.5 0,0.5c0,7.90667 0.71704,15.87399 3.23164,23.37014c2.5146,7.49615 6.46671,14.54946 7.92749,22.32002c1.23111,6.54888 0.45386,13.51056 -2.48699,19.4901c-2.94085,5.97954 -8.08177,10.90799 -14.30168,13.29883c-6.21991,2.39084 -13.47019,2.1377 -19.36962,-0.96073c-2.94971,-1.54921 -5.54534,-3.7777 -7.48923,-6.48365c-1.94389,-2.70595 -3.22971,-5.88712 -3.67074,-9.1896c-0.60694,-4.54482 0.36686,-9.16432 1.81579,-13.51453c1.44893,-4.35022 3.35457,-8.53323 4.96169,-12.82752c3.21425,-8.58858 4.38165,-17.79745 4.38165,-26.96779c0,-0.5 0,-0.5 0,-0.5" stroke="#ff0000"></path><g stroke="#ff0000"><line x1="300.02201" y1="410.62416" x2="275.02201" y2="419.15942"></line><polyline points="277.80346,409.55403 275.02201,419.15942 283.09681,425.05837"></polyline></g><line x1="325.02201" y1="54.87413" x2="325.02201" y2="402.0889" stroke="#000000"></line><path d="M325.02201,54.87413c0,-0.5 0,-0.5 0,-0.5c0,-8.32261 0.88063,-16.71331 3.78195,-24.51384c2.90133,-7.80052 7.40599,-15.14539 8.51104,-23.39431c0.91018,-6.79422 -0.82218,-13.92984 -4.84834,-19.47781c-4.02616,-5.54796 -10.323,-9.42391 -17.10853,-10.39675c-6.78553,-0.97283 -13.96587,1.00503 -19.21795,5.4102c-5.25208,4.40517 -8.46014,11.1886 -8.41117,18.04334c0.03159,4.42142 1.33537,8.73878 2.94902,12.85535c1.61365,4.11657 3.53198,8.10918 5.11762,12.23662c3.17127,8.25488 4.22636,17.15681 4.22636,25.99988c0,0.5 0,0.5 0,0.5" stroke="#ff0000"></path><g stroke="#ff0000"><line x1="325.02201" y1="54.87413" x2="300.02201" y2="51.63682"></line><polyline points="306.76223,44.24972 300.02201,51.63682 304.65832,60.4971"></polyline></g><line x1="350.02201" y1="393.55364" x2="350.02201" y2="61.67876" stroke="#000000"></line><path d="M350.02201,393.55364c0,0.5 0,0.5 0,0.5c0,7.90667 0.71704,15.87399 3.23164,23.37014c2.5146,7.49615 6.46671,14.54946 7.92749,22.32002c1.23111,6.54888 0.45386,13.51056 -2.48699,19.4901c-2.94085,5.97954 -8.08177,10.90799 -14.30168,13.29883c-6.21991,2.39084 -13.47019,2.1377 -19.36962,-0.96073c-2.94971,-1.54921 -5.54534,-3.7777 -7.48923,-6.48365c-1.94389,-2.70595 -3.22971,-5.88712 -3.67074,-9.1896c-0.60694,-4.54482 0.36686,-9.16432 1.81579,-13.51453c1.44893,-4.35022 3.35457,-8.53323 4.96169,-12.82752c3.21425,-8.58858 4.38165,-17.79745 4.38165,-26.96779c0,-0.5 0,-0.5 0,-0.5" stroke="#ff0000"></path><g stroke="#ff0000"><line x1="350.02201" y1="393.55364" x2="325.02201" y2="402.0889"></line><polyline points="327.80346,392.48351 325.02201,402.0889 333.09681,407.98785"></polyline></g><line x1="375.02201" y1="71.01184" x2="375.02201" y2="385.01838" stroke="#000000"></line><path d="M375.02201,71.01184c0,-0.5 0,-0.5 0,-0.5c0,-7.85166 0.69179,-15.76194 3.13893,-23.22251c2.44714,-7.46057 6.3002,-14.48985 7.78218,-22.20038c1.25044,-6.50585 0.58906,-13.4195 -2.19773,-19.42979c-2.78679,-6.01028 -7.74178,-11.05265 -13.84566,-13.62798c-6.10388,-2.57533 -13.31686,-2.57145 -19.27809,0.31878c-2.98062,1.44512 -5.62954,3.58068 -7.63817,6.21466c-2.00862,2.63398 -3.37013,5.76444 -3.88258,9.03703c-0.71226,4.54864 0.20005,9.20815 1.61491,13.58943c1.41486,4.38128 3.31094,8.59019 4.91544,12.90563c3.209,8.63088 4.39077,17.87392 4.39077,27.08205c0,0.5 0,0.5 0,0.5" stroke="#ff0000"></path><g stroke="#ff0000"><line x1="375.02201" y1="71.01184" x2="350.02201" y2="61.67876"></line><polyline points="358.26048,56.01064 350.02201,61.67876 352.53058,71.359"></polyline></g><line x1="400.02201" y1="376.48311" x2="400.02201" y2="83.607" stroke="#000000"></line><path d="M400.02201,376.48311c0,0.5 0,0.5 0,0.5c0,7.90667 0.71704,15.87399 3.23164,23.37014c2.5146,7.49615 6.46671,14.54946 7.92749,22.32002c1.23111,6.54888 0.45386,13.51056 -2.48699,19.4901c-2.94085,5.97954 -8.08177,10.90799 -14.30168,13.29883c-6.21991,2.39084 -13.47019,2.1377 -19.36962,-0.96073c-2.94971,-1.54921 -5.54534,-3.7777 -7.48923,-6.48365c-1.94389,-2.70595 -3.22971,-5.88712 -3.67074,-9.1896c-0.60694,-4.54482 0.36686,-9.16432 1.81579,-13.51453c1.44893,-4.35022 3.35457,-8.53323 4.96169,-12.82752c3.21425,-8.58858 4.38165,-17.79745 4.38165,-26.96779c0,-0.5 0,-0.5 0,-0.5" stroke="#ff0000"></path><g stroke="#ff0000"><line x1="400.02201" y1="376.48311" x2="375.02201" y2="385.01838"></line><polyline points="377.80346,375.41299 375.02201,385.01838 383.09681,390.91733"></polyline></g><line x1="425.02201" y1="102.63188" x2="425.02201" y2="367.94785" stroke="#000000"></line><path d="M425.02201,102.63188c0,-0.5 0,-0.5 0,-0.5c0,-7.44779 0.39812,-14.92427 1.95859,-22.20675c1.56047,-7.28248 4.07688,-14.34332 5.43592,-21.66606c1.11648,-6.01577 1.36886,-12.25265 0.09086,-18.23619c-1.278,-5.98353 -4.15525,-11.71072 -8.64995,-15.86206c-4.4947,-4.15134 -10.67172,-6.60382 -16.76561,-6.05575c-3.04695,0.27403 -6.03466,1.28618 -8.57642,2.98867c-2.54176,1.70248 -4.62662,4.09894 -5.88791,6.88608c-1.94095,4.28904 -1.87217,9.24412 -0.96237,13.86316c0.90981,4.61903 2.58853,9.04455 4.07805,13.51048c2.97905,8.93186 4.27883,18.33799 4.27883,27.75356c0,0.5 0,0.5 0,0.5" stroke="#ff0000"></path><g stroke="#ff0000"><line x1="425.02201" y1="102.63188" x2="400.02201" y2="83.607"></line><polyline points="409.54708,80.56184 400.02201,83.607 399.62575,93.59915"></polyline></g><line x1="450.02201" y1="359.41259" x2="450.02201" y2="129.4506" stroke="#000000"></line><path d="M450.02201,359.41259c0,0.5 0,0.5 0,0.5c0,7.90667 0.71704,15.87399 3.23164,23.37014c2.5146,7.49615 6.46671,14.54946 7.92749,22.32002c1.23111,6.54888 0.45386,13.51056 -2.48699,19.4901c-2.94085,5.97954 -8.08177,10.90799 -14.30168,13.29883c-6.21991,2.39084 -13.47019,2.1377 -19.36962,-0.96073c-2.94971,-1.54921 -5.54534,-3.7777 -7.48923,-6.48365c-1.94389,-2.70595 -3.22971,-5.88712 -3.67074,-9.1896c-0.60694,-4.54482 0.36686,-9.16432 1.81579,-13.51453c1.44893,-4.35022 3.35457,-8.53323 4.96169,-12.82752c3.21425,-8.58858 4.38165,-17.79745 4.38165,-26.96779c0,-0.5 0,-0.5 0,-0.5" stroke="#ff0000"></path><g stroke="#ff0000"><line x1="450.02201" y1="359.41259" x2="425.02201" y2="367.94785"></line><polyline points="427.80346,358.34246 425.02201,367.94785 433.09681,373.8468"></polyline></g><line x1="475.02201" y1="165.48841" x2="475.02201" y2="350.87733" stroke="#000000"></line><path d="M475.02201,165.48841c0,-0.5 0,-0.5 0,-0.5c0,-15.6791 -0.03756,-31.40076 1.7498,-46.97765c0.63807,-5.56078 1.51243,-11.10895 1.62848,-16.70502c0.11605,-5.59606 -0.55977,-11.30672 -2.88791,-16.39682c-2.32814,-5.0901 -6.45879,-9.51635 -11.74325,-11.36132c-2.64223,-0.92249 -5.52964,-1.18007 -8.27213,-0.62233c-2.74249,0.55774 -5.32825,1.94493 -7.22478,4.00297c-1.51158,1.64031 -2.56648,3.67235 -3.19794,5.81169c-0.63146,2.13934 -0.85049,4.38663 -0.80243,6.6167c0.09613,4.46013 1.21267,8.8282 2.31116,13.15201c2.19699,8.64762 3.439,17.51963 3.439,26.44196c0,0.5 0,0.5 0,0.5" stroke="#ff0000"></path><g stroke="#ff0000"><line x1="475.02201" y1="165.48841" x2="450.02201" y2="129.4506"></line><polyline points="460.02191,129.49429 450.02201,129.4506 446.56078,138.8325"></polyline></g><line x1="500.02201" y1="320.93032" x2="500.02201" y2="239.94738" stroke="#000000"></line><path d="M500.02201,320.93032c0,0.5 0,0.5 0,0.5c0,15.1577 1.49448,30.26032 3.5213,45.2819c0.76484,5.66848 1.46617,11.37938 1.199,17.09298c-0.26717,5.7136 -1.55001,11.47752 -4.50754,16.3734c-2.95753,4.89588 -7.72144,8.85102 -13.30979,10.07043c-2.79418,0.6097 -5.75084,0.52523 -8.47455,-0.34688c-2.72371,-0.87211 -5.2025,-2.54258 -6.94973,-4.80672c-1.4038,-1.8191 -2.32077,-3.98738 -2.81439,-6.2315c-0.49362,-2.24413 -0.57433,-4.56597 -0.39909,-6.85705c0.35048,-4.58216 1.67669,-9.02558 2.93,-13.44692c2.50662,-8.84269 3.80478,-17.99153 3.80478,-27.18263c0,-0.5 0,-0.5 0,-0.5" stroke="#ff0000"></path><g stroke="#ff0000"><line x1="500.02201" y1="320.93032" x2="475.02201" y2="350.87733"></line><polyline points="472.40945,341.22463 475.02201,350.87733 484.98612,351.72374"></polyline></g><polygon points="1094.39047,730.4953 1083.79467,729.24203 1072.57357,730.04019 1061.3806,732.01 1050.8693,734.27176 1041.693,735.94556 1034.50533,736.15172 1029.95963,734.01043 1028.70953,728.64189 1031.40846,719.16632 1038.70995,704.7039 1049.58007,673.55685 1056.88096,641.33891 1060.59333,608.48848 1060.69784,575.44414 1057.17519,542.64423 1050.00585,510.52734 1039.1706,479.53185 1024.64994,450.0962 1006.42464,422.65894 984.47529,397.65848 970.63946,382.86133 960.357,366.45268 953.21085,348.72419 948.78412,329.96746 946.65977,310.47408 946.42083,290.53575 947.65022,270.44408 949.9312,250.49067 952.84648,230.96715 955.97932,212.16516 969.11337,174.81357 988.2886,140.58557 1012.713,109.85677 1041.59433,83.00273 1074.14038,60.39907 1109.55902,42.42139 1147.05802,29.44525 1185.84517,21.84625 1225.12834,20 1264.1153,24.28209 1294.55869,31.76268 1323.31689,43.07773 1350.22841,57.87102 1375.13189,75.78631 1397.86574,96.46731 1418.26859,119.55784 1436.17896,144.7016 1451.43518,171.54239 1463.87597,199.72395 1473.33985,228.89002 1480,271.12652 1477.97511,313.13477 1468.09258,354.0381 1451.18078,392.95992 1428.06721,429.02362 1399.57986,461.35257 1366.54681,489.07014 1329.79565,511.2997 1290.15446,527.16457 1248.45093,535.78824 1234.08967,536.73262 1218.88912,536.6188 1203.19018,535.62894 1187.33323,533.94518 1171.65885,531.74975 1156.50784,529.22483 1142.22058,526.5526 1129.13784,523.91524 1117.60013,521.49488 1107.94802,519.4738 1125.78241,550.48737 1140.79295,582.75712 1153.11179,616.08895 1162.87119,650.28874 1170.20329,685.16223 1175.24025,720.51529 1178.11433,756.15385 1178.95757,791.88355 1177.90223,827.51033 1175.08046,862.84 1169.12685,845.99617 1163.69937,828.859 1158.42455,811.83932 1152.92872,795.34786 1146.8382,779.79543 1139.77951,765.59277 1131.37899,753.15069 1121.26306,742.87992 1109.05805,735.19118" stroke="#000000"></polygon><polygon points="1005.67409,376.40513 994.52613,364.4826 987.18853,352.77334 981.88607,339.61878 978.40706,324.87766 976.64025,308.66506 976.43182,291.27311 977.54592,273.06566 979.67846,254.41072 982.48013,235.64809 985.14372,219.66232 996.55407,187.21269 1013.27896,157.35859 1034.79384,130.2903 1060.45984,106.42591 1089.55864,86.21641 1121.30807,70.10113 1154.88525,58.48209 1189.4526,51.70982 1224.18915,50.07726 1258.87566,53.88701 1285.44655,60.41604 1310.54707,70.29196 1334.18432,83.28538 1356.21646,99.13506 1376.46789,117.5578 1394.74618,138.24391 1410.85503,160.85857 1424.60361,185.04691 1435.81305,210.43915 1444.07445,235.89938 1449.88654,272.75777 1448.14673,308.85173 1439.54199,344.46635 1424.62476,378.79776 1404.04506,410.9079 1378.56543,439.82353 1349.03799,464.59959 1316.36961,484.3596 1281.47591,498.32448 1244.40988,505.98918 1233.21656,506.72525 1219.94617,506.62587 1205.71911,505.72882 1190.99877,504.16575 1176.20603,502.09381 1161.73182,499.68167 1147.94281,497.10264 1135.18181,494.53013 1131.9246,493.84684" fill="#ffffff" stroke="#008000"></polygon><path d="M1451.18078,392.95992c-0.19926,0.45858 -0.19926,0.45858 -0.19926,0.45858c-22.83999,52.56534 -49.26275,104.33929 -87.65535,146.89266c-38.3926,42.55336 -86.01349,75.4745 -132.81206,108.56037c-46.79856,33.08587 -92.79849,68.76415 -126.97429,114.77279c-34.17581,46.00864 -53.45716,101.12426 -68.82641,156.33808c-0.13408,0.48169 -0.13408,0.48169 -0.13408,0.48169" stroke="#ff0000"></path><g stroke="#ff0000"><line x1="1451.18078" y1="392.95992" x2="1034.57933" y2="920.46408"></line><polyline points="1031.70577,910.88584 1034.57933,920.46408 1044.56275,921.03976"></polyline></g><line x1="1176.43182" y1="502.12543" x2="1176.43182" y2="54.26079" stroke="#000000"></line><path d="M1176.43182,502.12543c0,0.5 0,0.5 0,0.5c0,8.92326 1.08153,17.90178 4.27452,26.23421c1.5965,4.16622 3.52037,8.20122 5.10918,12.37037c1.58881,4.16915 2.83541,8.55458 2.74286,13.01525c-0.1416,6.82464 -3.61381,13.47003 -9.03781,17.61442c-5.424,4.14439 -12.66958,5.75194 -19.37076,4.45196c-6.70118,-1.29998 -12.77106,-5.44474 -16.56117,-11.12196c-3.79011,-5.67722 -5.29236,-12.80318 -4.28338,-19.55431c1.21631,-8.13834 5.62111,-15.40117 8.45049,-23.12818c2.82939,-7.727 3.67607,-16.02326 3.67607,-24.25199c0,-0.5 0,-0.5 0,-0.5" stroke="#ff0000"></path><g stroke="#ff0000"><line x1="1176.43182" y1="502.12543" x2="1151.43182" y2="497.75521"></line><polyline points="1158.49246,490.67373 1151.43182,497.75521 1155.67134,506.81205"></polyline></g><line x1="1251.43182" y1="53.06942" x2="1251.43182" y2="504.53715" stroke="#000000"></line><path d="M1251.43182,53.06942c0,-0.5 0,-0.5 0,-0.5c0,-8.36364 0.8951,-16.79541 3.8255,-24.62887c2.93041,-7.83346 7.47478,-15.21718 8.52505,-23.51462c0.86207,-6.81059 -0.9739,-13.94456 -5.10189,-19.42972c-4.128,-5.48516 -10.5181,-9.23744 -17.33291,-10.06548c-6.81481,-0.82805 -13.958,1.30882 -19.13041,5.82253c-5.17241,4.5137 -8.26489,11.35009 -8.13589,18.21381c0.08274,4.40264 1.40876,8.6903 3.0312,12.78393c1.62243,4.09363 3.53683,8.0678 5.1166,12.17808c3.15955,8.22056 4.20276,17.08766 4.20276,25.8945c0,0.5 0,0.5 0,0.5" stroke="#ff0000"></path><g stroke="#ff0000"><line x1="1251.43182" y1="53.06942" x2="1226.43182" y2="50.32358"></line><polyline points="1233.02762,42.80724 1226.43182,50.32358 1231.23897,59.09234"></polyline></g><line x1="1351.43182" y1="95.69304" x2="1351.43182" y2="462.59096" stroke="#000000"></line><path d="M1351.43182,95.69304c0,-0.5 0,-0.5 0,-0.5c0,-7.4973 0.46571,-15.03046 2.24372,-22.31387c1.77801,-7.28341 4.62698,-14.29202 6.05655,-21.65176c1.18911,-6.12177 1.2874,-12.51716 -0.29389,-18.54954c-1.58128,-6.03238 -4.91146,-11.68438 -9.79987,-15.55652c-4.88841,-3.87214 -11.37751,-5.83586 -17.52284,-4.77516c-3.07266,0.53035 -6.02405,1.79944 -8.47784,3.72335c-2.45379,1.92392 -4.39969,4.50473 -5.50612,7.41992c-1.66882,4.39693 -1.39118,9.31511 -0.35122,13.90165c1.03996,4.58655 2.78431,8.97743 4.31298,13.42502c3.05734,8.89519 4.33852,18.30175 4.33852,27.70769c0,0.5 0,0.5 0,0.5" stroke="#ff0000"></path><g stroke="#ff0000"><line x1="1351.43182" y1="95.69304" x2="1326.43182" y2="79.02382"></line><polyline points="1335.74836,75.39035 1326.43182,79.02382 1326.65972,89.02123"></polyline></g><polygon points="1005.67409,376.40513 994.52613,364.4826 987.18853,352.77334 981.88607,339.61878 978.40706,324.87766 976.64025,308.66506 976.43182,291.27311 977.54592,273.06566 979.67846,254.41072 982.48013,235.64809 985.14372,219.66232 996.55407,187.21269 1013.27896,157.35859 1034.79384,130.2903 1060.45984,106.42591 1089.55864,86.21641 1121.30807,70.10113 1154.88525,58.48209 1189.4526,51.70982 1224.18915,50.07726 1258.87566,53.88701 1285.44655,60.41604 1310.54707,70.29196 1334.18432,83.28538 1356.21646,99.13506 1376.46789,117.5578 1394.74618,138.24391 1410.85503,160.85857 1424.60361,185.04691 1435.81305,210.43915 1444.07445,235.89938 1449.88654,272.75777 1448.14673,308.85173 1439.54199,344.46635 1424.62476,378.79776 1404.04506,410.9079 1378.56543,439.82353 1349.03799,464.59959 1316.36961,484.3596 1281.47591,498.32448 1244.40988,505.98918 1233.21656,506.72525 1219.94617,506.62587 1205.71911,505.72882 1190.99877,504.16575 1176.20603,502.09381 1161.73182,499.68167 1147.94281,497.10264 1135.18181,494.53013 1131.9246,493.84684" stroke="#000000"></polygon><path d="M1424.62476,378.79776c-0.19926,0.45858 -0.19926,0.45858 -0.19926,0.45858c-3.36858,7.75266 -7.63456,15.0716 -12.40308,22.05103c-2.38426,3.48971 -4.75741,7.03371 -6.32598,10.9583c-1.56857,3.92459 -2.27104,8.36027 -0.99735,12.39022c1.00725,3.18695 3.23451,5.94588 6.06152,7.72892c2.82701,1.78304 6.22482,2.60249 9.56384,2.45381c3.33903,-0.14868 6.6117,-1.24594 9.44897,-3.01259c2.83727,-1.76666 5.24402,-4.18994 7.12087,-6.95556c3.7537,-5.53123 5.34035,-12.30036 5.64311,-18.97816c0.30276,-6.67781 -0.6015,-13.34391 -1.44493,-19.97516c-0.84343,-6.63125 -1.62934,-13.32356 -1.08988,-19.98643c0.53946,-6.66287 2.49664,-13.36857 6.63308,-18.61973c2.06822,-2.62558 4.66542,-4.85315 7.64804,-6.36151c2.98262,-1.50836 6.35408,-2.28308 9.69,-2.07616c3.33592,0.20692 6.62518,1.41518 9.20955,3.53466c2.58437,2.11948 4.43101,5.15839 4.97734,8.45577c0.69169,4.17473 -0.68452,8.46918 -2.85763,12.10021c-2.17312,3.63103 -5.09889,6.74441 -8.02643,9.79995c-5.85507,6.11108 -11.25922,12.64962 -15.82598,19.77506c-0.2698,0.42096 -0.2698,0.42096 -0.2698,0.42096" stroke="#ff0000"></path><g stroke="#ff0000"><line x1="1424.62476" y1="378.79776" x2="1451.18078" y2="392.95992"></line><polyline points="1442.26512,397.48882 1451.18078,392.95992 1449.97434,383.03296"></polyline></g><line x1="1001.43182" y1="178.50587" x2="1001.43182" y2="371.86811" stroke="#000000"></line><path d="M1001.43182,178.50587c0,-0.5 0,-0.5 0,-0.5c0,-16.50321 1.04944,-33.0302 0,-49.5c-1.61996,-25.42356 -10.01462,-50.32276 -23.69366,-71.81381c-13.67905,-21.49105 -32.57976,-39.56422 -54.40268,-52.70734c-43.64585,-26.28624 -98.3173,-32.01848 -147.58399,-19.02928c-49.26669,12.9892 -93.00046,43.82008 -124.97269,83.49001c-31.97222,39.66993 -52.54279,87.82995 -63.11049,137.6722c-21.13541,99.6845 -3.08021,203.29814 20.57606,302.41467c23.65628,99.11653 53.08401,198.16003 54.77959,300.04639c0.27456,16.49793 0,32.99978 0,49.5c0,0.5 0,0.5 0,0.5" stroke="#ff0000"></path><g stroke="#ff0000"><line x1="1001.43182" y1="178.50587" x2="663.02395" y2="858.5787"></line><polyline points="658.24549,849.79426 663.02395,858.5787 672.91295,857.09287"></polyline></g><line x1="1026.43182" y1="395.71455" x2="1026.43182" y2="140.81073" stroke="#000000"></line><path d="M1026.43182,395.71455c0,0.5 0,0.5 0,0.5c0,9.36556 1.31655,18.70419 4.10528,27.64492c1.39436,4.47036 2.9244,8.93116 3.5739,13.56868c0.6495,4.63752 0.31746,9.60147 -2.08907,13.61856c-1.51891,2.53543 -3.82118,4.57881 -6.47937,5.87089c-2.65819,1.29209 -5.66056,1.83976 -8.61091,1.66389c-5.90069,-0.35173 -11.42439,-3.60317 -15.17413,-8.17277c-3.74974,-4.5696 -5.82689,-10.35399 -6.5907,-16.21559c-0.76382,-5.86161 -0.27564,-11.82295 0.6749,-17.65718c1.19631,-7.34269 3.05397,-14.56704 4.18721,-21.91973c1.13324,-7.35268 1.4029,-14.80861 1.4029,-22.24811c0,-0.5 0,-0.5 0,-0.5" stroke="#ff0000"></path><g stroke="#ff0000"><line x1="1026.43182" y1="395.71455" x2="1001.43182" y2="371.86811"></line><polyline points="1011.23615,369.8996 1001.43182,371.86811 999.92833,381.75444"></polyline></g><line x1="1051.43182" y1="114.82021" x2="1051.43182" y2="418.97024" stroke="#000000"></line><path d="M1051.43182,114.82021c0,-0.5 0,-0.5 0,-0.5c0,-9.31692 1.31492,-18.60065 4.00881,-27.51962c1.34694,-4.45948 2.80671,-8.92157 3.34645,-13.54865c0.26987,-2.31354 0.29813,-4.66589 -0.07664,-6.96477c-0.37477,-2.29888 -1.16212,-4.54699 -2.44761,-6.48937c-1.61018,-2.43298 -3.98494,-4.33499 -6.67409,-5.46659c-2.68915,-1.1316 -5.6808,-1.50107 -8.57795,-1.1567c-5.7943,0.68874 -11.03846,4.22097 -14.49005,8.92573c-3.45159,4.70476 -5.22437,10.48922 -5.79725,16.29612c-0.57287,5.8069 -0.0024,11.6684 0.87734,17.43679c1.12647,7.38618 2.70632,14.70137 3.66032,22.1118c0.95399,7.41043 1.17069,14.89421 1.17069,22.36579c0,0.5 0,0.5 0,0.5" stroke="#ff0000"></path><g stroke="#ff0000"><line x1="1051.43182" y1="114.82021" x2="1026.43182" y2="140.81073"></line><polyline points="1024.5044,130.99824 1026.43182,140.81073 1036.31176,142.35562"></polyline></g><line x1="1076.43182" y1="442.22593" x2="1076.43182" y2="95.33316" stroke="#000000"></line><path d="M1076.43182,442.22593c0,0.5 0,0.5 0,0.5c0,9.37628 1.31603,18.72753 4.1299,27.67162c1.40694,4.47204 2.95597,8.93099 3.63648,13.56947c0.68051,4.63849 0.39491,9.60581 -1.96167,13.65861c-1.49139,2.56486 -3.77132,4.64905 -6.41904,5.98782c-2.64772,1.33877 -5.65156,1.93861 -8.61582,1.81249c-5.92852,-0.25225 -11.53106,-3.41893 -15.3667,-7.94648c-3.83565,-4.52756 -6.00196,-10.30983 -6.82206,-16.18677c-0.82011,-5.87694 -0.35656,-11.86822 0.6142,-17.72216c1.21622,-7.33413 3.15226,-14.53516 4.33614,-21.87458c1.18388,-7.33942 1.46857,-14.79143 1.46857,-22.22571c0,-0.5 0,-0.5 0,-0.5" stroke="#ff0000"></path><g stroke="#ff0000"><line x1="1076.43182" y1="442.22593" x2="1051.43182" y2="418.97024"></line><polyline points="1061.21074,416.87914 1051.43182,418.97024 1050.05222,428.87462"></polyline></g><line x1="1101.43182" y1="80.18986" x2="1101.43182" y2="465.48162" stroke="#000000"></line><path d="M1101.43182,80.18986c0,-0.5 0,-0.5 0,-0.5c0,-9.38643 1.26557,-18.7804 4.36718,-27.63957c1.55081,-4.42959 3.33422,-8.79173 4.45772,-13.34848c1.1235,-4.55675 1.53793,-9.43887 0.05816,-13.89269c-0.99581,-2.99718 -2.83893,-5.6985 -5.22244,-7.77061c-2.38351,-2.07211 -5.29767,-3.51612 -8.37551,-4.22439c-6.15568,-1.41654 -12.83509,0.19281 -17.98394,3.85182c-5.14885,3.659 -8.79359,9.23773 -10.59239,15.29275c-1.7988,6.05502 -1.81945,12.55911 -0.59184,18.75524c1.46661,7.40244 4.53158,14.38996 6.45179,21.6879c1.92021,7.29794 2.43127,14.88502 2.43127,22.43135c0,0.5 0,0.5 0,0.5" stroke="#ff0000"></path><g stroke="#ff0000"><line x1="1101.43182" y1="80.18986" x2="1076.43182" y2="95.33316"></line><polyline points="1077.09375,85.35509 1076.43182,95.33316 1085.58174,99.36787"></polyline></g><line x1="1126.43182" y1="488.73731" x2="1126.43182" y2="68.32811" stroke="#000000"></line><path d="M1126.43182,488.73731c0,0.5 0,0.5 0,0.5c0,9.37628 1.31603,18.72753 4.1299,27.67162c1.40694,4.47204 2.95597,8.93099 3.63648,13.56947c0.68051,4.63849 0.39491,9.60581 -1.96167,13.65861c-1.49139,2.56486 -3.77132,4.64905 -6.41904,5.98782c-2.64772,1.33877 -5.65156,1.93861 -8.61582,1.81249c-5.92852,-0.25225 -11.53106,-3.41893 -15.3667,-7.94648c-3.83565,-4.52756 -6.00196,-10.30983 -6.82206,-16.18677c-0.82011,-5.87694 -0.35656,-11.86822 0.6142,-17.72216c1.21622,-7.33413 3.15226,-14.53516 4.33614,-21.87458c1.18388,-7.33942 1.46857,-14.79143 1.46857,-22.22571c0,-0.5 0,-0.5 0,-0.5" stroke="#ff0000"></path><g stroke="#ff0000"><line x1="1126.43182" y1="488.73731" x2="1101.43182" y2="465.48162"></line><polyline points="1111.21074,463.39052 1101.43182,465.48162 1100.05222,475.38599"></polyline></g><line x1="1151.43182" y1="59.67712" x2="1151.43182" y2="497.75521" stroke="#000000"></line><path d="M1151.43182,59.67712c0,-0.5 0,-0.5 0,-0.5c0,-9.17602 1.16952,-18.39005 4.38318,-26.98492c1.60683,-4.29744 3.51119,-8.48426 4.9553,-12.83907c1.44411,-4.35481 2.40914,-8.98023 1.78701,-13.52586c-0.45142,-3.2983 -1.74833,-6.4723 -3.70179,-9.16795c-1.95346,-2.69565 -4.55708,-4.91077 -7.51156,-6.44491c-5.90897,-3.06828 -13.15452,-3.28495 -19.35798,-0.86682c-6.20346,2.41813 -11.31745,7.36379 -14.23572,13.34827c-2.91827,5.98448 -3.67826,12.93943 -2.44392,19.48211c1.4643,7.76161 5.40224,14.81113 7.90718,22.30193c2.50493,7.4908 3.21831,15.44969 3.21831,23.34822c0,0.5 0,0.5 0,0.5" stroke="#ff0000"></path><g stroke="#ff0000"><line x1="1151.43182" y1="59.67712" x2="1126.43182" y2="68.32811"></line><polyline points="1129.17348,58.71129 1126.43182,68.32811 1134.53097,74.19358"></polyline></g><line x1="1201.43182" y1="51.14682" x2="1201.43182" y2="505.27358" stroke="#000000"></line><path d="M1201.43182,51.14682c0,-0.5 0,-0.5 0,-0.5c0,-8.83406 1.05213,-17.72733 4.22059,-25.97363c1.58423,-4.12315 3.50166,-8.11113 5.11763,-12.22195c1.61597,-4.11081 2.92548,-8.42073 2.97007,-12.83753c0.06922,-6.85722 -3.10987,-13.65435 -8.34224,-18.08703c-5.23237,-4.43268 -12.40389,-6.45057 -19.19719,-5.51392c-6.79331,0.93665 -13.11387,4.78195 -17.16563,10.31454c-4.05176,5.53259 -5.80992,12.66814 -4.91152,19.46661c1.09168,8.26108 5.60652,15.61551 8.51527,23.42425c2.90875,7.80874 3.79302,16.20975 3.79302,24.54264c0,0.5 0,0.5 0,0.5" stroke="#ff0000"></path><g stroke="#ff0000"><line x1="1201.43182" y1="51.14682" x2="1176.43182" y2="54.26079"></line><polyline points="1181.11109,45.42313 1176.43182,54.26079 1183.1361,61.68053"></polyline></g><line x1="1226.43182" y1="506.67444" x2="1226.43182" y2="50.32358" stroke="#000000"></line><path d="M1226.43182,506.67444c0,0.5 0,0.5 0,0.5c0,8.70377 1.00949,17.4711 4.12961,25.5964c1.56006,4.06265 3.45879,7.98662 5.09888,12.01763c1.6401,4.031 3.01872,8.23757 3.23235,12.58421c0.33795,6.87591 -2.43757,13.83504 -7.37766,18.6296c-4.9401,4.79456 -11.95457,7.35839 -18.82563,6.93309c-6.87106,-0.42529 -13.49767,-3.81864 -17.90043,-9.1109c-4.40275,-5.29227 -6.53248,-12.40209 -5.81797,-19.24912c0.43986,-4.21509 1.88801,-8.25869 3.53392,-12.164c1.64591,-3.90531 3.48855,-7.72905 4.99008,-11.69211c3.00306,-7.92613 3.93684,-16.4697 3.93684,-24.94566c0,-0.5 0,-0.5 0,-0.5" stroke="#ff0000"></path><g stroke="#ff0000"><line x1="1226.43182" y1="506.67444" x2="1201.43182" y2="505.27358"></line><polyline points="1207.61689,497.41578 1201.43182,505.27358 1206.70031,513.77317"></polyline></g><line x1="1276.43182" y1="499.36752" x2="1276.43182" y2="58.20093" stroke="#000000"></line><path d="M1276.43182,499.36752c0,0.5 0,0.5 0,0.5c0,8.16351 0.8223,16.3938 3.59703,24.07128c2.77473,7.67749 7.10246,14.88888 8.38502,22.95101c1.06855,6.71683 -0.2793,13.82558 -3.90284,19.58124c-3.62354,5.75566 -9.52466,10.07596 -16.15297,11.60014c-6.62831,1.52418 -13.90288,0.17952 -19.43773,-3.77309c-5.53484,-3.95261 -9.19034,-10.48772 -9.47057,-17.28325c-0.18493,-4.48458 1.01655,-8.91735 2.58416,-13.12309c1.56761,-4.20574 3.49252,-8.27036 5.09451,-12.46312c3.20398,-8.38553 4.30339,-17.41472 4.30339,-26.3915c0,-0.5 0,-0.5 0,-0.5" stroke="#ff0000"></path><g stroke="#ff0000"><line x1="1276.43182" y1="499.36752" x2="1251.43182" y2="504.53715"></line><polyline points="1255.38996,495.35384 1251.43182,504.53715 1258.70754,511.39746"></polyline></g><line x1="1301.43182" y1="66.70552" x2="1301.43182" y2="490.33789" stroke="#000000"></line><path d="M1301.43182,66.70552c0,-0.5 0,-0.5 0,-0.5c0,-7.90884 0.71801,-15.8784 3.23517,-23.37597c2.51716,-7.49758 6.47301,-14.55191 7.93283,-22.32486c1.23024,-6.55052 0.44838,-13.51397 -2.49846,-19.49217c-2.94684,-5.9782 -8.0949,-10.90205 -14.31915,-13.28563c-6.22425,-2.38358 -13.47575,-2.12076 -19.37261,0.98566c-2.94843,1.55321 -5.54192,3.78524 -7.48327,6.4939c-1.94134,2.70867 -3.22422,5.89173 -3.6625,9.19531c-0.60292,4.54459 0.37319,9.16251 1.82339,13.5115c1.4502,4.349 3.35617,8.53099 4.96337,12.82444c3.2144,8.58691 4.38123,17.7944 4.38123,26.96322c0,0.5 0,0.5 0,0.5" stroke="#ff0000"></path><g stroke="#ff0000"><line x1="1301.43182" y1="66.70552" x2="1276.43182" y2="58.20093"></line><polyline points="1284.50013,52.29311 1276.43182,58.20093 1279.22383,67.80326"></polyline></g><line x1="1326.43182" y1="478.27331" x2="1326.43182" y2="79.02382" stroke="#000000"></line><path d="M1326.43182,478.27331c0,0.5 0,0.5 0,0.5c0,7.68573 0.60569,15.42214 2.8106,22.78481c2.20491,7.36267 5.69845,14.34528 7.20474,21.88196c1.27053,6.35705 0.95201,13.08511 -1.33918,19.1495c-2.29119,6.06439 -6.61389,11.41753 -12.28481,14.55872c-5.67092,3.14118 -12.68173,3.94479 -18.78664,1.76386c-3.05245,-1.09047 -5.8523,-2.90015 -8.05878,-5.27461c-2.20648,-2.37446 -3.81126,-5.31301 -4.56127,-8.46643c-1.07745,-4.53016 -0.39113,-9.31046 0.8943,-13.78605c1.28543,-4.47559 3.1369,-8.76481 4.723,-13.14289c3.17221,-8.75614 4.39804,-18.09125 4.39804,-27.4043c0,-0.5 0,-0.5 0,-0.5" stroke="#ff0000"></path><g stroke="#ff0000"><line x1="1326.43182" y1="478.27331" x2="1301.43182" y2="490.33789"></line><polyline points="1303.03732,480.46761 1301.43182,490.33789 1310.15773,495.2224"></polyline></g><line x1="1376.43182" y1="441.61381" x2="1376.43182" y2="117.52499" stroke="#000000"></line><path d="M1376.43182,441.61381c0,0.5 0,0.5 0,0.5c0,7.43004 0.3445,14.88337 1.72841,22.18339c1.38391,7.30002 3.62884,14.41915 4.92283,21.73565c1.04992,5.93651 1.40837,12.05334 0.35437,17.98914c-1.05399,5.93579 -3.58702,11.69854 -7.76858,16.04125c-4.18156,4.34271 -10.0928,7.1493 -16.11934,6.98993c-3.01327,-0.07969 -6.01499,-0.89326 -8.61302,-2.42179c-2.59803,-1.52853 -4.781,-3.77696 -6.15591,-6.45945c-2.14515,-4.18525 -2.24417,-9.15423 -1.44144,-13.78819c0.80272,-4.63396 2.42317,-9.07939 3.87633,-13.55223c2.90632,-8.94568 4.21635,-18.33458 4.21635,-27.74054c0,-0.5 0,-0.5 0,-0.5" stroke="#ff0000"></path><g stroke="#ff0000"><line x1="1376.43182" y1="441.61381" x2="1351.43182" y2="462.59096"></line><polyline points="1350.56034,452.62901 1351.43182,462.59096 1361.09105,465.17923"></polyline></g><line x1="1401.43182" y1="147.62964" x2="1401.43182" y2="413.87355" stroke="#000000"></line><path d="M1401.43182,147.62964c0,-0.5 0,-0.5 0,-0.5c0,-15.16853 1.45283,-30.28585 3.4717,-45.31942c0.76076,-5.66503 1.46691,-11.37075 1.21086,-17.0809c-0.25605,-5.71015 -1.52111,-11.4729 -4.46042,-16.37512c-2.93931,-4.90223 -7.68517,-8.87202 -13.26531,-10.11033c-2.79007,-0.61916 -5.74508,-0.54493 -8.4697,0.31779c-2.72462,0.86272 -5.20689,2.52476 -6.95884,4.78275c-1.40766,1.81425 -2.32911,3.97915 -2.82697,6.22083c-0.49786,2.24168 -0.5826,4.56198 -0.41094,6.85185c0.34332,4.57975 1.66415,9.02189 2.91359,13.44127c2.49888,8.83876 3.79603,17.98142 3.79603,27.16663c0,0.5 0,0.5 0,0.5" stroke="#ff0000"></path><g stroke="#ff0000"><line x1="1401.43182" y1="147.62964" x2="1376.43182" y2="117.52499"></line><polyline points="1386.39808,116.7043 1376.43182,117.52499 1373.79434,127.1709"></polyline></g><line x1="1426.43182" y1="374.63888" x2="1426.43182" y2="189.18827" stroke="#000000"></line><path d="M1426.43182,374.63888c0,0.5 0,0.5 0,0.5c0,16.0219 -0.78453,32.10428 0.93431,48.03371c0.59586,5.52215 1.55458,11.00997 1.84123,16.55678c0.28664,5.54681 -0.12603,11.22765 -2.17853,16.3887c-2.0525,5.16105 -5.90186,9.77292 -11.04353,11.87352c-2.57083,1.0503 -5.42192,1.44908 -8.16585,1.02111c-2.74393,-0.42797 -5.369,-1.69843 -7.32194,-3.67285c-1.53872,-1.55565 -2.63997,-3.51427 -3.32417,-5.59262c-0.6842,-2.07836 -0.96228,-4.27659 -0.97207,-6.46465c-0.01957,-4.37612 0.98723,-8.68545 2.00147,-12.94246c2.0285,-8.51401 3.22907,-17.21423 3.22907,-25.96656c0,-0.5 0,-0.5 0,-0.5" stroke="#ff0000"></path><g stroke="#ff0000"><line x1="1426.43182" y1="374.63888" x2="1401.43182" y2="413.87355"></line><polyline points="1397.60578,404.63442 1401.43182,413.87355 1411.42234,413.43822"></polyline></g><polygon points="606.64435,773.7486 605.55117,771.20669 604.38888,768.31627 603.18093,765.14618 601.95089,761.76539 600.72234,758.24303 599.5188,754.64776 598.36385,751.04883 597.28102,747.51488 596.29393,744.11506 595.42607,740.91823 594.16299,735.97122 593.1497,731.62385 592.36655,727.55723 591.7937,723.45237 591.41151,718.99028 591.20025,713.85197 591.14022,707.71855 591.21169,700.27094 591.39491,691.19024 591.67022,680.15746 592.50955,656.53965 593.75682,636.15944 595.47917,618.79026 597.7434,604.2056 600.61659,592.1789 604.16569,582.48375 608.45764,574.89358 613.55939,569.18184 619.53797,565.1221 626.46034,562.48781 631.96003,561.44104 637.26041,561.29641 642.32888,562.03256 647.13314,563.6283 651.6406,566.06243 655.81887,569.31369 659.63545,573.36085 663.05795,578.18264 666.05397,583.75788 668.59113,590.0653 669.8764,594.69694 671.15008,600.96801 672.38394,608.60404 673.54973,617.33049 674.61934,626.87293 675.56452,636.95681 676.35714,647.30773 676.96906,657.65111 677.37206,667.71251 677.53789,677.21741 677.49391,685.88402 677.26457,693.78347 676.8173,701.10923 676.11948,708.05528 675.13834,714.81498 673.84148,721.58222 672.19611,728.55055 670.16973,735.91366 667.72966,743.86532 664.8433,752.599 663.16563,757.5044 661.75415,761.48008 660.531,764.64313 659.4184,767.11074 658.33859,768.99982 657.2138,770.42754 655.96608,771.51102 654.51765,772.36714 652.79074,773.1131 650.70751,773.86599 649.25392,774.38133 647.51107,775.01624 645.52521,775.75288 643.34251,776.57354 641.00933,777.46077 638.57174,778.39673 636.07599,779.3639 633.56836,780.34445 631.0949,781.32084 628.70198,782.27543 626.40209,783.19416 624.19799,784.06682 622.12099,784.88153 620.2024,785.6263 618.47371,786.28935 616.96604,786.85848 615.71098,787.322 614.73975,787.66784 614.08364,787.8841 613.77416,787.95879 613.56721,787.77195 613.20791,787.23126 612.71109,786.36652 612.09194,785.20775 611.3653,783.78458 610.54623,782.12693 609.64959,780.2647 608.69044,778.22763 607.68364,776.04572" stroke="#000000"></polygon><polygon points="626.98951,742.07049 626.02958,738.93763 625.17733,736.00224 624.43753,733.27713 623.30839,728.85471 622.4985,725.37996 621.97163,722.64415 621.61612,720.09668 621.35885,717.09304 621.19422,713.08878 621.14163,707.71569 621.20879,700.7175 621.38737,691.86702 621.65692,681.0644 622.47698,657.98892 623.66624,638.55674 625.25106,622.57444 627.20297,610.00156 629.38926,600.85009 631.49132,595.10784 632.98264,592.47049 633.47094,591.92381 633.48781,591.91235 634.66297,591.46515 635.1947,591.36394 635.30174,591.36102 635.57527,591.57387 636.37877,592.42591 637.51469,594.02625 638.8414,596.49509 640.13222,599.7041 640.68666,601.7021 641.63036,606.3485 642.70252,612.98384 643.77183,620.98803 644.77569,629.9439 645.6716,639.50211 646.42486,649.33902 647.00454,659.13744 647.38254,668.57461 647.53657,677.40297 647.49612,685.37252 647.29112,692.4337 646.90885,698.69479 646.33574,704.39952 645.54685,709.83463 644.49773,715.30915 643.12545,721.1209 641.36126,727.53133 639.14398,734.75694 636.40727,743.03781 635.77138,744.89711 627.99651,745.2084" fill="#ffffff" stroke="#008000"></polygon><path d="M614.08364,787.8841c-0.47487,0.15652 -0.47487,0.15652 -0.47487,0.15652c-7.91858,2.61004 -16.02439,4.59704 -24.20849,6.18976c-4.09205,0.79636 -8.196,1.61822 -12.13141,2.99358c-3.93541,1.37536 -7.73493,3.35396 -10.67218,6.31227c-2.50694,2.5249 -4.31695,5.72006 -5.2786,9.14572c-0.96164,3.42566 -1.08137,7.07421 -0.43314,10.57273c1.29647,6.99705 5.66743,13.24616 11.42741,17.42494c5.75998,4.17878 12.8199,6.37192 19.91722,6.88913c7.09733,0.5172 14.24346,-0.58099 21.08823,-2.52745c15.87957,-4.51572 30.58038,-12.37886 45.8833,-18.57345c0.46347,-0.18761 0.46347,-0.18761 0.46347,-0.18761" stroke="#ff0000"></path><g stroke="#ff0000"><line x1="614.08364" y1="787.8841" x2="659.66457" y2="826.28023"></line><polyline points="650.00037,828.8499 659.66457,826.28023 660.55523,816.31998"></polyline></g><polygon points="626.98951,742.07049 626.02958,738.93763 625.17733,736.00224 624.43753,733.27713 623.30839,728.85471 622.4985,725.37996 621.97163,722.64415 621.61612,720.09668 621.35885,717.09304 621.19422,713.08878 621.14163,707.71569 621.20879,700.7175 621.38737,691.86702 621.65692,681.0644 622.47698,657.98892 623.66624,638.55674 625.25106,622.57444 627.20297,610.00156 629.38926,600.85009 631.49132,595.10784 632.98264,592.47049 633.47094,591.92381 633.48781,591.91235 634.66297,591.46515 635.1947,591.36394 635.30174,591.36102 635.57527,591.57387 636.37877,592.42591 637.51469,594.02625 638.8414,596.49509 640.13222,599.7041 640.68666,601.7021 641.63036,606.3485 642.70252,612.98384 643.77183,620.98803 644.77569,629.9439 645.6716,639.50211 646.42486,649.33902 647.00454,659.13744 647.38254,668.57461 647.53657,677.40297 647.49612,685.37252 647.29112,692.4337 646.90885,698.69479 646.33574,704.39952 645.54685,709.83463 644.49773,715.30915 643.12545,721.1209 641.36126,727.53133 639.14398,734.75694 636.40727,743.03781 635.77138,744.89711 627.99651,745.2084" stroke="#000000"></polygon><line x1="646.14163" y1="705.73686" x2="646.14163" y2="645.64029" stroke="#000000"></line><path d="M646.14163,645.64029c0,-0.5 0,-0.5 0,-0.5c0,-5.89872 0.1429,-11.82827 1.2527,-17.62165c1.10981,-5.79338 3.14165,-11.37286 5.52012,-16.7708c2.37847,-5.39794 5.09281,-10.68199 6.73769,-16.34672c0.82244,-2.83237 1.3614,-5.76301 1.36698,-8.71236c0.00558,-2.94935 -0.53624,-5.92447 -1.80537,-8.5868c-1.54734,-3.24598 -4.16602,-5.95466 -7.31326,-7.69405c-3.14724,-1.7394 -6.80448,-2.51467 -10.3938,-2.29694c-3.58932,0.21773 -7.10243,1.41678 -10.12891,3.35869c-3.02648,1.94192 -5.56662,4.61614 -7.43395,7.6892c-3.73466,6.14613 -4.68337,13.77171 -3.28418,20.82613c1.39919,7.05442 5.02368,13.55036 9.74018,18.97965c3.92644,4.51982 8.54246,8.51622 11.59185,13.66859c1.5247,2.57618 2.64993,5.3869 3.32802,8.30265c0.67809,2.91575 0.89882,5.91568 1.07562,8.90402c0.02953,0.49913 0.02953,0.49913 0.02953,0.49913" stroke="#ff0000"></path><g stroke="#ff0000"><line x1="646.14163" y1="645.64029" x2="646.42486" y2="649.33902"></line><polyline points="637.81931,644.24543 646.42486,649.33902 654.15453,642.99456"></polyline></g><polygon points="821.75109,792.09535 821.01117,791.69434 819.82972,791.15305 818.25241,790.48881 816.325,789.71898 814.09316,788.86088 811.60286,787.93185 808.89967,786.94912 806.02926,785.92994 803.0376,784.89184 799.97025,783.85195 781.24318,777.57915 778.24943,767.02287 775.08381,754.63459 772.46443,741.7487 770.39397,728.4186 768.87491,714.69809 767.90981,700.64085 767.50147,686.30049 767.65225,671.73069 768.36492,656.9851 769.64197,642.11741 771.48596,627.18122 773.37454,614.52338 775.19674,603.72553 777.0129,594.62527 778.88315,587.06001 780.86782,580.86736 783.02715,575.88478 785.42135,571.94986 788.11077,568.9 791.15553,566.57286 794.61608,564.80584 797.6332,563.7611 800.99973,562.97204 804.61263,562.43615 808.36888,562.15114 812.16536,562.11463 815.89912,562.32426 819.46705,562.77763 822.76611,563.47237 825.69319,564.40616 828.14534,565.57656 832.61021,569.16183 836.56548,574.36953 840.02067,581.24702 842.98529,589.84161 845.46866,600.20055 847.48027,612.37124 849.02945,626.40089 850.1259,642.33684 850.77884,660.22641 850.99768,680.11694 850.98698,691.28554 850.92794,700.57992 850.79588,708.29937 850.56605,714.74296 850.21387,720.20977 849.71478,724.99887 849.04401,729.40965 848.1769,733.74097 847.08887,738.29202 845.75515,743.36207 843.85419,750.08364 841.75817,756.93191 839.53931,763.71687 837.27013,770.24873 835.02294,776.33727 832.87025,781.79278 830.8844,786.42507 829.13778,790.04431 827.70292,792.46041 826.65194,793.48355 826.31333,793.55181 825.91351,793.56627 825.46296,793.52981 824.9718,793.44551 824.45051,793.31603 823.90932,793.14455 823.35842,792.93374 822.80831,792.68667 822.2691,792.40622" stroke="#000000"></polygon><polygon points="809.18243,755.29942 805.94016,754.21339 804.33422,747.92876 802.00201,736.4556 800.13943,724.46384 798.76159,712.01888 797.88054,699.18591 797.50589,686.02865 797.64475,672.61035 798.30286,658.99361 799.48421,645.2401 801.21346,631.23332 803.00388,619.23339 804.70408,609.15848 806.29952,601.16418 807.76228,595.24723 808.73583,592.20953 809.64939,592.14021 811.46802,592.12273 811.92424,592.14834 812.31393,592.92402 814.1509,598.2495 816.04517,606.15111 817.75015,616.46659 819.14272,629.07797 820.16349,643.91398 820.78486,660.93865 820.99752,680.2676 820.98707,691.17588 820.92957,700.22807 820.80503,707.50806 820.60045,713.24366 820.31403,717.68969 819.94959,721.18677 819.49027,724.20709 818.8698,727.30643 817.98981,730.98726 816.81237,735.46326 815.07381,741.61059 813.15535,747.87871 811.11063,754.13121 810.5566,755.72597" fill="#ffffff" stroke="#008000"></polygon><path d="M830.8844,786.42507c-0.19701,0.45955 -0.19701,0.45955 -0.19701,0.45955c-6.5051,15.17403 -14.70747,29.69806 -19.50394,45.49557c-5.23781,17.25107 -4.66553,36.48685 3.05113,52.78063c3.85833,8.14689 9.45044,15.49201 16.41118,21.21971c6.96074,5.72771 15.29227,9.81645 24.12526,11.61558c8.83299,1.79913 18.15353,1.28358 26.66891,-1.6739c8.51539,-2.95748 16.19134,-8.37237 21.67313,-15.52838c5.48179,-7.15601 8.72202,-16.041 8.93146,-25.05292c0.20944,-9.01192 -2.64804,-18.09909 -8.13805,-25.2488c-5.03858,-6.56182 -11.96689,-11.3711 -18.75323,-16.10293c-6.78635,-4.73183 -13.45369,-9.63359 -19.91676,-14.79823c-0.39061,-0.31213 -0.39061,-0.31213 -0.39061,-0.31213" stroke="#ff0000"></path><g stroke="#ff0000"><line x1="830.8844" y1="786.42507" x2="864.84589" y2="819.27881"></line><polyline points="855.02795,821.1783 864.84589,819.27881 866.41888,809.4033"></polyline></g><polygon points="809.18243,755.29942 805.94016,754.21339 804.33422,747.92876 802.00201,736.4556 800.13943,724.46384 798.76159,712.01888 797.88054,699.18591 797.50589,686.02865 797.64475,672.61035 798.30286,658.99361 799.48421,645.2401 801.21346,631.23332 803.00388,619.23339 804.70408,609.15848 806.29952,601.16418 807.76228,595.24723 808.73583,592.20953 809.64939,592.14021 811.46802,592.12273 811.92424,592.14834 812.31393,592.92402 814.1509,598.2495 816.04517,606.15111 817.75015,616.46659 819.14272,629.07797 820.16349,643.91398 820.78486,660.93865 820.99752,680.2676 820.98707,691.17588 820.92957,700.22807 820.80503,707.50806 820.60045,713.24366 820.31403,717.68969 819.94959,721.18677 819.49027,724.20709 818.8698,727.30643 817.98981,730.98726 816.81237,735.46326 815.07381,741.61059 813.15535,747.87871 811.11063,754.13121 810.5566,755.72597" stroke="#000000"></polygon><path d="M805.94016,754.21339c-0.47411,-0.15881 -0.47411,-0.15881 -0.47411,-0.15881c-7.83783,-2.62535 -15.76017,-4.98866 -23.72846,-7.18649c-7.96829,-2.19783 -16.04859,-4.40496 -23.20842,-8.53544c-9.9129,-5.71873 -17.557,-15.1864 -21.27457,-26.00994c-3.71757,-10.82355 -3.52315,-22.90738 0.32495,-33.68521c3.8481,-10.77783 11.29022,-20.20067 20.75486,-26.63419c9.46463,-6.43352 20.89071,-9.87841 32.33443,-9.98199c11.44372,-0.10358 22.86776,3.10412 32.70709,8.94853c9.83933,5.8444 18.08441,14.28951 23.89637,24.14803c11.62393,19.71705 13.03703,44.72008 5.34344,66.27667c-5.54927,15.54843 -14.33877,29.71201 -21.51404,44.58022c-0.21731,0.45031 -0.21731,0.45031 -0.21731,0.45031" stroke="#ff0000"></path><g stroke="#ff0000"><line x1="805.94016" y1="754.21339" x2="830.8844" y2="786.42507"></line><polyline points="820.89594,786.90549 830.8844,786.42507 833.8492,776.87468"></polyline></g><polygon points="676.1603,942.73747 664.24544,939.62743 653.45666,936.07565 643.79742,932.08441 635.27109,927.6563 627.88093,922.79399 621.63042,917.49975 616.52292,911.77627 612.5618,905.62591 609.75034,899.05126 608.09199,892.05489 607.97965,883.15161 610.13501,874.06328 614.36112,864.97971 620.46115,856.0909 628.23836,847.58666 637.49589,839.65679 648.03691,832.49142 659.66457,826.28023 672.18214,821.21315 685.39267,817.48018 695.18862,815.65679 704.95416,814.56401 714.72871,814.20767 724.55151,814.59382 734.46198,815.72832 744.49965,817.61719 754.70375,820.26639 765.1137,823.68196 775.76885,827.86983 786.7087,832.83587 791.36595,835.12457 795.4085,837.2084 798.91203,839.14215 801.95194,840.9803 804.60372,842.77744 806.94284,844.58815 809.0449,846.46692 810.98539,848.46853 812.83969,850.64737 814.68339,853.05812 817.0562,856.49835 819.29021,860.12938 821.35919,863.88712 823.23697,867.70727 824.8976,871.52563 826.31482,875.27792 827.46259,878.89994 828.31475,882.32749 828.84524,885.49619 829.02782,888.34183 828.46206,892.96886 826.84214,897.94203 824.28409,903.1262 820.90369,908.38626 816.81715,913.58728 812.14039,918.59393 806.9894,923.27119 801.4802,927.48403 795.72868,931.09723 789.85085,933.97566 781.47886,936.86024 771.26129,939.38937 759.64046,941.52898 747.0586,943.24508 733.95823,944.50351 720.78158,945.27017 707.97118,945.511 695.96925,945.19191 685.21811,944.27873" stroke="#000000"></polygon><polygon points="682.47679,913.38107 672.73271,910.83764 663.88967,907.92642 656.46319,904.85777 650.46942,901.74494 645.88607,898.72934 642.61887,895.962 640.47168,893.55585 639.15194,891.50671 638.34724,889.62492 638.04777,888.36149 638.02395,886.4735 638.62165,883.95321 640.50872,879.89717 644.01226,874.7919 649.1431,869.18141 655.74316,863.5279 663.58096,858.20007 672.39607,853.49127 681.91838,849.63666 692.23075,846.72264 699.60747,845.34956 707.17187,844.50309 714.68589,844.22916 722.2531,844.52664 729.9762,845.41074 737.94873,846.911 746.24969,849.0661 754.94203,851.9181 764.07389,855.50728 773.88978,859.9631 777.87622,861.92214 781.28453,863.67904 783.89632,865.1206 785.76439,866.25017 786.98907,867.08015 787.74108,867.66228 788.25261,868.11947 788.76915,868.65229 789.48569,869.49423 790.40604,870.69764 791.91565,872.88636 793.35955,875.23319 794.74326,877.74634 796.00511,880.31344 797.09295,882.81476 797.96227,885.1164 798.57768,887.05844 798.63846,887.3029 798.13058,888.33216 796.43518,890.97028 794.01931,894.04501 791.05956,897.21354 787.75989,900.20974 784.35305,902.81492 781.11159,904.85126 778.32346,906.21663 772.97146,908.06067 764.93522,910.04986 754.89461,911.89852 743.59577,913.43963 731.65183,914.58697 719.62792,915.28656 708.08796,915.5035 697.63882,915.2257 689.01046,914.49282" fill="#ffffff" stroke="#008000"></polygon><path d="M659.66457,826.28023c0.44102,-0.23558 0.44102,-0.23558 0.44102,-0.23558c7.4392,-3.97382 15.29274,-7.09472 23.3254,-9.6656c4.01633,-1.28544 8.05463,-2.61686 11.71744,-4.7066c3.66282,-2.08974 6.98306,-5.06343 8.6184,-8.95045c1.32836,-3.15735 1.45036,-6.76376 0.57884,-10.07644c-0.87152,-3.31268 -2.70163,-6.33454 -5.05293,-8.82548c-4.70259,-4.98188 -11.27537,-7.75963 -17.85141,-9.68035c-6.57605,-1.92072 -13.37743,-3.13134 -19.7424,-5.66524c-3.18249,-1.26695 -6.25045,-2.86848 -8.95544,-4.96999c-2.705,-2.10152 -5.04298,-4.71752 -6.60187,-7.76764c-1.89738,-3.71241 -2.59023,-7.94114 -2.66486,-12.10965c-0.07463,-4.16851 0.43156,-8.32372 0.95833,-12.45948c1.05354,-8.27153 1.70653,-16.59252 1.70653,-24.93087c0,-0.5 0,-0.5 0,-0.5" stroke="#ff0000"></path><g stroke="#ff0000"><line x1="659.66457" y1="826.28023" x2="646.14163" y2="705.73686"></line><polyline points="654.92153,710.52365 646.14163,705.73686 638.64062,712.35009"></polyline></g><line x1="788.02395" y1="899.96996" x2="788.02395" y2="867.9151" stroke="#000000"></line><path d="M788.02395,867.9151c0,-0.5 0,-0.5 0,-0.5c0,-8.62011 0.67502,-17.23896 2.27712,-25.70888c0.80105,-4.23496 1.70949,-8.45554 2.21953,-12.73531c0.51005,-4.27977 0.60322,-8.66123 -0.37268,-12.85935c-1.69016,-7.27073 -6.731,-13.69252 -13.39664,-17.05249c-6.66564,-3.35998 -14.83078,-3.5916 -21.67231,-0.60603c-6.84153,2.98557 -12.22654,9.13365 -14.27542,16.31155c-2.04888,7.1779 -0.71874,15.2465 3.53366,21.38142c2.45891,3.54746 5.78498,6.41433 9.31758,8.89454c3.5326,2.48022 7.29144,4.61712 10.98988,6.8425c7.39687,4.45075 14.28712,9.69325 20.72361,15.44603c0.3728,0.3332 0.3728,0.3332 0.3728,0.3332" stroke="#ff0000"></path><g stroke="#ff0000"><line x1="788.02395" y1="867.9151" x2="787.74108" y2="867.66228"></line><polyline points="797.47645,865.37699 787.74108,867.66228 786.55885,877.59215"></polyline></g><polygon points="682.47679,913.38107 672.73271,910.83764 663.88967,907.92642 656.46319,904.85777 650.46942,901.74494 645.88607,898.72934 642.61887,895.962 640.47168,893.55585 639.15194,891.50671 638.34724,889.62492 638.04777,888.36149 638.02395,886.4735 638.62165,883.95321 640.50872,879.89717 644.01226,874.7919 649.1431,869.18141 655.74316,863.5279 663.58096,858.20007 672.39607,853.49127 681.91838,849.63666 692.23075,846.72264 699.60747,845.34956 707.17187,844.50309 714.68589,844.22916 722.2531,844.52664 729.9762,845.41074 737.94873,846.911 746.24969,849.0661 754.94203,851.9181 764.07389,855.50728 773.88978,859.9631 777.87622,861.92214 781.28453,863.67904 783.89632,865.1206 785.76439,866.25017 786.98907,867.08015 787.74108,867.66228 788.25261,868.11947 788.76915,868.65229 789.48569,869.49423 790.40604,870.69764 791.91565,872.88636 793.35955,875.23319 794.74326,877.74634 796.00511,880.31344 797.09295,882.81476 797.96227,885.1164 798.57768,887.05844 798.63846,887.3029 798.13058,888.33216 796.43518,890.97028 794.01931,894.04501 791.05956,897.21354 787.75989,900.20974 784.35305,902.81492 781.11159,904.85126 778.32346,906.21663 772.97146,908.06067 764.93522,910.04986 754.89461,911.89852 743.59577,913.43963 731.65183,914.58697 719.62792,915.28656 708.08796,915.5035 697.63882,915.2257 689.01046,914.49282" stroke="#000000"></polygon><path d="M787.74108,867.66228c0.39538,0.30606 0.39538,0.30606 0.39538,0.30606c6.59833,5.10775 12.76895,10.73773 18.64484,16.66234c2.93794,2.9623 5.90533,5.92049 9.25138,8.41262c3.34605,2.49213 7.13489,4.51666 11.24641,5.22527c5.01819,0.86487 10.30831,-0.33306 14.63493,-3.01833c4.32662,-2.68526 7.6972,-6.79731 9.77362,-11.4469c2.07643,-4.64959 2.8894,-9.81623 2.66274,-14.90336c-0.22666,-5.08713 -1.47207,-10.09914 -3.35264,-14.83133c-3.76116,-9.46439 -9.97071,-17.72159 -16.16126,-25.80851c-6.19054,-8.08691 -12.50229,-16.2439 -16.51742,-25.60337c-3.25627,-7.59054 -4.9576,-15.74098 -6.66507,-23.82208c-1.70746,-8.0811 -3.54519,-16.1345 -5.59006,-24.13688c-0.12379,-0.48443 -0.12379,-0.48443 -0.12379,-0.48443" stroke="#ff0000"></path><g stroke="#ff0000"><line x1="787.74108" y1="867.66228" x2="805.94016" y2="754.21339"></line><polyline points="813.11977,761.17422 805.94016,754.21339 796.94355,758.57928"></polyline></g><line x1="663.02395" y1="858.5787" x2="663.02395" y2="907.5687" stroke="#000000"></line><path d="M663.02395,907.5687c0,0.5 0,0.5 0,0.5c0,8.03814 -0.77307,16.1407 -3.43069,23.72679c-2.65762,7.58609 -6.81774,14.71127 -8.20351,22.62906c-1.16238,6.64138 -0.09993,13.69397 3.19651,19.57552c3.29644,5.88155 8.84663,10.5148 15.30095,12.46439c6.45432,1.94958 13.74583,1.12512 19.47347,-2.43202c5.72764,-3.55714 9.73546,-9.84446 10.29749,-16.56333c0.37823,-4.52156 -0.72297,-9.04544 -2.24015,-13.32162c-1.51718,-4.27618 -3.43752,-8.39818 -5.04539,-12.64109c-3.21574,-8.48582 -4.34867,-17.60673 -4.34867,-26.68143c0,-0.5 0,-0.5 0,-0.5" stroke="#ff0000"></path><g stroke="#ff0000"><line x1="663.02395" y1="907.5687" x2="688.02395" y2="914.32496"></line><polyline points="680.34973,920.73638 688.02395,914.32496 684.62392,904.92072"></polyline></g><line x1="688.02395" y1="914.32496" x2="688.02395" y2="847.91138" stroke="#000000"></line><path d="M688.02395,847.91138c0,-0.5 0,-0.5 0,-0.5c0,-8.29062 -0.8692,-16.64922 -3.74687,-24.4244c-2.87767,-7.77518 -7.34974,-15.09103 -8.49486,-23.30219c-0.94559,-6.7804 0.7073,-13.91479 4.65351,-19.50902c3.94621,-5.59422 10.16784,-9.56395 16.92734,-10.64887c6.7595,-1.08492 13.96517,0.7678 19.27745,5.08609c5.31228,4.31828 8.61039,11.05736 8.62517,17.90336c0.00958,4.4354 -1.27572,8.77594 -2.88165,12.91041c-1.60593,4.13447 -3.52669,8.14149 -5.11642,12.28222c-3.17946,8.28145 -4.24367,17.20996 -4.24367,26.08078c0,0.5 0,0.5 0,0.5" stroke="#ff0000"></path><g stroke="#ff0000"><line x1="688.02395" y1="847.91138" x2="713.02395" y2="844.28974"></line><polyline points="708.52185,853.21897 713.02395,844.28974 706.17303,837.00518"></polyline></g><line x1="713.02395" y1="844.28974" x2="713.02395" y2="915.41071" stroke="#000000"></line><path d="M713.02395,915.41071c0,0.5 0,0.5 0,0.5c0,8.70652 -1.01039,17.47652 -4.13167,25.60431c-1.56064,4.0639 -3.45987,7.98917 -5.09963,12.02179c-1.63976,4.03262 -3.01716,8.24129 -3.22757,12.58946c-0.33272,6.87582 2.45103,13.83217 7.39741,18.61974c4.94639,4.78757 11.9647,7.34048 18.83475,6.90462c6.87005,-0.43586 13.49089,-3.83891 17.88659,-9.13658c4.39571,-5.29767 6.51762,-12.40851 5.79898,-19.25476c-0.44227,-4.21337 -1.89094,-8.25502 -3.53666,-12.15883c-1.64572,-3.90381 -3.48746,-7.72636 -4.98811,-11.6882c-3.0013,-7.92368 -3.9341,-16.46436 -3.9341,-24.93741c0,-0.5 0,-0.5 0,-0.5" stroke="#ff0000"></path><g stroke="#ff0000"><line x1="713.02395" y1="915.41071" x2="738.02395" y2="913.97486"></line><polyline points="732.76732,922.48179 738.02395,913.97486 731.82792,906.1257"></polyline></g><line x1="738.02395" y1="913.97486" x2="738.02395" y2="846.93052" stroke="#000000"></line><path d="M738.02395,846.93052c0,-0.5 0,-0.5 0,-0.5c0,-9.15167 -1.16048,-18.34352 -4.37624,-26.9116c-1.60788,-4.28404 -3.51736,-8.45467 -4.98145,-12.78996c-1.46409,-4.33529 -2.46564,-8.93552 -1.90721,-13.47715c0.81532,-6.63101 5.11893,-12.67014 10.98641,-15.8651c5.86747,-3.19496 13.13129,-3.56572 19.40307,-1.2636c6.27178,2.30212 11.49891,7.17374 14.51267,13.13631c3.01376,5.96257 3.84745,12.94523 2.62767,19.51388c-1.4484,7.79981 -5.44546,14.86601 -7.9908,22.37974c-2.54534,7.51373 -3.27411,15.5084 -3.27411,23.44156c0,0.5 0,0.5 0,0.5" stroke="#ff0000"></path><g stroke="#ff0000"><line x1="738.02395" y1="846.93052" x2="763.02395" y2="855.09461"></line><polyline points="755.02866,861.10088 763.02395,855.09461 760.11445,845.52723"></polyline></g><line x1="763.02395" y1="855.09461" x2="763.02395" y2="910.40176" stroke="#000000"></line><path d="M763.02395,910.40176c0,0.5 0,0.5 0,0.5c0,9.2549 -1.20047,18.53959 -4.39799,27.22459c-1.59876,4.3425 -3.47898,8.58534 -4.84393,13.00691c-1.36495,4.42156 -2.18889,9.13284 -1.33005,13.67989c0.60961,3.22753 2.07217,6.28382 4.16492,8.81542c2.09275,2.53159 4.80824,4.53702 7.8239,5.83868c6.03133,2.60333 13.17586,2.27313 19.11123,-0.54212c5.93537,-2.81525 10.63431,-7.99679 13.21551,-14.03763c2.58119,-6.04084 3.0949,-12.88298 1.82836,-19.32892c-1.50008,-7.63454 -5.21188,-14.63866 -7.5634,-22.05532c-2.35153,-7.41666 -3.00856,-15.25277 -3.00856,-23.0333c0,-0.5 0,-0.5 0,-0.5" stroke="#ff0000"></path><g stroke="#ff0000"><line x1="763.02395" y1="910.40176" x2="788.02395" y2="899.96996"></line><polyline points="785.88502,909.73853 788.02395,899.96996 779.57605,894.61898"></polyline></g><polygon points="681.50506,1217.47991 666.51443,1213.9205 651.67914,1209.64554 637.07476,1204.62512 622.777,1198.82912 608.86143,1192.22772 595.40363,1184.79081 582.47926,1176.48836 570.16388,1167.29057 558.5332,1157.16721 547.66274,1146.08846 535.67091,1133.67105 523.88756,1121.00915 512.3926,1108.07065 501.266,1094.82327 490.58783,1081.23491 480.43797,1067.27337 470.89651,1052.90646 462.04331,1038.10218 453.95846,1022.82812 446.72191,1007.05231 444.07504,1001.23213 441.40514,995.41721 438.73226,989.60051 436.07647,983.77479 433.45789,977.93312 430.89646,972.06837 428.41235,966.1734 426.02558,960.24109 423.7562,954.26449 421.62427,948.23648 429.1491,953.86724 436.50652,959.75894 443.74441,965.84193 450.91063,972.04667 458.05307,978.30332 465.21964,984.54244 472.45817,990.69419 479.81658,996.68911 487.34265,1002.45737 495.08439,1007.92943 511.72604,1018.91287 528.986,1028.83652 546.79359,1037.73762 565.07813,1045.65391 583.76889,1052.62294 602.79508,1058.68215 622.08602,1063.8693 641.57103,1068.22172 661.17938,1071.77707 680.84023,1074.57289 699.55224,1075.70213 718.3006,1076.20894 737.06452,1076.10403 755.82328,1075.3982 774.55629,1074.10193 793.24284,1072.22613 811.86212,1069.78131 830.39353,1066.77835 848.81636,1063.22775 867.10992,1059.14043 878.40066,1056.20345 889.57441,1052.76975 900.57212,1048.80863 911.33485,1044.28938 921.80345,1039.18119 931.91918,1033.45345 941.62291,1027.07534 950.85567,1020.01626 959.55854,1012.2453 967.67246,1003.73184 975.11374,996.50128 982.49835,989.19058 989.76764,981.76268 996.86278,974.18053 1003.72482,966.40729 1010.29512,958.40581 1016.51472,950.13912 1022.32489,941.57019 1027.66667,932.66196 1032.48133,923.37758 1034.11383,920.70094 1034.57933,920.46408 1034.09679,922.19762 1032.88473,925.43239 1031.16189,929.69893 1029.147,934.52785 1027.05881,939.4499 1025.11594,943.9958 1023.53705,947.69608 1022.54095,950.08137 1015.23727,966.64723 1007.90824,983.25123 1000.44319,999.8158 992.73177,1016.26377 984.66331,1032.51758 976.12737,1048.49995 967.01329,1064.13361 957.2106,1079.34109 946.60885,1094.04492 935.09739,1108.16793 928.1238,1116.90815 920.94703,1125.52334 913.53231,1133.94447 905.84526,1142.10238 897.851,1149.92822 889.51497,1157.35285 880.8025,1164.30742 871.6791,1170.72268 862.10991,1176.52987 852.06035,1181.65976 836.35408,1189.85809 820.20597,1197.45509 803.66943,1204.29157 786.79756,1210.20833 769.64365,1215.04618 752.2608,1218.6459 734.70231,1220.84832 717.02137,1221.49422 699.27119,1220.42452" stroke="#000000"></polygon><path d="M1034.57933,920.46408c0.44563,-0.22675 0.44563,-0.22675 0.44563,-0.22675c14.70657,-7.48317 29.16225,-15.47468 44.1172,-22.44823c16.58924,-7.73563 33.97535,-13.79111 50.04217,-22.5604c16.06681,-8.76929 31.09539,-20.71472 39.46318,-36.99425c4.1839,-8.13976 6.59031,-17.26451 6.3769,-26.41411c-0.21342,-9.1496 -3.12154,-18.30439 -8.69451,-25.56406c-5.57297,-7.25966 -13.86352,-12.50819 -22.91089,-13.88873c-9.04737,-1.38054 -18.74429,1.28049 -25.46244,7.49556c-6.08727,5.63144 -9.49323,13.5131 -12.78,21.12658c-3.28678,7.61348 -6.8315,15.11476 -10.77816,22.40804c-0.23796,0.43974 -0.23796,0.43974 -0.23796,0.43974" stroke="#ff0000"></path><g stroke="#ff0000"><line x1="1034.57933" y1="920.46408" x2="1094.16044" y2="823.83749"></line><polyline points="1098.12255,833.01908 1094.16044,823.83749 1084.17744,824.42036"></polyline></g><polyline points="265.81976,842.23546 269.39096,875.92175 275.50248,909.23139 284.07607,941.99746 295.03336,974.05304 308.29605,1005.231 323.78596,1035.36461 341.4247,1064.28676 361.13399,1091.83062 382.83558,1117.82926 406.45111,1142.11555 431.86274,1164.51585 458.89101,1184.92068 487.36534,1203.26011 517.11513,1219.46408 547.96979,1233.46247 579.75883,1245.18544 612.31166,1254.56274 645.45755,1261.52444 679.02615,1266.0005 712.84677,1267.92087 746.04972,1267.27745 779.10496,1264.17225 811.84874,1258.66433 844.11771,1250.81243 875.74829,1240.6757 906.57695,1228.31277 936.44022,1213.7828 965.17464,1197.14452 992.61646,1178.45689 1018.60242,1157.77883 1042.95925,1135.20468 1065.56768,1110.89123 1086.3449,1084.99136 1105.20798,1057.65782 1122.07411,1029.04347 1136.86036,999.30096 1149.48393,968.58316 1159.86179,937.04272 1167.91132,904.8326 1173.54941,872.10556" stroke="#000000"></polyline><path d="M1173.54941,872.10556c0.08489,-0.49274 0.08489,-0.49274 0.08489,-0.49274c2.8014,-16.26108 6.05824,-32.44835 8.40388,-48.7814c13.51929,-94.13722 -13.74052,-188.97783 -43.59728,-279.27269c-29.85676,-90.29486 -63.02465,-181.98545 -61.70259,-277.0793c0.66103,-47.54692 10.28163,-95.45132 32.18641,-137.6571c21.90478,-42.20578 56.60895,-78.4321 99.86273,-98.18705c43.25377,-19.75495 95.11426,-21.92981 138.25711,-1.93378c21.57143,9.99801 40.7243,25.32628 54.75113,44.52354c14.02683,19.19726 22.84183,42.25527 24.63614,65.96323c1.24556,16.45745 0,32.99548 0,49.5c0,0.5 0,0.5 0,0.5" stroke="#ff0000"></path><g stroke="#ff0000"><line x1="1173.54941" y1="872.10556" x2="1426.43182" y2="189.18827"></line><polyline points="1432.12182,197.41164 1426.43182,189.18827 1416.75828,191.72257"></polyline></g></g></svg>