<svg x="0" y="0" width="1984.375" height="892.1875" version="1.1" xmlns="http://www.w3.org/2000/svg" xmlns:xlink="http://www.w3.org/1999/xlink"><g fill="none" stroke="none" stroke-width="2" stroke-linecap="butt" stroke-linejoin="miter" stroke-miterlimit="10" stroke-dasharray="" stroke-dashoffset="0" font-family="sans-serif" font-weight="normal" font-size="12" text-anchor="start" mix-blend-mode="normal"><polygon points="512.03493,23.99213 548.09813,33.68327 581.68605,48.60264 612.32668,68.27956 639.54809,92.24349 662.87842,120.02374 681.84574,151.14954 695.97804,185.15035 704.80354,221.55541 707.85023,259.89417 707.50134,272.93226 706.46676,285.78851 704.76442,298.44513 702.41261,310.8846 699.42926,323.08905 695.83241,335.04096 691.64025,346.72246 686.87088,358.11602 681.54217,369.20385 675.6724,379.96828 686.76619,396.04016 699.93758,409.75435 714.8491,421.02114 731.16344,429.75096 748.54304,435.8541 766.65051,439.24091 785.14838,439.82175 803.69925,437.5069 821.96558,432.2068 839.60996,423.83174 855.68424,412.73786 869.40488,399.56647 880.68118,384.65487 889.4225,368.34053 895.53821,350.96093 898.9375,332.85354 899.52984,314.35567 897.2245,295.80488 891.93085,277.53856 883.5581,259.89417 900.30369,295.18286 910.89123,331.71551 915.50199,368.81709 914.3174,405.81283 907.51872,442.02777 895.2874,476.78697 877.80468,509.41564 855.252,539.23885 827.81054,565.58172 795.66182,587.76922 784.20426,593.98184 772.56105,599.51059 760.75675,604.36256 748.81576,608.54423 736.76272,612.06285 724.62194,614.92505 712.41807,617.1376 700.17549,618.70763 687.91878,619.6419 675.6724,619.94704 667.29965,637.59143 662.00584,655.85784 659.7005,674.40871 660.29275,692.9065 663.69213,711.01397 669.80783,728.39357 678.54915,744.70791 689.82553,759.61942 703.54618,772.7909 719.62054,783.88461 736.70252,792.04467 754.37833,797.31541 772.34109,799.7787 790.28391,799.51589 807.90002,796.60921 824.8826,791.13984 840.92471,783.18965 855.71963,772.84035 868.96049,760.1738 880.34032,745.27122 857.85082,776.24072 831.42931,802.62386 801.71907,824.2478 769.3632,840.93956 735.00473,852.52612 699.28678,858.835 662.85254,859.69286 626.34511,854.92705 590.40752,844.36473 555.68297,827.83275 544.57182,821.01646 533.95889,813.69872 523.85081,805.90399 514.25419,797.65644 505.17572,788.98037 496.62204,779.89992 488.59966,770.43958 481.11521,760.62349 474.17537,750.47597 467.7867,740.02115 448.32007,741.59134 429.85495,746.13685 412.63793,753.41143 396.91592,763.16798 382.93562,775.15975 370.94386,789.13997 361.18739,804.86205 353.91298,822.07891 349.36738,840.54411 347.79727,860.01057 349.36738,879.4772 353.91298,897.9424 361.18739,915.15943 370.94386,930.88151 382.93562,944.86173 396.91592,956.8535 412.63793,966.60988 429.85495,973.88446 448.32007,978.42997 467.7867,980 428.85121,976.85995 391.91444,967.76875 357.47104,953.21976 326.01547,933.70683 298.04237,909.7233 274.04627,881.76269 254.52176,850.31869 239.96339,815.88464 230.86566,778.9544 227.72321,740.02115 228.07209,726.98314 229.10672,714.1269 230.80897,701.47027 233.16087,689.0308 236.14421,676.82635 239.74102,664.87444 243.93319,653.19295 248.70259,641.79939 254.03126,630.71147 259.90104,619.94704 248.8072,603.87269 235.63577,590.15212 220.72417,578.87566 204.40987,570.13434 187.03027,564.01864 168.92284,560.61934 150.42497,560.027 131.87418,562.33243 113.60786,567.62616 95.96347,575.99899 80.35592,586.71305 66.95402,599.38721 55.84034,613.71458 47.09745,629.38804 40.80792,646.10112 37.05436,663.54655 35.91935,681.41784 37.48553,699.40789 41.83539,717.20989 49.05159,734.51705 33.48989,699.55756 23.86325,663.48403 20,626.94013 21.72851,590.57022 28.87702,555.01783 41.27394,520.92729 58.74752,488.94239 81.12609,459.70714 108.23801,433.86548 139.91161,412.06143 151.3129,405.87725 162.89822,400.37009 174.64344,395.53308 186.52435,391.35968 198.5169,387.84321 210.59686,384.97713 222.74012,382.75481 234.92253,381.16949 247.11996,380.21462 259.30829,379.8836 259.37601,379.88343 259.44374,379.88343 259.51151,379.88335 259.57923,379.88335 259.647,379.88335 259.71473,379.88335 259.78249,379.88343 259.85022,379.88343 259.91795,379.88352 259.98571,379.8836 268.3356,362.24459 273.60924,343.98554 275.89746,325.44327 275.29106,306.95491 271.88093,288.85744 265.75779,271.48801 257.01262,255.18352 245.73616,240.28118 232.01932,227.11789 215.9529,216.03071 198.87621,207.87239 181.20428,202.60008 163.24397,200.13224 145.30234,200.38785 127.68624,203.28544 110.7027,208.74381 94.65865,216.68168 79.86108,227.01775 66.61692,239.67073 55.23312,254.55943 69.75817,233.41213 86.12721,214.27777 104.14946,197.20778 123.63428,182.25326 144.39097,169.4654 166.22884,158.89547 188.95725,150.59483 212.3854,144.61449 236.32271,141.00582 260.57846,139.82007 272.76675,140.15349 284.96418,141.11472 297.14663,142.70956 309.28989,144.94337 321.36981,147.82202 333.36232,151.35098 345.24327,155.53587 356.98853,160.38239 368.57385,165.89608 379.9751,172.08257 391.08105,178.89746 401.68661,186.2152 411.78568,194.01091 421.37213,202.26012 430.43993,210.93801 438.98303,220.01986 446.99531,229.48111 454.47076,239.29704 461.40323,249.44299 467.7867,259.89417 487.25324,258.32406 505.71844,253.77847 522.93539,246.50405 538.65739,236.74759 552.63769,224.75582 564.62945,210.77552 574.386,195.05352 581.66042,177.83649 586.2061,159.37137 587.77612,139.90475 586.30169,121.0307 582.02783,103.08581 575.17871,86.29532 565.97877,70.88441 554.65211,57.07826 541.42308,45.10205 526.51595,35.18094 510.15489,27.54002 492.56425,22.40465 473.96823,20" stroke="#000000"></polygon><path d="M166.22884,158.89547c0.45005,-0.21783 0.45005,-0.21783 0.45005,-0.21783c14.85334,-7.18929 29.3808,-15.08162 44.55531,-21.56558c41.33383,-17.66164 88.61026,-20.65892 132.08542,-9.24277c43.47517,11.41615 82.95676,37.03823 111.80525,71.50827c28.84848,34.47004 47.05094,77.56574 52.57202,122.17444c5.52108,44.6087 -1.54128,90.5869 -19.33954,131.86208c-6.53381,15.15227 -14.11893,29.82603 -21.17902,44.74035c-0.21393,0.45192 -0.21393,0.45192 -0.21393,0.45192" stroke="#ff0000"></path><g stroke="#ff0000"><line x1="166.22884" y1="158.89547" x2="466.96442" y2="498.60635"></line><polyline points="457.02905,499.74141 466.96442,498.60635 469.29591,488.88194"></polyline></g><polyline points="512.01733,24.08696 548.06594,33.77418 581.59417,48.77307 612.15155,68.51168 639.26978,92.5154 662.48255,120.30811 681.32328,151.41533 695.32696,185.36314 704.0296,221.67917 706.96956,259.91732 706.52424,272.87991 705.39595,285.67349 703.60407,298.25754 701.1676,310.61494 698.10483,322.72816 694.43483,334.58024 690.1764,346.15385 685.34751,357.43166 679.96659,368.39634 673.47933,380.08345 685.23439,397.29078 698.55643,411.30915 713.67254,422.85999 730.24255,431.8438 747.92559,438.16298 766.38135,441.72003 785.2688,442.41646 804.2446,440.1527 822.96113,434.82954 841.06454,426.35094 857.58916,415.07178 871.73377,401.63659 883.39275,386.39164 892.46447,369.68122 898.84992,351.84888 902.44987,333.23717 903.05212,317.69811 907.22289,332.47005 911.65505,368.99347 910.38388,405.38321 903.59387,440.97542 891.47129,475.10509 874.20283,507.10863 851.97497,536.32593 824.9704,562.10193 793.26077,583.85714 782.07912,589.79914 770.61928,595.12304 759.01338,599.77845 747.28506,603.77292 735.45805,607.11426 723.55616,609.81038 711.60318,611.86887 699.62277,613.29756 687.6389,614.10389 672.05765,614.38525 661.89949,635.54292 656.24422,654.67273 653.71803,674.13443 654.23337,693.56831 657.69955,712.62074 664.0306,730.93977 673.14052,748.17219 684.94293,763.95952 699.34611,777.93688 716.23749,789.7271 734.23532,798.44891 752.90352,804.13308 771.91029,806.8532 790.92449,806.68733 809.62084,803.71654 823.18221,799.46731 797.76061,817.83057 766.37789,833.89358 733.08334,845.00252 698.50666,850.99546 663.27698,851.71232 628.01763,846.99587 593.34216,836.68712 559.65102,820.52241 549.1657,813.95793 538.98878,806.80403 529.31095,799.19889 520.13701,791.16611 511.47194,782.72934 503.32076,773.91195 495.6886,764.73765 488.58088,755.22993 482.00398,745.4118 472.81157,730.15085 446.7852,732.13615 426.80093,736.9386 408.13121,744.70361 391.05422,755.16543 375.83984,768.06395 362.754,783.14108 352.06712,800.14194 344.05506,818.80588 338.99835,838.8609 337.17582,860.01057 338.76805,881.1978 343.61225,901.36244 351.44562,920.20118 362.00133,937.43172 369.26389,946.07714 362.67232,943.16662 332.77094,924.48033 306.20897,901.55279 283.45873,874.86449 264.98918,844.89805 251.26229,812.13067 242.73469,777.02632 239.83876,739.69524 240.27829,727.63714 241.37668,715.44479 243.10667,703.45837 245.45008,691.69263 248.38876,680.16288 251.90492,668.88435 255.98081,657.8727 260.59974,647.14401 265.74309,636.71394 275.46572,619.13019 259.21578,595.3773 244.63945,580.02299 228.09675,567.36521 209.9708,557.51683 190.63248,550.58384 170.44626,546.67141 149.77677,545.8887 128.99787,548.34873 108.49993,554.16098 88.7177,563.41198 71.15209,575.3208 56.01391,589.46746 43.42064,605.50132 35.32898,619.75452 36.75166,592.42679 43.57058,559.14143 55.29489,527.26266 71.75034,497.39957 92.76424,470.15073 118.17585,446.10068 148.20027,425.58218 158.54908,420.10968 169.41798,415.08011 180.41935,410.68328 191.53186,406.91098 202.73431,403.75516 214.00529,401.20884 225.3232,399.26401 236.66622,397.91335 248.01223,397.14989 259.54928,396.96098 259.57923,397.08536 259.647,397.20974 259.70408,397.33412 259.77177,397.45858 259.83942,397.58296 259.89619,397.70741 271.34055,397.84575 285.29412,368.65973 291.49241,347.64748 294.25584,326.26993 293.68046,304.93286 289.86816,284.02264 282.91353,263.91671 272.90702,244.99477 259.93975,227.64975 244.11866,212.29035 225.60587,199.36 205.84849,189.7789 185.33486,183.5243 166.05159,180.74461 173.92576,177.07654 194.83065,169.57905 216.35464,164.21778 238.31712,161.03714 260.7961,160.06727 271.68776,160.49413 282.82789,161.50131 293.94088,163.0861 305.00511,165.25244 315.9994,168.00487 326.90327,171.34781 337.6961,175.28605 348.35786,179.82488 358.86872,184.96993 369.20632,190.72741 379.26114,197.05006 388.83607,203.81487 397.93362,211.00198 406.55158,218.58957 414.68741,226.5558 422.33622,234.88002 429.49515,243.53935 436.16067,252.51127 442.32835,261.77363 455.61906,283.78865 490.94605,281.0727 513.0218,275.77524 533.6487,267.20443 552.50836,255.65735 569.30603,241.42416 583.75438,224.78415 595.56021,206.01208 604.41678,185.3921 610.00824,163.2352 612.02084,139.93526 610.38177,117.24626 605.36295,95.59648 605.13726,94.68542 621.82623,109.55733 642.64542,134.55761 659.51724,162.5086 672.03227,192.97635 679.78819,225.55564 682.43152,260.56218 681.9989,271.56591 680.93647,283.0463 679.28007,294.32523 677.04747,305.39063 674.25576,316.22945 670.92168,326.82892 667.06189,337.17533 662.69303,347.25442 657.83134,357.05164 644.27869,381.61697 665.85262,413.11485 681.91696,430.04061 700.15181,443.99155 720.12547,454.83614 741.42721,462.46299 763.6625,466.76238 786.43828,467.61574 809.34478,464.89657 831.94013,458.4842 853.73394,448.29331 873.63284,434.72858 881.30635,427.55477 879.84041,434.60653 868.9363,465.17324 853.43561,493.80705 833.51549,519.91747 809.33095,542.94021 780.32859,562.78654 770.87756,567.75229 760.59783,572.47898 750.19927,576.60214 739.70034,580.13082 729.11996,583.07404 718.47782,585.43944 707.79312,587.23463 697.08593,588.46694 686.37743,589.14313 656.05245,589.75902 638.4019,626.62926 631.5968,649.60301 628.54932,672.98051 629.15487,696.30742 633.30182,719.16244 640.88589,741.14036 651.81074,761.83413 665.98154,780.81412 683.27982,797.62151 703.4865,811.74795 724.02041,821.72191 696.06987,826.50772 664.58595,827.10017 633.11131,822.84129 602.1698,813.59225 571.44271,798.79859 562.65428,793.23264 553.5845,786.79708 544.97218,779.96676 536.81852,772.76192 529.12533,765.20265 521.89486,757.30859 515.13021,749.09996 508.83533,740.59713 503.01444,731.82055 486.15413,703.94222 442.75236,707.29285 418.85955,713.02032 396.53196,722.29171 376.12284,734.78075 357.94798,750.17203 342.31287,768.16841 329.53175,788.47895 319.93788,810.79848 313.87845,834.78316 311.69259,860.01056 312.42745,870.99488 303.40274,860.24791 286.97819,833.51085 274.79654,804.31159 267.24892,773.04408 264.65443,739.02771 265.07434,728.96569 266.09984,718.10026 267.68662,707.43205 269.8178,696.97064 272.47694,686.72671 275.64819,676.71149 279.31685,666.9373 283.46654,657.41658 288.08183,648.16285 304.92891,617.58392 278.77132,579.41626 261.43021,561.1334 241.7449,546.057 220.1879,534.3347 197.20116,526.08528 173.20359,521.42607 148.61216,520.48701 123.86809,523.40943 99.45822,530.32586 76.41752,541.08965 77.89882,537.47627 92.57328,510.94305 111.27881,486.76493 133.88213,465.43784 161.21525,446.81266 169.83851,442.31419 179.5258,437.88558 189.31859,434.02595 199.19989,430.72481 209.15324,427.97328 219.16184,425.76549 229.20821,424.09412 239.27353,422.95016 249.33876,422.32719 259.8862,422.20526 286.86428,422.40266 308.35698,377.38405 315.68592,352.6016 318.96382,327.38252 318.30326,302.22541 313.82717,277.58267 305.64712,253.88376 293.86138,231.56244 278.56999,211.08163 259.90615,192.94303 248.12406,184.61256 261.05491,184.14511 270.41086,184.56558 280.31195,185.51083 290.18349,186.96901 300.00685,188.9433 309.76424,191.43757 319.43924,194.45602 329.0151,198.00335 338.47629,202.08531 347.80774,206.70849 356.9902,211.87816 365.91453,217.54732 374.39222,223.59667 382.43495,230.01281 390.04419,236.7776 397.22066,243.87315 403.96329,251.28104 410.27027,258.98309 416.13901,266.96074 421.5661,275.19504 442.43541,309.67835 494.92911,305.60939 520.86383,299.39439 545.10087,289.33244 567.24901,275.78173 586.96697,259.08511 603.92969,239.56216 617.8014,217.52286 628.21894,193.29493 634.62881,167.97359 637.82223,173.54539 648.85972,200.54965 655.67902,229.41097 658.03253,261.20339 657.61773,270.25962 656.6259,280.43511 655.10926,290.41769 653.08429,300.20032 650.56647,309.77428 647.57056,319.13103 644.1111,328.26042 640.20262,337.1509 635.85813,345.78999 615.2927,383.13922 646.61358,428.82238 665.39778,448.63666 686.72496,464.9764 710.07574,477.67542 734.97024,486.60816 760.9602,491.65228 787.60097,492.66876 814.4168,489.50383 829.43859,485.33243 815.30223,503.72788 793.89544,524.02836 767.56122,541.98444 759.81542,545.97984 750.69814,550.11005 741.48966,553.7006 732.20331,556.76206 722.85318,559.30426 713.45502,561.3351 704.02357,562.86223 694.57526,563.89258 685.12859,564.43228 640.20173,565.37049 615.12269,617.79844 607.17269,644.57923 603.60281,671.83678 604.29199,699.02297 609.10643,725.64988 617.92612,751.25943 630.64904,775.38841 647.16998,797.53553 649.94426,800.44989 638.19515,798.73342 610.97901,790.54557 583.20798,777.12343 576.11059,772.55691 568.14204,766.84245 560.58897,760.78921 553.44897,754.41407 546.7217,747.73256 540.41101,740.75703 534.51329,733.50934 529.03218,726.00595 523.96949,718.26514 499.46426,677.7973 438.72849,682.50482 410.93421,689.15034 384.95377,699.92047 361.21457,714.42762 340.08033,732.30433 321.89459,753.21247 307.01627,776.82625 298.24745,797.08969 298.21801,796.52999 291.6537,769.07963 289.36886,738.3629 289.78338,730.28958 290.75189,720.74809 292.21139,711.39682 294.14616,702.24013 296.54133,693.28405 299.3829,684.53579 302.65734,676.00363 306.35126,667.69722 310.45132,659.62752 334.45006,616.03461 298.37686,563.41441 278.27377,542.18441 255.44397,524.66929 230.45,511.05045 203.80335,501.46174 175.9769,496.03441 147.43999,494.9205 137.57927,495.94279 149.58834,484.77491 174.23588,468.05235 181.13778,464.53805 189.64521,460.71722 198.22975,457.3999 206.87968,454.57514 215.58324,452.23317 224.32754,450.36571 233.09963,448.96531 241.88484,448.02539 250.66716,447.5401 260.21397,447.4825 302.87895,447.73618 332.14524,386.38278 340.63787,357.71101 344.44378,328.52986 343.69283,299.43364 338.53937,270.94025 329.10209,243.53244 316.00118,218.65502 320.43948,220.44488 328.70899,224.08834 336.86831,228.20817 344.90066,232.80975 352.69787,237.84501 360.07999,243.19821 367.06785,248.86224 373.66671,254.8225 379.87657,261.06889 385.69791,267.58605 391.13496,274.35487 396.18678,281.3601 400.85117,288.58586 429.26618,335.53973 498.91252,330.14824 528.71579,323.04349 556.58103,311.51453 582.04298,295.9789 604.71247,276.83061 624.22514,254.42818 632.30216,241.83977 633.66589,261.84375 633.25032,268.95408 632.30859,277.82319 630.91145,286.50578 629.07425,294.99986 626.81107,303.3011 624.13484,311.40524 621.05809,319.3058 617.59341,326.994 613.75285,334.46065 586.11427,384.67157 627.23477,444.64403 648.7516,467.37568 673.19199,486.12711 699.94441,500.70013 728.45891,510.95657 758.23435,516.75908 760.8271,517.06997 754.69589,521.02276 748.66433,524.03233 740.71521,527.55305 732.70362,530.59811 724.63711,533.17769 716.52289,535.29362 708.37679,536.9647 700.20901,538.19884 692.03237,539.00273 683.86249,539.37967 624.11781,540.62314 591.4805,608.82993 582.33237,639.46983 578.19514,670.6719 578.93369,701.79264 584.39419,732.27591 591.59952,753.52845 589.52135,751.9512 582.67695,746.91885 576.20998,741.60647 570.11424,736.02781 564.39707,730.18404 559.04419,724.10085 554.05425,717.79173 549.42792,711.27107 545.16647,704.55324 512.95056,651.30632 434.64457,657.34691 402.87729,664.88407 373.16396,677.14037 346.00896,693.66854 321.81217,714.03611 315.44339,721.0092 316.50476,715.32418 318.28916,707.46947 320.46592,699.80329 323.02246,692.32873 325.947,685.05022 329.22791,677.97422 332.87343,671.11916 364.12024,614.47748 318.13401,547.28883 295.29811,523.03205 269.34063,502.9731 240.89785,487.34473 214.23538,477.59942 221.81148,475.7318 229.35858,474.32468 236.91055,473.32194 244.45612,472.7163 251.9823,472.5014 260.54021,472.64225 318.9043,473.0866 356.10989,395.44823 365.93946,362.89203 370.44839,329.70083 369.77167,296.56609 367.65224,283.10506 372.44787,289.36659 376.56401,295.52169 380.33585,301.84764 416.13373,361.32888 502.91193,354.78565 536.67009,347.00081 568.31382,334.18474 596.77227,317.12498 592.94737,323.79748 558.18364,386.13839 608.37523,460.04173 632.28512,485.91241 659.51736,507.49921 675.13029,516.76836 609.15805,517.60547 568.99475,600.30011 558.21308,634.50874 553.02272,669.51781 552.28502,672.51817 525.38009,626.89114 430.76981,633.47742 395.01572,641.20616 369.85185,650.70763 391.58024,613.03634 336.89931,531.97278 311.86671,504.3924 301.64884,495.35945 333.66735,496.44019 378.59974,403.95579 390.11438,367.84233 391.57096,364.54408 403.51824,386.10286 506.82016,378.86135 539.68511,372.2013 529.68729,387.63493 588.93496,475.91355 604.76272,494.39864 593.35711,493.29352 545.30631,591.31406 539.70915,605.63762 538.5346,601.05189 426.73057,608.59471 417.81352,608.64427 356.42862,516.03314 353.77345,510.25894 402.17767,412.87496 405.1373,410.13579 510.85212,403.69928 512.36665,405.47198 569.39683,491.76055 523.33499,580.49868 427.93579,584.01345 379.94503,507.14195 420.45964,431.29386 501.44446,428.94208 541.30782,494.02798 506.93716,556.74017 440.31275,557.93394 408.70973,504.80738 436.87306,455.05117 489.06863,455.02144 512.53371,496.35072 490.53932,532.98164 452.68973,531.8544 437.47448,502.47281 453.28653,478.80853 476.69277,481.10087 483.75953,498.67346 474.14145,509.22306 465.06672,505.77482 466.23926,500.13823 466.96442,498.60635" stroke="#000000"></polyline></g></svg>