<?xml version="1.0" encoding="UTF-8" standalone="no"?>
<svg
   xmlns:dc="http://purl.org/dc/elements/1.1/"
   xmlns:cc="http://creativecommons.org/ns#"
   xmlns:rdf="http://www.w3.org/1999/02/22-rdf-syntax-ns#"
   xmlns:svg="http://www.w3.org/2000/svg"
   xmlns="http://www.w3.org/2000/svg"
   xmlns:sodipodi="http://sodipodi.sourceforge.net/DTD/sodipodi-0.dtd"
   xmlns:inkscape="http://www.inkscape.org/namespaces/inkscape"
   x="0"
   y="0"
   width="980.64526"
   height="859.30017"
   version="1.1"
   id="svg3545"
   inkscape:version="0.48+devel r"
   sodipodi:docname="export_hai_new.svg">
  <metadata
     id="metadata3705">
    <rdf:RDF>
      <cc:Work
         rdf:about="">
        <dc:format>image/svg+xml</dc:format>
        <dc:type
           rdf:resource="http://purl.org/dc/dcmitype/StillImage" />
        <dc:title></dc:title>
      </cc:Work>
    </rdf:RDF>
  </metadata>
  <defs
     id="defs3703" />
  <sodipodi:namedview
     pagecolor="#ffffff"
     bordercolor="#666666"
     borderopacity="1"
     objecttolerance="10"
     gridtolerance="10"
     guidetolerance="10"
     inkscape:pageopacity="0"
     inkscape:pageshadow="2"
     inkscape:window-width="2560"
     inkscape:window-height="1378"
     id="namedview3701"
     showgrid="false"
     inkscape:zoom="0.91426687"
     inkscape:cx="445.22673"
     inkscape:cy="299.28363"
     inkscape:window-x="0"
     inkscape:window-y="27"
     inkscape:window-maximized="1"
     inkscape:current-layer="g3547"
     fit-margin-top="0"
     fit-margin-left="0"
     fit-margin-right="0"
     fit-margin-bottom="0" />
  <g
     stroke-miterlimit="10"
     font-weight="normal"
     font-size="12"
     mix-blend-mode="normal"
     id="g3547"
     style="font-weight:normal;font-size:12px;font-family:sans-serif;text-anchor:start;fill:none;stroke:none;stroke-width:2;stroke-linecap:butt;stroke-linejoin:miter;stroke-miterlimit:10;stroke-dasharray:none;stroke-dashoffset:0"
     transform="translate(-0.35883836,-18.993999)">
    <polyline
       points="252.28302,658.00634 253.78765,657.41441 255.18963,656.88532 256.51812,656.41878 257.80227,656.01436 259.07119,655.67176 260.35408,655.39063 261.68003,655.17061 263.07821,655.01137 264.57777,654.91258 266.20786,654.87388"
       id="polyline3549"
       style="stroke:#000000" />
    <path
       d="M 266.20786,654.87388 C 266.70772,654.86201 266.70772,654.86201 266.70772,654.86201 C 274.96639,654.66592 283.21746,654.24063 291.4589,653.67254 C 299.70034,653.10445 308.01702,652.51033 316.19377,653.68703 C 323.50162,654.73869 330.6504,657.28896 336.68227,661.54655 C 342.71415,665.80414 347.58521,671.81638 350.01346,678.78877 C 352.44171,685.76116 352.31677,693.68416 349.20402,700.37904 C 346.09127,707.07392 339.90694,712.3775 332.69526,713.95936 C 328.63175,714.85068 324.38732,714.59058 320.30177,713.80643 C 316.21622,713.02229 312.24656,711.73417 308.29572,710.43129 C 300.39405,707.82553 292.38072,705.56234 284.23529,703.86575 C 283.7458,703.76379 283.7458,703.76379 283.7458,703.76379"
       id="path3551"
       style="opacity:0.5;stroke:#ff0000"
       inkscape:connector-curvature="0" />
    <polyline
       points="614.25501,721.24664 619.34927,720.39879 624.67551,719.31964 630.20203,718.05848 635.89715,716.66467 641.72925,715.18758 647.66656,713.67659 653.67746,712.18115 659.73024,710.75055 665.79316,709.43415 671.83457,708.28132 680.92921,715.84131 689.97118,723.41164 699.12591,730.71053 708.55878,737.45574 718.43523,743.36548 728.92071,748.15778 740.18044,751.55041 752.37998,753.26168 765.68464,753.00943 780.25988,750.5116"
       id="polyline3559"
       style="stroke:#000000" />
    <path
       d="M 780.25988,750.5116 C 780.7527,750.42714 780.7527,750.42714 780.7527,750.42714 C 788.92164,749.02719 797.01108,747.20749 805.03461,745.1304 C 813.05814,743.05331 821.33478,740.90749 829.54144,742.06599 C 838.76259,743.3677 847.2308,749.21029 851.72392,757.36724 C 856.21704,765.52419 856.63,775.80251 852.80864,784.29493 C 848.98728,792.78735 841.02246,799.29458 831.93928,801.34876 C 822.85609,803.40295 812.86772,800.957 805.75938,794.94073 C 799.43327,789.58652 795.51796,781.98757 791.71905,774.62174 C 787.92014,767.25591 783.88618,760.01208 779.48748,752.98794 C 779.22211,752.56417 779.22211,752.56417 779.22211,752.56417"
       id="path3561"
       inkscape:connector-curvature="0"
       style="stroke:#ff0000" />
    <polyline
       points="779.2221,752.56417 773.11059,742.8049 767.42507,734.8901 762.14614,728.30464 757.25435,722.53333 752.73022,717.06102 748.55429,711.37242 744.70727,704.9525 741.16951,697.28585 737.92183,687.85745 734.94465,676.15203 744.19839,662.77629 752.94596,650.92556 761.16368,640.40199 768.82819,631.00768 775.91582,622.54473 782.4029,614.8153 788.26607,607.62139 793.48165,600.7652 798.02608,594.04882 801.8758,587.27432"
       id="polyline3569"
       style="stroke:#000000" />
    <path
       d="M 801.8758,587.27432 C 802.12283,586.83961 802.12283,586.83961 802.12283,586.83961 C 806.21979,579.63002 809.92058,572.20484 813.36667,564.66245 C 816.81277,557.12006 820.3825,549.31363 826.57903,543.80307 C 833.01246,538.08185 842.12568,535.51361 850.60023,537.03133 C 859.07477,538.54906 866.72952,544.11951 870.7822,551.71537 C 874.83489,559.31123 875.19976,568.7701 871.74644,576.65654 C 868.29312,584.54298 861.09579,590.68954 852.76663,592.86819 C 844.7444,594.96656 836.26933,593.6155 828.08097,592.30779 C 819.89261,591.00009 811.66091,589.96859 803.38933,589.38512 C 802.89057,589.34994 802.89057,589.34994 802.89057,589.34994"
       id="path3571"
       inkscape:connector-curvature="0"
       style="stroke:#ff0000" />
    <polyline
       points="802.89058,589.34995 787.32413,588.25189 771.4881,590.12826 755.70405,594.48644 740.29371,600.83362 725.57894,608.67716 711.88136,617.52435 699.52277,626.88237 688.82487,636.25866 680.1094,645.16039 673.69814,653.09489 640.44802,642.70834 612.24143,634.26287 588.15656,627.48962 567.27178,622.11983 548.66523,617.88456 531.41517,614.51508 514.59995,611.74255 497.29773,609.29805 478.58675,606.9128 457.54534,604.318"
       id="polyline3579"
       style="stroke:#000000" />
    <path
       d="M 457.54534,604.318 C 457.0491,604.2568 457.0491,604.2568 457.0491,604.2568 C 448.84445,603.24501 440.67777,601.95217 432.54216,600.4852 C 424.40656,599.01823 416.15935,597.51019 407.92124,598.19843 C 399.78239,598.87837 391.8441,601.81751 385.22418,606.6008 C 378.60426,611.38408 373.32143,617.99781 370.1182,625.51062 C 366.91496,633.02344 365.80026,641.414 366.92968,649.50273 C 368.0591,657.59146 371.42929,665.3555 376.56601,671.70509 C 381.70273,678.05468 388.59136,682.97198 396.26498,685.76817 C 403.93861,688.56435 412.37557,689.23167 420.39357,687.67773 C 428.41158,686.12379 435.98813,682.35311 442.06319,676.89447 C 448.13826,671.43583 452.69491,664.30466 455.09694,656.49867 C 457.52822,648.59763 457.82547,640.22012 458.13895,631.95941 C 458.45243,623.6987 458.94186,615.44498 459.71271,607.21434 C 459.75933,606.71652 459.75933,606.71652 459.75933,606.71652"
       id="path3581"
       style="opacity:0.5;stroke:#ff0000"
       inkscape:connector-curvature="0" />
    <polyline
       points="459.75934,606.71653 460.75796,596.05389 462.64374,586.65273 465.35288,578.32131 468.82157,570.86775 472.98595,564.10019 477.78226,557.82683 483.14661,551.85585 489.01522,545.99539 495.32429,540.05365 502.00998,533.8388"
       id="polyline3589"
       style="stroke:#000000" />
    <path
       d="M 502.00998,533.8388 C 502.37619,533.49838 502.37619,533.49838 502.37619,533.49838 C 514.4657,522.26025 527.57519,512.05269 538.63129,499.79649 C 556.83314,479.61888 566.52099,453.35275 575.17195,427.59224 C 583.82291,401.83173 592.12005,375.33441 608.29906,353.50134 C 616.38857,342.58481 626.43922,332.97589 638.33174,326.40483 C 650.22426,319.83377 664.02464,316.41231 677.5378,317.82839 C 691.05096,319.24447 704.1771,325.7172 712.68096,336.31414 C 716.93289,341.61261 720.0027,347.87537 721.44106,354.51494 C 722.87942,361.1545 722.67017,368.16283 720.69625,374.66332 C 718.29239,382.57968 713.49467,389.51752 708.8032,396.33202 C 704.11172,403.14652 699.59195,410.07871 695.35678,417.18579 C 695.10083,417.61531 695.10083,417.61531 695.10083,417.61531"
       id="path3591"
       inkscape:connector-curvature="0"
       style="stroke:#ff0000" />
    <polyline
       points="502.37894,536.97531 484.91614,536.87899 468.26211,538.60763 452.37633,542.01405 437.21821,546.95111 422.7472,553.27183 408.9228,560.82902 395.70439,569.47557 383.05145,579.06442 370.92346,589.44845 359.2798,600.48058 341.86319,602.25151 323.06587,604.813 303.24042,608.27419 282.73946,612.74424 261.9157,618.33238 241.12169,625.14764 220.71014,633.29927 201.03363,642.89637 182.44487,654.04815 165.29642,666.86368"
       id="polyline3599"
       style="stroke:#000000" />
    <path
       d="M 502.37894,536.97531 C 502.87893,536.97807 502.87893,536.97807 502.87893,536.97807 C 519.39208,537.06915 536.01646,535.01797 552.37818,537.25109 C 568.52899,539.45542 583.76543,547.3307 595.29255,558.85603 C 606.81967,570.38136 614.64662,585.44848 617.98533,601.40344 C 621.32404,617.3584 620.23056,634.14812 615.37556,649.70886 C 610.52056,665.2696 601.95804,679.59706 590.95876,691.62718 C 568.96021,715.68741 537.69323,730.08631 505.53547,735.44442 C 473.37771,740.80253 440.28551,737.63723 408.45606,730.58622 C 344.79715,716.4842 284.84669,687.05225 220.26849,678.05342 C 187.97939,673.554 154.47589,674.37947 123.57311,684.76452 C 92.67033,695.14957 64.52791,715.73145 48.84029,744.30993 C 40.89781,758.77892 35.44825,774.46427 28.74882,789.5491 C 28.54588,790.00606 28.54588,790.00606 28.54588,790.00606"
       id="path3601"
       style="opacity:0.36100003;stroke:#ff0000"
       inkscape:connector-curvature="0" />
    <polyline
       points="165.66544,662.06667 171.44335,668.27286 176.55739,673.84046 181.12866,678.8485 185.27823,683.37594 189.1272,687.50175 192.79663,691.30494 196.40758,694.8645 200.08117,698.25932 203.93848,701.56844 208.10056,704.8708 219.06606,704.24884 229.28423,703.63852 238.75188,703.07813 247.46586,702.60585 255.42302,702.25999 262.62019,702.07862 269.0542,702.10014 274.72194,702.36273 279.62018,702.90449 283.74579,703.7638"
       id="polyline3609"
       style="stroke:#000000" />
    <path
       d="M 165.66544,662.06667 C 165.32474,661.70072 165.32474,661.70072 165.32474,661.70072 C 159.68917,655.64742 154.28599,649.38324 149.03368,642.99455 C 143.78137,636.60586 138.453,630.0945 131.59536,625.47119 C 125.73565,621.52066 118.83546,619.12859 111.78791,618.60429 C 104.74036,618.07998 97.56225,619.42466 91.18221,622.46406 C 84.80217,625.50346 79.23538,630.23031 75.20163,636.03305 C 71.16788,641.83579 68.67676,648.70058 68.05005,655.73976 C 67.42335,662.77895 68.66253,669.97577 71.60714,676.40011 C 74.55175,682.82445 79.19477,688.46104 84.93606,692.58178 C 90.67735,696.70252 97.50324,699.29765 104.53199,700.03225 C 111.56074,700.76685 118.77563,699.6392 125.24514,696.79519 C 132.81637,693.46687 139.22083,688.01117 145.52888,682.66236 C 151.83693,677.31355 158.27103,672.11398 164.89591,667.16301 C 165.29642,666.8637 165.29642,666.8637 165.29642,666.8637"
       id="path3611"
       inkscape:connector-curvature="0"
       style="stroke:#ff0000" />
    <polyline
       points="237.93178,728.45527 248.62453,732.00085 258.84495,734.83318 268.64656,737.02911 278.0829,738.66595 287.20754,739.82083 296.07401,740.57078 304.73588,740.99303 313.24665,741.16461 321.6599,741.16275 330.02918,741.06457"
       id="polyline3619"
       style="stroke:#000000" />
    <path
       d="M 330.02918,741.06457 C 330.52915,741.0587 330.52915,741.0587 330.52915,741.0587 C 347.03964,740.86501 363.65978,742.6664 380.02574,740.47805 C 395.57266,738.39922 410.42756,731.40782 421.93009,720.74386 C 433.43262,710.0799 441.52758,695.79217 444.7514,680.44176 C 447.97522,665.09134 446.3109,648.75068 440.04796,634.37 C 433.78502,619.98932 422.95184,607.63822 409.50463,599.56353 C 396.05741,591.48883 380.0603,587.73113 364.42526,588.98562 C 348.79022,590.24011 333.59377,596.50245 321.62168,606.63642 C 309.64959,616.77039 300.96208,630.72736 297.16603,645.94637 C 293.36998,661.16538 294.48606,677.57104 300.31891,692.13148 C 306.45922,707.45943 316.26874,721.00715 324.25243,735.46088 C 324.49418,735.89855 324.49418,735.89855 324.49418,735.89855"
       id="path3621"
       style="opacity:0.5;stroke:#ff0000"
       inkscape:connector-curvature="0" />
    <polyline
       points="324.49419,735.89854 330.89455,747.4858 337.59178,758.00862 344.81923,767.46152 352.81046,775.839 361.79891,783.13547 372.01797,789.34543 383.70122,794.46339 397.08199,798.48377 412.39386,801.40096 429.87023,803.20956"
       id="polyline3629"
       style="stroke:#000000" />
    <path
       d="M 429.87023,803.20956 C 430.36757,803.26103 430.36757,803.26103 430.36757,803.26103 C 438.93122,804.14727 447.56343,804.35736 456.14174,803.62659 C 460.4309,803.26121 464.71682,802.78753 469.02099,802.72004 C 473.32515,802.65256 477.68857,803.01444 481.75434,804.42863 C 488.68501,806.83931 494.44472,812.41235 497.08225,819.2599 C 499.71978,826.10746 499.18688,834.10431 495.66398,840.5413 C 492.14109,846.97829 485.69261,851.73766 478.50325,853.20688 C 471.31388,854.67609 463.51513,852.82825 457.74937,848.28934 C 454.36693,845.62662 451.71062,842.14594 449.44802,838.48376 C 447.18542,834.82158 445.2749,830.95583 443.27142,827.14571 C 439.26446,819.52547 434.43588,812.36683 429.07458,805.63035 C 428.76322,805.23913 428.76322,805.23913 428.76322,805.23913"
       id="path3631"
       inkscape:connector-curvature="0"
       style="stroke:#ff0000" />
    <polyline
       points="428.76323,805.23912 420.4755,794.82556 413.96974,784.6079 409.06099,774.67853 405.56445,765.12969 403.29521,756.05377 402.06838,747.54308 401.69908,739.68986 402.00238,732.58658 402.79341,726.32539 403.88733,720.99877"
       id="polyline3639"
       style="stroke:#000000" />
    <path
       d="M 403.88733,720.99877 C 403.98791,720.50899 403.98791,720.50899 403.98791,720.50899 C 405.6496,712.41767 407.52709,704.3727 409.53826,696.36109 C 411.54942,688.34948 413.59789,680.27379 413.94576,672.02093 C 414.45903,659.84422 411.01312,647.54425 404.31773,637.36057 C 397.62234,627.17688 387.71971,619.15045 376.40122,614.63077 C 365.08273,610.11109 352.40145,609.10619 340.49427,611.70516 C 328.58708,614.30413 317.49785,620.48546 308.96538,629.18792 C 300.43291,637.89037 294.47932,649.07548 291.94311,660.99619 C 289.4069,672.9169 290.28576,685.53307 294.37102,697.01551 C 298.45628,708.49795 305.72672,718.81713 315.11087,726.5936 C 324.49502,734.37007 335.96261,739.59119 347.97558,741.64651 C 364.25264,744.43138 380.93756,742.91625 397.43889,743.55191 C 397.93852,743.57116 397.93852,743.57116 397.93852,743.57116"
       id="path3641"
       style="opacity:0.5;stroke:#ff0000"
       inkscape:connector-curvature="0" />
    <polyline
       points="397.93851,743.57115 412.4111,744.12866 426.36568,744.2995 440.02916,744.09792 453.62842,743.53827 467.39041,742.6349 481.542,741.40215 496.3101,739.85427 511.92164,738.00551 528.60352,735.87032 546.58266,733.46294 555.61098,737.87612 564.91601,741.30182 574.20864,743.86318 583.19994,745.68352 591.60089,746.88591 599.12246,747.59348 605.47564,747.92938 610.37144,748.01685 613.52085,747.97903 614.63488,747.93907"
       id="polyline3649"
       style="stroke:#000000" />
    <path
       d="M 614.63488,747.93907 C 615.13456,747.92115 615.13456,747.92115 615.13456,747.92115 C 623.60557,747.61729 632.06945,748.3679 640.43245,749.75009 C 644.61395,750.44119 648.845,751.09671 653.07351,750.80979 C 655.18776,750.66633 657.29494,750.27777 659.27668,749.52722 C 661.25843,748.77667 663.11475,747.65548 664.60275,746.14667 C 666.88296,743.83456 668.2185,740.64867 668.41157,737.40707 C 668.60464,734.16547 667.68042,730.88921 665.94295,728.14577 C 664.20548,725.40233 661.67653,723.18921 658.79182,721.69801 C 655.9071,720.20682 652.67597,719.42667 649.43161,719.28749 C 642.94289,719.00913 636.54489,721.26638 630.97716,724.61024 C 625.40943,727.9541 620.56266,732.35365 615.78812,736.75647 C 611.01358,741.15929 606.23702,745.62222 600.76682,749.12335 C 595.29662,752.62448 589.02582,755.14608 582.53178,755.23776 C 579.28476,755.2836 576.01507,754.71304 573.03153,753.43095 C 570.04799,752.14886 567.35823,750.14417 565.39288,747.55909 C 563.42752,744.97401 562.20662,741.80383 562.07599,738.55911 C 561.94536,735.31439 562.93101,732.01184 564.93348,729.4554 C 567.54421,726.12242 571.6547,724.24934 575.80742,723.42493 C 579.96014,722.60052 584.23451,722.69093 588.46624,722.82193 C 596.9297,723.08394 605.40921,722.71888 613.76183,721.32873 C 614.25505,721.24664 614.25505,721.24664 614.25505,721.24664"
       id="path3651"
       inkscape:connector-curvature="0"
       style="stroke:#ff0000" />
    <polyline
       points="27.11079,792.35438 70.18388,718.02084 113.15046,643.49607 156.04005,568.8305 198.88221,494.07472 241.70644,419.27934 284.54232,344.49487 327.41939,269.77187 370.36716,195.16089 413.41516,120.7125 456.59302,46.47726 464.01687,36.88195 472.32244,29.45724 481.27512,24.18249 490.64032,21.03697 500.18348,20 509.67006,21.05089 518.86549,24.16893 527.53513,29.33345 535.44453,36.52374 542.35899,45.71911 971.62895,791.8618 976.56303,802.79439 979.34376,813.87416 980,824.78813 978.56083,835.22321 975.05521,844.86641 969.5122,853.40476 961.96078,860.52518 952.42982,865.91467 940.94847,869.26035 927.54563,870.24896 71.05142,868.46755 57.79254,867.19241 46.5002,863.71334 37.18763,858.30931 29.86808,851.25923 24.5548,842.84179 21.26102,833.33598 20,823.0206 20.78497,812.17463 23.62917,801.07679 28.54587,790.00606"
       id="polyline3659"
       style="stroke:#000000" />
    <path
       d="M 27.11079,792.35438 C 26.86011,792.787 26.86011,792.787 26.86011,792.787 C 22.7046,799.95838 18.18164,806.90815 13.4394,813.70581 C 8.69716,820.50347 3.80139,827.51655 2.04247,835.61613 C 0.68965,841.84567 1.38214,848.47274 3.80861,854.36762 C 6.23508,860.2625 10.36324,865.41679 15.46642,869.23712 C 20.5696,873.05745 26.62619,875.55388 32.90735,876.64217 C 39.18851,877.73046 45.68631,877.42541 51.889,875.95435 C 64.29437,873.01222 75.30892,865.46999 83.80162,855.96087 C 92.29432,846.45175 98.41685,835.03809 103.22395,823.22957 C 112.83813,799.61252 117.53136,773.96219 129.78835,751.60233 C 135.91685,740.4224 144.00325,730.12035 154.43777,722.79436 C 164.87229,715.46837 177.80273,711.29802 190.47283,712.71848 C 198.68857,713.63956 206.48058,716.74266 214.16859,719.78261 C 221.8566,722.82255 229.61014,725.69592 237.4572,728.29791 C 237.93179,728.45528 237.93179,728.45528 237.93179,728.45528"
       id="path3661"
       inkscape:connector-curvature="0"
       style="stroke:#ff0000" />
    <polyline
       points="303.63309,417.05962 310.93378,429.5393 319.89251,439.02098 330.07995,445.59195 341.06685,449.33953 352.42393,450.35105 363.72195,448.71388 374.53154,444.51532 384.42351,437.84268 392.96852,428.78329 399.73729,417.42453"
       id="polyline3669"
       style="stroke:#000000" />
    <polyline
       points="401.63863,417.65391 408.93924,430.13355 417.89793,439.61523 428.08537,446.18615 439.07232,449.93373 450.4294,450.9453 461.72742,449.30814 472.53706,445.10957 482.42902,438.43697 490.97403,429.37759 497.7428,418.01883"
       id="polyline3671"
       style="stroke:#000000" />
    <path
       d="M 401.63863,417.65391 C 401.38616,417.22233 401.38616,417.22233 401.38616,417.22233 C 397.1719,410.0185 392.50904,403.08892 387.53624,396.38621 C 385.04984,393.03485 382.56016,389.67387 380.44722,386.07536 C 378.33428,382.47685 376.60036,378.60375 375.86206,374.4966 C 374.54986,367.19685 376.6204,359.35801 381.37065,353.66211 C 386.1209,347.96621 393.46321,344.52113 400.87995,344.51394 C 408.2967,344.50675 415.6478,347.93937 420.39924,353.63428 C 425.15068,359.32919 427.21062,367.17915 425.86205,374.47227 C 425.10314,378.57646 423.34157,382.4392 421.19993,386.02161 C 419.05828,389.60402 416.53862,392.94378 414.02224,396.27366 C 408.98947,402.93343 404.26644,409.82413 399.99326,416.995 C 399.73731,417.42452 399.73731,417.42452 399.73731,417.42452"
       id="path3673"
       inkscape:connector-curvature="0"
       style="stroke:#ff0000" />
    <polyline
       points="500.11586,417.25039 507.41652,429.73007 516.37521,439.21171 526.5626,445.78263 537.5495,449.53025 548.90658,450.54177 560.2046,448.90461 571.01424,444.70604 580.9062,438.03345 589.45126,428.97406 596.22008,417.6153"
       id="polyline3681"
       style="stroke:#000000" />
    <path
       d="M 500.11586,417.25039 C 499.86339,416.81881 499.86339,416.81881 499.86339,416.81881 C 495.6375,409.59511 490.94811,402.65462 485.92173,395.96316 C 483.40854,392.61743 480.88754,389.26522 478.74709,385.6696 C 476.60664,382.07398 474.84884,378.19605 474.10844,374.07758 C 472.78906,366.73853 474.9509,358.85422 479.81362,353.20123 C 484.67634,347.54824 492.13917,344.23381 499.5941,344.39609 C 507.04903,344.55837 514.35317,348.18785 519.0009,354.01889 C 523.64863,359.84992 525.55812,367.7697 524.09834,375.08212 C 523.2798,379.18243 521.47769,383.03178 519.30693,386.60533 C 517.13617,390.17889 514.59826,393.51345 512.0686,396.84261 C 507.00927,403.50093 502.27956,410.40567 497.99876,417.58932 C 497.74281,418.01884 497.74281,418.01884 497.74281,418.01884"
       id="path3683"
       inkscape:connector-curvature="0"
       style="stroke:#ff0000" />
    <polyline
       points="598.99666,417.25039 606.29727,429.73007 615.25596,439.21171 625.4434,445.78263 636.43035,449.53025 647.78743,450.54177 659.08545,448.90461 669.89509,444.70604 679.78705,438.03345 688.33206,428.97406 695.10083,417.6153"
       id="polyline3691"
       style="stroke:#000000" />
    <path
       d="M 598.99666,417.25039 C 598.74419,416.81881 598.74419,416.81881 598.74419,416.81881 C 594.51049,409.58171 589.81026,402.62918 584.75375,395.94102 C 582.22549,392.59694 579.68514,389.25003 577.51925,385.66061 C 575.35337,382.07119 573.56364,378.20049 572.78431,374.08132 C 571.39148,366.71945 573.47903,358.77714 578.30418,353.04521 C 583.12934,347.31328 590.59455,343.90272 598.08642,343.99764 C 605.57829,344.09256 612.95107,347.68799 617.64671,353.52649 C 622.34235,359.36499 624.2731,367.33248 622.78079,374.67484 C 621.94616,378.78131 620.11874,382.63011 617.92318,386.19931 C 615.72762,389.76851 613.16516,393.09586 610.61503,396.421 C 605.51478,403.07127 600.76628,409.98632 596.47603,417.18579 C 596.22007,417.61531 596.22007,417.61531 596.22007,417.61531"
       id="path3693"
       inkscape:connector-curvature="0"
       style="stroke:#ff0000" />
  </g>
</svg>
