<?xml version="1.0" encoding="UTF-8" standalone="no"?>
<!-- Created with Inkscape (http://www.inkscape.org/) -->

<svg
   xmlns:dc="http://purl.org/dc/elements/1.1/"
   xmlns:cc="http://creativecommons.org/ns#"
   xmlns:rdf="http://www.w3.org/1999/02/22-rdf-syntax-ns#"
   xmlns:svg="http://www.w3.org/2000/svg"
   xmlns="http://www.w3.org/2000/svg"
   xmlns:sodipodi="http://sodipodi.sourceforge.net/DTD/sodipodi-0.dtd"
   xmlns:inkscape="http://www.inkscape.org/namespaces/inkscape"
   width="985.63428"
   height="830.76788"
   id="svg4540"
   version="1.1"
   inkscape:version="0.48+devel r"
   viewBox="0 0 985.63427 830.7679"
   sodipodi:docname="hai_achtung.svg">
  <defs
     id="defs4542" />
  <sodipodi:namedview
     id="base"
     pagecolor="#ffffff"
     bordercolor="#666666"
     borderopacity="1.0"
     inkscape:pageopacity="0.0"
     inkscape:pageshadow="2"
     inkscape:zoom="1.979899"
     inkscape:cx="284.53812"
     inkscape:cy="184.08187"
     inkscape:document-units="px"
     inkscape:current-layer="layer1-9"
     showgrid="false"
     inkscape:window-width="2560"
     inkscape:window-height="1378"
     inkscape:window-x="0"
     inkscape:window-y="27"
     inkscape:window-maximized="1"
     fit-margin-top="0"
     fit-margin-left="0"
     fit-margin-right="0"
     fit-margin-bottom="0" />
  <metadata
     id="metadata4545">
    <rdf:RDF>
      <cc:Work
         rdf:about="">
        <dc:format>image/svg+xml</dc:format>
        <dc:type
           rdf:resource="http://purl.org/dc/dcmitype/StillImage" />
        <dc:title></dc:title>
      </cc:Work>
    </rdf:RDF>
  </metadata>
  <g
     inkscape:label="Layer 1"
     inkscape:groupmode="layer"
     id="layer1"
     transform="translate(278.23555,-62.49952)">
    <g
       id="layer1-5"
       inkscape:label="Ebene 1"
       transform="translate(-715.52025,-374.04797)">
      <g
         transform="translate(-48.069662,148.40419)"
         inkscape:label="Ebene 1"
         id="layer1-9">
        <path
           inkscape:connector-curvature="0"
           style="fill:none;stroke:#000000;stroke-width:2;stroke-linecap:butt;stroke-linejoin:miter;stroke-miterlimit:4;stroke-dasharray:none;stroke-opacity:1"
           d="M 765.61975,906.64659 C 770.6709,904.63519 773.59625,903.64312 779.09709,903.61481"
           id="path3074" />
        <path
           inkscape:connector-curvature="0"
           style="fill:none;stroke:#ff0000;stroke-width:2;stroke-linecap:butt;stroke-linejoin:miter;stroke-opacity:1"
           d="M 778.91852,903.88265 C 894.38885,907.63865 1001.6819,984.39201 1113.9951,968.21171"
           id="path3072" />
        <path
           inkscape:connector-curvature="0"
           style="fill:none;stroke:#000000;stroke-width:2;stroke-linecap:butt;stroke-linejoin:miter;stroke-miterlimit:4;stroke-dasharray:none;stroke-opacity:1"
           d="M 1115.9594,967.85457 C 1131.9862,965.54568 1152.2664,958.70818 1171.6886,955.30598 C 1201.2925,979.37591 1227.3792,1008.1629 1276.6295,996.17914"
           id="path3050" />
        <path
           inkscape:connector-curvature="0"
           style="fill:none;stroke:#000000;stroke-width:2;stroke-linecap:butt;stroke-linejoin:miter;stroke-miterlimit:4;stroke-dasharray:none;stroke-opacity:1"
           d="M 1275.625,998.16576 C 1255.2001,963.15058 1241.9601,966.20039 1232.7705,924.20918 C 1263.4162,878.38325 1286.2767,860.35013 1297.5508,838.18764"
           id="path3048" />
        <path
           inkscape:connector-curvature="0"
           style="fill:none;stroke:#000000;stroke-width:2;stroke-linecap:butt;stroke-linejoin:miter;stroke-miterlimit:4;stroke-dasharray:none;stroke-opacity:1"
           d="M 1298.5329,840.19657 C 1249.0935,831.32593 1190.1135,878.38472 1173.4922,901.893 C 1057.0933,864.9635 1036.9204,863.6822 964.28573,854.68361"
           id="path3046" />
        <path
           inkscape:connector-curvature="0"
           style="fill:none;stroke:#000000;stroke-width:2;stroke-linecap:butt;stroke-linejoin:miter;stroke-miterlimit:4;stroke-dasharray:none;stroke-opacity:1"
           d="M 966.42858,857.00504 C 968.15058,820.36381 985.21317,807.1667 1007.3214,786.46933"
           id="path3044" />
        <path
           style="fill:none;stroke:#000000;stroke-width:2;stroke-linecap:butt;stroke-linejoin:miter;stroke-miterlimit:4;stroke-dasharray:none;stroke-opacity:1"
           d="M 1007.6786,789.50504 C 949.99155,786.09243 906.00527,814.49035 869.17805,850.96951 C 815.59502,855.525 734.05041,871.07234 681.42858,915.21933"
           id="path3042"
           inkscape:connector-curvature="0"
           sodipodi:nodetypes="ccc" />
        <path
           inkscape:connector-curvature="0"
           style="fill:none;stroke:#000000;stroke-width:2;stroke-linecap:butt;stroke-linejoin:miter;stroke-miterlimit:4;stroke-dasharray:none;stroke-opacity:1"
           d="M 681.78572,910.57648 C 701.62757,931.71379 708.80751,941.27681 722.85715,952.00505 C 759.43635,950.02065 784.01104,947.60806 796.07144,950.93362"
           id="path3040" />
        <path
           inkscape:connector-curvature="0"
           style="fill:none;stroke:#ff0000;stroke-width:2;stroke-linecap:butt;stroke-linejoin:miter;stroke-miterlimit:4;stroke-dasharray:none;stroke-opacity:1"
           d="M 797.08159,951.31243 C 846.19091,965.96987 849.59981,1021.3357 805.66353,1043.9133 C 756.12969,1069.3674 685.45688,1060.4222 692.04134,1005.8024 C 695.69271,975.51329 724.54501,964.7102 749.76541,973.76013"
           id="path3856" />
        <path
           inkscape:connector-curvature="0"
           style="fill:none;stroke:#000000;stroke-width:2;stroke-linecap:butt;stroke-linejoin:miter;stroke-miterlimit:4;stroke-dasharray:none;stroke-opacity:1"
           d="M 751.7297,974.83155 C 787.04637,987.50437 813.87974,987.42493 840.86748,987.03568"
           id="path3038" />
        <path
           inkscape:connector-curvature="0"
           style="fill:none;stroke:#000000;stroke-width:2;stroke-linecap:butt;stroke-linejoin:miter;stroke-miterlimit:4;stroke-dasharray:none;stroke-opacity:1"
           d="M 835.51034,982.03568 C 855.93157,1021.1296 877.37487,1043.1429 937.5,1047.1836"
           id="path3084" />
        <path
           inkscape:connector-curvature="0"
           style="fill:none;stroke:#000000;stroke-width:2;stroke-linecap:butt;stroke-linejoin:miter;stroke-miterlimit:4;stroke-dasharray:none;stroke-opacity:1"
           d="M 936.42857,1049.1479 C 906.61726,1015.3348 908.53324,983.19283 912.35207,967.61473"
           id="path3036" />
        <path
           inkscape:connector-curvature="0"
           style="fill:none;stroke:#ff0000;stroke-width:2;stroke-linecap:butt;stroke-linejoin:miter;stroke-opacity:1"
           d="M 912.85715,965.84696 C 919.00533,940.76685 917.27582,895.63764 870.53354,904.39481 C 842.66101,909.61673 833.10321,938.12942 845.9012,960.51392 C 858.98402,983.39659 880.44436,988.0165 903.81653,989.20918"
           id="path3034" />
        <path
           style="fill:none;stroke:#000000;stroke-width:2;stroke-linecap:butt;stroke-linejoin:miter;stroke-miterlimit:4;stroke-dasharray:none;stroke-opacity:1"
           d="M 906.59445,989.46172 C 954.36574,991.89946 990.1206,987.86866 1050.4618,979.67836 C 1078.832,995.64129 1116.3271,993.68923 1116.3271,993.68923"
           id="path2996"
           inkscape:connector-curvature="0"
           sodipodi:nodetypes="ccc" />
        <path
           inkscape:connector-curvature="0"
           style="fill:none;stroke:#ff0000;stroke-width:2;stroke-linecap:butt;stroke-linejoin:miter;stroke-opacity:1"
           d="M 1276.7857,996.11218 C 1304.0331,989.89462 1322.6621,979.11524 1340.7366,985.47187 C 1359.4015,992.03612 1374.6083,1009.8305 1363.6095,1034.2599 C 1352.6107,1058.6894 1323.0829,1059.0191 1304.4485,1048.8236 C 1287.4989,1039.5498 1285.371,1016.2813 1275.8088,998.46676"
           id="path3000" />
        <path
           inkscape:connector-curvature="0"
           style="fill:none;stroke:#ff0000;stroke-width:2;stroke-linecap:butt;stroke-linejoin:miter;stroke-opacity:1"
           d="M 1297.9287,837.73896 C 1313.7258,809.361 1313.0294,790.33607 1329.5372,777.93854 C 1347.6003,764.37297 1371.6858,759.75467 1389.7194,782.8667 C 1407.7531,805.97873 1395.6894,830.2976 1374.8057,841.01046 C 1355.8101,850.75479 1331.5041,845.51449 1299.0621,840.29871"
           id="path3000-1" />
        <path
           inkscape:connector-curvature="0"
           style="fill:none;stroke:#ff0000;stroke-width:2;stroke-linecap:butt;stroke-linejoin:miter;stroke-opacity:1"
           d="M 966.38394,857.36218 C 967.4884,872.41623 965.57635,900.97593 955.89287,911.82647 C 940.6881,928.86373 911.44193,936.38454 893.96972,917.26809 C 876.49751,898.15165 883.89823,873.33866 898.92857,864.32647 C 917.48632,853.19925 937.35785,851.98289 963.88394,854.72827"
           id="path3009" />
        <path
           style="fill:none;stroke:#ff0000;stroke-width:2;stroke-linecap:butt;stroke-linejoin:miter;stroke-opacity:1"
           d="M 1007.6442,786.25022 C 1018.7468,776.13423 1017.0933,749.02454 1037.1429,737.71933 C 1060.0999,724.7747 1085.6678,736.82248 1092.6786,756.46932 C 1099.6894,776.11616 1089.4073,800.3117 1068.3929,804.68361 C 1041.0961,810.36254 1028.0442,790.67739 1008.2248,789.6115"
           id="path3026"
           inkscape:connector-curvature="0"
           sodipodi:nodetypes="csssc" />
        <path
           inkscape:connector-curvature="0"
           style="fill:none;stroke:#ff0000;stroke-width:2;stroke-linecap:butt;stroke-linejoin:miter;stroke-opacity:1"
           d="M 681.36916,910.1401 C 663.78714,894.19092 645.6527,874.45608 622.50001,867.36218 C 596.94011,859.53073 561.0224,877.8182 562.14287,910.21933 C 563.26333,942.62046 598.31179,958.20341 622.67858,951.82647 C 649.21959,944.88051 661.249,930.12429 681.01574,915.59628"
           id="path3028" />
        <path
           inkscape:connector-curvature="0"
           style="fill:none;stroke:#ff0000;stroke-width:2;stroke-linecap:butt;stroke-linejoin:miter;stroke-opacity:1"
           d="M 841.33929,987.09433 C 863.86581,986.94036 874.93038,989.64425 890.51778,979.19431 C 901.23285,972.01083 909.00474,946.44864 890.44598,929.2893 C 871.88723,912.12995 845.35702,919.3681 835.7598,936.25269 C 829.53345,947.20684 828.08676,967.85201 835.00001,981.29075"
           id="path3030" />
        <path
           style="fill:none;stroke:#ff0000;stroke-width:2;stroke-linecap:butt;stroke-linejoin:miter;stroke-opacity:1"
           d="M 938.24122,1047.2991 C 972.47599,1047.8357 985.48516,1031.5966 1015.0928,1039.1427 C 1037.3214,1044.8081 1053.727,1074.528 1038.7369,1099.1829 C 1023.7469,1123.8378 986.45782,1122.3624 968.50671,1105.1423 C 950.17957,1087.5615 951.60907,1070.8863 936.8795,1049.7647"
           id="path3078"
           inkscape:connector-curvature="0"
           sodipodi:nodetypes="cszsc" />
        <path
           style="fill:none;stroke:#ff0000;stroke-width:2;stroke-linecap:butt;stroke-linejoin:miter;stroke-opacity:1"
           d="M 1118.3221,993.86189 C 1193.047,996.00677 1362.9521,1158.1516 1416.2951,983.90603 C 1446.634,884.80342 1289.6227,759.80418 1232.3554,721.81514"
           id="path3080"
           inkscape:connector-curvature="0"
           sodipodi:nodetypes="csc" />
        <ellipse
           transform="translate(37.404428,33.595689)"
           style="fill:#0000ff"
           rx="0"
           ry="11"
           id="svg_3"
           cy="244"
           cx="257" />
        <ellipse
           transform="translate(37.404428,33.595689)"
           style="fill:#0000ff"
           rx="0"
           ry="5"
           id="svg_4"
           cy="245"
           cx="258" />
        <g
           transform="translate(37.404428,33.595689)"
           id="svg_2">
          <path
             sodipodi:nodetypes="ccccccc"
             id="path3950"
             d="M 510.27926,1003.0816 C 649.44583,763.62877 786.4176,520.27453 925.95958,281.17402 C 948.23609,246.69378 988.51888,247.56183 1008.9694,280.44024 L 1424.4443,1002.6048 C 1443.8676,1037.3017 1428.0863,1079.4219 1381.7776,1078.4729 L 552.80782,1076.7487 C 506.87385,1076.4898 492.44856,1036.1816 511.66822,1000.8087"
             style="fill:none;stroke:#000000;stroke-width:2;stroke-linejoin:round;stroke-miterlimit:4;stroke-dasharray:none;stroke-opacity:1"
             inkscape:connector-curvature="0" />
          <g
             transform="translate(657.77971,385.71429)"
             inkscape:tile-y0="402.93361"
             inkscape:tile-x0="68.000002"
             inkscape:tile-h="101.42857"
             inkscape:tile-w="121.62172"
             inkscape:tile-cy="457.39789"
             inkscape:tile-cx="125.06086"
             id="g3188"
             style="stroke-width:2">
            <path
               style="fill:none;stroke:#000000;stroke-width:2;stroke-linecap:butt;stroke-linejoin:miter;stroke-miterlimit:4;stroke-dasharray:none;stroke-opacity:1"
               d="M 78.665236,302.3623 C 78.665236,302.3623 88.665236,322.3623 118.66523,322.3623 C 148.66523,322.3623 158.66523,302.3623 158.66523,302.3623"
               id="path3885-6"
               inkscape:connector-curvature="0"
               sodipodi:nodetypes="czc"
               inkscape:tile-cx="140"
               inkscape:tile-cy="32.362183"
               inkscape:tile-w="80"
               inkscape:tile-h="20"
               inkscape:tile-x0="100"
               inkscape:tile-y0="22.362183" />
            <path
               style="fill:none;stroke:#ff0000;stroke-width:2;stroke-linecap:butt;stroke-linejoin:miter;stroke-opacity:1"
               d="M 159.53249,300.93373 C 176.12603,286.58747 196.13627,279.6507 199.53249,260.93373 C 202.0922,246.82688 199.53249,220.93373 169.53249,220.93373 C 139.53249,220.93373 135.63424,245.70134 139.53249,260.93373 C 144.60991,280.77373 155.66523,280.3623 169.88963,300.93373"
               id="path3186"
               inkscape:connector-curvature="0"
               sodipodi:nodetypes="cszsc" />
          </g>
          <path
             sodipodi:nodetypes="cc"
             inkscape:connector-curvature="0"
             id="path3295"
             d="M 733.00754,683.3201 C 607.49593,485.68702 585.42005,894.39989 512.09981,1000.1292"
             style="fill:none;stroke:#ff0000;stroke-width:2;stroke-linecap:butt;stroke-linejoin:miter;stroke-opacity:1" />
          <path
             sodipodi:nodetypes="cc"
             inkscape:connector-curvature="0"
             id="path3297"
             d="M 509.59382,1005.0052 C 490.11555,1035.8148 468.42354,1037.8963 448.52239,1051.7909"
             style="fill:none;stroke:#ff0000;stroke-width:2;stroke-linecap:butt;stroke-linejoin:miter;stroke-opacity:1" />
          <g
             id="g4652"
             inkscape:tile-cx="125.06086"
             inkscape:tile-cy="457.39789"
             inkscape:tile-w="121.62172"
             inkscape:tile-h="101.42857"
             inkscape:tile-x0="68.000002"
             inkscape:tile-y0="402.93361"
             transform="translate(749.92257,385.71429)"
             style="stroke-width:2">
            <path
               inkscape:tile-y0="22.362183"
               inkscape:tile-x0="100"
               inkscape:tile-h="20"
               inkscape:tile-w="80"
               inkscape:tile-cy="32.362183"
               inkscape:tile-cx="140"
               sodipodi:nodetypes="czc"
               inkscape:connector-curvature="0"
               id="path4654"
               d="M 78.665236,302.3623 C 78.665236,302.3623 88.665236,322.3623 118.66523,322.3623 C 148.66523,322.3623 158.66523,302.3623 158.66523,302.3623"
               style="fill:none;stroke:#000000;stroke-width:2;stroke-linecap:butt;stroke-linejoin:miter;stroke-miterlimit:4;stroke-dasharray:none;stroke-opacity:1" />
            <path
               sodipodi:nodetypes="cszsc"
               inkscape:connector-curvature="0"
               id="path4656"
               d="M 159.53249,300.93373 C 176.12603,286.58747 196.13627,279.6507 199.53249,260.93373 C 202.0922,246.82688 199.53249,220.93373 169.53249,220.93373 C 139.53249,220.93373 135.63424,245.70134 139.53249,260.93373 C 144.60991,280.77373 155.66523,280.3623 169.88963,300.93373"
               style="fill:none;stroke:#ff0000;stroke-width:2;stroke-linecap:butt;stroke-linejoin:miter;stroke-opacity:1" />
          </g>
          <g
             transform="translate(841.84645,385.71429)"
             inkscape:tile-y0="402.93361"
             inkscape:tile-x0="68.000002"
             inkscape:tile-h="101.42857"
             inkscape:tile-w="121.62172"
             inkscape:tile-cy="457.39789"
             inkscape:tile-cx="125.06086"
             id="g4658"
             style="stroke-width:2">
            <path
               style="fill:none;stroke:#000000;stroke-width:2;stroke-linecap:butt;stroke-linejoin:miter;stroke-miterlimit:4;stroke-dasharray:none;stroke-opacity:1"
               d="M 78.665236,302.3623 C 78.665236,302.3623 88.665236,322.3623 118.66523,322.3623 C 148.66523,322.3623 158.66523,302.3623 158.66523,302.3623"
               id="path4660"
               inkscape:connector-curvature="0"
               sodipodi:nodetypes="czc"
               inkscape:tile-cx="140"
               inkscape:tile-cy="32.362183"
               inkscape:tile-w="80"
               inkscape:tile-h="20"
               inkscape:tile-x0="100"
               inkscape:tile-y0="22.362183" />
            <path
               style="fill:none;stroke:#ff0000;stroke-width:2;stroke-linecap:butt;stroke-linejoin:miter;stroke-opacity:1"
               d="M 159.53249,300.93373 C 176.12603,286.58747 196.13627,279.6507 199.53249,260.93373 C 202.0922,246.82688 199.53249,220.93373 169.53249,220.93373 C 139.53249,220.93373 135.63424,245.70134 139.53249,260.93373 C 144.60991,280.77373 155.66523,280.3623 169.88963,300.93373"
               id="path4662"
               inkscape:connector-curvature="0"
               sodipodi:nodetypes="cszsc" />
          </g>
          <g
             id="g4664"
             inkscape:tile-cx="125.06086"
             inkscape:tile-cy="457.39789"
             inkscape:tile-w="121.62172"
             inkscape:tile-h="101.42857"
             inkscape:tile-x0="68.000002"
             inkscape:tile-y0="402.93361"
             transform="translate(933.77033,385.71429)"
             style="stroke-width:2">
            <path
               inkscape:tile-y0="22.362183"
               inkscape:tile-x0="100"
               inkscape:tile-h="20"
               inkscape:tile-w="80"
               inkscape:tile-cy="32.362183"
               inkscape:tile-cx="140"
               sodipodi:nodetypes="czc"
               inkscape:connector-curvature="0"
               id="path4666"
               d="M 78.665236,302.3623 C 78.665236,302.3623 88.665236,322.3623 118.66523,322.3623 C 148.66523,322.3623 158.66523,302.3623 158.66523,302.3623"
               style="fill:none;stroke:#000000;stroke-width:2;stroke-linecap:butt;stroke-linejoin:miter;stroke-miterlimit:4;stroke-dasharray:none;stroke-opacity:1" />
            <path
               sodipodi:nodetypes="cszsc"
               inkscape:connector-curvature="0"
               id="path4668"
               d="M 159.53249,300.93373 C 176.12603,286.58747 196.13627,279.6507 199.53249,260.93373 C 202.0922,246.82688 199.53249,220.93373 169.53249,220.93373 C 139.53249,220.93373 135.63424,245.70134 139.53249,260.93373 C 144.60991,280.77373 155.66523,280.3623 169.88963,300.93373"
               style="fill:none;stroke:#ff0000;stroke-width:2;stroke-linecap:butt;stroke-linejoin:miter;stroke-opacity:1" />
          </g>
          <g
             transform="translate(1025.6942,385.71429)"
             inkscape:tile-y0="402.93361"
             inkscape:tile-x0="68.000002"
             inkscape:tile-h="101.42857"
             inkscape:tile-w="121.62172"
             inkscape:tile-cy="457.39789"
             inkscape:tile-cx="125.06086"
             id="g4670"
             style="stroke-width:2">
            <path
               style="fill:none;stroke:#000000;stroke-width:2;stroke-linecap:butt;stroke-linejoin:miter;stroke-miterlimit:4;stroke-dasharray:none;stroke-opacity:1"
               d="M 78.665236,302.3623 C 78.665236,302.3623 88.665236,322.3623 118.66523,322.3623 C 148.66523,322.3623 158.66523,302.3623 158.66523,302.3623"
               id="path4672"
               inkscape:connector-curvature="0"
               sodipodi:nodetypes="czc"
               inkscape:tile-cx="140"
               inkscape:tile-cy="32.362183"
               inkscape:tile-w="80"
               inkscape:tile-h="20"
               inkscape:tile-x0="100"
               inkscape:tile-y0="22.362183" />
            <path
               style="fill:none;stroke:#ff0000;stroke-width:2;stroke-linecap:butt;stroke-linejoin:miter;stroke-opacity:1"
               d="M 159.53249,300.93373 C 176.12603,286.58747 196.13627,279.6507 199.53249,260.93373 C 202.0922,246.82688 199.53249,220.93373 169.53249,220.93373 C 139.53249,220.93373 134.0867,245.57944 135.99696,261.18627 C 138.54899,282.03642 147.33148,287.18083 168.75321,302.19642"
               id="path4674"
               inkscape:connector-curvature="0"
               sodipodi:nodetypes="cszsc" />
          </g>
        </g>
        <circle
           style="opacity:1;fill:#00ff00;fill-opacity:1;stroke:none;stroke-width:2;stroke-linecap:round;stroke-linejoin:round;stroke-miterlimit:4;stroke-dasharray:1, 2;stroke-dashoffset:0"
           id="path3493"
           cx="753.5498"
           cy="912.33502"
           r="6.0609155" />
      </g>
    </g>
  </g>
</svg>
