<svg x="0" y="0" width="2918.91059" height="2002.15191" version="1.1" xmlns="http://www.w3.org/2000/svg" xmlns:xlink="http://www.w3.org/1999/xlink"><g fill="none" stroke="none" stroke-width="2" stroke-linecap="butt" stroke-linejoin="miter" stroke-miterlimit="10" stroke-dasharray="" stroke-dashoffset="0" font-family="sans-serif" font-weight="normal" font-size="12" text-anchor="start" mix-blend-mode="normal"><polyline points="252.28302,658.00634 253.78765,657.41444 255.18963,656.88535 256.51813,656.41876 257.80227,656.01434 259.07121,655.67179 260.35408,655.39066 261.68004,655.17064 263.07822,655.01141 264.57778,654.91259 266.20785,654.87387" stroke="#000000"></polyline><path d="M266.20785,654.87387c0.29992,-0.00712 0.29992,-0.00712 0.29992,-0.00712c9.90165,-0.2352 19.81353,-1.42717 29.69162,-0.70528c7.2789,0.53194 14.52244,2.49331 20.76438,6.27531c6.24194,3.782 11.43504,9.4529 14.07832,16.25572c2.64328,6.80282 2.58438,14.73392 -0.71111,21.24584c-1.64774,3.25596 -4.07294,6.12581 -7.05581,8.22791c-2.98287,2.1021 -6.52211,3.42512 -10.15972,3.71514c-4.95356,0.39494 -9.85262,-1.03192 -14.62528,-2.41592c-4.77266,-1.384 -9.58581,-2.6271 -14.45067,-3.64042c-0.2937,-0.06118 -0.2937,-0.06118 -0.2937,-0.06118" stroke="#ff0000"></path><g stroke="#ff0000"><line x1="266.20785" y1="654.87387" x2="283.74581" y2="703.76386"></line><polyline points="274.09867,701.13086 283.74581,703.76386 289.51953,695.59905"></polyline></g><polyline points="614.25506,721.24665 619.34928,720.39885 624.6755,719.31967 630.20204,718.0585 635.89721,716.66465 641.72928,715.18761 647.6666,713.67666 653.67749,712.18121 659.73025,710.75059 665.79319,709.43418 671.83463,708.28141 680.92923,715.84131 689.97121,723.41175 699.12594,730.71051 708.55884,737.45584 718.43528,743.36554 728.92068,748.15779 740.18045,751.55045 752.37999,753.26169 765.68466,753.00938 780.25989,750.51164" stroke="#000000"></polyline><path d="M614.25506,721.24665c-0.29593,0.04925 -0.29593,0.04925 -0.29593,0.04925c-4.9977,0.83174 -10.06855,1.0835 -15.13391,0.97918c-2.53268,-0.05216 -5.08795,-0.08166 -7.57377,0.40605c-2.48583,0.48771 -4.94657,1.56219 -6.58937,3.49051c-1.26139,1.48062 -1.96719,3.40751 -2.0425,5.35113c-0.07532,1.94363 0.46725,3.89513 1.46442,5.56516c0.99717,1.67003 2.43874,3.06019 4.10167,4.06916c1.66293,1.00897 3.54279,1.64193 5.46659,1.92892c3.84759,0.57398 7.79857,-0.22935 11.41574,-1.66096c3.61717,-1.43161 6.95501,-3.47341 10.28695,-5.48129c3.33194,-2.00788 6.70309,-4.00394 10.35961,-5.33182c3.65652,-1.32788 7.65293,-1.96229 11.46154,-1.16989c1.90431,0.3962 3.74225,1.14952 5.32908,2.2744c1.58682,1.12488 2.91721,2.6263 3.76802,4.37543c0.85081,1.74914 1.21102,3.7464 0.94239,5.67285c-0.26863,1.92645 -1.1782,3.77101 -2.59994,5.09842c-1.85346,1.73049 -4.43629,2.49675 -6.96659,2.66271c-2.53029,0.16596 -5.06269,-0.20149 -7.56864,-0.58898c-5.0119,-0.77497 -10.07746,-1.19043 -15.14566,-1.00854c-0.29981,0.01076 -0.29981,0.01076 -0.29981,0.01076" stroke="#ff0000"></path><g stroke="#ff0000"><line x1="614.25506" y1="721.24665" x2="614.63494" y2="747.9391"></line><polyline points="606.36263,742.32048 614.63494,747.9391 622.74401,742.08734"></polyline></g><polyline points="779.22208,752.56423 773.11058,742.80493 767.42513,734.89011 762.14617,728.30464 757.25434,722.53336 752.7302,717.06105 748.55432,711.37244 744.70727,704.95251 741.16957,697.28591 737.92186,687.85749 734.94465,676.1521 744.19839,662.77633 752.94597,650.92558 761.16376,640.40203 768.82822,631.00772 775.91582,622.54478 782.40298,614.8153 788.26608,607.62144 793.48166,600.76525 798.02614,594.04883 801.87587,587.27433" stroke="#000000"></polyline><path d="M779.22208,752.56423c0.15922,0.25426 0.15922,0.25426 0.15922,0.25426c2.52355,4.0298 4.87197,8.16633 7.36983,12.2121c2.49786,4.04577 5.38826,8.09 9.56645,10.35942c3.62817,1.97067 8.08137,2.35998 11.99564,1.04637c3.91428,-1.31361 7.23172,-4.31144 8.9315,-8.07413c1.69978,-3.76269 1.75605,-8.23473 0.14916,-12.03802c-1.60689,-3.80329 -4.8536,-6.88079 -8.73823,-8.27964c-4.47145,-1.61016 -9.41254,-1.06604 -14.09083,-0.22934c-4.67829,0.83669 -9.32502,1.84297 -14.00926,2.64571c-0.29569,0.05067 -0.29569,0.05067 -0.29569,0.05067" stroke="#ff0000"></path><g stroke="#ff0000"><line x1="779.22208" y1="752.56423" x2="780.25989" y2="750.51164"></line><polyline points="784.98209,759.32644 780.25989,750.51164 770.36159,751.93421"></polyline></g><polyline points="802.8906,589.34997 787.32419,588.25191 771.4881,590.12828 755.70404,594.48644 740.29374,600.83367 725.57895,608.67719 711.88137,617.52434 699.52279,626.88242 688.82488,636.25868 680.10943,645.16041 673.69817,653.0949 640.44802,642.70838 612.24143,634.26291 588.15659,627.48967 567.27177,622.11984 548.66522,617.88461 531.4152,614.51513 514.59995,611.74256 497.29773,609.29807 478.58677,606.91285 457.54535,604.31802" stroke="#000000"></polyline><path d="M802.8906,589.34997c0.29926,0.02111 0.29926,0.02111 0.29926,0.02111c9.87551,0.69662 19.74408,1.49729 29.62638,2.08986c133.09635,7.98085 268.38153,-36.53915 371.68595,-120.8394c103.30441,-84.30024 173.87488,-207.34319 195.96872,-338.83537c22.09384,-131.49219 -4.16521,-270.3146 -71.45148,-385.42711c-67.28627,-115.11251 -174.87615,-205.84743 -299.14736,-254.16926c-124.27121,-48.32183 -264.36749,-54.18584 -392.66817,-17.89165c-128.30068,36.29419 -244.2002,114.31545 -327.31645,218.57484c-83.11625,104.25939 -133.2578,234.14468 -143.30254,367.1012c-10.04473,132.95652 19.83169,268.46212 83.49532,385.61704c4.72696,8.69864 9.58946,17.32285 14.38421,25.98431c0.1453,0.26247 0.1453,0.26247 0.1453,0.26247" stroke="#ff0000"></path><g stroke="#ff0000"><line x1="802.8906" y1="589.34997" x2="264.60972" y2="471.83802"></line><polyline points="271.96065,465.05835 264.60972,471.83802 268.46637,481.06442"></polyline></g><polyline points="459.75935,606.71654 460.75796,596.05391 462.64376,586.65276 465.35291,578.32133 468.82158,570.86775 472.98598,564.10022 477.78228,557.82687 483.14664,551.85587 489.01526,545.99542 495.32431,540.05368 502.00997,533.83882" stroke="#000000"></polyline><path d="M459.75935,606.71654c-0.02797,0.29869 -0.02797,0.29869 -0.02797,0.29869c-0.46244,4.93772 -0.76181,9.88887 -0.9592,14.84427c-0.19739,4.95539 -0.38485,9.97626 -1.81025,14.72633c-1.46042,4.86675 -4.26669,9.32232 -8.02594,12.74081c-3.75925,3.41849 -8.46095,5.79014 -13.44465,6.78053c-4.98369,0.99039 -10.23527,0.59656 -15.01512,-1.12714c-4.77985,-1.7237 -9.0743,-4.77251 -12.27694,-8.71728c-3.20263,-3.94477 -5.30418,-8.77432 -6.00666,-13.80667c-0.70248,-5.03236 -0.00372,-10.25311 1.99847,-14.92315c2.0022,-4.67004 5.30221,-8.77587 9.43304,-11.73465c4.13082,-2.95878 9.08061,-4.76184 14.14675,-5.15205c4.94481,-0.38086 9.88982,0.51461 14.7721,1.38617c4.88227,0.87156 9.78244,1.6419 14.70461,2.2489c0.29774,0.03672 0.29774,0.03672 0.29774,0.03672" stroke="#ff0000"></path><g stroke="#ff0000"><line x1="459.75935" y1="606.71654" x2="457.54535" y2="604.31802"></line><polyline points="467.45496,602.97657 457.54535,604.31802 455.41661,614.08882"></polyline></g><polyline points="502.37898,536.97532 484.91617,536.87903 468.26213,538.60765 452.37633,542.01405 437.21822,546.95115 422.74723,553.27186 408.92281,560.82905 395.70441,569.4756 383.05147,579.06445 370.92345,589.44851 359.27979,600.48062 341.86322,602.25152 323.06588,604.81302 303.24042,608.27423 282.73948,612.74429 261.91569,618.33238 241.1217,625.14768 220.71014,633.29932 201.03365,642.89643 182.44487,654.04814 165.29644,666.86373" stroke="#000000"></polyline><path d="M502.37898,536.97532c0.3,0.00165 0.3,0.00165 0.3,0.00165c5.12455,0.02826 10.24569,0.44567 15.28357,1.38458c2.51894,0.46945 5.03052,0.99759 7.57599,1.29085c2.54548,0.29326 5.1489,0.34099 7.64575,-0.2345c4.18533,-0.96466 7.92032,-3.75434 10.01446,-7.5043c2.09413,-3.74996 2.50837,-8.40291 1.08942,-12.45682c-1.41895,-4.05391 -4.65303,-7.43809 -8.64634,-9.01955c-3.99331,-1.58147 -8.67715,-1.32608 -12.46485,0.69899c-2.27124,1.2143 -4.19002,3.00197 -5.88263,4.94314c-1.69261,1.94117 -3.18689,4.04482 -4.72409,6.11124c-3.07439,4.13285 -6.56785,7.93693 -10.34054,11.44395c-0.21973,0.20425 -0.21973,0.20425 -0.21973,0.20425" stroke="#ff0000"></path><g stroke="#ff0000"><line x1="502.37898" y1="536.97532" x2="502.00997" y2="533.83882"></line><polyline points="510.81557,538.57818 502.00997,533.83882 494.54475,540.49242"></polyline></g><polyline points="165.66544,662.06669 171.44335,668.27285 176.55739,673.84044 181.12867,678.84849 185.27824,683.37594 189.1272,687.50182 192.79662,691.30501 196.40759,694.86452 200.08118,698.25933 203.93848,701.56849 208.10057,704.87084 219.06607,704.24887 229.28423,703.63855 238.75188,703.07819 247.46587,702.60592 255.42303,702.26002 262.6202,702.07866 269.05422,702.10016 274.72194,702.36275 279.62019,702.90452 283.74581,703.76386" stroke="#000000"></polyline><path d="M165.66544,662.06669c-0.20442,-0.21957 -0.20442,-0.21957 -0.20442,-0.21957c-3.38056,-3.63111 -6.62856,-7.38265 -9.79065,-11.20552c-3.16209,-3.82287 -6.36448,-7.7133 -10.44704,-10.53214c-3.68821,-2.54657 -8.0512,-4.10615 -12.51795,-4.47495c-4.46675,-0.3688 -9.02637,0.45404 -13.08258,2.36062c-4.05621,1.90658 -7.59914,4.89223 -10.16586,8.56644c-2.56673,3.67421 -4.15102,8.02802 -4.54619,12.49252c-0.39517,4.4645 0.39972,9.02882 2.28058,13.09702c1.88086,4.0682 4.84309,7.63041 8.49987,10.22191c3.65677,2.5915 7.9992,4.20604 12.46074,4.63329c4.46154,0.42725 9.03138,-0.3338 13.11379,-2.18362c4.51885,-2.04759 8.36392,-5.30371 12.15755,-8.50074c3.79363,-3.19704 7.6589,-6.30874 11.63287,-9.27862c0.24031,-0.17959 0.24031,-0.17959 0.24031,-0.17959" stroke="#ff0000"></path><g stroke="#ff0000"><line x1="165.66544" y1="662.06669" x2="165.29644" y2="666.86373"></line><polyline points="157.56895,660.51661 165.29644,666.86373 173.90374,661.77312"></polyline></g><polyline points="237.93178,728.4553 248.62454,732.00094 258.84496,734.83317 268.64656,737.02917 278.08291,738.666 287.20755,739.82085 296.07403,740.57084 304.73588,740.99304 313.24667,741.16469 321.65993,741.1628 330.02921,741.06461" stroke="#000000"></polyline><path d="M237.93178,728.4553c-0.28475,-0.09442 -0.28475,-0.09442 -0.28475,-0.09442c-9.39699,-3.11598 -18.74182,-6.39251 -28.19058,-9.3478c-30.14139,-9.42731 -62.37784,-14.44319 -93.39233,-8.48679c-15.50725,2.9782 -30.5562,8.71561 -43.69274,17.47778c-13.13654,8.76217 -24.31944,20.5978 -31.64885,34.58437c-4.59612,8.77069 -8.03578,18.09385 -12.05489,27.1435c-0.12177,0.27418 -0.12177,0.27418 -0.12177,0.27418" stroke="#ff0000"></path><g stroke="#ff0000"><line x1="237.93178" y1="728.4553" x2="28.54587" y2="790.00612"></line><polyline points="31.73858,780.52948 28.54587,790.00612 36.35902,796.24748"></polyline></g><polyline points="324.4942,735.8986 330.89458,747.48581 337.59177,758.00866 344.81925,767.46155 352.81047,775.83905 361.7989,783.13554 372.01799,789.34548 383.70121,794.46338 397.08202,798.48376 412.39388,801.40099 429.87025,803.20967" stroke="#000000"></polyline><path d="M324.4942,735.8986c-0.14505,-0.2626 -0.14505,-0.2626 -0.14505,-0.2626c-4.78987,-8.67155 -10.61494,-16.82635 -14.36018,-25.9976c-3.79301,-9.28823 -4.54941,-19.7865 -2.1383,-29.52533c2.41112,-9.73883 7.97561,-18.66873 15.64827,-25.13313c7.67267,-6.46439 17.41361,-10.43204 27.41855,-11.17989c10.00495,-0.74785 20.22404,1.72601 28.78523,6.95708c8.5612,5.23107 15.42354,13.19223 19.34579,22.42663c3.92225,9.2344 4.88716,19.69686 2.73127,29.49534c-2.15588,9.79849 -7.4206,18.88691 -14.84013,25.64034c-7.41953,6.75343 -16.95804,11.14163 -26.91252,12.39325c-9.82871,1.23581 -19.79254,0.2322 -29.69796,0.34841c-0.29998,0.00352 -0.29998,0.00352 -0.29998,0.00352" stroke="#ff0000"></path><g stroke="#ff0000"><line x1="324.4942" y1="735.8986" x2="330.02921" y2="741.06461"></line><polyline points="320.24683,743.13945 330.02921,741.06461 331.42528,731.16254"></polyline></g><polyline points="428.76324,805.23918 420.47551,794.82561 413.96973,784.60797 409.06102,774.67859 405.56449,765.12978 403.29524,756.05381 402.06841,747.54313 401.69909,739.68993 402.0024,732.58659 402.79343,726.32545 403.88733,720.99881" stroke="#000000"></polyline><path d="M428.76324,805.23918c0.18682,0.23473 0.18682,0.23473 0.18682,0.23473c3.19524,4.01484 6.08312,8.27115 8.53667,12.77765c1.22678,2.25325 2.4099,4.53495 3.80626,6.68722c1.39637,2.15227 3.03049,4.18707 5.08397,5.72504c3.46224,2.59306 8.06797,3.59681 12.29525,2.67964c4.22728,-0.91717 8.00289,-3.73935 10.07938,-7.53398c2.07649,-3.79463 2.41794,-8.49601 0.91161,-12.55089c-1.50633,-4.05488 -4.83432,-7.39308 -8.88454,-8.9119c-2.40217,-0.90081 -4.99677,-1.18077 -7.56223,-1.19724c-2.56546,-0.01647 -5.12504,0.21636 -7.68418,0.39708c-5.11828,0.36144 -10.25983,0.2222 -15.36359,-0.306c-0.29841,-0.03088 -0.29841,-0.03088 -0.29841,-0.03088" stroke="#ff0000"></path><g stroke="#ff0000"><line x1="428.76324" y1="805.23918" x2="429.87025" y2="803.20967"></line><polyline points="434.31494,812.16761 429.87025,803.20967 419.93237,804.32251"></polyline></g><polyline points="397.93853,743.57119 412.41113,744.12872 426.36569,744.29949 440.02917,744.09794 453.62842,743.53833 467.3904,742.63497 481.542,741.40218 496.31011,739.85427 511.92165,738.00555 528.60356,735.87034 546.58267,733.46303 555.61103,737.87615 564.91601,741.30179 574.20866,743.86323 583.19997,745.68357 591.60089,746.8859 599.12245,747.59345 605.47567,747.92938 610.37146,748.01691 613.52089,747.97908 614.63494,747.9391" stroke="#000000"></polyline><path d="M397.93853,743.57119c-0.29978,-0.01155 -0.29978,-0.01155 -0.29978,-0.01155c-9.89807,-0.3813 -19.87692,0.29068 -29.67799,-1.14329c-8.49814,-1.24334 -16.68471,-4.63054 -23.52446,-9.82497c-6.83975,-5.19443 -12.31147,-12.1917 -15.62342,-20.11605c-3.31194,-7.92435 -4.44594,-16.75845 -3.1568,-25.24977c1.28914,-8.49131 5.00812,-16.61164 10.66077,-23.07784c5.65265,-6.4662 13.22723,-11.2471 21.51923,-13.48474c8.292,-2.23764 17.26989,-1.91054 25.34827,1.00563c8.07838,2.91618 15.21377,8.41995 20.01504,15.54119c4.80127,7.12124 7.23016,15.82867 6.72291,24.40229c-0.29264,4.94624 -1.49662,9.7879 -2.68097,14.59915c-1.18435,4.81126 -2.2969,9.6401 -3.29366,14.49369c-0.06035,0.29387 -0.06035,0.29387 -0.06035,0.29387" stroke="#ff0000"></path><g stroke="#ff0000"><line x1="397.93853" y1="743.57119" x2="403.88733" y2="720.99881"></line><polyline points="410.34667,728.63274 403.88733,720.99881 394.50456,724.45766"></polyline></g><polyline points="27.11079,792.35441 70.18388,718.02091 113.15046,643.49609 156.04006,568.83051 198.88221,494.07475 241.70645,419.27936 284.54234,344.49488 327.4194,269.77187 370.36717,195.1609 413.4152,120.71251 456.59302,46.47726 464.0169,36.88195 472.32246,29.45726 481.27512,24.1825 490.64034,21.03697 500.18352,20 509.6701,21.05088 518.8655,24.16893 527.53517,29.33345 535.44452,36.52374 542.35902,45.71912 971.629,791.86183 976.56307,802.79447 979.34378,813.87422 980,824.78819 978.56087,835.22326 975.05527,844.86647 969.51227,853.40477 961.96075,860.5252 952.42986,865.91477 940.94853,869.26032 927.5457,870.249 71.05142,868.46763 57.79254,867.19246 46.50019,863.71341 37.18763,858.3094 29.86809,851.25923 24.55479,842.84181 21.26103,833.33601 20,823.02063 20.78498,812.17465 23.62917,801.07685 28.54587,790.00612" stroke="#000000"></polyline><polyline points="264.60972,471.83802 264.93002,472.41662 265.93222,473.98707 267.67834,476.30147 270.23035,479.11175 273.65025,482.17006 278.00003,485.22833 283.3417,488.03864 289.73722,490.35301 297.24861,491.9235 305.93784,492.50209 314.62708,491.9235 322.13847,490.35301 328.534,488.03864 333.87566,485.22833 338.22544,482.17006 341.64535,479.11175 344.19736,476.30147 345.94347,473.98707 346.94568,472.41662 347.26597,471.83802" stroke="#000000"></polyline><path d="M347.26597,471.83802c0.14529,-0.26247 0.14529,-0.26247 0.14529,-0.26247c2.71989,-4.91337 5.9274,-9.57975 9.93445,-13.51454c2.00353,-1.9674 4.12481,-3.81282 6.10765,-5.80106c1.98285,-1.98824 3.83862,-4.15285 5.08549,-6.66881c1.25811,-2.53865 1.85688,-5.40059 1.72201,-8.23068c-0.13487,-2.83009 -1.0031,-5.62212 -2.49692,-8.02962c-1.49383,-2.4075 -3.60999,-4.4252 -6.08589,-5.8027c-2.47589,-1.37751 -5.3061,-2.11181 -8.1394,-2.11178c-2.8333,0.00003 -5.66349,0.73438 -8.13936,2.11193c-2.47587,1.37755 -4.592,3.39529 -6.08579,5.80281c-1.49379,2.40753 -2.36196,5.19957 -2.49679,8.02966c-0.13483,2.83009 0.46399,5.69202 1.72214,8.23065c1.2469,2.51594 3.1027,4.68053 5.08557,6.66874c1.98287,1.98821 4.10416,3.83361 6.10771,5.80098c4.00709,3.93474 7.21464,8.60108 9.93459,13.51442c0.1453,0.26247 0.1453,0.26247 0.1453,0.26247" stroke="#ff0000"></path><g stroke="#ff0000"><line x1="347.26597" y1="471.83802" x2="359.81202" y2="471.83802"></line><polyline points="354.07625,480.02954 359.81202,471.83802 354.07625,463.6465"></polyline></g><polyline points="359.81202,471.83802 360.13232,472.41662 361.13452,473.98707 362.88063,476.30147 365.43265,479.11175 368.85255,482.17006 373.20233,485.22833 378.54399,488.03864 384.93952,490.35301 392.45091,491.9235 401.14014,492.50209 409.82938,491.9235 417.34077,490.35301 423.7363,488.03864 429.07796,485.22833 433.42774,482.17006 436.84764,479.11175 439.39965,476.30147 441.14577,473.98707 442.14798,472.41662 442.46827,471.83802" stroke="#000000"></polyline><path d="M442.46827,471.83802c0.14529,-0.26247 0.14529,-0.26247 0.14529,-0.26247c2.71388,-4.9025 5.9114,-9.5593 9.89883,-13.49632c1.99371,-1.96851 4.10348,-3.81765 6.07335,-5.81002c1.96987,-1.99237 3.81091,-4.1614 5.04243,-6.678c1.23923,-2.53237 1.82247,-5.38235 1.67769,-8.19795c-0.14478,-2.8156 -1.01727,-5.59073 -2.50972,-7.98263c-1.49244,-2.3919 -3.60161,-4.39539 -6.067,-5.76304c-2.46539,-1.36764 -5.28166,-2.09647 -8.10098,-2.09647c-2.81932,0 -5.63559,0.72883 -8.10098,2.09647c-2.46539,1.36764 -4.57455,3.37114 -6.067,5.76304c-1.49244,2.3919 -2.36494,5.16702 -2.50972,7.98263c-0.14478,2.8156 0.43846,5.66558 1.67769,8.19795c1.23152,2.5166 3.07256,4.68563 5.04243,6.678c1.96987,1.99237 4.07964,3.84151 6.07335,5.81002c3.98742,3.93702 7.18495,8.59382 9.89883,13.49632c0.14529,0.26247 0.14529,0.26247 0.14529,0.26247" stroke="#ff0000"></path><g stroke="#ff0000"><line x1="442.46827" y1="471.83802" x2="454.78807" y2="471.83802"></line><polyline points="449.0523,480.02954 454.78807,471.83802 449.0523,463.6465"></polyline></g><polyline points="454.78807,471.83802 455.10836,472.41662 456.11057,473.98707 457.85668,476.30147 460.40869,479.11175 463.82859,482.17006 468.17839,485.22833 473.52005,488.03864 479.91556,490.35301 487.42695,491.9235 496.11619,492.50209 504.80542,491.9235 512.31683,490.35301 518.71233,488.03864 524.054,485.22833 528.40378,482.17006 531.82368,479.11175 534.37569,476.30147 536.12181,473.98707 537.12402,472.41662 537.44431,471.83802" stroke="#000000"></polyline><path d="M537.44431,471.83802c0.14529,-0.26247 0.14529,-0.26247 0.14529,-0.26247c2.71388,-4.9025 5.9114,-9.5593 9.89883,-13.49632c1.99371,-1.96851 4.10348,-3.81765 6.07335,-5.81002c1.96987,-1.99237 3.81091,-4.1614 5.04243,-6.678c1.23923,-2.53237 1.82247,-5.38235 1.67769,-8.19795c-0.14478,-2.8156 -1.01727,-5.59073 -2.50972,-7.98263c-1.49244,-2.3919 -3.60161,-4.39539 -6.067,-5.76304c-2.46539,-1.36764 -5.28166,-2.09647 -8.10098,-2.09647c-2.81932,0 -5.63559,0.72883 -8.10098,2.09647c-2.46539,1.36764 -4.57455,3.37114 -6.067,5.76304c-1.49244,2.3919 -2.36494,5.16702 -2.50972,7.98263c-0.14478,2.8156 0.43846,5.66558 1.67769,8.19795c1.23152,2.5166 3.07256,4.68563 5.04243,6.678c1.96987,1.99237 4.07964,3.84151 6.07335,5.81002c3.98742,3.93702 7.18495,8.59382 9.89883,13.49632c0.14529,0.26247 0.14529,0.26247 0.14529,0.26247" stroke="#ff0000"></path><g stroke="#ff0000"><line x1="537.44431" y1="471.83802" x2="549.76411" y2="471.83802"></line><polyline points="544.02834,480.02954 549.76411,471.83802 544.02834,463.6465"></polyline></g><polyline points="549.76411,471.83802 550.0844,472.41662 551.08661,473.98707 552.83272,476.30147 555.38473,479.11175 558.80463,482.17006 563.15441,485.22833 568.49609,488.03864 574.89162,490.35301 582.40299,491.9235 591.09223,492.50209 599.78148,491.9235 607.29285,490.35301 613.68838,488.03864 619.03003,485.22833 623.37983,482.17006 626.79973,479.11175 629.35175,476.30147 631.09786,473.98707 632.10007,472.41662 632.42036,471.83802" stroke="#000000"></polyline><path d="M632.42036,471.83802c0.14529,-0.26247 0.14529,-0.26247 0.14529,-0.26247c2.71388,-4.9025 5.9114,-9.5593 9.89882,-13.49632c1.99371,-1.96851 4.10348,-3.81765 6.07334,-5.81003c1.96986,-1.99237 3.81091,-4.1614 5.04242,-6.67801c1.23923,-2.53237 1.82247,-5.38234 1.67769,-8.19795c-0.14478,-2.8156 -1.01728,-5.59072 -2.50972,-7.98262c-1.49244,-2.3919 -3.60161,-4.39539 -6.06699,-5.76303c-2.46539,-1.36764 -5.28165,-2.09647 -8.10097,-2.09647c-2.81932,0 -5.63559,0.72883 -8.10097,2.09647c-2.46539,1.36764 -4.57455,3.37113 -6.06699,5.76303c-1.49244,2.3919 -2.36494,5.16702 -2.50972,7.98262c-0.14478,2.8156 0.43846,5.66558 1.67769,8.19795c1.23152,2.5166 3.07256,4.68563 5.04242,6.67801c1.96986,1.99237 4.07963,3.84151 6.07334,5.81003c3.98742,3.93702 7.18495,8.59382 9.89882,13.49632c0.14529,0.26247 0.14529,0.26247 0.14529,0.26247" stroke="#ff0000"></path><g stroke="#ff0000"><line x1="632.42036" y1="471.83802" x2="644.74013" y2="471.83802"></line><polyline points="639.00437,480.02954 644.74013,471.83802 639.00437,463.6465"></polyline></g><polyline points="644.74013,471.83802 645.06042,472.41662 646.06263,473.98707 647.80875,476.30144 650.36076,479.11175 653.78066,482.17006 658.13047,485.22833 663.47211,488.03864 669.86764,490.35301 677.37902,491.9235 686.06826,492.50209 694.7575,491.9235 702.26888,490.35301 708.66441,488.03864 714.00608,485.22833 718.35586,482.17006 721.77576,479.11175 724.32777,476.30144 726.07389,473.98707 727.0761,472.41662 727.39639,471.83802" stroke="#000000"></polyline><path d="M727.39639,471.83802c0.14529,-0.26247 0.14529,-0.26247 0.14529,-0.26247c4.79909,-8.66935 8.43883,-18.05704 14.38414,-25.98435c5.20179,-6.93592 12.65316,-12.10537 20.88931,-14.81303c8.23615,-2.70766 17.21857,-2.98011 25.67035,-1.04802c8.45178,1.93209 16.36398,6.03658 22.99625,11.62036c6.63227,5.58378 11.99324,12.625 15.86781,20.38086c7.74914,15.51172 9.43417,33.60102 6.84021,50.74552c-2.59396,17.1445 -9.26528,33.45085 -17.49192,48.71469c-4.69708,8.71505 -9.78238,17.2144 -14.67375,25.82191c-0.14822,0.26083 -0.14822,0.26083 -0.14822,0.26083" stroke="#ff0000"></path><g stroke="#ff0000"><line x1="727.39639" y1="471.83802" x2="801.87587" y2="587.27433"></line><polyline points="791.88304,586.8957 801.87587,587.27433 805.64941,578.01364"></polyline></g></g></svg>