<?xml version="1.0" encoding="UTF-8" standalone="no"?>
<svg
   xmlns:dc="http://purl.org/dc/elements/1.1/"
   xmlns:cc="http://creativecommons.org/ns#"
   xmlns:rdf="http://www.w3.org/1999/02/22-rdf-syntax-ns#"
   xmlns:svg="http://www.w3.org/2000/svg"
   xmlns="http://www.w3.org/2000/svg"
   xmlns:sodipodi="http://sodipodi.sourceforge.net/DTD/sodipodi-0.dtd"
   xmlns:inkscape="http://www.inkscape.org/namespaces/inkscape"
   x="0"
   y="0"
   width="1377.2839"
   height="1207.7405"
   version="1.1"
   id="svg7535"
   inkscape:version="0.48+devel r"
   sodipodi:docname="shark_prevent_outer.svg">
  <metadata
     id="metadata7695">
    <rdf:RDF>
      <cc:Work
         rdf:about="">
        <dc:format>image/svg+xml</dc:format>
        <dc:type
           rdf:resource="http://purl.org/dc/dcmitype/StillImage" />
        <dc:title></dc:title>
      </cc:Work>
    </rdf:RDF>
  </metadata>
  <defs
     id="defs7693" />
  <sodipodi:namedview
     pagecolor="#ffffff"
     bordercolor="#666666"
     borderopacity="1"
     objecttolerance="10"
     gridtolerance="10"
     guidetolerance="10"
     inkscape:pageopacity="0"
     inkscape:pageshadow="2"
     inkscape:window-width="1600"
     inkscape:window-height="838"
     id="namedview7691"
     showgrid="false"
     inkscape:zoom="0.51448101"
     inkscape:cx="731.50468"
     inkscape:cy="502.41418"
     inkscape:window-x="0"
     inkscape:window-y="27"
     inkscape:window-maximized="1"
     inkscape:current-layer="g7537"
     fit-margin-top="0"
     fit-margin-left="0"
     fit-margin-right="0"
     fit-margin-bottom="0" />
  <g
     stroke-miterlimit="10"
     font-weight="normal"
     font-size="12"
     mix-blend-mode="normal"
     id="g7537"
     style="font-weight:normal;font-size:12px;font-family:sans-serif;text-anchor:start;fill:none;stroke:none;stroke-width:2;stroke-linecap:butt;stroke-linejoin:miter;stroke-miterlimit:10;stroke-dasharray:none;stroke-dashoffset:0"
     transform="translate(-18.998206,-18.999175)">
    <polygon
       points="722.5707,23.80861 729.44957,26.7508 735.81003,30.43173 741.67121,34.79282 747.0522,39.77552 751.97214,45.32127 756.45008,51.3715 760.50516,57.86766 1363.2515,1107.1566 1367.1953,1114.6064 1370.8359,1122.7277 1374.045,1131.3519 1376.6943,1140.3101 1378.6554,1149.4336 1379.8001,1158.5538 1380,1167.5016 1379.1269,1176.1086 1377.0523,1184.2059 1373.648,1191.6248 1368.901,1198.1288 1363.0078,1203.641 1356.1542,1208.2317 1348.5263,1211.9713 1340.3098,1214.9302 1331.6906,1217.179 1322.8548,1218.7877 1313.9881,1219.827 1305.2765,1220.3672 1296.9059,1220.4786 94.7231,1225.7394 78.11326,1223.7853 63.07019,1218.5686 49.84898,1210.5334 38.70477,1200.1235 29.89265,1187.783 23.66774,1173.9558 20.28516,1159.0857 20,1143.6169 23.06739,1127.9933 29.74245,1112.6587 629.17891,58.10907 634.04478,49.59759 639.49743,42.39925 645.49005,36.41335 651.97596,31.53916 658.9084,27.67596 666.24068,24.72305 673.92595,22.57971 681.91757,21.14524 690.16873,20.31891 698.63275,20 698.63275,20 707.18138,20.37464 715.15436,21.6637 "
       id="polygon7539"
       style="stroke:#000000" />
    <polyline
       points="333.65189,963.58637 335.83667,962.7269 337.87243,961.95864 339.80146,961.28113 341.6661,960.69389 343.50867,960.19649 345.37145,959.78819 347.29682,959.4688 349.32704,959.23759 351.50447,959.0941 353.87144,959.03787"
       id="polyline7541"
       style="stroke:#000000" />
    <path
       d="m 353.87144,959.03787 c 0.49986,-0.0119 0.49986,-0.0119 0.49986,-0.0119 c 8.2582,-0.19616 16.51968,-0.16787 24.7785,5e-4 c 8.25882,0.16837 16.59086,0.35892 24.70754,-1.17596 c 11.70501,-2.21345 22.60511,-8.15998 31.15037,-16.45968 c 8.54526,-8.2997 14.75739,-18.89237 18.30623,-30.26393 c 7.09768,-22.74311 3.41481,-47.93226 -6.58385,-69.55755 C 436.73143,819.94409 420.8303,801.53397 403.36441,785.33 C 385.89851,769.12603 366.736,754.86969 348.57482,739.449 c -18.16119,-15.42069 -35.50189,-32.22557 -48.25766,-52.34811 c -12.75577,-20.12254 -20.71064,-43.93536 -18.743,-67.67888 c 0.98382,-11.87176 4.4598,-23.58534 10.54545,-33.82602 c 6.08565,-10.24068 14.81508,-18.96895 25.29967,-24.62402 c 10.4846,-5.65507 22.72257,-8.15939 34.53176,-6.59424 c 11.80918,1.56516 23.1067,7.27723 31.01661,16.18453 c 5.48821,6.18024 9.3068,13.63102 13.09496,20.97715 c 3.78816,7.34613 7.72638,14.61455 11.89994,21.74878 c 0.25247,0.43158 0.25247,0.43158 0.25247,0.43158"
       id="path7543"
       inkscape:connector-curvature="0"
       style="stroke:#ff0000" />
    <polyline
       points="859.25326,1055.41434 866.65032,1054.18329 874.38426,1052.61628 882.40907,1050.785 890.67869,1048.76114 899.14715,1046.61642 907.76844,1044.42243 916.49659,1042.25097 925.28545,1040.17364 934.08915,1038.26215 942.86161,1036.58818 956.06748,1047.56562 969.19688,1058.55817 982.49,1069.15643 996.18704,1078.9509 1010.52808,1087.53217 1025.7534,1094.49067 1042.10318,1099.41706 1059.81752,1101.90187 1079.13651,1101.53551 1100.30052,1097.90865"
       id="polyline7551"
       style="stroke:#000000" />
    <path
       d="m 1100.3005,1097.9087 c 0.4928,-0.084 0.4928,-0.084 0.4928,-0.084 c 16.2633,-2.787 32.5823,-5.2614 48.7888,-8.3609 c 31.1783,-5.9627 61.7675,-15.0023 93.2003,-19.4314 c 31.4328,-4.429 64.4611,-3.9942 93.6759,8.4209 c 14.6074,6.2076 28.0499,15.4008 38.4344,27.4038 c 10.3846,12.0029 17.6224,26.8688 19.7475,42.5976 c 2.1251,15.7287 -1.0238,32.2714 -9.5599,45.6522 c -8.5361,13.3807 -22.5528,23.3496 -38.1748,26.1535 c -8.132,1.4595 -16.4684,1.0842 -24.7228,0.7334 c -8.2544,-0.3508 -16.515,-0.553 -24.7768,-0.5168 c -0.5,0 -0.5,0 -0.5,0"
       id="path7553"
       inkscape:connector-curvature="0"
       style="stroke:#ff0000" />
    <polyline
       points="1098.79357,1100.88912 1089.91937,1086.71813 1081.66381,1075.22543 1073.9985,1065.66299 1066.89533,1057.28281 1060.32609,1049.33665 1054.26241,1041.0766 1048.67635,1031.75445 1043.53944,1020.62216 1038.82355,1006.93172 1034.5005,989.93482 1047.93739,970.51263 1060.63935,953.30475 1072.57195,938.02404 1083.70112,924.38304 1093.99272,912.09442 1103.41239,900.87084 1111.9259,890.42496 1119.49919,880.46942 1126.09791,870.71689 1131.688,860.87998"
       id="polyline7561"
       style="stroke:#000000" />
    <path
       d="m 1098.7936,1100.8891 c 0.2653,0.4238 0.2653,0.4238 0.2653,0.4238 c 3.1285,4.9957 6.5386,10.0245 11.4544,13.2771 c 4.9158,3.2525 11.1859,4.4763 16.8963,3.015 c 5.7104,-1.4613 10.5799,-5.4323 13.8634,-10.3274 c 3.2834,-4.8952 5.1088,-10.6044 6.711,-16.2768 c 17.1667,-60.7761 15.3336,-125.0051 17.045,-188.1359 c 0.131,-4.83028 0.27,-9.69154 -0.4628,-14.46772 c -0.7327,-4.77617 -2.393,-9.46518 -5.2616,-13.35362 c -2.8686,-3.88844 -6.9153,-6.86367 -11.4288,-8.58888 c -4.5136,-1.72521 -9.3955,-2.18557 -14.2156,-2.52559 c -0.4988,-0.0352 -0.4988,-0.0352 -0.4988,-0.0352"
       id="path7563"
       inkscape:connector-curvature="0"
       style="stroke:#ff0000" />
    <polyline
       points="1133.16143,863.89392 1110.55823,862.29943 1087.5634,865.02406 1064.6442,871.35228 1042.26764,880.56877 1020.90108,891.958 1001.01152,904.80454 983.06625,918.39289 967.53234,932.0077 954.87708,944.93345 945.56756,956.45472 897.28675,941.37298 856.32938,929.10973 821.35699,919.2746 791.0312,911.47734 764.01357,905.32759 738.96567,900.43498 714.54909,896.40906 689.42538,892.85949 662.25615,889.39609 631.70296,885.62822"
       id="polyline7571"
       style="stroke:#000000" />
    <path
       d="m 631.70296,885.62822 c -0.49624,-0.0612 -0.49624,-0.0612 -0.49624,-0.0612 c -8.20394,-1.01172 -16.37079,-2.29845 -24.50744,-3.7556 c -8.13664,-1.45715 -16.38004,-2.95452 -24.6204,-2.30293 c -8.34549,0.65991 -16.49489,3.64381 -23.29434,8.52747 c -6.79945,4.88366 -12.22953,11.65288 -15.52346,19.34915 c -3.29393,7.69628 -4.44246,16.29748 -3.285,24.58862 c 1.15746,8.29114 4.6174,16.24855 9.89038,22.75073 c 5.27299,6.50217 12.34385,11.53072 20.21599,14.37891 c 7.87213,2.84818 16.52313,3.50811 24.73653,1.88862 c 8.2134,-1.61948 15.966,-5.51359 22.17017,-11.13418 c 6.20417,-5.62058 10.84254,-12.95164 13.26629,-20.96463 c 2.39317,-7.91187 2.70081,-16.28291 3.02491,-24.54244 c 0.3241,-8.25953 0.82005,-16.51202 1.59082,-24.74189 c 0.0466,-0.49782 0.0466,-0.49782 0.0466,-0.49782"
       id="path7573"
       inkscape:connector-curvature="0"
       style="stroke:#ff0000" />
    <polyline
       points="634.9178,889.11104 636.36784,873.62832 639.10611,859.97743 643.0399,847.87978 648.07664,837.05681 654.12352,827.22998 661.08796,818.12076 668.87731,809.45062 677.39883,800.94096 686.55992,792.31326 696.26781,783.28893"
       id="polyline7581"
       style="stroke:#000000" />
    <path
       d="m 696.26781,783.28893 c 0.36621,-0.34043 0.36621,-0.34043 0.36621,-0.34043 c 6.30436,-5.86045 12.13722,-12.22446 17.23343,-19.16121 c 2.54811,-3.46838 5.01641,-7.0036 7.81332,-10.27466 c 2.79691,-3.27105 5.96897,-6.29374 9.74016,-8.36754 c 6.31997,-3.47538 14.18512,-3.98727 20.91359,-1.38956 c 6.72847,2.59771 12.20181,8.24903 14.61256,15.04672 c 2.41075,6.79769 1.72594,14.62081 -1.80178,20.91172 c -3.52772,6.29091 -9.83187,10.94983 -16.87442,12.50637 c -4.18215,0.92434 -8.53327,0.80023 -12.78338,0.26981 c -4.25011,-0.53042 -8.44047,-1.44959 -12.64579,-2.26204 c -8.41064,-1.62491 -16.97205,-2.3348 -25.53809,-2.38204 c -0.49999,-0.003 -0.49999,-0.003 -0.49999,-0.003"
       id="path7583"
       inkscape:connector-curvature="0"
       style="stroke:#ff0000" />
    <polyline
       points="696.80362,787.84333 671.44677,787.7035 647.26429,790.21354 624.1973,795.15981 602.18696,802.32873 581.17436,811.50666 561.10062,822.48008 541.90685,835.03534 523.53417,848.95883 505.92367,864.03695 489.01649,880.05617 463.72676,882.6276 436.43211,886.34703 407.64456,891.37287 377.87618,897.86363 347.63899,905.97782 317.44509,915.87392 287.80649,927.71047 259.23525,941.64595 232.24342,957.83887 207.34304,976.44775"
       id="polyline7591"
       style="stroke:#000000" />
    <path
       d="m 207.34304,976.44775 c -0.40051,0.29932 -0.40051,0.29932 -0.40051,0.29932 c -6.62377,4.95017 -13.06338,10.14051 -19.38153,15.47526 c -6.31814,5.33475 -12.72527,10.77057 -20.26917,14.15707 c -6.69635,3.0059 -14.18348,4.2289 -21.48825,3.5095 c -7.30477,-0.7194 -14.40958,-3.3795 -20.39036,-7.6347 c -5.98078,-4.25534 -10.82307,-10.09558 -13.89656,-16.76123 c -3.07348,-6.66565 -4.3707,-14.14063 -3.72236,-21.45205 c 0.64833,-7.31142 3.24069,-14.44161 7.43989,-20.4619 c 4.1992,-6.02029 9.99513,-10.9161 16.63294,-14.04924 c 6.63781,-3.13315 14.10146,-4.49601 21.41818,-3.91052 c 7.31672,0.58549 14.46877,3.11795 20.52336,7.26756 c 6.82096,4.67485 12.15543,11.16736 17.42004,17.54417 c 5.2646,6.37681 10.67477,12.63298 16.30944,18.68527 c 0.3407,0.36595 0.3407,0.36595 0.3407,0.36595"
       id="path7593"
       inkscape:connector-curvature="0"
       style="stroke:#ff0000" />
    <polyline
       points="207.87885,969.48221 216.26866,978.49385 223.69451,986.57827 230.33223,993.85021 236.35761,1000.42429 241.94649,1006.41518 247.27468,1011.93769 252.51799,1017.10629 257.85222,1022.03571 263.45321,1026.84078 269.49677,1031.63596 285.41922,1030.73281 300.25649,1029.84661 314.00398,1029.03284 326.65714,1028.34717 338.21133,1027.84483 348.66198,1027.58157 358.00448,1027.61279 366.23429,1027.99399 373.3468,1028.78075 379.33741,1030.02856"
       id="polyline7601"
       style="stroke:#000000" />
    <path
       d="m 379.33741,1030.0286 c 0.48949,0.1019 0.48949,0.1019 0.48949,0.1019 c 8.15769,1.6992 16.4283,2.7765 24.73263,3.4645 c 4.15216,0.344 8.31809,0.7112 12.38167,1.631 c 4.06358,0.9198 8.06106,2.4351 11.34561,4.9984 c 4.53955,3.5428 7.45793,9.0111 8.14732,14.728 c 0.68939,5.7169 -0.79575,11.6245 -3.87355,16.4913 c -3.0778,4.8668 -7.69596,8.6957 -12.9369,11.0812 c -5.24094,2.3856 -11.08245,3.3534 -16.83404,3.0749 c -11.50319,-0.5571 -22.34153,-6.0041 -31.2462,-13.3076 c -8.90467,-7.3034 -16.12073,-16.4168 -23.2007,-25.5002 c -7.07997,-9.0833 -14.16179,-18.2813 -22.86729,-25.821 c -8.7055,-7.5398 -19.27213,-13.4007 -30.72887,-14.5741 c -5.72837,-0.5867 -11.60877,0.026 -16.99785,2.0546 c -5.38907,2.0288 -10.26831,5.5002 -13.72752,10.1037 c -3.45921,4.6035 -5.44947,10.3472 -5.29927,16.1036 c 0.1502,5.7564 2.49854,11.4769 6.63242,15.4856 c 2.99006,2.8995 6.78851,4.8504 10.71911,6.2281 c 3.9306,1.3777 8.02362,2.227 12.10608,3.0523 c 8.16493,1.6505 16.2523,3.6776 24.15902,6.2995 c 0.47459,0.1573 0.47459,0.1573 0.47459,0.1573"
       id="path7603"
       inkscape:connector-curvature="0"
       style="stroke:#ff0000" />
    <polyline
       points="312.81317,1065.88166 328.3396,1071.0302 343.18014,1075.14274 357.41256,1078.33144 371.11461,1080.7082 384.36403,1082.38509 397.2386,1083.47403 409.81605,1084.08717 422.17412,1084.33633 434.3906,1084.33368 446.54322,1084.19111"
       id="polyline7611"
       style="stroke:#000000" />
    <path
       d="m 446.54322,1084.1911 c 0.49997,-0.01 0.49997,-0.01 0.49997,-0.01 c 16.50947,-0.1936 33.11999,1.5187 49.49659,-0.5806 c 16.2546,-2.0837 31.81637,-9.2936 43.90421,-20.3588 c 12.08784,-11.0651 20.64347,-25.9357 24.1176,-41.9509 c 3.47413,-16.0151 1.84777,-33.09934 -4.60112,-48.16472 C 553.51158,958.0648 542.26879,945.09176 528.26464,936.58072 C 514.2605,928.06968 497.56194,924.06436 481.222,925.31343 c -16.33994,1.24907 -32.24028,7.74897 -44.76528,18.31676 c -12.525,10.5678 -21.61017,25.15254 -25.5571,41.05775 c -3.94693,15.90526 -2.73299,33.05066 3.43107,48.23486 c 6.21054,15.2987 15.95035,28.8764 23.93366,43.3293 c 0.24175,0.4377 0.24175,0.4377 0.24175,0.4377"
       id="path7613"
       inkscape:connector-curvature="0"
       style="stroke:#ff0000" />
    <polyline
       points="438.50609,1076.68979 447.79977,1093.515 457.52442,1108.79471 468.01909,1122.52077 479.62272,1134.68532 492.67438,1145.28009 507.51299,1154.29733 524.47761,1161.72877 543.90721,1167.56655 566.14079,1171.80252 591.51733,1174.42872"
       id="polyline7621"
       style="stroke:#000000" />
    <path
       d="m 591.51733,1174.4287 c 0.49734,0.052 0.49734,0.052 0.49734,0.052 c 8.52451,0.8822 17.11375,1.1071 25.65958,0.4634 c 4.27291,-0.3219 8.54535,-0.7376 12.83037,-0.7407 c 4.28502,0 8.62212,0.4298 12.64587,1.9031 c 6.80827,2.493 12.42301,8.0598 14.97412,14.8465 c 2.5511,6.7867 1.99358,14.6737 -1.48699,21.034 c -3.48057,6.3602 -9.82289,11.0817 -16.91431,12.5913 c -7.09142,1.5097 -14.80695,-0.2189 -20.57619,-4.6102 c -3.40974,-2.5954 -6.11176,-6.0156 -8.41828,-9.627 c -2.30652,-3.6113 -4.25866,-7.4345 -6.29002,-11.2075 c -4.06273,-7.546 -8.88069,-14.6605 -14.21752,-21.3662 c -0.31136,-0.3912 -0.31136,-0.3912 -0.31136,-0.3912"
       id="path7623"
       inkscape:connector-curvature="0"
       style="stroke:#ff0000" />
    <polyline
       points="589.90993,1177.37567 577.87574,1162.25474 568.429,1147.41823 561.30129,1133.00027 556.22417,1119.13493 552.92911,1105.95617 551.14769,1093.59815 550.61142,1082.195 551.05182,1071.8806 552.20046,1062.78911 553.78885,1055.05457"
       id="polyline7631"
       style="stroke:#000000" />
    <path
       d="m 553.78885,1055.0546 c 0.10058,-0.4898 0.10058,-0.4898 0.10058,-0.4898 c 1.66138,-8.0899 3.52269,-16.137 5.50795,-24.1536 c 1.98526,-8.0166 4.00462,-16.0878 4.44977,-24.3345 c 0.73428,-13.60306 -3.12075,-27.39496 -10.70008,-38.71469 c -7.57933,-11.31973 -18.82638,-20.11881 -31.59488,-24.86729 c -12.76849,-4.74849 -26.99233,-5.44197 -40.19333,-2.07804 c -13.201,3.36393 -25.32936,10.75423 -34.46383,20.86086 c -9.13447,10.10663 -15.25456,22.88197 -17.52895,36.31364 c -2.27439,13.43162 -0.71138,27.47482 4.34475,40.12462 c 5.05613,12.6498 13.57797,23.8772 24.32528,32.2485 c 10.74731,8.3712 23.68634,13.8773 37.15184,15.942 c 16.3195,2.5022 32.96533,1.2697 49.46332,1.9052 c 0.49963,0.019 0.49963,0.019 0.49963,0.019"
       id="path7633"
       inkscape:connector-curvature="0"
       style="stroke:#ff0000" />
    <polyline
       points="545.1509,1087.83078 566.16583,1088.64025 586.42858,1088.88831 606.2686,1088.59565 626.0154,1087.78298 645.99849,1086.47126 666.54729,1084.68118 687.99132,1082.43363 710.66008,1079.7492 734.88299,1076.64877 760.9896,1073.15313 774.09918,1079.56121 787.61051,1084.5355 801.1039,1088.25483 814.15968,1090.89797 826.35829,1092.64391 837.27997,1093.67131 846.50511,1094.1591 853.61409,1094.2861 858.18722,1094.23125 859.80482,1094.1732"
       id="polyline7641"
       style="stroke:#000000" />
    <path
       d="m 859.80482,1094.1732 c 0.49968,-0.018 0.49968,-0.018 0.49968,-0.018 c 8.45583,-0.3035 16.90628,0.4106 25.26309,1.7361 c 4.1784,0.6628 8.4029,1.2913 12.62423,1.0109 c 4.22133,-0.2804 8.53349,-1.5878 11.58084,-4.5224 c 2.32618,-2.2401 3.7733,-5.3395 4.13423,-8.5487 c 0.36094,-3.2092 -0.3428,-6.5091 -1.8595,-9.3603 c -1.5167,-2.8511 -3.82712,-5.2546 -6.54187,-7.0037 c -2.71475,-1.7491 -5.82487,-2.8528 -9.016,-3.3487 c -6.38226,-0.9917 -12.95525,0.4376 -18.88347,3.0014 c -5.92822,2.5638 -11.30763,6.2233 -16.61958,9.8975 c -5.31195,3.6742 -10.63132,7.4059 -16.48409,10.1375 c -5.85277,2.7317 -12.33418,4.4369 -18.76257,3.8102 c -3.21419,-0.3133 -6.38417,-1.2141 -9.21652,-2.7655 c -2.83235,-1.5514 -5.31967,-3.7628 -7.07426,-6.4741 c -1.75459,-2.7112 -2.75863,-5.9254 -2.719,-9.1546 c 0.0396,-3.2292 1.14527,-6.4581 3.2016,-8.9482 c 2.69109,-3.2588 6.79577,-5.08 10.94236,-5.8971 c 4.14659,-0.8171 8.41112,-0.7525 12.63618,-0.6491 c 8.45012,0.2068 16.9119,-0.1924 25.24988,-1.5801 c 0.49322,-0.082 0.49322,-0.082 0.49322,-0.082"
       id="path7643"
       inkscape:connector-curvature="0"
       style="stroke:#ff0000" />
    <polyline
       points="408.21501,613.71977 418.81595,631.84086 431.82441,645.60873 446.61707,655.15005 462.57061,660.59175 479.06166,662.06056 495.46693,659.6833 511.16305,653.58679 525.52666,643.89781 537.93446,630.74318 547.76313,614.24968"
       id="polyline7651"
       style="stroke:#000000" />
    <path
       d="m 547.76313,614.24968 c 0.25596,-0.42952 0.25596,-0.42952 0.25596,-0.42952 c 4.29171,-7.20192 9.047,-14.1159 14.15562,-20.76333 c 2.55431,-3.32372 5.12063,-6.65024 7.31476,-10.22199 c 2.19413,-3.57175 4.01469,-7.42744 4.82807,-11.53962 c 1.4536,-7.34899 -0.56376,-15.30695 -5.33627,-21.08135 c -4.77251,-5.7744 -12.20422,-9.25335 -19.69555,-9.22839 c -7.49132,0.025 -14.89655,3.55068 -19.64512,9.34478 c -4.74857,5.7941 -6.75122,13.74346 -5.32288,21.0974 c 0.79894,4.11343 2.59381,7.97753 4.75959,11.56472 c 2.16579,3.58719 4.70092,6.93528 7.22388,10.28091 c 5.04592,6.69126 9.73844,13.64409 13.97019,20.8778 c 0.25247,0.43158 0.25247,0.43158 0.25247,0.43158"
       id="path7653"
       inkscape:connector-curvature="0"
       style="stroke:#ff0000" />
    <polyline
       points="550.52383,614.58267 561.12475,632.70381 574.13319,646.47162 588.92589,656.013 604.87941,661.4547 621.37048,662.92351 637.77571,660.54624 653.47183,654.44973 667.83548,644.76075 680.24328,631.60613 690.0719,615.11263"
       id="polyline7661"
       style="stroke:#000000" />
    <path
       d="m 690.0719,615.11263 c 0.25595,-0.42952 0.25595,-0.42952 0.25595,-0.42952 c 4.30179,-7.21888 9.06574,-14.1518 14.21215,-20.79499 c 2.57321,-3.3216 5.16568,-6.63928 7.40201,-10.19641 c 2.23634,-3.55713 4.11596,-7.39109 5.0171,-11.49504 c 1.61924,-7.37432 -0.17261,-15.43232 -4.78827,-21.40712 c -4.61566,-5.9748 -11.97435,-9.74638 -19.5209,-9.97455 c -7.54655,-0.22817 -15.13114,3.10121 -20.04853,8.83024 c -4.91739,5.72903 -7.05844,13.74556 -5.62288,21.15782 c 0.80017,4.13157 2.62853,8.00434 4.83347,11.58879 c 2.20494,3.58446 4.78519,6.92113 7.34702,10.25986 c 5.12367,6.67746 9.85611,13.64848 14.10608,20.91334 c 0.25247,0.43158 0.25247,0.43158 0.25247,0.43158"
       id="path7663"
       inkscape:connector-curvature="0"
       style="stroke:#ff0000" />
    <polyline
       points="693.51759,613.99663 704.1185,632.11777 717.12694,645.88558 731.91959,655.42696 747.87316,660.86866 764.36423,662.33747 780.76946,659.9602 796.46558,653.86369 810.82919,644.17471 823.23703,631.02009 833.06565,614.52659"
       id="polyline7671"
       style="stroke:#000000" />
    <path
       d="m 833.06565,614.52659 c 0.25595,-0.42952 0.25595,-0.42952 0.25595,-0.42952 c 4.31627,-7.24317 9.10839,-14.19241 14.31459,-20.82484 c 2.6031,-3.31621 5.23127,-6.62376 7.50353,-10.17485 c 2.27226,-3.55109 4.18846,-7.38448 5.11272,-11.49777 c 1.66692,-7.41843 -0.15674,-15.54786 -4.84437,-21.53434 c -4.68763,-5.98647 -12.14957,-9.70786 -19.7519,-9.83578 c -7.60233,-0.12792 -15.1908,3.34497 -20.05198,9.1914 c -4.86118,5.84643 -6.89081,13.9485 -5.34558,21.39323 c 0.85754,4.13151 2.7326,7.99265 4.97468,11.56727 c 2.24208,3.57461 4.85051,6.90301 7.43432,10.23897 c 5.16763,6.67193 9.91591,13.66045 14.17723,20.94469 c 0.25247,0.43158 0.25247,0.43158 0.25247,0.43158"
       id="path7673"
       inkscape:connector-curvature="0"
       style="stroke:#ff0000" />
    <polyline
       points="837.09733,613.99663 847.69829,632.11777 860.70673,645.88558 875.49939,655.42696 891.45291,660.86866 907.94398,662.33747 924.34925,659.9602 940.04533,653.86369 954.40898,644.17471 966.81682,631.02009 976.64544,614.52659"
       id="polyline7681"
       style="stroke:#000000" />
    <path
       d="m 976.64544,614.52659 c 0.25595,-0.42952 0.25595,-0.42952 0.25595,-0.42952 c 8.4514,-14.18237 15.38316,-29.35291 25.33951,-42.52246 c 11.0289,-14.58825 26.8328,-25.39342 44.2576,-30.94601 c 17.4248,-5.55259 36.387,-5.91162 54.1608,-1.60512 c 17.7738,4.3065 34.341,13.2083 48.1484,25.20031 c 13.8075,11.99201 24.875,27.02736 32.78,43.51872 c 15.81,32.98271 18.734,71.18232 12.761,107.2675 c -5.973,36.08518 -20.4221,70.30004 -37.9571,102.39892 c -7.9104,14.48043 -16.3043,28.6907 -24.4566,43.03634 c -0.247,0.43471 -0.247,0.43471 -0.247,0.43471"
       id="path7683"
       inkscape:connector-curvature="0"
       style="stroke:#ff0000" />
  </g>
</svg>
