<?xml version="1.0" encoding="UTF-8" standalone="no"?>
<svg
   xmlns:dc="http://purl.org/dc/elements/1.1/"
   xmlns:cc="http://creativecommons.org/ns#"
   xmlns:rdf="http://www.w3.org/1999/02/22-rdf-syntax-ns#"
   xmlns:svg="http://www.w3.org/2000/svg"
   xmlns="http://www.w3.org/2000/svg"
   xmlns:sodipodi="http://sodipodi.sourceforge.net/DTD/sodipodi-0.dtd"
   xmlns:inkscape="http://www.inkscape.org/namespaces/inkscape"
   x="0"
   y="0"
   width="547.22455"
   height="425.77972"
   version="1.1"
   id="svg3466"
   inkscape:version="0.48+devel r"
   sodipodi:docname="zigzag_1.svg">
  <metadata
     id="metadata3568">
    <rdf:RDF>
      <cc:Work
         rdf:about="">
        <dc:format>image/svg+xml</dc:format>
        <dc:type
           rdf:resource="http://purl.org/dc/dcmitype/StillImage" />
        <dc:title></dc:title>
      </cc:Work>
    </rdf:RDF>
  </metadata>
  <defs
     id="defs3566" />
  <sodipodi:namedview
     pagecolor="#ffffff"
     bordercolor="#666666"
     borderopacity="1"
     objecttolerance="10"
     gridtolerance="10"
     guidetolerance="10"
     inkscape:pageopacity="0"
     inkscape:pageshadow="2"
     inkscape:window-width="2560"
     inkscape:window-height="1378"
     id="namedview3564"
     showgrid="false"
     inkscape:zoom="2.0105687"
     inkscape:cx="382.01603"
     inkscape:cy="173.62491"
     inkscape:window-x="0"
     inkscape:window-y="27"
     inkscape:window-maximized="1"
     inkscape:current-layer="g3468"
     fit-margin-top="0"
     fit-margin-left="0"
     fit-margin-right="0"
     fit-margin-bottom="0" />
  <g
     stroke-miterlimit="10"
     font-weight="normal"
     font-size="12"
     mix-blend-mode="normal"
     id="g3468"
     style="font-weight:normal;font-size:12px;font-family:sans-serif;text-anchor:start;fill:none;stroke:none;stroke-width:2;stroke-linecap:butt;stroke-linejoin:miter;stroke-miterlimit:10;stroke-dasharray:none;stroke-dashoffset:0"
     transform="translate(-18.705013,18.908536)">
    <polygon
       points="110.4918,20 480,57.70492 458.88524,367.63933 20,360.09835 "
       id="polygon3470"
       style="stroke:#000000" />
    <polygon
       points="132.90338,52.44268 448.09783,84.60538 430.89257,337.15393 58.84961,330.76144 "
       id="polygon3472"
       style="fill:#ffffff;stroke:#008000" />
    <line
       x1="322.84961"
       y1="335.29752"
       x2="322.84961"
       y2="71.824951"
       id="line3474"
       style="stroke:#000000" />
    <path
       d="M 322.84962,71.82495 C 322.84962,71.32495 322.84962,71.32495 322.84962,71.32495 C 322.84962,62.96223 322.19321,54.60657 320.77557,46.36488 C 320.06675,42.24403 319.28842,38.12642 318.95351,33.95849 C 318.6186,29.79056 318.74984,25.5287 319.97877,21.53201 C 321.64536,16.11196 325.36229,11.36691 330.17395,8.36651 C 334.98561,5.36611 340.84535,4.11651 346.47521,4.7941 C 352.10507,5.4717 357.47314,8.05498 361.58502,11.95971 C 365.69691,15.86444 368.54383,21.06062 369.72047,26.6077 C 371.43114,34.67236 369.8005,43.01974 368.58893,51.17433 C 367.37737,59.32892 366.84962,67.57066 366.84962,75.81476 C 366.84962,76.31476 366.84962,76.31476 366.84962,76.31476"
       id="path3476"
       inkscape:connector-curvature="0"
       style="stroke:#ff0000" />
    <line
       x1="366.84961"
       y1="76.314743"
       x2="366.84961"
       y2="336.05353"
       id="line3484"
       style="stroke:#000000" />
    <path
       d="M 366.84962,336.05353 C 366.84962,336.55353 366.84962,336.55353 366.84962,336.55353 C 366.84962,344.84677 366.2645,353.13626 364.94542,361.32392 C 363.62634,369.51158 361.86941,377.9496 363.85331,386.00205 C 365.21267,391.51953 368.41824,396.56789 372.84427,400.1317 C 377.2703,403.69551 382.89211,405.75114 388.57342,405.86606 C 394.25473,405.98098 399.96024,404.15148 404.50523,400.74068 C 409.05022,397.32988 412.40348,392.35739 413.84593,386.86104 C 414.90113,382.84025 414.95509,378.616 414.59711,374.47449 C 414.23913,370.33298 413.48739,366.2372 412.81043,362.13574 C 411.4565,353.93282 410.84962,345.62346 410.84962,337.30955 C 410.84962,336.80955 410.84962,336.80955 410.84962,336.80955"
       id="path3486"
       inkscape:connector-curvature="0"
       style="stroke:#ff0000" />
    <polygon
       points="132.90338,52.44268 448.09783,84.60538 430.89257,337.15393 58.84961,330.76144 "
       id="polygon3494"
       style="stroke:#000000" />
    <path
       d="M 448.09783,84.60538 C 448.59525,84.65614 448.59525,84.65614 448.59525,84.65614 C 465.01997,86.33213 481.33049,89.8588 497.83954,89.68107 C 516.20445,89.48336 534.74705,82.74194 547.74444,69.76592 C 554.24313,63.27791 559.2985,55.31492 562.18061,46.59594 C 565.06272,37.87695 565.74457,28.40968 563.91028,19.41175 C 562.07599,10.41382 557.7028,1.91535 551.27843,-4.64626 C 544.85407,-11.20788 536.38032,-15.78242 527.32794,-17.32571 C 518.27556,-18.869 508.69006,-17.33289 500.68294,-12.83697 C 492.67582,-8.34105 486.33337,-0.88079 483.39844,7.82056 C 480.75333,15.66268 480.78109,24.12062 480.79313,32.39681 C 480.80517,40.673 480.5965,48.94903 480.03397,57.20609 C 479.99999,57.70493 479.99999,57.70493 479.99999,57.70493"
       id="path3496"
       inkscape:connector-curvature="0"
       style="stroke:#ff0000" />
    <line
       x1="102.84961"
       y1="165.39478"
       x2="102.84961"
       y2="331.51746"
       id="line3504"
       style="stroke:#000000" />
    <path
       d="M 102.84961,331.51745 C 102.84961,332.01745 102.84961,332.01745 102.84961,332.01745 C 102.84961,340.31069 102.26449,348.60018 100.94541,356.78784 C 99.62633,364.9755 97.86939,373.41352 99.8533,381.46597 C 101.21266,386.98345 104.41823,392.03181 108.84426,395.59562 C 113.27029,399.15943 118.8921,401.21506 124.57341,401.32998 C 130.25472,401.4449 135.96023,399.6154 140.50522,396.2046 C 145.05021,392.7938 148.40347,387.8213 149.84592,382.32496 C 150.90112,378.30417 150.95508,374.07992 150.5971,369.93841 C 150.23912,365.7969 149.48738,361.70112 148.81042,357.59966 C 147.45649,349.39674 146.84961,341.08738 146.84961,332.77347 C 146.84961,332.27347 146.84961,332.27347 146.84961,332.27347"
       id="path3506"
       inkscape:connector-curvature="0"
       style="stroke:#ff0000" />
    <line
       x1="146.84961"
       y1="332.27347"
       x2="146.84961"
       y2="53.865761"
       id="line3514"
       style="stroke:#000000" />
    <path
       d="M 146.84961,53.86576 C 146.84961,53.36576 146.84961,53.36576 146.84961,53.36576 C 146.84961,45.00304 146.1932,36.64738 144.77556,28.40569 C 144.06674,24.28484 143.28841,20.16723 142.9535,15.9993 C 142.61859,11.83137 142.74983,7.56951 143.97875,3.57282 C 145.64533,-1.84723 149.36227,-6.59229 154.17393,-9.59268 C 158.98559,-12.59308 164.84533,-13.84269 170.47519,-13.16509 C 176.10505,-12.48749 181.47312,-9.90421 185.58501,-5.99948 C 189.6969,-2.09475 192.54382,3.10143 193.72046,8.64851 C 195.43113,16.71317 193.80048,25.06055 192.58892,33.21514 C 191.37736,41.36973 190.84961,49.61147 190.84961,57.85557 C 190.84961,58.35557 190.84961,58.35557 190.84961,58.35557"
       id="path3516"
       inkscape:connector-curvature="0"
       style="stroke:#ff0000" />
    <line
       x1="190.84961"
       y1="58.35556"
       x2="190.84961"
       y2="333.02948"
       id="line3524"
       style="stroke:#000000" />
    <path
       d="M 190.84961,333.02948 C 190.84961,333.52948 190.84961,333.52948 190.84961,333.52948 C 190.84961,341.82272 190.26449,350.11221 188.94541,358.29987 C 187.62633,366.48753 185.86939,374.92555 187.8533,382.978 C 189.21266,388.49548 192.41823,393.54384 196.84426,397.10765 C 201.27029,400.67146 206.8921,402.72709 212.57342,402.84201 C 218.25473,402.95693 223.96024,401.12743 228.50523,397.71663 C 233.05022,394.30583 236.40348,389.33333 237.84593,383.83698 C 238.90113,379.81619 238.95509,375.59194 238.59711,371.45043 C 238.23913,367.30892 237.48739,363.21314 236.81042,359.11168 C 235.45649,350.90876 234.84961,342.5994 234.84961,334.28549 C 234.84961,333.78549 234.84961,333.78549 234.84961,333.78549"
       id="path3526"
       inkscape:connector-curvature="0"
       style="stroke:#ff0000" />
    <line
       x1="234.84961"
       y1="333.78549"
       x2="234.84961"
       y2="62.845348"
       id="line3534"
       style="stroke:#000000" />
    <path
       d="M 234.84961,62.84535 C 234.84961,62.34535 234.84961,62.34535 234.84961,62.34535 C 234.84961,53.98263 234.1932,45.62697 232.77556,37.38528 C 232.06674,33.26443 231.28841,29.14682 230.9535,24.97889 C 230.61859,20.81096 230.74983,16.5491 231.97876,12.55241 C 233.64535,7.13236 237.36228,2.38731 242.17394,-0.61309 C 246.9856,-3.61349 252.84534,-4.86309 258.4752,-4.1855 C 264.10506,-3.5079 269.47313,-0.92462 273.58501,2.98011 C 277.6969,6.88484 280.54382,12.08102 281.72046,17.6281 C 283.43113,25.69276 281.80049,34.04014 280.58892,42.19473 C 279.37736,50.34932 278.84961,58.59106 278.84961,66.83516 C 278.84961,67.33516 278.84961,67.33516 278.84961,67.33516"
       id="path3536"
       inkscape:connector-curvature="0"
       style="stroke:#ff0000" />
    <line
       x1="278.84961"
       y1="67.335152"
       x2="278.84961"
       y2="334.5415"
       id="line3544"
       style="stroke:#000000" />
    <path
       d="M 278.84961,334.54151 C 278.84961,335.04151 278.84961,335.04151 278.84961,335.04151 C 278.84961,343.33475 278.26449,351.62424 276.94541,359.8119 C 275.62633,367.99956 273.8694,376.43758 275.8533,384.49003 C 277.21266,390.00751 280.41823,395.05587 284.84426,398.61968 C 289.27029,402.18349 294.8921,404.23912 300.57341,404.35404 C 306.25472,404.46896 311.96023,402.63946 316.50522,399.22866 C 321.05021,395.81786 324.40347,390.84537 325.84592,385.34902 C 326.90112,381.32823 326.95508,377.10398 326.5971,372.96247 C 326.23912,368.82096 325.48738,364.72518 324.81042,360.62372 C 323.45649,352.4208 322.84961,344.11144 322.84961,335.79753 C 322.84961,335.29753 322.84961,335.29753 322.84961,335.29753"
       id="path3546"
       inkscape:connector-curvature="0"
       style="stroke:#ff0000" />
    <line
       x1="410.84964"
       y1="336.80954"
       x2="410.84964"
       y2="80.804543"
       id="line3554"
       style="stroke:#000000" />
    <path
       d="M 410.84963,80.80454 C 410.84963,80.30454 410.84963,80.30454 410.84963,80.30454 C 410.84963,71.90213 410.1484,63.49944 408.45165,55.27013 C 407.60327,51.15547 406.63499,47.05971 406.06586,42.89723 C 405.49673,38.73475 405.34586,34.45918 406.28821,30.36502 C 407.62034,24.57744 411.19582,19.34749 416.07031,15.95487 C 420.94481,12.56225 427.06712,11.0266 432.97261,11.65567 C 438.8781,12.28473 444.52134,15.06122 448.66797,19.31282 C 452.8146,23.56441 455.44409,29.25339 456.05771,35.16051 C 456.91496,43.41311 454.1296,51.54904 452.00545,59.56953 C 449.8813,67.59002 448.69576,75.82871 448.13182,84.10653 C 448.09784,84.60537 448.09784,84.60537 448.09784,84.60537"
       id="path3556"
       inkscape:connector-curvature="0"
       style="stroke:#ff0000" />
  </g>
</svg>
