<?xml version="1.0" encoding="UTF-8" standalone="no"?>
<svg
   xmlns:dc="http://purl.org/dc/elements/1.1/"
   xmlns:cc="http://creativecommons.org/ns#"
   xmlns:rdf="http://www.w3.org/1999/02/22-rdf-syntax-ns#"
   xmlns:svg="http://www.w3.org/2000/svg"
   xmlns="http://www.w3.org/2000/svg"
   xmlns:sodipodi="http://sodipodi.sourceforge.net/DTD/sodipodi-0.dtd"
   xmlns:inkscape="http://www.inkscape.org/namespaces/inkscape"
   x="0"
   y="0"
   width="1462.4526"
   height="1104.4255"
   version="1.1"
   id="svg3608"
   inkscape:version="0.48+devel r"
   sodipodi:docname="zigzag_2.svg">
  <metadata
     id="metadata4144">
    <rdf:RDF>
      <cc:Work
         rdf:about="">
        <dc:format>image/svg+xml</dc:format>
        <dc:type
           rdf:resource="http://purl.org/dc/dcmitype/StillImage" />
        <dc:title></dc:title>
      </cc:Work>
    </rdf:RDF>
  </metadata>
  <defs
     id="defs4142" />
  <sodipodi:namedview
     pagecolor="#ffffff"
     bordercolor="#666666"
     borderopacity="1"
     objecttolerance="10"
     gridtolerance="10"
     guidetolerance="10"
     inkscape:pageopacity="0"
     inkscape:pageshadow="2"
     inkscape:window-width="2560"
     inkscape:window-height="1378"
     id="namedview4140"
     showgrid="false"
     inkscape:zoom="0.90987952"
     inkscape:cx="1047.126"
     inkscape:cy="565.56935"
     inkscape:window-x="0"
     inkscape:window-y="27"
     inkscape:window-maximized="1"
     inkscape:current-layer="g3610"
     fit-margin-top="0"
     fit-margin-left="0"
     fit-margin-right="0"
     fit-margin-bottom="0" />
  <g
     stroke-miterlimit="10"
     font-weight="normal"
     font-size="12"
     mix-blend-mode="normal"
     id="g3610"
     style="font-weight:normal;font-size:12px;font-family:sans-serif;text-anchor:start;fill:none;stroke:none;stroke-width:2;stroke-linecap:butt;stroke-linejoin:miter;stroke-miterlimit:10;stroke-dasharray:none;stroke-dashoffset:0"
     transform="translate(-18.770769,17.043911)">
    <polygon
       points="1100.0623,415.04877 1405.3068,560.50404 1480,862.2626 1138.7036,928.77571 1053.9249,937.38157 973.75221,943.75561 898.15947,948.00405 827.12038,950.23303 760.60899,950.54879 698.59909,949.05754 641.06449,945.8654 587.97918,941.07863 539.31695,934.80341 495.05172,927.1459 20,811.884 109.66904,474.87784 475.81765,512.23995 718.78703,39.33135 995.00752,20 "
       id="polygon3612"
       style="stroke:#000000" />
    <polygon
       points="1062.5009,390.53544 529.43335,473.53087 737.7456,68.07791 972.38331,51.65674 "
       id="polygon3614"
       style="fill:#ffffff;stroke:#008000" />
    <polygon
       points="1443.2995,838.85054 1134.3103,899.0675 1051.2209,907.50189 971.72144,913.8224 896.84715,918.03046 826.57865,920.23527 760.89846,920.54708 699.79096,919.07753 643.2432,915.94014 591.24592,911.25148 543.79435,905.13238 501.15225,897.75566 94.19061,799.01447 486.86096,540.882 1095.5219,446.11713 1379.5944,581.48353 "
       id="polygon3616"
       style="fill:#ffffff;stroke:#008000" />
    <polygon
       points="388.83332,533.51978 69.20242,743.63779 132.08063,507.32052 "
       id="polygon3618"
       style="fill:#ffffff;stroke:#008000" />
    <line
       x1="617.43335"
       y1="302.25021"
       x2="617.43335"
       y2="459.8298"
       id="line3620"
       style="stroke:#000000" />
    <path
       d="M 617.43335,459.8298 C 617.43335,460.3298 617.43335,460.3298 617.43335,460.3298 C 617.43335,468.71939 616.74903,477.09994 615.30767,485.36478 C 614.58699,489.4972 613.80278,493.62882 613.49483,497.8123 C 613.18688,501.99578 613.38132,506.27879 614.73095,510.25054 C 616.55026,515.60451 620.49174,520.17738 625.44872,522.89828 C 630.40569,525.61918 636.32275,526.49294 641.8839,525.46898 C 647.44505,524.44502 652.62282,521.55524 656.52564,517.46343 C 660.42846,513.37162 663.05694,508.10928 664.13574,502.55851 C 665.7034,494.49241 664.18001,486.18972 663.05127,478.05058 C 661.92253,469.91145 661.43335,461.69628 661.43335,453.47925 C 661.43335,452.97925 661.43335,452.97925 661.43335,452.97925"
       id="path3622"
       inkscape:connector-curvature="0"
       style="stroke:#ff0000" />
    <polygon
       points="1062.5009,390.53544 529.43335,473.53087 737.7456,68.07791 972.38331,51.65674 "
       id="polygon3630"
       style="stroke:#000000" />
    <path
       d="M 1062.5009,390.53544 C 1062.6294,391.01865 1062.6294,391.01865 1062.6294,391.01865 C 1065.0973,400.2991 1068.104,409.45904 1072.2953,418.0991 C 1076.4866,426.73916 1081.6179,434.98894 1084.5807,444.12346 C 1087.9505,454.51283 1088.1728,465.91342 1085.126,476.40207 C 1082.0793,486.89071 1075.7643,496.41804 1067.2359,503.24153 C 1058.7074,510.06502 1047.9985,514.14078 1037.0871,514.62706 C 1026.1757,515.11335 1015.1204,511.99315 1006.1225,505.80193 C 997.12454,499.61071 990.24663,490.37325 986.97766,479.95172 C 983.70869,469.53019 984.08555,457.98924 988.10807,447.83475 C 992.13059,437.68026 999.78467,428.99298 1009.393,423.7993 C 1019.0013,418.60562 1030.4944,416.96287 1041.1546,419.34091 C 1050.9576,421.52772 1059.7581,426.77952 1068.4447,431.82172 C 1077.1312,436.86391 1086.0034,441.5814 1095.0705,445.90206 C 1095.5219,446.11715 1095.5219,446.11715 1095.5219,446.11715"
       id="path3632"
       inkscape:connector-curvature="0"
       style="stroke:#ff0000" />
    <line
       x1="573.43335"
       y1="387.89053"
       x2="573.43335"
       y2="466.68033"
       id="line3640"
       style="stroke:#000000" />
    <path
       d="M 573.43335,466.68033 C 573.43335,467.18033 573.43335,467.18033 573.43335,467.18033 C 573.43335,475.45843 573.06636,483.73103 572.47136,491.98772 C 571.87636,500.24441 571.25354,508.69438 573.43335,516.68033 C 576.304,527.19723 584.26547,536.07834 594.18399,540.60259 C 604.10251,545.12684 615.77685,545.37553 626.08467,541.82662 C 636.39249,538.27771 645.30056,531.06779 651.42488,522.049 C 657.54919,513.03021 660.94207,502.27469 661.71223,491.40028 C 663.25255,469.65147 654.46412,448.17874 641.61178,430.56622 C 628.75944,412.95371 612.01516,398.62276 595.43348,384.46538 C 578.85175,370.30802 562.10742,355.97709 549.25502,338.36458 C 536.40262,320.75207 527.61413,299.27933 529.15441,277.53048 C 529.92455,266.65606 533.3174,255.90051 539.4417,246.88169 C 545.566,237.86287 554.47408,230.65292 564.7819,227.10398 C 575.08972,223.55504 586.76408,223.80371 596.68263,228.32794 C 606.60117,232.85217 614.56267,241.73328 617.43335,252.25019 C 619.61316,260.23614 618.99035,268.6861 618.39534,276.9428 C 617.80034,285.19949 617.43335,293.47209 617.43335,301.75019 C 617.43335,302.25019 617.43335,302.25019 617.43335,302.25019"
       id="path3642"
       inkscape:connector-curvature="0"
       style="stroke:#ff0000" />
    <line
       x1="661.43335"
       y1="452.97925"
       x2="661.43335"
       y2="216.60988"
       id="line3650"
       style="stroke:#000000" />
    <path
       d="M 661.43335,216.60988 C 661.43335,216.10988 661.43335,216.10988 661.43335,216.10988 C 661.43335,199.60269 663.00454,183.04213 661.43335,166.60988 C 660.3218,154.98469 657.13515,143.67289 654.90653,132.2093 C 652.67791,120.74571 651.41964,108.80879 654.16366,97.45754 C 655.53567,91.78191 657.91871,86.31461 661.44778,81.66264 C 664.97685,77.01067 669.67839,73.19601 675.10415,71.03818 C 680.52992,68.88035 686.68266,68.43714 692.26744,70.14166 C 697.85222,71.84618 702.7975,75.75923 705.43334,80.96957 C 707.315,84.68911 708.00113,88.91612 708.075,93.08387 C 708.14887,97.25162 707.64709,101.40629 707.12491,105.54186 C 706.08055,113.813 705.43334,122.13275 705.43334,130.46957 C 705.43334,130.96957 705.43334,130.96957 705.43334,130.96957"
       id="path3652"
       inkscape:connector-curvature="0"
       style="stroke:#ff0000" />
    <line
       x1="705.43335"
       y1="130.96956"
       x2="705.43335"
       y2="446.12872"
       id="line3660"
       style="stroke:#000000" />
    <path
       d="M 705.43334,446.12872 C 705.43334,446.62872 705.43334,446.62872 705.43334,446.62872 C 705.43334,455.01831 704.74902,463.39886 703.30766,471.6637 C 702.58698,475.79612 701.80277,479.92774 701.49483,484.11122 C 701.18688,488.2947 701.38132,492.57771 702.73095,496.54946 C 704.55026,501.90343 708.49175,506.4763 713.44872,509.1972 C 718.40569,511.9181 724.32275,512.79186 729.8839,511.7679 C 735.44505,510.74394 740.62282,507.85416 744.52564,503.76235 C 748.42846,499.67054 751.05694,494.4082 752.13574,488.85743 C 753.7034,480.79133 752.18002,472.48864 751.05127,464.3495 C 749.92253,456.21037 749.43335,447.9952 749.43335,439.77817 C 749.43335,439.27817 749.43335,439.27817 749.43335,439.27817"
       id="path3662"
       inkscape:connector-curvature="0"
       style="stroke:#ff0000" />
    <line
       x1="749.43335"
       y1="439.27817"
       x2="749.43335"
       y2="67.259941"
       id="line3670"
       style="stroke:#000000" />
    <path
       d="M 749.43335,67.25994 C 749.43335,66.75994 749.43335,66.75994 749.43335,66.75994 C 749.43335,58.4979 748.88336,50.23864 747.62769,42.07258 C 746.37201,33.90651 744.68719,25.52761 746.49436,17.46563 C 747.73609,11.92611 750.71701,6.77931 754.95046,2.99698 C 759.18391,-0.78535 764.65521,-3.17503 770.31299,-3.64158 C 775.97077,-4.10812 781.78128,-2.6366 786.49716,0.52387 C 791.21304,3.68434 794.79331,8.52195 796.37236,13.9749 C 797.53293,17.98271 797.63161,22.23076 797.28511,26.38881 C 796.93861,30.54686 796.16782,34.65607 795.46915,38.76962 C 794.07181,46.99673 793.43337,55.33565 793.43337,63.68058 C 793.43337,64.18058 793.43337,64.18058 793.43337,64.18058"
       id="path3672"
       inkscape:connector-curvature="0"
       style="stroke:#ff0000" />
    <line
       x1="793.43335"
       y1="64.180588"
       x2="793.43335"
       y2="432.42764"
       id="line3680"
       style="stroke:#000000" />
    <path
       d="M 793.43335,432.42764 C 793.43335,432.92764 793.43335,432.92764 793.43335,432.92764 C 793.43335,441.31723 792.74903,449.69778 791.30767,457.96262 C 790.58699,462.09504 789.80278,466.22666 789.49484,470.41014 C 789.18689,474.59362 789.38133,478.87663 790.73096,482.84838 C 792.55027,488.20235 796.49176,492.77522 801.44873,495.49612 C 806.4057,498.21702 812.32276,499.09078 817.88391,498.06682 C 823.44506,497.04286 828.62283,494.15308 832.52565,490.06127 C 836.42847,485.96946 839.05695,480.70712 840.13575,475.15635 C 841.70341,467.09025 840.18003,458.78756 839.05128,450.64842 C 837.92254,442.50929 837.43336,434.29412 837.43336,426.07709 C 837.43336,425.57709 837.43336,425.57709 837.43336,425.57709"
       id="path3682"
       inkscape:connector-curvature="0"
       style="stroke:#ff0000" />
    <line
       x1="837.43335"
       y1="425.57712"
       x2="837.43335"
       y2="61.101238"
       id="line3690"
       style="stroke:#000000" />
    <path
       d="M 837.43336,61.10124 C 837.43336,60.60124 837.43336,60.60124 837.43336,60.60124 C 837.43336,52.3392 836.88337,44.07994 835.6277,35.91388 C 834.37202,27.74781 832.6872,19.36891 834.49437,11.30693 C 835.7361,5.76741 838.71702,0.62061 842.95047,-3.16172 C 847.18392,-6.94405 852.65522,-9.33373 858.313,-9.80028 C 863.97078,-10.26682 869.78129,-8.7953 874.49717,-5.63483 C 879.21305,-2.47436 882.79332,2.36325 884.37237,7.8162 C 885.53294,11.82401 885.63162,16.07206 885.28512,20.23011 C 884.93862,24.38816 884.16783,28.49737 883.46916,32.61092 C 882.07182,40.83803 881.43338,49.17695 881.43338,57.52188 C 881.43338,58.02188 881.43338,58.02188 881.43338,58.02188"
       id="path3692"
       inkscape:connector-curvature="0"
       style="stroke:#ff0000" />
    <line
       x1="881.43335"
       y1="58.021889"
       x2="881.43335"
       y2="418.72656"
       id="line3700"
       style="stroke:#000000" />
    <path
       d="M 881.43336,418.72657 C 881.43336,419.22657 881.43336,419.22657 881.43336,419.22657 C 881.43336,427.61616 880.74904,435.99671 879.30768,444.26155 C 878.587,448.39397 877.80279,452.52559 877.49485,456.70907 C 877.1869,460.89255 877.38134,465.17556 878.73097,469.14731 C 880.55028,474.50128 884.49177,479.07415 889.44874,481.79505 C 894.40571,484.51595 900.32277,485.38971 905.88392,484.36575 C 911.44507,483.34179 916.62284,480.45201 920.52566,476.3602 C 924.42848,472.26839 927.05696,467.00605 928.13576,461.45528 C 929.70342,453.38918 928.18004,445.08649 927.05129,436.94735 C 925.92255,428.80822 925.43337,420.59305 925.43337,412.37602 C 925.43337,411.87602 925.43337,411.87602 925.43337,411.87602"
       id="path3702"
       inkscape:connector-curvature="0"
       style="stroke:#ff0000" />
    <line
       x1="925.43335"
       y1="411.87604"
       x2="925.43335"
       y2="54.942539"
       id="line3710"
       style="stroke:#000000" />
    <path
       d="M 925.43337,54.94254 C 925.43337,54.44254 925.43337,54.44254 925.43337,54.44254 C 925.43337,46.1805 924.88338,37.92124 923.62771,29.75518 C 922.37203,21.58911 920.68721,13.21021 922.49438,5.14823 C 923.73611,-0.39129 926.71703,-5.53809 930.95048,-9.32042 C 935.18393,-13.10275 940.65523,-15.49243 946.31301,-15.95898 C 951.97079,-16.42552 957.7813,-14.954 962.49718,-11.79353 C 967.21306,-8.63306 970.79333,-3.79545 972.37238,1.6575 C 973.53295,5.66531 973.63163,9.91336 973.28513,14.07141 C 972.93863,18.22946 972.16784,22.33867 971.46917,26.45222 C 970.07183,34.67933 969.43339,43.01825 969.43339,51.36318 C 969.43339,51.86318 969.43339,51.86318 969.43339,51.86318"
       id="path3712"
       inkscape:connector-curvature="0"
       style="stroke:#ff0000" />
    <line
       x1="969.43335"
       y1="51.86319"
       x2="969.43335"
       y2="405.02548"
       id="line3720"
       style="stroke:#000000" />
    <path
       d="M 969.43338,405.02549 C 969.43338,405.52549 969.43338,405.52549 969.43338,405.52549 C 969.43338,413.91508 968.74906,422.29563 967.3077,430.56047 C 966.58702,434.69289 965.80281,438.82451 965.49486,443.00799 C 965.18691,447.19147 965.38135,451.47448 966.73098,455.44623 C 968.55029,460.8002 972.49177,465.37307 977.44875,468.09397 C 982.40572,470.81487 988.32278,471.68863 993.88393,470.66467 C 999.44508,469.64071 1004.6228,466.75093 1008.5257,462.65912 C 1012.4285,458.56731 1015.057,453.30497 1016.1358,447.75419 C 1017.7034,439.68809 1016.18,431.3854 1015.0513,423.24626 C 1013.9225,415.10713 1013.4334,406.89197 1013.4334,398.67494 C 1013.4334,398.17494 1013.4334,398.17494 1013.4334,398.17494"
       id="path3722"
       inkscape:connector-curvature="0"
       style="stroke:#ff0000" />
    <line
       x1="1013.4333"
       y1="398.17496"
       x2="1013.4333"
       y2="206.02162"
       id="line3730"
       style="stroke:#000000" />
    <path
       d="M 1013.4334,206.02162 C 1013.4334,205.52162 1013.4334,205.52162 1013.4334,205.52162 C 1013.4334,197.23595 1013.0197,188.95726 1012.3494,180.69874 C 1011.6791,172.44022 1010.983,163.93667 1013.4334,156.02162 C 1015.0724,150.72744 1018.1473,145.90059 1022.173,142.09168 C 1026.1988,138.28277 1031.1605,135.49019 1036.4731,133.91178 C 1047.0982,130.75497 1058.9289,132.59451 1068.5628,138.07589 C 1078.1968,143.55727 1085.6638,152.47903 1090.2148,162.5858 C 1094.7658,172.69257 1096.501,183.93442 1096.1504,195.01303 C 1095.4493,217.17025 1086.7098,238.19408 1077.7907,258.489 C 1068.8717,278.78393 1059.5093,299.40862 1057.4334,321.47951 C 1055.8875,337.91393 1057.4334,354.47255 1057.4334,370.97951 C 1057.4334,371.47951 1057.4334,371.47951 1057.4334,371.47951"
       id="path3732"
       inkscape:connector-curvature="0"
       style="stroke:#ff0000" />
    <line
       x1="1057.4333"
       y1="371.47952"
       x2="1057.4333"
       y2="391.32443"
       id="line3740"
       style="stroke:#000000" />
    <path
       d="M 1057.4334,391.32442 C 1057.4334,391.82442 1057.4334,391.82442 1057.4334,391.82442 C 1057.4334,400.0866 1057.192,408.3464 1056.8001,416.59928 C 1056.4082,424.85216 1055.9913,433.18906 1057.4334,441.32442 C 1059.1197,450.8376 1063.4689,459.86681 1069.8707,467.10291 C 1076.2725,474.33901 1084.7092,479.75858 1093.9574,482.5541 C 1103.2056,485.34963 1113.2371,485.51015 1122.5651,482.99373 C 1131.8931,480.47731 1140.4871,475.28972 1147.0455,468.19532 C 1153.604,461.10093 1158.1036,452.12151 1159.8423,442.61777 C 1161.5809,433.11402 1160.5503,423.11779 1156.8916,414.17584 C 1153.233,405.23389 1146.9568,397.37842 1139.0324,391.85144 C 1131.108,386.32446 1121.5623,383.14792 1111.9056,382.8434 C 1103.6461,382.58293 1095.4657,384.30315 1087.3746,385.9833 C 1079.2835,387.66346 1071.1602,389.18721 1062.9949,390.45851 C 1062.5009,390.53543 1062.5009,390.53543 1062.5009,390.53543"
       id="path3742"
       inkscape:connector-curvature="0"
       style="stroke:#ff0000" />
    <line
       x1="534.19061"
       y1="533.51306"
       x2="534.19061"
       y2="903.47101"
       id="line3750"
       style="stroke:#000000" />
    <path
       d="M 534.19064,533.51305 C 534.19064,533.01305 534.19064,533.01305 534.19064,533.01305 C 534.19064,524.62346 534.87496,516.24291 536.31632,507.97807 C 537.037,503.84565 537.82121,499.71403 538.12915,495.53055 C 538.4371,491.34707 538.24266,487.06406 536.89303,483.09231 C 535.07372,477.73834 531.13223,473.16547 526.17526,470.44457 C 521.21829,467.72367 515.30123,466.84991 509.74008,467.87387 C 504.17893,468.89783 499.00116,471.78761 495.09834,475.87942 C 491.19552,479.97123 488.56704,485.23357 487.48824,490.78434 C 485.92058,498.85044 487.44396,507.15313 488.57271,515.29227 C 489.70145,523.4314 490.19063,531.64657 490.19063,539.8636 C 490.19063,540.3636 490.19063,540.3636 490.19063,540.3636"
       id="path3752"
       inkscape:connector-curvature="0"
       style="stroke:#ff0000" />
    <line
       x1="578.19061"
       y1="909.56793"
       x2="578.19061"
       y2="526.66254"
       id="line3760"
       style="stroke:#000000" />
    <path
       d="M 578.19062,909.56794 C 578.19062,910.06794 578.19062,910.06794 578.19062,910.06794 C 578.19062,918.44942 578.86633,926.82252 580.30151,935.08021 C 581.0191,939.20906 581.80234,943.33626 582.1199,947.51495 C 582.43746,951.69364 582.26434,955.97023 580.95402,959.95085 C 579.1842,965.3274 575.31368,969.95751 570.40096,972.76905 C 565.48825,975.58059 559.58607,976.57471 554.00009,975.6602 C 548.41411,974.7457 543.17339,971.95126 539.20322,967.91674 C 535.23305,963.88222 532.53574,958.63884 531.42723,953.0881 C 529.81643,945.02219 531.37624,936.70637 532.5326,928.56288 C 533.68897,920.41939 534.19063,912.1962 534.19063,903.97102 C 534.19063,903.47102 534.19063,903.47102 534.19063,903.47102"
       id="path3762"
       inkscape:connector-curvature="0"
       style="stroke:#ff0000" />
    <line
       x1="622.19061"
       y1="519.81195"
       x2="622.19061"
       y2="914.04181"
       id="line3770"
       style="stroke:#000000" />
    <path
       d="M 622.19063,519.81198 C 622.19063,519.31198 622.19063,519.31198 622.19063,519.31198 C 622.19063,510.92239 622.87495,502.54184 624.31631,494.277 C 625.03699,490.14458 625.8212,486.01296 626.12914,481.82948 C 626.43709,477.646 626.24265,473.36299 624.89302,469.39124 C 623.07371,464.03727 619.13222,459.4644 614.17525,456.7435 C 609.21828,454.0226 603.30122,453.14884 597.74007,454.1728 C 592.17892,455.19676 587.00115,458.08654 583.09833,462.17835 C 579.19551,466.27016 576.56703,471.5325 575.48823,477.08327 C 573.92057,485.14937 575.44395,493.45206 576.5727,501.5912 C 577.70144,509.73033 578.19062,517.9455 578.19062,526.16253 C 578.19062,526.66253 578.19062,526.66253 578.19062,526.66253"
       id="path3772"
       inkscape:connector-curvature="0"
       style="stroke:#ff0000" />
    <line
       x1="666.19061"
       y1="917.21332"
       x2="666.19061"
       y2="512.96143"
       id="line3780"
       style="stroke:#000000" />
    <path
       d="M 666.19063,917.21331 C 666.19063,917.71331 666.19063,917.71331 666.19063,917.71331 C 666.19063,926.05944 666.83028,934.39948 668.22908,942.62756 C 668.92848,946.7416 669.69986,950.85134 670.04571,955.01005 C 670.39156,959.16876 670.29088,963.41772 669.12594,967.42489 C 667.54127,972.87585 663.95204,977.70765 659.2297,980.85784 C 654.50737,984.00803 648.6933,985.46514 643.03703,984.98473 C 637.38077,984.50432 631.91595,982.10177 627.69035,978.3112 C 623.46475,974.52063 620.49265,969.37037 619.25532,963.83023 C 617.45471,955.76802 619.13623,947.39128 620.38915,939.226 C 621.64207,931.06073 622.19063,922.80264 622.19063,914.5418 C 622.19063,914.0418 622.19063,914.0418 622.19063,914.0418"
       id="path3782"
       inkscape:connector-curvature="0"
       style="stroke:#ff0000" />
    <line
       x1="710.19061"
       y1="506.1109"
       x2="710.19061"
       y2="919.32764"
       id="line3790"
       style="stroke:#000000" />
    <path
       d="M 710.19064,506.1109 C 710.19064,505.6109 710.19064,505.6109 710.19064,505.6109 C 710.19064,497.22131 710.87496,488.84076 712.31632,480.57592 C 713.037,476.4435 713.82121,472.31188 714.12915,468.1284 C 714.4371,463.94492 714.24266,459.66191 712.89303,455.69016 C 711.07372,450.33619 707.13223,445.76332 702.17526,443.04242 C 697.21829,440.32152 691.30123,439.44776 685.74008,440.47172 C 680.17893,441.49568 675.00116,444.38546 671.09834,448.47727 C 667.19552,452.56908 664.56704,457.83142 663.48824,463.38219 C 661.92058,471.44829 663.44396,479.75098 664.57271,487.89012 C 665.70145,496.02925 666.19063,504.24442 666.19063,512.46145 C 666.19063,512.96145 666.19063,512.96145 666.19063,512.96145"
       id="path3792"
       inkscape:connector-curvature="0"
       style="stroke:#ff0000" />
    <line
       x1="798.19067"
       y1="492.40982"
       x2="798.19067"
       y2="920.37006"
       id="line3800"
       style="stroke:#000000" />
    <path
       d="M 798.19065,492.40983 C 798.19065,491.90983 798.19065,491.90983 798.19065,491.90983 C 798.19065,483.52024 798.87497,475.13969 800.31633,466.87485 C 801.03701,462.74243 801.82122,458.61081 802.12916,454.42733 C 802.43711,450.24385 802.24267,445.96084 800.89304,441.98909 C 799.07373,436.63512 795.13224,432.06225 790.17527,429.34135 C 785.2183,426.62045 779.30124,425.74669 773.74009,426.77065 C 768.17894,427.79461 763.00117,430.68439 759.09835,434.7762 C 755.19553,438.86801 752.56705,444.13035 751.48825,449.68112 C 749.92059,457.74722 751.44397,466.04991 752.57272,474.18905 C 753.70146,482.32818 754.19064,490.54335 754.19064,498.76038 C 754.19064,499.26038 754.19064,499.26038 754.19064,499.26038"
       id="path3802"
       inkscape:connector-curvature="0"
       style="stroke:#ff0000" />
    <line
       x1="842.19067"
       y1="919.74542"
       x2="842.19067"
       y2="485.5593"
       id="line3810"
       style="stroke:#000000" />
    <path
       d="M 842.19065,919.74541 C 842.19065,920.24541 842.19065,920.24541 842.19065,920.24541 C 842.19065,928.54044 842.7777,936.83167 844.10001,945.02062 C 845.42232,953.20958 847.18268,961.65119 845.18813,969.70285 C 843.82175,975.21871 840.60337,980.26085 836.16678,983.81169 C 831.7302,987.36253 826.10065,989.39876 820.41886,989.49371 C 814.73707,989.58866 809.03836,987.73928 804.50349,984.31486 C 799.96861,980.89044 796.6282,975.91098 795.19317,970.41258 C 794.14364,966.39123 794.09186,962.16834 794.45021,958.02777 C 794.80855,953.88719 795.55897,949.79214 796.23452,945.69136 C 797.58562,937.48979 798.19065,929.18214 798.19065,920.87003 C 798.19065,920.37003 798.19065,920.37003 798.19065,920.37003"
       id="path3812"
       inkscape:connector-curvature="0"
       style="stroke:#ff0000" />
    <line
       x1="886.19067"
       y1="478.70874"
       x2="886.19067"
       y2="918.36481"
       id="line3820"
       style="stroke:#000000" />
    <path
       d="M 886.19066,478.70875 C 886.19066,478.20875 886.19066,478.20875 886.19066,478.20875 C 886.19066,469.81916 886.87498,461.43861 888.31634,453.17377 C 889.03702,449.04135 889.82123,444.90973 890.12917,440.72625 C 890.43712,436.54277 890.24268,432.25976 888.89305,428.28801 C 887.07374,422.93404 883.13225,418.36117 878.17528,415.64027 C 873.21831,412.91937 867.30125,412.04561 861.7401,413.06957 C 856.17895,414.09353 851.00118,416.98331 847.09836,421.07512 C 843.19554,425.16693 840.56706,430.42927 839.48826,435.98004 C 837.9206,444.04614 839.44398,452.34883 840.57273,460.48797 C 841.70147,468.6271 842.19065,476.84227 842.19065,485.0593 C 842.19065,485.5593 842.19065,485.5593 842.19065,485.5593"
       id="path3822"
       inkscape:connector-curvature="0"
       style="stroke:#ff0000" />
    <line
       x1="1150.1906"
       y1="472.16785"
       x2="1150.1906"
       y2="895.97272"
       id="line3830"
       style="stroke:#000000" />
    <path
       d="M 1150.1905,472.16786 C 1150.1905,471.66786 1150.1905,471.66786 1150.1905,471.66786 C 1150.1905,463.45383 1150.4275,455.24146 1150.8833,447.04008 C 1151.3391,438.83871 1151.8931,430.57421 1150.7591,422.43883 C 1150.0032,417.01556 1148.4549,411.66424 1145.7982,406.87621 C 1143.1415,402.08818 1139.3415,397.87649 1134.6149,395.11192 C 1129.8883,392.34735 1124.2142,391.09552 1118.8199,392.03624 C 1113.4256,392.97696 1108.3869,396.20368 1105.6219,400.93 C 1103.4983,404.55988 1102.7634,408.85992 1102.7532,413.06532 C 1102.743,417.27071 1103.4038,421.44605 1104.0711,425.59818 C 1105.4057,433.90243 1106.1905,442.29017 1106.1905,450.70098 C 1106.1905,451.20098 1106.1905,451.20098 1106.1905,451.20098"
       id="path3832"
       inkscape:connector-curvature="0"
       style="stroke:#ff0000" />
    <line
       x1="1282.1904"
       y1="870.24811"
       x2="1282.1904"
       y2="535.06848"
       id="line3840"
       style="stroke:#000000" />
    <path
       d="M 1282.1904,870.24809 C 1282.1904,870.74809 1282.1904,870.74809 1282.1904,870.74809 C 1282.1904,878.94857 1282.6505,887.14739 1283.7121,895.27887 C 1284.7737,903.41035 1286.2064,911.68715 1284.7288,919.7534 C 1283.7126,925.30053 1281.238,930.59913 1277.4907,934.81353 C 1273.7434,939.02793 1268.7165,942.12665 1263.2219,943.39632 C 1257.7272,944.666 1251.7881,944.06784 1246.7377,941.55854 C 1241.6872,939.04923 1237.5866,934.61489 1235.6521,929.31765 C 1234.2102,925.36961 1233.9632,921.07331 1234.2458,916.87973 C 1234.5283,912.68615 1235.3116,908.54476 1236.0369,904.40473 C 1237.4876,896.12467 1238.1904,887.72914 1238.1904,879.32296 C 1238.1904,878.82296 1238.1904,878.82296 1238.1904,878.82296"
       id="path3842"
       inkscape:connector-curvature="0"
       style="stroke:#ff0000" />
    <line
       x1="1370.1903"
       y1="853.09833"
       x2="1370.1903"
       y2="577.00226"
       id="line3850"
       style="stroke:#000000" />
    <path
       d="M 1370.1903,853.09834 C 1370.1903,853.59834 1370.1903,853.59834 1370.1903,853.59834 C 1370.1903,861.79882 1370.6504,869.99764 1371.712,878.12912 C 1372.7736,886.2606 1374.2063,894.5374 1372.7287,902.60365 C 1371.7125,908.15078 1369.2379,913.44938 1365.4906,917.66378 C 1361.7433,921.87818 1356.7164,924.9769 1351.2218,926.24657 C 1345.7271,927.51625 1339.788,926.91809 1334.7376,924.40879 C 1329.6872,921.89948 1325.5865,917.46514 1323.652,912.1679 C 1322.2101,908.21986 1321.9631,903.92356 1322.2457,899.72998 C 1322.5282,895.5364 1323.3115,891.39501 1324.0368,887.25498 C 1325.4875,878.97492 1326.1903,870.57939 1326.1903,862.17321 C 1326.1903,861.67321 1326.1903,861.67321 1326.1903,861.67321"
       id="path3852"
       inkscape:connector-curvature="0"
       style="stroke:#ff0000" />
    <polygon
       points="1443.2995,838.85054 1134.3103,899.0675 1051.2209,907.50189 971.72144,913.8224 896.84715,918.03046 826.57865,920.23527 760.89846,920.54708 699.79096,919.07753 643.2432,915.94014 591.24592,911.25148 543.79435,905.13238 501.15225,897.75566 94.19061,799.01447 486.86096,540.882 1095.5219,446.11713 1379.5944,581.48353 "
       id="polygon3860"
       style="stroke:#000000" />
    <path
       d="M 1095.5219,446.11713 C 1096.0159,446.04021 1096.0159,446.04021 1096.0159,446.04021 C 1104.3644,444.74041 1112.8256,444.42112 1121.2699,444.70247 C 1125.4921,444.84315 1129.7534,444.94586 1133.9068,444.17395 C 1138.0602,443.40205 1142.1821,441.63663 1144.9267,438.42509 C 1146.9971,436.00233 1148.1634,432.85159 1148.3078,429.66792 C 1148.4522,426.48425 1147.5957,423.28157 1146.0015,420.52198 C 1144.4074,417.76239 1142.0921,415.44292 1139.4097,413.722 C 1136.7274,412.00108 1133.6848,410.87034 1130.5532,410.2793 C 1124.2899,409.09723 1117.7824,410.06545 1111.6995,411.96925 C 1105.6166,413.87306 1099.8671,416.68789 1094.054,419.30205 C 1088.2409,421.91621 1082.2809,424.35643 1076.0003,425.44307 C 1069.7197,426.52971 1063.0356,426.18086 1057.2977,423.40539 C 1054.4288,422.01766 1051.8335,420.03237 1049.8535,417.53512 C 1047.8735,415.03787 1046.5225,412.02307 1046.1162,408.86214 C 1045.7099,405.70121 1046.2691,402.40203 1047.8174,399.6165 C 1049.3658,396.83097 1051.916,394.58966 1054.9251,393.53993 C 1056.9294,392.84073 1059.098,392.66906 1061.2084,392.89787 C 1063.3188,393.12668 1065.375,393.74752 1067.3205,394.59646 C 1071.2117,396.29435 1074.6546,398.85637 1078.0337,401.42665 C 1084.7917,406.5672 1091.9458,411.18106 1099.611,414.83367 C 1100.0623,415.04876 1100.0623,415.04876 1100.0623,415.04876"
       id="path3862"
       inkscape:connector-curvature="0"
       style="stroke:#ff0000" />
    <line
       x1="138.19061"
       y1="809.69019"
       x2="138.19061"
       y2="770.0899"
       id="line3870"
       style="stroke:#000000" />
    <path
       d="M 138.19061,809.6902 C 138.19061,810.1902 138.19061,810.1902 138.19061,810.1902 C 138.19061,826.69939 136.41479,843.27679 138.19061,859.6902 C 140.74222,883.27395 153.36592,905.3973 171.67798,920.47618 C 189.99004,935.55506 213.68787,943.65188 237.40544,944.07742 C 261.12301,944.50296 284.76147,937.43533 304.98737,925.04109 C 325.21327,912.64686 342.06321,895.05239 354.59396,874.91078 C 379.65545,834.62756 387.07261,785.35456 384.0958,738.00528 C 381.119,690.656 368.43117,644.52421 355.81206,598.79048 C 343.19291,553.05675 330.50505,506.92497 327.52821,459.57569 C 324.55137,412.2264 331.96849,362.95339 357.02995,322.67014 C 369.56068,302.52852 386.41062,284.93403 406.63651,272.53978 C 426.8624,260.14553 450.50086,253.07788 474.21843,253.5034 C 497.936,253.92892 521.63384,262.02572 539.94592,277.10459 C 558.25799,292.18345 570.88172,314.3068 573.43334,337.89055 C 575.20916,354.30396 573.43334,370.88136 573.43334,387.39055 C 573.43334,387.89055 573.43334,387.89055 573.43334,387.89055"
       id="path3872"
       inkscape:connector-curvature="0"
       style="stroke:#ff0000" />
    <line
       x1="182.19061"
       y1="741.16528"
       x2="182.19061"
       y2="820.36591"
       id="line3880"
       style="stroke:#000000" />
    <path
       d="M 182.19061,741.16529 C 182.19061,740.66529 182.19061,740.66529 182.19061,740.66529 C 182.19061,732.28077 182.99846,723.92276 184.29704,715.63941 C 184.94633,711.49773 185.57003,707.32626 185.47393,703.1351 C 185.37784,698.94394 184.49863,694.66501 182.19061,691.16529 C 180.60031,688.75387 178.36338,686.78478 175.80503,685.44358 C 173.24668,684.10238 170.37391,683.38465 167.48699,683.28636 C 161.71314,683.08978 155.99837,685.38937 151.56224,689.09027 C 147.12611,692.79117 143.91199,697.81618 141.81956,703.20113 C 139.72712,708.58608 138.71072,714.33614 138.19062,720.08988 C 136.70462,736.52929 138.19062,753.08345 138.19062,769.58988 C 138.19062,770.08988 138.19062,770.08988 138.19062,770.08988"
       id="path3882"
       inkscape:connector-curvature="0"
       style="stroke:#ff0000" />
    <line
       x1="226.19061"
       y1="831.04169"
       x2="226.19061"
       y2="712.24072"
       id="line3890"
       style="stroke:#000000" />
    <path
       d="M 226.19061,831.04166 C 226.19061,831.54166 226.19061,831.54166 226.19061,831.54166 C 226.19061,839.96374 226.91389,848.3731 228.36689,856.6689 C 229.09339,860.8168 229.8697,864.96911 230.11528,869.17298 C 230.36086,873.37685 230.04317,877.68609 228.48571,881.59852 C 226.40812,886.81755 222.12099,891.07006 216.97192,893.31544 C 211.82285,895.56082 205.87871,895.82501 200.48195,894.26629 C 195.08519,892.70757 190.2529,889.37224 186.69641,885.02413 C 183.13992,880.67602 180.84526,875.34554 179.8955,869.80906 C 178.51159,861.74184 179.8212,853.48858 180.79405,845.36153 C 181.7669,837.23449 182.19061,829.05098 182.19061,820.86592 C 182.19061,820.36592 182.19061,820.36592 182.19061,820.36592"
       id="path3892"
       inkscape:connector-curvature="0"
       style="stroke:#ff0000" />
    <line
       x1="270.19061"
       y1="683.3161"
       x2="270.19061"
       y2="841.71741"
       id="line3900"
       style="stroke:#000000" />
    <path
       d="M 270.1906,683.31612 C 270.1906,682.81612 270.1906,682.81612 270.1906,682.81612 C 270.1906,674.4316 270.99845,666.07359 272.29703,657.79024 C 272.94632,653.64856 273.57002,649.47709 273.47392,645.28593 C 273.37783,641.09477 272.49862,636.81584 270.1906,633.31612 C 268.6003,630.9047 266.36337,628.93561 263.80502,627.59441 C 261.24667,626.25321 258.3739,625.53548 255.48698,625.43719 C 249.71313,625.24061 243.99836,627.5402 239.56223,631.2411 C 235.1261,634.942 231.91198,639.96701 229.81955,645.35196 C 227.72711,650.73691 226.71071,656.48697 226.19061,662.24071 C 224.7046,678.68012 226.19061,695.23428 226.19061,711.74071 C 226.19061,712.24071 226.19061,712.24071 226.19061,712.24071"
       id="path3902"
       inkscape:connector-curvature="0"
       style="stroke:#ff0000" />
    <line
       x1="314.19061"
       y1="852.39313"
       x2="314.19061"
       y2="654.39154"
       id="line3910"
       style="stroke:#000000" />
    <path
       d="M 314.19061,852.39312 C 314.19061,852.89312 314.19061,852.89312 314.19061,852.89312 C 314.19061,861.3152 314.91389,869.72456 316.36689,878.02036 C 317.09339,882.16826 317.8697,886.32057 318.11528,890.52444 C 318.36086,894.72831 318.04317,899.03755 316.48571,902.94998 C 314.40812,908.16901 310.12099,912.42152 304.97192,914.6669 C 299.82285,916.91228 293.87871,917.17647 288.48195,915.61775 C 283.08519,914.05903 278.2529,910.7237 274.69641,906.3756 C 271.13992,902.02749 268.84526,896.69701 267.8955,891.16053 C 266.51159,883.09331 267.8212,874.84005 268.79405,866.713 C 269.7669,858.58596 270.19061,850.40245 270.19061,842.21739 C 270.19061,841.71739 270.19061,841.71739 270.19061,841.71739"
       id="path3912"
       inkscape:connector-curvature="0"
       style="stroke:#ff0000" />
    <line
       x1="358.19061"
       y1="625.46692"
       x2="358.19061"
       y2="863.06885"
       id="line3920"
       style="stroke:#000000" />
    <path
       d="M 358.19062,625.46693 C 358.19062,624.96693 358.19062,624.96693 358.19062,624.96693 C 358.19062,616.58241 358.99847,608.2244 360.29705,599.94105 C 360.94634,595.79937 361.57004,591.6279 361.47394,587.43674 C 361.37785,583.24558 360.49864,578.96665 358.19062,575.46693 C 356.60032,573.05551 354.36339,571.08642 351.80504,569.74522 C 349.24668,568.40402 346.37392,567.68629 343.48699,567.588 C 337.71314,567.39142 331.99837,569.69101 327.56224,573.39191 C 323.12611,577.09282 319.91199,582.11782 317.81955,587.50277 C 315.72711,592.88772 314.71071,598.63779 314.19061,604.39152 C 312.70461,620.83093 314.19061,637.38509 314.19061,653.89152 C 314.19061,654.39152 314.19061,654.39152 314.19061,654.39152"
       id="path3922"
       inkscape:connector-curvature="0"
       style="stroke:#ff0000" />
    <line
       x1="402.19061"
       y1="873.74457"
       x2="402.19061"
       y2="596.54236"
       id="line3930"
       style="stroke:#000000" />
    <path
       d="M 402.19062,873.74458 C 402.19062,874.24458 402.19062,874.24458 402.19062,874.24458 C 402.19062,882.66666 402.9139,891.07602 404.3669,899.37182 C 405.0934,903.51972 405.86971,907.67203 406.11529,911.8759 C 406.36087,916.07977 406.04318,920.38901 404.48572,924.30144 C 402.40813,929.52047 398.121,933.77298 392.97193,936.01836 C 387.82286,938.26374 381.87872,938.52793 376.48196,936.96921 C 371.0852,935.41049 366.25291,932.07516 362.69642,927.72706 C 359.13993,923.37895 356.84527,918.04847 355.89551,912.51199 C 354.5116,904.44477 355.82121,896.19151 356.79406,888.06446 C 357.76691,879.93742 358.19062,871.75391 358.19062,863.56885 C 358.19062,863.06885 358.19062,863.06885 358.19062,863.06885"
       id="path3932"
       inkscape:connector-curvature="0"
       style="stroke:#ff0000" />
    <line
       x1="446.19064"
       y1="567.61774"
       x2="446.19064"
       y2="884.42029"
       id="line3940"
       style="stroke:#000000" />
    <path
       d="M 446.19063,567.61775 C 446.19063,567.11775 446.19063,567.11775 446.19063,567.11775 C 446.19063,558.73323 446.99848,550.37522 448.29706,542.09187 C 448.94635,537.95019 449.57005,533.77872 449.47395,529.58756 C 449.37786,525.3964 448.49865,521.11747 446.19063,517.61775 C 444.60033,515.20633 442.3634,513.23724 439.80505,511.89604 C 437.24669,510.55484 434.37393,509.83711 431.487,509.73882 C 425.71315,509.54224 419.99838,511.84183 415.56225,515.54273 C 411.12612,519.24364 407.912,524.26864 405.81956,529.65359 C 403.72712,535.03854 402.71072,540.78861 402.19062,546.54234 C 400.70462,562.98175 402.19062,579.53591 402.19062,596.04234 C 402.19062,596.54234 402.19062,596.54234 402.19062,596.54234"
       id="path3942"
       inkscape:connector-curvature="0"
       style="stroke:#ff0000" />
    <line
       x1="490.19064"
       y1="895.09607"
       x2="490.19064"
       y2="540.36359"
       id="line3950"
       style="stroke:#000000" />
    <path
       d="M 490.19063,895.09604 C 490.19063,895.59604 490.19063,895.59604 490.19063,895.59604 C 490.19063,904.01812 490.91391,912.42748 492.36691,920.72328 C 493.09341,924.87118 493.86972,929.02349 494.1153,933.22736 C 494.36088,937.43123 494.04319,941.74047 492.48573,945.6529 C 490.40814,950.87193 486.12101,955.12444 480.97194,957.36982 C 475.82287,959.6152 469.87873,959.87939 464.48197,958.32067 C 459.08521,956.76195 454.25292,953.42662 450.69643,949.07852 C 447.13994,944.73041 444.84528,939.39993 443.89552,933.86345 C 442.51161,925.79623 443.82122,917.54297 444.79407,909.41592 C 445.76692,901.28888 446.19063,893.10537 446.19063,884.92031 C 446.19063,884.42031 446.19063,884.42031 446.19063,884.42031"
       id="path3952"
       inkscape:connector-curvature="0"
       style="stroke:#ff0000" />
    <line
       x1="754.19061"
       y1="920.38574"
       x2="754.19061"
       y2="499.26038"
       id="line3960"
       style="stroke:#000000" />
    <path
       d="M 754.19064,920.38577 C 754.19064,920.88577 754.19064,920.88577 754.19064,920.88577 C 754.19064,929.20378 754.80176,937.51709 756.16203,945.72312 C 756.84216,949.82614 757.59685,953.92361 757.95388,958.06726 C 758.31091,962.21091 758.25178,966.43829 757.18342,970.45774 C 755.7238,975.9492 752.34097,980.90541 747.77291,984.28467 C 743.20484,987.66393 737.48404,989.44753 731.80418,989.28673 C 726.12432,989.12592 720.52062,987.02588 716.11901,983.43249 C 711.7174,979.83911 708.54124,974.77671 707.19788,969.25566 C 705.23819,961.20153 706.98698,952.77167 708.29848,944.58696 C 709.60998,936.40226 710.19065,928.11674 710.19065,919.82763 C 710.19065,919.32763 710.19065,919.32763 710.19065,919.32763"
       id="path3962"
       inkscape:connector-curvature="0"
       style="stroke:#ff0000" />
    <line
       x1="930.19067"
       y1="916.15649"
       x2="930.19067"
       y2="471.85822"
       id="line3970"
       style="stroke:#000000" />
    <path
       d="M 930.19067,916.1565 C 930.19067,916.6565 930.19067,916.6565 930.19067,916.6565 C 930.19067,924.93007 930.75406,933.20053 932.03488,941.37435 C 933.3157,949.54818 935.0301,957.94824 933.15924,966.00751 C 931.87489,971.5402 928.81022,976.65264 924.50333,980.35547 C 920.19644,984.0583 914.66574,986.32483 908.99583,986.65998 C 903.32592,986.99512 897.55133,985.38812 892.89769,982.13175 C 888.24405,978.87538 884.74874,973.98462 883.22209,968.51382 C 882.10213,964.50041 882.02154,960.26119 882.37346,956.10933 C 882.72539,951.95747 883.49,947.8534 884.18126,943.74439 C 885.56377,935.52638 886.19066,927.19832 886.19066,918.86483 C 886.19066,918.36483 886.19066,918.36483 886.19066,918.36483"
       id="path3972"
       inkscape:connector-curvature="0"
       style="stroke:#ff0000" />
    <line
       x1="974.19067"
       y1="465.00766"
       x2="974.19067"
       y2="913.6261"
       id="line3980"
       style="stroke:#000000" />
    <path
       d="M 974.19067,465.00767 C 974.19067,464.50767 974.19067,464.50767 974.19067,464.50767 C 974.19067,456.11808 974.87499,447.73753 976.31635,439.47269 C 977.03703,435.34027 977.82124,431.20865 978.12918,427.02517 C 978.43713,422.84169 978.24269,418.55868 976.89306,414.58693 C 975.07375,409.23296 971.13226,404.66009 966.17529,401.93919 C 961.21832,399.21829 955.30126,398.34453 949.74011,399.36849 C 944.17896,400.39245 939.00119,403.28223 935.09837,407.37404 C 931.19555,411.46585 928.56707,416.72819 927.48827,422.27896 C 925.92061,430.34506 927.44399,438.64775 928.57274,446.78689 C 929.70148,454.92602 930.19066,463.14119 930.19066,471.35822 C 930.19066,471.85822 930.19066,471.85822 930.19066,471.85822"
       id="path3982"
       inkscape:connector-curvature="0"
       style="stroke:#ff0000" />
    <line
       x1="1018.1906"
       y1="910.12793"
       x2="1018.1906"
       y2="458.15714"
       id="line3990"
       style="stroke:#000000" />
    <path
       d="M 1018.1906,910.12792 C 1018.1906,910.62792 1018.1906,910.62792 1018.1906,910.62792 C 1018.1906,918.88453 1018.7341,927.13849 1019.9771,935.301 C 1021.2201,943.46351 1022.8897,951.83269 1021.112,959.89566 C 1019.8901,965.43786 1016.9492,970.60014 1012.7516,974.41964 C 1008.5539,978.23914 1003.1124,980.68709 997.4618,981.21655 C 991.81125,981.74602 985.98496,980.34009 981.23997,977.22656 C 976.49498,974.11302 972.874,969.30206 971.26929,963.85836 C 970.08875,959.85357 969.98083,955.60136 970.32425,951.44035 C 970.66767,947.27934 971.44102,943.16764 972.14294,939.05191 C 973.54679,930.82044 974.19067,922.47643 974.19067,914.12611 C 974.19067,913.62611 974.19067,913.62611 974.19067,913.62611"
       id="path3992"
       inkscape:connector-curvature="0"
       style="stroke:#ff0000" />
    <line
       x1="1062.1906"
       y1="451.30661"
       x2="1062.1906"
       y2="906.38837"
       id="line4000"
       style="stroke:#000000" />
    <path
       d="M 1062.1906,451.30661 C 1062.1906,450.80661 1062.1906,450.80661 1062.1906,450.80661 C 1062.1906,442.41702 1062.8749,434.03647 1064.3163,425.77163 C 1065.037,421.63921 1065.8212,417.50759 1066.1291,413.32411 C 1066.4371,409.14063 1066.2426,404.85762 1064.893,400.88587 C 1063.0737,395.5319 1059.1322,390.95902 1054.1752,388.23812 C 1049.2183,385.51722 1043.3012,384.64346 1037.7401,385.66742 C 1032.1789,386.69138 1027.0011,389.58116 1023.0983,393.67297 C 1019.1955,397.76478 1016.567,403.02713 1015.4882,408.5779 C 1013.9206,416.644 1015.444,424.94669 1016.5727,433.08583 C 1017.7015,441.22496 1018.1906,449.44012 1018.1906,457.65715 C 1018.1906,458.15715 1018.1906,458.15715 1018.1906,458.15715"
       id="path4002"
       inkscape:connector-curvature="0"
       style="stroke:#ff0000" />
    <line
       x1="1106.1906"
       y1="901.92194"
       x2="1106.1906"
       y2="451.20099"
       id="line4010"
       style="stroke:#000000" />
    <path
       d="M 1106.1906,901.92193 C 1106.1906,902.42193 1106.1906,902.42193 1106.1906,902.42193 C 1106.1906,910.66632 1106.7187,918.90834 1107.931,927.06311 C 1109.1433,935.21787 1110.775,943.56574 1109.0628,951.63038 C 1107.8851,957.17736 1105.036,962.3728 1100.922,966.27557 C 1096.8081,970.17834 1091.4383,972.75848 1085.8079,973.4326 C 1080.1775,974.10672 1074.3184,972.85341 1069.5083,969.85032 C 1064.6982,966.84722 1060.9835,962.10057 1059.3184,956.67993 C 1058.0906,952.68303 1057.96,948.4214 1058.2951,944.25363 C 1058.6302,940.08586 1059.4085,935.96838 1060.1171,931.84766 C 1061.5345,923.60621 1062.1906,915.25082 1062.1906,906.88838 C 1062.1906,906.38838 1062.1906,906.38838 1062.1906,906.38838"
       id="path4012"
       inkscape:connector-curvature="0"
       style="stroke:#ff0000" />
    <line
       x1="1194.1904"
       y1="887.39783"
       x2="1194.1904"
       y2="493.13474"
       id="line4020"
       style="stroke:#000000" />
    <path
       d="M 1194.1905,887.39783 C 1194.1905,887.89783 1194.1905,887.89783 1194.1905,887.89783 C 1194.1905,896.09831 1194.6505,904.29713 1195.7121,912.42861 C 1196.7737,920.56009 1198.2065,928.83689 1196.7289,936.90314 C 1195.7127,942.45027 1193.2381,947.74887 1189.4908,951.96327 C 1185.7435,956.17767 1180.7166,959.27639 1175.222,960.54606 C 1169.7273,961.81574 1163.7881,961.21758 1158.7377,958.70828 C 1153.6873,956.19897 1149.5867,951.76463 1147.6521,946.46739 C 1146.2103,942.51935 1145.9633,938.22305 1146.2458,934.02947 C 1146.5284,929.83589 1147.3117,925.6945 1148.037,921.55447 C 1149.4876,913.27441 1150.1905,904.87888 1150.1905,896.4727 C 1150.1905,895.9727 1150.1905,895.9727 1150.1905,895.9727"
       id="path4022"
       inkscape:connector-curvature="0"
       style="stroke:#ff0000" />
    <line
       x1="1238.1904"
       y1="514.10162"
       x2="1238.1904"
       y2="878.82294"
       id="line4030"
       style="stroke:#000000" />
    <path
       d="M 1238.1904,514.10163 C 1238.1904,513.60163 1238.1904,513.60163 1238.1904,513.60163 C 1238.1904,505.3876 1238.4274,497.17523 1238.8832,488.97385 C 1239.339,480.77248 1239.893,472.50798 1238.7591,464.3726 C 1238.0031,458.94933 1236.4548,453.59801 1233.7981,448.80998 C 1231.1414,444.02195 1227.3414,439.81026 1222.6148,437.04569 C 1217.8883,434.28112 1212.2141,433.02929 1206.8198,433.97001 C 1201.4256,434.91073 1196.3868,438.13745 1193.6218,442.86377 C 1191.4983,446.49365 1190.7633,450.79369 1190.7531,454.99909 C 1190.7429,459.20448 1191.4037,463.37982 1192.071,467.53195 C 1193.4056,475.8362 1194.1905,484.22394 1194.1905,492.63475 C 1194.1905,493.13475 1194.1905,493.13475 1194.1905,493.13475"
       id="path4032"
       inkscape:connector-curvature="0"
       style="stroke:#ff0000" />
    <line
       x1="1326.1903"
       y1="556.0354"
       x2="1326.1903"
       y2="861.67322"
       id="line4040"
       style="stroke:#000000" />
    <path
       d="M 1326.1903,556.03539 C 1326.1903,555.53539 1326.1903,555.53539 1326.1903,555.53539 C 1326.1903,547.32136 1326.4273,539.10899 1326.8831,530.90761 C 1327.3389,522.70624 1327.893,514.44174 1326.759,506.30636 C 1326.0031,500.88309 1324.4547,495.53177 1321.798,490.74374 C 1319.1413,485.95571 1315.3413,481.74402 1310.6147,478.97945 C 1305.8882,476.21488 1300.2141,474.96305 1294.8198,475.90377 C 1289.4255,476.84449 1284.3867,480.07121 1281.6217,484.79753 C 1279.4982,488.42741 1278.7632,492.72745 1278.753,496.93285 C 1278.7428,501.13824 1279.4036,505.31358 1280.0709,509.46571 C 1281.4055,517.76996 1282.1904,526.1577 1282.1904,534.56851 C 1282.1904,535.06851 1282.1904,535.06851 1282.1904,535.06851"
       id="path4042"
       inkscape:connector-curvature="0"
       style="stroke:#ff0000" />
    <line
       x1="1414.1903"
       y1="721.24982"
       x2="1414.1903"
       y2="844.52344"
       id="line4050"
       style="stroke:#000000" />
    <path
       d="M 1414.1903,721.24983 C 1414.1903,720.74983 1414.1903,720.74983 1414.1903,720.74983 C 1414.1903,704.24214 1412.5655,687.67737 1414.1903,671.24983 C 1416.0898,652.04471 1423.7983,633.97519 1430.9189,616.03802 C 1438.0395,598.10085 1444.7514,579.45004 1444.4928,560.15294 C 1444.3635,550.50439 1442.434,540.80041 1438.1456,532.15627 C 1433.8573,523.51213 1427.1318,515.97051 1418.6429,511.38249 C 1410.154,506.79447 1399.8804,505.31874 1390.6255,508.04957 C 1385.998,509.41498 1381.6644,511.8039 1378.1048,515.06072 C 1374.5452,518.31755 1371.771,522.44386 1370.1903,527.00227 C 1367.4729,534.83858 1368.24,543.40159 1368.9851,551.66215 C 1369.7301,559.92271 1370.1903,568.20817 1370.1903,576.50227 C 1370.1903,577.00227 1370.1903,577.00227 1370.1903,577.00227"
       id="path4052"
       inkscape:connector-curvature="0"
       style="stroke:#ff0000" />
    <polygon
       points="388.83332,533.51978 69.20242,743.63779 132.08063,507.32052 "
       id="polygon4060"
       style="stroke:#000000" />
    <path
       d="M 132.08063,507.32052 C 132.20919,506.83733 132.20919,506.83733 132.20919,506.83733 C 134.33702,498.84024 136.12691,490.75836 137.70383,482.63467 C 139.28075,474.51097 140.87534,466.21162 144.93708,459.00167 C 148.56597,452.56008 154.1493,447.27937 160.65816,443.77257 C 167.16702,440.26576 174.5738,438.51308 181.96701,438.45533 C 196.75343,438.33985 211.09626,444.98794 222.08212,454.88553 C 233.06798,464.78312 240.94127,477.73311 246.76928,491.32303 C 252.59728,504.91295 256.50453,519.23076 260.6136,533.43523 C 264.72267,547.63971 269.08336,561.86265 275.7388,575.06707 C 282.39423,588.27149 291.50101,600.5157 303.62231,608.9848 C 315.74361,617.45389 331.10504,621.85041 345.61727,619.01371 C 352.87338,617.59536 359.80754,614.38912 365.41309,609.56826 C 371.01864,604.74739 375.25841,598.29894 377.20245,591.16566 C 379.37908,583.17893 378.75713,574.72955 378.16301,566.47288 C 377.56889,558.21621 377.20245,549.94367 377.20245,541.66566 C 377.20245,541.16566 377.20245,541.16566 377.20245,541.16566"
       id="path4062"
       inkscape:connector-curvature="0"
       style="stroke:#ff0000" />
    <line
       x1="113.20242"
       y1="578.27112"
       x2="113.20242"
       y2="714.7132"
       id="line4070"
       style="stroke:#000000" />
    <path
       d="M 113.20242,578.27112 C 113.20242,577.77112 113.20242,577.77112 113.20242,577.77112 C 113.20242,561.26896 112.34089,544.75077 113.20242,528.27112 C 115.21333,489.80582 130.01778,452.33253 153.68758,421.94564 C 177.35739,391.55875 209.66921,368.22714 245.42855,353.91306 C 316.94722,325.28491 399.93604,333.56921 469.89556,365.82069 C 539.85507,398.07217 597.76253,452.47243 644.45691,513.74336 C 691.15129,575.01429 727.5329,643.37745 763.69635,711.39727 C 799.85979,779.41709 836.2414,847.78026 882.93577,909.05118 C 929.63014,970.32211 987.53759,1024.7224 1057.4971,1056.9739 C 1127.4566,1089.2253 1210.4454,1097.5097 1281.9641,1068.8815 C 1317.7234,1054.5674 1350.0353,1031.2358 1373.7051,1000.8489 C 1397.3749,970.46204 1412.1793,932.98876 1414.1902,894.52346 C 1415.0518,878.04381 1414.1902,861.52562 1414.1902,845.02346 C 1414.1902,844.52346 1414.1902,844.52346 1414.1902,844.52346"
       id="path4072"
       inkscape:connector-curvature="0"
       style="stroke:#ff0000" />
    <line
       x1="157.20242"
       y1="685.78864"
       x2="157.20242"
       y2="509.88397"
       id="line4080"
       style="stroke:#000000" />
    <path
       d="M 157.20242,685.78861 C 157.20242,686.28861 157.20242,686.28861 157.20242,686.28861 C 157.20242,702.79504 158.68842,719.3492 157.20242,735.78861 C 156.68232,741.54235 155.66592,747.29241 153.57348,752.67736 C 151.48104,758.06231 148.26693,763.08731 143.8308,766.78822 C 139.39467,770.48912 133.6799,772.78871 127.90605,772.59213 C 125.01913,772.49384 122.14636,771.77611 119.58801,770.43491 C 117.02966,769.09371 114.79273,767.12461 113.20243,764.7132 C 110.8944,761.21348 110.0152,756.93455 109.91911,752.74339 C 109.82302,748.55223 110.44672,744.38076 111.096,740.23908 C 112.39458,731.95573 113.20243,723.59772 113.20243,715.2132 C 113.20243,714.7132 113.20243,714.7132 113.20243,714.7132"
       id="path4082"
       inkscape:connector-curvature="0"
       style="stroke:#ff0000" />
    <line
       x1="201.20242"
       y1="514.37378"
       x2="201.20242"
       y2="656.86401"
       id="line4090"
       style="stroke:#000000" />
    <path
       d="M 201.20242,514.37376 C 201.20242,513.87376 201.20242,513.87376 201.20242,513.87376 C 201.20242,505.62966 201.73017,497.38792 202.94173,489.23333 C 204.15329,481.07874 205.78394,472.73137 204.07327,464.6667 C 202.89663,459.11963 200.04971,453.92344 195.93782,450.01871 C 191.82593,446.11398 186.45787,443.5307 180.828,442.8531 C 175.19814,442.1755 169.3384,443.42511 164.52674,446.42551 C 159.71508,449.42591 155.99814,454.17096 154.33156,459.59101 C 153.10264,463.5877 152.9714,467.84956 153.30631,472.01749 C 153.64122,476.18542 154.41955,480.30304 155.12837,484.42388 C 156.54601,492.66557 157.20242,501.02123 157.20242,509.38395 C 157.20242,509.88395 157.20242,509.88395 157.20242,509.88395"
       id="path4092"
       inkscape:connector-curvature="0"
       style="stroke:#ff0000" />
    <line
       x1="245.20241"
       y1="627.93945"
       x2="245.20241"
       y2="518.86359"
       id="line4100"
       style="stroke:#000000" />
    <path
       d="M 245.20241,627.93943 C 245.20241,628.43943 245.20241,628.43943 245.20241,628.43943 C 245.20241,644.94586 246.68842,661.50002 245.20241,677.93943 C 244.68231,683.69317 243.66591,689.44323 241.57347,694.82818 C 239.48103,700.21313 236.26692,705.23813 231.83079,708.93904 C 227.39466,712.63994 221.67989,714.93953 215.90604,714.74295 C 213.01912,714.64466 210.14635,713.92693 207.588,712.58573 C 205.02965,711.24453 202.79272,709.27544 201.20242,706.86402 C 198.89439,703.3643 198.01519,699.08537 197.9191,694.89421 C 197.82301,690.70305 198.44671,686.53158 199.09599,682.3899 C 200.39457,674.10655 201.20242,665.74854 201.20242,657.36402 C 201.20242,656.86402 201.20242,656.86402 201.20242,656.86402"
       id="path4102"
       inkscape:connector-curvature="0"
       style="stroke:#ff0000" />
    <line
       x1="289.20242"
       y1="523.35333"
       x2="289.20242"
       y2="599.01483"
       id="line4110"
       style="stroke:#000000" />
    <path
       d="M 289.20242,523.35336 C 289.20242,522.85336 289.20242,522.85336 289.20242,522.85336 C 289.20242,514.60926 289.73017,506.36752 290.94173,498.21293 C 292.15329,490.05834 293.78394,481.71097 292.07327,473.6463 C 290.89663,468.09923 288.04971,462.90304 283.93782,458.99831 C 279.82593,455.09358 274.45787,452.5103 268.82801,451.8327 C 263.19815,451.1551 257.33841,452.40471 252.52675,455.40511 C 247.71509,458.40551 243.99815,463.15056 242.33157,468.57061 C 241.10265,472.5673 240.97141,476.82916 241.30631,480.99709 C 241.64122,485.16502 242.41955,489.28264 243.12837,493.40348 C 244.54601,501.64517 245.20242,510.00083 245.20242,518.36355 C 245.20242,518.86355 245.20242,518.86355 245.20242,518.86355"
       id="path4112"
       inkscape:connector-curvature="0"
       style="stroke:#ff0000" />
    <line
       x1="333.20242"
       y1="570.09027"
       x2="333.20242"
       y2="527.84314"
       id="line4120"
       style="stroke:#000000" />
    <path
       d="M 333.20243,570.09025 C 333.20243,570.59025 333.20243,570.59025 333.20243,570.59025 C 333.20243,587.09668 334.68843,603.65084 333.20243,620.09025 C 332.68233,625.84399 331.66593,631.59405 329.57349,636.979 C 327.48105,642.36395 324.26694,647.38896 319.8308,651.08986 C 315.39467,654.79077 309.6799,657.09035 303.90605,656.89377 C 301.01912,656.79548 298.14636,656.07775 295.588,654.73655 C 293.02964,653.39535 290.79272,651.42625 289.20242,649.01484 C 286.89439,645.51512 286.01519,641.23619 285.9191,637.04503 C 285.82301,632.85387 286.44671,628.6824 287.09599,624.54072 C 288.39457,616.25737 289.20242,607.89936 289.20242,599.51484 C 289.20242,599.01484 289.20242,599.01484 289.20242,599.01484"
       id="path4122"
       inkscape:connector-curvature="0"
       style="stroke:#ff0000" />
    <line
       x1="377.20242"
       y1="532.33295"
       x2="377.20242"
       y2="541.16565"
       id="line4130"
       style="stroke:#000000" />
    <path
       d="M 377.20243,532.33295 C 377.20243,531.83295 377.20243,531.83295 377.20243,531.83295 C 377.20243,523.58885 377.73018,515.34711 378.94174,507.19252 C 380.1533,499.03793 381.78395,490.69056 380.07328,482.62589 C 378.89664,477.07882 376.04972,471.88263 371.93783,467.9779 C 367.82594,464.07317 362.45788,461.48989 356.82802,460.81229 C 351.19816,460.13469 345.33842,461.3843 340.52676,464.3847 C 335.7151,467.3851 331.99816,472.13015 330.33158,477.5502 C 329.10266,481.54689 328.97142,485.80875 329.30632,489.97668 C 329.64123,494.14461 330.41956,498.26223 331.12838,502.38307 C 332.54602,510.62476 333.20243,518.98042 333.20243,527.34314 C 333.20243,527.84314 333.20243,527.84314 333.20243,527.84314"
       id="path4132"
       inkscape:connector-curvature="0"
       style="stroke:#ff0000" />
  </g>
</svg>
