<svg x="0" y="0" width="3436.65439" height="2396.99424" version="1.1" xmlns="http://www.w3.org/2000/svg" xmlns:xlink="http://www.w3.org/1999/xlink"><g fill="none" stroke="none" stroke-width="2" stroke-linecap="butt" stroke-linejoin="miter" stroke-miterlimit="10" stroke-dasharray="" stroke-dashoffset="0" font-family="sans-serif" font-weight="normal" font-size="12" text-anchor="start" mix-blend-mode="normal"><polygon points="476.28037,511.33933 718.78703,39.33135 995.00752,20 1100.06233,415.04877 1405.30682,560.50404 1480,862.2626 1138.70358,928.77571 1053.92487,937.38157 973.75221,943.75561 910.01206,947.33791" stroke="#000000"></polygon><polygon points="1117.14544,456.42121 1379.59442,581.48353 1443.29952,838.85054 1134.31029,899.0675 1051.22088,907.50189 971.72144,913.8224 953.46711,914.84833" fill="#ffffff" stroke="#008000"></polygon><polygon points="512.93319,505.64629 737.7456,68.07791 972.38331,51.65674 1068.67297,413.74502 897.74697,892.47129" fill="#ffffff" stroke="#008000"></polygon><path d="M910.01206,947.33791c-0.49921,0.02806 -0.49921,0.02806 -0.49921,0.02806c-5.00756,0.28143 -10.11173,0.43273 -14.94515,-0.90626c-4.83342,-1.33899 -9.26528,-4.16975 -12.37122,-8.10777c-3.10594,-3.93803 -4.83981,-8.83903 -5.48251,-13.81315c-0.6427,-4.97412 -0.26693,-10.01687 0.12169,-15.01725c16.0012,-205.88696 30.84135,-416.77304 114.35342,-605.64128c2.80949,-6.35384 5.80445,-12.78919 10.59681,-17.81888c2.39618,-2.51485 5.22126,-4.64478 8.38517,-6.0786c3.1639,-1.43383 6.66249,-2.15487 10.13133,-1.97241c3.46884,0.18246 6.88665,1.27545 9.81173,3.14896c2.92508,1.87351 5.33831,4.51113 7.0509,7.53325c1.71258,3.02212 2.72647,6.40682 3.23819,9.84256c0.51172,3.43574 0.53,6.92348 0.53,10.39711c0,0.5 0,0.5 0,0.5" stroke="#ff0000"></path><g stroke="#ff0000"><line x1="910.01206" y1="947.33791" x2="1040.93321" y2="309.43224"></line><polyline points="1047.80433,316.69776 1040.93321,309.43224 1031.7558,313.40402"></polyline></g><polygon points="1117.14544,456.42121 1379.59442,581.48353 1443.29952,838.85054 1134.31029,899.0675 1051.22088,907.50189 971.72144,913.8224 953.46711,914.84833" stroke="#000000"></polygon><path d="M1117.14544,456.42121c-0.45137,-0.21509 -0.45137,-0.21509 -0.45137,-0.21509c-7.4564,-3.55313 -14.81844,-7.29986 -22.11773,-11.16548c-7.29929,-3.86562 -14.64898,-7.78103 -22.56814,-10.12825c-13.16529,-3.90217 -27.59602,-3.07187 -40.42633,1.82046c-12.83031,4.89233 -24.03701,13.75102 -32.20021,24.79249c-8.1632,11.04147 -13.31583,24.20691 -15.3587,37.78552c-2.04287,13.57861 -1.01825,27.55402 2.45086,40.84c6.9382,26.57196 23.4333,49.92072 43.4596,68.71314c20.0263,18.79242 43.55465,33.41452 67.35829,47.11102c23.80364,13.6965 48.12475,26.64301 70.46158,42.62029c22.33683,15.97728 42.83049,35.26807 56.49593,59.08956c13.66545,23.82149 20.01028,52.58693 13.52224,79.27237c-3.24402,13.34272 -9.66392,25.96938 -18.94332,36.09087c-9.2794,10.12149 -21.44445,17.67 -34.77347,20.96986c-16.03186,3.96899 -32.81551,3.33109 -49.24692,4.99904c-0.49744,0.0505 -0.49744,0.0505 -0.49744,0.0505" stroke="#ff0000"></path><g stroke="#ff0000"><line x1="1117.14544" y1="456.42121" x2="1134.31029" y2="899.0675"></line><polyline points="1125.90267,893.65346 1134.31029,899.0675 1142.27341,893.01863"></polyline></g><line x1="1026.83982" y1="709.34745" x2="1198.77551" y2="495.31961" stroke="#000000"></line><path d="M1026.83982,709.34745c-0.31314,0.3898 -0.31314,0.3898 -0.31314,0.3898c-5.20011,6.47317 -9.99948,13.25489 -14.53645,20.20895c-2.26848,3.47703 -4.55664,6.9532 -7.20013,10.15441c-2.64349,3.20121 -5.67675,6.13733 -9.2642,8.22682c-7.33589,4.27274 -16.69572,4.58241 -24.54624,1.35118c-7.85052,-3.23123 -14.1442,-9.79426 -17.62122,-17.53906c-3.47702,-7.7448 -4.2276,-16.58273 -2.73395,-24.9398c1.49364,-8.35707 5.16078,-16.24312 10.06708,-23.17131c9.8126,-13.85638 24.21308,-23.69514 38.64792,-32.63503c14.43484,-8.93989 29.41847,-17.43852 41.33922,-29.5291c11.59018,-11.7553 20.66207,-25.72042 31.00078,-38.59018c0.31314,-0.3898 0.31314,-0.3898 0.31314,-0.3898" stroke="#ff0000"></path><g stroke="#ff0000"><line x1="1026.83982" y1="709.34745" x2="1071.99263" y2="582.88433"></line><polyline points="1077.7785,591.04053 1071.99263,582.88433 1062.34942,585.53168"></polyline></g><polygon points="512.93319,505.64629 737.7456,68.07791 972.38331,51.65674 1068.67297,413.74502 897.74697,892.47129" stroke="#000000"></polygon><path d="M897.74697,892.47129c-0.16813,0.47089 -0.16813,0.47089 -0.16813,0.47089c-5.54819,15.53926 -11.00238,31.11231 -16.64454,46.61769c-125.3187,344.39262 -378.54478,640.50278 -699.14196,818.06544c-320.59719,177.56266 -705.80429,235.13445 -1064.38325,159.42329c-358.57896,-75.71116 -687.53342,-283.99624 -909.60606,-575.5349c-222.07264,-291.53867 -335.4793,-663.86601 -313.99743,-1029.72061c21.48187,-365.85459 177.6023,-722.23989 431.70503,-986.32862c254.10273,-264.08873 604.07527,-433.79134 968.75389,-470.13075c364.67863,-36.33941 741.13544,60.90273 1042.80034,269.0117c301.6649,208.10897 526.19194,525.37813 622.4686,878.99071c4.33461,15.92049 8.48089,31.89158 12.72134,47.83741c0.1285,0.48321 0.1285,0.48321 0.1285,0.48321" stroke="#ff0000"></path><g stroke="#ff0000"><line x1="897.74697" y1="892.47129" x2="972.38331" y2="51.65674"></line><polyline points="980.03559,58.09433 972.38331,51.65674 963.71672,56.64575"></polyline></g><line x1="556.93319" y1="420.00596" x2="556.93319" y2="549.87626" stroke="#000000"></line><path d="M556.93319,420.00596c0,-0.5 0,-0.5 0,-0.5c0,-5.41018 -0.17674,-10.9509 -2.18979,-15.97262c-2.01306,-5.02172 -5.86063,-9.31957 -10.73532,-11.66637c-4.8747,-2.34679 -10.54585,-2.71689 -15.86181,-1.71158c-5.31596,1.00531 -10.29722,3.27452 -15.19608,5.57044c-158.81443,74.43078 -300.42715,180.82535 -435.53045,292.66928c-3.76295,3.11512 -7.53907,6.26926 -10.63246,10.05009c-3.09339,3.78083 -5.46033,8.22992 -6.35509,13.03233c-0.89475,4.80241 -0.25203,9.85121 1.66416,14.34475c1.9162,4.49354 5.04199,8.34644 8.21073,12.06435c0.32433,0.38054 0.32433,0.38054 0.32433,0.38054" stroke="#ff0000"></path><g stroke="#ff0000"><line x1="556.93319" y1="420.00596" x2="70.63141" y2="738.26717"></line><polyline points="70.94502,728.27209 70.63141,738.26717 79.91645,741.98039"></polyline></g><polygon points="1117.14544,456.42121 1379.59442,581.48353 1443.29952,838.85054 1134.31029,899.0675 1051.22088,907.50189 971.72144,913.8224 953.46711,914.84833" stroke="#000000"></polygon><path d="M1134.31029,899.0675c-0.49077,0.09564 -0.49077,0.09564 -0.49077,0.09564c-26.5805,5.18011 -53.42003,9.11751 -80.45094,10.75671c-27.0309,1.6392 -54.11005,2.35492 -81.14794,3.87449c-0.49921,0.02806 -0.49921,0.02806 -0.49921,0.02806" stroke="#ff0000"></path><g stroke="#ff0000"><line x1="1134.31029" y1="899.0675" x2="971.72144" y2="913.8224"></line><polyline points="976.69339,905.14602 971.72144,913.8224 978.17406,921.46201"></polyline></g><line x1="1239.59055" y1="514.76882" x2="981.68701" y2="835.81057" stroke="#000000"></line><path d="M1239.59055,514.76882c0.31314,-0.3898 0.31314,-0.3898 0.31314,-0.3898c5.27344,-6.56445 11.10097,-12.66782 17.42823,-18.22362c3.16363,-2.7779 6.36948,-5.527 9.19705,-8.64632c2.82757,-3.11932 5.28531,-6.67053 6.5366,-10.69043c1.67044,-5.36649 1.02567,-11.37089 -1.55097,-16.36594c-2.57664,-4.99505 -7.01835,-8.95826 -12.18928,-11.16078c-5.17093,-2.20252 -11.02866,-2.66848 -16.5336,-1.53479c-5.50494,1.1337 -10.64812,3.835 -14.86338,7.55269c-6.13995,5.41518 -10.2762,12.68225 -14.59829,19.63514c-4.32208,6.95289 -9.1142,13.60245 -14.24139,19.98485c-0.31314,0.3898 -0.31314,0.3898 -0.31314,0.3898" stroke="#ff0000"></path><g stroke="#ff0000"><line x1="1239.59055" y1="514.76882" x2="1198.77551" y2="495.31961"></line><polyline points="1207.47724,490.39215 1198.77551,495.31961 1200.42965,505.18186"></polyline></g><polygon points="512.93319,505.64629 737.7456,68.07791 972.38331,51.65674 1068.67297,413.74502 897.74697,892.47129" stroke="#000000"></polygon><path d="M897.74697,892.47129c-0.16813,0.47089 -0.16813,0.47089 -0.16813,0.47089c-1.93166,5.41017 -3.66428,10.95341 -4.06917,16.68379c-0.40489,5.73039 0.48151,11.46572 1.54094,17.11186c1.05943,5.64614 2.24562,11.47758 0.97863,17.08079c-0.63349,2.80161 -1.9307,5.50422 -4.00472,7.49137c-1.03701,0.99357 -2.26098,1.79861 -3.60335,2.30911c-1.34237,0.5105 -2.80369,0.72232 -4.23089,0.56206c-2.33162,-0.26182 -4.49688,-1.52154 -6.04546,-3.28419c-1.54858,-1.76264 -2.50402,-3.99947 -2.92858,-6.30702c-0.84912,-4.61509 0.35582,-9.34287 1.73398,-13.82848c1.37816,-4.48562 2.95669,-9.02425 2.86819,-13.71597c-0.04425,-2.34586 -0.52105,-4.7071 -1.5966,-6.79233c-1.07555,-2.08524 -2.77494,-3.8814 -4.89973,-4.87655c-1.89789,-0.88888 -4.06621,-1.11315 -6.14554,-0.85147c-2.07933,0.26168 -4.07925,0.99055 -5.94728,1.94058c-3.73606,1.90006 -6.97811,4.62441 -10.43743,6.99115c-3.45932,2.36674 -7.20517,4.37456 -11.24669,5.48562c-4.04152,1.11106 -8.2751,1.27051 -12.46652,1.2904c-0.49999,0.00237 -0.49999,0.00237 -0.49999,0.00237" stroke="#ff0000"></path><g stroke="#ff0000"><line x1="897.74697" y1="892.47129" x2="826.57865" y2="920.23527"></line><polyline points="828.94506,910.5193 826.57865,920.23527 834.89932,925.78203"></polyline></g><line x1="600.93319" y1="594.10622" x2="600.93319" y2="334.36564" stroke="#000000"></line><path d="M600.93319,594.10622c0,0.5 0,0.5 0,0.5c0,8.38344 0.80455,16.74058 2.09794,25.02365c0.64669,4.14154 1.2679,8.31262 1.17229,12.50325c-0.09561,4.19063 -0.97071,8.46842 -3.27023,11.97309c-1.93554,2.94995 -4.83456,5.23238 -8.10772,6.54955c-3.27316,1.31717 -6.90442,1.68193 -10.39663,1.17896c-6.98443,-1.00593 -13.19252,-5.44164 -17.30534,-11.17564c-4.11282,-5.73401 -6.29006,-12.67024 -7.30494,-19.65337c-1.01488,-6.98313 -0.92729,-14.07309 -0.88536,-21.12946c0.09804,-16.49974 0,-32.99997 0,-49.5c0,-0.5 0,-0.5 0,-0.5" stroke="#ff0000"></path><g stroke="#ff0000"><line x1="600.93319" y1="594.10622" x2="556.93319" y2="549.87626"></line><polyline points="566.78576,548.16545 556.93319,549.87626 555.17105,559.71978"></polyline></g><polygon points="1117.14544,456.42121 1379.59442,581.48353 1443.29952,838.85054 1134.31029,899.0675 1051.22088,907.50189 971.72144,913.8224 953.46711,914.84833" stroke="#000000"></polygon><path d="M1379.59442,581.48353c0.45137,0.21509 0.45137,0.21509 0.45137,0.21509c3.35471,1.59859 6.733,3.18583 10.29343,4.25022c3.56042,1.06438 7.30854,1.59655 11.00843,1.24964c3.69989,-0.34691 7.32884,-1.5864 10.39265,-3.6894c3.06381,-2.103 5.53515,-5.05659 7.07275,-8.43968c1.5376,-3.38309 2.1395,-7.16871 1.85173,-10.87367c-0.28777,-3.70496 -1.44802,-7.31718 -3.18421,-10.60278c-3.47238,-6.57121 -9.1202,-11.68961 -14.80329,-16.47925c-82.03909,-69.14171 -187.27076,-102.59951 -287.15794,-141.75996c-4.56711,-1.79052 -9.16669,-3.59428 -13.98958,-4.49101c-4.82289,-0.89674 -9.88647,-0.82633 -14.53844,0.73047c-4.65197,1.5568 -8.7619,4.60582 -11.73518,8.50761c-2.97328,3.9018 -4.76555,8.55341 -6.41505,13.17331c-0.16813,0.47089 -0.16813,0.47089 -0.16813,0.47089" stroke="#ff0000"></path><g stroke="#ff0000"><line x1="1379.59442" y1="581.48353" x2="1068.67297" y2="413.74502"></line><polyline points="1077.61032,409.25905 1068.67297,413.74502 1069.83164,423.67766"></polyline></g><line x1="975.71157" y1="913.50517" x2="1280.40558" y2="534.21802" stroke="#000000"></line><path d="M975.71157,913.50517c-0.31314,0.3898 -0.31314,0.3898 -0.31314,0.3898c-5.23686,6.51891 -9.88633,13.48144 -14.14665,20.67662c-2.13016,3.59759 -4.29391,7.19988 -6.9787,10.40489c-2.68479,3.20501 -5.96599,6.02659 -9.87543,7.50867c-4.2792,1.62226 -9.1458,1.51496 -13.43578,-0.07857c-4.28998,-1.59353 -7.99442,-4.62527 -10.6032,-8.38526c-2.60877,-3.75999 -4.14071,-8.22322 -4.63151,-12.77321c-0.4908,-4.54999 0.04033,-9.18349 1.31476,-13.57883c2.54886,-8.7907 7.97113,-16.48763 14.09649,-23.2886c6.12535,-6.80096 13.02037,-12.87035 19.23467,-19.59013c11.20534,-12.1168 20.66479,-25.7238 31.00078,-38.59018c0.31314,-0.3898 0.31314,-0.3898 0.31314,-0.3898" stroke="#ff0000"></path><g stroke="#ff0000"><line x1="975.71157" y1="913.50517" x2="981.68701" y2="835.81057"></line><polyline points="989.41458,842.15759 981.68701,835.81057 973.07978,840.90129"></polyline></g><line x1="1097.15874" y1="902.83875" x2="1362.03567" y2="573.11643" stroke="#000000"></line><path d="M1097.15874,902.83875c-0.31314,0.3898 -0.31314,0.3898 -0.31314,0.3898c-10.33359,12.86339 -20.66009,25.73249 -31.00078,38.59018c-4.34325,5.40044 -8.71423,10.82415 -13.86622,15.4594c-5.15199,4.63525 -11.16508,8.48694 -17.87534,10.21926c-6.71026,1.73232 -14.17407,1.1776 -20.09478,-2.42431c-2.96035,-1.80096 -5.48869,-4.33748 -7.16505,-7.37013c-1.67636,-3.03265 -2.48158,-6.56128 -2.15595,-10.01108c0.39396,-4.17363 2.38871,-8.05957 4.93864,-11.38707c2.54993,-3.3275 5.64833,-6.18916 8.74803,-9.01161c6.1994,-5.64489 12.06317,-11.65506 17.31411,-18.1915c0.31314,-0.3898 0.31314,-0.3898 0.31314,-0.3898" stroke="#ff0000"></path><g stroke="#ff0000"><line x1="1097.15874" y1="902.83875" x2="1036.00141" y2="908.71189"></line><polyline points="1040.92785,900.00958 1036.00141,908.71189 1042.49396,916.3176"></polyline></g><line x1="1387.16934" y1="612.08602" x2="1160.76999" y2="893.91094" stroke="#000000"></line><path d="M1387.16934,612.08602c0.31314,-0.3898 0.31314,-0.3898 0.31314,-0.3898c5.11896,-6.37215 10.51212,-12.52194 16.22117,-18.37128c5.70905,-5.84934 11.67923,-11.61393 15.76289,-18.69431c2.78154,-4.82272 4.59479,-10.24159 4.9544,-15.79733c0.35961,-5.55574 -0.76966,-11.24388 -3.50497,-16.09297c-2.73532,-4.84909 -7.10985,-8.81236 -12.3218,-10.7697c-5.21195,-1.95733 -11.23532,-1.82249 -16.22788,0.64123c-3.78281,1.86674 -6.85369,4.943 -9.36906,8.32934c-2.51537,3.38634 -4.54364,7.10366 -6.58909,10.7929c-4.0909,7.37848 -8.77563,14.4153 -14.05933,20.99253c-0.31314,0.3898 -0.31314,0.3898 -0.31314,0.3898" stroke="#ff0000"></path><g stroke="#ff0000"><line x1="1387.16934" y1="612.08602" x2="1362.03567" y2="573.11643"></line><polyline points="1372.02843,573.49678 1362.03567,573.11643 1358.26053,582.37647"></polyline></g><line x1="1227.68525" y1="880.87025" x2="1400.4634" y2="665.79371" stroke="#000000"></line><path d="M1227.68525,880.87025c-0.31314,0.3898 -0.31314,0.3898 -0.31314,0.3898c-10.33429,12.86426 -21.15506,25.34826 -31.00078,38.59018c-4.67253,6.28428 -9.06001,12.80555 -14.2921,18.63221c-5.23209,5.82666 -11.41721,10.9977 -18.71076,13.84881c-3.64678,1.42555 -7.54439,2.25132 -11.4599,2.24784c-3.9155,-0.00348 -7.84784,-0.84895 -11.3424,-2.61508c-3.49456,-1.76613 -6.53734,-4.4669 -8.55799,-7.82073c-2.02064,-3.35383 -2.98927,-7.36133 -2.55211,-11.25235c0.4676,-4.16196 2.48106,-8.02188 5.03132,-11.34403c2.55026,-3.32216 5.63217,-6.19339 8.71589,-9.02733c6.16743,-5.66789 12.00768,-11.68866 17.25357,-18.21881c0.31314,-0.3898 0.31314,-0.3898 0.31314,-0.3898" stroke="#ff0000"></path><g stroke="#ff0000"><line x1="1227.68525" y1="880.87025" x2="1160.76999" y2="893.91094"></line><polyline points="1164.83292,884.77351 1160.76999,893.91094 1167.96675,900.85403"></polyline></g><line x1="1413.75747" y1="719.50139" x2="1294.60051" y2="867.82955" stroke="#000000"></line><path d="M1413.75747,719.50139c0.31314,-0.3898 0.31314,-0.3898 0.31314,-0.3898c10.33513,-12.8653 21.39714,-25.17001 31.00078,-38.59018c3.56447,-4.98101 6.87369,-10.19569 9.15915,-15.87835c2.28546,-5.68266 3.5185,-11.88027 2.82444,-17.96585c-0.69406,-6.08558 -3.43355,-12.0447 -8.10206,-16.00967c-2.33425,-1.98249 -5.1218,-3.44482 -8.10292,-4.14618c-2.98112,-0.70136 -6.15267,-0.63097 -9.07268,0.29237c-3.99823,1.26428 -7.3714,4.04611 -10.07258,7.25358c-2.70118,3.20748 -4.82401,6.85393 -6.90776,10.49292c-4.16748,7.27799 -8.76801,14.30539 -14.02044,20.84367c-0.31314,0.3898 -0.31314,0.3898 -0.31314,0.3898" stroke="#ff0000"></path><g stroke="#ff0000"><line x1="1413.75747" y1="719.50139" x2="1400.4634" y2="665.79371"></line><polyline points="1409.79311,669.39322 1400.4634,665.79371 1393.89001,673.32966"></polyline></g><line x1="1361.51577" y1="854.78886" x2="1427.05153" y2="773.20908" stroke="#000000"></line><path d="M1361.51577,854.78886c-0.31314,0.3898 -0.31314,0.3898 -0.31314,0.3898c-10.33429,12.86426 -21.15506,25.34826 -31.00078,38.59018c-4.67253,6.28428 -9.06001,12.80555 -14.2921,18.63221c-5.23209,5.82666 -11.41721,10.9977 -18.71076,13.84881c-3.64678,1.42555 -7.54439,2.25132 -11.4599,2.24784c-3.9155,-0.00348 -7.84784,-0.84895 -11.3424,-2.61508c-3.49456,-1.76613 -6.53734,-4.4669 -8.55799,-7.82073c-2.02064,-3.35383 -2.98927,-7.36133 -2.55211,-11.25235c0.4676,-4.16196 2.48106,-8.02188 5.03132,-11.34403c2.55026,-3.32216 5.63217,-6.19339 8.71589,-9.02733c6.16743,-5.66789 12.00768,-11.68866 17.25357,-18.21881c0.31314,-0.3898 0.31314,-0.3898 0.31314,-0.3898" stroke="#ff0000"></path><g stroke="#ff0000"><line x1="1361.51577" y1="854.78886" x2="1294.60051" y2="867.82955"></line><polyline points="1298.66345,858.69213 1294.60051,867.82955 1301.79728,874.77265"></polyline></g><line x1="1440.34559" y1="826.91673" x2="1428.431" y2="841.74818" stroke="#000000"></line><path d="M1440.34559,826.91673c0.31314,-0.3898 0.31314,-0.3898 0.31314,-0.3898c10.33513,-12.8653 21.39714,-25.17001 31.00078,-38.59018c3.56447,-4.98101 6.87369,-10.19568 9.15915,-15.87834c2.28546,-5.68266 3.5185,-11.88027 2.82444,-17.96584c-0.69406,-6.08557 -3.43355,-12.04469 -8.10205,-16.00966c-2.33425,-1.98249 -5.1218,-3.44482 -8.10292,-4.14618c-2.98112,-0.70136 -6.15267,-0.63097 -9.07267,0.29236c-3.99823,1.26428 -7.3714,4.0461 -10.07259,7.25358c-2.70118,3.20748 -4.82401,6.85393 -6.90776,10.49292c-4.16748,7.27799 -8.76801,14.30539 -14.02043,20.84368c-0.31314,0.3898 -0.31314,0.3898 -0.31314,0.3898" stroke="#ff0000"></path><g stroke="#ff0000"><line x1="1440.34559" y1="826.91673" x2="1427.05153" y2="773.20908"></line><polyline points="1436.38124,776.80859 1427.05153,773.20908 1420.47814,780.74503"></polyline></g><polygon points="512.93319,505.64629 737.7456,68.07791 972.38331,51.65674 1068.67297,413.74502 897.74697,892.47129" stroke="#000000"></polygon><path d="M1068.67297,413.74502c0.1285,0.48321 0.1285,0.48321 0.1285,0.48321c4.24049,15.94598 8.23614,31.95852 12.72134,47.83741c15.169,53.70256 37.69653,105.01358 55.46624,157.91255c17.76971,52.89896 30.86773,108.54831 26.16694,164.15376c-2.35039,27.80272 -9.21624,55.35888 -21.60305,80.36053c-12.38681,25.00165 -30.39976,47.39592 -53.09473,63.62719c-22.69497,16.23127 -50.13624,26.11807 -78.0343,26.58113c-27.89805,0.46306 -56.10853,-8.76554 -77.41389,-26.78213c-12.60356,-10.65803 -23.26949,-23.39111 -34.91044,-35.0929c-0.35263,-0.35447 -0.35263,-0.35447 -0.35263,-0.35447" stroke="#ff0000"></path><g stroke="#ff0000"><line x1="1068.67297" y1="413.74502" x2="897.74697" y2="892.47129"></line><polyline points="891.96109,884.31508 897.74697,892.47129 907.39018,889.82393"></polyline></g><line x1="644.93319" y1="248.72531" x2="644.93319" y2="638.33619" stroke="#000000"></line><path d="M644.93319,248.72531c0,-0.5 0,-0.5 0,-0.5c0,-8.33681 0.64721,-16.65657 1.69157,-24.92771c0.52218,-4.13557 1.02397,-8.29024 0.95009,-12.45799c-0.07387,-4.16775 -0.76,-8.39476 -2.64166,-12.1143c-2.63583,-5.21033 -7.58112,-9.12338 -13.1659,-10.82791c-5.58478,-1.70452 -11.73753,-1.26131 -17.1633,0.89652c-5.42577,2.15783 -10.12731,5.97249 -13.65638,10.62447c-3.52907,4.65197 -5.91211,10.11927 -7.28412,15.7949c-2.74402,11.35126 -1.48575,23.28818 0.74287,34.75177c2.22862,11.46359 5.41527,22.77539 6.52682,34.40058c1.57119,16.43225 0,32.99281 0,49.5c0,0.5 0,0.5 0,0.5" stroke="#ff0000"></path><g stroke="#ff0000"><line x1="644.93319" y1="248.72531" x2="600.93319" y2="334.36564"></line><polyline points="596.26825,325.52039 600.93319,334.36564 610.84051,333.00728"></polyline></g><line x1="688.93319" y1="682.56615" x2="688.93319" y2="163.08499" stroke="#000000"></line><path d="M688.93319,682.56615c0,0.5 0,0.5 0,0.5c0,8.38344 0.80456,16.74058 2.09794,25.02365c0.64669,4.14154 1.2679,8.31262 1.17229,12.50325c-0.09561,4.19063 -0.97071,8.46842 -3.27023,11.97309c-1.93554,2.94995 -4.83456,5.23237 -8.10772,6.54955c-3.27316,1.31717 -6.90442,1.68192 -10.39663,1.17896c-6.98443,-1.00593 -13.19252,-5.44164 -17.30534,-11.17564c-4.11282,-5.734 -6.29006,-12.67024 -7.30494,-19.65337c-1.01488,-6.98313 -0.92729,-14.07308 -0.88536,-21.12945c0.09804,-16.49974 0,-32.99997 0,-49.5c0,-0.5 0,-0.5 0,-0.5" stroke="#ff0000"></path><g stroke="#ff0000"><line x1="688.93319" y1="682.56615" x2="644.93319" y2="638.33619"></line><polyline points="654.78576,636.62538 644.93319,638.33619 643.17105,648.17971"></polyline></g><line x1="732.93319" y1="77.44465" x2="732.93319" y2="726.79612" stroke="#000000"></line><path d="M732.93319,77.44465c0,-0.5 0,-0.5 0,-0.5c0,-8.33681 0.64721,-16.65657 1.69157,-24.92771c0.52218,-4.13557 1.02397,-8.29024 0.95009,-12.45799c-0.07387,-4.16775 -0.76,-8.39476 -2.64166,-12.1143c-2.63583,-5.21033 -7.58112,-9.12339 -13.1659,-10.82791c-5.58478,-1.70452 -11.73753,-1.26131 -17.1633,0.89652c-5.42577,2.15783 -10.12731,5.97249 -13.65638,10.62447c-3.52907,4.65197 -5.91211,10.11927 -7.28412,15.7949c-2.74402,11.35126 -1.48575,23.28818 0.74287,34.75177c2.22862,11.4636 5.41527,22.77539 6.52682,34.40059c1.57119,16.43225 0,32.99281 0,49.5c0,0.5 0,0.5 0,0.5" stroke="#ff0000"></path><g stroke="#ff0000"><line x1="732.93319" y1="77.44465" x2="688.93319" y2="163.08499"></line><polyline points="684.26825,154.23974 688.93319,163.08499 698.8405,161.72663"></polyline></g><line x1="776.9332" y1="771.02609" x2="776.9332" y2="65.33536" stroke="#000000"></line><path d="M776.9332,771.02609c0,0.5 0,0.5 0,0.5c0,8.38344 0.80455,16.74058 2.09794,25.02365c0.64669,4.14154 1.2679,8.31262 1.17229,12.50325c-0.09561,4.19063 -0.97071,8.46842 -3.27023,11.97309c-1.93554,2.94995 -4.83456,5.23238 -8.10772,6.54955c-3.27316,1.31717 -6.90442,1.68193 -10.39663,1.17896c-6.98443,-1.00593 -13.19252,-5.44164 -17.30535,-11.17565c-4.11282,-5.73401 -6.29006,-12.67024 -7.30494,-19.65338c-1.01488,-6.98313 -0.92729,-14.07309 -0.88536,-21.12946c0.09804,-16.49974 0,-32.99997 0,-49.5c0,-0.5 0,-0.5 0,-0.5" stroke="#ff0000"></path><g stroke="#ff0000"><line x1="776.9332" y1="771.02609" x2="732.93319" y2="726.79612"></line><polyline points="742.78576,725.08531 732.93319,726.79612 731.17105,736.63964"></polyline></g><line x1="820.9332" y1="62.25601" x2="820.9332" y2="815.25606" stroke="#000000"></line><path d="M820.9332,62.25601c0,-0.5 0,-0.5 0,-0.5c0,-8.34493 0.63844,-16.68385 2.03578,-24.91096c0.69867,-4.11356 1.46946,-8.22276 1.81596,-12.38081c0.3465,-4.15805 0.24783,-8.4061 -0.91275,-12.41391c-1.57905,-5.45295 -5.15931,-10.29056 -9.8752,-13.45103c-4.71588,-3.16047 -10.52639,-4.63199 -16.18417,-4.16545c-5.65778,0.46654 -11.12908,2.85623 -15.36253,6.63856c-4.23345,3.78233 -7.21437,8.92913 -8.4561,14.46865c-1.80716,8.06198 -0.12234,16.44088 1.13333,24.60695c1.25568,8.16607 1.80566,16.42532 1.80566,24.68736c0,0.5 0,0.5 0,0.5" stroke="#ff0000"></path><g stroke="#ff0000"><line x1="820.9332" y1="62.25601" x2="776.9332" y2="65.33536"></line><polyline points="782.08308,56.76339 776.9332,65.33536 783.22685,73.10645"></polyline></g><line x1="864.93321" y1="859.48603" x2="864.93321" y2="59.17666" stroke="#000000"></line><path d="M864.93321,859.48603c0,0.5 0,0.5 0,0.5c0,8.38344 0.80455,16.74058 2.09794,25.02365c0.64669,4.14154 1.2679,8.31262 1.17229,12.50325c-0.09561,4.19063 -0.97071,8.46842 -3.27023,11.97309c-1.93554,2.94995 -4.83456,5.23238 -8.10772,6.54955c-3.27316,1.31717 -6.90442,1.68193 -10.39663,1.17896c-6.98443,-1.00593 -13.19252,-5.44164 -17.30535,-11.17565c-4.11282,-5.73401 -6.29006,-12.67024 -7.30494,-19.65338c-1.01488,-6.98313 -0.92729,-14.07309 -0.88536,-21.12946c0.09804,-16.49974 0,-32.99997 0,-49.5c0,-0.5 0,-0.5 0,-0.5" stroke="#ff0000"></path><g stroke="#ff0000"><line x1="864.93321" y1="859.48603" x2="820.9332" y2="815.25606"></line><polyline points="830.78577,813.54525 820.9332,815.25606 819.17106,825.09958"></polyline></g><line x1="908.93322" y1="56.09731" x2="908.93322" y2="861.14106" stroke="#000000"></line><path d="M908.93322,56.09731c0,-0.5 0,-0.5 0,-0.5c0,-8.34493 0.63844,-16.68385 2.03578,-24.91096c0.69867,-4.11356 1.46946,-8.22276 1.81596,-12.38081c0.3465,-4.15805 0.24783,-8.4061 -0.91275,-12.41391c-1.57905,-5.45295 -5.15931,-10.29056 -9.8752,-13.45103c-4.71588,-3.16047 -10.52639,-4.63199 -16.18417,-4.16545c-5.65778,0.46654 -11.12908,2.85623 -15.36253,6.63856c-4.23345,3.78233 -7.21437,8.92913 -8.4561,14.46865c-1.80716,8.06198 -0.12234,16.44088 1.13333,24.60695c1.25568,8.16607 1.80566,16.42532 1.80566,24.68736c0,0.5 0,0.5 0,0.5" stroke="#ff0000"></path><g stroke="#ff0000"><line x1="908.93322" y1="56.09731" x2="864.93321" y2="59.17666"></line><polyline points="870.08309,50.60469 864.93321,59.17666 871.22687,66.94775"></polyline></g><line x1="952.93322" y1="737.90669" x2="952.93322" y2="53.01796" stroke="#000000"></line><path d="M952.93322,737.90669c0,0.5 0,0.5 0,0.5c0,16.50823 -1.68033,33.07751 0,49.5c1.67935,16.41283 7.75652,31.9962 13.10561,47.60351c5.34909,15.60732 10.07164,31.88357 8.88522,48.33937c-0.59321,8.2279 -2.70335,16.40931 -6.72643,23.61105c-4.02309,7.20174 -10.01702,13.38848 -17.3856,17.09715c-7.36859,3.70867 -16.1254,4.8203 -24.03872,2.49014c-7.91332,-2.33016 -14.82491,-8.22837 -17.84008,-15.90685c-1.51785,-3.86537 -2.05535,-8.05661 -2.11264,-12.20892c-0.05729,-4.15231 0.34399,-8.29612 0.76149,-12.42778c0.83499,-8.26333 1.35115,-16.55788 1.35115,-24.86329c0,-0.5 0,-0.5 0,-0.5" stroke="#ff0000"></path><g stroke="#ff0000"><line x1="952.93322" y1="737.90669" x2="908.93322" y2="861.14106"></line><polyline points="903.14734,852.98485 908.93322,861.14106 918.57643,858.4937"></polyline></g><line x1="1157.96048" y1="475.87041" x2="1071.99263" y2="582.88433" stroke="#000000"></line><path d="M1157.96048,475.87041c0.31314,-0.3898 0.31314,-0.3898 0.31314,-0.3898c10.33802,-12.86891 21.92359,-24.80293 31.00078,-38.59018c8.95953,-13.60853 14.46062,-29.50052 15.65098,-45.75008c1.19036,-16.24956 -1.95256,-32.81956 -9.17285,-47.42547c-7.22029,-14.60591 -18.51677,-27.19686 -32.35281,-35.8009c-13.83603,-8.60404 -30.17758,-13.17256 -46.46669,-12.812c-16.28911,0.36057 -32.46118,5.67395 -45.68651,15.19004c-13.22533,9.51609 -23.42743,23.2132 -28.58945,38.66696c-5.16202,15.45377 -5.22893,32.59118 -0.01957,48.02905c5.20936,15.43787 15.6925,29.07156 29.3707,37.92435c13.86308,8.97244 29.77855,14.19009 44.68587,21.29373c0.45137,0.21509 0.45137,0.21509 0.45137,0.21509" stroke="#ff0000"></path><g stroke="#ff0000"><line x1="1157.96048" y1="475.87041" x2="1117.14544" y2="456.42121"></line><polyline points="1125.84717,451.49375 1117.14544,456.42121 1118.79957,466.28345"></polyline></g><line x1="1321.22063" y1="553.66722" x2="1036.00141" y2="908.71189" stroke="#000000"></line><path d="M1321.22063,553.66722c0.31314,-0.3898 0.31314,-0.3898 0.31314,-0.3898c5.27344,-6.56445 11.10097,-12.66782 17.42823,-18.22362c3.16363,-2.7779 6.36948,-5.527 9.19705,-8.64632c2.82757,-3.11932 5.28531,-6.67053 6.53659,-10.69043c1.67044,-5.36649 1.02567,-11.37089 -1.55097,-16.36594c-2.57664,-4.99505 -7.01835,-8.95825 -12.18928,-11.16078c-5.17093,-2.20252 -11.02866,-2.66848 -16.5336,-1.53479c-5.50494,1.1337 -10.64812,3.835 -14.86338,7.55268c-6.13995,5.41518 -10.2762,12.68225 -14.59829,19.63514c-4.32208,6.95289 -9.1142,13.60245 -14.24139,19.98485c-0.31314,0.3898 -0.31314,0.3898 -0.31314,0.3898" stroke="#ff0000"></path><g stroke="#ff0000"><line x1="1321.22063" y1="553.66722" x2="1280.40558" y2="534.21802"></line><polyline points="1289.10731,529.29056 1280.40558,534.21802 1282.05972,544.08026"></polyline></g><polygon points="1117.14544,456.42121 1379.59442,581.48353 1443.29952,838.85054 1134.31029,899.0675 1051.22088,907.50189 971.72144,913.8224 953.46711,914.84833" stroke="#000000"></polygon><path d="M971.72144,913.8224c-0.49843,0.03963 -0.49843,0.03963 -0.49843,0.03963c-6.02135,0.47872 -12.26076,0.72976 -17.89578,-1.44563c-2.81751,-1.0877 -5.42609,-2.73795 -7.55174,-4.88343c-2.12565,-2.14548 -3.75645,-4.77651 -4.74045,-7.63189c-1.96799,-5.71077 -1.21204,-12.12625 1.22831,-17.6517c2.44034,-5.52545 6.38923,-10.22574 10.34301,-14.79231c106.28335,-122.75613 240.81025,-217.75454 379.4412,-302.29257c4.46123,-2.72049 8.98406,-5.44082 13.94774,-7.07348c4.96368,-1.63266 10.40031,-2.08946 15.42828,-0.66708c5.02797,1.42238 9.45381,4.73786 12.40675,9.04875c2.95294,4.31089 4.38845,9.45327 5.64396,14.52548c0.12014,0.48535 0.12014,0.48535 0.12014,0.48535" stroke="#ff0000"></path><g stroke="#ff0000"><line x1="971.72144" y1="913.8224" x2="1379.59442" y2="581.48353"></line><polyline points="1380.32218,591.45701 1379.59442,581.48353 1369.9735,578.75628"></polyline></g><line x1="996.9332" y1="143.97433" x2="996.9332" y2="614.67238" stroke="#000000"></line><path d="M996.9332,143.97433c0,-0.5 0,-0.5 0,-0.5c0,-16.50764 -1.61866,-33.07192 0,-49.5c1.2098,-12.2784 4.80214,-24.17572 7.46613,-36.22254c2.66399,-12.04682 4.40055,-24.60672 1.86506,-36.68125c-1.26774,-6.03726 -3.61774,-11.88681 -7.21865,-16.89572c-3.60091,-5.00891 -8.48311,-9.1533 -14.17662,-11.52811c-5.6935,-2.37481 -12.2023,-2.91459 -18.10802,-1.13185c-5.90572,1.78274 -11.12641,5.95713 -13.82789,11.50309c-1.82422,3.74499 -2.48602,7.96583 -2.55715,12.13088c-0.07113,4.16505 0.4146,8.31781 0.92005,12.45269c1.0109,8.26976 1.6371,16.58511 1.6371,24.91642c0,0.5 0,0.5 0,0.5" stroke="#ff0000"></path><g stroke="#ff0000"><line x1="996.9332" y1="143.97433" x2="952.93322" y2="53.01796"></line><polyline points="962.80501,54.61414 952.93322,53.01796 948.05696,61.74848"></polyline></g><line x1="1040.93321" y1="491.43801" x2="1040.93321" y2="309.43224" stroke="#000000"></line><path d="M1040.93321,491.43801c0,0.5 0,0.5 0,0.5c0,16.50823 -1.68033,33.07751 0,49.5c1.67935,16.41283 7.75652,31.9962 13.10561,47.60351c5.34909,15.60732 10.07164,31.88357 8.88522,48.33937c-0.59321,8.2279 -2.70335,16.40931 -6.72643,23.61105c-4.02309,7.20174 -10.01702,13.38848 -17.3856,17.09715c-7.36859,3.70867 -16.1254,4.8203 -24.03872,2.49014c-7.91332,-2.33016 -14.82491,-8.22837 -17.84008,-15.90685c-1.51785,-3.86537 -2.05535,-8.05661 -2.11264,-12.20892c-0.05729,-4.15231 0.34399,-8.29612 0.76149,-12.42778c0.83499,-8.26333 1.35115,-16.55788 1.35115,-24.86329c0,-0.5 0,-0.5 0,-0.5" stroke="#ff0000"></path><g stroke="#ff0000"><line x1="1040.93321" y1="491.43801" x2="996.9332" y2="614.67238"></line><polyline points="991.14733,606.51618 996.9332,614.67238 1006.57641,612.02503"></polyline></g><polygon points="512.93319,505.64629 737.7456,68.07791 972.38331,51.65674 1068.67297,413.74502 897.74697,892.47129" stroke="#000000"></polygon><path d="M972.38331,51.65674c0.49878,-0.03491 0.49878,-0.03491 0.49878,-0.03491c4.90338,-0.34316 9.8934,-0.5683 14.6695,0.59349c4.7761,1.16179 9.22613,3.71177 12.51814,7.36192c3.292,3.65015 5.37833,8.27812 6.46613,13.07161c1.08781,4.79349 1.23957,9.74306 1.37011,14.65669c7.0244,264.39955 0.94175,531.81025 -62.78869,788.51026c-1.34479,5.41667 -2.75892,10.89008 -5.46122,15.77334c-2.70231,4.88326 -6.80797,9.1107 -11.95697,11.26398c-5.14899,2.15328 -11.1398,2.05131 -16.3113,-0.04734c-5.1715,-2.09865 -9.35204,-6.02331 -13.28818,-9.98002c-0.35263,-0.35447 -0.35263,-0.35447 -0.35263,-0.35447" stroke="#ff0000"></path><g stroke="#ff0000"><line x1="972.38331" y1="51.65674" x2="897.74697" y2="892.47129"></line><polyline points="890.09468,886.0337 897.74697,892.47129 906.41356,887.48228"></polyline></g><polygon points="476.28037,511.33933 910.01206,947.33791 898.15947,948.00405 827.12038,950.23303 760.60899,950.54879 698.59909,949.05754 641.06449,945.8654 587.97918,941.07863 539.31695,934.80341 495.05172,927.1459 20,811.884 109.66904,474.87784" stroke="#000000"></polygon><polygon points="462.60206,540.12695 840.30561,919.80456 826.57865,920.23527 760.89846,920.54708 699.79096,919.07753 643.2432,915.94014 591.24592,911.25148 543.79435,905.13238 501.15225,897.75566 56.87694,789.96105 132.09766,507.2565" fill="#ffffff" stroke="#008000"></polygon><path d="M109.66904,474.87784c0.12856,-0.48319 0.12856,-0.48319 0.12856,-0.48319c4.24353,-15.9486 7.43448,-32.20412 12.72789,-47.83566c11.23048,-33.16379 35.1788,-61.5515 65.15223,-79.64996c29.97343,-18.09846 65.67063,-26.06143 100.62964,-24.10475c34.95901,1.95668 69.11643,13.62152 98.90924,32.01579c29.79281,18.39427 55.28194,43.39157 75.69431,71.8397c40.82474,56.89625 60.91591,126.32228 70.52183,195.68776c9.60592,69.36548 9.42321,139.6622 13.65895,209.56142c4.23569,69.89924 13.16186,140.53002 39.85947,205.26859c26.69761,64.73857 72.99307,123.63159 136.31077,153.54338c31.65885,14.95589 67.10577,22.3181 102.0055,19.49491c34.89973,-2.82319 69.13857,-16.04934 95.81237,-38.73126c26.6738,-22.68192 45.42126,-54.91732 50.31415,-89.58749c4.89289,-34.67017 -4.52068,-71.44356 -26.74406,-98.50059c-10.47567,-12.75414 -22.85766,-23.79521 -34.29146,-35.69798c-0.34638,-0.36059 -0.34638,-0.36059 -0.34638,-0.36059" stroke="#ff0000"></path><g stroke="#ff0000"><line x1="109.66904" y1="474.87784" x2="910.01206" y2="947.33791"></line><polyline points="900.90853,951.47622 910.01206,947.33791 909.23692,937.368"></polyline></g><polygon points="462.60206,540.12695 840.30561,919.80456 826.57865,920.23527 760.89846,920.54708 699.79096,919.07753 643.2432,915.94014 591.24592,911.25148 543.79435,905.13238 501.15225,897.75566 56.87694,789.96105 132.09766,507.2565" stroke="#000000"></polygon><path d="M760.89846,920.54708c-0.49999,0.00237 -0.49999,0.00237 -0.49999,0.00237c-20.04606,0.09517 -40.09277,-0.33373 -60.10827,-1.44423c-0.49923,-0.0277 -0.49923,-0.0277 -0.49923,-0.0277" stroke="#ff0000"></path><g stroke="#ff0000"><line x1="760.89846" y1="920.54708" x2="699.79096" y2="919.07753"></line><polyline points="705.72201,911.02627 699.79096,919.07753 705.32813,927.40458"></polyline></g><line x1="70.63141" y1="738.26717" x2="129.76165" y2="807.64508" stroke="#000000"></line><path d="M129.76165,807.64508c0.32433,0.38054 0.32433,0.38054 0.32433,0.38054c10.70487,12.56009 22.20163,24.47486 32.1087,37.67335c5.25545,7.00147 9.89576,14.4606 15.39267,21.27413c5.49691,6.81353 11.9879,13.05824 19.92073,16.761c3.96642,1.85138 8.26406,3.03981 12.63548,3.26505c4.37142,0.22525 8.81639,-0.53005 12.77889,-2.38979c3.96251,-1.85973 7.42357,-4.844 9.66133,-8.60598c2.23777,-3.76198 3.20948,-8.30178 2.49559,-12.62039c-0.68223,-4.12712 -2.82985,-7.89327 -5.47581,-11.13325c-2.64597,-3.23998 -5.78919,-6.03354 -8.93379,-8.79217c-6.28921,-5.51726 -12.27223,-11.38056 -17.69909,-17.74793c-0.32433,-0.38054 -0.32433,-0.38054 -0.32433,-0.38054" stroke="#ff0000"></path><g stroke="#ff0000"><line x1="129.76165" y1="807.64508" x2="202.64635" y2="825.32911"></line><polyline points="195.14084,831.93723 202.64635,825.32911 199.00378,816.01612"></polyline></g><polygon points="462.60206,540.12695 840.30561,919.80456 826.57865,920.23527 760.89846,920.54708 699.79096,919.07753 643.2432,915.94014 591.24592,911.25148 543.79435,905.13238 501.15225,897.75566 56.87694,789.96105 132.09766,507.2565" stroke="#000000"></polygon><line x1="202.64635" y1="825.32911" x2="84.38588" y2="686.57329" stroke="#000000"></line><path d="M84.38588,686.57329c-0.32433,-0.38054 -0.32433,-0.38054 -0.32433,-0.38054c-10.70606,-12.56149 -22.41959,-24.31177 -32.1087,-37.67335c-3.45521,-4.76484 -6.57312,-9.82541 -8.65027,-15.33246c-2.07715,-5.50705 -3.08318,-11.4986 -2.25473,-17.32576c0.82845,-5.82716 3.59262,-11.47103 8.12266,-15.2288c2.26502,-1.87888 4.94543,-3.26878 7.80691,-3.95614c2.86148,-0.68737 5.90145,-0.66339 8.7299,0.14928c4.02972,1.15783 7.47802,3.84247 10.27045,6.97002c2.79243,3.12755 5.0221,6.7087 7.21274,10.28366c4.38128,7.14992 9.18615,14.03763 14.62551,20.41967c0.32433,0.38054 0.32433,0.38054 0.32433,0.38054" stroke="#ff0000"></path><g stroke="#ff0000"><line x1="84.38588" y1="686.57329" x2="98.14035" y2="634.87942"></line><polyline points="104.58161,642.52861 98.14035,634.87942 88.74942,638.31605"></polyline></g><polygon points="462.60206,540.12695 840.30561,919.80456 826.57865,920.23527 760.89846,920.54708 699.79096,919.07753 643.2432,915.94014 591.24592,911.25148 543.79435,905.13238 501.15225,897.75566 56.87694,789.96105 132.09766,507.2565" stroke="#000000"></polygon><path d="M699.79096,919.07753c-0.49986,-0.01202 -0.49986,-0.01202 -0.49986,-0.01202c-16.49523,-0.39669 -32.99098,-0.77221 -49.48569,-1.19006c-1883.37133,-47.71086 -3735.83769,-866.24303 -5039.1922,-2226.62198c-1303.35451,-1360.37895 -2041.85901,-3246.17822 -2008.9241,-5129.86588c32.93491,-1883.68766 836.91173,-3742.51802 2187.02671,-5056.50182c1350.11498,-1313.9838 3230.06545,-2067.25437 5113.95345,-2049.09079c1883.88799,18.16357 3748.96522,807.54214 5073.49275,2147.31478c1324.52753,1339.77264 2092.51124,3213.76139 2089.11349,5097.73388c-3.39776,1883.97249 -778.13615,3755.1792 -2107.48881,5090.16437c-1329.35265,1334.98517 -3197.26731,2117.62827 -5081.20861,2128.98989c-16.4997,0.09951 -32.99963,0.15666 -49.49944,0.235c-0.49999,0.00237 -0.49999,0.00237 -0.49999,0.00237" stroke="#ff0000"></path><g stroke="#ff0000"><line x1="699.79096" y1="919.07753" x2="826.57865" y2="920.23527"></line><polyline points="820.76833,928.37407 826.57865,920.23527 820.91792,911.99172"></polyline></g><line x1="348.41575" y1="860.69717" x2="111.89481" y2="583.18555" stroke="#000000"></line><path d="M111.89481,583.18555c-0.32433,-0.38054 -0.32433,-0.38054 -0.32433,-0.38054c-10.70606,-12.56149 -22.41959,-24.31177 -32.1087,-37.67335c-3.45521,-4.76484 -6.57312,-9.82541 -8.65027,-15.33246c-2.07715,-5.50705 -3.08318,-11.4986 -2.25473,-17.32576c0.82845,-5.82716 3.59262,-11.47104 8.12266,-15.2288c2.26502,-1.87888 4.94543,-3.26878 7.80691,-3.95614c2.86148,-0.68737 5.90145,-0.66339 8.7299,0.14928c4.02972,1.15783 7.47802,3.84247 10.27045,6.97002c2.79243,3.12755 5.0221,6.7087 7.21274,10.28366c4.38128,7.14992 9.18615,14.03763 14.62551,20.41967c0.32433,0.38054 0.32433,0.38054 0.32433,0.38054" stroke="#ff0000"></path><g stroke="#ff0000"><line x1="111.89481" y1="583.18555" x2="125.64928" y2="531.49166"></line><polyline points="132.09055,539.14085 125.64928,531.49166 116.25835,534.9283"></polyline></g><line x1="125.64928" y1="531.49166" x2="421.30047" y2="878.38121" stroke="#000000"></line><path d="M421.30047,878.38121c0.32433,0.38054 0.32433,0.38054 0.32433,0.38054c10.70487,12.56009 22.20163,24.47486 32.1087,37.67335c5.25545,7.00147 9.89576,14.4606 15.39268,21.27413c5.49691,6.81353 11.9879,13.05825 19.92073,16.76101c3.96642,1.85138 8.26406,3.03981 12.63549,3.26505c4.37142,0.22525 8.81639,-0.53005 12.77889,-2.38979c3.96251,-1.85973 7.42357,-4.844 9.66133,-8.60598c2.23777,-3.76198 3.20948,-8.30178 2.49559,-12.62039c-0.68223,-4.12712 -2.82985,-7.89327 -5.47581,-11.13325c-2.64597,-3.23998 -5.78919,-6.03354 -8.93379,-8.79217c-6.28921,-5.51726 -12.27223,-11.38056 -17.69909,-17.74793c-0.32433,-0.38054 -0.32433,-0.38054 -0.32433,-0.38054" stroke="#ff0000"></path><g stroke="#ff0000"><line x1="421.30047" y1="878.38121" x2="494.18519" y2="896.06524"></line><polyline points="486.67967,902.67336 494.18519,896.06524 490.54262,886.75226"></polyline></g><line x1="494.18519" y1="896.06524" x2="165.65072" y2="510.59353" stroke="#000000"></line><path d="M165.65072,510.59353c-0.32433,-0.38054 -0.32433,-0.38054 -0.32433,-0.38054c-5.43725,-6.37957 -11.46721,-12.21972 -17.82,-17.68823c-3.1764,-2.73425 -6.35249,-5.50726 -8.99804,-8.7579c-2.64555,-3.25065 -4.75694,-7.0702 -5.29066,-11.22722c-0.45856,-3.57158 0.29318,-7.26664 1.98547,-10.4451c1.69229,-3.17846 4.30296,-5.83975 7.37495,-7.7184c6.14399,-3.75729 13.92465,-4.27126 20.87742,-2.39382c6.95278,1.87744 13.14609,5.96109 18.46775,10.81349c5.32166,4.8524 9.86096,10.48533 14.46153,16.02615c10.54041,12.69465 21.40571,25.11547 32.1087,37.67335c0.32433,0.38054 0.32433,0.38054 0.32433,0.38054" stroke="#ff0000"></path><g stroke="#ff0000"><line x1="165.65072" y1="510.59353" x2="228.81784" y2="516.87584"></line><polyline points="222.29955,524.4595 228.81784,516.87584 223.92093,508.15688"></polyline></g><line x1="228.81784" y1="516.87584" x2="561.69298" y2="907.44049" stroke="#000000"></line><path d="M561.69298,907.44049c0.32433,0.38054 0.32433,0.38054 0.32433,0.38054c10.70304,12.55794 21.61218,24.94228 32.1087,37.67335c4.63034,5.61607 9.17355,11.34352 14.5053,16.2986c5.33175,4.95507 11.54385,9.1523 18.55025,11.12477c7.0064,1.97248 14.88049,1.53057 21.11672,-2.22306c3.11812,-1.87681 5.77267,-4.55323 7.49397,-7.75981c1.7213,-3.20658 2.48628,-6.94281 2.01762,-10.55188c-0.53967,-4.15592 -2.65251,-7.97332 -5.29808,-11.22352c-2.64557,-3.25021 -5.82034,-6.02402 -8.99547,-8.75925c-6.35025,-5.47045 -12.37832,-11.31152 -17.81515,-17.69058c-0.32433,-0.38054 -0.32433,-0.38054 -0.32433,-0.38054" stroke="#ff0000"></path><g stroke="#ff0000"><line x1="561.69298" y1="907.44049" x2="625.37685" y2="914.32911"></line><polyline points="618.79342,921.85629 625.37685,914.32911 620.55528,905.56826"></polyline></g><line x1="625.37685" y1="914.32911" x2="291.98496" y2="523.15815" stroke="#000000"></line><path d="M291.98496,523.15815c-0.32433,-0.38054 -0.32433,-0.38054 -0.32433,-0.38054c-5.43725,-6.37957 -11.46721,-12.21972 -17.82,-17.68823c-3.1764,-2.73425 -6.35249,-5.50726 -8.99804,-8.7579c-2.64555,-3.25065 -4.75694,-7.0702 -5.29066,-11.22722c-0.45856,-3.57158 0.29318,-7.26664 1.98547,-10.4451c1.69229,-3.17846 4.30296,-5.83975 7.37495,-7.7184c6.14399,-3.75729 13.92465,-4.27126 20.87742,-2.39382c6.95278,1.87744 13.14609,5.96109 18.46775,10.81349c5.32166,4.8524 9.86096,10.48533 14.46153,16.02615c10.54041,12.69465 21.40571,25.11547 32.1087,37.67335c0.32433,0.38054 0.32433,0.38054 0.32433,0.38054" stroke="#ff0000"></path><g stroke="#ff0000"><line x1="291.98496" y1="523.15815" x2="355.15208" y2="529.44047"></line><polyline points="348.63378,537.02412 355.15208,529.44047 350.25517,520.72151"></polyline></g><line x1="745.99644" y1="920.18871" x2="418.3192" y2="535.72278" stroke="#000000"></line><path d="M418.3192,535.72278c-0.32433,-0.38054 -0.32433,-0.38054 -0.32433,-0.38054c-5.36807,-6.29839 -10.99952,-12.36571 -16.78732,-18.28071c-5.78779,-5.91501 -11.71129,-11.94595 -15.32138,-19.39264c-2.97333,-6.13322 -4.18661,-13.08617 -3.61769,-19.87834c0.56892,-6.79216 2.90278,-13.41076 6.59222,-19.14184c7.37886,-11.46215 20.09494,-19.05228 33.54903,-21.24686c13.45409,-2.19458 27.49893,0.76252 39.53203,7.16823c12.0331,6.40571 22.12123,16.12124 30.00838,27.23976c15.77431,22.23703 22.70737,49.36643 29.35997,75.80613c6.65259,26.43969 13.64492,53.56413 29.50869,75.73743c9.60404,13.42387 21.40211,25.11124 32.1087,37.67335c0.32433,0.38054 0.32433,0.38054 0.32433,0.38054" stroke="#ff0000"></path><g stroke="#ff0000"><line x1="418.3192" y1="535.72278" x2="583.25182" y2="661.40729"></line><polyline points="573.72475,664.44617 583.25182,661.40729 583.65466,651.4154"></polyline></g><line x1="583.25182" y1="661.40729" x2="803.94045" y2="920.34274" stroke="#000000"></line><path d="M803.94045,920.34274c0.32433,0.38054 0.32433,0.38054 0.32433,0.38054c10.7035,12.55848 20.98343,25.48694 32.1087,37.67335c36.07557,39.51654 83.77269,67.9148 135.16739,82.80068c51.39469,14.88588 106.34091,16.44398 158.92512,6.54934c105.16843,-19.78928 198.35866,-84.62822 266.6511,-167.0185c10.52981,-12.70351 20.66707,-25.72664 31.00078,-38.59018c0.31314,-0.3898 0.31314,-0.3898 0.31314,-0.3898" stroke="#ff0000"></path><g stroke="#ff0000"><line x1="803.94045" y1="920.34274" x2="1428.431" y2="841.74818"></line><polyline points="1423.76299,850.5918 1428.431,841.74818 1421.71726,834.33699"></polyline></g><line x1="98.14035" y1="634.87942" x2="275.53106" y2="843.01314" stroke="#000000"></line><path d="M275.53106,843.01314c0.32433,0.38054 0.32433,0.38054 0.32433,0.38054c10.70487,12.56009 22.20163,24.47486 32.1087,37.67335c5.25545,7.00147 9.89576,14.4606 15.39267,21.27413c5.49691,6.81353 11.98789,13.05824 19.92072,16.761c3.96642,1.85138 8.26406,3.03981 12.63548,3.26505c4.37142,0.22525 8.81638,-0.53005 12.77889,-2.38979c3.96251,-1.85973 7.42356,-4.844 9.66133,-8.60598c2.23777,-3.76198 3.20948,-8.30177 2.4956,-12.62039c-0.68223,-4.12712 -2.82985,-7.89327 -5.47581,-11.13325c-2.64597,-3.23998 -5.78919,-6.03354 -8.93379,-8.79217c-6.28921,-5.51726 -12.27223,-11.38056 -17.69909,-17.74793c-0.32433,-0.38054 -0.32433,-0.38054 -0.32433,-0.38054" stroke="#ff0000"></path><g stroke="#ff0000"><line x1="275.53106" y1="843.01314" x2="348.41575" y2="860.69717"></line><polyline points="340.91024,867.3053 348.41575,860.69717 344.77319,851.38419"></polyline></g><line x1="355.15208" y1="529.44047" x2="686.61352" y2="918.34642" stroke="#000000"></line><path d="M686.61352,918.34642c0.32433,0.38054 0.32433,0.38054 0.32433,0.38054c10.70303,12.55794 21.20584,25.2885 32.1087,37.67335c4.40185,5.00019 8.91812,9.95086 14.16297,14.05814c5.24485,4.10728 11.2892,7.36548 17.84378,8.55529c6.55458,1.18981 13.65516,0.15827 19.13286,-3.63289c2.73885,-1.89558 5.03298,-4.45432 6.51268,-7.43845c1.4797,-2.98413 2.12865,-6.39282 1.73063,-9.6998c-0.50104,-4.16292 -2.6044,-7.99438 -5.24988,-11.24743c-2.64548,-3.25305 -5.82879,-6.0216 -9.01216,-8.75054c-6.36673,-5.45788 -12.40704,-11.29304 -17.84666,-17.67538c-0.32433,-0.38054 -0.32433,-0.38054 -0.32433,-0.38054" stroke="#ff0000"></path><g stroke="#ff0000"><line x1="686.61352" y1="918.34642" x2="745.99644" y2="920.18871"></line><polyline points="740.00942,928.19843 745.99644,920.18871 740.51745,911.82327"></polyline></g><polygon points="462.60206,540.12695 840.30561,919.80456 826.57865,920.23527 760.89846,920.54708 699.79096,919.07753 643.2432,915.94014 591.24592,911.25148 543.79435,905.13238 501.15225,897.75566 56.87694,789.96105 132.09766,507.2565" stroke="#000000"></polygon><path d="M826.57865,920.23527c-0.49975,0.01568 -0.49975,0.01568 -0.49975,0.01568c-21.55386,0.67629 -43.12235,0.8266 -64.68058,0.30815c-0.49986,-0.01202 -0.49986,-0.01202 -0.49986,-0.01202" stroke="#ff0000"></path><g stroke="#ff0000"><line x1="826.57865" y1="920.23527" x2="760.89846" y2="920.54708"></line><polyline points="766.59527,912.32842 760.89846,920.54708 766.67305,928.71128"></polyline></g></g></svg>