<?xml version="1.0" encoding="UTF-8" standalone="no"?>
<svg
   xmlns:dc="http://purl.org/dc/elements/1.1/"
   xmlns:cc="http://creativecommons.org/ns#"
   xmlns:rdf="http://www.w3.org/1999/02/22-rdf-syntax-ns#"
   xmlns:svg="http://www.w3.org/2000/svg"
   xmlns="http://www.w3.org/2000/svg"
   xmlns:sodipodi="http://sodipodi.sourceforge.net/DTD/sodipodi-0.dtd"
   xmlns:inkscape="http://www.inkscape.org/namespaces/inkscape"
   x="0"
   y="0"
   width="1581.882"
   height="1838.0466"
   version="1.1"
   id="svg2"
   inkscape:version="0.48+devel r"
   sodipodi:docname="maleficient.svg">
  <metadata
     id="metadata302">
    <rdf:RDF>
      <cc:Work
         rdf:about="">
        <dc:format>image/svg+xml</dc:format>
        <dc:type
           rdf:resource="http://purl.org/dc/dcmitype/StillImage" />
        <dc:title></dc:title>
      </cc:Work>
    </rdf:RDF>
  </metadata>
  <defs
     id="defs300" />
  <sodipodi:namedview
     pagecolor="#ffffff"
     bordercolor="#666666"
     borderopacity="1"
     objecttolerance="10"
     gridtolerance="10"
     guidetolerance="10"
     inkscape:pageopacity="0"
     inkscape:pageshadow="2"
     inkscape:window-width="2560"
     inkscape:window-height="1378"
     id="namedview298"
     showgrid="false"
     fit-margin-top="0"
     fit-margin-left="0"
     fit-margin-right="0"
     fit-margin-bottom="0"
     inkscape:zoom="0.65517714"
     inkscape:cx="1003.0929"
     inkscape:cy="934.57553"
     inkscape:window-x="0"
     inkscape:window-y="27"
     inkscape:window-maximized="1"
     inkscape:current-layer="g4" />
  <g
     stroke-miterlimit="10"
     font-weight="normal"
     font-size="12"
     mix-blend-mode="normal"
     id="g4"
     style="font-weight:normal;font-size:12px;font-family:sans-serif;text-anchor:start;fill:none;stroke:none;stroke-width:2;stroke-linecap:butt;stroke-linejoin:miter;stroke-miterlimit:10;stroke-dasharray:none;stroke-dashoffset:0"
     transform="translate(70.288561,-18.694879)">
    <polygon
       points="498.94166,28.19166 516.03989,33.05929 534.5001,40.79859 553.43292,52.06266 571.94894,67.50462 589.15874,87.77755 604.17294,113.53456 608.24605,124.12993 611.35037,137.7287 612.66656,154.14948 611.37521,173.21089 606.65683,194.73158 597.69202,218.53016 583.66142,244.42524 563.7456,272.23547 537.1251,301.77946 502.98058,332.87584 489.19491,344.83945 476.95196,356.51219 466.27958,367.93154 457.20563,379.13489 449.75798,390.15962 443.96448,401.04319 439.85302,411.823 437.4514,422.53643 436.78755,433.22094 437.88929,443.91393 443.7329,460.70406 454.70634,480.02291 469.45645,500.8586 486.63013,522.19923 504.87415,543.03291 522.83545,562.34775 539.16083,579.13186 552.49714,592.37332 561.49123,601.06028 564.78998,604.18075 567.29057,603.02575 574.34052,599.88129 585.26188,595.2284 599.37685,589.54794 616.00756,583.32088 634.47613,577.02824 654.10471,571.15085 674.21543,566.16977 694.13049,562.56583 713.17196,560.82009 731.46555,561.55502 749.46316,564.64693 766.97631,569.45738 783.81637,575.34789 799.79478,581.67996 814.72296,587.81509 828.41234,593.11482 840.67443,596.94071 851.32058,598.65425 860.16226,597.61696 869.31224,591.84079 880.58889,580.55097 893.36213,564.92908 907.00174,546.1565 920.87766,525.41481 934.35981,503.88547 946.8179,482.74992 957.62198,463.18972 966.14184,446.38632 971.74738,433.52122 973.00978,422.42177 969.50688,410.36402 962.11826,397.7024 951.72334,384.79134 939.20171,371.98532 925.43296,359.63875 911.29671,348.10611 897.67234,337.74183 885.43957,328.90034 875.47788,321.93613 865.44617,313.8845 852.98582,301.89457 838.95018,286.49145 824.19249,268.20025 809.5661,247.54606 795.92427,225.05401 784.12034,201.24919 775.00756,176.65671 769.43923,151.80168 768.26865,127.2092 773.80417,104.53555 786.55989,84.97315 804.69791,68.35135 826.38043,54.49949 849.76956,43.2469 873.02737,34.42292 894.31609,27.85691 911.79774,23.37819 923.63449,20.81611 927.98847,20 927.68045,20.85237 926.66978,23.23328 924.82692,26.87845 922.02213,31.52359 918.12565,36.90443 913.00793,42.75668 906.53923,48.81607 898.58981,54.8183 889.03,60.4991 877.73022,65.59418 872.55032,68.32073 867.92987,72.17015 863.81672,76.98939 860.15867,82.62538 856.9036,88.92505 853.99932,95.73534 851.39362,102.90317 849.03443,110.27548 846.86948,117.6992 844.84669,125.02126 843.95836,132.19553 845.09173,139.35666 848.03671,146.62282 852.58323,154.11215 858.52134,161.9428 865.64088,170.23291 873.7319,179.10065 882.5843,188.66414 891.9881,199.04156 901.73322,210.35104 913.18923,221.42422 927.48092,231.19776 944.03048,239.94734 962.26047,247.94865 981.59311,255.47736 1001.4508,262.80915 1021.2561,270.21972 1040.4312,277.98474 1058.3986,286.37987 1074.5807,295.68081 1088.2838,306.30328 1099.4007,318.43542 1108.2334,332.01161 1115.0839,346.9662 1120.254,363.23356 1124.0457,380.74803 1126.761,399.444 1128.7016,419.25584 1130.1697,440.11787 1131.4672,461.96449 1129.7584,486.88514 1122.7854,516.13794 1111.7167,548.41012 1097.7204,582.38887 1081.965,616.76144 1065.6189,650.21508 1049.8503,681.43701 1035.8279,709.11449 1024.7196,731.93473 1017.6942,748.58499 1011.9508,768.71408 1004.304,800.65805 995.34429,841.13497 985.66267,886.86299 975.84971,934.56011 966.49633,980.94449 958.19308,1022.7342 951.5308,1056.6474 947.10014,1079.402 945.49203,1087.7162 944.24492,1082.9617 940.7661,1069.8975 935.44942,1050.322 928.68865,1026.0337 920.87766,998.83096 912.41039,970.51246 903.68042,942.87648 895.0818,917.72174 887.00835,896.84658 879.85377,882.04952 873.61812,872.45978 868.03888,865.7187 863.11597,861.39314 858.84952,859.04986 855.2394,858.25563 852.28569,858.57725 849.98835,859.58154 848.34737,860.83521 847.36282,861.90513 847.03459,862.35801 711.38217,952.06367 577.91765,875.48568 577.8914,875.14876 577.70759,874.36548 577.20873,873.47715 576.2373,872.82517 574.63571,872.75076 572.24649,873.59528 568.91204,875.70008 564.47492,879.40647 558.7775,885.05573 551.6623,892.98924 543.7507,905.51739 535.89164,923.6379 528.26884,945.72302 521.0661,970.14485 514.46728,995.27555 508.65608,1019.4874 503.81636,1041.1524 500.13187,1058.6427 497.7864,1070.3308 496.96374,1074.5885 496.46271,1074.0043 495.05585,1072.278 492.88761,1069.449 490.10236,1065.5567 486.8445,1060.6404 483.25848,1054.7395 479.48865,1047.8934 475.67945,1040.1415 471.97525,1031.5232 468.5205,1022.0778 464.32839,1007.911 458.61349,986.19564 451.8221,958.57279 444.4006,926.68358 436.79532,892.16876 429.45257,856.66938 422.81874,821.82637 417.34014,789.28075 413.46309,760.67339 411.63397,737.64527 408.62556,717.37397 401.48191,695.98687 391.05637,673.54949 378.20221,650.12755 363.77271,625.78669 348.62121,600.59253 333.60098,574.61074 319.56534,547.90686 307.36755,520.54664 297.86093,492.59568 291.83753,465.34048 289.31921,439.96252 290.00403,416.36993 293.59007,394.47081 299.77539,374.17326 308.25805,355.38538 318.7361,338.01532 330.90764,321.97113 344.47069,307.16094 359.12333,293.49287 376.62033,279.97795 398.01622,265.71474 421.95888,250.74265 447.09614,235.10105 472.07591,218.82932 495.54595,201.96684 516.15419,184.553 532.54846,166.62719 543.37657,148.22878 547.28646,129.39715 544.89719,111.03812 538.41216,94.11 528.85519,78.73095 517.25036,65.01911 504.62155,53.09264 491.99274,43.06967 480.38789,35.06837 470.83097,29.20687 464.34591,25.60333 461.95666,24.37589 464.71292,24.28782 472.38877,24.45903 484.09483,25.54261 "
       id="polygon6"
       style="stroke:#000000" />
    <polyline
       points="1041.00614,375.60534 1035.28863,365.80744 1036.52727,367.1592"
       id="polyline16"
       style="stroke:#000000" />
    <polyline
       points="770.09358,1779.55407 991.16597,1403.88559 943.60416,1395.99023 944.85161,1394.53404 949.35127,1388.47641 956.66787,1378.80816 966.74953,1365.94778 979.54232,1350.31245 994.99368,1332.32086 1013.05246,1312.39293 1033.66369,1290.94602 1056.77396,1268.39866 1082.32239,1245.17569 1108.02244,1223.89331 1131.73565,1206.61918 1153.61728,1192.96112 1173.81496,1182.5253 1192.48273,1174.91466 1209.78563,1169.73075 1225.90075,1166.57413 1241.01839,1165.05005 1255.33751,1164.77631 1268.90151,1165.37567 1280.02466,1167.05024 1287.74841,1169.90076 1293.21689,1173.55532 1297.51222,1177.92458 1301.52009,1183.03256 1306.03559,1188.70821 1311.89589,1194.48485 1319.83312,1199.6383 1330.32165,1203.4864 1343.64036,1205.61697 1360.13638,1206.60543 1379.40668,1207.22413 1400.5649,1207.55465 1422.51723,1207.66154 1444.15635,1207.61033 1464.36936,1207.4662 1477.78219,1207.3936 1473.09804,1210.18948 1459.45388,1218.50129 1445.01344,1226.79216 1430.62745,1234.34736 1417.22132,1240.43603 1405.94251,1244.30983 1397.58743,1245.56283 1391.09056,1245.23449 1385.40284,1244.31969 1380.42132,1242.82423 1375.28756,1240.58938 1369.28793,1237.37329 1361.9107,1233.01792 1352.73408,1227.47126 1341.33674,1220.72094 1327.26993,1212.74961 1306.82366,1201.83946 1285.37172,1203.3156 1266.05866,1209.44145 1247.55745,1218.78167 1230.05777,1230.17382 1213.83505,1242.5232 1199.3513,1254.88715 1187.08875,1266.26746 1177.55172,1275.65362 1171.26718,1282.0228 1147.13918,1309.05714 1182.40858,1311.73617 1189.00061,1312.5567 1198.91581,1313.68906 1211.22489,1315.12686 1224.98726,1316.86176 1239.24504,1318.88161 1253.00318,1321.16946 1265.17526,1323.67428 1274.38646,1326.2234 1279.731,1328.55572 1283.62454,1331.05576 1288.02169,1334.32943 1292.56656,1338.42727 1297.67661,1343.93664 1303.60766,1351.43561 1310.50008,1361.42618 1318.44975,1374.34044 1324.9494,1386.13875 1309.76535,1382.3894 1276.54888,1379.16729 1244.51693,1380.16031 1213.70747,1384.71989 1184.08409,1392.14558 1155.53595,1401.73872 1127.9059,1412.82999 1101.02073,1424.7847 1074.26197,1437.20245 1047.83352,1450.5903 1022.28339,1466.105 997.19286,1484.37988 971.79317,1506.13102 952.0572,1525.2508 1036.49488,1382.57387 994.4872,1375.38331 1000.99055,1367.91873 1016.11647,1350.62153 1033.78806,1331.4345 1053.93633,1310.77317 1076.49628,1289.057 1101.32666,1266.78271 1125.97849,1246.65642 1148.28334,1230.69769 1168.42611,1218.41355 1186.52953,1209.34151 1202.77446,1203.0044 1217.41329,1198.8986 1230.79271,1196.55273 1243.33126,1195.56845 1244.47991,1195.99973 1236.27667,1199.72536 1216.91376,1212.08034 1199.40308,1225.25035 1183.9661,1238.26756 1170.94911,1250.15099 1160.80198,1259.93484 1154.01364,1266.59839 1098.51029,1329.20932 1180.79453,1335.16968 1187.22221,1336.15249 1196.92482,1337.45331 1208.96062,1339.06394 1222.36124,1340.9718 1236.12067,1343.14303 1249.14944,1345.53389 1260.14824,1348.0465 1267.1592,1350.31908 1269.324,1351.74348 1270.58606,1353.09829 1272.86269,1355.35678 1242.16945,1356.98544 1208.82545,1361.65099 1177.08525,1369.30884 1146.85578,1379.06417 1117.995,1390.20452 1090.30651,1401.9969 1062.73117,1414.21299 1039.76375,1425.05507 1077.48543,1363.30187 1044.74225,1356.81485 1053.21917,1349.27816 1071.66404,1331.92893 1179.45086,1354.67761 1173.22188,1356.7029 1141.42969,1364.88999 1110.79724,1373.77286 1089.13871,1379.15276 1099.3223,1361.84778"
       id="polyline26"
       style="stroke:#000000" />
    <polyline
       points="545.64549,1029.18864 584.48148,1014.42009 680.20396,1045.59825"
       id="polyline36"
       style="stroke:#000000" />
    <polyline
       points="464.71337,24.37977 472.3835,24.55085 484.07017,25.72494 498.87953,28.46066 515.91804,33.40686 534.29276,41.20998 553.11314,52.51449 571.4936,67.96396 588.55479,88.20491 603.42196,113.89491 607.35999,124.39987 610.34196,137.88338 611.55237,154.15635 610.1792,173.04023 605.40829,194.36165 596.42215,217.95023 582.39851,243.6352 562.5117,271.24289 535.93579,300.59646 501.8046,331.55309 487.94015,343.46016 475.5594,355.13344 464.72933,366.58231 455.4768,377.85455 447.83191,389.00078 441.83009,400.07264 437.51482,411.11902 434.9374,422.17885 434.15203,433.27448 435.21254,444.50913 441.15385,461.87363 452.24191,481.58969 467.05075,502.67541 484.2477,524.19951 502.49301,545.18175 520.44123,564.62481 536.74366,581.5243 550.04985,594.8724 559.00741,603.6588 564.06887,608.5801 568.85652,606.47547 575.89354,603.4433 586.78611,598.90841 600.85412,593.3517 617.4141,587.2554 635.77927,581.10116 655.2584,575.37086 675.15205,570.54455 694.74715,567.09814 713.29188,565.49678 730.96425,566.30526 748.40449,569.40128 765.49787,574.1985 782.04757,580.09172 797.86324,586.46558 812.77372,592.70027 826.64488,598.17718 839.42142,602.26792 851.2005,604.2647 862.09674,603.08665 872.93043,596.36539 884.93876,584.48398 898.08115,568.56795 911.97055,549.6217 926.04639,528.76102 939.70713,507.13492 952.33917,485.90117 963.32902,466.21148 972.07627,449.18074 978.24859,435.26518 979.87633,421.83851 975.85531,407.63884 967.86392,393.74586 957.00662,380.10105 944.15447,366.81396 930.15171,354.1227 915.85076,342.32612 902.11549,331.7503 889.82008,322.73815 880.07588,315.80198 870.57779,308.04833 858.62544,296.40619 845.00016,281.30253 830.63082,263.33083 816.40126,243.06115 803.17925,221.06451 791.81912,197.92501 783.15433,174.24663 777.97366,150.65136 777.00083,128.0496 781.98282,108.07699 793.39217,90.76777 810.19657,75.50766 830.8158,62.45767 853.40131,51.70634 876.05067,43.2237 896.87039,36.91045 907.85892,34.20188 906.08828,36.06972 900.2744,41.37417 893.10757,46.65605 884.44254,51.68498 873.33144,56.58166 866.88804,59.85604 860.7123,64.8662 855.51597,70.79478 851.12106,77.37472 847.35782,84.43095 844.0913,91.82512 841.21711,99.42665 838.65192,107.10092 836.32571,114.70553 833.96579,122.85673 832.6809,132.38597 834.15942,142.39424 837.83663,151.74437 843.07672,160.57692 849.50291,169.2236 856.88731,177.982 865.04828,187.08095 873.80955,196.70063 882.99253,206.99079 892.92069,218.67361 905.44284,230.92339 921.10467,241.76118 938.62317,251.14235 957.46704,259.52829 977.11185,267.29225 997.01162,274.75248 1016.5928,282.19279 1035.25461,289.86472 1052.36922,297.97882 1067.23159,306.64396 1079.25976,316.10263 1088.78868,326.65922 1096.38657,338.53253 1102.38082,351.87341 1107.00219,366.76538 1110.452,383.20357 1112.94652,401.12284 1114.73011,420.4315 1116.07225,441.03252 1117.2041,461.89929 1115.53189,484.71707 1108.89206,512.10965 1098.09043,543.27227 1084.27125,576.53927 1068.61378,610.44087 1052.29436,643.59537 1036.47851,674.67298 1022.30943,702.40036 1010.8716,725.64827 1003.22519,743.48939 997.03021,764.80153 989.1682,797.17153 980.05572,837.82449 970.24114,883.6441 960.30397,931.39358 950.83103,977.80877 942.89027,1017.2014 936.42334,994.27513 928.0016,965.71931 919.28225,937.74644 910.62102,912.06349 902.28906,890.21053 894.47931,873.80205 887.23162,862.45118 880.26022,853.85298 872.9885,847.31505 864.96261,842.77962 856.18725,840.73475 847.74836,841.54087 841.02255,844.35818 836.40342,847.74539 835.20259,848.88403 710.71686,931.07026 591.79271,862.70528 590.88025,860.85045 582.16444,854.86518 571.90635,854.27535 564.15075,856.89619 557.96306,860.66705 551.89429,865.58765 545.1603,872.10395 536.5315,881.55417 526.89122,896.6059 518.05092,916.70194 509.93721,939.85946 502.41881,964.94808 495.58281,990.5305 489.57581,1015.06674 488.5005,1019.35437 487.34353,1015.85734 483.52425,1002.54626 478.03872,981.25192 471.4275,953.88152 464.17312,922.20452 456.73385,887.91017 449.56294,852.67538 443.11331,818.18668 437.83955,786.16707 434.19841,758.44653 432.4734,735.27406 429.2027,712.45061 421.20453,688.13985 410.0799,663.92326 396.8128,639.50833 382.26682,614.74401 367.27626,589.59186 352.66964,564.09317 339.27005,538.34835 327.87811,512.50607 319.20112,486.62813 313.8415,461.82997 311.71235,439.17967 312.42996,418.52188 315.64584,399.61298 321.07833,382.19042 328.50978,366.01742 337.75794,350.9145 348.64099,336.76387 360.9538,323.4935 374.22694,311.2735 390.29183,299.01376 410.78842,285.49246 434.48079,270.81663 459.8677,255.15923 485.57591,238.55439 510.32474,220.91905 532.91558,201.98504 552.15987,181.11853 566.42,157.12225 572.1033,130.33196 568.92196,104.9642 567.1873,100.10337 568.79763,102.18515 581.59115,124.37008 584.18823,131.45923 586.37141,141.56034 587.27246,154.30615 586.11544,169.60644 582.07968,187.44974 574.2718,207.83446 561.73917,230.71136 543.51066,255.95801 518.63391,283.38634 485.5906,313.31566 471.49735,325.38551 458.17415,337.92052 446.25127,350.50016 435.76401,363.25567 426.78157,376.33553 419.43037,389.88712 413.91284,404.01291 410.49556,418.70236 409.43738,433.77649 410.97647,449.89823 418.57888,472.11104 431.36262,494.86386 447.30117,517.59042 465.27893,540.12569 484.0883,561.79099 502.45954,581.72662 519.0886,598.99871 532.65202,612.63836 541.80825,621.6523 559.2016,638.27433 579.1664,629.18781 585.87241,626.33095 596.35047,622.00012 609.912,616.67449 625.84509,610.8395 643.41966,604.98094 661.87757,599.58263 680.41325,595.11854 698.14008,592.03574 713.93842,590.71101 728.31468,591.41181 742.91675,594.04596 757.97847,598.31204 773.21703,603.77479 788.39504,609.92412 803.38813,616.22244 818.28395,622.12463 833.59607,627.03443 850.65165,629.90748 870.79181,627.6718 888.92886,616.37163 903.8656,601.59701 918.29253,584.15311 932.92249,564.23338 947.50989,542.65641 961.5803,520.42681 974.59203,498.60189 985.9981,478.21428 995.31338,460.12274 1003.3489,441.99837 1006.02212,419.61761 999.70064,397.40281 989.15717,379.08304 976.32948,362.94697 962.03446,348.14483 946.96885,334.46404 931.87626,321.98659 917.55463,310.9308 904.85236,301.59179 895.66116,295.00979 887.7617,288.50514 877.28551,278.24654 864.78286,264.33542 851.43942,247.59293 838.23984,228.73171 826.09616,208.46252 815.86565,187.54222 808.31792,166.80242 804.04438,147.1374 803.3857,130.58891 806.43058,118.66312 812.69732,109.29197 810.12437,118.11397 808.17405,132.79981 810.59554,148.94152 816.02777,162.6948 822.91248,174.28931 830.5246,184.54526 838.60999,194.16197 847.05697,203.61506 855.77036,213.22209 864.64132,223.20744 875.07952,235.52283 889.87769,250.01045 908.38777,262.82904 927.91865,273.30444 948.0466,282.28556 968.36864,290.34381 988.41249,297.8876 1007.62401,305.22029 1025.36825,312.55326 1040.93402,319.97704 1053.38929,327.29352 1062.37828,334.43452 1069.07035,341.93993 1074.51893,350.56927 1079.08582,360.87229 1082.85815,373.20015 1085.84398,387.64872 1088.09908,404.14249 1089.76094,422.53259 1091.03786,442.65674 1092.03477,461.78425 1090.58371,480.91504 1084.67785,505.08889 1074.48505,534.37173 1061.11209,566.46633 1045.75943,599.62147 1029.61989,632.33053 1013.85616,663.22963 999.57275,691.10783 987.71789,715.13738 979.17464,735.01941 972.37403,758.33606 964.30182,791.44357 955.08574,832.41767 945.20056,878.41747 937.69979,914.16701 934.19721,903.47877 925.34629,880.19732 916.42896,861.42447 907.55313,847.51088 898.40675,836.23447 887.57074,826.52095 873.94508,818.8724 857.57284,815.12251 841.14942,816.76375 828.04955,822.33085 819.20873,828.9011 818.57854,829.37002 709.76863,901.14971 610.59332,844.0773 610.17369,843.03148 590.48812,829.64335 568.09215,828.45648 552.8926,833.674 542.81187,839.86438 534.5695,846.55773 526.49816,854.35376 515.89389,865.95736 504.00392,884.50826 493.9446,907.3301 489.2697,920.41558 488.55437,916.68144 481.21576,882.68119 474.15207,847.79188 467.8241,813.75498 462.69811,782.39127 459.24137,755.75705 457.53986,732.42187 453.85383,706.55249 444.73707,678.77699 432.68778,652.4833 418.84233,626.93826 404.07234,601.72412 389.18541,576.67229 374.97741,551.78903 362.23265,527.20946 351.68564,503.17302 343.87472,479.72842 339.18369,457.78689 337.40416,438.28151 338.06167,420.98146 340.75938,405.46805 345.2447,391.2852 351.39983,378.03456 359.18001,365.44132 368.54011,353.36324 379.38385,341.75521 391.05521,331.08448 405.47188,320.15005 424.9218,307.37794 448.29101,292.95591 473.90663,277.20785 500.36677,260.16555 518.65351,247.227 501.34724,266.19135 469.38157,295.08381 455.05018,307.30607 440.77335,320.69221 427.74483,334.39331 416.00802,348.6248 405.67134,363.63424 396.95229,379.66598 390.21293,396.87732 385.93606,415.20913 384.58518,434.28129 386.58442,455.32201 395.83902,482.42323 410.31375,508.24585 427.37602,532.63803 446.12494,556.20738 465.48783,578.5769 484.27094,599.02521 501.21422,616.69017 515.02137,630.64208 524.36242,639.90386 554.25964,668.42427 589.64484,652.27149 596.02458,649.61606 606.09063,645.51627 619.14554,640.44956 634.44823,634.90514 651.22387,629.37273 668.64552,624.33865 685.79816,620.27034 701.6163,617.58547 714.60154,616.57176 725.59428,617.18959 737.27657,619.37519 750.24275,623.11927 764.12416,628.16139 778.6361,634.10302 793.70591,640.48806 809.65058,646.85239 827.57522,652.63211 850.08383,656.43713 879.79694,653.13363 905.51493,637.11273 923.50791,619.35694 939.28951,600.34405 954.71259,579.42957 969.8563,557.12339 984.3791,534.28118 997.81285,511.85507 1009.67996,490.75332 1019.61596,471.56644 1029.62954,449.04817 1033.428,417.28968 1024.72304,386.6615 1011.52748,363.67855 996.65329,344.90428 980.86242,328.48589 964.69831,313.73891 980.34583,319.59014 999.20015,326.84865 1016.07166,333.8883 1030.1684,340.68717 1040.34232,346.75663 1046.44827,351.7332 1050.44182,356.37611 1053.83992,361.95174 1057.03585,369.39022 1059.98261,379.29686 1062.50655,391.86436 1064.51173,407.00901 1066.03321,424.52922 1067.22331,444.20183 1068.06693,461.67469 1066.80185,477.29075 1061.57326,498.38987 1051.93968,525.87087 1038.97163,556.83647 1023.88944,589.26807 1007.90131,621.54058 992.1669,652.25829 977.75244,680.27044 965.47474,705.03985 956.04652,726.87429 948.63757,752.11176 940.33803,785.92352 930.99616,827.20149 928.86761,836.28163 927.07787,833.15636 915.86249,819.28666 901.61353,806.49612 882.60487,795.82402 858.91013,790.40302 834.77421,792.82667 815.5038,801.02896 802.72416,810.53452 708.85614,872.35669 628.70871,826.12825 628.7891,825.83872 598.5301,805.2751 564.40201,803.47744 541.98566,811.17624 528.11291,819.68259 517.73965,828.07147 508.34403,837.08676 498.80075,847.40757 498.11774,843.03221 491.94139,809.42972 486.9892,778.70167 483.74427,753.12558 482.09974,729.62733 478.04011,700.76559 467.85637,669.57854 454.9279,641.22944 440.5419,614.55646 425.581,588.88148 410.82666,563.9107 397.04687,539.61633 384.98601,516.17209 375.31452,493.91 368.40484,472.86884 365.80267,460.0116 376.4053,491.23613 392.28879,519.70536 410.27863,545.5501 429.65928,570.03195 449.46519,593.03644 468.56922,613.9586 485.75217,631.99401 499.74062,646.24617 509.21277,655.75319 549.9593,694.65982 598.78385,672.40443 604.89928,669.97114 614.6245,666.12004 627.25488,661.32996 642.03557,656.12929 658.13522,650.97393 674.66447,646.35491 690.60802,642.73617 704.73472,640.50544 715.19889,639.86793 723.13304,640.51162 732.15167,642.39041 743.18346,645.75728 755.78772,650.51929 769.64854,656.37073 784.74693,662.94107 801.62555,669.83776 821.95215,676.5386 849.55108,681.32763 888.28323,677.12845 921.21721,656.74864 942.18686,636.24583 959.34921,615.81224 975.62344,594.01259 991.39645,571.0684 1006.45428,547.69582 1020.40148,524.74744 1032.82825,503.00985 1042.35222,485.03906 1040.2593,492.21003 1031.02458,517.98472 1018.31261,547.85095 1003.35998,579.54929 987.39258,611.3517 971.55979,641.83434 956.89663,669.91208 944.08312,695.32889 933.66149,718.99086 925.5214,746.05012 916.8502,780.51311 914.9832,787.01963 891.0362,773.38368 860.22148,766.16304 828.47393,769.17089 803.01001,779.81529 788.40745,790.40961 707.92877,843.09419 642.90557,805.26175 606.73096,780.42543 560.60891,777.80134 530.6818,787.85976 515.17472,797.05701 511.95359,774.9098 509.15697,750.39639 507.7975,726.70331 503.57905,694.65505 497.70356,675.34918 545.57869,721.38502 608.16686,693.07492 614.08646,691.04294 623.53088,687.62315 635.78843,683.30266 650.0567,678.56688 665.47489,673.91382 681.08315,669.83334 695.75664,666.78432 708.08516,665.13069 715.84377,665.01711 720.46445,665.79846 726.57119,667.45153 735.46426,670.51153 746.63548,675.06512 759.74212,680.91502 774.8368,687.77783 792.71696,695.35383 815.68689,703.17539 848.9553,709.16311 897.80852,704.06101 922.54959,689.20064 912.42192,711.51084 903.52827,740.28296 899.8197,752.9493 899.13678,751.82363 861.48182,742.86584 822.41984,746.43953 790.99713,759.41817 774.63264,771.04644 707.03573,814.91509 655.70574,784.66283 614.69268,756.30038 556.93346,752.92172 534.09012,760.23856 533.12817,747.82201 533.3015,740.98326 541.0058,749.28334 617.92253,714.56633 623.59119,712.84308 632.70036,709.76149 644.53214,705.8165 658.26739,701.53472 672.98906,697.39911 687.66398,693.90488 701.0437,691.47907 711.53103,690.4573 716.5066,690.86682 717.71225,691.87757 720.79689,693.38312 727.45123,696.20806 737.1122,700.60605 749.39568,706.54952 764.44712,713.81647 783.32883,722.24337 803.43644,729.60833 779.04971,739.13221 760.87459,751.70683 706.13839,786.60023 668.64757,763.83594 625.75794,733.68181 632.00048,732.13072 640.92638,729.62198 652.47142,726.25903 665.82132,722.66541 679.97488,719.23306 693.84898,716.52854 706.06524,714.93365 714.84829,714.83869 716.03181,716.29924 720.31406,719.09584 728.52935,723.62481 739.90852,730.05507 746.37846,734.79322 705.27873,759.47442 681.37354,743.35642 680.19992,739.55787 686.62271,740.01062 699.96886,738.91401 710.3373,740.02528 704.77885,743.70102"
       id="polyline46"
       style="stroke:#000000" />
    <polyline
       points="770.4566,1047.23922 854.14545,1008.95015 898.45128,1016.60799"
       id="polyline48"
       style="stroke:#000000" />
    <polygon
       points="656.13661,1062.5548 665.98234,1077.8704 639.18002,1063.1018 605.81391,1056.5379 579.0116,1068.5717 566.43095,1080.0584 545.09847,1062.5548 570.25982,1047.7862 612.92472,1046.1453 "
       id="polygon58"
       style="stroke:#000000" />
    <polyline
       points="568.36677,1071.71988 571.35579,1075.7733 574.31696,1079.36261 577.29201,1082.51093 580.32282,1085.2416 583.45108,1087.57775 586.71858,1089.54252 590.16709,1091.15932 593.83836,1092.45109 597.77422,1093.44126 602.0164,1094.15297 607.04993,1094.53625 613.09059,1094.57374 619.77642,1094.33739 626.7454,1093.89924 633.63544,1093.33107 640.08455,1092.70482 645.73073,1092.09255 650.21196,1091.56621 653.16614,1091.19756 654.23133,1091.05875 674.73053,1092.99264"
       id="polyline68"
       style="stroke:#000000" />
    <polyline
       points="549.93985,1062.93404 571.064,1050.53514 602.08614,1052.12181 573.14416,1059.63536 566.06204,1066.10165"
       id="polyline78"
       style="stroke:#000000" />
    <polygon
       points="884.77663,1033.0176 894.62241,1047.7862 882.04171,1063.1018 832.81301,1053.2561 788.50713,1061.4608 785.22524,1060.9138 831.17204,1033.0176 858.52129,1035.7525 "
       id="polygon88"
       style="stroke:#000000" />
    <polyline
       points="831.90074,1036.23106 858.52777,1038.89375 881.44812,1040.09698 881.85753,1047.14958 878.01652,1051.82557"
       id="polyline98"
       style="stroke:#000000" />
    <polygon
       points="527.0612,1141.0245 536.14659,1153.2661 546.11385,1166.6679 556.19712,1180.1857 565.63062,1192.7753 573.64851,1203.3924 579.48501,1210.9926 582.37423,1214.5315 584.54867,1218.937 588.4451,1228.8888 593.60394,1242.9713 599.5657,1259.769 605.87095,1277.8663 612.06014,1295.8476 617.67384,1312.2973 622.25252,1325.7996 625.33668,1334.9392 626.46684,1338.3003 625.0288,1336.9682 621.08907,1333.3063 615.20932,1327.8156 607.95106,1320.9974 599.8759,1313.3532 591.5455,1305.384 583.52139,1297.5912 576.36525,1290.4761 570.63861,1284.5399 566.90313,1280.2837 564.03559,1276.5459 560.67135,1271.9169 557.01014,1266.5268 553.25143,1260.5055 549.59485,1253.9828 546.23996,1247.0889 543.3863,1239.9537 541.23348,1232.707 539.98113,1225.4789 539.82872,1218.3993 539.44657,1210.0526 537.60707,1199.4317 534.66294,1187.2792 530.96688,1174.3377 526.87168,1161.3497 522.73007,1149.0579 518.89478,1138.2049 515.71855,1129.5334 513.55416,1123.7859 512.75431,1121.705 514.59924,1124.1997 519.62348,1130.9877 "
       id="polygon108"
       style="stroke:#000000" />
    <polyline
       points="519.22167,1131.28523 526.65959,1141.32234 535.31827,1153.88147 544.85041,1167.60891 554.4904,1181.46167 563.46308,1194.40585 571.01707,1205.3963 576.425,1213.41575 578.52807,1217.0054 579.78591,1221.04021 582.96524,1230.96497 587.45607,1245.1883 592.72663,1262.17403 598.32567,1280.4793 603.811,1298.67487 605.26765,1305.36216 598.69905,1297.96235 591.31149,1289.66361 584.85837,1282.11022 580.09442,1275.83828 577.55406,1271.54014 575.81362,1267.75029 573.51712,1262.88952 571.07752,1257.36345 568.63544,1251.39859 566.49372,1245.14369 564.88729,1238.8357 564.23092,1232.70627 562.73444,1227.66892"
       id="polyline118"
       style="stroke:#000000" />
    <polyline
       points="809.99268,1283.18453 808.94798,1282.836 806.06768,1281.88189 801.73226,1280.45886 796.32243,1278.70411 790.21869,1276.75436 783.80169,1274.74663 777.45192,1272.81775 771.55012,1271.10473 766.47674,1269.7444 762.61246,1268.87377 759.17594,1268.57169 755.26369,1268.7546 751.07297,1269.31588 746.801,1270.14855 742.64508,1271.14609 738.80242,1272.2016 735.47034,1273.20839 732.84609,1274.05966 731.12684,1274.64871 730.50994,1274.86882 729.86556,1274.64757 728.09334,1274.05041 725.43467,1273.17704 722.13082,1272.12738 718.42315,1271.00104 714.55306,1269.89794 710.76187,1268.91787 707.29093,1268.16055 704.3816,1267.72581 702.2752,1267.71344 699.48093,1268.44308 694.68044,1270.02324 688.37383,1272.23701 681.06123,1274.86731 673.24272,1277.69713 665.41841,1280.50957 658.08839,1283.08765 651.75279,1285.21436 646.9117,1286.6727 644.06521,1287.24569 642.53453,1287.31972 641.28813,1287.42048 640.29701,1287.53983 639.53219,1287.66958 638.96458,1287.80168 638.56525,1287.92793 638.30515,1288.0403 638.15524,1288.13067 638.08659,1288.19082 638.07016,1288.21263 638.20496,1288.17817 638.59155,1288.0997 639.2032,1288.01424 640.01335,1287.95891 640.99516,1287.9709 642.12202,1288.08733 643.36729,1288.34531 644.70416,1288.78194 646.10604,1289.43444 647.54621,1290.33991 649.04209,1291.94462 650.64817,1294.54498 652.39348,1297.95289 654.30707,1301.98034 656.41791,1306.43952 658.755,1311.14232 661.34739,1315.90083 664.22404,1320.52714 667.41401,1324.83306 670.94623,1328.63086 675.16037,1332.0451 680.24669,1335.29361 686.01053,1338.32815 692.25695,1341.10028 698.79127,1343.56164 705.41866,1345.66408 711.9443,1347.35906 718.17339,1348.59843 723.91117,1349.33384 728.96283,1349.51684 734.32436,1349.39172 740.40987,1349.14243 747.01526,1348.61005 753.93627,1347.63555 760.96866,1346.06002 767.90822,1343.72443 774.55071,1340.46988 780.69199,1336.13742 786.12774,1330.56806 790.65381,1323.60276 794.4595,1316.23171 797.86953,1309.56272 800.88273,1303.6131 803.49792,1298.40038 805.71396,1293.94177 807.52967,1290.25483 808.94392,1287.35693 809.95557,1285.26535 810.56336,1283.99774 810.76624,1283.57131"
       id="polyline128"
       style="stroke:#000000" />
    <polyline
       points="701.75896,1051.71039 701.83478,1054.49828 701.99413,1062.13175 702.13492,1073.51534 702.15504,1087.55377 701.95235,1103.15177 701.42478,1119.21389 700.47025,1134.64476 698.98655,1148.34901 696.87165,1159.23137 694.02341,1166.19648 691.15355,1170.75735 688.97987,1175.11398 687.40953,1179.20149 686.34976,1182.95472 685.7077,1186.3089 685.39056,1189.19887 685.30548,1191.55976 685.35964,1193.3266 685.46016,1194.43434 685.51431,1194.818"
       id="polyline138"
       style="stroke:#000000" />
    <polygon
       points="691.61691,1218.2134 693.19419,1218.0308 695.08705,1218.0246 697.23524,1218.297 699.57833,1218.9498 702.05603,1220.0853 704.60799,1221.8057 707.17384,1224.2131 709.83718,1226.6413 712.70015,1228.415 715.73016,1229.6226 718.89477,1230.352 722.16146,1230.6916 725.49779,1230.7295 728.87128,1230.5539 732.2494,1230.253 735.59966,1229.9149 738.88958,1229.628 741.72082,1229.3224 743.80942,1228.8544 745.29464,1228.2008 746.31573,1227.3383 747.01191,1226.2437 747.52248,1224.8938 747.98659,1223.2655 748.54358,1221.3355 749.33257,1219.0805 750.4929,1216.4775 751.77778,1214.1986 752.88165,1212.8201 753.85558,1212.175 754.75057,1212.0961 755.6177,1212.4164 756.50806,1212.9687 757.47269,1213.5859 758.56263,1214.1011 759.82896,1214.3471 761.32267,1214.1569 762.89843,1213.8242 764.3674,1213.7236 765.7157,1213.8088 766.92943,1214.0331 767.99457,1214.3502 768.89731,1214.7138 769.62369,1215.0774 770.15976,1215.3945 770.49163,1215.6189 770.60532,1215.704 770.38257,1215.8865 769.75131,1216.4218 768.76737,1217.2913 767.48636,1218.4764 765.96399,1219.9585 764.25598,1221.7191 762.41803,1223.7396 760.50582,1226.0015 758.575,1228.4862 756.68134,1231.1751 754.19746,1233.9722 750.64144,1236.7508 746.28708,1239.4459 741.40831,1241.9925 736.27883,1244.3255 731.17264,1246.3801 726.36342,1248.0912 722.12511,1249.3938 718.73155,1250.2231 716.4565,1250.5139 714.54272,1250.0057 712.09987,1248.5832 709.20211,1246.3994 705.9238,1243.6076 702.33912,1240.361 698.52244,1236.8127 694.54791,1233.1159 690.48982,1229.4237 686.42247,1225.8894 682.42009,1222.666 689.38208,1218.7982 689.65054,1218.6991 690.41555,1218.4702 "
       id="polygon148"
       style="stroke:#000000" />
    <polyline
       points="755.33246,1221.90771 755.46916,1221.51702 756.05138,1220.21092"
       id="polyline158"
       style="stroke:#000000" />
    <polyline
       points="689.51121,1219.07953 689.7483,1218.99205 690.57074,1219.07629 691.77049,1219.14755 693.26979,1219.30509 694.9884,1219.62847 696.85148,1220.20066 698.7911,1221.10156 700.76387,1222.38761 702.73514,1224.15348 704.88394,1226.68895 707.55928,1229.65671 710.81133,1232.16166 714.35303,1234.02926 718.06598,1235.32745 721.83609,1236.34771 725.62736,1237.10507 729.37658,1237.71752 728.28724,1238.76497 723.80162,1240.36097"
       id="polyline168"
       style="stroke:#000000" />
    <polygon
       points="619.26977,1342.522 636.88325,1359.2511 656.35101,1376.0457 676.9215,1391.5735 697.84317,1404.5021 718.36442,1413.4989 737.73373,1417.2315 754.96926,1416.3678 769.94026,1412.6193 783.17185,1406.219 795.1891,1397.4 806.51721,1386.3952 817.68115,1373.4376 829.20615,1358.7603 841.61725,1342.5964 855.43958,1325.1787 871.19826,1306.7404 871.64736,1317.0648 873.1499,1326.6507 875.44672,1335.4162 878.27842,1343.279 881.38586,1350.1574 884.50969,1355.9691 887.39069,1360.6322 889.76952,1364.0645 891.38697,1366.1841 891.98371,1366.9089 892.90812,1367.6145 895.17812,1369.9282 898.03882,1374.1455 900.73549,1380.5616 902.5132,1389.472 902.61716,1401.172 900.29244,1415.957 894.78426,1434.1224 885.33782,1455.9636 871.19826,1481.7758 847.84851,1503.4075 822.50341,1519.6797 795.76015,1531.0095 768.21615,1537.8134 740.46865,1540.5084 713.11502,1539.5112 686.7525,1535.2387 661.9784,1528.1077 639.39008,1518.5349 619.58483,1506.9371 603.30378,1494.5085 590.61647,1482.2702 581.11257,1470.3799 574.38193,1458.9949 570.01425,1448.2729 567.5993,1438.3714 566.72684,1429.4479 566.98666,1421.6599 567.96852,1415.165 569.26214,1410.1207 570.69305,1405.0069 572.30777,1398.2883 574.02749,1390.0994 575.77347,1380.5747 577.46694,1369.8489 579.02911,1358.0564 580.38128,1345.3319 581.44458,1331.8098 582.14038,1317.6248 582.38981,1302.9114 585.07057,1306.0533 592.61188,1314.5906 604.26213,1327.191 "
       id="polygon178"
       style="stroke:#000000" />
    <polyline
       points="688.60729,1469.73981 683.21221,1468.18688 667.92177,1461.70686"
       id="polyline188"
       style="stroke:#000000" />
    <polyline
       points="807.49936,1062.27358 808.7348,1064.81681 810.12908,1067.14003 811.65872,1069.23321 813.3004,1071.08627 815.03075,1072.6889 816.82634,1074.03129 818.66382,1075.10315 820.51985,1075.89455 822.37097,1076.39521 824.19386,1076.5952 827.28638,1076.27292 830.17215,1075.23846 832.82751,1073.63545 835.22872,1071.60742 837.35208,1069.29809 839.17392,1066.85117 840.67056,1064.41021 841.81829,1062.119 842.5934,1060.121 842.9722,1058.56001"
       id="polyline198"
       style="stroke:#000000" />
    <polyline
       points="584.80087,1306.28745 592.3469,1314.83012 603.74458,1327.68342 618.51777,1343.28542 635.92422,1360.31041 655.22867,1377.4358 675.70721,1393.34819 696.67362,1406.73037 717.50529,1416.2589 737.50533,1420.48198 755.5012,1419.94301 771.29748,1416.36137 785.40996,1409.93741 798.22462,1400.98923 810.20205,1389.86617 821.8716,1376.88507 833.78142,1362.31296 846.47758,1346.39048 860.49194,1329.34013 865.69993,1323.82958 865.99298,1328.14531 868.10383,1337.69544 870.80302,1346.30822 873.8155,1353.8965 876.86908,1360.37755 879.69464,1365.67153 882.02018,1369.70221 883.57663,1372.37578 884.75353,1374.41044 885.78406,1375.68086 886.53439,1377.00344 887.86622,1379.66268 889.29416,1384.06825 890.22086,1390.74141 889.90839,1400.23576 887.49566,1413.02563 882.09427,1429.47133 872.83937,1449.85392 859.77389,1472.86604 838.80625,1491.73221 815.41901,1506.26039 790.83826,1516.22891 765.52028,1522.06081 739.97402,1524.13022 714.76721,1522.80122 690.51382,1518.45536 667.86061,1511.50835 647.47823,1502.42527 629.85366,1491.62956 615.58419,1480.21234 604.86292,1469.29162 597.32326,1459.19144 592.41304,1450.05309 589.57433,1441.9419 588.28953,1434.85501 588.12686,1428.76167 588.72836,1423.65907 589.77818,1419.5983 591.1489,1415.98849 593.05072,1410.81948 595.27107,1403.45779 597.55315,1394.72511 599.84818,1384.68118 602.08596,1373.42251 603.93908,1362.89487 619.56222,1378.38408 639.83808,1396.49878 661.80257,1413.66991 685.16324,1428.66021 710.08375,1440.10077 735.74553,1445.52629 759.20305,1444.82317 779.91578,1440.12328 798.48716,1431.66398 814.63797,1420.39659 828.75371,1407.3413 841.63368,1393.14308 854.09338,1378.08498 857.9515,1373.88127 860.18449,1378.44676 863.07028,1383.48837 865.12424,1387.0041 868.226,1391.55831 868.03493,1393.03253 867.5741,1398.59041 865.57735,1408.0048 860.89145,1421.70018 852.44676,1439.88528 841.55655,1458.65851 824.69957,1473.51783 804.59808,1485.76331 783.46861,1494.09773 761.5607,1498.92416 739.26095,1500.51917 717.1064,1499.14298 695.74962,1495.09277 675.91523,1488.77861 658.37829,1480.71508 643.48,1471.31705 631.62646,1461.53685 623.21332,1452.57429 617.92026,1444.97556 615.0065,1438.84872 613.75341,1434.11585 613.54658,1430.5625 613.93368,1427.9341 614.6382,1426.04153 615.48759,1424.82429 616.69469,1422.83729 618.89826,1417.53934 620.90659,1412.15473 624.17871,1415.8947 647.58088,1434.45501 673.31972,1451.22477 702.40224,1464.77784 733.91346,1471.59901 763.08956,1470.94451 789.03939,1465.27842 812.45843,1454.87596 823.12638,1448.0808 812.04195,1457.17447 794.77642,1467.15906 776.67501,1473.69642 738.60702,1478.86638 737.81898,1478.83765"
       id="polyline208"
       style="stroke:#000000" />
    <polyline
       points="601.99619,1060.97539 601.92782,1063.35611 602.09373,1066.03399 602.52503,1068.87883 603.25288,1071.76001 604.30845,1074.54706 605.72289,1077.10955 607.52736,1079.317 609.75303,1081.03889 612.43101,1082.14484 615.59251,1082.50423 620.08218,1081.91953 623.81412,1080.47412 626.85541,1078.38537 629.27329,1075.87037 631.13489,1073.14631 632.5074,1070.43056 633.45801,1067.94021 634.05381,1065.89244 634.36207,1064.50445 634.44988,1063.99359"
       id="polyline218"
       style="stroke:#000000" />
    <g
       id="g3640" />
    <polyline
       points="769.31378,1088.63846 788.84604,1080.61283 789.22172,1080.76968 790.30868,1081.19546 792.04658,1081.82302 794.37504,1082.58506 797.2338,1083.41451 800.56253,1084.24416 804.30094,1085.00676 808.38863,1085.63527 812.76537,1086.06247 817.37086,1086.22111 825.77175,1086.03952 832.96013,1085.49052 839.07648,1084.57947 844.26152,1083.31197 848.65582,1081.69347 852.39999,1079.72937 855.63462,1077.42513 858.50033,1074.78615 861.1377,1071.81799 863.68745,1068.52604"
       id="polyline228"
       style="stroke:#000000" />
    <polygon
       points="46.94291,1203.3366 65.05182,1209.4385 85.94553,1216.0787 108.55654,1222.7188 131.81733,1228.8207 154.66039,1233.8457 176.01824,1237.2555 194.82335,1238.5117 212.74816,1237.9161 231.84258,1236.3458 251.60536,1234.1257 271.53522,1231.5807 291.1309,1229.0357 309.89116,1226.8156 327.3147,1225.2453 342.90028,1224.6496 356.14663,1225.3536 366.55248,1227.682 379.37029,1234.3423 398.918,1246.8042 423.29272,1263.5362 450.59147,1283.0066 478.91129,1303.6837 506.34925,1324.036 531.00248,1342.5316 550.96793,1357.6392 564.34267,1367.8269 569.2238,1371.5631 570.77091,1407.1467 541.37583,1394.7698 541.37583,1428.8062 648.12637,1575.7816 648.12637,1608.2709 476.39724,1428.8062 474.43396,1428.4473 468.85973,1427.42 460.14794,1425.7987 448.77205,1423.6574 435.20546,1421.0706 419.92157,1418.1126 403.3938,1414.8575 386.09557,1411.3796 368.5003,1407.7532 351.08139,1404.0524 333.12873,1400.8082 314.02503,1398.52 294.38292,1397.2158 274.81509,1396.9234 255.93417,1397.6706 238.35282,1399.4854 222.6837,1402.3955 209.53945,1406.4288 199.53275,1411.6132 193.27624,1417.9764 188.98302,1425.9548 184.55054,1435.5764 180.11808,1446.256 175.82485,1457.4092 171.8101,1468.4509 168.21307,1478.7964 165.173,1487.8609 162.82913,1495.0596 161.3207,1499.8077 160.78695,1501.5203 160.9695,1499.079 161.50481,1492.3862 162.37428,1482.3888 163.55936,1470.0336 165.0415,1456.2674 166.80211,1442.0371 168.82263,1428.2895 171.08451,1415.9713 173.56916,1406.0297 176.25804,1399.4111 180.55127,1393.7766 187.58288,1386.4526 196.93516,1377.8846 208.19037,1368.5184 220.93082,1358.7995 234.73877,1349.1734 249.19651,1340.0856 263.88631,1331.9819 278.39046,1325.3077 292.29123,1320.5085 304.57991,1317.4143 314.66863,1315.4341 322.77084,1314.3819 329.10007,1314.0726 333.8698,1314.3201 337.29355,1314.939 339.58482,1315.7434 340.95709,1316.5479 341.6239,1317.1668 341.79873,1317.4143 340.20056,1315.8982 335.69693,1311.7828 328.72411,1305.7182 319.71838,1298.3539 309.11605,1290.3399 297.35338,1282.3259 284.86666,1274.9616 272.09218,1268.897 259.46621,1264.7816 247.42507,1263.2655 237.03469,1263.6198 228.72361,1264.6146 221.97203,1266.1478 216.2601,1268.1172 211.068,1270.4209 205.87589,1272.9566 200.16397,1275.6223 193.41239,1278.3158 185.10131,1280.9351 174.71093,1283.3779 161.98286,1284.3742 147.33328,1282.8086 131.25418,1278.8109 114.23752,1272.511 96.7753,1264.0391 79.35949,1253.5249 62.48208,1241.0985 46.63503,1226.8899 32.31035,1211.0289 20,1193.6456 23.34949,1194.9018 32.6863,1198.3117 "
       id="polygon238"
       style="stroke:#000000" />
    <polyline
       points="197.90994,1379.00087 209.11391,1369.67729 222.08754,1360.38518 236.0934,1351.21868 250.69643,1342.63017 265.45322,1335.08432 279.88066,1329.01868 293.5847,1324.85021 305.68783,1322.36315 315.57154,1320.97699 323.32059,1320.54368 329.08992,1320.83056 333.02598,1321.60375 335.2627,1322.6277 335.88481,1323.50851 428.59087,1410.42649 421.80933,1408.44388 405.44491,1404.5504 388.33053,1400.40114 370.93749,1396.10737 353.52683,1391.6097 335.12776,1387.49086 315.3521,1384.25396 295.00102,1382.00783 274.61677,1380.81032 254.71909,1380.63548 235.7652,1381.54477 220.32263,1383.3533 232.89093,1375.19496 246.57324,1367.04171 260.686,1359.57692 274.62626,1353.2463 287.79085,1348.71732 299.88864,1346.01 310.7112,1344.80144 319.44969,1344.78468 325.56252,1345.67156 349.48673,1369.91305 338.4134,1365.60242 317.55376,1360.58605 321.36937,1356.5695 322.66313,1356.4015"
       id="polyline248"
       style="stroke:#000000" />
    <polyline
       points="213.54974,1253.03745 210.71251,1254.01569 204.19399,1255.66467 198.32389,1257.14037 192.6538,1258.25385 186.5314,1259.01414 171.27458,1261.3157 162.29978,1262.01822"
       id="polyline258"
       style="stroke:#000000" />
    <polyline
       points="20.5354,1194.0583 23.28062,1195.08793 32.55174,1198.68666 46.74684,1203.90547 64.8014,1210.20348 85.6503,1217.04444 108.19044,1224.03604 131.41201,1230.50217 154.2705,1235.90154 175.74244,1239.69646 194.77614,1241.33113 212.9313,1241.09034 232.18542,1239.8705 252.07047,1238.00117 272.08005,1235.81132 291.70153,1233.63368 310.40956,1231.78998 327.65838,1230.60452 342.85752,1230.39155 355.31245,1231.42162 364.3167,1233.81314 375.94871,1240.2716 394.9375,1252.81974 418.94366,1269.75132 445.93423,1289.46025 473.97295,1310.39411 501.14434,1331.01323 525.53634,1349.78641 545.24627,1365.17562 558.37026,1375.64852 559.22094,1376.77669 559.45508,1390.88225 530.39838,1378.23686 530.01959,1432.49513 634.70325,1577.26937 482.43919,1417.59025 476.69254,1416.14257 471.20902,1414.7348 462.59322,1412.734 461.53076,1412.12371 349.80784,1305.57974 345.52901,1300.75451 338.69782,1293.8927 329.72293,1285.63095 318.98539,1276.59303 306.81704,1267.41289 293.51926,1258.66329 279.21929,1251.00961 293.59684,1248.90551 312.05604,1247.58912 328.70687,1246.95399 342.73174,1247.28068 352.93486,1248.71703 358.12475,1250.79326 366.68501,1256.32487 384.37213,1268.7866 407.58457,1285.98422 433.94933,1306.06794 461.43754,1327.42763 488.09889,1348.50079 509.71742,1366.1403 508.58106,1415.00485 493.31277,1397.40514 480.76498,1393.95599 475.45256,1391.82146 472.78859,1390.05421 366.57589,1287.57043 362.28681,1281.95784 355.29207,1274.21749 349.4558,1267.65086 374.64397,1283.48824 396.97316,1301.14864 422.26536,1322.25864 448.36835,1345.18648 475.53754,1365.33939"
       id="polyline268"
       style="stroke:#000000" />
    <polygon
       points="944.30422,1394.1587 948.63073,1387.9626 955.77912,1378.1461 965.69841,1365.1272 978.33751,1349.3235 993.64534,1331.1527 1011.571,1311.0325 1032.0632,1289.3807 1055.0711,1266.615 1080.5434,1243.1531 1106.213,1221.5995 1129.9519,1204.0236 1151.9177,1190.04 1172.2685,1179.2636 1191.1617,1171.3092 1208.7555,1165.7915 1225.2074,1162.3251 1240.6755,1160.525 1255.3173,1160.0061 1269.2907,1160.3827 1281.2081,1161.9245 1290.09,1164.9189 1296.7071,1169.0086 1301.8295,1173.8364 1306.228,1179.0447 1310.6728,1184.2763 1315.9345,1189.1737 1322.7836,1193.3795 1331.9904,1196.5364 1344.3256,1198.2869 1360.3838,1199.0171 1379.5007,1199.3946 1400.5575,1199.4843 1422.436,1199.3513 1444.0174,1199.0605 1464.1832,1198.6768 1481.8149,1198.2653 1495.7937,1197.8909 1505.0014,1197.6185 1508.3191,1197.5133 1506.0372,1199.1387 1499.7172,1203.5532 1490.1483,1210.0659 1478.1195,1217.9847 1464.4199,1226.6183 1449.8384,1235.2752 1435.1641,1243.2638 1421.1859,1249.8923 1408.693,1254.4694 1398.4744,1256.3035 1390.3807,1256.1998 1383.387,1255.3814 1376.9688,1253.7833 1370.6017,1251.3404 1363.7611,1247.9878 1355.9226,1243.6605 1346.5619,1238.2936 1335.1543,1231.8221 1321.1754,1224.1809 1304.1007,1215.3051 1288.0626,1216.5962 1271.4072,1222.1062 1254.6775,1230.8094 1238.4166,1241.6803 1223.1676,1253.6928 1209.4733,1265.8213 1197.877,1277.0402 1188.9215,1286.3236 1183.15,1292.6458 1181.1055,1294.9812 1183.5515,1295.1429 1190.2767,1295.6249 1200.3624,1296.4224 1212.8893,1297.5309 1226.9386,1298.9457 1241.5913,1300.6622 1255.9283,1302.6758 1269.0308,1304.9817 1279.9797,1307.5755 1287.8561,1310.4523 1293.8913,1313.699 1300.0287,1317.6743 1306.4168,1322.782 1313.2039,1329.426 1320.5387,1338.0102 1328.5698,1348.9383 1337.4455,1362.6139 1347.3146,1379.441 1358.3254,1399.8234 1370.6264,1424.1649 1337.7387,1412.2127 1306.2667,1405.222 1276.0477,1402.6314 1246.9195,1403.8792 1218.7196,1408.4037 1191.2855,1415.6434 1164.4547,1425.0366 1138.0649,1436.0219 1111.9536,1448.0375 1085.9583,1460.5219 1061.008,1473.5772 1037.4781,1488.2894 1014.3751,1505.573 990.70589,1526.3422 965.47716,1551.5113 937.69577,1581.9948 906.36832,1618.7069 870.50166,1662.562 829.10256,1714.4745 781.17777,1775.3587 769.57445,1780 990.81108,1404.0524 942.85069,1396.3169 "
       id="polygon278"
       style="stroke:#000000" />
    <polyline
       points="1330.09447,1211.67319 1342.90431,1213.49106 1359.8479,1215.45324 1379.289,1217.02787 1400.57475,1218.36857 1422.6342,1219.62333 1430.60959,1220.98657 1412.12492,1228.28021 1402.08391,1230.05721 1396.21913,1228.99321 1392.14541,1228.94103"
       id="polyline288"
       style="stroke:#000000" />
    <g
       id="g3730"
       style="opacity:0.3">
      <path
         id="path28"
         d="M 770.09358,1779.5541 C 769.83999,1779.985 769.83999,1779.985 769.83999,1779.985 C 765.64136,1787.1197 761.76384,1794.437 758.09222,1801.8567 C 754.4206,1809.2763 750.67365,1816.8788 744.73482,1822.6462 C 739.13326,1828.0861 731.69694,1831.5414 723.95886,1832.5864 C 716.22078,1833.6314 708.21579,1832.302 701.11139,1829.062 C 694.007,1825.822 687.80489,1820.7063 683.04713,1814.5149 C 678.28937,1808.3235 674.96187,1801.0759 673.09152,1793.4948 C 669.35083,1778.3328 671.4748,1762.128 676.99881,1747.521 C 682.52282,1732.914 691.29741,1719.7456 700.9631,1707.4797 C 720.29448,1682.9477 743.87417,1660.8125 755.64045,1631.8803 C 761.52359,1617.4141 764.17716,1601.3255 761.06374,1586.0224 C 759.50703,1578.3708 756.51365,1570.9859 752.06748,1564.567 C 747.62131,1558.1482 741.70753,1552.7131 734.80159,1549.0692 C 727.49028,1545.2114 719.31366,1543.3631 711.25495,1541.5205 C 703.19624,1539.6779 695.1771,1537.6637 687.23298,1535.377 C 686.75249,1535.2387 686.75249,1535.2387 686.75249,1535.2387"
         style="stroke:#ff0000"
         inkscape:connector-curvature="0" />
      <path
         id="path38"
         d="M 680.20396,1045.5983 C 680.67938,1045.7531 680.67938,1045.7531 680.67938,1045.7531 C 688.53615,1048.3122 696.31318,1051.1078 704.03498,1054.0492 C 711.75678,1056.9905 719.55611,1059.9839 727.74568,1061.0833 C 736.24305,1062.2239 745.03376,1061.185 753.00196,1058.0205 C 760.97016,1054.856 768.09353,1049.5653 773.36281,1042.8021 C 778.63209,1036.0388 782.02524,1027.8161 782.97996,1019.2959 C 783.93467,1010.7756 782.4379,1001.9839 778.64627,994.29432 C 774.85464,986.60472 768.77243,980.05014 761.34752,975.76328 C 753.92261,971.47643 745.18034,969.48514 736.63762,970.21203 C 728.0949,970.93892 719.79336,974.39265 713.30702,979.99925 C 706.82069,985.60585 702.19286,993.34492 700.39955,1001.7289 C 698.66924,1009.8183 699.45708,1018.2095 700.21265,1026.4473 C 700.96822,1034.6852 701.52045,1042.9412 701.74536,1051.2106 C 701.75895,1051.7104 701.75895,1051.7104 701.75895,1051.7104"
         style="stroke:#ff0000"
         inkscape:connector-curvature="0" />
      <path
         id="path60"
         d="M 566.43095,1080.0584 C 566.06171,1080.3955 566.06171,1080.3955 566.06171,1080.3955 C 553.87585,1091.5217 541.25705,1102.1866 529.50671,1113.7719 C 494.8092,1147.9818 470.80122,1192.9601 462.06633,1240.8969 C 453.33144,1288.8338 459.97056,1339.5083 481.10518,1383.4124 C 502.2398,1427.3164 537.81297,1464.1871 581.10852,1486.5419 C 624.40408,1508.8966 675.19464,1516.5439 723.08443,1507.5546 C 770.97422,1498.5652 815.6356,1472.9304 847.26458,1435.8649 C 878.89357,1398.7995 897.20588,1350.525 897.73956,1301.8018 C 898.27324,1253.0785 880.94832,1204.2939 849.51468,1167.0626 C 818.08104,1129.8314 772.75303,1104.53 724.5095,1097.6888 C 708.17122,1095.3719 691.6571,1094.5895 675.22831,1093.0396 C 674.73052,1092.9926 674.73052,1092.9926 674.73052,1092.9926"
         style="stroke:#ff0000"
         inkscape:connector-curvature="0" />
      <path
         id="path70"
         d="M 568.36677,1071.7199 C 568.07002,1071.3175 568.07002,1071.3175 568.07002,1071.3175 C 564.74182,1066.8041 561.4585,1062.1263 559.78009,1056.7756 C 558.10168,1051.4249 558.13176,1045.4853 560.27478,1040.3031 C 562.41781,1035.1209 566.59024,1030.865 571.60999,1028.3651 C 576.62974,1025.8652 582.38325,1025.0671 587.97785,1025.4516 C 592.06706,1025.7326 596.08812,1026.6137 600.1439,1027.2065 C 605.06228,1027.9252 610.05063,1028.238 614.89086,1029.369 C 619.7311,1030.5001 624.44835,1032.5279 628.13285,1035.8643 C 631.81735,1039.2008 634.30868,1043.7972 635.19643,1048.6879 C 636.08417,1053.5786 635.3767,1058.602 634.53459,1063.5008 C 634.44988,1063.9936 634.44988,1063.9936 634.44988,1063.9936"
         style="stroke:#ff0000"
         inkscape:connector-curvature="0" />
      <path
         id="path80"
         d="M 549.93985,1062.934 C 549.50864,1063.1871 549.50864,1063.1871 549.50864,1063.1871 C 542.12093,1067.5234 535.14906,1072.5501 528.81294,1078.3151 C 525.64488,1081.1976 522.52995,1084.1561 519.08067,1086.6954 C 515.6314,1089.2347 511.77658,1091.3581 507.5684,1092.156 C 501.67078,1093.2742 495.35327,1091.597 490.62718,1087.8961 C 485.90109,1084.1953 482.78686,1078.5721 481.90173,1072.635 C 481.0166,1066.6979 482.31459,1060.5011 485.28276,1055.2836 C 488.25093,1050.0661 492.8413,1045.8293 498.16124,1043.0489 C 505.4119,1039.2595 513.69061,1038.0741 521.69863,1036.3996 C 529.70665,1034.7252 537.53119,1032.2743 545.17813,1029.3664 C 545.64548,1029.1886 545.64548,1029.1886 545.64548,1029.1886"
         style="stroke:#ff0000"
         inkscape:connector-curvature="0" />
      <path
         id="path100"
         d="M 831.90074,1036.2311 C 831.40322,1036.1813 831.40322,1036.1813 831.40322,1036.1813 C 826.76868,1035.7179 822.10727,1035.3265 817.4588,1035.6189 C 812.81033,1035.9113 808.21331,1036.8724 803.79923,1038.3589 C 794.97109,1041.3319 786.92309,1046.5743 777.81443,1048.5255 C 772.4174,1049.6817 766.74032,1049.5348 761.42282,1048.0553 C 756.10532,1046.5758 751.15871,1043.7621 747.20208,1039.9137 C 743.24546,1036.0654 740.2909,1031.1872 738.7584,1025.8848 C 737.2259,1020.5823 737.12434,1014.8674 738.51302,1009.5255 C 739.9017,1004.1835 742.78205,999.2313 746.77124,995.41671 C 750.76042,991.60212 755.84956,988.9419 761.2678,987.88959 C 766.68604,986.83728 772.41459,987.40297 777.50452,989.53776 C 782.59444,991.67255 787.02195,995.37375 789.98623,1000.0297 C 792.88018,1004.5752 794.35295,1009.8838 795.27911,1015.1922 C 796.20527,1020.5005 796.64102,1025.8816 797.39895,1031.2165 C 798.91482,1041.8865 802.57182,1052.13 807.28088,1061.8239 C 807.49936,1062.2736 807.49936,1062.2736 807.49936,1062.2736"
         style="stroke:#ff0000"
         inkscape:connector-curvature="0" />
      <path
         id="path110"
         d="M 583.52139,1297.5912 C 583.1627,1297.2429 583.1627,1297.2429 583.1627,1297.2429 C 571.32539,1285.7469 559.87403,1273.8437 547.65275,1262.7568 C 539.29463,1255.1744 530.43797,1248.0823 522.94071,1239.6477 C 515.44345,1231.2132 509.26932,1221.1801 507.51125,1210.0329 C 506.63221,1204.4593 506.89196,1198.6739 508.57147,1193.2872 C 510.25098,1187.9004 513.38053,1182.9293 517.71716,1179.3194 C 522.05379,1175.7095 527.61099,1173.5146 533.25343,1173.4914 C 538.89586,1173.4681 544.5712,1175.6851 548.49568,1179.7392 C 551.39647,1182.7358 553.27815,1186.5917 554.5386,1190.5673 C 555.79905,1194.543 556.48935,1198.6737 557.15386,1202.7911 C 558.48288,1211.0258 560.21666,1219.1937 562.59206,1227.1896 C 562.73445,1227.6689 562.73445,1227.6689 562.73445,1227.6689"
         style="stroke:#ff0000"
         inkscape:connector-curvature="0" />
      <path
         id="path130"
         d="M 810.76624,1283.5713 C 810.98105,1283.1198 810.98105,1283.1198 810.98105,1283.1198 C 814.54757,1275.6232 817.6595,1267.9216 820.48057,1260.1139 C 823.30164,1252.3062 826.25933,1244.1711 832.24682,1238.4206 C 835.60752,1235.1929 839.83732,1232.9053 844.34291,1231.717 C 848.84849,1230.5287 853.62053,1230.4284 858.2015,1231.281 C 867.36345,1232.9863 875.5736,1238.4692 881.5731,1245.6005 C 887.57259,1252.7317 891.48871,1261.4314 894.00967,1270.4033 C 896.53064,1279.3751 897.716,1288.6621 898.74184,1297.9248 C 900.79351,1316.4501 902.5082,1335.8574 912.54517,1351.5627 C 917.56366,1359.4154 924.69647,1366.1002 933.35046,1369.5582 C 937.67745,1371.2872 942.34753,1372.1927 947.00521,1372.0574 C 951.66289,1371.922 956.30369,1370.7344 960.38462,1368.4853 C 967.64988,1364.4812 972.77169,1357.562 977.70149,1350.8902 C 982.6313,1344.2183 987.79441,1337.7199 993.31275,1331.526 C 993.64536,1331.1527 993.64536,1331.1527 993.64536,1331.1527"
         style="stroke:#ff0000"
         inkscape:connector-curvature="0" />
      <path
         id="path140"
         d="M 685.51431,1194.818 C 685.58419,1195.3131 685.58419,1195.3131 685.58419,1195.3131 C 686.75848,1203.6324 687.07806,1212.0421 686.87117,1220.4413 C 686.76772,1224.641 686.69598,1228.8701 687.3856,1233.014 C 688.07522,1237.1579 689.61001,1241.2809 692.50263,1244.3272 C 694.6263,1246.5638 697.42285,1248.1308 700.41263,1248.8879 C 703.40241,1249.6451 706.57635,1249.6035 709.57502,1248.8823 C 715.57236,1247.44 720.71401,1243.3285 724.21887,1238.2527 C 727.72373,1233.1769 729.71092,1227.1872 730.87992,1221.1307 C 732.04892,1215.0742 732.43994,1208.8994 733.01791,1202.7582 C 733.59588,1196.617 734.37268,1190.4487 736.27683,1184.5816 C 738.18098,1178.7146 741.2847,1173.1183 745.92139,1169.0502 C 748.23974,1167.0161 750.92508,1165.3847 753.83986,1164.3767 C 756.75464,1163.3687 759.9001,1162.9928 762.95684,1163.4032 C 766.01358,1163.8135 768.97496,1165.0215 771.37492,1166.9586 C 773.77489,1168.8957 775.59525,1171.5678 776.4087,1174.5428 C 777.52123,1178.6116 776.73169,1183.0025 775.12312,1186.902 C 773.51456,1190.8014 771.1392,1194.3301 768.753,1197.8085 C 763.9806,1204.7653 759.68978,1212.0488 756.25494,1219.7542 C 756.05137,1220.2109 756.05137,1220.2109 756.05137,1220.2109"
         style="stroke:#ff0000"
         inkscape:connector-curvature="0" />
      <path
         id="path150"
         d="M 760.50582,1226.0015 C 760.18302,1226.3834 760.18302,1226.3834 760.18302,1226.3834 C 749.52964,1238.9851 739.40798,1252.0504 728.22568,1264.1852 C 723.82938,1268.956 719.17463,1273.5659 713.72967,1277.093 C 708.28471,1280.6201 701.96406,1283.0304 695.47654,1283.0294 C 692.23278,1283.0289 688.97761,1282.4203 686.00136,1281.1303 C 683.02511,1279.8404 680.33422,1277.8607 678.31447,1275.3225 C 676.29472,1272.7842 674.96147,1269.6839 674.63262,1266.4568 C 674.30377,1263.2298 674.99933,1259.8873 676.69456,1257.1218 C 678.89802,1253.5271 682.62273,1251.0841 686.55434,1249.5612 C 690.48596,1248.0384 694.67544,1247.3176 698.83667,1246.6387 C 707.15913,1245.281 715.38597,1243.3553 723.33056,1240.5286 C 723.80163,1240.361 723.80163,1240.361 723.80163,1240.361"
         style="stroke:#ff0000"
         inkscape:connector-curvature="0" />
      <path
         id="path160"
         d="M 755.33246,1221.9077 C 755.16733,1222.3796 755.16733,1222.3796 755.16733,1222.3796 C 749.71764,1237.9549 743.68518,1253.3348 738.81934,1269.1022 C 721.03231,1326.7397 725.13108,1390.8567 750.171,1445.7336 C 775.21092,1500.6104 820.97529,1545.7388 876.22298,1569.9494 C 931.47067,1594.16 995.69506,1597.2157 1052.9717,1578.2988 C 1110.2483,1559.3818 1160.0351,1518.6564 1189.8752,1466.2347 C 1219.7154,1413.8131 1229.3131,1350.1865 1216.201,1291.3091 C 1203.089,1232.4318 1167.3797,1178.8734 1118.0342,1144.1822 C 1068.6887,1109.4909 1006.1795,1094.0164 946.35683,1101.744 C 886.53421,1109.4717 829.98993,1140.3395 791.18586,1186.5207 C 780.57055,1199.1541 770.93774,1212.5772 760.81262,1225.6067 C 760.50582,1226.0015 760.50582,1226.0015 760.50582,1226.0015"
         style="stroke:#ff0000"
         inkscape:connector-curvature="0" />
      <path
         id="path170"
         d="M 689.51121,1219.0795 C 689.04212,1219.2526 689.04212,1219.2526 689.04212,1219.2526 C 673.56169,1224.9645 657.92047,1230.2534 642.60251,1236.3877 C 577.36102,1262.5146 520.61062,1309.6069 483.39329,1369.2218 C 446.17597,1428.8367 428.77764,1500.6985 435.18417,1570.6843 C 441.59069,1640.6702 471.86415,1708.3435 520.19106,1759.3688 C 568.51796,1810.394 634.64823,1844.3517 704.35168,1853.3235 C 774.05513,1862.2953 846.8228,1846.1026 905.83386,1807.9351 C 964.84493,1769.7676 1009.5463,1709.8431 1028.7642,1642.2432 C 1047.982,1574.6434 1041.4225,1499.9521 1010.2034,1436.9883 C 978.98431,1374.0246 923.30378,1323.4776 857.42276,1299.0081 C 841.95436,1293.2629 826.11975,1288.5648 810.46697,1283.3428 C 809.99267,1283.1845 809.99267,1283.1845 809.99267,1283.1845"
         style="stroke:#ff0000"
         inkscape:connector-curvature="0" />
      <path
         id="path180"
         d="M 686.7525,1535.2387 C 686.25894,1535.1587 686.25894,1535.1587 686.25894,1535.1587 C 678.66717,1533.9283 671.03802,1532.5695 663.86919,1529.7844 C 656.70036,1526.9993 650.05883,1522.8108 644.61628,1517.3769 C 639.17373,1511.9429 634.96733,1505.3488 631.8451,1498.3202 C 628.72286,1491.2917 626.64322,1483.8501 624.755,1476.3946 C 620.97856,1461.4838 617.32379,1446.0897 608.35314,1433.5948 C 603.86782,1427.3473 598.20439,1421.9659 591.80508,1417.7 C 585.40577,1413.4341 578.31986,1410.3252 571.23172,1407.3407 C 570.7709,1407.1467 570.7709,1407.1467 570.7709,1407.1467"
         style="stroke:#ff0000"
         inkscape:connector-curvature="0" />
      <path
         id="path190"
         d="M 688.60729,1469.7398 C 689.08778,1469.8781 689.08778,1469.8781 689.08778,1469.8781 C 696.97382,1472.1481 704.8423,1474.5217 712.87661,1476.1926 C 720.91092,1477.8636 729.11852,1478.5205 737.31931,1478.8194 C 737.81898,1478.8377 737.81898,1478.8377 737.81898,1478.8377"
         style="stroke:#ff0000"
         inkscape:connector-curvature="0" />
      <path
         id="path210"
         d="M 584.80087,1306.2875 C 584.46985,1305.9127 584.46985,1305.9127 584.46985,1305.9127 C 584.22584,1305.6365 583.98472,1305.3529 583.81369,1305.0264 C 583.64267,1304.6999 583.54435,1304.3346 583.53801,1303.9661 C 583.53167,1303.5976 583.61512,1303.2312 583.75027,1302.8883 C 583.88542,1302.5454 584.06985,1302.2245 584.25228,1301.9042 C 584.43471,1301.584 584.61533,1301.2605 584.74229,1300.9145 C 584.86925,1300.5685 584.93983,1300.1987 584.9171,1299.8308 C 584.89437,1299.4629 584.77641,1299.1028 584.58638,1298.787 C 584.39635,1298.4712 584.13731,1298.2036 583.87594,1297.9438 C 583.52137,1297.5912 583.52137,1297.5912 583.52137,1297.5912"
         style="stroke:#ff0000"
         inkscape:connector-curvature="0" />
      <path
         d="M 567.29057,603.02575 C 567.74449,602.81609 567.74449,602.81609 567.74449,602.81609 C 582.72572,595.89643 597.36545,588.20037 612.68249,582.05974 C 659.53339,563.27713 712.01088,564.91933 762.03585,571.64955 C 812.06082,578.37976 861.71688,589.91815 912.1925,589.99003 C 937.43031,590.02597 962.81702,587.14113 986.87119,579.50274 C 1010.9254,571.86434 1033.6472,559.34198 1051.6208,541.62481 C 1069.5944,523.90764 1082.6325,500.8408 1086.6537,475.92539 C 1090.675,451.00998 1085.2645,424.3508 1070.3066,404.02328 C 1060.5219,390.7262 1048.0184,379.69972 1036.8651,367.52785 C 1036.5273,367.15921 1036.5273,367.15921 1036.5273,367.15921"
         id="path8"
         style="stroke:#ff0000"
         inkscape:connector-curvature="0" />
      <path
         d="M 1041.0061,375.60534 C 1041.2581,376.03719 1041.2581,376.03719 1041.2581,376.03719 C 1049.5746,390.2888 1058.3054,404.30429 1066.2065,418.79032 C 1091.9309,465.95411 1105.5128,519.34049 1108.1445,572.99905 C 1110.7763,626.65761 1102.6323,680.58574 1086.8547,731.93976 C 1055.2995,834.6478 994.13348,925.77522 926.35946,1009.15 C 915.95171,1021.9535 905.41302,1034.6499 894.93978,1047.3999 C 894.62241,1047.7862 894.62241,1047.7862 894.62241,1047.7862"
         id="path18"
         style="stroke:#ff0000"
         inkscape:connector-curvature="0" />
      <path
         d="M 898.45128,1016.608 C 898.94397,1016.6931 898.94397,1016.6931 898.94397,1016.6931 C 907.08343,1018.1 915.25844,1019.2895 923.45116,1020.3426 C 931.64389,1021.3958 939.90957,1022.4376 947.72076,1025.1237 C 964.95562,1031.0505 978.87944,1045.3531 985.26214,1062.4244 C 991.64484,1079.4956 990.65145,1099.0021 983.47536,1115.7553 C 976.29927,1132.5085 963.17728,1146.4711 947.38729,1155.573 C 931.5973,1164.6748 913.25349,1169.0148 895.02805,1168.9968 C 858.57718,1168.961 823.82684,1151.8705 795.73446,1128.6437 C 767.64208,1105.4169 745.20865,1076.2326 722.65227,1047.5991 C 700.09592,1018.9655 676.83164,990.29567 647.57402,968.55484 C 618.3164,946.81401 582.02551,932.3939 545.7664,936.12874 C 527.63684,937.99616 509.86453,944.46371 495.3825,955.52891 C 480.90047,966.59411 469.85295,982.3419 465.35703,1000.0041 C 460.86111,1017.6664 463.16435,1037.1508 472.52129,1052.791 C 481.87824,1068.4312 498.38637,1079.8308 516.472,1082.0842 C 524.66933,1083.1055 532.97303,1082.377 541.2039,1081.6755 C 549.43477,1080.974 557.67743,1080.4133 565.93136,1080.0786 C 566.43095,1080.0584 566.43095,1080.0584 566.43095,1080.0584"
         id="path50"
         style="stroke:#ff0000"
         inkscape:connector-curvature="0" />
      <path
         d="M 894.62241,1047.7862 C 894.89976,1048.2023 894.89976,1048.2023 894.89976,1048.2023 C 899.48589,1055.0814 904.31261,1061.796 909.28477,1068.4016 C 914.25692,1075.0072 919.31968,1081.6993 922.35745,1089.3887 C 927.40643,1102.1691 925.9812,1117.3586 918.50457,1128.8881 C 911.02795,1140.4176 897.65445,1147.9348 883.91486,1148.1657 C 877.04506,1148.2811 870.15022,1146.6571 864.06454,1143.4678 C 857.97887,1140.2784 852.71622,1135.5284 848.94077,1129.7879 C 845.16532,1124.0474 842.88739,1117.3278 842.41602,1110.4732 C 841.94465,1103.6187 843.28333,1096.6449 846.27947,1090.4618 C 849.8867,1083.0176 855.65307,1076.8738 861.30105,1070.83 C 866.94903,1064.7861 872.44849,1058.604 877.69915,1052.2119 C 878.01652,1051.8256 878.01652,1051.8256 878.01652,1051.8256"
         id="path90"
         style="stroke:#ff0000"
         inkscape:connector-curvature="0" />
      <path
         d="M 519.22167,1131.2852 C 518.92398,1130.8835 518.92398,1130.8835 518.92398,1130.8835 C 509.09764,1117.6233 498.28502,1105.055 489.4525,1091.1131 C 471.34287,1062.5276 465.3114,1027.1551 469.74279,993.60734 C 474.17418,960.05953 488.59425,928.30393 508.31704,900.80658 C 547.76262,845.81188 606.54665,808.4979 663.07313,771.2806 C 676.85429,762.20702 690.5989,753.07807 704.36178,743.9768 C 704.77884,743.701 704.77884,743.701 704.77884,743.701"
         id="path120"
         style="stroke:#ff0000"
         inkscape:connector-curvature="0" />
      <path
         d="M 842.9722,1058.56 C 843.09011,1058.0741 843.09011,1058.0741 843.09011,1058.0741 C 845.07437,1049.8972 846.45021,1041.5779 847.06423,1033.186 C 847.37124,1028.9901 847.60499,1024.7817 848.24813,1020.624 C 848.89127,1016.4663 849.97182,1012.3261 852.00621,1008.6436 C 855.06268,1003.1109 860.29212,998.81715 866.31389,996.89603 C 872.33566,994.97491 879.08554,995.44692 884.7813,998.1875 C 890.47706,1000.9281 895.05793,1005.908 897.31427,1011.8124 C 899.57061,1017.7167 899.47832,1024.4825 897.06171,1030.3231 C 895.45319,1034.2106 892.89175,1037.6382 890.04371,1040.7349 C 887.19567,1043.8315 884.05252,1046.6397 880.96483,1049.4974 C 874.78946,1055.2129 869.1461,1061.4784 863.99362,1068.1307 C 863.68745,1068.526 863.68745,1068.526 863.68745,1068.526"
         id="path200"
         style="stroke:#ff0000"
         inkscape:connector-curvature="0" />
      <path
         d="M 601.99619,1060.9754 C 602.01054,1060.4756 602.01054,1060.4756 602.01054,1060.4756 C 602.48427,1043.979 604.04736,1027.488 603.43142,1010.996 C 602.3965,983.28606 592.91503,955.91299 576.39021,933.64548 C 559.86539,911.37797 536.34226,894.33871 509.9566,885.81174 C 483.57095,877.28477 454.44528,877.35083 428.17577,886.22915 C 401.90626,895.10747 378.65668,912.7864 363.28246,935.86334 C 347.90824,958.94028 340.54439,987.29138 342.98679,1014.9129 C 345.42918,1042.5344 357.70617,1069.2244 377.26222,1088.8833 C 396.81827,1108.5422 423.53186,1120.9792 451.1837,1123.0498 C 478.83554,1125.1204 507.18491,1116.7557 529.1378,1099.8152 C 542.20492,1089.7316 553.5038,1077.5679 565.6928,1066.4388 C 566.06204,1066.1017 566.06204,1066.1017 566.06204,1066.1017"
         id="path220"
         style="stroke:#ff0000"
         inkscape:connector-curvature="0" />
      <path
         id="path230"
         d="M 769.31378,1088.6385 C 768.8513,1088.8285 768.8513,1088.8285 768.8513,1088.8285 C 760.75515,1092.1551 753.04447,1096.3869 746.0191,1101.6079 C 742.50641,1104.2184 739.04921,1106.9318 735.24599,1109.0972 C 731.44278,1111.2626 727.19061,1112.8687 722.8145,1112.8119 C 719.91855,1112.7743 717.04201,1111.9951 714.49497,1110.6165 C 711.94793,1109.2379 709.73146,1107.2662 708.0182,1104.9311 C 704.59168,1100.2609 703.26607,1094.1989 703.99502,1088.4526 C 704.72398,1082.7062 707.42102,1077.2934 711.23905,1072.9374 C 715.05709,1068.5815 719.95926,1065.25 725.24046,1062.8708 C 732.44641,1059.6244 740.26528,1058.0325 747.86374,1055.8581 C 755.4622,1053.6837 762.81494,1050.7354 770.00191,1047.4472 C 770.45658,1047.2392 770.45658,1047.2392 770.45658,1047.2392"
         style="stroke:#ff0000"
         inkscape:connector-curvature="0" />
      <path
         id="path240"
         d="M 570.77091,1407.1467 C 570.79263,1407.6462 570.79263,1407.6462 570.79263,1407.6462 C 571.15222,1415.9167 571.87939,1424.1656 572.83438,1432.3886 C 573.78938,1440.6116 574.78059,1449.0278 572.94277,1457.0995 C 570.38291,1468.3424 562.09361,1477.9014 551.74769,1482.9923 C 541.40177,1488.0833 529.22319,1488.9001 517.99054,1486.2956 C 506.75789,1483.691 496.44264,1477.8183 487.68677,1470.3156 C 478.93091,1462.8129 471.66291,1453.7091 465.28415,1444.1035 C 452.52664,1424.8923 443.13396,1403.5047 429.22396,1385.1108 C 422.26896,1375.9138 414.15643,1367.4791 404.54908,1361.1029 C 394.94172,1354.7268 383.7663,1350.4702 372.24682,1349.9628 C 363.99296,1349.5992 355.78071,1351.0807 347.64642,1352.527 C 339.51213,1353.9733 331.35204,1355.2732 323.15896,1356.3371 C 322.66312,1356.4015 322.66312,1356.4015 322.66312,1356.4015"
         style="stroke:#ff0000"
         inkscape:connector-curvature="0" />
      <path
         id="path250"
         d="M 197.90994,1379.0009 C 197.52561,1379.3207 197.52561,1379.3207 197.52561,1379.3207 C 192.93589,1383.1401 188.35023,1387.2625 185.82528,1392.6734 C 184.5628,1395.3789 183.82543,1398.3376 183.76007,1401.3224 C 183.69471,1404.3072 184.30325,1407.3037 185.52063,1410.0297 C 187.9554,1415.4818 192.79722,1419.6287 198.26649,1422.0246 C 203.73576,1424.4206 209.74962,1425.2239 215.68136,1425.9079 C 297.52209,1435.3447 380.86809,1430.7328 461.4252,1413.4844 C 467.18704,1412.2507 473.01659,1410.9008 478.18029,1408.0623 C 483.34399,1405.2238 487.75164,1400.7537 489.73341,1395.2045 C 491.71517,1389.6554 491.06048,1383.2942 488.23789,1378.1218 C 485.4153,1372.9494 480.67174,1369.1477 475.93913,1365.6373 C 475.53755,1365.3394 475.53755,1365.3394 475.53755,1365.3394"
         style="stroke:#ff0000"
         inkscape:connector-curvature="0" />
      <path
         id="path260"
         d="M 213.54974,1253.0375 C 214.02243,1252.8745 214.02243,1252.8745 214.02243,1252.8745 C 235.01805,1245.6355 256.20328,1238.6 278.12638,1235.0508 C 300.04947,1231.5016 322.60169,1231.4582 344.3936,1235.7398 C 387.97742,1244.3029 426.25197,1270.4107 458.26305,1301.203 C 490.27413,1331.9954 518.44984,1366.7887 552.48325,1395.33 C 586.51666,1423.8713 626.5653,1444.1802 667.46141,1461.5118 C 667.92177,1461.7069 667.92177,1461.7069 667.92177,1461.7069"
         style="stroke:#ff0000"
         inkscape:connector-curvature="0" />
      <path
         id="path270"
         d="M 20.5354,1194.0583 C 20.06725,1193.8827 20.06725,1193.8827 20.06725,1193.8827 C 12.31692,1190.9758 4.69918,1187.7308 -2.82469,1184.2799 C -10.34857,1180.829 -18.03995,1177.2855 -26.28008,1176.4995 C -32.17943,1175.9369 -38.20436,1176.8851 -43.6864,1179.1359 C -49.16844,1181.3867 -54.10317,1184.9283 -58.06906,1189.3318 C -66.00086,1198.1387 -69.85015,1210.2995 -69.22221,1222.1351 C -68.59427,1233.9707 -63.65999,1245.4071 -56.09169,1254.5283 C -48.52339,1263.6495 -38.41706,1270.5089 -27.43296,1274.9614 C -5.46475,1283.8665 19.24729,1283.1755 42.64394,1279.3677 C 66.04059,1275.5599 88.92274,1268.7947 112.45227,1265.9201 C 128.83198,1263.919 145.35014,1263.345 161.80131,1262.0572 C 162.29979,1262.0182 162.29979,1262.0182 162.29979,1262.0182"
         style="stroke:#ff0000"
         inkscape:connector-curvature="0" />
      <path
         id="path280"
         d="M 993.64534,1331.1527 C 993.96748,1330.7703 993.96748,1330.7703 993.96748,1330.7703 C 1004.5998,1318.1495 1014.5438,1304.9252 1025.8596,1292.9134 C 1063.9915,1252.4363 1120.1885,1233.3669 1175.4776,1227.4041 C 1230.7666,1221.4414 1286.5529,1227.0928 1342.1495,1228.3006 C 1358.6457,1228.6589 1375.1467,1228.7233 1391.6454,1228.9346 C 1392.1454,1228.941 1392.1454,1228.941 1392.1454,1228.941"
         style="stroke:#ff0000"
         inkscape:connector-curvature="0" />
      <path
         id="path290"
         d="M 1330.0945,1211.6732 C 1329.5994,1211.6029 1329.5994,1211.6029 1329.5994,1211.6029 C 1313.257,1209.2838 1297.0735,1205.5206 1280.5905,1204.648 C 1246.7481,1202.8563 1213.5735,1217.7059 1187.644,1239.5276 C 1161.7146,1261.3492 1142.1794,1289.7328 1124.6811,1318.7556 C 1116.1615,1332.8861 1107.9443,1347.1964 1099.5759,1361.4169 C 1099.3223,1361.8478 1099.3223,1361.8478 1099.3223,1361.8478"
         style="stroke:#ff0000"
         inkscape:connector-curvature="0" />
    </g>
  </g>
</svg>
