<?xml version="1.0" encoding="UTF-8" standalone="no"?>
<svg
   xmlns:dc="http://purl.org/dc/elements/1.1/"
   xmlns:cc="http://creativecommons.org/ns#"
   xmlns:rdf="http://www.w3.org/1999/02/22-rdf-syntax-ns#"
   xmlns:svg="http://www.w3.org/2000/svg"
   xmlns="http://www.w3.org/2000/svg"
   xmlns:sodipodi="http://sodipodi.sourceforge.net/DTD/sodipodi-0.dtd"
   xmlns:inkscape="http://www.inkscape.org/namespaces/inkscape"
   x="0"
   y="0"
   width="1346.4481"
   height="1469.6942"
   version="1.1"
   id="svg8434"
   inkscape:version="0.48+devel r"
   sodipodi:docname="gnu_exported.svg">
  <metadata
     id="metadata8754">
    <rdf:RDF>
      <cc:Work
         rdf:about="">
        <dc:format>image/svg+xml</dc:format>
        <dc:type
           rdf:resource="http://purl.org/dc/dcmitype/StillImage" />
        <dc:title></dc:title>
      </cc:Work>
    </rdf:RDF>
  </metadata>
  <defs
     id="defs8752" />
  <sodipodi:namedview
     pagecolor="#ffffff"
     bordercolor="#666666"
     borderopacity="1"
     objecttolerance="10"
     gridtolerance="10"
     guidetolerance="10"
     inkscape:pageopacity="0"
     inkscape:pageshadow="2"
     inkscape:window-width="1600"
     inkscape:window-height="838"
     id="namedview8750"
     showgrid="false"
     inkscape:zoom="0.3932754"
     inkscape:cx="261.5382"
     inkscape:cy="772.03989"
     inkscape:window-x="0"
     inkscape:window-y="27"
     inkscape:window-maximized="1"
     inkscape:current-layer="g8436"
     fit-margin-top="0"
     fit-margin-left="0"
     fit-margin-right="0"
     fit-margin-bottom="0" />
  <g
     stroke-miterlimit="10"
     font-weight="normal"
     font-size="12"
     mix-blend-mode="normal"
     id="g8436"
     style="font-weight:normal;font-size:12px;font-family:sans-serif;text-anchor:start;fill:none;stroke:none;stroke-width:2;stroke-linecap:butt;stroke-linejoin:miter;stroke-miterlimit:10;stroke-dasharray:none;stroke-dashoffset:0"
     transform="translate(-17.996567,15.831161)">
    <polygon
       points="423.85427,29.88036 452.03092,34.38994 481.07047,38.47019 510.3104,41.4985 539.08807,42.85231 566.74115,41.90906 592.60685,38.04616 592.51605,39.1835 592.15932,42.31485 591.41022,47.01913 590.14248,52.87517 588.22973,59.46191 585.54545,66.35826 581.96336,73.14308 577.3571,79.39534 571.60014,84.69388 564.56629,88.61763 561.73718,88.94991 553.84329,89.84924 541.77472,91.16945 526.42172,92.76431 508.67437,94.48767 489.42281,96.19329 469.55725,97.73497 449.96785,98.96654 431.5447,99.74177 415.17794,99.91449 375.18747,100.16386 338.65669,106.27323 305.62132,117.82922 276.11699,134.41851 250.17934,155.6277 227.844,181.04349 209.14668,210.25248 194.12298,242.84139 182.80856,278.39683 175.2391,316.50538 175.53431,332.29225 175.46307,349.67238 175.88049,367.76398 177.6416,385.68542 181.60154,402.55484 188.61536,417.4906 199.53814,429.61083 215.225,438.03382 236.53101,441.87787 264.31125,440.26118 295.12254,430.07179 325.12465,410.41485 354.57713,383.73459 383.73954,352.47531 412.87145,319.08123 442.23237,285.99656 472.0819,255.66543 502.67961,230.53219 534.28502,213.04103 567.15763,205.63615 599.14204,206.11576 627.88927,210.09159 653.36878,216.72827 675.54998,225.19041 694.40251,234.64262 709.89575,244.24957 721.99912,253.1758 730.68224,260.58596 735.91444,265.64467 737.66527,267.51657 739.26456,265.68691 743.98506,260.73036 751.71062,253.44558 762.32519,244.63125 775.71262,235.08607 791.7568,225.60864 810.34179,216.99763 831.35132,210.05176 854.66932,205.56968 880.17982,204.35001 905.22859,210.31669 932.19339,225.46023 960.35451,247.47116 988.99216,274.04008 1017.3865,302.85766 1044.8176,331.61427 1070.5659,358.00068 1093.9115,379.70741 1114.1346,394.42501 1130.5153,399.84408 1144.6794,399.78403 1158.5448,399.1542 1171.8309,397.27999 1184.2567,393.48683 1195.5414,387.10028 1205.4042,377.44571 1213.5642,363.84859 1219.7403,345.63436 1223.6521,322.12857 1225.0184,292.65659 1222.5943,261.60147 1215.7038,233.79868 1204.9195,209.25212 1190.8142,187.96567 1173.9603,169.94336 1154.9305,155.18898 1134.2974,143.70659 1112.6337,135.49999 1090.512,130.57313 1068.5048,128.93 1048.201,129.27296 1030.596,130.20385 1015.3732,131.57567 1002.2155,133.24146 990.80632,135.05422 980.8286,136.86701 971.96548,138.5328 963.9002,139.90462 956.31588,140.83551 948.89562,141.17847 940.99547,140.83749 932.41956,139.76555 923.52286,137.88916 914.66049,135.13487 906.18744,131.4292 898.45875,126.69864 891.82955,120.86973 886.65481,113.86895 883.28958,105.62291 882.08898,96.05808 884.48475,96.85231 886.48472,97.69831 888.21266,98.56422 889.79242,99.41812 891.34753,100.2281 893.00176,100.96236 894.87895,101.58894 897.10272,102.07596 899.79685,102.39156 903.08508,102.50384 907.96056,100.63138 915.51977,95.56827 926.04125,88.14599 939.8038,79.1961 957.08596,69.55008 978.16645,60.03943 1003.3238,51.49564 1032.8367,44.75018 1066.9839,40.6346 1106.0438,39.98036 1148.5928,46.2547 1188.8396,61.4011 1226.2385,83.96532 1260.2438,112.49316 1290.3094,145.53048 1315.8898,181.62311 1336.4388,219.31683 1351.4107,257.15747 1360.2599,293.69084 1362.4401,327.46271 1360.0085,361.12104 1355.0499,397.40139 1347.0604,434.98114 1335.5361,472.53754 1319.973,508.74814 1299.8672,542.29018 1274.7149,571.84098 1244.0121,596.07801 1207.2549,613.67859 1163.9393,623.32011 1140.41,597.82007 1122.1369,577.45967 1108.1644,561.30196 1097.5364,548.41027 1089.2973,537.84775 1082.491,528.67749 1076.1616,519.96278 1069.3534,510.76673 1061.1105,500.15262 1050.4769,487.18357 1025.6997,461.19799 998.37645,438.98154 968.65824,420.39357 936.69565,405.29383 902.63969,393.54177 866.64091,384.99699 828.85033,379.51909 789.41864,376.96758 748.4967,377.20207 706.23522,380.08215 686.9927,381.82215 655.91601,386.74714 616.04252,394.25569 570.40947,403.74612 522.05426,414.61693 474.01419,426.2665 429.32657,438.09334 391.02871,449.49584 362.15798,459.87241 345.75166,468.62161 335.90789,479.65151 325.02576,496.21968 313.59388,516.74802 302.10088,539.65871 291.03542,563.37388 280.88613,586.31555 272.14166,606.90578 265.2906,623.56665 260.82164,634.72039 259.22342,638.78893 252.93744,638.72713 235.81004,637.36614 210.43709,632.94217 179.41437,623.69179 145.33775,607.85136 110.80305,583.65721 78.40609,549.34571 50.74271,503.15334 30.40873,443.31654 20,368.07157 21.92294,290.90088 35.5577,225.79899 58.96067,171.7703 90.18821,127.81941 127.29672,92.95084 168.34256,66.16902 211.38213,46.47851 254.47183,32.88382 295.66801,24.38948 333.02705,20 351.12686,20.00126 372.7397,22.06346 397.20301,25.56401 "
       id="polygon8438"
       style="stroke:#000000;stroke-width:4" />
    <path
       d="M 351.12686,20.00126 C 351.62605,20.0297 351.62605,20.0297 351.62605,20.0297 C 368.10483,20.96838 384.70238,20.53842 401.04594,22.84481 C 421.10103,25.67496 440.20622,34.01662 456.64755,45.8445 C 473.08889,57.67238 486.92225,72.91857 498.1395,89.78242 C 520.574,123.51013 532.42049,163.08101 541.90087,202.46359 C 551.38125,241.84617 558.87542,281.94479 573.84058,319.58665 C 588.80574,357.2285 612.20078,392.93778 646.57893,414.36224 C 660.58527,423.09099 675.6934,429.88997 690.25539,437.65637 C 690.69657,437.89166 690.69657,437.89166 690.69657,437.89166"
       id="path8440"
       style="stroke:#ff0000;stroke-width:4"
       inkscape:connector-curvature="0" />
    <polyline
       points="123.56359,466.10494 148.88476,494.20203 146.37931,497.39689 185.29295,523.84049 208.52172,528.03145"
       id="polyline8448"
       style="stroke:#000000;stroke-width:4" />
    <path
       d="M 123.56359,466.10494 C 123.22886,465.73352 123.22886,465.73352 123.22886,465.73352 C 112.1818,453.47539 101.65944,440.72949 90.09068,428.96246 C 78.34,417.01039 65.1978,406.45395 53.90073,394.07223 C 42.60366,381.69051 33.01858,366.99034 30.39221,350.4364 C 29.07903,342.15943 29.57605,333.53515 32.35639,325.6293 C 35.13673,317.72346 40.26147,310.57411 47.17412,305.8362 C 54.08677,301.09828 62.80171,298.89024 71.06539,300.2846 C 79.32907,301.67895 86.995,306.80009 91.0082,314.15718 C 92.99597,317.8012 94.08352,321.87772 94.70696,325.98155 C 95.3304,330.08538 95.51353,334.24208 95.67958,338.38968 C 96.01168,346.68487 96.65344,354.96674 97.79101,363.19027 C 97.85952,363.68555 97.85952,363.68555 97.85952,363.68555"
       id="path8450"
       style="stroke:#ff0000;stroke-width:4"
       inkscape:connector-curvature="0" />
    <polyline
       points="465.61036,67.26085 448.3612,68.34529 430.71788,68.31509 414.90761,67.70997 372.34684,67.20342 330.22565,73.406 291.30446,86.14137 256.04033,104.99848 224.85348,129.38547 198.01467,158.59276 175.63826,191.91696 157.68831,228.70855 144.08814,268.42397 134.30631,312.86551 133.73895,332.59734 132.71078,350.07789 132.20185,370.41025 133.39543,393.01938 138.13263,417.67751 149.20561,443.66445 169.55349,467.84607 198.89437,484.84909 233.49638,492.23843 269.13334,491.29463 254.94342,516.83447 242.25865,541.20768 230.60903,564.5197 223.41166,578.34033 199.77679,569.99536 174.7123,556.91708 150.14502,538.12577 127.48193,512.18123 107.80771,476.73407 92.87696,428.52388 85.39303,364.38782 88.40709,298.62646 100.77098,246.51664 119.87457,206.10361 144.01095,174.75266 126.32867,216.54429 110.83487,259.85924 99.13316,309.73781 98.07564,365.2479 97.85952,363.68555"
       id="polyline8458"
       style="stroke:#000000;stroke-width:4" />
    <path
       d="M 465.61036,67.26085 C 466.10937,67.22948 466.10937,67.22948 466.10937,67.22948 C 474.36802,66.71026 482.6001,65.84628 490.80458,64.76865 C 499.00906,63.69102 507.38316,62.57455 515.51183,64.12359 C 521.86346,65.33398 527.86196,68.22486 532.89849,72.2797 C 537.93502,76.33453 542.01522,81.53543 544.94253,87.30077 C 550.79715,98.83145 551.93731,112.39938 549.65658,125.12854 C 547.37585,137.85769 541.84449,149.8237 534.98782,160.78816 C 528.13115,171.75261 519.94443,181.81317 511.86472,191.91027 C 503.78502,202.00737 495.76016,212.21576 489.27498,223.40395 C 482.7898,234.59214 477.85428,246.86196 476.43179,259.71535 C 475.00931,272.56874 477.29857,286.06162 484.28168,296.94598 C 487.77324,302.38816 492.4032,307.12248 497.87992,310.55962 C 503.35663,313.99675 509.68304,316.11642 516.13949,316.46647 C 524.40394,316.91455 532.54287,314.60206 540.50837,312.35423 C 548.47387,310.1064 556.4993,308.07272 564.60251,306.38747 C 565.09204,306.28566 565.09204,306.28566 565.09204,306.28566"
       id="path8460"
       style="stroke:#ff0000;stroke-width:4"
       inkscape:connector-curvature="0" />
    <polyline
       points="1072.86392,431.74456 1088.96088,443.45933 1121.68284,455.41476 1146.08433,456.38449 1163.899,456.70464 1184.61902,454.9511 1208.10779,449.02416 1232.70331,436.50875 1254.91051,416.52962 1271.8386,390.83692 1283.17524,361.55597 1290.00487,329.16264 1292.65167,303.74097 1290.75794,353.89462 1284.7118,385.13481 1276.07041,416.58142 1264.77864,446.56234 1250.95058,473.42981 1234.91937,495.67006 1217.45038,512.42256 1198.83959,523.61046 1191.86561,523.69757 1190.56224,517.17797 1180.89803,499.88709 1184.49233,496.56136 1193.56204,495.28193"
       id="polyline8468"
       style="stroke:#000000;stroke-width:4" />
    <path
       d="M 1072.8639,431.74456 C 1072.4597,431.45034 1072.4597,431.45034 1072.4597,431.45034 C 1055.2771,418.94552 1038.6831,405.47245 1024.6287,389.53246 C 1010.5743,373.59247 998.77805,355.79121 985.0446,339.57387 C 971.31115,323.35653 954.81803,308.94404 935.10515,301.00601 C 915.39228,293.06798 893.57136,292.63961 872.3445,293.65448 C 871.84507,293.67836 871.84507,293.67836 871.84507,293.67836"
       id="path8470"
       style="stroke:#ff0000;stroke-width:4"
       inkscape:connector-curvature="0" />
    <polyline
       points="740.73942,332.52701 772.58667,296.09239 776.19039,293.09611 782.34109,288.0523 790.86671,281.69659 801.52177,274.78361 814.04789,268.0395 828.18558,262.11885 843.72526,257.59924 860.56834,254.97551 875.46638,254.86666 886.52736,258.13847 903.57749,268.42465 926.52746,287.17186 952.24868,311.90489 979.05508,340.01945 1005.17915,369.85758 1014.26017,381.7887 996.87827,368.75436 959.61242,349.03349 920.13783,333.29584 878.76906,321.42085 835.79462,313.17062 793.95103,308.25845 805.94504,301.27799 816.19254,297.34899 827.6728,293.97438 839.91072,291.76799 852.53622,291.45578 865.22721,293.99476 871.84507,293.67836"
       id="polyline8478"
       style="stroke:#000000;stroke-width:4" />
    <polyline
       points="351.11775,20.19256 372.71705,22.25347 397.14532,25.94227 423.76305,30.44697 451.91721,35.1467 480.95462,39.41983 510.22418,42.64437 539.07941,44.19419 566.88095,43.43812 590.67785,40.07846 590.25841,42.05536 589.33462,46.62952 587.90755,52.30947 585.86264,58.65929 583.09461,65.23877 579.51448,71.60653 575.0556,77.33196 569.66946,82.02578 563.47886,85.2562 561.31657,85.31413 553.41553,86.01833 541.34525,87.142 525.99719,88.53974 508.26376,90.06528 489.03881,91.57222 469.21861,92.91336 449.70429,93.94339 431.40723,94.51671 415.13242,94.49114 374.7033,94.54593 337.20553,100.61607 303.13422,112.32446 272.60033,129.26526 245.71042,150.99708 222.54458,177.05495 203.15445,206.97359 187.56978,240.29944 175.80929,276.59409 167.80816,315.8446 167.91582,332.34786 167.64267,349.74656 167.86769,368.24944 169.51073,387.03314 173.60039,405.33841 181.34923,422.31637 194.00669,436.66433 212.21212,446.67088 235.97136,451.16549 266.09854,449.61722 299.35264,438.83553 331.16897,418.2346 361.64316,390.90495 391.36049,359.35084 420.72996,325.99577 450.03246,293.28668 479.43235,263.70695 508.93374,239.74157 538.3414,223.7039 568.35175,217.15652 598.24888,217.81241 625.56319,221.79958 649.66898,228.29292 670.57633,236.49122 688.27616,245.59767 702.74282,254.81227 713.94006,263.32812 721.82694,270.3329 726.37875,275.02386 738.00619,287.76053 749.45211,274.98276 753.86184,270.65634 761.1315,264.08943 771.12753,256.06238 783.69399,247.36236 798.66749,238.76307 815.88639,231.01816 835.20366,224.85456 856.50869,220.97482 878.70792,220.12524 899.38198,225.26731 923.23725,238.90714 949.75963,259.9057 977.47561,285.90809 1005.36384,314.51345 1032.61481,343.3876 1058.56955,370.28996 1082.84019,393.14702 1106.0019,410.26616 1127.68306,417.66369 1145.12671,417.80437 1160.23608,417.33289 1175.83778,415.34984 1191.66757,410.74307 1206.98866,402.31996 1220.51824,389.37785 1231.19136,372.01218 1238.74592,350.4046 1243.32311,324.2139 1245.01667,292.34087 1242.58114,258.36738 1235.07797,227.19612 1223.07742,199.34226 1207.21535,175.01024 1188.18408,154.34072 1166.68251,137.39433 1143.37347,124.17345 1118.86768,114.6573 1093.72698,108.83491 1069.14328,106.78098 1047.42181,106.93003 1028.98655,107.68561 1012.91833,108.91382 998.96442,110.45977 986.90723,112.15383 976.56715,113.80886 967.79465,115.23264 960.43976,116.25707 954.28706,116.78491 948.85842,116.80994 943.05248,116.33116 936.52368,115.28534 932.51649,114.2072 940.21012,109.05879 952.97554,101.02929 968.66018,92.53737 987.69414,84.20144 1010.46639,76.70969 1037.36995,70.79571 1068.80499,67.23783 1104.2979,66.87373 1141.76763,72.63441 1176.86912,86.09316 1210.16748,106.45525 1240.94869,132.58222 1268.43314,163.12911 1291.87507,196.60709 1310.58907,231.42128 1323.96625,265.86405 1331.52512,298.06471 1333.17995,327.3508 1330.72516,358.06527 1325.80586,392.30139 1318.08556,427.47122 1307.09789,462.09782 1292.67432,494.7796 1274.64425,524.18493 1252.89233,549.19762 1227.16804,569.05612 1196.73251,583.23626 1175.08892,587.69033 1164.60567,575.80152 1146.95313,555.59695 1133.71025,539.73156 1123.90115,527.26623 1116.48085,517.16227 1110.31683,508.24724 1104.29303,499.33438 1097.4432,489.4659 1088.95199,477.93427 1077.44913,463.3267 1050.42082,434.44451 1019.78092,409.05067 986.47997,387.78198 950.85266,370.53856 913.20929,357.15073 873.81075,347.41246 832.87161,341.09816 790.56698,337.97734 747.044,337.83735 703.09269,340.4423 682.03685,341.9553 648.9906,346.79818 608.08696,354.10096 561.66862,363.34983 512.5608,373.98354 463.66026,385.43019 417.81627,397.14929 394.75107,403.59919 415.91582,381.50437 445.70787,347.97332 474.49458,316.14947 502.1849,288.59864 528.77017,268.95129 551.50401,258.30404 572.31079,255.35181 595.2217,257.45557 617.49944,262.38743 636.56639,269.24833 652.60321,277.3286 665.7097,285.95074 675.91159,294.43385 683.18276,302.07432 687.41947,308.20489 688.62787,312.15515 678.54997,313.9054 643.85545,317.17629 601.87085,322.72589 554.44088,329.94642 504.28662,338.56884 526.70156,315.42029 550.19615,300.50168 565.75319,295.76042 576.66937,297.40167 583.78594,302.39782 565.09204,306.28564"
       id="polyline8480"
       style="stroke:#000000;stroke-width:4" />
    <path
       d="M 351.11775,20.19256 C 350.62001,20.14507 350.62001,20.14507 350.62001,20.14507 C 345.94882,19.69937 341.22978,19.353 336.57738,19.96446 C 331.92499,20.57592 327.4118,22.12412 323.30219,24.38902 C 319.19258,26.65392 315.4989,29.58962 311.82884,32.51354 C 308.15878,35.43746 304.42994,38.37609 300.15885,40.31939 C 295.72319,42.33757 290.76938,43.20557 285.91219,42.81076 C 281.05501,42.41595 276.30524,40.75867 272.25954,38.04198 C 268.21384,35.32529 264.88159,31.55486 262.68725,27.20366 C 260.49291,22.85245 259.44198,17.93018 259.67297,13.06245 C 259.90396,8.19472 261.41686,3.39289 264.02216,-0.72543 C 266.62746,-4.84375 270.31945,-8.26852 274.62388,-10.55325 C 278.92831,-12.83797 283.83511,-13.97667 288.70567,-13.8162 C 293.57623,-13.65573 298.39865,-12.19593 302.53788,-9.62399 C 306.66448,-7.0599 310.04905,-3.48147 313.32488,0.10632 C 316.60071,3.69412 319.85322,7.33494 323.62811,10.39331 C 327.403,13.45167 331.69904,15.88176 336.31371,17.40101 C 340.92839,18.92026 345.79276,19.49229 350.62912,19.95375 C 351.12686,20.00124 351.12686,20.00124 351.12686,20.00124"
       id="path8482"
       style="stroke:#ff0000;stroke-width:4"
       inkscape:connector-curvature="0" />
    <polyline
       points="900.55006,453.07259 892.65426,458.99314 885.17631,465.0744 878.31987,471.4772 872.2886,478.36218 867.28608,485.89011 863.51582,494.22177 861.18155,503.51777 860.48679,513.93906 861.63519,525.64617 864.83033,538.79996 870.46337,553.71474 878.38954,570.24764 888.00885,587.87355 898.72124,606.06741 909.92649,624.30414 921.02461,642.05863 931.41553,658.8058 940.49902,674.02069 947.67519,687.17806 952.34372,697.75288 955.27812,706.08629 957.81597,712.98378 960.20388,718.61674 962.68816,723.15677 965.51536,726.77518 968.93195,729.64343 973.18438,731.93306 978.51914,733.81552 985.18268,735.46219 993.42147,737.04454 1001.61379,737.80539 1008.16654,737.13031 1013.36913,735.40504 1017.51085,733.01538 1020.88096,730.34712 1023.7689,727.786 1026.46401,725.71782 1029.2555,724.52836 1032.43271,724.60337 1036.28516,726.32864 1040.5572,730.999 1044.74356,739.0449 1048.75845,749.55538 1052.5162,761.61976 1055.93103,774.32709 1058.91717,786.76643 1061.38894,798.02708 1063.26072,807.19817 1064.44658,813.3687 1064.86092,815.62803 1063.92915,817.13186 1061.28356,821.31952 1057.14849,827.70523 1051.74841,835.80324 1045.30784,845.12786 1038.05117,855.19333 1030.20291,865.51382 1021.98754,875.60371 1013.62933,884.97717 1005.353,893.14851 1001.43531,895.57778 995.76749,897.64291 988.79613,899.39039 980.96816,900.86652 972.73029,902.1177 964.52934,903.19033 956.8121,904.13087 950.02532,904.98565 944.61579,905.80113 941.03034,906.62362"
       id="polyline8490"
       style="stroke:#000000;stroke-width:4" />
    <path
       d="M 900.55006,453.07259 C 900.95009,452.77263 900.95009,452.77263 900.95009,452.77263 C 904.67713,449.97796 908.57395,447.25677 913.03419,445.91242 C 917.49443,444.56808 922.35785,444.66395 926.7889,446.10158 C 931.21995,447.5392 935.13997,450.21071 938.81431,453.0743 C 942.48866,455.93789 946.05551,459.03443 950.26281,461.03432 C 955.14342,463.35427 960.66957,464.0673 965.53169,466.42577 C 971.41229,469.27828 976.08709,474.63778 977.83298,480.9362 C 979.57887,487.23462 978.27818,494.28944 974.44553,499.58369 C 970.61289,504.87794 964.46703,508.24868 958.03296,509.39803 C 951.59889,510.54738 944.99654,509.59152 938.54903,508.52015 C 938.05579,508.43819 938.05579,508.43819 938.05579,508.43819"
       id="path8492"
       style="stroke:#ff0000;stroke-width:4"
       inkscape:connector-curvature="0" />
    <polyline
       points="1000.56535,897.78347 1006.7181,902.69488 1012.28147,906.85628 1017.20189,910.48179 1021.42571,913.78582 1024.89944,916.98287 1027.56953,920.28691 1029.38232,923.91249 1030.28418,928.07374 1030.22168,932.98523 1029.1412,938.86122 1027.78563,945.16391 1026.65508,951.13452 1025.33164,956.65493 1023.39744,961.60747 1020.4345,965.87417 1016.02487,969.33722 1009.75072,971.87866 1001.19404,973.38066 989.93697,973.72541 975.56153,972.79494 960.13421,971.95008 945.7999,972.46636 932.25848,974.09686 919.21006,976.59557 906.35455,979.71555 893.39183,983.21081 880.02194,986.83456 865.94478,990.3405 850.86038,993.482 834.46856,996.01275 818.11069,997.32719 803.26376,997.09858 789.83138,995.49845 777.71702,992.69788 766.82432,988.86887 757.05674,984.18233 748.31792,978.81011 740.51132,972.92344 733.54065,966.694 727.3093,960.29302 720.82615,951.43455 713.37864,938.50396 705.28811,922.68016 696.87611,905.14169 688.4641,887.06749 680.37357,869.63631 672.92599,854.02677 666.44283,841.41765 661.24566,832.98779 657.65578,829.91595 654.73572,830.06597 651.44054,830.47314 647.93109,831.07321 644.36808,831.80192 640.91219,832.59489 637.72415,833.38786 634.96486,834.11658 632.79488,834.71665 631.37498,835.12389 630.86603,835.27391"
       id="polyline8500"
       style="stroke:#000000;stroke-width:4" />
    <path
       d="M 630.86603,835.27391 C 630.38643,835.41527 630.38643,835.41527 630.38643,835.41527 C 625.35593,836.89802 620.2613,838.56792 616.08311,841.73766 C 611.90493,844.9074 608.81082,849.52286 607.66682,854.64104 C 606.52283,859.75922 607.30273,865.1821 609.23341,870.05826 C 611.16409,874.93442 614.15805,879.30378 617.12893,883.62563 C 628.01182,899.45736 638.86492,915.52929 652.82328,928.72948 C 657.18634,932.85555 661.9454,936.72498 667.52067,938.95593 C 673.09593,941.18688 679.51071,941.59867 685.09806,939.39818 C 690.68541,937.19768 695.11226,932.42226 697.21917,926.79895 C 699.32608,921.17564 699.14875,914.99117 698.76545,908.99836 C 698.73354,908.49938 698.73354,908.49938 698.73354,908.49938"
       id="path8502"
       style="stroke:#ff0000;stroke-width:4"
       inkscape:connector-curvature="0" />
    <polyline
       points="979.7884,979.9495 982.17776,987.05188 984.65808,995.24542 987.01714,1004.18157 989.04282,1013.51177 990.52292,1022.88744 991.24531,1031.96002 990.99777,1040.38096 989.56819,1047.80168 986.74435,1053.87362 982.3142,1058.24822 973.28831,1061.51044 957.90403,1064.47079 937.78873,1067.11951 914.56992,1069.44699 889.87521,1071.44314 865.33204,1073.09836 842.56794,1074.40273 823.21043,1075.34663 808.88687,1075.92014 801.22495,1076.1135"
       id="polyline8510"
       style="stroke:#000000;stroke-width:4" />
    <path
       d="M 979.7884,979.9495 C 979.62897,979.4756 979.62897,979.4756 979.62897,979.4756 C 976.99574,971.64833 974.55224,963.75895 972.22828,955.83435 C 969.90432,947.90975 967.58291,939.92361 963.84556,932.55936 C 960.76097,926.48134 956.73233,920.94305 953.00274,915.23803 C 949.27315,909.53301 945.79256,903.5524 943.98391,896.9808 C 942.17526,890.4092 942.1716,883.12659 945.2076,877.02415 C 946.7256,873.97293 948.98967,871.27243 951.8279,869.38598 C 954.66613,867.49952 958.08338,866.45127 961.48851,866.59052 C 965.68923,866.76231 969.65668,868.69092 973.00787,871.22964 C 976.35906,873.76837 979.20392,876.90477 982.00386,880.041 C 987.60373,886.31346 993.60306,892.22584 1000.1746,897.47154 C 1000.5654,897.78347 1000.5654,897.78347 1000.5654,897.78347"
       id="path8512"
       style="stroke:#ff0000;stroke-width:4"
       inkscape:connector-curvature="0" />
    <polyline
       points="892.64938,1075.92854 883.80922,1107.50075 884.13123,1107.77102 885.02156,1108.60199 886.3666,1110.02387 888.0525,1112.06733 889.96578,1114.7623 891.99269,1118.13928 894.01967,1122.22849 895.93288,1127.06017 897.61886,1132.66497 898.96382,1139.07281 899.76755,1145.83501 899.84904,1152.49359 899.1236,1159.06488 897.50669,1165.56535 894.91359,1172.0115 891.2597,1178.41964 886.4603,1184.80658 880.43086,1191.18832 873.08652,1197.58166 864.34282,1204.00293"
       id="polyline8520"
       style="stroke:#000000;stroke-width:4" />
    <path
       d="M 892.64938,1075.9285 C 892.78419,1075.4471 892.78419,1075.4471 892.78419,1075.4471 C 897.23381,1059.5555 902.63167,1043.9079 906.13079,1027.7803 C 911.40428,1003.4746 910.75975,977.85976 903.89385,953.95504 C 897.02794,930.05032 883.91604,907.91803 865.97723,890.69085 C 848.03842,873.46367 825.29028,861.22231 800.94813,856.11971 C 776.60598,851.01712 750.74449,853.12158 727.68928,862.45077 C 704.63407,871.77996 684.5076,888.34611 671.24241,909.38444 C 657.97722,930.42277 651.69857,955.85323 654.02715,980.61518 C 656.35573,1005.3771 667.34535,1029.3005 684.88414,1046.9348 C 702.42294,1064.5691 726.42479,1075.7199 751.24086,1077.3749 C 767.71095,1078.4734 784.22368,1076.5426 800.7251,1076.1261 C 801.22494,1076.1135 801.22494,1076.1135 801.22494,1076.1135"
       id="path8522"
       style="stroke:#ff0000;stroke-width:4"
       inkscape:connector-curvature="0" />
    <polygon
       points="848.75648,1224.6192 914.83798,1374.6421 686.23162,1380 661.2278,1203.1872 "
       id="polygon8530"
       style="stroke:#000000;stroke-width:4" />
    <path
       d="M 848.75648,1224.6192 C 849.25325,1224.6759 849.25325,1224.6759 849.25325,1224.6759 C 865.6598,1226.551 882.40753,1226.3126 898.43311,1230.2965 C 915.16439,1234.4558 930.23994,1244.8773 940.14184,1258.9907 C 950.04374,1273.1041 954.71148,1290.7802 953.18975,1307.9534 C 951.66802,1325.1267 943.9918,1341.6706 931.9482,1354.007 C 919.90459,1366.3434 903.59238,1374.4036 886.49195,1376.597 C 869.39152,1378.7903 851.61275,1375.1246 836.71236,1366.452 C 821.81198,1357.7794 809.86463,1344.1674 803.08452,1328.3161 C 796.30441,1312.4647 794.70848,1294.4642 798.47354,1277.6398 C 802.2386,1260.8154 811.32832,1245.2424 824.04285,1233.5987 C 836.21807,1222.4489 850.63339,1214.071 863.93983,1204.2989 C 864.34283,1204.0029 864.34283,1204.0029 864.34283,1204.0029"
       id="path8532"
       style="stroke:#ff0000;stroke-width:4"
       inkscape:connector-curvature="0" />
    <polyline
       points="898.14393,1364.03036 695.75353,1368.77381 686.99449,1228.27521 826.19138,1255.25511 848.06176,1332.19508 733.84114,1323.86907 738.52786,1278.45119 796.10458,1296.10303 797.97959,1300.3598"
       id="polyline8540"
       style="stroke:#000000;stroke-width:4" />
    <path
       d="M 898.14393,1364.0304 C 898.64379,1364.0186 898.64379,1364.0186 898.64379,1364.0186 C 906.95777,1363.8238 915.27198,1364.1939 923.55711,1364.9128 C 927.69967,1365.2722 931.85636,1365.6136 936.01138,1365.4529 C 940.1664,1365.2922 944.35512,1364.602 948.1302,1362.8588 C 953.73122,1360.2724 958.15609,1355.3985 960.56888,1349.7205 C 962.98167,1344.0425 963.43838,1337.6178 962.25883,1331.5623 C 961.07928,1325.5067 958.31039,1319.8165 954.60435,1314.8843 C 950.89831,1309.9522 946.27129,1305.7574 941.23788,1302.1901 C 931.17105,1295.0555 919.58623,1290.4411 908.33714,1285.3715 C 897.08804,1280.3019 885.84385,1274.5564 877.23837,1265.714 C 871.47692,1259.7939 867.05739,1252.7248 862.66072,1245.7311 C 858.26406,1238.7374 853.747,1231.8197 849.04129,1225.0301 C 848.75647,1224.6192 848.75647,1224.6192 848.75647,1224.6192"
       id="path8542"
       style="stroke:#ff0000;stroke-width:4"
       inkscape:connector-curvature="0" />
    <polyline
       points="416.54752,763.83438 417.71732,795.36065 420.97675,821.01452 425.95073,841.88915 432.26418,859.07752 439.5421,873.67265 447.40936,886.76745 455.49096,899.45509 463.41183,912.82864 470.79688,927.98095 477.27107,946.0051 482.63978,964.05428 487.21544,978.95295 491.38394,991.30134 495.531,1001.69935 500.04242,1010.74721 505.30392,1019.04484 511.70134,1027.19245 519.62041,1035.79026 529.44694,1045.43819 541.56663,1056.7363 552.78798,1067.5308 560.18375,1075.79638 564.53623,1082.326 566.62761,1087.91249 567.24019,1093.34911 567.15626,1099.42853 567.15801,1106.94402 568.02782,1116.6884 570.54781,1129.45464 575.50035,1146.03569 582.95869,1164.12592 592.08866,1180.81243 602.31163,1195.97726 613.04897,1209.50258 623.72207,1221.27043 633.75213,1231.163 642.56062,1239.06246 649.56884,1244.85085 654.19815,1248.41021 655.86985,1249.62301"
       id="polyline8550"
       style="stroke:#000000;stroke-width:4" />
    <path
       d="M 655.86985,1249.623 C 656.27456,1249.9166 656.27456,1249.9166 656.27456,1249.9166 C 658.98948,1251.8863 661.72482,1253.8496 664.69351,1255.4107 C 667.6622,1256.9719 670.86956,1258.1252 674.19657,1258.5509 C 677.52358,1258.9767 680.95552,1258.6619 684.1133,1257.5311 C 687.27109,1256.4003 690.13269,1254.4583 692.35777,1251.9485 C 694.58285,1249.4386 696.16453,1246.3798 697.0328,1243.14 C 697.90108,1239.9002 698.06512,1236.4916 697.69633,1233.1578 C 696.95875,1226.4902 694.13287,1220.2562 691.25932,1214.1946 C 612.82155,1048.7331 490.5922,907.76175 358.31771,781.13849 C 354.27807,777.27144 350.15677,773.38589 345.25792,770.68885 C 340.35906,767.99181 334.61876,766.60105 329.10498,767.53433 C 323.5912,768.46762 318.5743,771.77136 315.33318,776.32854 C 312.09206,780.88572 310.68052,786.45664 309.49431,791.92159 C 309.38825,792.41021 309.38825,792.41021 309.38825,792.41021"
       id="path8552"
       style="stroke:#ff0000;stroke-width:4"
       inkscape:connector-curvature="0" />
    <polyline
       points="309.38826,792.41022 308.08805,798.40036 305.41621,815.47084 303.2159,842.27136 303.3302,877.45176 307.60229,919.66181 317.87528,967.55121 335.99233,1019.76989 363.79657,1074.9677 403.13116,1131.79417 455.83922,1188.89946"
       id="polyline8560"
       style="stroke:#000000;stroke-width:4" />
    <path
       d="M 455.83922,1188.8995 C 456.17834,1189.2669 456.17834,1189.2669 456.17834,1189.2669 C 467.36998,1201.3922 478.94728,1213.1695 489.75165,1225.6411 C 517.23992,1257.3711 537.58144,1294.5029 559.98476,1330.0063 C 582.38808,1365.5097 607.7241,1400.3172 642.22106,1424.2412 C 659.46954,1436.2033 678.89609,1445.2557 699.47476,1449.3932 C 720.05343,1453.5306 741.80761,1452.6256 761.54226,1445.4741 C 781.27691,1438.3226 798.85555,1424.7501 809.62837,1406.7349 C 820.40119,1388.7197 824.00382,1366.2708 818.13476,1346.1175 C 813.51743,1330.2625 804.83786,1315.93 798.18114,1300.8174 C 797.97959,1300.3598 797.97959,1300.3598 797.97959,1300.3598"
       id="path8562"
       style="stroke:#ff0000;stroke-width:4"
       inkscape:connector-curvature="0" />
    <polyline
       points="261.16658,654.88919 258.78051,671.79531 256.00867,686.19395 253.00104,698.25649 249.90773,708.15448 246.8787,716.0592 244.06398,722.14229 241.61361,726.57511 239.67759,729.52913 238.40595,731.1758 237.94877,731.68659 227.23283,767.4064 187.94112,801.34011 184.36914,828.12995 227.23283,819.19998 259.38061,828.12995 287.95642,794.19615 368.32584,774.55028 370.60833,773.20188 376.94147,769.33525 386.55365,763.21821 398.67334,755.11875 412.52903,745.30478 427.34915,734.04413 442.36216,721.60471 456.79651,708.25444 469.88068,694.26121 480.84305,679.89301 489.55509,664.77458 496.53117,648.74537 501.96413,632.39468 506.0469,616.31182 508.97235,601.08625 510.93336,587.30737 512.12282,575.56454 512.73364,566.44709 512.95867,560.54439 512.99083,558.44584"
       id="polyline8570"
       style="stroke:#000000;stroke-width:4" />
    <path
       d="M 261.16658,654.88919 C 261.23646,654.3941 261.23646,654.3941 261.23646,654.3941 C 263.54252,638.05494 265.242,621.62195 268.15418,605.37987 C 274.21377,571.58366 287.55513,538.72346 309.3401,512.18448 C 331.12507,485.6455 361.68495,465.77243 395.46921,459.64658 C 429.25347,453.52073 466.02657,461.9937 491.86534,484.60476 C 504.78473,495.91029 514.84433,510.53234 520.40709,526.77369 C 525.96985,543.01504 526.97509,560.84677 522.88607,577.52027 C 518.95388,593.55425 511.6433,608.53638 506.01726,624.05728 C 505.84687,624.52735 505.84687,624.52735 505.84687,624.52735"
       id="path8572"
       style="stroke:#ff0000;stroke-width:4"
       inkscape:connector-curvature="0" />
    <polyline
       points="525.4927,729.90066 517.13075,708.28839 511.10482,689.45159 507.07207,673.27228 504.68954,659.63273 503.6144,648.41496 503.50368,639.50109 504.01447,632.77323 504.80385,628.11363 505.52898,625.40432 505.84687,624.52734"
       id="polyline8580"
       style="stroke:#000000;stroke-width:4" />
    <path
       d="M 525.4927,729.90066 C 525.67312,730.36697 525.67312,730.36697 525.67312,730.36697 C 528.68689,738.15635 532.34855,745.67354 536.39034,752.98252 C 538.41123,756.63701 540.41958,760.3205 541.85039,764.24378 C 543.28121,768.16706 544.11213,772.3961 543.53473,776.53203 C 542.97998,780.50566 541.11036,784.26266 538.38273,787.20503 C 535.6551,790.1474 532.09205,792.27981 528.25098,793.43896 C 520.56883,795.75726 512.02132,794.10965 505.10298,790.04437 C 498.18464,785.97909 492.78251,779.68198 488.72698,772.75792 C 484.67145,765.83386 481.87003,758.25806 479.23327,750.67931 C 476.59651,743.10056 474.09215,735.44634 470.56981,728.23641 C 467.04747,721.02648 462.4354,714.21432 456.20641,709.1557 C 449.97742,704.09708 442.00009,700.90972 433.99368,701.44575 C 429.99047,701.71377 426.03458,702.91197 422.63379,705.04084 C 419.233,707.16971 416.40373,710.23937 414.69349,713.86877 C 412.91593,717.64105 412.37235,721.89494 412.45146,726.0643 C 412.53056,730.23366 413.1958,734.3677 413.88108,738.48111 C 415.25164,746.70794 416.21971,755.00024 416.52896,763.33472 C 416.5475,763.83438 416.5475,763.83438 416.5475,763.83438"
       id="path8582"
       style="stroke:#ff0000;stroke-width:4"
       inkscape:connector-curvature="0" />
    <polyline
       points="705.11116,547.41174 702.48434,547.42563 695.31123,547.52284 684.65248,547.78678 671.56897,548.30078 657.12157,549.14815 642.37108,550.41231 628.37831,552.17657 616.20413,554.52426 606.90934,557.53879 601.55467,561.30341 600.56461,566.72248 599.9988,571.39139 600.05435,575.54501 600.92828,579.41821 602.81761,583.24608 605.9192,587.26326 610.43024,591.70486 616.54766,596.80566 624.46849,602.80053 634.38967,609.9245 645.28878,615.96867 655.91624,618.89843 666.12868,619.2096 675.78272,617.39803 684.73497,613.95947 692.84213,609.38991 699.96068,604.18518 705.94732,598.84111 710.65873,593.85355 713.95132,589.71832"
       id="polyline8590"
       style="stroke:#000000;stroke-width:4" />
    <path
       d="M 705.11116,547.41174 C 705.61115,547.4091 705.61115,547.4091 705.61115,547.4091 C 713.91294,547.36521 722.20192,546.82192 730.46,545.97004 C 734.58904,545.5441 738.72953,545.13378 742.88035,545.1671 C 747.03117,545.20042 751.22102,545.69734 755.11045,547.14741 C 759.73179,548.87035 763.83388,551.94341 766.82353,555.86608 C 769.81318,559.78874 771.6859,564.5456 772.21942,569.44872 C 772.75294,574.35184 771.95122,579.38781 769.96449,583.90202 C 767.97775,588.41624 764.81504,592.40057 760.89791,595.39746 C 753.06365,601.39124 742.26594,603.15858 732.82386,600.30406 C 723.38178,597.44953 715.46357,590.14597 711.53169,581.09935 C 708.23249,573.50843 707.57956,565.07029 706.9265,556.81921 C 706.27344,548.56813 705.39753,540.33518 704.16589,532.15045 C 704.09149,531.65602 704.09149,531.65602 704.09149,531.65602"
       id="path8592"
       style="stroke:#ff0000;stroke-width:4"
       inkscape:connector-curvature="0" />
    <polygon
       points="683.49263,569.86459 683.84784,572.7027 684.15733,575.6787 684.41784,578.58327 684.62608,581.20696 684.77892,583.34024 684.87293,584.77387 684.90505,585.29824 682.81344,588.1787 680.60386,590.49564 678.29485,592.31492 675.90496,593.70262 673.45295,594.72481 670.95722,595.4475 668.43655,595.93677 665.90938,596.25863 663.39442,596.47907 660.91022,596.66419 658.43212,596.69723 655.95852,596.34859 653.54283,595.51472 651.23825,594.09223 649.09826,591.97758 647.17612,589.06736 645.52517,585.25795 644.19868,580.44604 643.25005,574.52808 642.73254,567.40061 682.18499,564.27238 682.65793,565.44001 683.09485,567.3739 "
       id="polygon8600"
       style="stroke:#000000;stroke-width:4" />
    <path
       d="M 684.90505,585.29824 C 684.93562,585.7973 684.93562,585.7973 684.93562,585.7973 C 685.94481,602.27038 685.79139,618.84413 687.96247,635.20467 C 691.39588,661.07775 702.78323,685.87448 720.34743,705.18002 C 737.91163,724.48555 761.5974,738.18494 787.13985,743.55035 C 812.68231,748.91576 839.95414,745.88095 863.59284,734.81673 C 887.23154,723.75251 907.07873,704.68782 918.87442,681.4055 C 930.6701,658.12318 934.29673,630.75955 928.74332,605.25731 C 923.1899,579.75507 908.45346,556.31489 887.73518,540.44172 C 867.0169,524.56855 840.46056,516.43304 814.42124,518.2103 C 788.38192,519.98756 763.10475,531.71145 745.09603,550.60301 C 733.70683,562.55053 724.54443,576.4142 714.26277,589.32716 C 713.95132,589.71831 713.95132,589.71831 713.95132,589.71831"
       id="path8602"
       style="stroke:#ff0000;stroke-width:4"
       inkscape:connector-curvature="0" />
    <polyline
       points="873.70613,553.41043 882.19306,551.20733 890.37875,549.19744 898.20832,547.46035 905.62682,546.07563 912.57926,545.12272 919.01083,544.68137 924.86652,544.83101 930.0914,545.65129 934.63051,547.22166 938.42893,549.62178 941.63384,552.5188 944.4428,555.48411 946.87672,558.45309 948.95636,561.36155 950.70261,564.14495 952.13632,566.73888 953.27823,569.07902 954.14934,571.10089 954.77039,572.74009 955.16214,573.93229"
       id="polyline8610"
       style="stroke:#000000;stroke-width:4" />
    <path
       d="M 955.16214,573.93229 C 955.31823,574.4073 955.31823,574.4073 955.31823,574.4073 C 957.89903,582.26131 960.20646,590.20162 962.34126,598.1884 C 964.47606,606.17518 966.62194,614.28284 970.77091,621.43351 C 974.33922,627.58343 979.40541,632.86514 985.43301,636.6364 C 991.46061,640.40766 998.44099,642.65618 1005.5401,643.05322 C 1012.6391,643.45026 1019.8414,641.98873 1026.1979,638.8031 C 1032.5545,635.61747 1038.0463,630.70994 1041.8744,624.71833 C 1045.7026,618.72671 1047.8502,611.6646 1047.9471,604.55511 C 1048.0441,597.44561 1046.0826,590.312 1042.3147,584.28227 C 1038.5469,578.25254 1032.9799,573.35328 1026.4961,570.43524 C 1020.0123,567.5172 1012.6353,566.6002 1005.6448,567.89916 C 997.50552,569.41159 990.1779,573.6736 983.01517,577.82459 C 975.85243,581.97558 968.5745,585.92674 961.12955,589.54728 C 960.6799,589.76595 960.6799,589.76595 960.6799,589.76595"
       id="path8612"
       style="stroke:#ff0000;stroke-width:4"
       inkscape:connector-curvature="0" />
    <polygon
       points="918.93048,557.98075 922.48563,558.14588 925.81241,558.84659 928.84723,560.22765 931.5264,562.4341 933.78634,565.6107 935.56335,569.90236 935.56617,573.57197 934.93138,576.92149 933.74575,579.94708 932.09587,582.64517 930.0682,585.01209 927.74958,587.04419 925.22638,588.73772 922.58537,590.08916 919.91307,591.09472 917.29617,591.75072 914.79441,592.02176 912.42077,591.90226 910.19104,591.4339 908.12141,590.65833 906.22781,589.61714 904.52619,588.35184 903.03266,586.90417 901.76309,585.31564 900.73365,583.62791 899.96014,581.88265 899.43119,579.98905 899.12002,577.86821 899.02036,575.57881 899.12559,573.17976 899.42928,570.72982 899.92504,568.28796 900.60637,565.91287 901.46679,563.66354 902.4999,561.59863 903.69912,559.77714 907.53134,559.24926 911.38973,558.67727 915.21066,558.20616 "
       id="polygon8620"
       style="stroke:#000000;stroke-width:4" />
    <path
       d="M 917.29617,591.75072 C 916.81118,591.8723 916.81118,591.8723 916.81118,591.8723 C 908.77764,593.88613 900.8456,596.27904 892.99041,598.90381 C 885.13522,601.52857 877.07253,604.23318 868.79679,603.90845 C 860.93921,603.60013 853.25817,600.36545 847.4297,595.08666 C 841.60123,589.80787 837.64206,582.54314 836.1931,574.81416 C 834.74414,567.08518 835.78514,558.93461 838.97009,551.74484 C 842.15504,544.55507 847.4509,538.34164 853.94691,533.91011 C 860.44293,529.47858 868.11177,526.82303 875.94304,526.11031 C 883.77431,525.39759 891.75371,526.612 899.08532,529.45526 C 913.74855,535.14178 925.4925,547.30918 931.92029,561.66294 C 938.6698,576.73511 941.22774,593.30816 945.88757,609.15152 C 946.02865,609.6312 946.02865,609.6312 946.02865,609.6312"
       id="path8622"
       style="stroke:#ff0000;stroke-width:4"
       inkscape:connector-curvature="0" />
    <polyline
       points="909.69834,615.92319 910.22668,615.88733 911.70594,615.74387 913.97748,615.43873 916.88289,614.91802 920.26354,614.12757 923.96077,613.01358 927.81604,611.52196 931.67085,609.59875 935.36663,607.18994 938.74468,604.24149 941.14976,602.00581 943.85601,599.84354 946.73281,597.79298 949.64967,595.89205 952.47603,594.17907 955.08126,592.69195 957.33479,591.469 959.10615,590.5483 960.2647,589.96784 960.67988,589.76593"
       id="polyline8630"
       style="stroke:#000000;stroke-width:4" />
    <path
       d="M 909.69834,615.92319 C 909.19949,615.95705 909.19949,615.95705 909.19949,615.95705 C 900.79116,616.52781 892.48091,618.02473 884.30616,620.07392 C 880.21878,621.09851 876.0899,622.09622 871.87953,622.26698 C 867.66915,622.43775 863.28554,621.69662 859.81314,619.30939 C 856.68729,617.16041 854.49553,613.74816 853.66923,610.04597 C 852.84293,606.34377 853.35374,602.38554 854.9322,598.93627 C 856.51066,595.487 859.12753,592.54771 862.27315,590.42778 C 865.41877,588.30785 869.07907,586.99458 872.83279,586.44812 C 880.34023,585.3552 888.03717,587.30913 894.86231,590.62179 C 901.68744,593.93444 907.77759,598.55645 913.82783,603.13364 C 919.87807,607.71083 925.99199,612.30701 932.84677,615.55788 C 939.70155,618.80875 947.43427,620.65943 954.92074,619.43108 C 958.66398,618.8169 962.29859,617.42878 965.39555,615.23837 C 968.4925,613.04796 971.03701,610.04277 972.52143,606.552 C 974.00586,603.06122 974.40046,599.08699 973.45755,595.41276 C 972.51464,591.73853 970.20673,588.39996 967.0053,586.3653 C 963.44803,584.10449 959.03528,583.53267 954.83402,583.87148 C 950.63275,584.21029 946.54693,585.37718 942.50415,586.56941 C 934.4186,588.95386 926.17404,590.78892 917.79327,591.69688 C 917.29618,591.75073 917.29618,591.75073 917.29618,591.75073"
       id="path8632"
       style="stroke:#ff0000;stroke-width:4"
       inkscape:connector-curvature="0" />
    <polyline
       points="946.02866,609.63118 968.12921,684.77276 968.76064,717.60775"
       id="polyline8640"
       style="stroke:#000000;stroke-width:4" />
    <path
       d="M 968.76064,717.60775 C 968.77025,718.10766 968.77025,718.10766 968.77025,718.10766 C 968.84166,721.82128 968.89446,725.55029 968.41958,729.23411 C 967.94471,732.91793 966.93252,736.55849 965.1608,739.82301 C 963.38908,743.08753 960.85401,745.95278 957.75003,747.99272 C 954.64605,750.03266 950.99257,751.22786 947.28282,751.41177 C 943.57307,751.59568 939.83126,750.77426 936.49306,749.14562 C 933.15486,747.51698 930.22647,745.10001 927.84805,742.24709 C 923.09121,736.54124 920.6332,729.27914 918.92586,722.04939 C 914.71454,704.21657 914.3145,685.71653 914.59246,667.39531 C 914.67977,661.6403 914.86458,655.80359 916.55623,650.30213 C 918.24788,644.80067 921.58977,639.68673 926.43514,636.58026 C 931.28051,633.47379 937.43714,632.61528 943.02011,634.01464 C 948.60308,635.414 953.39579,638.90042 957.92583,642.45099 C 958.31936,642.75943 958.31936,642.75943 958.31936,642.75943"
       id="path8642"
       style="stroke:#ff0000;stroke-width:4"
       inkscape:connector-curvature="0" />
    <polyline
       points="1140.17464,616.23887 1143.2902,625.36067 1145.85254,633.7475 1147.91485,641.34632 1149.53009,648.10402 1150.75128,653.96757 1151.63155,658.88394 1152.22383,662.80017 1152.58125,665.66308 1152.75675,667.41979 1152.80352,668.01711 1153.26823,668.40612 1154.5513,669.46188 1156.48603,671.01775 1158.90576,672.907 1161.64368,674.96298 1164.53322,677.01896 1167.4075,678.90821 1170.09987,680.46408 1172.44383,681.51992 1174.27257,681.90885 1175.88902,681.90885 1177.65703,681.90885 1179.50087,681.90885 1181.34472,681.90885 1183.11272,681.90885 1184.72918,681.90885 1186.1184,681.90885 1187.20438,681.90885 1187.91158,681.90885 1188.16416,681.90885 1179.324,705.90369 1087.13354,712.21805 1049.24704,686.96036 1005.0461,679.38306 958.31936,642.75942"
       id="polyline8650"
       style="stroke:#000000;stroke-width:4" />
    <path
       d="M 1140.1746,616.23887 C 1140.013,615.76571 1140.013,615.76571 1140.013,615.76571 C 1137.3285,607.90591 1134.1582,600.22355 1130.6958,592.67406 C 1128.9646,588.89932 1127.2448,585.10779 1125.957,581.15972 C 1124.6692,577.21164 1123.824,573.07111 1124.0137,568.92264 C 1124.3763,560.99534 1128.6142,553.52321 1134.6282,548.34586 C 1140.6422,543.16851 1148.2972,540.1473 1156.1131,538.77395 C 1171.7448,536.02726 1187.6988,539.56986 1203.5341,540.63698 C 1211.4517,541.17054 1219.4843,541.07337 1227.214,539.27717 C 1234.9436,537.48098 1242.3934,533.89328 1247.9141,528.19278 C 1253.4348,522.49228 1256.8551,514.54985 1256.2114,506.64041 C 1255.8895,502.68569 1254.562,498.80026 1252.2872,495.54932 C 1250.0124,492.29838 1246.7831,489.7012 1243.0718,488.29777 C 1239.1669,486.82113 1234.8638,486.68006 1230.7195,487.18381 C 1226.5752,487.68756 1222.5319,488.80053 1218.5134,489.9321 C 1210.4763,492.19525 1202.3249,494.04578 1194.0571,495.21208 C 1193.562,495.28192 1193.562,495.28192 1193.562,495.28192"
       id="path8652"
       style="stroke:#ff0000;stroke-width:4"
       inkscape:connector-curvature="0" />
    <polyline
       points="690.69657,437.89166 717.4864,452.17959 731.77425,450.39358 775.53094,558.44584"
       id="polyline8660"
       style="stroke:#000000;stroke-width:4" />
    <path
       d="M 775.53094,558.44584 C 775.71861,558.90928 775.71861,558.90928 775.71861,558.90928 C 777.34835,562.93374 779.08059,566.93134 781.3078,570.65852 C 783.53501,574.3857 786.21508,577.81723 788.85857,581.26168 C 791.50206,584.70614 794.13773,588.26173 795.56073,592.36385 C 796.27223,594.41491 796.65917,596.59748 796.50479,598.76294 C 796.35042,600.92841 795.63402,603.07851 794.29841,604.79 C 793.11808,606.30251 791.47658,607.43841 789.66597,608.07286 C 787.85536,608.70731 785.8823,608.84613 783.98876,608.53732 C 780.20169,607.9197 776.83654,605.52711 774.57926,602.4242 C 772.32198,599.32129 771.10045,595.55715 770.57143,591.75669 C 770.04241,587.95623 770.17412,584.09605 770.41462,580.26649 C 770.65512,576.43693 771.00351,572.60586 770.90435,568.77003 C 770.80519,564.93421 770.24354,561.06354 768.73519,557.53534 C 767.22684,554.00713 764.70948,550.83003 761.34037,548.9936 C 759.65582,548.07539 757.77553,547.5032 755.86005,547.39469 C 753.94457,547.28618 751.99601,547.64768 750.27542,548.49645 C 748.34769,549.44741 746.7421,550.98903 745.56197,552.78562 C 744.38184,554.58221 743.61277,556.62845 743.14888,558.72733 C 742.2211,562.92507 742.46416,567.28442 742.76332,571.57304 C 743.36164,580.1503 743.17631,588.77756 741.68399,597.24516 C 741.59721,597.73757 741.59721,597.73757 741.59721,597.73757"
       id="path8662"
       style="stroke:#ff0000;stroke-width:4"
       inkscape:connector-curvature="0" />
    <polyline
       points="472.80612,530.763 502.27489,507.54518 502.47851,507.14244 503.04645,506.03784 503.91443,504.38667 505.01819,502.34442 506.29337,500.06639 507.67572,497.70794 509.10096,495.42457 510.50472,493.37157 511.82278,491.70437 512.99083,490.57833 514.15884,489.3772 515.47691,487.50641 516.8807,485.15338 518.3059,482.50565 519.68825,479.75079 520.96347,477.07628 522.06719,474.6696 522.93521,472.71846 523.50315,471.4102 523.70673,470.93245 539.78062,454.8586 540.08424,454.78268 540.92368,454.57283 542.19173,454.25579 543.78125,453.85839 545.58512,453.40742 547.49611,452.92967 549.40711,452.45192 551.21098,452.00095 552.8005,451.60363 554.06855,451.28658 555.8161,450.76511 558.72639,449.79351 562.51535,448.45763 566.89903,446.84308 571.5935,445.03563 576.31476,443.12104 580.77887,441.18501 584.70182,439.31331 587.7996,437.59163 589.78827,436.10573"
       id="polyline8670"
       style="stroke:#000000;stroke-width:4" />
    <path
       d="M 472.80612,530.763 C 472.41337,531.07244 472.41337,531.07244 472.41337,531.07244 C 465.72891,536.33898 458.38525,540.68535 450.73829,544.41931 C 446.91481,546.28629 443.06788,548.21813 439.81986,550.96676 C 438.19585,552.34108 436.73394,553.92382 435.6156,555.73364 C 434.49726,557.54347 433.72915,559.58833 433.53153,561.7066 C 433.26722,564.53965 434.04999,567.44105 435.61169,569.81952 C 437.17339,572.19799 439.49149,574.05226 442.11311,575.15823 C 444.73472,576.2642 447.6481,576.63194 450.4769,576.32544 C 453.3057,576.01894 456.04829,575.0485 458.50094,573.60609 C 463.40623,570.72125 467.0628,566.02435 469.49744,560.88074 C 471.93208,555.73713 473.23176,550.13433 474.24369,544.53431 C 475.25562,538.9343 475.99935,533.27688 477.40295,527.76199 C 478.80656,522.2471 480.91016,516.82301 484.36963,512.30458 C 487.8291,507.78615 492.75994,504.22526 498.35933,503.20989 C 501.15903,502.7022 504.08764,502.84161 506.7932,503.72251 C 509.49876,504.60341 511.97135,506.23645 513.75704,508.45171 C 516.40558,511.73738 517.41987,516.0895 517.47538,520.30937 C 517.53089,524.52924 516.72594,528.70902 515.89089,532.84581 C 514.22078,541.1194 513.12783,549.50642 512.99849,557.9459 C 512.99083,558.44584 512.99083,558.44584 512.99083,558.44584"
       id="path8672"
       style="stroke:#ff0000;stroke-width:4"
       inkscape:connector-curvature="0" />
    <polygon
       points="546.92459,475.3974 606.75513,445.03563 614.7921,453.96559 540.67363,528.08406 "
       id="polygon8680"
       style="stroke:#000000;stroke-width:4" />
    <path
       d="M 606.75513,445.03563 C 607.201,444.80937 607.201,444.80937 607.201,444.80937 C 615.53882,440.57824 624.43385,437.38255 633.70788,436.19334 C 638.34489,435.59874 643.02263,435.29356 647.62252,434.45901 C 652.22241,433.62446 656.82727,432.1906 660.54522,429.35647 C 663.30061,427.25608 665.48378,424.42174 666.85458,421.23981 C 668.22537,418.05787 668.78543,414.53647 668.51649,411.08228 C 667.97862,404.17389 664.0418,397.68166 658.35749,393.71884 C 652.67318,389.75603 645.38013,388.29885 638.5422,389.42044 C 631.70427,390.54203 625.36171,394.15941 620.6398,399.23078 C 615.18965,405.0843 611.79997,412.52313 607.2113,419.07384 C 602.62263,425.62456 596.59587,431.01925 590.18881,435.80647 C 589.78827,436.10575 589.78827,436.10575 589.78827,436.10575"
       id="path8682"
       style="stroke:#ff0000;stroke-width:4"
       inkscape:connector-curvature="0" />
    <polygon
       points="805.60329,804.25071 806.40961,807.08593 806.85226,809.61797 806.8592,811.80909 806.35849,813.62135 805.27807,815.01683 803.54601,815.95767 801.09035,816.40597 797.86743,816.52852 794.02322,816.4767 789.76987,816.19002 785.31942,815.60781 780.88416,814.66948 776.67629,813.31445 772.90786,811.48197 769.791,809.11153 767.53808,806.14248 766.36107,802.51423 765.89438,798.67003 765.6589,795.09862 765.69614,791.80756 766.04783,788.8044 766.75572,786.09677 767.86131,783.69223 769.4065,781.5984 771.4328,779.82277 773.98186,778.37296 777.09551,777.25653 781.01365,776.39146 785.7842,775.71585 791.16092,775.26755 796.89758,775.08442 802.74786,775.20437 808.46559,775.66533 813.80439,776.50515 818.51809,777.76175 822.36046,779.47291 825.0851,781.67669 827.65889,784.63498 831.05098,788.44576 835.01895,792.90056 839.32037,797.79106 843.71268,802.90888 847.95344,808.0457 851.80016,812.99305 855.01041,817.54254 857.3417,821.48594 858.55153,824.6147 859.11794,827.85906 859.67299,832.0809 860.2053,836.96949 860.7035,842.21428 861.15622,847.50448 861.55217,852.52951 861.8799,856.97866 862.12805,860.54121 862.28524,862.90661 862.34018,863.76413 861.92027,862.69196 860.72372,859.73298 858.84515,855.27376 856.37941,849.70063 853.42112,843.40015 850.06497,836.75858 846.40573,830.16257 842.53818,823.99845 838.55694,818.65264 834.55677,814.51161 830.41513,811.18392 826.04999,808.0457 821.61663,805.13471 817.27042,802.48897 813.16662,800.14631 809.46069,798.14466 806.30797,796.52187 803.8636,795.31578 802.28315,794.5644 801.72177,794.3055 803.18738,797.82265 804.50517,801.15034 "
       id="polygon8690"
       style="stroke:#000000;stroke-width:4" />
    <path
       d="M 766.04783,788.8044 C 766.10599,788.30779 766.10599,788.30779 766.10599,788.30779 C 768.02694,771.9045 767.68157,755.12093 771.86347,739.14376 C 776.2052,722.55593 787.48974,707.60875 802.93868,700.16985 C 810.66315,696.4504 819.31564,694.62207 827.87601,695.09306 C 836.43638,695.56405 844.88319,698.35496 851.93082,703.23683 C 858.97845,708.1187 864.58832,715.09601 867.66471,723.09835 C 870.7411,731.1007 871.24165,740.101 868.88818,748.34496 C 866.53471,756.58892 861.30926,764.01462 854.23576,768.85893 C 847.16226,773.70324 838.27808,775.89335 829.7873,774.70661 C 821.58673,773.56044 814.10193,769.55326 806.79657,765.65521 C 799.4912,761.75717 792.07464,758.0687 784.49886,754.72644 C 784.0414,754.52462 784.0414,754.52462 784.0414,754.52462"
       id="path8692"
       style="stroke:#ff0000;stroke-width:4"
       inkscape:connector-curvature="0" />
    <polyline
       points="784.04138,754.52463 762.57242,745.05305 746.15488,752.63035 732.26322,767.78495 729.10599,777.25653 727.84306,799.98851 731.00028,808.19724 710.79417,776.62518 714.58282,755.78757 729.10599,729.89845 744.89202,721.05821 793.51305,714.74385 818.77074,719.79536 844.65978,735.58138 870.54898,752.63035 895.8066,769.04781 908.43548,781.67669 927.37873,789.88542 940.00754,790.51685"
       id="polyline8700"
       style="stroke:#000000;stroke-width:4" />
    <path
       d="M 940.00754,790.51685 C 940.50692,790.54182 940.50692,790.54182 940.50692,790.54182 C 948.82479,790.95771 957.15798,790.75939 965.46618,790.18179 C 969.62028,789.89299 973.7906,789.62436 977.94547,789.90176 C 982.10035,790.17917 986.28012,791.03696 989.94516,793.01368 C 994.02661,795.21499 997.32963,798.77389 999.3881,802.92921 C 1001.4466,807.08453 1002.2765,811.81272 1001.9429,816.43795 C 1001.2758,825.6884 995.99281,834.22492 988.82652,840.11222 C 981.66023,845.99952 972.75247,849.44737 963.68908,851.41485 C 954.62569,853.38233 945.32742,853.95384 936.08035,854.66632 C 926.83328,855.3788 917.53351,856.24935 908.61291,858.78683 C 899.69231,861.32431 891.09007,865.6411 884.7254,872.38699 C 881.54307,875.75993 878.95454,879.71626 877.31555,884.0542 C 875.67655,888.39214 875.00177,893.11429 875.54819,897.71922 C 876.09461,902.32415 877.8817,906.80088 880.80383,910.4016 C 883.72596,914.00232 887.79313,916.69572 892.29619,917.8032 C 896.34367,918.79863 900.61578,918.51974 904.69417,917.65964 C 908.77255,916.79954 912.71004,915.38332 916.6245,913.95153 C 924.45342,911.08796 932.41787,908.59933 940.54301,906.73543 C 941.03035,906.62363 941.03035,906.62363 941.03035,906.62363"
       id="path8702"
       style="stroke:#ff0000;stroke-width:4"
       inkscape:connector-curvature="0" />
    <polyline
       points="698.73354,908.49937 698.69424,907.88496 698.6335,906.15618 698.63709,903.48433 698.79069,900.04089 699.18,895.99746 699.89086,891.52534 701.00889,886.79607 702.61978,881.98103 704.80945,877.25176 707.66343,872.77964 710.61745,868.60756 713.07853,864.6927 715.08957,861.07779 716.69344,857.80589 717.93287,854.91978 718.8509,852.4622 719.49027,850.4762 719.89385,849.00457 720.1046,848.09012 720.16534,847.77582"
       id="polyline8710"
       style="stroke:#000000;stroke-width:4" />
    <path
       d="M 720.16534,847.77582 C 720.26021,847.2849 720.26021,847.2849 720.26021,847.2849 C 720.86926,844.13328 721.51919,840.97506 722.62794,837.96269 C 723.73669,834.95032 725.29514,832.09943 727.28413,829.57998 C 731.26211,824.54109 736.85614,821.07893 742.43754,817.90676 C 748.01895,814.73459 753.68143,811.43014 757.87993,806.57347 C 759.97918,804.14513 761.6867,801.38517 762.97188,798.44375 C 764.25706,795.50232 765.10943,792.39369 765.92135,789.28814 C 766.04782,788.8044 766.04782,788.8044 766.04782,788.8044"
       id="path8712"
       style="stroke:#ff0000;stroke-width:4"
       inkscape:connector-curvature="0" />
    <polyline
       points="868.40235,512.01013 869.06491,511.71193 870.917,510.90996 873.75496,509.7437 877.37513,508.35242 881.574,506.87545 886.14791,505.45205 890.89328,504.22146 895.60645,503.32312 900.08391,502.89626 904.12208,503.08024 908.11019,503.6642 912.4519,504.32326 916.96508,505.02519 921.46756,505.73773 925.77715,506.42891 929.7117,507.06652 933.08899,507.61844 935.72687,508.05239 937.44321,508.3364 938.05579,508.43819"
       id="polyline8720"
       style="stroke:#000000;stroke-width:4" />
    <path
       d="M 868.40235,512.01013 C 867.9464,512.21534 867.9464,512.21534 867.9464,512.21534 C 860.72256,515.46661 853.23044,518.18864 845.43586,519.6026 C 837.64129,521.01655 829.56559,521.42321 822.19323,524.322 C 816.63357,526.50805 811.63722,530.20242 808.12828,535.03729 C 804.61933,539.87216 802.64443,545.85156 802.84344,551.82224 C 803.04245,557.79292 805.46616,563.70785 809.69803,567.92447 C 813.9299,572.1411 819.96232,574.55899 825.92445,574.18258 C 830.25167,573.90938 834.38149,572.24874 838.19416,570.18403 C 842.00683,568.11932 845.58462,565.65225 849.27723,563.37979 C 856.66246,558.83486 864.82867,555.71489 873.22216,553.53606 C 873.70612,553.41043 873.70612,553.41043 873.70612,553.41043"
       id="path8722"
       style="stroke:#ff0000;stroke-width:4"
       inkscape:connector-curvature="0" />
    <polyline
       points="704.09149,531.656 702.53943,521.34193 701.10527,512.796 699.79975,505.85746 698.6335,500.36551 697.61726,496.15955 696.7618,493.07871 696.07772,490.9623 695.57586,489.64961 695.2669,488.97988 695.16152,488.79232 693.34873,489.10128 688.37474,489.97826 680.93617,491.3481 671.72936,493.13586 661.451,495.26654 650.79759,497.66513 640.46565,500.25655 631.15179,502.96593 623.55236,505.71812 618.36411,508.43819 614.47596,511.20824 610.40574,514.09617 606.29257,517.00555 602.27591,519.83993 598.49497,522.50284 595.08907,524.89784 592.19755,526.92849 589.95973,528.4984 588.51488,529.51105 588.00226,529.87007"
       id="polyline8730"
       style="stroke:#000000;stroke-width:4" />
    <path
       d="M 588.00226,529.87007 C 587.59271,530.1569 587.59271,530.1569 587.59271,530.1569 C 582.77612,533.53023 577.70272,536.829 571.93608,537.98003 C 566.16945,539.13105 559.92186,537.96887 555.14053,534.54575 C 550.3592,531.12262 547.23897,525.68208 545.98229,519.93754 C 544.72562,514.19301 545.18145,508.21502 546.00932,502.39321 C 548.19908,486.99433 552.79823,472.03633 558.0708,457.40347 C 559.92884,452.24689 561.92146,447.06458 565.0914,442.59311 C 568.26135,438.12164 572.70329,434.43594 577.93694,432.80758 C 583.17059,431.17922 588.99898,431.75108 593.93038,434.14354 C 598.86179,436.536 602.75395,440.5899 606.42062,444.66398 C 606.7551,445.03563 606.7551,445.03563 606.7551,445.03563"
       id="path8732"
       style="stroke:#ff0000;stroke-width:4"
       inkscape:connector-curvature="0" />
    <polyline
       points="741.59722,597.73758 741.48109,598.39656 741.09712,600.22369 740.39167,602.99374 739.31111,606.48175 737.80201,610.46269 735.81059,614.71161 733.28342,619.00335 730.16687,623.11286 726.40737,626.81521 721.95135,629.88537"
       id="polyline8740"
       style="stroke:#000000;stroke-width:4" />
    <path
       d="M 721.95135,629.88537 C 721.53962,630.16905 721.53962,630.16905 721.53962,630.16905 C 714.62491,634.93322 708.21365,640.37697 702.15997,646.1962 C 699.13313,649.10581 696.0642,652.01186 692.55021,654.30958 C 689.03622,656.6073 684.97639,658.27984 680.77794,658.25349 C 677.14264,658.23067 673.55282,656.90033 670.68379,654.66771 C 667.81477,652.43508 665.66352,649.32735 664.43625,645.9054 C 663.20898,642.48345 662.89168,638.75908 663.36625,635.15482 C 663.84082,631.55056 665.09525,628.0664 666.88995,624.90491 C 670.47934,618.58194 676.14115,613.64226 682.32702,609.82143 C 688.51289,606.0006 695.26239,603.20261 701.92579,600.29354 C 708.5892,597.38447 715.24864,594.31889 721.12595,590.0386 C 727.00327,585.75832 732.10877,580.14649 734.69751,573.35222 C 735.99188,569.95508 736.63603,566.29437 736.4201,562.66542 C 736.20417,559.03647 735.11437,555.44339 733.14413,552.38822 C 731.17389,549.33305 728.31173,546.83425 724.95604,545.43596 C 721.60034,544.03767 717.75847,543.77129 714.28362,544.83963 C 710.26221,546.07601 706.92949,548.98231 704.37002,552.3214 C 701.81055,555.66049 699.91056,559.44927 698.05506,563.22519 C 694.34406,570.77701 690.14289,578.08499 685.19885,584.89367 C 684.90506,585.29826 684.90506,585.29826 684.90506,585.29826"
       id="path8742"
       style="stroke:#ff0000;stroke-width:4"
       inkscape:connector-curvature="0" />
  </g>
</svg>
