<?xml version="1.0" encoding="UTF-8" standalone="no"?>
<!-- Created with Inkscape (http://www.inkscape.org/) -->

<svg
   xmlns:dc="http://purl.org/dc/elements/1.1/"
   xmlns:cc="http://creativecommons.org/ns#"
   xmlns:rdf="http://www.w3.org/1999/02/22-rdf-syntax-ns#"
   xmlns:svg="http://www.w3.org/2000/svg"
   xmlns="http://www.w3.org/2000/svg"
   xmlns:sodipodi="http://sodipodi.sourceforge.net/DTD/sodipodi-0.dtd"
   xmlns:inkscape="http://www.inkscape.org/namespaces/inkscape"
   width="744.09448819"
   height="1052.3622047"
   id="svg2"
   version="1.1"
   inkscape:version="0.48+devel r"
   sodipodi:docname="simplified_logo.svg">
  <defs
     id="defs4" />
  <sodipodi:namedview
     id="base"
     pagecolor="#ffffff"
     bordercolor="#666666"
     borderopacity="1.0"
     inkscape:pageopacity="0.0"
     inkscape:pageshadow="2"
     inkscape:zoom="0.7"
     inkscape:cx="201.08806"
     inkscape:cy="623.19163"
     inkscape:document-units="px"
     inkscape:current-layer="layer1"
     showgrid="false"
     inkscape:window-width="1600"
     inkscape:window-height="838"
     inkscape:window-x="0"
     inkscape:window-y="27"
     inkscape:window-maximized="1" />
  <metadata
     id="metadata7">
    <rdf:RDF>
      <cc:Work
         rdf:about="">
        <dc:format>image/svg+xml</dc:format>
        <dc:type
           rdf:resource="http://purl.org/dc/dcmitype/StillImage" />
        <dc:title></dc:title>
      </cc:Work>
    </rdf:RDF>
  </metadata>
  <g
     inkscape:label="Layer 1"
     inkscape:groupmode="layer"
     id="layer1">
    <path
       sodipodi:nodetypes="sscscscscscssssscssccscs"
       inkscape:connector-curvature="0"
       id="path7728"
       d="M 179.45407,157.01678 C 133.07102,160.57478 48.155546,184.85866 54.262397,296.22412 C 60.369247,407.58959 149.93713,404.4945 149.93713,404.4945 C 149.93713,404.4945 172.32943,346.7496 184.54313,336.43798 C 196.75683,326.12635 312.29966,300.95688 328.71452,301.02762 C 385.88035,295.48708 435.12281,306.64486 466.39015,343.86162 C 482.58427,363.13709 476.47203,360.47093 511.76814,398.30791 C 574.1089,391.34757 589.37514,322.51848 591.15631,279.98306 C 592.93746,237.44764 546.62859,166.81225 488.61351,165.00771 C 433.14295,163.20317 412.277,190.01328 407.44241,190.01328 C 402.60782,190.01328 402.55788,188.44551 399.04525,187.43536 C 399.04525,201.09825 415.84017,205.48076 425.76381,205.48076 C 435.68744,205.48076 444.59265,200.58212 473.60019,200.58212 C 502.60772,200.58212 536.19602,222.49613 536.19602,266.06273 C 536.19603,309.62931 517.35729,308.93119 498.40061,308.93119 C 479.44393,308.93119 430.07787,231.55667 398.2817,230.74551 C 362.86316,229.84194 341.28462,256.00827 341.28462,256.00827 C 341.28462,256.00827 317.87556,229.19757 273.09199,231.25989 C 228.30842,233.32222 193.70211,318.90859 151.97196,325.09555 C 110.24182,331.28253 117.36635,295.19289 116.34854,275.6008 C 123.92754,223.27895 156.7066,185.22041 212.30941,188.97769 C 232.36205,189.21403 272.05561,184.45964 272.05561,184.45964 C 282.34002,180.33228 283.27012,164.23414 283.27012,164.23414 C 250.27345,171.60667 200.94741,155.36805 179.45407,157.01678 Z"
       style="font-weight:normal;font-size:medium;font-family:sans-serif;text-anchor:start;fill:#000000;fill-rule:evenodd;stroke:none;stroke-width:1px;stroke-linecap:butt;stroke-linejoin:miter;stroke-miterlimit:10;stroke-dasharray:none;stroke-dashoffset:0;stroke-opacity:1" />
    <path
       sodipodi:nodetypes="csssscsc"
       inkscape:connector-curvature="0"
       id="path7732"
       d="M 406.42857,330.21932 C 395.71428,338.07647 386.42857,345.93361 392.14286,364.50504 C 397.85714,383.07647 422.85714,415.93361 427.14286,428.07647 C 431.42857,440.21932 431.42857,441.6479 443.57143,443.79075 C 455.71428,445.93361 455,435.93361 460.71428,439.50504 C 466.42857,443.07647 472.14286,475.21932 472.14286,475.21932 C 472.14286,475.21932 459.2226,496.34653 448.34331,506.22277 C 444.4858,509.72463 425.98368,510.49017 422.61819,511.612"
       style="font-weight:normal;font-size:medium;font-family:sans-serif;text-anchor:start;fill:none;fill-rule:evenodd;stroke:#000000;stroke-width:6;stroke-linecap:butt;stroke-linejoin:miter;stroke-miterlimit:10;stroke-dasharray:none;stroke-dashoffset:0;stroke-opacity:1" />
    <path
       inkscape:connector-curvature="0"
       id="path7734"
       d="M 446.42857,508.07647 C 455,515.21932 460,515.93361 457.85714,524.50504 C 455.71428,533.07647 457.85714,540.21932 436.42857,538.07647 C 415,535.93361 402.85714,544.50504 380,547.36218 C 357.14286,550.21932 345,541.6479 337.14286,533.07647 C 329.28571,524.50504 312.85714,480.93361 309.28571,480.93361 C 305.71428,480.93361 298.57143,483.07647 298.57143,483.07647"
       style="font-weight:normal;font-size:medium;font-family:sans-serif;text-anchor:start;fill:none;fill-rule:evenodd;stroke:#000000;stroke-width:6;stroke-linecap:butt;stroke-linejoin:miter;stroke-miterlimit:10;stroke-dasharray:none;stroke-dashoffset:0;stroke-opacity:1" />
    <path
       inkscape:connector-curvature="0"
       id="path7736"
       d="M 438.11905,540.93784 C 441.1495,549.52413 446.20027,567.70688 439.1292,572.25257 C 432.05813,576.79825 371.75536,579.3976 366.70459,579.3976"
       style="font-weight:normal;font-size:medium;font-family:sans-serif;text-anchor:start;fill:none;fill-rule:evenodd;stroke:#000000;stroke-width:6;stroke-linecap:butt;stroke-linejoin:miter;stroke-miterlimit:10;stroke-dasharray:none;stroke-dashoffset:0;stroke-opacity:1"
       sodipodi:nodetypes="csc" />
    <path
       inkscape:connector-curvature="0"
       id="path7738"
       d="M 403.26878,579.32363 L 399.73325,591.95054 C 399.73325,591.95054 404.27894,595.48607 405.79416,604.57745 C 407.30939,613.66882 404.5748,621.95925 391.94789,630.54555"
       style="font-weight:normal;font-size:medium;font-family:sans-serif;text-anchor:start;fill:none;fill-rule:evenodd;stroke:#000000;stroke-width:6;stroke-linecap:butt;stroke-linejoin:miter;stroke-miterlimit:10;stroke-dasharray:none;stroke-dashoffset:0;stroke-opacity:1"
       sodipodi:nodetypes="ccsc" />
    <path
       inkscape:connector-curvature="0"
       id="path7740"
       d="M 385.71429,638.79075 L 310.71429,630.21932 L 320.71429,700.93361 L 412.14286,698.79075 Z"
       style="font-weight:normal;font-size:medium;font-family:sans-serif;text-anchor:start;fill:#000000;fill-rule:evenodd;stroke:#000000;stroke-width:6;stroke-linecap:butt;stroke-linejoin:miter;stroke-miterlimit:10;stroke-dasharray:none;stroke-dashoffset:0;stroke-opacity:1" />
    <path
       inkscape:connector-curvature="0"
       id="path7742"
       d="M 212.85714,454.50504 C 212.85714,500.93361 229.28571,500.93361 237.14286,527.36218 C 245,553.79075 245,555.21932 262.85714,571.6479 C 280.71428,588.07647 267.85714,582.36218 276.42857,607.36218 C 285,632.36218 308.57143,648.79075 308.57143,648.79075"
       style="font-weight:normal;font-size:medium;font-family:sans-serif;text-anchor:start;fill:none;fill-rule:evenodd;stroke:#000000;stroke-width:6;stroke-linecap:butt;stroke-linejoin:miter;stroke-miterlimit:10;stroke-dasharray:none;stroke-dashoffset:0;stroke-opacity:1" />
    <path
       inkscape:connector-curvature="0"
       id="path7744"
       d="M 170,465.93361 C 170,465.93361 148.57143,548.79075 228.57143,624.50504"
       style="font-weight:normal;font-size:medium;font-family:sans-serif;text-anchor:start;fill:none;fill-rule:evenodd;stroke:#000000;stroke-width:6;stroke-linecap:butt;stroke-linejoin:miter;stroke-miterlimit:10;stroke-dasharray:none;stroke-dashoffset:0;stroke-opacity:1" />
    <path
       inkscape:connector-curvature="0"
       id="path7746"
       d="M 150.71428,410.93361 C 147.85714,435.21932 141.42857,441.6479 141.42857,441.6479 L 137.14286,455.93361 L 121.42857,469.50504 L 120,480.21932 L 137.14286,476.6479 L 150,480.21932 L 161.42857,466.6479 L 193.57143,458.79075 C 193.57143,458.79075 225.71428,440.21932 238.57143,420.93361 C 251.42857,401.6479 251.42857,372.36218 251.42857,372.36218"
       style="font-weight:normal;font-size:medium;font-family:sans-serif;text-anchor:start;fill:none;fill-rule:evenodd;stroke:#000000;stroke-width:6;stroke-linecap:butt;stroke-linejoin:miter;stroke-miterlimit:10;stroke-dasharray:none;stroke-dashoffset:0;stroke-opacity:1" />
    <path
       inkscape:connector-curvature="0"
       id="path7748"
       d="M 256.42857,440.93361 C 243.57143,410.21932 248.57143,398.79075 248.57143,398.79075"
       style="font-weight:normal;font-size:medium;font-family:sans-serif;text-anchor:start;fill:none;fill-rule:evenodd;stroke:#000000;stroke-width:6;stroke-linecap:butt;stroke-linejoin:miter;stroke-miterlimit:10;stroke-dasharray:none;stroke-dashoffset:0;stroke-opacity:1" />
    <path
       inkscape:connector-curvature="0"
       id="path7750"
       d="M 328.26496,367.94921 C 328.26496,367.94921 290.88931,367.94921 286.8487,373.50505 C 285.33347,381.33373 285.33347,382.59642 299.98069,392.95049 C 314.6279,403.30455 328.42032,389.59352 331.80049,384.86927"
       style="font-weight:normal;font-size:medium;font-family:sans-serif;text-anchor:start;fill:none;fill-rule:evenodd;stroke:#000000;stroke-width:6;stroke-linecap:butt;stroke-linejoin:miter;stroke-miterlimit:10;stroke-dasharray:none;stroke-dashoffset:0;stroke-opacity:1"
       sodipodi:nodetypes="ccsc" />
    <path
       sodipodi:nodetypes="csscc"
       inkscape:connector-curvature="0"
       id="path7752"
       d="M 303.31731,375.94354 C 303.69611,386.29761 307.3043,387.89972 310.58729,387.64718 C 313.87029,387.39464 317.48229,387.34662 320.18374,383.1015 C 320.18374,383.1015 319.74891,375.64527 319.0959,374.69245 Z"
       style="font-weight:normal;font-size:medium;font-family:sans-serif;text-anchor:start;fill:none;fill-rule:evenodd;stroke:#000000;stroke-width:6;stroke-linecap:butt;stroke-linejoin:miter;stroke-miterlimit:10;stroke-dasharray:none;stroke-dashoffset:0;stroke-opacity:1" />
    <path
       inkscape:connector-curvature="0"
       id="path7754"
       d="M 395.69264,370.34832 C 407.18312,367.31787 417.03211,365.04502 421.5778,368.8331 C 426.12348,372.62117 427.89125,377.29312 428.27006,378.55581"
       style="font-weight:normal;font-size:medium;font-family:sans-serif;text-anchor:start;fill:none;fill-rule:evenodd;stroke:#000000;stroke-width:6;stroke-linecap:butt;stroke-linejoin:miter;stroke-miterlimit:10;stroke-dasharray:none;stroke-dashoffset:0;stroke-opacity:1" />
    <path
       sodipodi:nodetypes="csscc"
       inkscape:connector-curvature="0"
       id="path7756"
       d="M 407.688,372.89461 C 405.98133,375.13461 405.33931,379.38879 406.19264,381.73546 C 407.04598,384.08212 409.71264,386.32212 413.12597,385.68211 C 416.5393,385.04212 420.89886,382.04797 420.43174,376.9441 C 418.41284,370.41503 412.7511,372.28467 407.688,372.89461 Z"
       style="font-weight:normal;font-size:medium;font-family:sans-serif;text-anchor:start;fill:none;fill-rule:evenodd;stroke:#000000;stroke-width:5.06853676;stroke-linecap:butt;stroke-linejoin:miter;stroke-miterlimit:10;stroke-dasharray:none;stroke-dashoffset:0;stroke-opacity:1" />
    <path
       inkscape:connector-curvature="0"
       id="path7758"
       d="M 410.08731,395.3496 C 410.08731,395.3496 417.48285,394.99194 421.70407,390.67764 C 424.65158,387.66513 430.47682,384.8883 430.47682,384.8883"
       style="font-weight:normal;font-size:medium;font-family:sans-serif;text-anchor:start;fill:none;fill-rule:evenodd;stroke:#000000;stroke-width:6;stroke-linecap:butt;stroke-linejoin:miter;stroke-miterlimit:10;stroke-dasharray:none;stroke-dashoffset:0;stroke-opacity:1"
       sodipodi:nodetypes="csc" />
    <path
       inkscape:connector-curvature="0"
       id="path7760"
       d="M 424.61723,392.8332 L 433.45607,422.88523 L 433.70861,436.01722"
       style="font-weight:normal;font-size:medium;font-family:sans-serif;text-anchor:start;fill:none;fill-rule:evenodd;stroke:#000000;stroke-width:6;stroke-linecap:butt;stroke-linejoin:miter;stroke-miterlimit:10;stroke-dasharray:none;stroke-dashoffset:0;stroke-opacity:1" />
    <path
       inkscape:connector-curvature="0"
       id="path7762"
       d="M 502.26373,395.47587 C 506.80942,408.10278 507.3145,416.184 507.3145,416.184 C 507.3145,416.184 513.88049,421.73984 515.90079,421.73984 C 517.9211,421.73984 521.45663,421.73984 521.45663,421.73984 L 517.9211,431.33629 L 481.05053,433.86167 L 465.89824,423.76014 L 448.22057,420.72968 L 429.53275,406.08247"
       style="font-weight:normal;font-size:medium;font-family:sans-serif;text-anchor:start;fill:none;fill-rule:evenodd;stroke:#000000;stroke-width:6;stroke-linecap:butt;stroke-linejoin:miter;stroke-miterlimit:10;stroke-dasharray:none;stroke-dashoffset:0;stroke-opacity:1" />
    <path
       inkscape:connector-curvature="0"
       id="path7764"
       d="M 322.5,324.1479 L 333.21428,329.86218 L 338.92857,329.1479 L 356.42857,372.36218"
       style="font-weight:normal;font-size:medium;font-family:sans-serif;text-anchor:start;fill:none;fill-rule:evenodd;stroke:#000000;stroke-width:6;stroke-linecap:butt;stroke-linejoin:miter;stroke-miterlimit:10;stroke-dasharray:none;stroke-dashoffset:0;stroke-opacity:1" />
    <path
       inkscape:connector-curvature="0"
       id="path7766"
       d="M 235.35714,361.29075 L 247.14286,352.00504 C 247.14286,352.00504 250,346.29075 251.42857,345.21932 C 252.85714,344.1479 255.71428,337.36218 255.71428,337.36218 L 262.14286,330.93361 C 262.14286,330.93361 266.42857,329.86218 267.85714,329.50504 C 269.28571,329.1479 280.35714,325.21932 282.14286,323.43361"
       style="font-weight:normal;font-size:medium;font-family:sans-serif;text-anchor:start;fill:none;fill-rule:evenodd;stroke:#000000;stroke-width:6;stroke-linecap:butt;stroke-linejoin:miter;stroke-miterlimit:10;stroke-dasharray:none;stroke-dashoffset:0;stroke-opacity:1" />
    <path
       inkscape:connector-curvature="0"
       id="path7768"
       d="M 265,339.14789 L 262.5,360.21932 L 292.14286,330.57647 L 288.92857,327.00504 Z"
       style="font-weight:normal;font-size:medium;font-family:sans-serif;text-anchor:start;fill:none;fill-rule:evenodd;stroke:#000000;stroke-width:6;stroke-linecap:butt;stroke-linejoin:miter;stroke-miterlimit:10;stroke-dasharray:none;stroke-dashoffset:0;stroke-opacity:1" />
    <path
       inkscape:connector-curvature="0"
       id="path7770"
       d="M 366.90329,466.69162 C 368.9236,471.48985 370.43883,475.27792 366.65075,475.53046 C 362.86268,475.783 353.51877,475.27792 352.76116,469.97462 C 352.00354,464.67132 352.50862,461.13578 357.0543,459.87309 C 361.59999,458.6104 373.46928,458.35787 376.2472,461.64086 C 379.02512,464.92386 388.87411,475.27792 389.63172,478.81345 C 390.38934,482.34899 391.14695,494.47082 391.14695,494.47082 C 391.14695,494.47082 385.33858,479.31853 380.03527,474.77284 C 374.73197,470.22716 366.90329,466.69162 366.90329,466.69162 Z"
       style="font-weight:normal;font-size:medium;font-family:sans-serif;text-anchor:start;fill:none;fill-rule:evenodd;stroke:#000000;stroke-width:6;stroke-linecap:butt;stroke-linejoin:miter;stroke-miterlimit:10;stroke-dasharray:none;stroke-dashoffset:0;stroke-opacity:1" />
    <path
       inkscape:connector-curvature="0"
       id="path7772"
       d="M 359.83222,450.78172 L 351.24593,446.99365 L 344.67994,450.02411 L 339.1241,456.08502 L 337.86141,459.87309 L 337.35633,468.96447 L 338.61902,472.24746 L 330.5378,459.62056 L 332.05303,451.2868 L 337.86141,440.93273 L 344.17486,437.3972 L 363.6203,434.87182 L 373.72182,436.89212 L 384.07588,443.20558 L 394.42995,450.02411 L 404.53147,456.5901 L 409.58224,461.64086 L 417.15838,464.92386 L 422.20914,465.1764"
       style="font-weight:normal;font-size:medium;font-family:sans-serif;text-anchor:start;fill:none;fill-rule:evenodd;stroke:#000000;stroke-width:6;stroke-linecap:butt;stroke-linejoin:miter;stroke-miterlimit:10;stroke-dasharray:none;stroke-dashoffset:0;stroke-opacity:1" />
    <path
       inkscape:connector-curvature="0"
       id="path7776"
       d="M 325.71428,512.36218 C 325.71428,512.36218 325,503.79075 329.28571,498.07647 C 333.57143,492.36218 334.28571,488.07647 334.28571,488.07647"
       style="font-weight:normal;font-size:medium;font-family:sans-serif;text-anchor:start;fill:none;fill-rule:evenodd;stroke:#000000;stroke-width:6;stroke-linecap:butt;stroke-linejoin:miter;stroke-miterlimit:10;stroke-dasharray:none;stroke-dashoffset:0;stroke-opacity:1" />
    <path
       inkscape:connector-curvature="0"
       id="path7778"
       d="M 393.57143,353.79075 C 393.57143,353.79075 402.85714,349.50504 407.85714,350.21932 C 412.85714,350.93361 421.42857,352.36218 421.42857,352.36218"
       style="font-weight:normal;font-size:medium;font-family:sans-serif;text-anchor:start;fill:none;fill-rule:evenodd;stroke:#000000;stroke-width:6;stroke-linecap:butt;stroke-linejoin:miter;stroke-miterlimit:10;stroke-dasharray:none;stroke-dashoffset:0;stroke-opacity:1" />
    <path
       inkscape:connector-curvature="0"
       id="path7780"
       d="M 327.85714,361.6479 C 325.71428,346.6479 324.28571,344.50504 324.28571,344.50504 C 324.28571,344.50504 298.57143,348.79075 293.57143,352.36218 C 288.57143,355.93361 281.42857,360.93361 281.42857,360.93361"
       style="font-weight:normal;font-size:medium;font-family:sans-serif;text-anchor:start;fill:none;fill-rule:evenodd;stroke:#000000;stroke-width:6;stroke-linecap:butt;stroke-linejoin:miter;stroke-miterlimit:10;stroke-dasharray:none;stroke-dashoffset:0;stroke-opacity:1" />
    <path
       inkscape:connector-curvature="0"
       id="path7782"
       d="M 342.85714,388.07647 C 342.85714,388.07647 341.42857,397.36218 335,400.93361"
       style="font-weight:normal;font-size:medium;font-family:sans-serif;text-anchor:start;fill:none;fill-rule:evenodd;stroke:#000000;stroke-width:6;stroke-linecap:butt;stroke-linejoin:miter;stroke-miterlimit:10;stroke-dasharray:none;stroke-dashoffset:0;stroke-opacity:1" />
  </g>
</svg>
