<?xml version="1.0" encoding="UTF-8" standalone="no"?>
<!-- Created with Inkscape (http://www.inkscape.org/) -->

<svg
   xmlns:dc="http://purl.org/dc/elements/1.1/"
   xmlns:cc="http://creativecommons.org/ns#"
   xmlns:rdf="http://www.w3.org/1999/02/22-rdf-syntax-ns#"
   xmlns:svg="http://www.w3.org/2000/svg"
   xmlns="http://www.w3.org/2000/svg"
   xmlns:sodipodi="http://sodipodi.sourceforge.net/DTD/sodipodi-0.dtd"
   xmlns:inkscape="http://www.inkscape.org/namespaces/inkscape"
   width="536.71429"
   height="246.71429"
   id="svg11315"
   version="1.1"
   inkscape:version="0.48.4 r9939"
   sodipodi:docname="3.svg">
  <defs
     id="defs11317" />
  <sodipodi:namedview
     id="base"
     pagecolor="#ffffff"
     bordercolor="#666666"
     borderopacity="1.0"
     inkscape:pageopacity="0.0"
     inkscape:pageshadow="2"
     inkscape:zoom="1.4"
     inkscape:cx="260.73655"
     inkscape:cy="88.034213"
     inkscape:document-units="px"
     inkscape:current-layer="layer1"
     showgrid="false"
     inkscape:window-width="1600"
     inkscape:window-height="838"
     inkscape:window-x="0"
     inkscape:window-y="27"
     inkscape:window-maximized="1"
     fit-margin-top="0"
     fit-margin-left="0"
     fit-margin-right="0"
     fit-margin-bottom="0" />
  <metadata
     id="metadata11320">
    <rdf:RDF>
      <cc:Work
         rdf:about="">
        <dc:format>image/svg+xml</dc:format>
        <dc:type
           rdf:resource="http://purl.org/dc/dcmitype/StillImage" />
        <dc:title></dc:title>
      </cc:Work>
    </rdf:RDF>
  </metadata>
  <g
     inkscape:label="Layer 1"
     inkscape:groupmode="layer"
     id="layer1"
     transform="translate(-85.928572,-115.43361)">
    <path
       style="fill:none;stroke:#000000;stroke-width:1px;stroke-linecap:butt;stroke-linejoin:miter;stroke-opacity:1"
       d="M 90.714286,355.21932 L 86.428572,145.93361 L 349.28571,229.50504 L 613.57143,115.93361 L 622.14286,361.6479 z"
       id="path11344"
       inkscape:connector-curvature="0" />
    <path
       inkscape:connector-curvature="0"
       id="path11346"
       d="M 90.714286,355.21932 L 86.428572,145.93361 L 349.28571,229.50504 L 613.57143,115.93361 L 622.14286,361.6479 z"
       style="fill:none;stroke:#000000;stroke-width:1px;stroke-linecap:butt;stroke-linejoin:miter;stroke-opacity:1" />
    <path
       style="fill:none;stroke:#000000;stroke-width:1px;stroke-linecap:butt;stroke-linejoin:miter;stroke-opacity:1"
       d="M 353.1875,238.71875 C 328.73829,236.49641 306.08306,224.76927 282.46902,218.73774 C 220.56268,199.05432 158.65634,179.37091 96.75,159.6875 C 98.020833,221.58333 99.291667,283.47917 100.5625,345.375 C 270.98958,347.41667 441.41667,349.45833 611.84375,351.5 C 609.23958,277.97917 606.63542,204.45833 604.03125,130.9375 C 520.41667,166.86458 436.80208,202.79167 353.1875,238.71875 z"
       id="path12364"
       inkscape:connector-curvature="0" />
    <path
       inkscape:connector-curvature="0"
       id="path12376"
       d="M 353.1875,238.71875 C 328.73829,236.49641 306.08306,224.76927 282.46902,218.73774 C 220.56268,199.05432 158.65634,179.37091 96.75,159.6875 C 98.020833,221.58333 99.291667,283.47917 100.5625,345.375 C 270.98958,347.41667 441.41667,349.45833 611.84375,351.5 C 609.23958,277.97917 606.63542,204.45833 604.03125,130.9375 C 520.41667,166.86458 436.80208,202.79167 353.1875,238.71875 z"
       style="fill:none;stroke:#000000;stroke-width:1px;stroke-linecap:butt;stroke-linejoin:miter;stroke-opacity:1" />
    <path
       sodipodi:type="arc"
       style="fill:#00ff00;fill-opacity:1;stroke:#008000;stroke-width:3;stroke-miterlimit:4;stroke-opacity:1;stroke-dasharray:none"
       id="path12445"
       sodipodi:cx="5"
       sodipodi:cy="238.85715"
       sodipodi:rx="3.9285715"
       sodipodi:ry="3.9285715"
       d="M 8.9285715,238.85715 A 3.9285715,3.9285715 0 1 1 1.0714285,238.85715 A 3.9285715,3.9285715 0 1 1 8.9285715,238.85715 z"
       transform="translate(86.642858,115.07647)" />
    <path
       transform="translate(92.000003,-78.137816)"
       d="M 8.9285715,238.85715 A 3.9285715,3.9285715 0 1 1 1.0714285,238.85715 A 3.9285715,3.9285715 0 1 1 8.9285715,238.85715 z"
       sodipodi:ry="3.9285715"
       sodipodi:rx="3.9285715"
       sodipodi:cy="238.85715"
       sodipodi:cx="5"
       id="path12458"
       style="fill:#ffdd55;fill-opacity:1;stroke:#ffcc00;stroke-width:3;stroke-miterlimit:4;stroke-opacity:1;stroke-dasharray:none"
       sodipodi:type="arc" />
    <text
       xml:space="preserve"
       style="font-size:20.59853554px;font-style:normal;font-variant:normal;font-weight:normal;font-stretch:normal;line-height:125%;letter-spacing:0px;word-spacing:0px;fill:#000000;fill-opacity:1;stroke:none;font-family:cmr10;-inkscape-font-specification:cmr10"
       x="181.40228"
       y="139.3429"
       id="text12460"
       sodipodi:linespacing="125%"><tspan
         sodipodi:role="line"
         id="tspan12462"
         x="181.40228"
         y="139.3429"
         style="font-style:normal;font-variant:normal;font-weight:normal;font-stretch:normal;font-family:cmr10;-inkscape-font-specification:cmr10">Clockwise </tspan><tspan
         sodipodi:role="line"
         x="181.40228"
         y="165.09106"
         id="tspan12464"
         style="font-style:normal;font-variant:normal;font-weight:normal;font-stretch:normal;font-family:cmr10;-inkscape-font-specification:cmr10">next point</tspan></text>
    <path
       style="fill:none;stroke:#008000;stroke-width:1;stroke-linecap:butt;stroke-linejoin:miter;stroke-opacity:1;stroke-miterlimit:4;stroke-dasharray:4,1;stroke-dashoffset:0"
       d="M 5.0507627,235.60262 L 10.101525,46.70409"
       id="path12466"
       inkscape:connector-curvature="0"
       transform="translate(85.928572,115.43361)" />
    <path
       style="fill:none;stroke:#000000;stroke-width:1px;stroke-linecap:butt;stroke-linejoin:miter;stroke-opacity:1"
       d="M 357.09375,247.9375 C 326.48976,248.76975 299.11913,231.82222 269.96924,225.29954 C 215.667,208.0122 161.36475,190.72485 107.0625,173.4375 C 108.17708,227.46875 109.29167,281.5 110.40625,335.53125 C 274.11458,337.46875 437.82292,339.40625 601.53125,341.34375 C 599.1875,276.20833 596.84375,211.07292 594.5,145.9375 C 515.36458,179.9375 436.22917,213.9375 357.09375,247.9375 z"
       id="path13255"
       inkscape:connector-curvature="0" />
  </g>
</svg>
