<?xml version="1.0" encoding="UTF-8" standalone="no"?>
<!-- Created with Inkscape (http://www.inkscape.org/) -->

<svg
   xmlns:dc="http://purl.org/dc/elements/1.1/"
   xmlns:cc="http://creativecommons.org/ns#"
   xmlns:rdf="http://www.w3.org/1999/02/22-rdf-syntax-ns#"
   xmlns:svg="http://www.w3.org/2000/svg"
   xmlns="http://www.w3.org/2000/svg"
   xmlns:sodipodi="http://sodipodi.sourceforge.net/DTD/sodipodi-0.dtd"
   xmlns:inkscape="http://www.inkscape.org/namespaces/inkscape"
   width="536.71429"
   height="246.71429"
   id="svg11315"
   version="1.1"
   inkscape:version="0.48.4 r9939"
   sodipodi:docname="3.svg">
  <defs
     id="defs11317" />
  <sodipodi:namedview
     id="base"
     pagecolor="#ffffff"
     bordercolor="#666666"
     borderopacity="1.0"
     inkscape:pageopacity="0.0"
     inkscape:pageshadow="2"
     inkscape:zoom="1.4"
     inkscape:cx="260.73655"
     inkscape:cy="88.034213"
     inkscape:document-units="px"
     inkscape:current-layer="layer1"
     showgrid="false"
     inkscape:window-width="1600"
     inkscape:window-height="838"
     inkscape:window-x="0"
     inkscape:window-y="27"
     inkscape:window-maximized="1"
     fit-margin-top="0"
     fit-margin-left="0"
     fit-margin-right="0"
     fit-margin-bottom="0" />
  <metadata
     id="metadata11320">
    <rdf:RDF>
      <cc:Work
         rdf:about="">
        <dc:format>image/svg+xml</dc:format>
        <dc:type
           rdf:resource="http://purl.org/dc/dcmitype/StillImage" />
        <dc:title></dc:title>
      </cc:Work>
    </rdf:RDF>
  </metadata>
  <g
     inkscape:label="Layer 1"
     inkscape:groupmode="layer"
     id="layer1"
     transform="translate(-85.928572,-115.43361)">
    <path
       style="fill:none;stroke:#000000;stroke-width:1px;stroke-linecap:butt;stroke-linejoin:miter;stroke-opacity:1"
       d="M 90.714286,355.21932 L 86.428572,145.93361 L 349.28571,229.50504 L 613.57143,115.93361 L 622.14286,361.6479 z"
       id="path11344"
       inkscape:connector-curvature="0" />
    <path
       inkscape:connector-curvature="0"
       id="path11346"
       d="M 90.714286,355.21932 L 86.428572,145.93361 L 349.28571,229.50504 L 613.57143,115.93361 L 622.14286,361.6479 z"
       style="fill:none;stroke:#000000;stroke-width:1px;stroke-linecap:butt;stroke-linejoin:miter;stroke-opacity:1" />
    <path
       style="fill:none;stroke:#000000;stroke-width:1px;stroke-linecap:butt;stroke-linejoin:miter;stroke-opacity:1"
       d="M 353.1875,238.71875 C 328.73829,236.49641 306.08306,224.76927 282.46902,218.73774 C 220.56268,199.05432 158.65634,179.37091 96.75,159.6875 C 98.020833,221.58333 99.291667,283.47917 100.5625,345.375 C 270.98958,347.41667 441.41667,349.45833 611.84375,351.5 C 609.23958,277.97917 606.63542,204.45833 604.03125,130.9375 C 520.41667,166.86458 436.80208,202.79167 353.1875,238.71875 z"
       id="path12364"
       inkscape:connector-curvature="0" />
    <path
       inkscape:connector-curvature="0"
       id="path12376"
       d="M 353.1875,238.71875 C 328.73829,236.49641 306.08306,224.76927 282.46902,218.73774 C 220.56268,199.05432 158.65634,179.37091 96.75,159.6875 C 98.020833,221.58333 99.291667,283.47917 100.5625,345.375 C 270.98958,347.41667 441.41667,349.45833 611.84375,351.5 C 609.23958,277.97917 606.63542,204.45833 604.03125,130.9375 C 520.41667,166.86458 436.80208,202.79167 353.1875,238.71875 z"
       style="fill:none;stroke:#000000;stroke-width:1px;stroke-linecap:butt;stroke-linejoin:miter;stroke-opacity:1" />
    <path
       sodipodi:type="arc"
       style="fill:#00ff00;fill-opacity:1;stroke:#008000;stroke-width:3;stroke-miterlimit:4;stroke-opacity:1;stroke-dasharray:none"
       id="path12445"
       sodipodi:cx="5"
       sodipodi:cy="238.85715"
       sodipodi:rx="3.9285715"
       sodipodi:ry="3.9285715"
       d="M 8.9285715,238.85715 A 3.9285715,3.9285715 0 1 1 1.0714285,238.85715 A 3.9285715,3.9285715 0 1 1 8.9285715,238.85715 z"
       transform="translate(86.642858,115.07647)" />
    <path
       transform="translate(92.000003,-78.137816)"
       d="M 8.9285715,238.85715 A 3.9285715,3.9285715 0 1 1 1.0714285,238.85715 A 3.9285715,3.9285715 0 1 1 8.9285715,238.85715 z"
       sodipodi:ry="3.9285715"
       sodipodi:rx="3.9285715"
       sodipodi:cy="238.85715"
       sodipodi:cx="5"
       id="path12458"
       style="fill:#ffdd55;fill-opacity:1;stroke:#ffcc00;stroke-width:3;stroke-miterlimit:4;stroke-opacity:1;stroke-dasharray:none"
       sodipodi:type="arc" />
    <text
       xml:space="preserve"
       style="font-size:20.59853554px;font-style:normal;font-variant:normal;font-weight:normal;font-stretch:normal;line-height:125%;letter-spacing:0px;word-spacing:0px;fill:#000000;fill-opacity:1;stroke:none;font-family:cmr10;-inkscape-font-specification:cmr10"
       x="181.40228"
       y="139.3429"
       id="text12460"
       sodipodi:linespacing="125%"><tspan
         sodipodi:role="line"
         id="tspan12462"
         x="181.40228"
         y="139.3429"
         style="font-style:normal;font-variant:normal;font-weight:normal;font-stretch:normal;font-family:cmr10;-inkscape-font-specification:cmr10">Clockwise </tspan><tspan
         sodipodi:role="line"
         x="181.40228"
         y="165.09106"
         id="tspan12464"
         style="font-style:normal;font-variant:normal;font-weight:normal;font-stretch:normal;font-family:cmr10;-inkscape-font-specification:cmr10">next point</tspan></text>
    <path
       style="fill:none;stroke:#008000;stroke-width:1;stroke-linecap:butt;stroke-linejoin:miter;stroke-opacity:1;stroke-miterlimit:4;stroke-dasharray:4,1;stroke-dashoffset:0"
       d="M 5.0507627,235.60262 L 10.101525,46.70409"
       id="path12466"
       inkscape:connector-curvature="0"
       transform="translate(85.928572,115.43361)" />
    <path
       style="fill:none;stroke:#000000;stroke-width:1px;stroke-linecap:butt;stroke-linejoin:miter;stroke-opacity:1"
       d="M 357.875,249.78125 C 326.09588,251.19613 297.84672,233.29649 267.46929,226.61188 C 214.68786,209.80376 161.90643,192.99563 109.125,176.1875 C 110.20833,228.64583 111.29167,281.10417 112.375,333.5625 C 274.73958,335.47917 437.10417,337.39583 599.46875,339.3125 C 597.17708,275.85417 594.88542,212.39583 592.59375,148.9375 C 514.35417,182.55208 436.11458,216.16667 357.875,249.78125 z"
       id="path13255"
       inkscape:connector-curvature="0" />
    <path
       style="fill:none;stroke:#000000;stroke-width:1px;stroke-linecap:butt;stroke-linejoin:miter;stroke-opacity:1"
       d="M 362.5625,260.84375 C 330.61276,265.26026 301.37573,248.50163 271.63223,239.91278 C 222.86681,225.63369 174.46437,209.27697 126.10708,194.14926 C 124.50085,193.65344 119.57925,190.61055 121.53125,194.6875 C 122.40751,237.04176 123.30361,279.39582 124.1875,321.75 C 278.48958,323.54167 432.79167,325.33333 587.09375,327.125 C 585.11458,273.72917 583.13542,220.33333 581.15625,166.9375 C 508.29167,198.23958 435.42708,229.54167 362.5625,260.84375 z"
       id="path13275"
       inkscape:connector-curvature="0" />
    <path
       style="fill:none;stroke:#000000;stroke-width:1px;stroke-linecap:butt;stroke-linejoin:miter;stroke-opacity:1"
       d="M 367.25,271.90625 C 335.47648,278.42021 304.95228,263.60514 275.55349,253.73983 C 228.20859,239.37775 180.93101,224.43663 133.84375,209.125 C 134.5625,242.72917 135.28125,276.33333 136,309.9375 C 282.21875,311.60417 428.4375,313.27083 574.65625,314.9375 C 573.03125,271.60417 571.40625,228.27083 569.78125,184.9375 C 502.27083,213.92708 434.76042,242.91667 367.25,271.90625 z"
       id="path13289"
       inkscape:connector-curvature="0" />
    <path
       style="fill:none;stroke:#000000;stroke-width:1px;stroke-linecap:butt;stroke-linejoin:miter;stroke-opacity:1"
       d="M 371.9375,282.96875 C 341.42601,290.65992 310.49491,279.12663 282.05613,268.81518 C 236.95599,253.94321 191.38454,240.49159 146.21875,225.8125 C 146.75,249.91667 147.28125,274.02083 147.8125,298.125 C 285.9375,299.66667 424.0625,301.20833 562.1875,302.75 C 560.9375,269.47917 559.6875,236.20833 558.4375,202.9375 C 496.27083,229.61458 434.10417,256.29167 371.9375,282.96875 z"
       id="path13303"
       inkscape:connector-curvature="0" />
    <path
       style="fill:none;stroke:#000000;stroke-width:1px;stroke-linecap:butt;stroke-linejoin:miter;stroke-opacity:1"
       d="M 374.28125,288.5 C 342.26307,297.06884 309.57668,285.32649 279.71875,274.375 C 237.43587,260.47943 194.79399,247.69897 152.40625,234.125 C 152.84375,253.48958 153.28125,272.85417 153.71875,292.21875 C 287.79167,293.69792 421.86458,295.17708 555.9375,296.65625 C 554.88542,268.41667 553.83333,240.17708 552.78125,211.9375 C 493.28125,237.45833 433.78125,262.97917 374.28125,288.5 z"
       id="path13317"
       inkscape:connector-curvature="0" />
  </g>
</svg>
