<?xml version="1.0" encoding="UTF-8" standalone="no"?>
<svg
   xmlns:dc="http://purl.org/dc/elements/1.1/"
   xmlns:cc="http://creativecommons.org/ns#"
   xmlns:rdf="http://www.w3.org/1999/02/22-rdf-syntax-ns#"
   xmlns:svg="http://www.w3.org/2000/svg"
   xmlns="http://www.w3.org/2000/svg"
   xmlns:sodipodi="http://sodipodi.sourceforge.net/DTD/sodipodi-0.dtd"
   xmlns:inkscape="http://www.inkscape.org/namespaces/inkscape"
   x="0"
   y="0"
   width="1047.2493"
   height="703.92584"
   version="1.1"
   id="svg3623"
   inkscape:version="0.48+devel r"
   sodipodi:docname="lion_generated_2.svg">
  <metadata
     id="metadata3743">
    <rdf:RDF>
      <cc:Work
         rdf:about="">
        <dc:format>image/svg+xml</dc:format>
        <dc:type
           rdf:resource="http://purl.org/dc/dcmitype/StillImage" />
        <dc:title></dc:title>
      </cc:Work>
    </rdf:RDF>
  </metadata>
  <defs
     id="defs3741" />
  <sodipodi:namedview
     pagecolor="#ffffff"
     bordercolor="#666666"
     borderopacity="1"
     objecttolerance="10"
     gridtolerance="10"
     guidetolerance="10"
     inkscape:pageopacity="0"
     inkscape:pageshadow="2"
     inkscape:window-width="2560"
     inkscape:window-height="1378"
     id="namedview3739"
     showgrid="false"
     fit-margin-top="0"
     fit-margin-left="0"
     fit-margin-right="0"
     fit-margin-bottom="0"
     inkscape:zoom="0.98743905"
     inkscape:cx="711.67532"
     inkscape:cy="407.52223"
     inkscape:window-x="0"
     inkscape:window-y="27"
     inkscape:window-maximized="1"
     inkscape:current-layer="g3625" />
  <g
     stroke-miterlimit="10"
     font-weight="normal"
     font-size="12"
     mix-blend-mode="normal"
     id="g3625"
     style="font-weight:normal;font-size:12px;font-family:sans-serif;text-anchor:start;fill:none;stroke:none;stroke-width:2;stroke-linecap:butt;stroke-linejoin:miter;stroke-miterlimit:10;stroke-dasharray:none;stroke-dashoffset:0"
     transform="translate(-18.993137,-18.999887)">
    <polyline
       points="284.8006,662.23563 274.46392,662.56109 263.58345,662.7457 252.32883,662.79942 240.86965,662.73208 229.37555,662.55352 218.01614,662.27357 206.9611,661.90207 196.38003,661.44886 186.44252,660.92376 177.31828,660.33662"
       id="polyline3627"
       style="stroke:#000000" />
    <polyline
       points="185.08607,666.0891 185.28684,661.71432 185.57717,657.01517 186.02914,652.09162 186.71475,647.04356 187.70614,641.97107 189.07529,636.97402 190.89437,632.15218 193.23541,627.60576 196.17045,623.43451 199.77159,619.73842 204.37524,616.08826 208.72587,613.24564 212.90036,611.02539 216.97568,609.2429 221.02862,607.71345 225.13621,606.25198 229.37523,604.67378 233.82264,602.79406 238.55536,600.42806 243.65023,597.39082 245.51232,595.6908 247.30162,593.03782 248.99516,589.42777 250.57017,584.85637 252.00364,579.31959 253.27271,572.81319 254.35446,565.33308 255.22609,556.87503 255.86457,547.435 256.24704,537.00877 256.60206,527.87377 257.14801,519.18068 257.74283,510.83845 258.24441,502.75586 258.51063,494.84177 258.39946,487.00496 257.76877,479.15427 256.4764,471.19851 254.3804,463.04657 251.33852,454.60723 247.31908,445.21778 243.47804,436.70715 239.86048,428.86635 236.51157,421.48638 233.47638,414.3582 230.80005,407.27288 228.52765,400.02138 226.7043,392.39464 225.37519,384.18374 224.58528,375.17963 224.3998,370.93812 224.33138,365.87747 224.4993,360.00144 225.02266,353.31389 226.02064,345.81859 227.61241,337.51944 229.91719,328.42016 233.05408,318.52459 237.14232,307.83656 242.30096,296.35987"
       id="polyline3629"
       style="stroke:#000000" />
    <path
       d="M 185.08607,666.0891 C 185.07232,666.38878 185.07232,666.38878 185.07232,666.38878 C 184.84508,671.34032 184.75696,676.29693 184.75573,681.25368 C 184.7545,686.21043 184.76577,691.21439 183.71071,696.05755 C 182.4601,701.79837 179.6457,707.19194 175.64417,711.49413 C 171.64265,715.79632 166.464,718.99457 160.82239,720.63571 C 155.18079,722.27685 149.09169,722.35509 143.41251,720.84911 C 137.73333,719.34314 132.48076,716.25606 128.40967,712.01964 C 124.33858,707.78322 121.46197,702.40909 120.20492,696.66968 C 118.94786,690.93027 119.31547,684.84276 121.2641,679.29984 C 123.21273,673.75693 126.73753,668.77639 131.32354,665.10358 C 135.90955,661.43077 141.54288,659.07855 147.3802,658.41013 C 152.30556,657.84613 157.28275,658.42102 162.20897,658.97744 C 167.13519,659.53386 172.07158,659.999 177.0189,660.31736 C 177.31828,660.33662 177.31828,660.33662 177.31828,660.33662"
       id="path3631"
       inkscape:connector-curvature="0"
       style="stroke:#ff0000" />
    <polyline
       points="217.03269,160.40316 216.84473,181.21314 215.09883,198.97465 212.02587,214.20909 207.85683,227.43801 202.82266,239.18292 197.15422,249.96536 191.08255,260.3068 184.8386,270.7287 178.65317,281.75267 172.75737,293.9001 171.81364,298.57207 170.76832,304.74863 169.77353,312.23653 168.9814,320.84249 168.54413,330.37326 168.61379,340.63547 169.34268,351.43601 170.88289,362.58147 173.3866,373.87862 177.00601,385.13422 179.25576,390.28626 182.49702,396.26248 186.78554,402.89297 192.17717,410.00774 198.72761,417.43705 206.49265,425.01093 215.52815,432.55946 225.88986,439.91279 237.63353,446.90099 250.81499,453.35426"
       id="polyline3639"
       style="stroke:#000000" />
    <path
       d="M 217.03269,160.40316 C 217.0354,160.10317 217.0354,160.10317 217.0354,160.10317 C 217.08169,154.97788 216.40669,149.88105 215.3074,144.87483 C 214.75775,142.37172 214.23181,139.8291 214.35231,137.26919 C 214.41256,135.98923 214.64171,134.70988 215.11806,133.52034 C 215.59441,132.3308 216.32521,131.23178 217.30365,130.40439 C 218.60907,129.30049 220.31702,128.72201 222.0253,128.65493 C 223.73358,128.58786 225.4402,129.01205 226.99007,129.73361 C 230.0898,131.17672 232.51059,133.72845 234.83718,136.23402 C 237.16377,138.73959 239.54988,141.31426 242.61645,142.82657 C 244.14973,143.58272 245.84162,144.05414 247.55119,144.0446 C 249.26076,144.03506 250.98721,143.5251 252.34084,142.48088 C 253.3543,141.69908 254.13682,140.63958 254.67453,139.47804 C 255.21224,138.3165 255.51202,137.05391 255.64622,135.781 C 255.91461,133.23519 255.54773,130.66877 255.15538,128.1391 C 254.37068,123.07975 254.00843,117.95735 254.35578,112.84931 C 254.37613,112.55 254.37613,112.55 254.37613,112.55"
       id="path3641"
       inkscape:connector-curvature="0"
       style="stroke:#ff0000" />
    <polyline
       points="333.43315,449.64325 346.84981,454.96192 358.84619,460.47574 370.02234,466.01647 380.9781,471.41577 392.31336,476.5055 404.62817,481.11732 418.52232,485.08298 434.59585,488.23425 453.44857,490.40289 475.68051,491.42054 487.81314,491.07077 502.05425,489.53126 518.51323,486.60017 537.29953,482.07596 558.52263,475.75688 582.29192,467.44119 608.71684,456.92724 637.90688,444.01329 669.97138,428.49776 705.01977,410.17884"
       id="polyline3649"
       style="stroke:#000000" />
    <path
       d="M 333.43315,449.64325 C 333.15426,449.53269 333.15426,449.53269 333.15426,449.53269 C 329.81859,448.21036 326.4514,446.92388 322.94529,446.16069 C 319.43918,445.3975 315.81569,445.15804 312.24523,445.51457 C 305.10432,446.22762 298.47141,449.37373 292.01937,452.51575 C 285.56733,455.65777 278.81037,458.60786 271.64154,458.93787 C 268.05712,459.10287 264.45163,458.62945 261.00866,457.6189 C 257.56569,456.60835 254.30715,455.06392 251.08443,453.48616 C 250.81499,453.35425 250.81499,453.35425 250.81499,453.35425"
       id="path3651"
       inkscape:connector-curvature="0"
       style="stroke:#ff0000" />
    <polyline
       points="635.86638,384.61026 648.80102,384.16742 660.37959,384.86562 670.80939,386.79235 680.29795,390.03517 689.05259,394.68153 697.28073,400.81896 705.19001,408.53503 712.98752,417.91718 720.88102,429.05291 729.0776,442.02981 733.71061,449.05687 739.27209,456.44852 745.63365,464.14816 752.66633,472.09943 760.2415,480.24575 768.23045,488.53069 776.50452,496.89761 784.9349,505.29016 793.39283,513.65179 801.74971,521.92603 809.42714,530.37115 815.78837,539.01111 820.87881,547.69674 824.74341,556.27903 827.42757,564.60894 828.97627,572.53746 829.43467,579.91548 828.84807,586.59395 827.26155,592.42388 824.72028,597.25614 822.44047,599.90204 819.80408,601.95757 816.83164,603.56187 813.54348,604.85407 809.96001,605.97355 806.10179,607.05919 801.98923,608.25043 797.64277,609.68639 793.08284,611.50617 788.32985,613.84899 785.0124,616.16112 781.80216,619.35125 778.77103,623.29648 775.99089,627.87404 773.5336,632.96101 771.47094,638.4344 769.8748,644.17153 768.81693,650.04939 768.36934,655.9452 768.60368,661.73594"
       id="polyline3659"
       style="stroke:#000000" />
    <path
       d="M 635.86638,384.61026 C 635.56656,384.62052 635.56656,384.62052 635.56656,384.62052 C 630.58893,384.79094 625.60713,384.66457 620.63627,384.35423 C 615.6654,384.04389 610.48506,383.73003 605.88395,385.63675 C 601.6223,387.4028 598.25438,391.1034 596.68394,395.44094 C 595.11351,399.77848 595.30575,404.68581 596.99964,408.97665 C 598.69353,413.26749 601.84011,416.93255 605.70222,419.45537 C 609.56433,421.97819 614.1162,423.37806 618.7181,423.69917 C 627.92189,424.34139 637.03391,420.71994 644.50682,415.30905 C 651.97974,409.89816 658.02822,402.7816 663.80459,395.58744 C 669.58095,388.39328 675.20568,381.00257 682.06185,374.82882 C 688.91802,368.65507 697.19795,363.69413 706.32983,362.37847 C 710.89577,361.72064 715.62068,361.99887 720.01006,363.41797 C 724.39945,364.83707 728.44003,367.41902 731.3946,370.96176 C 734.34918,374.5045 736.17861,379.01737 736.29367,383.62902 C 736.40873,388.24067 734.75974,392.9146 731.6071,396.2823 C 728.2058,399.91561 723.43461,401.8859 718.83307,403.78213 C 714.23154,405.67836 709.69641,407.73447 705.28564,410.03987 C 705.01977,410.17884 705.01977,410.17884 705.01977,410.17884"
       id="path3661"
       inkscape:connector-curvature="0"
       style="stroke:#ff0000" />
    <polyline
       points="767.58624,660.7185 776.43578,660.75449 784.99889,660.79362 793.48774,660.83091 802.11429,660.86139 811.09073,660.8802 820.6289,660.88236 830.94099,660.86291 842.23896,660.81686 854.73498,660.73936 868.64091,660.62533"
       id="polyline3669"
       style="stroke:#000000" />
    <path
       d="M 767.58624,660.7185 C 767.28624,660.71728 767.28624,660.71728 767.28624,660.71728 C 762.32627,660.69711 757.36895,660.50738 752.41773,660.21208 C 747.46652,659.91678 742.44638,659.60496 737.58648,660.59648 C 732.76364,661.58043 728.22121,663.90369 724.60067,667.2383 C 720.98013,670.57291 718.29186,674.90936 716.91564,679.63524 C 715.53942,684.36112 715.47922,689.46292 716.74366,694.21993 C 718.0081,698.97694 720.5936,703.37553 724.13493,706.79414 C 727.67626,710.21275 732.16331,712.64157 736.962,713.73724 C 741.76069,714.83291 746.85729,714.59227 751.53135,713.0492 C 756.20541,711.50613 760.44355,708.66504 763.64648,704.9275 C 766.84941,701.18996 769.00793,696.56668 769.81669,691.71139 C 770.63167,686.81877 770.13723,681.81318 769.66181,676.87599 C 769.18639,671.9388 768.81635,666.99165 768.61579,662.03568 C 768.60366,661.73593 768.60366,661.73593 768.60366,661.73593"
       id="path3671"
       inkscape:connector-curvature="0"
       style="stroke:#ff0000" />
    <polyline
       points="980,475.47385 964.69476,474.37599 951.49767,470.41822 940.25991,464.05034 930.83242,455.72216 923.06625,445.88339 916.81256,434.98389 911.92231,423.47348 908.24654,411.8019 905.63641,400.41898 903.94288,389.77446 902.52465,376.89548 901.37599,363.4966 900.37563,349.76885 899.40251,335.90335 898.33557,322.09103 897.05363,308.52298 895.43555,295.39026 893.36024,282.88381 890.70667,271.19478 887.35354,260.51411 886.14771,258.18637 884.57631,255.22014 882.49312,251.89658 879.75167,248.4966 876.2056,245.30123 871.70868,242.59155 866.11445,240.6485 859.27654,239.75314 851.04862,240.18653 841.28432,242.22962"
       id="polyline3679"
       style="stroke:#000000" />
    <path
       d="M 980,475.47385 C 980.29923,475.49531 980.29923,475.49531 980.29923,475.49531 C 990.17795,476.20392 1000.1529,475.99747 1009.9231,477.62025 C 1023.1117,479.81079 1035.4363,486.51496 1044.7843,496.07272 C 1054.1324,505.63048 1060.5181,517.95926 1063.4,531.01419 C 1066.282,544.06911 1065.7057,557.81349 1062.2055,570.71639 C 1058.7052,583.61928 1052.3212,595.68041 1043.9959,606.14111 C 1027.3453,627.06253 1003.2813,641.24224 977.80556,649.36224 C 952.32985,657.48224 925.37408,659.89864 898.63992,660.37933 C 888.74147,660.55731 878.84063,660.54169 868.94092,660.62287 C 868.64093,660.62533 868.64093,660.62533 868.64093,660.62533"
       id="path3681"
       inkscape:connector-curvature="0"
       style="stroke:#ff0000" />
    <polyline
       points="858.64855,454.68445 853.82671,441.60367 849.82505,429.00632 846.60758,416.75177 844.13873,404.69945 842.38239,392.70869 841.30302,380.63892 840.86472,368.34951 841.03172,355.69995 841.76823,342.54951 843.03849,328.75772 844.50147,313.06806 845.40185,297.82426 845.63673,283.13836 845.10277,269.12234 843.69708,255.8884 841.31642,243.54841 837.8578,232.2145 833.21821,221.99877 827.29441,213.01315 819.9834,205.36977 797.43005,189.63622 773.86154,180.25791 748.28106,176.0551 719.69237,175.84816 687.099,178.45737 649.50436,182.70309 605.91204,187.40554 555.32558,191.38504 496.74856,193.46196 429.18445,192.45658"
       id="polyline3689"
       style="stroke:#000000" />
    <path
       d="M 858.64855,454.68445 C 858.75231,454.96593 858.75231,454.96593 858.75231,454.96593 C 860.46742,459.61871 862.0326,464.32491 863.50301,469.06071 C 864.97342,473.79651 866.45006,478.59483 869.02463,482.83293 C 873.17684,489.66803 880.21228,494.61257 887.97518,496.53531 C 895.73807,498.45804 904.14065,497.41485 911.3539,493.96109 C 918.56715,490.50734 924.58049,484.71294 928.60726,477.8032 C 932.63403,470.89346 934.70236,462.90635 934.89273,454.91115 C 935.27346,438.92076 928.20517,423.37424 917.83218,411.19892 C 907.45918,399.02359 893.96871,389.89172 879.98368,382.1292 C 865.99865,374.36668 851.35842,367.82209 837.47197,359.88456 C 823.58553,351.94702 810.30109,342.45456 800.39406,329.89715 C 790.48704,317.33974 784.18895,301.38838 785.57237,285.45339 C 786.26408,277.4859 788.88306,269.64873 793.41858,263.06173 C 797.9541,256.47473 804.43161,251.1809 811.92025,248.3738 C 816.56047,246.63442 821.48869,245.82588 826.37687,245.01173 C 831.26505,244.19758 836.14022,243.30599 840.99069,242.29107 C 841.28433,242.22963 841.28433,242.22963 841.28433,242.22963"
       id="path3691"
       inkscape:connector-curvature="0"
       style="stroke:#ff0000" />
    <polyline
       points="340.81511,255.17669 335.50407,267.82236 332.80277,279.7674 332.49721,290.93723 334.37336,301.25748 338.2172,310.65346 343.81468,319.05087 350.95188,326.37501 359.41479,332.55152 368.98929,337.50576 379.46146,341.16332"
       id="polyline3699"
       style="stroke:#000000" />
    <path
       d="M 340.81511,255.17669 C 340.93128,254.90009 340.93128,254.90009 340.93128,254.90009 C 342.8527,250.32515 344.94474,245.82443 347.14088,241.37484 C 349.33702,236.92525 351.5807,232.40562 352.43183,227.51712 C 353.56799,220.99154 351.98101,214.09271 348.38346,208.53109 C 344.78591,202.96946 339.25683,198.74646 333.05627,196.41685 C 326.85571,194.08724 320.01808,193.61336 313.4882,194.72455 C 306.95832,195.83574 300.7351,198.49998 295.22089,202.16981 C 284.19248,209.50946 276.17882,220.64349 270.13008,232.42946 C 264.08134,244.21543 259.7825,256.80518 254.60025,268.997 C 250.72742,278.10826 246.4828,287.05632 242.42395,296.08625 C 242.30096,296.35988 242.30096,296.35988 242.30096,296.35988"
       id="path3701"
       inkscape:connector-curvature="0"
       style="stroke:#ff0000" />
    <polyline
       points="377.76014,342.06575 381.24,337.18766 383.61725,332.58622 385.17826,328.10194 386.20954,323.57552 386.9974,318.84745 387.82827,313.75831 388.9886,308.14872 390.76477,301.85921 393.44326,294.73033 397.3104,286.60277 400.79583,280.62368 404.96562,274.26623 409.54134,267.46913 414.24449,260.17104 418.7967,252.31067 422.91947,243.82674 426.33431,234.65795 428.7628,224.74298 429.92642,214.02059 429.54676,202.42943 427.69115,188.02819 425.0854,174.85753 421.4773,162.51894 416.61466,150.614 410.24532,138.74425 402.11711,126.51123 391.9778,113.51649 379.57522,99.36155 364.65715,83.64798 346.97141,65.97729 331.12362,52.18299 315.05483,41.37953 298.84759,33.22108 282.58441,27.36181 266.34798,23.45592 250.22072,21.15752 234.28532,20.12084 218.6243,20 203.32024,20.44919 188.45568,21.12258 178.47558,22.36995 168.35897,25.15259 158.01221,29.39879 147.3417,35.037 136.25378,41.99553 124.65481,50.20275 112.45114,59.58709 99.54917,70.07685 85.85523,81.60042 71.27569,94.08618 68.52281,96.78788 66.62796,99.34931 65.42566,101.8046 64.75032,104.18793 64.43649,106.5334 64.31856,108.87522 64.23106,111.24752 64.00848,113.68443 63.48525,116.22011 62.49586,118.88874 58.83485,125.69886 54.23443,132.78918 48.99781,140.07803 43.42827,147.48375 37.82898,154.92474 32.50324,162.31935 27.75423,169.58588 23.88519,176.64272 21.19938,183.40821 20,189.80073 20.32367,194.19572 21.68135,198.6239 23.89868,203.07586 26.80134,207.54208 30.215,212.013 33.9653,216.47923 37.87789,220.93118 41.77846,225.35941 45.49268,229.7544 48.84619,234.10665 51.13307,237.52641 53.46292,241.37745 55.85187,245.51189 58.3161,249.78193 60.8717,254.03971 63.53484,258.13735 66.32163,261.92694 69.24824,265.26066 72.3308,267.99066 75.58543,269.969 80.95449,271.52732 87.34901,271.84748 94.56793,271.06691 102.41011,269.32312 110.67446,266.75358 119.15991,263.49574 127.66535,259.68718 135.98963,255.46524 143.93172,250.9675 151.2905,246.33142"
       id="polyline3709"
       style="stroke:#000000" />
    <path
       d="M 377.76014,342.06575 C 377.58592,342.30998 377.58592,342.30998 377.58592,342.30998 C 374.70764,346.34478 371.72129,350.301 368.66917,354.20595 C 365.61705,358.1109 362.52838,362.04251 360.3379,366.48839 C 357.35845,372.53557 356.20829,379.46911 357.07355,386.15468 C 357.93881,392.84025 360.81586,399.252 365.23331,404.34431 C 369.65077,409.43662 375.59139,413.19004 382.0866,414.99497 C 388.58181,416.7999 395.6066,416.64969 402.01937,414.57076 C 408.43213,412.49182 414.20845,408.49237 418.4127,403.22266 C 422.61694,397.95295 425.23334,391.4332 425.84034,384.71926 C 426.44734,378.00531 425.04292,371.12262 421.85584,365.18225 C 418.66876,359.24188 413.71129,354.26608 407.78371,351.05527 C 403.42585,348.69474 398.63595,347.26456 393.89053,345.83488 C 389.14511,344.4052 384.42363,342.89642 379.7447,341.26223 C 379.46148,341.16331 379.46148,341.16331 379.46148,341.16331"
       id="path3711"
       inkscape:connector-curvature="0"
       style="stroke:#ff0000" />
    <polyline
       points="207.41734,73.86495 210.28996,72.04231 213.52992,70.70752 217.04696,69.838 220.75078,69.41116 224.55107,69.40443 228.35763,69.79525 232.08015,70.56106 235.62832,71.67926 238.91189,73.12733 241.84055,74.88266 244.52785,76.9972 246.93147,79.58049 249.03828,82.59441 250.83526,86.00088 252.30926,89.76182 253.44717,93.83911 254.23594,98.19465 254.66241,102.79039 254.71353,107.58821 254.37613,112.54999"
       id="polyline3719"
       style="stroke:#000000" />
    <path
       d="M 207.41734,73.86495 C 207.16403,74.02567 207.16403,74.02567 207.16403,74.02567 C 200.44102,78.29135 193.87903,82.86333 188.07837,88.31743 C 182.27771,93.77152 177.17308,99.91549 171.62041,105.62186 C 166.06774,111.32823 159.84844,116.51973 152.63382,119.88782 C 145.4192,123.25591 137.4253,124.50664 129.50547,125.32589 C 129.20706,125.35676 129.20706,125.35676 129.20706,125.35676"
       id="path3721"
       inkscape:connector-curvature="0"
       style="stroke:#ff0000" />
    <polyline
       points="114.36326,141.20124 114.33299,141.02732 114.27008,140.53555 114.21626,139.77085 114.21328,138.77813 114.30292,137.60237 114.52693,136.28847 114.92707,134.88137 115.54513,133.42601 116.4228,131.96736 117.60192,130.55029 119.01528,129.28603 120.52882,128.24211 122.08392,127.39799 123.62191,126.73311 125.08416,126.22693 126.41203,125.85886 127.54691,125.60837 128.43013,125.45488 129.00305,125.37787 129.20707,125.35676"
       id="polyline3729"
       style="stroke:#000000" />
    <path
       d="M 114.36326,141.20124 C 114.41469,141.4968 114.41469,141.4968 114.41469,141.4968 C 115.26577,146.38746 115.91759,151.30999 116.44443,156.24612 C 116.97126,161.18225 117.49818,166.21732 119.5066,170.75706 C 121.07239,174.29631 123.52858,177.40232 126.42068,179.97404 C 129.31278,182.54576 132.63611,184.59922 136.10551,186.31423 C 143.04431,189.74426 150.55985,191.84003 157.68073,194.874 C 164.80162,197.90796 171.75455,202.10031 176.03194,208.55135 C 178.17064,211.77687 179.57615,215.52934 179.7876,219.3937 C 179.99906,223.25806 178.97158,227.22646 176.67316,230.34018 C 175.1935,232.34471 173.23725,233.95675 171.14766,235.31365 C 169.05808,236.67055 166.82669,237.79288 164.59625,238.90315 C 160.13538,241.12369 155.76036,243.51538 151.54431,246.17153 C 151.29048,246.33144 151.29048,246.33144 151.29048,246.33144"
       id="path3731"
       inkscape:connector-curvature="0"
       style="stroke:#ff0000" />
  </g>
</svg>
