<svg x="0" y="0" width="1984.375" height="964.0625" version="1.1" xmlns="http://www.w3.org/2000/svg" xmlns:xlink="http://www.w3.org/1999/xlink"><g fill="none" stroke="none" stroke-width="2" stroke-linecap="butt" stroke-linejoin="miter" stroke-miterlimit="10" stroke-dasharray="" stroke-dashoffset="0" font-family="sans-serif" font-weight="normal" font-size="12" text-anchor="start" mix-blend-mode="normal"><polyline points="284.80059,662.23562 274.46391,662.56103 263.58344,662.74569 252.32881,662.79941 240.86963,662.73208 229.37554,662.55351 218.01613,662.27351 206.96109,661.90201 196.38002,661.44879 186.44254,660.9237 177.31829,660.33662" stroke="#000000"></polyline><polyline points="185.08603,666.08904 185.28683,661.71426 185.57718,657.01511 186.02913,652.09156 186.71474,647.04355 187.70613,641.97106 189.07528,636.9739 190.89436,632.15218 193.2354,627.6057 196.17044,623.43445 199.7716,619.73836 204.37523,616.08826 208.72585,613.24558 212.9004,611.02539 216.97567,609.2429 221.02867,607.71339 225.1362,606.25192 229.37522,604.67377 233.82269,602.79406 238.55535,600.428 243.65027,597.39076 245.51231,595.6908 247.30161,593.03781 248.99514,589.42771 250.57016,584.85631 252.00363,579.31953 253.2727,572.81313 254.3545,565.33302 255.22608,556.87503 255.86456,547.435 256.24703,537.00877 256.60204,527.87371 257.148,519.18068 257.74281,510.83845 258.2444,502.75586 258.51067,494.84171 258.39945,487.00491 257.76875,479.15421 256.47639,471.19851 254.38039,463.04657 251.33851,454.60723 247.31907,445.21773 243.47803,436.7071 239.86046,428.8663 236.51155,421.48633 233.47637,414.35821 230.80004,407.27283 228.52764,400.02133 226.70435,392.39465 225.37518,384.18375 224.58527,375.17964 224.39979,370.93813 224.33137,365.87742 224.49928,360.0014 225.02265,353.31385 226.02063,345.8186 227.6124,337.51939 229.91717,328.42011 233.05407,318.52454 237.14231,307.83652 242.301,296.35983" stroke="#000000"></polyline><path d="M185.08603,666.08904c-0.02293,0.49947 -0.02293,0.49947 -0.02293,0.49947c-0.3789,8.25497 -0.50226,16.519 -0.46609,24.78259c0.03617,8.26358 0.09384,16.62247 -1.80357,24.66535c-2.04693,8.67671 -6.46341,16.78351 -12.65119,23.2012c-6.18778,6.41768 -14.13085,11.12791 -22.7329,13.46885c-8.60205,2.34095 -17.83951,2.30493 -26.42022,-0.11306c-8.58071,-2.41799 -16.48008,-7.21232 -22.57834,-13.71512c-6.09826,-6.5028 -10.37696,-14.69622 -12.21829,-23.41888c-1.84132,-8.72266 -1.23865,-17.94926 1.73154,-26.35481c2.97019,-8.40555 8.30022,-15.96455 15.2267,-21.57696c6.92648,-5.61241 15.42919,-9.26019 24.27071,-10.40158c8.19667,-1.05814 16.50484,-0.06602 24.71366,0.89333c8.20882,0.95935 16.43656,1.75441 24.68419,2.28509c0.49897,0.03211 0.49897,0.03211 0.49897,0.03211" stroke="#ff0000"></path><g stroke="#ff0000"><line x1="185.08603" y1="666.08904" x2="177.31829" y2="660.33662"></line><polyline points="186.80274,657.1672 177.31829,660.33662 177.0527,670.33309"></polyline></g><polyline points="217.03268,160.40315 216.84472,181.21316 215.09881,198.97461 212.02585,214.20906 207.85682,227.43797 202.82262,239.18294 197.15424,249.96532 191.08257,260.30676 184.83859,270.72866 178.65319,281.75262 172.75733,293.90011 171.81366,298.57208 170.76834,304.74864 169.77352,312.23654 168.98139,320.8425 168.54409,330.37322 168.61381,340.63548 169.34268,351.43597 170.88291,362.58142 173.38662,373.87858 177.006,385.13422 179.25576,390.28627 182.49701,396.26244 186.78556,402.89292 192.17716,410.00775 198.7276,417.437 206.49269,425.01088 215.52814,432.55941 225.88984,439.91274 237.63351,446.90099 250.81498,453.35421" stroke="#000000"></polyline><path d="M217.03268,160.40315c0.00452,-0.49998 0.00452,-0.49998 0.00452,-0.49998c0.02461,-2.72412 0.09785,-5.47196 0.74129,-8.11912c0.64345,-2.64715 1.85178,-5.16245 3.57531,-7.27216c1.72353,-2.10971 3.92786,-3.79538 6.31687,-5.1046c2.38901,-1.30923 4.95487,-2.25954 7.51675,-3.18593c2.56188,-0.92639 5.13631,-1.84718 7.55306,-3.10447c2.41675,-1.25729 4.67031,-2.86854 6.47779,-4.9068c1.80748,-2.03825 3.13517,-4.48817 3.92005,-7.09689c0.78487,-2.60872 1.01906,-5.34642 1.20388,-8.06438c0.03392,-0.49885 0.03392,-0.49885 0.03392,-0.49885" stroke="#ff0000"></path><g stroke="#ff0000"><line x1="217.03268" y1="160.40315" x2="254.37612" y2="112.54998"></line><polyline points="257.30524,122.11138 254.37612,112.54998 244.38953,112.03227"></polyline></g><polyline points="333.43313,449.64326 346.84979,454.96192 358.84617,460.47574 370.02232,466.01642 380.97808,471.41577 392.31339,476.50545 404.62815,481.11727 418.52235,485.08298 434.59583,488.23425 453.4486,490.40284 475.68049,491.42049 487.81311,491.07077 502.05422,489.53121 518.51321,486.60017 537.2995,482.07596 558.5226,475.75682 582.29188,467.44113 608.7168,456.92719 637.90684,444.0133 669.97129,428.49771 705.01979,410.17885" stroke="#000000"></polyline><path d="M333.43313,449.64326c-0.46481,-0.18426 -0.46481,-0.18426 -0.46481,-0.18426c-3.32264,-1.31717 -6.67691,-2.59847 -10.16992,-3.35595c-3.49301,-0.75748 -7.10312,-0.99063 -10.65881,-0.62734c-7.11138,0.72659 -13.70746,3.88702 -20.12147,7.04299c-6.41401,3.15596 -13.13459,6.12159 -20.27466,6.46672c-3.57003,0.17256 -7.16258,-0.29369 -10.5929,-1.2976c-3.43032,-1.00391 -6.67637,-2.54217 -9.88652,-4.11375c-0.44907,-0.21985 -0.44907,-0.21985 -0.44907,-0.21985" stroke="#ff0000"></path><g stroke="#ff0000"><line x1="333.43313" y1="449.64326" x2="250.81498" y2="453.35421"></line><polyline points="256.1774,444.91357 250.81498,453.35421 256.91253,461.28011"></polyline></g><polyline points="635.86635,384.61026 648.80104,384.16743 660.3795,384.86557 670.8094,386.79236 680.29786,390.03513 689.0525,394.68148 697.28075,400.81897 705.18992,408.53498 712.98754,417.91713 720.88093,429.05291 729.07762,442.02976 733.71051,449.05682 739.2721,456.44846 745.63355,464.14816 752.66623,472.09943 760.24152,480.24575 768.23046,488.53063 776.50443,496.89761 784.9348,505.29016 793.39285,513.65178 801.74972,521.92597 809.42704,530.37115 815.78838,539.01106 820.87871,547.69668 824.74342,556.27903 827.42747,564.60893 828.97617,572.5374 829.43468,579.91542 828.84797,586.59389 827.26145,592.42382 824.72018,597.25614 822.44037,599.90204 819.80409,601.95751 816.83154,603.56181 813.54338,604.85407 809.96002,605.97343 806.1018,607.05918 801.98924,608.25043 797.64278,609.68633 793.08285,611.50611 788.32976,613.84893 785.0123,616.16106 781.80207,619.35118 778.77105,623.29647 775.9909,627.87403 773.5335,632.96095 771.47085,638.4344 769.8747,644.17147 768.81695,650.04933 768.36924,655.94508 768.60369,661.73588" stroke="#000000"></polyline><path d="M768.60369,661.73588c0.02023,0.49959 0.02023,0.49959 0.02023,0.49959c0.33443,8.26046 0.95561,16.50593 1.75504,24.73441c0.79943,8.22848 1.63087,16.57444 0.24736,24.72507c-1.3504,7.9556 -4.90871,15.52475 -10.17316,21.64036c-5.26444,6.11562 -12.22001,10.7603 -19.88612,13.27941c-7.66611,2.51911 -16.02093,2.90549 -23.88685,1.10481c-7.86592,-1.80068 -15.22055,-5.78327 -21.02746,-11.3864c-5.80691,-5.60312 -10.04958,-12.81081 -12.13027,-20.60734c-2.08069,-7.79653 -1.99351,-16.15971 0.24914,-23.9112c2.24265,-7.7515 6.63436,-14.86926 12.55634,-20.35063c5.92197,-5.48137 13.35735,-9.31076 21.25872,-10.94888c8.09506,-1.67828 16.46562,-1.15134 24.71773,-0.65211c8.25212,0.49924 16.51472,0.81981 24.78186,0.85344c0.5,0.00203 0.5,0.00203 0.5,0.00203" stroke="#ff0000"></path><g stroke="#ff0000"><line x1="768.60369" y1="661.73588" x2="767.58625" y2="660.71844"></line><polyline points="777.43433,658.98196 767.58625,660.71844 765.84977,670.56652"></polyline></g><polyline points="767.58625,660.71844 776.43568,660.75443 784.9989,660.79356 793.48764,660.83085 802.1143,660.86139 811.09063,660.88019 820.62891,660.88235 830.941,660.86284 842.23897,660.81685 854.73499,660.7393 868.64092,660.62532" stroke="#000000"></polyline><path d="M868.64092,660.62532c0.49998,-0.0041 0.49998,-0.0041 0.49998,-0.0041c16.49969,-0.13524 33.00356,0.01887 49.49834,-0.40571c26.02719,-0.66995 52.24492,-3.31353 76.98312,-11.4305c24.7382,-8.11697 48.05391,-22.0313 64.32365,-42.35761c8.13487,-10.16316 14.42869,-21.85089 17.99923,-34.36956c3.57053,-12.51867 4.38214,-25.86879 1.90849,-38.64951c-2.47365,-12.78073 -8.27384,-24.96132 -16.97506,-34.64401c-8.70123,-9.68269 -20.31992,-16.79613 -33.0068,-19.71314c-8.04941,-1.85075 -16.37174,-2.07884 -24.6275,-2.32526c-8.25576,-0.24641 -16.50738,-0.62536 -24.74565,-1.21629c-0.49872,-0.03577 -0.49872,-0.03577 -0.49872,-0.03577" stroke="#ff0000"></path><g stroke="#ff0000"><line x1="868.64092" y1="660.62532" x2="980" y2="475.47385"></line><polyline points="984.06342,484.61106 980,475.47385 970.02406,476.16711"></polyline></g><polyline points="980,475.47385 964.69465,474.37599 951.49767,470.41822 940.2598,464.05034 930.83231,455.72211 923.06625,445.88334 916.81257,434.9839 911.92231,423.47343 908.24654,411.80185 905.63642,400.41893 903.94278,389.77447 902.52465,376.89544 901.37589,363.49655 900.37553,349.76886 899.40251,335.90331 898.33546,322.09104 897.05353,308.52299 895.43544,295.39022 893.36025,282.88383 890.70657,271.19474 887.35355,260.51407 886.1476,258.18633 884.57632,255.22016 882.49302,251.89654 879.75157,248.49656 876.20561,245.30124 871.70858,242.59151 866.11434,240.64851 859.27644,239.75316 851.04852,240.18654 841.28422,242.22963" stroke="#000000"></polyline><path d="M841.28422,242.22963c-0.4894,0.1024 -0.4894,0.1024 -0.4894,0.1024c-9.41659,1.97034 -18.87163,4.10033 -27.68016,7.96869c-8.80853,3.86836 -16.89084,9.44393 -23.42296,16.50692c-6.53212,7.06299 -11.47212,15.50756 -15.02945,24.44623c-3.55732,8.93867 -5.78343,18.34565 -7.73608,27.76593c-3.9053,18.84055 -7.46103,38.26752 -17.63368,54.59954c-5.08633,8.16601 -11.6591,15.3847 -19.22671,21.32488c-7.56761,5.94018 -16.07672,10.54664 -24.60287,15.00302c-0.44312,0.23161 -0.44312,0.23161 -0.44312,0.23161" stroke="#ff0000"></path><g stroke="#ff0000"><line x1="841.28422" y1="242.22963" x2="705.01979" y2="410.17885"></line><polyline points="702.27246,400.56364 705.01979,410.17885 714.99477,410.8858"></polyline></g><polyline points="858.64845,454.6844 853.82672,441.60368 849.82495,429.00632 846.60759,416.75177 844.13863,404.6994 842.3824,392.70864 841.30303,380.63887 840.86473,368.34952 841.03173,355.6999 841.76824,342.54951 843.03839,328.75767 844.50137,313.06807 845.40186,297.82422 845.63663,283.13832 845.10278,269.12236 843.69698,255.88836 841.31643,243.54842 837.85781,232.21452 833.21811,221.99873 827.29431,213.01316 819.9833,205.36978 797.43006,189.63621 773.86144,180.25787 748.28108,176.05509 719.69239,175.84815 687.0989,178.45736 649.50432,182.70305 605.91201,187.4055 555.32555,191.38503 496.74853,193.46195 429.18443,192.45654" stroke="#000000"></polyline><path d="M858.64845,454.6844c0.17293,0.46914 0.17293,0.46914 0.17293,0.46914c1.95981,5.3167 3.80508,10.81871 3.67897,16.48371c-0.12611,5.665 -2.3105,11.31519 -6.28539,15.35356c-3.97489,4.03837 -9.53486,6.33324 -15.18013,6.82226c-5.64526,0.48902 -11.3156,-0.70147 -16.70263,-2.45875c-21.168,-6.90512 -38.72697,-22.14739 -52.80744,-39.39572c-14.08048,-17.24833 -25.1948,-36.67866 -37.6493,-55.13537c-12.45451,-18.45671 -26.61587,-36.29573 -45.13762,-48.65332c-9.26087,-6.17879 -19.5568,-10.90772 -30.43569,-13.27222c-10.87889,-2.3645 -22.35209,-2.31622 -33.05053,0.7635c-6.8152,1.96186 -13.4296,5.28392 -18.08689,10.63234c-2.32865,2.67421 -4.13143,5.82162 -5.13765,9.22184c-1.00622,3.40022 -1.20332,7.04405 -0.50937,10.52146c0.69394,3.47741 2.27849,6.76967 4.54309,9.49833c2.2646,2.72866 5.19257,4.8824 8.41727,6.35729c6.4494,2.94977 13.80077,2.97758 20.88858,2.73492c0.49971,-0.01711 0.49971,-0.01711 0.49971,-0.01711" stroke="#ff0000"></path><g stroke="#ff0000"><line x1="858.64845" y1="454.6844" x2="635.86635" y2="384.61026"></line><polyline points="643.79568,378.51718 635.86635,384.61026 638.87998,394.14536"></polyline></g><polyline points="340.8151,255.17671 335.50405,267.82232 332.80276,279.76736 332.49719,290.93724 334.37334,301.25744 338.21719,310.65347 343.81472,319.05083 350.95192,326.37502 359.41477,332.55148 368.98927,337.50577 379.46143,341.16333" stroke="#000000"></polyline><path d="M340.8151,255.17671c0.19361,-0.46099 0.19361,-0.46099 0.19361,-0.46099c3.21524,-7.65551 6.89307,-15.10541 10.84763,-22.40651c1.97728,-3.65055 3.94443,-7.31801 5.50021,-11.16713c1.55578,-3.84912 2.69246,-7.91493 2.81982,-12.06462c0.19471,-6.34394 -2.05432,-12.68434 -5.97507,-17.67546c-3.92075,-4.99111 -9.45388,-8.6392 -15.50161,-10.56494c-6.04773,-1.92574 -12.58596,-2.15996 -18.82046,-0.97066c-6.23451,1.18931 -12.16709,3.77719 -17.45728,7.28397c-10.58037,7.01355 -18.43453,17.51531 -24.42339,28.70761c-5.98887,11.1923 -10.29297,23.18947 -15.19855,34.89713c-6.37667,15.21858 -13.52913,30.09864 -20.29402,45.14868c-0.20499,0.45605 -0.20499,0.45605 -0.20499,0.45605" stroke="#ff0000"></path><g stroke="#ff0000"><line x1="340.8151" y1="255.17671" x2="242.301" y2="296.35983"></line><polyline points="244.43351,286.58986 242.301,296.35983 250.75241,301.70527"></polyline></g><polyline points="377.76017,342.06576 381.23998,337.18761 383.61723,332.58617 385.17824,328.10195 386.20952,323.57547 386.99738,318.8474 387.82825,313.75827 388.98858,308.14868 390.7648,301.85917 393.44324,294.73034 397.31044,286.60272 400.79581,280.62369 404.9656,274.26624 409.54132,267.46909 414.24447,260.171 418.79668,252.31068 422.91945,243.82675 426.33429,234.65797 428.76277,224.743 429.9264,214.02058 429.54674,202.42939 427.69113,188.02818 425.08538,174.85749 421.47727,162.51893 416.61464,150.61399 410.24535,138.74424 402.11708,126.51123 391.97778,113.51649 379.5752,99.36155 364.65713,83.64797 346.97139,65.97729 331.1236,52.18299 315.05482,41.37953 298.84757,33.22108 282.58439,27.36181 266.34797,23.45592 250.22071,21.15752 234.28531,20.12082 218.62429,20 203.32023,20.44919 188.45564,21.12258 178.47554,22.36995 168.35896,25.15259 158.01223,29.39879 147.34169,35.037 136.25377,41.99553 124.6548,50.20275 112.45114,59.58706 99.54916,70.07682 85.85522,81.60039 71.27569,94.08617 68.5228,96.78788 66.62798,99.34931 65.42566,101.80459 64.75032,104.18789 64.43648,106.53339 64.31856,108.87521 64.23109,111.24749 64.00848,113.6844 63.48525,116.22011 62.49586,118.88871 58.83484,125.69886 54.23443,132.78915 48.99783,140.078 43.42827,147.48375 37.82901,154.92473 32.50324,162.31932 27.75423,169.58588 23.88519,176.64271 21.19938,183.40822 20,189.80072 20.32367,194.19569 21.68135,198.62389 23.8987,203.07584 26.80134,207.54204 30.215,212.01299 33.9653,216.47922 37.87789,220.9312 41.77848,225.35943 45.49268,229.75442 48.84618,234.10666 51.13307,237.52637 53.46292,241.37741 55.8519,245.51191 58.3161,249.78195 60.87169,254.03972 63.53484,258.13731 66.32163,261.9269 69.24824,265.26062 72.33079,267.99062 75.58542,269.96896 80.95448,271.52733 87.34901,271.84743 94.56792,271.06687 102.41011,269.32308 110.67446,266.75354 119.1599,263.49575 127.66534,259.68714 135.98965,255.46525 143.93174,250.96746 151.29049,246.33138" stroke="#000000"></polyline><path d="M377.76017,342.06576c-0.29037,0.40705 -0.29037,0.40705 -0.29037,0.40705c-4.79726,6.72501 -9.7776,13.31684 -14.86933,19.82174c-5.09173,6.5049 -10.24596,13.05601 -13.87687,20.47598c-4.84335,9.89766 -6.70223,21.23187 -5.27619,32.15836c1.42604,10.92649 6.13125,21.40343 13.34933,29.72936c7.21808,8.32593 16.92122,14.46922 27.53384,17.43469c10.61262,2.96547 22.0942,2.74209 32.58408,-0.63195c10.48988,-3.37404 19.94828,-9.88563 26.84549,-18.47925c6.89721,-8.59362 11.20731,-19.2365 12.23546,-30.20758c1.02815,-10.97108 -1.22926,-22.22886 -6.40586,-31.95638c-5.1766,-9.72752 -13.25261,-17.88823 -22.92459,-23.16785c-7.25068,-3.95791 -15.23913,-6.3354 -23.15065,-8.7114c-7.91152,-2.376 -15.78242,-4.88654 -23.58105,-7.61032c-0.47204,-0.16487 -0.47204,-0.16487 -0.47204,-0.16487" stroke="#ff0000"></path><g stroke="#ff0000"><line x1="377.76017" y1="342.06576" x2="379.46143" y2="341.16333"></line><polyline points="378.23298,351.08759 379.46143,341.16333 370.55584,336.61467"></polyline></g><polyline points="207.41739,73.86492 210.28995,72.0423 213.52991,70.70752 217.04695,69.838 220.75077,69.41113 224.55106,69.40443 228.35762,69.79525 232.08014,70.56106 235.62831,71.67926 238.91188,73.12733 241.84054,74.88266 244.52784,76.9972 246.93146,79.58049 249.03827,82.5944 250.83524,86.00087 252.30925,89.76182 253.44721,93.83911 254.23593,98.19465 254.66239,102.79039 254.71352,107.5882 254.37612,112.54998" stroke="#000000"></polyline><path d="M207.41739,73.86492c-0.42219,0.26787 -0.42219,0.26787 -0.42219,0.26787c-6.69648,4.24886 -13.23203,8.80436 -19.00394,14.24318c-5.77191,5.43882 -10.84509,11.56824 -16.36492,17.26273c-5.51982,5.69449 -11.70548,10.87749 -18.88798,14.24013c-7.18251,3.36264 -15.14538,4.61033 -23.03396,5.42646c-0.49735,0.05145 -0.49735,0.05145 -0.49735,0.05145" stroke="#ff0000"></path><g stroke="#ff0000"><line x1="207.41739" y1="73.86492" x2="129.20707" y2="125.35676"></line><polyline points="129.49327,115.36085 129.20707,125.35676 138.50226,129.0445"></polyline></g><polyline points="114.36325,141.20123 114.33301,141.02732 114.27008,140.53554 114.21625,139.77084 114.21328,138.77813 114.30291,137.60236 114.52692,136.28847 114.9271,134.88137 115.54512,133.42601 116.42283,131.96735 117.60191,130.55028 119.01528,129.28602 120.52884,128.2421 122.08392,127.39799 123.62191,126.73311 125.08416,126.2269 126.41205,125.85883 127.5469,125.60833 128.43012,125.45488 129.00307,125.37786 129.20707,125.35676" stroke="#000000"></polyline><path d="M114.36325,141.20123c0.08565,0.49261 0.08565,0.49261 0.08565,0.49261c1.4311,8.23108 2.15817,16.56368 2.44701,24.91325c0.14442,4.17478 0.31491,8.36844 1.11153,12.46906c0.79662,4.10062 2.27406,8.15412 4.92061,11.38606c2.29328,2.80054 5.39593,4.88019 8.75468,6.22961c3.35875,1.34942 6.97148,1.99149 10.58523,2.19873c7.2275,0.41448 14.43243,-0.87621 21.65941,-1.29967c7.22698,-0.42346 14.82689,0.1184 21.04651,3.82312c3.10981,1.85236 5.79368,4.49225 7.42936,7.72129c1.63568,3.22904 2.17011,7.05898 1.19166,10.54392c-1.14393,4.07431 -4.21333,7.37914 -7.72294,9.74372c-3.50961,2.36458 -7.48124,3.94003 -11.42982,5.46228c-7.89718,3.0445 -15.56755,6.66811 -22.72859,11.17964c-0.42304,0.26652 -0.42304,0.26652 -0.42304,0.26652" stroke="#ff0000"></path><g stroke="#ff0000"><line x1="114.36325" y1="141.20123" x2="151.29049" y2="246.33138"></line><polyline points="141.66103,243.63444 151.29049,246.33138 157.11826,238.20505"></polyline></g></g></svg>