<?xml version="1.0" encoding="UTF-8" standalone="no"?>
<svg
   xmlns:dc="http://purl.org/dc/elements/1.1/"
   xmlns:cc="http://creativecommons.org/ns#"
   xmlns:rdf="http://www.w3.org/1999/02/22-rdf-syntax-ns#"
   xmlns:svg="http://www.w3.org/2000/svg"
   xmlns="http://www.w3.org/2000/svg"
   xmlns:sodipodi="http://sodipodi.sourceforge.net/DTD/sodipodi-0.dtd"
   xmlns:inkscape="http://www.inkscape.org/namespaces/inkscape"
   x="0"
   y="0"
   width="1067.2493"
   height="723.92584"
   version="1.1"
   id="svg2"
   inkscape:version="0.48+devel r"
   sodipodi:docname="lion_generated.svg">
  <metadata
     id="metadata122">
    <rdf:RDF>
      <cc:Work
         rdf:about="">
        <dc:format>image/svg+xml</dc:format>
        <dc:type
           rdf:resource="http://purl.org/dc/dcmitype/StillImage" />
        <dc:title></dc:title>
      </cc:Work>
    </rdf:RDF>
  </metadata>
  <defs
     id="defs120" />
  <sodipodi:namedview
     pagecolor="#ffffff"
     bordercolor="#666666"
     borderopacity="1"
     objecttolerance="10"
     gridtolerance="10"
     guidetolerance="10"
     inkscape:pageopacity="0"
     inkscape:pageshadow="2"
     inkscape:window-width="2560"
     inkscape:window-height="1378"
     id="namedview118"
     showgrid="false"
     inkscape:zoom="0.91002382"
     inkscape:cx="461.7738"
     inkscape:cy="430.5599"
     inkscape:window-x="0"
     inkscape:window-y="27"
     inkscape:window-maximized="1"
     inkscape:current-layer="g4"
     fit-margin-top="10"
     fit-margin-left="10"
     fit-margin-bottom="10"
     fit-margin-right="10" />
  <g
     stroke-miterlimit="10"
     font-weight="normal"
     font-size="12"
     mix-blend-mode="normal"
     id="g4"
     style="font-weight:normal;font-size:12px;font-family:sans-serif;text-anchor:start;fill:none;stroke:none;stroke-width:2;stroke-linecap:butt;stroke-linejoin:miter;stroke-miterlimit:10;stroke-dasharray:none;stroke-dashoffset:0"
     transform="translate(-8.9931368,-8.9998868)">
    <polyline
       points="284.8006,662.23563 274.46392,662.56109 263.58345,662.7457 252.32883,662.79942 240.86965,662.73208 229.37555,662.55352 218.01614,662.27357 206.9611,661.90207 196.38003,661.44886 186.44252,660.92376 177.31828,660.33662"
       id="polyline6"
       style="stroke:#000000" />
    <polyline
       points="185.08607,666.0891 185.28684,661.71432 185.57717,657.01517 186.02914,652.09162 186.71475,647.04356 187.70614,641.97107 189.07529,636.97402 190.89437,632.15218 193.23541,627.60576 196.17045,623.43451 199.77159,619.73842 204.37524,616.08826 208.72587,613.24564 212.90036,611.02539 216.97568,609.2429 221.02862,607.71345 225.13621,606.25198 229.37523,604.67378 233.82264,602.79406 238.55536,600.42806 243.65023,597.39082 245.51232,595.6908 247.30162,593.03782 248.99516,589.42777 250.57017,584.85637 252.00364,579.31959 253.27271,572.81319 254.35446,565.33308 255.22609,556.87503 255.86457,547.435 256.24704,537.00877 256.60206,527.87377 257.14801,519.18068 257.74283,510.83845 258.24441,502.75586 258.51063,494.84177 258.39946,487.00496 257.76877,479.15427 256.4764,471.19851 254.3804,463.04657 251.33852,454.60723 247.31908,445.21778 243.47804,436.70715 239.86048,428.86635 236.51157,421.48638 233.47638,414.3582 230.80005,407.27288 228.52765,400.02138 226.7043,392.39464 225.37519,384.18374 224.58528,375.17963 224.3998,370.93812 224.33138,365.87747 224.4993,360.00144 225.02266,353.31389 226.02064,345.81859 227.61241,337.51944 229.91719,328.42016 233.05408,318.52459 237.14232,307.83656 242.30096,296.35987"
       id="polyline8"
       style="stroke:#000000" />
    <path
       d="M 185.08607,666.0891 C 185.07232,666.38878 185.07232,666.38878 185.07232,666.38878 C 184.84508,671.34032 184.75696,676.29693 184.75573,681.25368 C 184.7545,686.21043 184.76577,691.21439 183.71071,696.05755 C 182.4601,701.79837 179.6457,707.19194 175.64417,711.49413 C 171.64265,715.79632 166.464,718.99457 160.82239,720.63571 C 155.18079,722.27685 149.09169,722.35509 143.41251,720.84911 C 137.73333,719.34314 132.48076,716.25606 128.40967,712.01964 C 124.33858,707.78322 121.46197,702.40909 120.20492,696.66968 C 118.94786,690.93027 119.31547,684.84276 121.2641,679.29984 C 123.21273,673.75693 126.73753,668.77639 131.32354,665.10358 C 135.90955,661.43077 141.54288,659.07855 147.3802,658.41013 C 152.30556,657.84613 157.28275,658.42102 162.20897,658.97744 C 167.13519,659.53386 172.07158,659.999 177.0189,660.31736 C 177.31828,660.33662 177.31828,660.33662 177.31828,660.33662"
       id="path10"
       inkscape:connector-curvature="0"
       style="stroke:#ff0000" />
    <polyline
       points="217.03269,160.40316 216.84473,181.21314 215.09883,198.97465 212.02587,214.20909 207.85683,227.43801 202.82266,239.18292 197.15422,249.96536 191.08255,260.3068 184.8386,270.7287 178.65317,281.75267 172.75737,293.9001 171.81364,298.57207 170.76832,304.74863 169.77353,312.23653 168.9814,320.84249 168.54413,330.37326 168.61379,340.63547 169.34268,351.43601 170.88289,362.58147 173.3866,373.87862 177.00601,385.13422 179.25576,390.28626 182.49702,396.26248 186.78554,402.89297 192.17717,410.00774 198.72761,417.43705 206.49265,425.01093 215.52815,432.55946 225.88986,439.91279 237.63353,446.90099 250.81499,453.35426"
       id="polyline18"
       style="stroke:#000000" />
    <path
       d="M 250.81499,453.35426 C 251.08443,453.48617 251.08443,453.48617 251.08443,453.48617 C 254.30716,455.06392 257.56569,456.60836 261.00866,457.61891 C 264.45163,458.62946 268.05713,459.10289 271.64154,458.93788 C 278.81037,458.60787 285.56733,455.65778 292.01937,452.51576 C 298.47141,449.37374 305.10431,446.22762 312.24523,445.51458 C 315.81569,445.15806 319.43918,445.39751 322.94529,446.1607 C 326.4514,446.92389 329.81858,448.21036 333.15426,449.5327 C 333.43315,449.64326 333.43315,449.64326 333.43315,449.64326"
       id="path20"
       inkscape:connector-curvature="0"
       style="stroke:#ff0000" />
    <polyline
       points="333.43315,449.64325 346.84981,454.96192 358.84619,460.47574 370.02234,466.01647 380.9781,471.41577 392.31336,476.5055 404.62817,481.11732 418.52232,485.08298 434.59585,488.23425 453.44857,490.40289 475.68051,491.42054 487.81314,491.07077 502.05425,489.53126 518.51323,486.60017 537.29953,482.07596 558.52263,475.75688 582.29192,467.44119 608.71684,456.92724 637.90688,444.01329 669.97138,428.49776 705.01977,410.17884"
       id="polyline28"
       style="stroke:#000000" />
    <path
       d="M 705.01977,410.17884 C 705.28564,410.03987 705.28564,410.03987 705.28564,410.03987 C 709.69641,407.73447 714.23154,405.67837 718.83307,403.78213 C 723.4346,401.8859 728.2058,399.91561 731.6071,396.2823 C 734.75974,392.9146 736.40873,388.24068 736.29368,383.62903 C 736.17863,379.01738 734.3492,374.50452 731.39463,370.96177 C 728.44006,367.41902 724.39948,364.83707 720.0101,363.41797 C 715.62072,361.99886 710.89581,361.72063 706.32987,362.37846 C 697.19799,363.69411 688.91806,368.65504 682.06189,374.82879 C 675.20572,381.00253 669.58098,388.39323 663.80462,395.58738 C 658.02826,402.78154 651.97978,409.89812 644.50687,415.30902 C 637.03396,420.71992 627.92194,424.34138 618.71815,423.69917 C 614.11625,423.37807 609.56438,421.9782 605.70226,419.45538 C 601.84014,416.93256 598.69356,413.2675 596.99966,408.97666 C 595.30576,404.68582 595.11351,399.7785 596.68394,395.44095 C 598.25437,391.1034 601.62229,387.4028 605.88394,385.63675 C 610.48505,383.73003 615.66539,384.04389 620.63626,384.35423 C 625.60713,384.66457 630.58892,384.79093 635.56655,384.62052 C 635.86637,384.61026 635.86637,384.61026 635.86637,384.61026"
       id="path30"
       inkscape:connector-curvature="0"
       style="stroke:#ff0000" />
    <polyline
       points="635.86638,384.61026 648.80102,384.16742 660.37959,384.86562 670.80939,386.79235 680.29795,390.03517 689.05259,394.68153 697.28073,400.81896 705.19001,408.53503 712.98752,417.91718 720.88102,429.05291 729.0776,442.02981 733.71061,449.05687 739.27209,456.44852 745.63365,464.14816 752.66633,472.09943 760.2415,480.24575 768.23045,488.53069 776.50452,496.89761 784.9349,505.29016 793.39283,513.65179 801.74971,521.92603 809.42714,530.37115 815.78837,539.01111 820.87881,547.69674 824.74341,556.27903 827.42757,564.60894 828.97627,572.53746 829.43467,579.91548 828.84807,586.59395 827.26155,592.42388 824.72028,597.25614 822.44047,599.90204 819.80408,601.95757 816.83164,603.56187 813.54348,604.85407 809.96001,605.97355 806.10179,607.05919 801.98923,608.25043 797.64277,609.68639 793.08284,611.50617 788.32985,613.84899 785.0124,616.16112 781.80216,619.35125 778.77103,623.29648 775.99089,627.87404 773.5336,632.96101 771.47094,638.4344 769.8748,644.17153 768.81693,650.04939 768.36934,655.9452 768.60368,661.73594"
       id="polyline38"
       style="stroke:#000000" />
    <path
       d="M 768.60368,661.73594 C 768.61581,662.03569 768.61581,662.03569 768.61581,662.03569 C 768.81637,666.99166 769.18641,671.93881 769.66183,676.876 C 770.13725,681.81319 770.63169,686.81878 769.81671,691.7114 C 769.00795,696.56669 766.84942,701.18997 763.6465,704.92751 C 760.44357,708.66505 756.20544,711.50614 751.53137,713.04921 C 746.85731,714.59228 741.76071,714.83292 736.96202,713.73725 C 732.16333,712.64158 727.67628,710.21276 724.13495,706.79415 C 720.59362,703.37554 718.00812,698.97695 716.74368,694.21994 C 715.47924,689.46293 715.53944,684.36113 716.91566,679.63525 C 718.29188,674.90937 720.98015,670.57292 724.60069,667.23831 C 728.22123,663.9037 732.76366,661.58044 737.5865,660.59649 C 742.4464,659.60498 747.46654,659.91679 752.41775,660.21209 C 757.36896,660.50739 762.32629,660.69711 767.28626,660.71729 C 767.58626,660.71851 767.58626,660.71851 767.58626,660.71851"
       id="path40"
       inkscape:connector-curvature="0"
       style="stroke:#ff0000" />
    <polyline
       points="767.58624,660.7185 776.43578,660.75449 784.99889,660.79362 793.48774,660.83091 802.11429,660.86139 811.09073,660.8802 820.6289,660.88236 830.94099,660.86291 842.23896,660.81686 854.73498,660.73936 868.64091,660.62533"
       id="polyline48"
       style="stroke:#000000" />
    <path
       d="M 868.64091,660.62533 C 868.9409,660.62287 868.9409,660.62287 868.9409,660.62287 C 878.84061,660.54169 888.74146,660.5573 898.6399,660.37933 C 925.37406,659.89864 952.32983,657.48224 977.80554,649.36224 C 1003.2812,641.24224 1027.3453,627.06253 1043.9959,606.14111 C 1052.3211,595.6804 1058.7052,583.61928 1062.2054,570.71639 C 1065.7057,557.8135 1066.2819,544.06911 1063.4,531.01419 C 1060.5181,517.95927 1054.1324,505.63048 1044.7843,496.07272 C 1035.4363,486.51496 1023.1117,479.81079 1009.9231,477.62025 C 1000.1528,475.99747 990.17794,476.20392 980.29921,475.49531 C 979.99998,475.47385 979.99998,475.47385 979.99998,475.47385"
       id="path50"
       inkscape:connector-curvature="0"
       style="stroke:#ff0000" />
    <polyline
       points="980,475.47385 964.69476,474.37599 951.49767,470.41822 940.25991,464.05034 930.83242,455.72216 923.06625,445.88339 916.81256,434.98389 911.92231,423.47348 908.24654,411.8019 905.63641,400.41898 903.94288,389.77446 902.52465,376.89548 901.37599,363.4966 900.37563,349.76885 899.40251,335.90335 898.33557,322.09103 897.05363,308.52298 895.43555,295.39026 893.36024,282.88381 890.70667,271.19478 887.35354,260.51411 886.14771,258.18637 884.57631,255.22014 882.49312,251.89658 879.75167,248.4966 876.2056,245.30123 871.70868,242.59155 866.11445,240.6485 859.27654,239.75314 851.04862,240.18653 841.28432,242.22962"
       id="polyline58"
       style="stroke:#000000" />
    <path
       d="M 841.28432,242.22962 C 840.99068,242.29106 840.99068,242.29106 840.99068,242.29106 C 836.14021,243.30598 831.26504,244.19757 826.37686,245.01172 C 821.48868,245.82587 816.56046,246.63441 811.92024,248.37379 C 804.43161,251.18089 797.95409,256.47472 793.41858,263.06172 C 788.88306,269.64872 786.26408,277.48588 785.57237,285.45337 C 784.18895,301.38836 790.48703,317.33972 800.39405,329.89713 C 810.30107,342.45454 823.58551,351.947 837.47194,359.88454 C 851.35838,367.82208 865.99861,374.36667 879.98364,382.12919 C 893.96867,389.8917 907.45915,399.02358 917.83215,411.1989 C 928.20515,423.37422 935.27344,438.92074 934.89272,454.91113 C 934.70236,462.90633 932.63402,470.89344 928.60726,477.80318 C 924.5805,484.71293 918.56716,490.50733 911.35391,493.96108 C 904.14066,497.41483 895.73808,498.45803 887.97519,496.5353 C 880.2123,494.61257 873.17685,489.66803 869.02464,482.83293 C 866.45006,478.59483 864.97343,473.79651 863.50302,469.06071 C 862.03261,464.32491 860.46742,459.61871 858.75232,454.96593 C 858.64856,454.68445 858.64856,454.68445 858.64856,454.68445"
       id="path60"
       inkscape:connector-curvature="0"
       style="stroke:#ff0000" />
    <polyline
       points="858.64855,454.68445 853.82671,441.60367 849.82505,429.00632 846.60758,416.75177 844.13873,404.69945 842.38239,392.70869 841.30302,380.63892 840.86472,368.34951 841.03172,355.69995 841.76823,342.54951 843.03849,328.75772 844.50147,313.06806 845.40185,297.82426 845.63673,283.13836 845.10277,269.12234 843.69708,255.8884 841.31642,243.54841 837.8578,232.2145 833.21821,221.99877 827.29441,213.01315 819.9834,205.36977 797.43005,189.63622 773.86154,180.25791 748.28106,176.0551 719.69237,175.84816 687.099,178.45737 649.50436,182.70309 605.91204,187.40554 555.32558,191.38504 496.74856,193.46196 429.18445,192.45658"
       id="polyline68"
       style="stroke:#000000" />
    <path
       d="M 429.18445,192.45658 C 428.88448,192.45212 428.88448,192.45212 428.88448,192.45212 C 418.97919,192.30472 409.04355,191.0102 399.18777,192.01022 C 389.02848,193.04104 379.31922,197.3576 371.32298,203.70849 C 363.32674,210.05938 357.006,218.38747 352.43184,227.51713 C 347.99624,236.37024 344.76563,245.77049 340.93129,254.9001 C 340.81512,255.1767 340.81512,255.1767 340.81512,255.1767"
       id="path70"
       inkscape:connector-curvature="0"
       style="stroke:#ff0000" />
    <polyline
       points="340.81511,255.17669 335.50407,267.82236 332.80277,279.7674 332.49721,290.93723 334.37336,301.25748 338.2172,310.65346 343.81468,319.05087 350.95188,326.37501 359.41479,332.55152 368.98929,337.50576 379.46146,341.16332"
       id="polyline78"
       style="stroke:#000000" />
    <path
       d="M 379.46146,341.16332 C 379.74468,341.26224 379.74468,341.26224 379.74468,341.26224 C 384.42362,342.89643 389.14509,344.40521 393.89051,345.83489 C 398.63593,347.26457 403.42583,348.69475 407.78369,351.05528 C 413.71127,354.26609 418.66874,359.24188 421.85582,365.18226 C 425.0429,371.12263 426.44732,378.00533 425.84032,384.71927 C 425.23332,391.43322 422.61692,397.95296 418.41268,403.22267 C 414.20844,408.49238 408.43211,412.49183 402.01935,414.57077 C 395.60659,416.64971 388.58179,416.79991 382.08658,414.99498 C 375.59137,413.19005 369.65075,409.43663 365.23329,404.34432 C 360.81583,399.25201 357.93879,392.84026 357.07353,386.15469 C 356.20827,379.46912 357.35844,372.53558 360.33788,366.4884 C 362.52837,362.04252 365.61703,358.11091 368.66915,354.20596 C 371.72127,350.30101 374.70762,346.34479 377.5859,342.30999 C 377.76012,342.06576 377.76012,342.06576 377.76012,342.06576"
       id="path80"
       inkscape:connector-curvature="0"
       style="stroke:#ff0000" />
    <polyline
       points="377.76014,342.06575 381.24,337.18766 383.61725,332.58622 385.17826,328.10194 386.20954,323.57552 386.9974,318.84745 387.82827,313.75831 388.9886,308.14872 390.76477,301.85921 393.44326,294.73033 397.3104,286.60277 400.79583,280.62368 404.96562,274.26623 409.54134,267.46913 414.24449,260.17104 418.7967,252.31067 422.91947,243.82674 426.33431,234.65795 428.7628,224.74298 429.92642,214.02059 429.54676,202.42943 427.69115,188.02819 425.0854,174.85753 421.4773,162.51894 416.61466,150.614 410.24532,138.74425 402.11711,126.51123 391.9778,113.51649 379.57522,99.36155 364.65715,83.64798 346.97141,65.97729 331.12362,52.18299 315.05483,41.37953 298.84759,33.22108 282.58441,27.36181 266.34798,23.45592 250.22072,21.15752 234.28532,20.12084 218.6243,20 203.32024,20.44919 188.45568,21.12258 178.47558,22.36995 168.35897,25.15259 158.01221,29.39879 147.3417,35.037 136.25378,41.99553 124.65481,50.20275 112.45114,59.58709 99.54917,70.07685 85.85523,81.60042 71.27569,94.08618 68.52281,96.78788 66.62796,99.34931 65.42566,101.8046 64.75032,104.18793 64.43649,106.5334 64.31856,108.87522 64.23106,111.24752 64.00848,113.68443 63.48525,116.22011 62.49586,118.88874 58.83485,125.69886 54.23443,132.78918 48.99781,140.07803 43.42827,147.48375 37.82898,154.92474 32.50324,162.31935 27.75423,169.58588 23.88519,176.64272 21.19938,183.40821 20,189.80073 20.32367,194.19572 21.68135,198.6239 23.89868,203.07586 26.80134,207.54208 30.215,212.013 33.9653,216.47923 37.87789,220.93118 41.77846,225.35941 45.49268,229.7544 48.84619,234.10665 51.13307,237.52641 53.46292,241.37745 55.85187,245.51189 58.3161,249.78193 60.8717,254.03971 63.53484,258.13735 66.32163,261.92694 69.24824,265.26066 72.3308,267.99066 75.58543,269.969 80.95449,271.52732 87.34901,271.84748 94.56793,271.06691 102.41011,269.32312 110.67446,266.75358 119.15991,263.49574 127.66535,259.68718 135.98963,255.46524 143.93172,250.9675 151.2905,246.33142"
       id="polyline88"
       style="stroke:#000000" />
    <path
       d="M 151.2905,246.33142 C 151.54433,246.17151 151.54433,246.17151 151.54433,246.17151 C 159.92217,240.89342 167.98325,235.08693 176.67317,230.34017 C 184.7454,225.93081 193.55669,222.76362 202.68449,221.62929 C 211.81229,220.49497 221.26539,221.44149 229.77755,224.92669 C 238.28971,228.41189 245.81053,234.50297 250.49204,242.42048 C 255.17355,250.33798 256.87718,260.08526 254.60026,268.99699 C 253.37316,273.79976 251.09902,278.25974 248.85834,282.68147 C 246.61767,287.1032 244.45623,291.56494 242.42396,296.08624 C 242.30097,296.35987 242.30097,296.35987 242.30097,296.35987"
       id="path90"
       inkscape:connector-curvature="0"
       style="stroke:#ff0000" />
    <polyline
       points="207.41734,73.86495 210.28996,72.04231 213.52992,70.70752 217.04696,69.838 220.75078,69.41116 224.55107,69.40443 228.35763,69.79525 232.08015,70.56106 235.62832,71.67926 238.91189,73.12733 241.84055,74.88266 244.52785,76.9972 246.93147,79.58049 249.03828,82.59441 250.83526,86.00088 252.30926,89.76182 253.44717,93.83911 254.23594,98.19465 254.66241,102.79039 254.71353,107.58821 254.37613,112.54999"
       id="polyline98"
       style="stroke:#000000" />
    <path
       d="M 207.41734,73.86495 C 207.16403,74.02567 207.16403,74.02567 207.16403,74.02567 C 200.44102,78.29135 193.87903,82.86333 188.07837,88.31743 C 182.27771,93.77152 177.17308,99.91549 171.62041,105.62186 C 166.06774,111.32823 159.84844,116.51973 152.63382,119.88782 C 145.4192,123.25591 137.4253,124.50664 129.50547,125.32589 C 129.20706,125.35676 129.20706,125.35676 129.20706,125.35676"
       id="path100"
       inkscape:connector-curvature="0"
       style="stroke:#ff0000" />
    <polyline
       points="114.36326,141.20124 114.33299,141.02732 114.27008,140.53555 114.21626,139.77085 114.21328,138.77813 114.30292,137.60237 114.52693,136.28847 114.92707,134.88137 115.54513,133.42601 116.4228,131.96736 117.60192,130.55029 119.01528,129.28603 120.52882,128.24211 122.08392,127.39799 123.62191,126.73311 125.08416,126.22693 126.41203,125.85886 127.54691,125.60837 128.43013,125.45488 129.00305,125.37787 129.20707,125.35676"
       id="polyline108"
       style="stroke:#000000" />
    <path
       d="M 114.36326,141.20124 C 114.41469,141.4968 114.41469,141.4968 114.41469,141.4968 C 115.26884,146.40508 115.82238,151.3593 116.18773,156.32794 C 116.3704,158.81226 116.56369,161.30185 117.02391,163.75 C 117.48413,166.19814 118.22658,168.62006 119.5066,170.75706 C 120.92349,173.12257 122.98364,175.08532 125.37044,176.46606 C 127.75724,177.8468 130.46359,178.65097 133.21062,178.88981 C 138.70469,179.36748 144.24905,177.57829 148.85626,174.54736 C 153.46347,171.51643 157.19642,167.30431 160.29248,162.74061 C 163.38854,158.17691 165.88811,153.24175 168.43012,148.34776 C 170.97213,143.45377 173.5784,138.56516 176.86214,134.13459 C 180.14588,129.70402 184.15298,125.71842 188.99681,123.08208 C 193.84064,120.44574 199.57942,119.23862 204.97086,120.39852 C 207.66658,120.97847 210.24511,122.14389 212.40557,123.85727 C 214.56603,125.57065 216.29946,127.83637 217.30367,130.4044 C 218.21134,132.72555 218.51814,135.24475 218.53078,137.73702 C 218.54342,140.2293 218.27532,142.71373 217.99735,145.19049 C 217.44142,150.14401 217.08044,155.11878 217.03541,160.10319 C 217.0327,160.40318 217.0327,160.40318 217.0327,160.40318"
       id="path110"
       inkscape:connector-curvature="0"
       style="stroke:#ff0000" />
  </g>
</svg>
