<?xml version="1.0" encoding="UTF-8" standalone="no"?>
<!-- Created by Wolf Vollprechts super awesome path parser -->

<svg
   xmlns:dc="http://purl.org/dc/elements/1.1/"
   xmlns:cc="http://creativecommons.org/ns#"
   xmlns:rdf="http://www.w3.org/1999/02/22-rdf-syntax-ns#"
   xmlns:svg="http://www.w3.org/2000/svg"
   xmlns="http://www.w3.org/2000/svg"
   xmlns:sodipodi="http://sodipodi.sourceforge.net/DTD/sodipodi-0.dtd"
   xmlns:inkscape="http://www.inkscape.org/namespaces/inkscape"
   width="424.82877"
   height="732.88708"
   id="svg_output"
   scale_for_disp="100"
   rake_sizes="0.5 4.001 16.001 32.001 42.001"
   rake_info="8 8 8 8 8 8 8 8 8 8 8 8 8 8 8 8 8 8 8 8 8 8 8 8 8 8 8 8 8 8 8 8 8 8 8 8 8 8 8 8 8 8 8 8 8 8 8 8 8 8 8 8 8 8 8 8 8 8 8 8 8 8 8 8 8 8 8 8 8 8 8 8 8 8 8 8 8 8 8 8 8 8 8 8 8 8 8 8 8 8 8 8 8 8 8 8 8 8 8 8 8 8 8 8 8 8 8 8 8 8 8 8 8 8 8 8 8 8 8 8 8 8 8 8 8 8 8 8 8 8 8 8 8 8 8 8 8 8 8 8 8 8 8 8 8 8 8 8 8 8 8 8 8 8 8 8 8 8 8 8 8 8 8 8 8 8 8 8 8 8 8 8 8 8 8 8 8 8 8 8 8 8 8 8 8 8 8 8 8 8 8 8 8 8 8 8 8 8 8 8 8 8 8 8 8 8 8 8 8 8 8 8 8 8 8 8 8 8 8 8 8 8 8 8 8 8 8 8 8 8 8 8 8 8 8 8 8 8 8 8 8 8 8 8 8 8 8 8 8 8 8 8 8 8 8 8 8 8 8 8 8 8 8 8 8 8 8 8 8 8 8 8 8 8 8 8 8 8 8 8 8 8 8 8 8 8 8 8 8 8 8 8 8 8 8 8 8 8 8 8 8 8 8 8 8 8 8 8 8 8 8 8 8 8 8 8 8 8 8 8 8 8 8 8 8 8 8 8 8 8 8 8 8 8 8 8 8 8 8 8 8 8 8 8 8 8 8 8 8 8 8 8 8 8 8 8 8 8 8 8 8 8 8 8 8 8 8 8 8 8 8 8 8 8 8 8 8 8 8 8 8 8 8 8 8 8 8 8 8 8 8 8 8 8 8 8 0 0 0 0 0 0 0 0 0 0 0 0 0 0 0 0 0 0 0 0 0 0 0 0 0 0 0 0 0 0 0 0 0 0 0 0 0 0 0 0 0 0 0 0 0 0 0 0 0 0 0 0 0 0 0 0 0 0 0 0 0 0 0 0 0 0 0 0 0 0 0 0 0 0 0 0 0 0 0 0 0 0 0 0 0 0 0 0 0 0 0 0 0 0 0 0 0 0 0 0 8 8 8 8 8 8 8 8 8 8 8 8 8 8 8 8 8 8 8 8 8 8 8 8 8 8 8 8 8 8 8 8 8 8 8 8 8 8 8 8 8 8 8 8 8 8 8 8 8 8 8 8 8 8 8 8 8 8 8 8 8 8 8 8 8 8 8 8 8 8 8 8 8 8 8 8 8 8 8 8 8 8 8 8 8 8 8 8 8 8 8 8 8 8 8 8 8 8 8 8 8 8 8 8 8 8 8 8 8 8 8 8 8 8 8 8 8 8 8 8 8 8 8 8 8 8 8 8 8 8 8 8 8 8 8 8 8 8 8 8 8 8 8 8 8 8 8 8 8 8 8 8 8 8 8 8 8 8 8 8 8 8 8 8 8 8 8 8 8 8 8 8 8 8 8 8 8 8 8 8 8 8 8 8 8 8 8 8 8 8 8 8 8 8 8 8 8 8 8 8 8 8 8 8 8 8 8 8 8 8 8 8 8 8 8 8 8 8 8 8 8 8 8 8 8 8 8 8 8 8 8 8 8 8 8 8 8 8 8 8 8 8 8 8 8 8 8 8 8 8 8 8 8 8 8 8 8 8 8 8 0 0 0 0 0 0 0 0 0 0 0 0 0 0 0 0 0 0 0 0 0 0 0 0 0 0 0 0 0 0 0 0 0 0 0 0 0 0 0 0 0 0 0 0 0 0 0 0 0 0 0 0 0 0 0 0 0 0 0 0 0 0 0 0 0 0 0 0 0 0 0 0 8 8 8 8 8 8 8 8 8 8 8 8 8 8 8 8 8 8 8 8 8 8 8 8 8 8 8 8 8 8 8 8 8 8 8 8 8 8 8 8 8 8 8 8 8 8 8 8 8 8 8 8 8 8 8 8 8 8 8 8 8 8 8 8 8 8 8 8 8 8 8 8 8 8 8 8 8 8 8 8 8 8 8 8 8 8 8 8 8 8 8 8 8 8 8 8 8 8 8 8 8 8 8 8 8 8 8 8 8 8 8 8 8 8 8 8 8 8 8 8 8 8 8 8 8 8 8 8 8 8 8 8 8 8 8 8 8 8 8 8 8 8 8 8 8 8 8 8 8 8 8 8 8 8 8 8 8 8 8 8 8 8 8 8 8 8 8 8 8 8 8 8 8 8 8 8 8 8 8 8 8 8 8 8 8 8 8 8 8 8 8 8 8 8 8 8 8 0 0 0 0 0 0 0 0 0 0 0 0 0 0 0 0 0 0 0 0 0 0 0 0 0 0 0 0 0 0 0 0 0 0 0 0 0 0 0 0 0 0 0 0 0 0 0 0 0 0 0 0 0 0 0 0 0 0 0 0 0 0 0 0 0 0 0 0 0 0 0 0 0 0 0 0 0 0 0 0 0 0 0 0 0 0 0 0 0 0 0 0 0 0 0 0 0 0 0 0 0 0 0 0 0 0 0 0 0 0 0 0 0 0 0 0 0 0 0 0 0 0 0 0 0 0 0 0 0 0 0 0 0 0 0 8 8 8 8 8 8 8 8 8 8 8 8 8 8 8 8 8 8 8 8 8 8 8 8 8 8 8 8 8 8 8 8 8 8 8 8 8 8 8 8 8 8 8 8 8 8 8 8 8 8 8 8 8 0 0 0 0 0 0 0 0 0 0 0 0 0 0 0 0 0 0 0 0 0 0 0 0 0 0 0 0 0 0 0 0 0 0 0 0 0 0 0 0 0 0 0 0 0 0 0 0 0 0 0 0 0 0 0 0 0 0 0 0 0 0 0 0 0 0 0 0 0 0 0 0 0 0 0 0 0 0 0 0 0 0 0 0 0 0 0 0 0 0 0 0 0 0 0 0 0 8 8 8 8 8 8 8 8 8 8 8 8 8 8 8 8 8 8 8 8 8 8 8 8 8 8 8 8 8 8 8 8 8 8 8 8 8 8 8 8 8 8 8 8 8 8 8 8 8 8 8 8 8 8 8 8 8 8 8 8 8 8 8 8 8 8 8 8 8 8 8 8 8 8 8 8 8 8 8 8 8 8 8 8 8 8 8 8 8 8 8 8 8 8 8 8 8 8 8 8 8 8 8 8 8 8 8 8 8 8 8 8 8 8 8 8 8 8 8 8 8 8 8 8 8 8 8 8 8 8 8 8 8 8 8 8 8 8 8 8 8 8 8 8 8 8 8 8 8 8 8 8 8 8 8 8 8 8 8 8 8 8 8 8 8 8 8 8 8 8 8 8 8 8 8 8 8 8 8 8 8 8 8 8 8 8 8 8 8 8 8 8 8 8 8 8 8 8 8 8 8 8 8 8 8 8 8 8 8 8 8 8 8 8 8 8 8 8 8 8 8 8 8 8 8 8 8 8 8 8 8 8 8 8 8 8 8 8 8 8 8 8 8 8 8 8 8 8 8 8 8 8 8 8 8 8 8 8 8 8 8 8 8 8 8 8 8 8 8 8 8 8 8 8 8 8 8 8 8 8 8 8 8 8 8 8 8 8 8 8 8 8 8 8 8 8 8 8 8 8 8 8 8 8 8 8 8 8 "
   version="1.1"
   inkscape:version="0.48.4 r9939"
   sodipodi:docname="rounding_edges.svg">
  <metadata
     id="metadata3206">
    <rdf:RDF>
      <cc:Work
         rdf:about="">
        <dc:format>image/svg+xml</dc:format>
        <dc:type
           rdf:resource="http://purl.org/dc/dcmitype/StillImage" />
        <dc:title />
      </cc:Work>
    </rdf:RDF>
  </metadata>
  <sodipodi:namedview
     pagecolor="#ffffff"
     bordercolor="#666666"
     borderopacity="1"
     objecttolerance="10"
     gridtolerance="10"
     guidetolerance="10"
     inkscape:pageopacity="0"
     inkscape:pageshadow="2"
     inkscape:window-width="1600"
     inkscape:window-height="838"
     id="namedview3204"
     showgrid="false"
     inkscape:zoom="0.55529412"
     inkscape:cx="597.27792"
     inkscape:cy="323.47941"
     inkscape:window-x="0"
     inkscape:window-y="27"
     inkscape:window-maximized="1"
     inkscape:current-layer="svg_output"
     fit-margin-top="0"
     fit-margin-left="0"
     fit-margin-right="0"
     fit-margin-bottom="0" />
  <defs
     id="defs3181">
    <marker
       id="Triangle"
       viewBox="0 0 10 10"
       refX="10"
       refY="5"
       markerUnits="strokeWidth"
       markerWidth="4"
       markerHeight="3"
       orient="auto">
      <path
         d="M 0,0 L 10,5 L 0,10 z"
         style="fill:#ffff00"
         id="path3184"
         inkscape:connector-curvature="0" />
    </marker>
    <clipPath
       clipPathUnits="userSpaceOnUse"
       id="clipPath3231">
      <rect
         style="fill:#ffffff;fill-opacity:1;stroke:#cccccc;stroke-width:4;stroke-miterlimit:4;stroke-opacity:1;stroke-dasharray:none;stroke-dashoffset:1.19999997"
         id="rect3233"
         width="550.1051"
         height="865.90619"
         x="830.25122"
         y="1032.7429" />
    </clipPath>
    <clipPath
       clipPathUnits="userSpaceOnUse"
       id="clipPath3235">
      <rect
         style="fill:#ffffff;fill-opacity:1;stroke:#cccccc;stroke-width:4;stroke-miterlimit:4;stroke-opacity:1;stroke-dasharray:none;stroke-dashoffset:1.19999997"
         id="rect3237"
         width="550.1051"
         height="865.90619"
         x="830.25122"
         y="1032.7429" />
    </clipPath>
    <clipPath
       clipPathUnits="userSpaceOnUse"
       id="clipPath3239">
      <rect
         style="fill:#ffffff;fill-opacity:1;stroke:#cccccc;stroke-width:4;stroke-miterlimit:4;stroke-opacity:1;stroke-dasharray:none;stroke-dashoffset:1.19999997"
         id="rect3241"
         width="550.1051"
         height="865.90619"
         x="830.25122"
         y="1032.7429" />
    </clipPath>
    <clipPath
       clipPathUnits="userSpaceOnUse"
       id="clipPath3243">
      <rect
         style="fill:#ffffff;fill-opacity:1;stroke:#cccccc;stroke-width:4;stroke-miterlimit:4;stroke-opacity:1;stroke-dasharray:none;stroke-dashoffset:1.19999997"
         id="rect3245"
         width="550.1051"
         height="865.90619"
         x="830.25122"
         y="1032.7429" />
    </clipPath>
    <clipPath
       clipPathUnits="userSpaceOnUse"
       id="clipPath3247">
      <rect
         style="fill:#ffffff;fill-opacity:1;stroke:#cccccc;stroke-width:4;stroke-miterlimit:4;stroke-opacity:1;stroke-dasharray:none;stroke-dashoffset:1.19999997"
         id="rect3249"
         width="550.1051"
         height="865.90619"
         x="830.25122"
         y="1032.7429" />
    </clipPath>
    <clipPath
       clipPathUnits="userSpaceOnUse"
       id="clipPath3251">
      <rect
         style="fill:#ffffff;fill-opacity:1;stroke:#cccccc;stroke-width:4;stroke-miterlimit:4;stroke-opacity:1;stroke-dasharray:none;stroke-dashoffset:1.19999997"
         id="rect3253"
         width="550.1051"
         height="865.90619"
         x="830.25122"
         y="1032.7429" />
    </clipPath>
    <clipPath
       clipPathUnits="userSpaceOnUse"
       id="clipPath3255">
      <rect
         style="fill:#ffffff;fill-opacity:1;stroke:#cccccc;stroke-width:4;stroke-miterlimit:4;stroke-opacity:1;stroke-dasharray:none;stroke-dashoffset:1.19999997"
         id="rect3257"
         width="550.1051"
         height="865.90619"
         x="830.25122"
         y="1032.7429" />
    </clipPath>
    <clipPath
       clipPathUnits="userSpaceOnUse"
       id="clipPath3259">
      <rect
         style="fill:#ffffff;fill-opacity:1;stroke:#cccccc;stroke-width:4;stroke-miterlimit:4;stroke-opacity:1;stroke-dasharray:none;stroke-dashoffset:1.19999997"
         id="rect3261"
         width="550.1051"
         height="865.90619"
         x="830.25122"
         y="1032.7429" />
    </clipPath>
    <clipPath
       clipPathUnits="userSpaceOnUse"
       id="clipPath3263">
      <rect
         style="fill:#ffffff;fill-opacity:1;stroke:#cccccc;stroke-width:4;stroke-miterlimit:4;stroke-opacity:1;stroke-dasharray:none;stroke-dashoffset:1.19999997"
         id="rect3265"
         width="550.1051"
         height="865.90619"
         x="830.25122"
         y="1032.7429" />
    </clipPath>
    <clipPath
       clipPathUnits="userSpaceOnUse"
       id="clipPath3267">
      <rect
         style="fill:#ffffff;fill-opacity:1;stroke:#cccccc;stroke-width:4;stroke-miterlimit:4;stroke-opacity:1;stroke-dasharray:none;stroke-dashoffset:1.19999997"
         id="rect3269"
         width="550.1051"
         height="865.90619"
         x="830.25122"
         y="1032.7429" />
    </clipPath>
  </defs>
  <path
     manually_modified="true"
     style="fill:none;stroke:#000000;stroke-width:4"
     d="M 359.948,50 L 364.256,50.4398 L 368.565,50.8797 L 372.874,51.3195 L 377.182,51.7593 L 381.491,52.1991 L 385.799,52.639 L 390.502,53.1811 L 395.204,53.7232 L 399.906,54.2653 L 404.608,54.8075 L 409.311,55.3496 L 414.013,55.8917 L 418.715,56.4338 L 423.417,56.976 L 428.12,57.5181 L 432.822,58.0602 L 437.524,58.6024 L 442.226,59.1445 L 446.929,59.6866 L 451.631,60.2287 L 456.333,60.7709 L 461.246,61.4281 L 466.16,62.0853 L 471.073,62.7426 L 475.986,63.3998 L 480.899,64.057 L 485.813,64.7142 L 490.726,65.3715 L 495.639,66.0287 L 500.553,66.6859 L 505.466,67.3431 L 510.379,68.0004 L 515.292,68.6576 L 520.206,69.3148 L 525.119,69.972 L 530.032,70.6293 L 534.945,71.2865 L 539.859,71.9437 L 544.772,72.601 L 549.685,73.2582 L 554.599,73.9154 L 559.512,74.5726 L 564.279,75.3288 L 569.047,76.0849 L 573.815,76.841 L 578.582,77.5971 L 583.35,78.3533 L 588.117,79.1094 L 592.885,79.8655 L 597.652,80.6216 L 602.42,81.3778 L 607.188,82.1339 L 611.955,82.89 L 616.723,83.6461 L 621.49,84.4023 L 626.258,85.1584 L 631.025,85.9145 L 635.793,86.6706 L 640.561,87.4268 L 645.328,88.1829 L 650.096,88.939 L 654.863,89.6951 L 659.631,90.4513 L 664.398,91.2074 L 669.166,91.9635 L 673.934,92.7196 L 678.701,93.4758 L 683.469,94.2319 L 688.213,95.1493 L 692.958,96.0668 L 697.702,96.9842 L 702.447,97.9016 L 707.191,98.8191 L 711.936,99.7365 L 716.68,100.654 L 721.425,101.571 L 726.17,102.489 L 730.914,103.406 L 735.659,104.324 L 740.403,105.241 L 745.148,106.159 L 749.892,107.076 L 754.637,107.993 L 759.381,108.911 L 764.126,109.828 L 768.87,110.746 L 773.615,111.663 L 778.359,112.581 L 783.104,113.498 L 787.849,114.416 L 792.593,115.333 L 797.338,116.25 L 802.082,117.168 L 806.827,118.085 L 811.571,119.003 L 816.316,119.92 L 821.121,121.099 L 825.927,122.278 L 830.732,123.457 L 835.538,124.636 L 840.343,125.815 L 845.149,126.994 L 849.954,128.173 L 854.76,129.352 L 859.565,130.531 L 864.371,131.711 L 869.176,132.89 L 873.982,134.069 L 878.787,135.248 L 883.593,136.427 L 888.398,137.606 L 893.204,138.785 L 898.009,139.964 L 902.815,141.143 L 907.62,142.322 L 912.426,143.501 L 917.231,144.68 L 922.037,145.859 L 926.842,147.038 L 931.648,148.217 L 936.453,149.396 L 941.259,150.575 L 946.064,151.754 L 950.638,153.269 L 955.212,154.784 L 959.787,156.299 L 964.361,157.814 L 968.935,159.329 L 973.509,160.844 L 978.083,162.359 L 982.657,163.875 L 987.231,165.39 L 991.805,166.905 L 996.379,168.42 L 1000.95,169.935 L 1005.53,171.45 L 1010.1,172.965 L 1014.68,174.48 L 1019.25,175.995 L 1023.82,177.51 L 1028.4,179.025 L 1032.97,180.54 L 1037.55,182.055 L 1042.12,183.57 L 1046.69,185.086 L 1051.27,186.601 L 1055.84,188.116 L 1060.42,189.631 L 1064.7,191.766 L 1068.98,193.901 L 1073.27,196.036 L 1077.55,198.171 L 1081.83,200.307 L 1086.12,202.442 L 1090.4,204.577 L 1094.69,206.712 L 1098.97,208.847 L 1103.25,210.982 L 1107.54,213.118 L 1111.82,215.253 L 1116.1,217.388 L 1120.39,219.523 L 1124.67,221.658 L 1128.96,223.793 L 1133.24,225.928 L 1137.52,228.064 L 1141.81,230.199 L 1146.09,232.334 L 1149.36,234.721 L 1152.63,237.109 L 1155.9,239.496 L 1159.17,241.884 L 1162.33,245.098 L 1165.5,248.312 L 1168.66,251.526 L 1171.82,254.74 L 1174.99,257.954 L 1178.15,261.168 L 1181.31,264.382 L 1184.48,267.596 L 1187.64,270.81 L 1190.8,274.025 L 1193.34,277.353 L 1195.88,280.682 L 1198.42,284.011 L 1200.05,287.867 L 1201.68,291.724 L 1203.31,295.58 L 1203.92,299.721 L 1204.54,303.861 L 1205.16,308.002 L 1205.26,312.528 L 1205.36,317.053 L 1205.46,321.579 L 1205.55,326.105 L 1205.65,330.631 L 1205.35,334.203 L 1205.04,337.776 L 1204.73,341.348 L 1203.67,344.773 L 1202.6,348.197 L 1201.54,351.621 L 1199.76,354.738 L 1197.99,357.855 L 1196.22,360.973 L 1193.32,365 L 1190.41,369.027 L 1187.51,373.055 L 1184.6,377.082 L 1181.7,381.11 L 1178.79,385.137 L 1175.89,389.165 L 1172.99,393.192 L 1170.08,397.219 L 1167.18,401.247 L 1164.27,405.274 L 1161.38,408.367 L 1158.48,411.459 L 1155.59,414.552 L 1151.8,417.685 L 1148.02,420.818 L 1144.23,423.952 L 1140.44,427.085 L 1136.66,430.218 L 1132.87,433.351 L 1129.08,436.484 L 1125.3,439.618 L 1121.51,442.751 L 1117.72,445.884 L 1113.93,449.017 L 1110.15,452.15 L 1106.36,455.284 L 1102.57,458.417 L 1098.79,461.55 L 1095,464.683 L 1091.21,467.816 L 1087.43,470.95 L 1083.32,473.525 L 1079.21,476.101 L 1075.11,478.676 L 1071,481.252 L 1066.89,483.827 L 1062.79,486.403 L 1058.68,488.978 L 1054.57,491.554 L 1050.47,494.129 L 1046.36,496.705 L 1042.26,499.28 L 1038.15,501.856 L 1034.04,504.431 L 1029.94,507.007 L 1025.83,509.582 L 1021.72,512.158 L 1017.62,514.733 L 1013.51,517.309 L 1009.4,519.884 L 1005.3,522.46 L 1001.19,525.035 L 997.084,527.611 L 992.978,530.186 L 988.871,532.762 L 984.566,534.986 L 980.262,537.209 L 975.957,539.433 L 971.652,541.657 L 967.347,543.88 L 963.043,546.104 L 958.738,548.328 L 954.433,550.551 L 950.128,552.775 L 945.824,554.999 L 941.519,557.222 L 937.214,559.446 L 932.909,561.67 L 928.605,563.894 L 924.3,566.117 L 919.995,568.341 L 915.69,570.565 L 911.386,572.788 L 907.081,575.012 L 902.776,577.236 L 898.471,579.459 L 894.167,581.683 L 889.862,583.907 L 885.557,586.13 L 881.252,588.354 L 876.948,590.578 L 872.44,592.607 L 867.933,594.636 L 863.425,596.665 L 858.918,598.694 L 854.41,600.723 L 849.902,602.752 L 845.395,604.781 L 840.887,606.811 L 836.38,608.84 L 831.872,610.869 L 827.365,612.898 L 822.857,614.927 L 818.35,616.956 L 813.842,618.985 L 809.335,621.014 L 804.827,623.043 L 800.32,625.072 L 795.812,627.102 L 791.305,629.131 L 786.797,631.16 L 782.29,633.189 L 777.782,635.218 L 773.275,637.247 L 768.767,639.276 L 764.26,641.305 L 759.752,643.334 L 755.18,645.189 L 750.607,647.044 L 746.034,648.899 L 741.462,650.754 L 736.889,652.609 L 732.317,654.464 L 727.744,656.319 L 723.172,658.174 L 718.599,660.029 L 714.026,661.884 L 709.454,663.738 L 704.881,665.593 L 700.309,667.448 L 695.736,669.303 L 691.164,671.158 L 686.591,673.013 L 682.018,674.868 L 677.446,676.723 L 672.873,678.578 L 668.301,680.433 L 663.728,682.288 L 659.155,684.142 L 654.583,685.997 L 650.01,687.852 L 645.438,689.707 L 640.949,691.385 L 636.46,693.062 L 631.972,694.74 L 627.483,696.417 L 622.994,698.095 L 618.506,699.772 L 614.017,701.45 L 609.528,703.127 L 605.04,704.805 L 600.551,706.482 L 596.062,708.16 L 591.574,709.837 L 587.085,711.515 L 582.596,713.192 L 578.108,714.87 L 573.619,716.548 L 569.13,718.225 L 564.642,719.903 L 560.153,721.58 L 555.664,723.258 L 551.176,724.935 L 546.687,726.613 L 542.198,728.29 L 537.535,729.921 L 532.871,731.552 L 528.207,733.183 L 523.543,734.814 L 518.879,736.446 L 514.215,738.077 L 509.552,739.708 L 504.888,741.339 L 500.224,742.97 L 495.56,744.601 L 490.896,746.232 L 486.232,747.863 L 481.569,749.494 L 476.905,751.125 L 472.241,752.756 L 467.577,754.387 L 462.913,756.018 L 458.249,757.649 L 453.545,759.207 L 448.841,760.765 L 444.137,762.323 L 439.433,763.881 L 434.729,765.439 L 430.025,766.997 L 425.321,768.555 L 420.617,770.113 L 415.912,771.671 L 411.208,773.229 L 406.504,774.787 L 401.8,776.344 L 397.618,777.672 L 393.436,779 L 389.254,780.328 L 385.072,781.656 L 380.89,782.984"
     id="path3186"
     clip-path="url(#clipPath3267)"
     inkscape:connector-curvature="0"
     transform="translate(-830.25122,-1032.7429)" />
  <path
     style="fill:none;stroke:#ff0000;stroke-width:0.5"
     d="M 380.89,782.984 L 376.122,784.449 L 371.354,785.914 L 366.585,787.379 L 361.817,788.844 L 357.049,790.309 L 352.281,791.774 L 347.512,793.239 L 342.744,794.704 L 337.976,796.169 L 333.208,797.634 L 328.439,799.099 L 323.671,800.564 L 318.903,802.029 L 314.135,803.493 L 309.366,804.958 L 304.598,806.423 L 299.83,807.888 L 295.062,809.353 L 290.293,810.818 L 285.525,812.283 L 280.757,813.748 L 275.989,815.213 L 271.22,816.678 L 266.452,818.143 L 262.95,818.113 L 259.448,818.083 L 255.946,818.054 L 252.527,817.293 L 249.109,816.532 L 245.69,815.771 L 242.506,814.313 L 239.322,812.854 L 236.138,811.396 L 233.329,809.304 L 230.52,807.212 L 227.711,805.121 L 225.401,802.488 L 223.091,799.856 L 220.781,797.223 L 219.072,794.166 L 217.364,791.109 L 215.655,788.052 L 214.622,784.705 L 213.59,781.359 L 212.558,778.012 L 212.248,774.524 L 211.938,771.035 L 211.628,767.547 L 212.054,764.07 L 212.479,760.594 L 212.905,757.118 L 214.048,753.807 L 215.191,750.497 L 216.333,747.186 L 218.143,744.188 L 219.952,741.189 L 221.761,738.19 L 224.158,735.636 L 226.554,733.082 L 228.95,730.527 L 231.827,728.53 L 234.703,726.533 L 237.58,724.536 L 240.811,723.184 L 244.042,721.832 L 247.273,720.48 L 250.715,719.833 L 254.157,719.186 L 257.599,718.539 L 261.1,718.626 L 264.601,718.712 L 268.102,718.799 L 271.508,719.615 L 274.913,720.431 L 278.319,721.248 L 281.479,722.758 L 284.639,724.268 L 287.799,725.778 L 292.031,728.378 L 296.262,730.978 L 300.493,733.579 L 304.725,736.179 L 308.956,738.779 L 313.188,741.379 L 317.419,743.98 L 321.65,746.58 L 325.882,749.18 L 330.113,751.781 L 334.345,754.381 L 338.576,756.981 L 342.807,759.582 L 347.039,762.182 L 351.27,764.782 L 355.502,767.382 L 359.733,769.983 L 363.964,772.583 L 368.196,775.183 L 372.427,777.784 L 376.659,780.384 L 380.89,782.984"
     id="path3188"
     clip-path="url(#clipPath3263)"
     inkscape:connector-curvature="0"
     transform="translate(-830.25122,-1032.7429)" />
  <path
     style="fill:none;stroke:#cccccc;stroke-width:4;stroke-linecap:butt;stroke-linejoin:miter;stroke-opacity:1"
     d="M 1133.4084,1300.2119 L 1130.9322,1243.9354 L 1067.5095,1204.5473"
     id="path3208"
     inkscape:connector-curvature="0"
     sodipodi:nodetypes="ccc"
     clip-path="url(#clipPath3259)"
     transform="translate(-830.25122,-1032.7429)" />
  <path
     style="fill:none;stroke:#000000;stroke-width:4"
     d="M 380.89,782.984 L 385.143,785.598 L 389.397,788.212 L 393.65,790.826 L 397.904,793.44 L 402.157,796.053 L 406.411,798.667 L 410.664,801.281 L 414.917,803.895 L 419.171,806.509 L 423.424,809.123 L 427.678,811.737 L 431.931,814.35 L 436.185,816.964 L 440.438,819.578 L 444.691,822.192 L 448.945,824.806 L 453.198,827.42 L 457.452,830.033 L 461.705,832.647 L 465.959,835.261 L 470.212,837.875 L 474.465,840.489 L 478.719,843.103 L 482.972,845.716 L 487.226,848.33 L 491.479,850.944 L 495.733,853.558 L 499.986,856.172 L 504.24,858.786 L 508.493,861.399 L 512.746,864.013 L 517,866.627 L 521.253,869.241 L 525.507,871.855 L 529.76,874.469 L 534.014,877.082 L 538.267,879.696 L 542.52,882.31 L 546.774,884.924 L 551.027,887.538 L 555.281,890.152 L 559.534,892.766 L 563.788,895.379 L 568.041,897.993 L 572.294,900.607 L 576.548,903.221 L 580.801,905.835 L 585.055,908.449 L 589.308,911.062 L 593.562,913.676 L 597.815,916.29 L 602.068,918.904 L 606.322,921.518 L 610.575,924.132 L 614.829,926.745 L 619.082,929.359 L 623.336,931.973 L 627.589,934.587 L 631.842,937.201 L 636.096,939.815 L 640.349,942.428 L 644.603,945.042 L 648.856,947.656 L 653.11,950.27 L 657.363,952.884 L 661.616,955.498 L 665.87,958.111 L 670.123,960.725 L 674.377,963.339 L 678.63,965.953 L 682.884,968.567 L 687.137,971.181 L 691.39,973.795 L 695.644,976.408 L 699.897,979.022 L 704.151,981.636 L 708.404,984.25 L 712.658,986.864 L 716.911,989.478 L 721.164,992.091 L 725.418,994.705 L 729.671,997.319 L 733.925,999.933 L 738.178,1002.55 L 742.432,1005.16 L 746.685,1007.77 L 750.938,1010.39 L 755.192,1013 L 759.445,1015.62 L 763.699,1018.23 L 767.952,1020.84 L 772.206,1023.46 L 776.459,1026.07 L 780.712,1028.69 L 784.966,1031.3 L 789.219,1033.91 L 793.473,1036.53 L 797.726,1039.14 L 801.98,1041.75 L 806.233,1044.37 L 810.486,1046.98 L 814.74,1049.6 L 818.993,1052.21 L 823.247,1054.82 L 827.5,1057.44 L 831.754,1060.05 L 836.007,1062.67 L 840.26,1065.28 L 844.514,1067.89 L 848.767,1070.51 L 853.021,1073.12 L 857.274,1075.73 L 861.528,1078.35 L 865.781,1080.96 L 870.034,1083.58 L 874.288,1086.19 L 878.541,1088.8 L 882.795,1091.42 L 887.048,1094.03 L 891.302,1096.64 L 895.555,1099.26 L 899.808,1101.87 L 904.062,1104.49 L 908.315,1107.1 L 912.569,1109.71 L 916.822,1112.33 L 921.076,1114.94 L 925.329,1117.56 L 929.582,1120.17 L 933.836,1122.78 L 938.089,1125.4 L 942.343,1128.01 L 946.596,1130.62 L 950.85,1133.24 L 955.103,1135.85 L 959.356,1138.47 L 963.61,1141.08 L 967.863,1143.69 L 972.117,1146.31 L 976.37,1148.92 L 980.624,1151.54 L 984.877,1154.15 L 989.13,1156.76 L 993.384,1159.38 L 997.637,1161.99 L 1001.89,1164.6 L 1006.14,1167.22 L 1010.4,1169.83 L 1014.65,1172.45 L 1018.9,1175.06 L 1023.16,1177.67 L 1027.41,1180.29 L 1031.66,1182.9 L 1035.92,1185.52 L 1040.17,1188.13 L 1044.42,1190.74 L 1048.68,1193.36 L 1052.93,1195.97 L 1057.19,1198.58 L 1061.44,1201.2 L 1065.69,1203.81 L 1069.95,1206.43 L 1074.2,1209.04 L 1078.45,1211.65 L 1082.71,1214.27 L 1086.96,1216.88 L 1091.21,1219.5 L 1095.47,1222.11 L 1099.72,1224.72 L 1103.97,1227.34 L 1108.23,1229.95 L 1111.38,1232.46 L 1114.53,1234.96 L 1117.67,1237.47 L 1120.13,1240.66 L 1122.59,1243.84 L 1125.05,1247.03 L 1126.67,1250.71 L 1128.29,1254.4 L 1129.91,1258.08 L 1130.6,1262.05 L 1131.29,1266.01 L 1131.98,1269.98 L 1132.24,1274.91 L 1132.49,1279.85 L 1132.75,1284.78 L 1133,1289.72 L 1133.25,1294.65 L 1133.51,1299.59 L 1133.76,1304.52 L 1134.02,1309.46 L 1134.27,1314.39 L 1134.53,1319.33 L 1134.78,1324.27 L 1135.03,1329.2 L 1135.29,1334.14 L 1135.54,1339.07 L 1135.8,1344.01 L 1136.05,1348.94 L 1136.31,1353.88 L 1136.56,1358.81 L 1136.82,1363.75 L 1137.07,1368.68 L 1137.32,1373.62 L 1137.58,1378.55 L 1137.83,1383.49 L 1138.09,1388.43 L 1138.34,1393.36 L 1138.6,1398.3 L 1138.85,1403.23 L 1139.11,1408.17 L 1139.36,1413.1 L 1139.61,1418.04 L 1139.87,1422.97 L 1140.12,1427.91 L 1140.38,1432.84 L 1140.63,1437.78 L 1140.89,1442.71 L 1141.14,1447.65 L 1141.39,1452.58 L 1141.65,1457.52 L 1141.9,1462.46 L 1142.16,1467.39 L 1142.41,1472.33 L 1142.67,1477.26 L 1142.92,1482.2 L 1143.18,1487.13 L 1143.43,1492.07 L 1143.68,1497 L 1143.94,1501.94 L 1144.19,1506.87 L 1144.45,1511.81 L 1144.7,1516.74 L 1144.96,1521.68 L 1145.21,1526.62 L 1145.47,1531.55 L 1145.72,1536.49 L 1145.97,1541.42 L 1146.23,1546.36 L 1146.48,1551.29 L 1146.74,1556.23 L 1146.99,1561.16 L 1147.25,1566.1 L 1147.5,1571.03 L 1147.75,1575.97 L 1148.01,1580.9 L 1148.26,1585.84 L 1148.52,1590.78 L 1148.77,1595.71 L 1149.03,1600.65 L 1149.28,1605.58 L 1149.54,1610.52 L 1149.79,1615.45 L 1150.04,1620.39 L 1150.3,1625.32 L 1150.55,1630.26 L 1150.81,1635.19 L 1151.06,1640.13 L 1151.32,1645.06 L 1151.57,1650"
     id="path3190"
     clip-path="url(#clipPath3255)"
     inkscape:connector-curvature="0"
     transform="translate(-830.25122,-1032.7429)" />
  <path
     style="fill:none;stroke:#ff0000;stroke-width:4"
     d="M 1151.57,1650 L 1151.82,1654.87 L 1152.07,1659.73 L 1152.32,1664.6 L 1152.57,1669.46 L 1152.82,1674.33 L 1153.08,1679.2 L 1153.33,1684.06 L 1153.58,1688.93 L 1153.83,1693.8 L 1154.08,1698.66 L 1154.33,1703.53 L 1154.58,1708.39 L 1154.83,1713.26 L 1155.08,1718.13 L 1155.84,1723.07 L 1156.59,1728.01 L 1158.32,1732.7 L 1160.04,1737.4 L 1162.66,1741.65 L 1165.28,1745.91 L 1168.7,1749.56 L 1172.12,1753.21 L 1176.19,1756.1 L 1180.27,1759 L 1184.84,1761.03 L 1189.41,1763.05 L 1194.29,1764.13 L 1199.17,1765.21 L 1204.17,1765.29 L 1209.17,1765.38 L 1214.08,1764.47 L 1219,1763.56 L 1223.63,1761.69 L 1228.27,1759.82 L 1232.44,1757.06 L 1236.61,1754.3 L 1240.15,1750.77 L 1243.69,1747.24 L 1246.46,1743.08 L 1249.22,1738.92 L 1251.1,1734.28 L 1252.99,1729.65 L 1253.91,1724.74 L 1254.83,1719.83 L 1254.76,1714.83 L 1254.69,1709.83 L 1253.62,1704.95 L 1252.56,1700.06 L 1250.54,1695.49 L 1248.52,1690.91 L 1245.64,1686.83 L 1242.75,1682.75 L 1239.11,1679.32 L 1235.47,1675.9 L 1231.22,1673.26 L 1226.97,1670.63 L 1222.26,1669.34 L 1217.55,1668.05 L 1212.83,1666.76 L 1208.12,1665.47 L 1203.41,1664.18 L 1198.7,1662.89 L 1193.98,1661.6 L 1189.27,1660.32 L 1184.56,1659.03 L 1179.85,1657.74 L 1175.13,1656.45 L 1170.42,1655.16 L 1165.71,1653.87 L 1161,1652.58 L 1156.28,1651.29 L 1151.57,1650"
     id="path3192"
     clip-path="url(#clipPath3251)"
     inkscape:connector-curvature="0"
     transform="translate(-830.25122,-1032.7429)" />
  <path
     style="fill:none;stroke:#000000;stroke-width:4"
     d="M 1151.57,1650 L 1146.74,1648.75 L 1141.92,1647.49 L 1137.09,1646.24 L 1132.27,1644.98 L 1127.44,1643.73 L 1122.61,1642.47 L 1117.79,1641.22 L 1112.96,1639.96 L 1108.13,1638.71 L 1103.31,1637.46 L 1098.48,1636.2 L 1093.65,1634.95 L 1088.83,1633.69 L 1084,1632.44 L 1079.18,1631.18 L 1074.35,1629.93 L 1069.52,1628.67 L 1064.7,1627.42 L 1059.87,1626.17 L 1055.04,1624.91 L 1050.22,1623.66 L 1045.39,1622.4 L 1040.57,1621.15 L 1035.74,1619.89 L 1030.91,1618.64 L 1026.09,1617.39 L 1021.26,1616.13 L 1016.43,1614.88 L 1011.61,1613.62 L 1006.78,1612.37 L 1001.95,1611.11 L 997.128,1609.86 L 992.302,1608.6 L 987.476,1607.35 L 982.649,1606.1 L 977.823,1604.84 L 972.997,1603.59 L 968.171,1602.33 L 963.344,1601.08 L 958.518,1599.82 L 953.692,1598.57 L 948.865,1597.31 L 944.039,1596.06 L 939.213,1594.81 L 934.386,1593.55 L 929.56,1592.3 L 924.734,1591.04 L 919.907,1589.79 L 915.081,1588.53 L 910.255,1587.28 L 905.428,1586.02 L 900.602,1584.77 L 895.776,1583.52 L 890.949,1582.26 L 886.123,1581.01 L 881.297,1579.75 L 876.47,1578.5 L 871.644,1577.24 L 866.818,1575.99 L 861.991,1574.73 L 857.165,1573.48 L 852.339,1572.23 L 847.512,1570.97 L 842.686,1569.72 L 837.86,1568.46 L 833.034,1567.21 L 828.207,1565.95 L 823.381,1564.7 L 818.555,1563.45 L 813.728,1562.19 L 808.902,1560.94 L 804.076,1559.68 L 799.249,1558.43 L 794.423,1557.17 L 789.597,1555.92 L 784.77,1554.66 L 779.944,1553.41 L 775.118,1552.16 L 770.291,1550.9 L 765.465,1549.65 L 760.639,1548.39 L 755.812,1547.14 L 750.986,1545.88 L 746.16,1544.63 L 741.333,1543.37 L 736.507,1542.12 L 731.681,1540.87 L 726.854,1539.61 L 722.028,1538.36 L 717.202,1537.1 L 712.375,1535.85 L 707.549,1534.59 L 702.723,1533.34 L 697.896,1532.08 L 693.07,1530.83 L 688.244,1529.58 L 683.418,1528.32 L 678.591,1527.07 L 673.765,1525.81 L 668.939,1524.56 L 664.112,1523.3 L 659.286,1522.05 L 654.46,1520.79 L 649.633,1519.54 L 644.807,1518.29 L 639.981,1517.03 L 635.154,1515.78 L 630.328,1514.52 L 625.502,1513.27 L 620.675,1512.01 L 615.849,1510.76 L 611.023,1509.51 L 606.196,1508.25 L 601.37,1507 L 596.544,1505.74 L 591.717,1504.49 L 586.891,1503.23 L 582.065,1501.98 L 577.238,1500.72 L 572.412,1499.47 L 567.586,1498.22 L 562.759,1496.96 L 557.933,1495.71 L 553.107,1494.45 L 548.281,1493.2 L 543.454,1491.94 L 538.628,1490.69 L 533.802,1489.43 L 528.975,1488.18 L 524.149,1486.93 L 519.323,1485.67 L 514.496,1484.42 L 509.67,1483.16 L 504.844,1481.91 L 500.017,1480.65 L 495.191,1479.4 L 490.365,1478.14 L 485.538,1476.89 L 480.712,1475.64 L 475.886,1474.38 L 471.059,1473.13 L 466.233,1471.87 L 461.407,1470.62 L 456.58,1469.36 L 451.754,1468.11 L 446.928,1466.85 L 442.101,1465.6 L 437.275,1464.35 L 432.449,1463.09 L 427.622,1461.84 L 422.796,1460.58 L 417.97,1459.33 L 413.143,1458.07 L 408.317,1456.82 L 403.491,1455.57 L 398.665,1454.31 L 393.838,1453.06 L 389.012,1451.8 L 384.186,1450.55 L 379.359,1449.29 L 374.533,1448.04 L 369.707,1446.78 L 364.88,1445.53 L 360.054,1444.28 L 355.228,1443.02 L 350.401,1441.77 L 345.575,1440.51 L 340.749,1439.26 L 335.922,1438 L 331.096,1436.75 L 326.27,1435.49 L 321.443,1434.24 L 316.617,1432.99 L 311.791,1431.73 L 306.964,1430.48 L 302.138,1429.22 L 297.312,1427.97 L 292.485,1426.71 L 287.659,1425.46 L 282.833,1424.2 L 278.006,1422.95 L 273.18,1421.7 L 268.354,1420.44 L 263.528,1419.19 L 258.701,1417.93 L 253.875,1416.68 L 249.049,1415.42 L 244.222,1414.17 L 239.396,1412.91 L 234.57,1411.66 L 229.743,1410.41 L 224.917,1409.15 L 220.091,1407.9 L 215.264,1406.64 L 210.438,1405.39 L 205.612,1404.13 L 200.785,1402.88"
     id="path3194"
     clip-path="url(#clipPath3247)"
     inkscape:connector-curvature="0"
     transform="translate(-830.25122,-1032.7429)" />
  <path
     style="fill:none;stroke:#ff0000;stroke-width:0.5"
     d="M 200.785,1402.88 L 195.961,1401.63 L 191.137,1400.37 L 186.312,1399.12 L 181.488,1397.86 L 176.664,1396.61 L 171.84,1395.36 L 167.015,1394.1 L 162.191,1392.85 L 157.367,1391.59 L 152.542,1390.34 L 147.718,1389.09 L 142.894,1387.83 L 138.069,1386.58 L 133.245,1385.33 L 128.421,1384.07 L 123.597,1382.82 L 118.772,1381.56 L 113.948,1380.31 L 109.124,1379.06 L 104.299,1377.8 L 99.475,1376.55 L 94.6507,1375.29 L 89.8264,1374.04 L 85.0021,1372.79 L 80.1778,1371.53 L 75.3535,1370.28 L 70.5292,1369.02 L 65.7049,1367.77 L 60.8806,1366.52 L 56.0563,1365.26 L 51.232,1364.01 L 46.4077,1362.76 L 41.5834,1361.5 L 36.7591,1360.25 L 31.9348,1358.99 L 27.1105,1357.74 L 22.2862,1356.49 L 17.4619,1355.23 L 12.6376,1353.98 L 7.81333,1352.72 L 2.98903,1351.47 L -0.31908,1350.96 L -3.62719,1350.45 L -6.9353,1349.93 L -10.2791,1350.09 L -13.6229,1350.25 L -16.9667,1350.41 L -20.2113,1351.23 L -23.4558,1352.06 L -26.7004,1352.88 L -29.7149,1354.34 L -32.7293,1355.79 L -35.7438,1357.25 L -38.4066,1359.28 L -41.0693,1361.31 L -43.7321,1363.34 L -45.9357,1365.86 L -48.1393,1368.38 L -50.3429,1370.9 L -51.9984,1373.8 L -53.654,1376.71 L -55.3096,1379.62 L -56.3503,1382.81 L -57.391,1385.99 L -58.4318,1389.17 L -58.8157,1392.49 L -59.1996,1395.82 L -59.5835,1399.15 L -59.2951,1402.48 L -59.0068,1405.82 L -58.7184,1409.15 L -57.7693,1412.36 L -56.8203,1415.57 L -55.8712,1418.78 L -54.2998,1421.74 L -52.7283,1424.69 L -51.1569,1427.65 L -49.0265,1430.23 L -46.896,1432.81 L -44.7656,1435.39 L -42.1621,1437.5 L -39.5587,1439.6 L -36.9552,1441.71 L -33.9837,1443.25 L -31.0123,1444.79 L -28.0408,1446.33 L -24.8212,1447.25 L -21.6016,1448.17 L -18.382,1449.08 L -15.0441,1449.34 L -11.7062,1449.59 L -8.36838,1449.85 L -3.50434,1448.75 L 1.3597,1447.66 L 6.22374,1446.57 L 11.0878,1445.48 L 15.9518,1444.39 L 20.8159,1443.29 L 25.6799,1442.2 L 30.5439,1441.11 L 35.408,1440.02 L 40.272,1438.92 L 45.1361,1437.83 L 50.0001,1436.74 L 54.8641,1435.65 L 59.7282,1434.56 L 64.5922,1433.46 L 69.4563,1432.37 L 74.3203,1431.28 L 79.1843,1430.19 L 84.0484,1429.09 L 88.9124,1428 L 93.7765,1426.91 L 98.6405,1425.82 L 103.505,1424.73 L 108.369,1423.63 L 113.233,1422.54 L 118.097,1421.45 L 122.961,1420.36 L 127.825,1419.26 L 132.689,1418.17 L 137.553,1417.08 L 142.417,1415.99 L 147.281,1414.89 L 152.145,1413.8 L 157.009,1412.71 L 161.873,1411.62 L 166.737,1410.53 L 171.601,1409.43 L 176.465,1408.34 L 181.329,1407.25 L 186.193,1406.16 L 191.057,1405.06 L 195.921,1403.97 L 200.785,1402.88"
     id="path3196"
     clip-path="url(#clipPath3243)"
     inkscape:connector-curvature="0"
     transform="translate(-830.25122,-1032.7429)" />
  <path
     style="fill:none;stroke:#000000;stroke-width:4"
     d="M 200.785,1402.88 L 205.606,1401.77 L 210.427,1400.67 L 215.247,1399.56 L 220.068,1398.45 L 224.889,1397.35 L 229.71,1396.24 L 234.53,1395.13 L 239.351,1394.03 L 244.172,1392.92 L 248.992,1391.82 L 253.813,1390.71 L 258.634,1389.6 L 263.455,1388.5 L 268.275,1387.39 L 273.096,1386.28 L 277.917,1385.18 L 282.737,1384.07 L 287.558,1382.96 L 292.379,1381.86 L 297.199,1380.75 L 302.02,1379.65 L 306.841,1378.54 L 311.662,1377.43 L 316.482,1376.33 L 321.303,1375.22 L 326.124,1374.11 L 330.944,1373.01 L 335.765,1371.9 L 340.586,1370.79 L 345.407,1369.69 L 350.227,1368.58 L 355.048,1367.48 L 359.869,1366.37 L 364.689,1365.26 L 369.51,1364.16 L 374.331,1363.05 L 379.151,1361.94 L 383.972,1360.84 L 388.793,1359.73 L 393.614,1358.62 L 398.434,1357.52 L 403.255,1356.41 L 408.076,1355.3 L 412.896,1354.2 L 417.717,1353.09 L 422.538,1351.99 L 427.359,1350.88 L 432.179,1349.77 L 437,1348.67 L 441.821,1347.56 L 446.641,1346.45 L 451.462,1345.35 L 456.283,1344.24"
     id="path3198"
     clip-path="url(#clipPath3239)"
     inkscape:connector-curvature="0"
     transform="translate(-830.25122,-1032.7429)" />
  <path
     style="fill:none;stroke:#ff0000;stroke-width:0.5"
     d="M 456.283,1344.24 L 460.991,1343.21 L 465.698,1342.18 L 470.406,1341.16 L 475.114,1340.13 L 479.822,1339.1 L 484.53,1338.07 L 489.238,1337.04 L 493.946,1336.02 L 498.653,1334.99 L 503.361,1333.96 L 508.069,1332.93 L 512.777,1331.9 L 517.485,1330.87 L 522.193,1329.85 L 526.9,1328.82 L 531.608,1327.79 L 536.316,1326.76 L 541.024,1325.73 L 545.732,1324.71 L 550.44,1323.68 L 555.148,1322.65 L 558.585,1322.94 L 562.022,1323.24 L 565.46,1323.53 L 568.763,1324.53 L 572.066,1325.52 L 575.369,1326.52 L 578.396,1328.18 L 581.424,1329.83 L 584.451,1331.48 L 587.073,1333.73 L 589.695,1335.97 L 592.316,1338.21 L 594.42,1340.95 L 596.524,1343.68 L 598.628,1346.41 L 600.124,1349.52 L 601.62,1352.63 L 603.116,1355.74 L 603.94,1359.09 L 604.764,1362.44 L 605.588,1365.79 L 605.704,1369.24 L 605.82,1372.69 L 605.937,1376.14 L 605.341,1379.53 L 604.745,1382.93 L 604.149,1386.33 L 602.866,1389.53 L 601.583,1392.73 L 600.3,1395.94 L 598.385,1398.81 L 596.471,1401.68 L 594.556,1404.55 L 592.091,1406.96 L 589.627,1409.38 L 587.162,1411.79 L 584.253,1413.64 L 581.345,1415.5 L 578.436,1417.35 L 575.207,1418.57 L 571.979,1419.79 L 568.75,1421 L 565.341,1421.53 L 561.931,1422.06 L 558.521,1422.58 L 555.076,1422.39 L 551.631,1422.21 L 548.187,1422.02 L 544.854,1421.12 L 541.522,1420.23 L 538.189,1419.34 L 535.112,1417.78 L 532.035,1416.22 L 528.958,1414.66 L 526.268,1412.5 L 523.577,1410.34 L 520.887,1408.18 L 517.487,1404.81 L 514.087,1401.45 L 510.687,1398.08 L 507.286,1394.72 L 503.886,1391.35 L 500.486,1387.99 L 497.086,1384.62 L 493.685,1381.26 L 490.285,1377.89 L 486.885,1374.53 L 483.485,1371.16 L 480.084,1367.8 L 476.684,1364.43 L 473.284,1361.07 L 469.884,1357.7 L 466.483,1354.34 L 463.083,1350.97 L 459.683,1347.61 L 456.283,1344.24"
     id="path3200"
     clip-path="url(#clipPath3235)"
     inkscape:connector-curvature="0"
     transform="translate(-830.25122,-1032.7429)" />
  <path
     style="fill:none;stroke:#000000;stroke-width:4"
     d="M 456.283,1344.24 L 452.761,1340.76 L 449.239,1337.27 L 445.717,1333.78 L 442.195,1330.3 L 438.674,1326.81 L 435.152,1323.33 L 431.63,1319.84 L 428.108,1316.36 L 424.586,1312.87 L 421.064,1309.39 L 417.543,1305.9 L 414.021,1302.41 L 410.499,1298.93 L 406.977,1295.44 L 403.455,1291.96 L 399.933,1288.47 L 396.412,1284.99 L 392.89,1281.5 L 389.368,1278.02 L 385.846,1274.53 L 382.324,1271.04 L 378.802,1267.56 L 375.281,1264.07 L 371.759,1260.59 L 368.237,1257.1 L 364.715,1253.62 L 361.193,1250.13 L 357.672,1246.65 L 354.15,1243.16 L 350.628,1239.68 L 347.106,1236.19 L 343.584,1232.7 L 340.062,1229.22 L 336.541,1225.73 L 333.019,1222.25 L 329.497,1218.76 L 325.975,1215.28 L 322.453,1211.79 L 318.931,1208.31 L 315.41,1204.82 L 311.888,1201.33 L 308.366,1197.85 L 304.844,1194.36 L 301.322,1190.88 L 297.8,1187.39 L 294.279,1183.91 L 290.757,1180.42 L 287.235,1176.94 L 283.713,1173.45 L 280.191,1169.96 L 276.669,1166.48 L 273.148,1162.99 L 269.626,1159.51 L 266.104,1156.02 L 262.582,1152.54 L 259.06,1149.05 L 255.538,1145.57 L 252.017,1142.08 L 248.495,1138.6 L 244.973,1135.11 L 241.451,1131.62 L 237.929,1128.14 L 234.407,1124.65 L 230.886,1121.17 L 227.364,1117.68 L 223.842,1114.2 L 220.32,1110.71 L 216.798,1107.23 L 213.277,1103.74 L 209.755,1100.25 L 206.233,1096.77 L 202.711,1093.28 L 199.189,1089.8 L 195.667,1086.31 L 192.146,1082.83 L 188.624,1079.34 L 185.102,1075.86 L 181.58,1072.37 L 178.058,1068.88 L 174.536,1065.4 L 171.015,1061.91 L 167.493,1058.43 L 163.971,1054.94 L 160.449,1051.46 L 156.927,1047.97 L 153.405,1044.49 L 149.884,1041 L 146.362,1037.51 L 142.84,1034.03 L 139.318,1030.54 L 135.796,1027.06 L 132.274,1023.57 L 128.753,1020.09 L 125.231,1016.6 L 121.709,1013.12 L 118.187,1009.63 L 114.665,1006.15 L 111.143,1002.66 L 107.622,999.174 L 104.1,995.689 L 100.578,992.203 L 97.0561,988.718 L 93.5343,985.232 L 90.0125,981.747 L 86.4906,978.261 L 82.9688,974.775 L 79.447,971.29 L 75.9252,967.804 L 72.4033,964.319 L 70.056,961.405 L 67.7087,958.491 L 65.3614,955.577 L 63.7233,952.212 L 62.0853,948.848 L 60.4473,945.483 L 59.6011,941.838 L 58.7549,938.193 L 57.9088,934.548 L 57.8971,930.806 L 57.8855,927.065 L 57.8738,923.323 L 58.6973,919.672 L 59.5207,916.022 L 60.3442,912.372 L 61.9814,907.66 L 63.6185,902.947 L 65.2557,898.235 L 66.8929,893.522 L 68.5301,888.81 L 70.1673,884.098 L 71.8044,879.385 L 73.4416,874.673 L 75.0788,869.96 L 76.716,865.248 L 78.3531,860.535 L 79.9903,855.823 L 81.6275,851.111 L 83.2647,846.398 L 84.9019,841.686 L 86.539,836.973 L 88.1762,832.261 L 89.8134,827.549 L 91.4506,822.836 L 93.0877,818.124 L 94.7249,813.411 L 96.3621,808.699 L 97.9993,803.986 L 99.6364,799.274 L 101.274,794.562 L 102.911,789.849 L 104.548,785.137 L 106.185,780.424 L 107.822,775.712 L 109.46,771 L 111.097,766.287 L 112.734,761.575 L 114.371,756.862 L 116.008,752.15 L 117.645,747.437 L 119.283,742.725 L 120.92,738.013 L 122.557,733.3 L 124.194,728.588 L 125.831,723.875 L 127.468,719.163 L 129.106,714.451 L 130.743,709.738 L 132.38,705.026 L 134.017,700.313 L 135.654,695.601 L 137.292,690.889 L 138.929,686.176 L 140.566,681.464 L 142.203,676.751 L 143.84,672.039 L 145.477,667.326 L 147.115,662.614 L 148.752,657.902 L 150.389,653.189 L 152.026,648.477 L 153.663,643.764 L 155.3,639.052 L 156.938,634.34 L 158.575,629.627 L 160.212,624.915 L 161.849,620.202 L 163.486,615.49 L 165.124,610.777 L 166.761,606.065 L 168.398,601.353 L 170.035,596.64 L 171.672,591.928 L 173.309,587.215 L 174.947,582.503 L 176.584,577.791 L 178.221,573.078 L 179.858,568.366 L 181.495,563.653 L 183.132,558.941 L 184.77,554.228 L 186.407,549.516 L 188.044,544.804 L 189.681,540.091 L 191.318,535.379 L 192.956,530.666 L 194.593,525.954 L 196.23,521.242 L 197.867,516.529 L 199.504,511.817 L 201.141,507.104 L 202.779,502.392 L 204.416,497.679 L 206.053,492.967 L 207.69,488.255 L 209.327,483.542 L 210.965,478.83 L 212.602,474.117 L 214.239,469.405 L 215.876,464.693 L 217.513,459.98 L 219.15,455.268 L 220.788,450.555 L 222.425,445.843 L 224.062,441.13 L 225.699,436.418 L 227.336,431.706 L 228.973,426.993 L 230.611,422.281 L 232.248,417.568 L 233.885,412.856 L 235.522,408.144 L 237.159,403.431 L 238.797,398.719 L 240.434,394.006 L 242.071,389.294 L 243.708,384.582 L 245.345,379.869 L 246.982,375.157 L 248.62,370.444 L 250.257,365.732 L 251.894,361.019 L 253.531,356.307 L 255.168,351.595 L 256.805,346.882 L 258.443,342.17 L 260.08,337.457 L 261.717,332.745 L 263.354,328.033 L 264.991,323.32 L 266.629,318.608 L 268.266,313.895 L 269.903,309.183 L 271.54,304.47 L 273.177,299.758 L 274.814,295.046 L 276.452,290.333 L 278.089,285.621 L 279.726,280.908 L 281.363,276.196 L 283,271.484 L 284.637,266.771 L 286.275,262.059 L 287.912,257.346 L 289.549,252.634 L 291.186,247.921 L 292.823,243.209 L 294.461,238.497 L 296.098,233.784 L 297.735,229.072 L 299.372,224.359 L 301.009,219.647 L 302.646,214.935 L 304.284,210.222 L 305.921,205.51 L 307.558,200.797 L 309.195,196.085 L 310.832,191.372 L 312.469,186.66 L 314.107,181.948 L 315.744,177.235 L 317.381,172.523 L 319.018,167.81 L 320.655,163.098 L 322.293,158.386 L 323.93,153.673 L 325.567,148.961 L 327.204,144.248 L 328.841,139.536 L 330.478,134.823 L 332.116,130.111 L 333.753,125.399 L 335.39,120.686 L 337.027,115.974 L 338.664,111.261 L 340.302,106.549 L 341.939,101.837 L 343.576,97.1242 L 345.213,92.4117 L 346.85,87.6993 L 348.487,82.9869 L 350.125,78.2745 L 351.762,73.5621 L 353.399,68.8497 L 355.036,64.1372 L 356.673,59.4248 L 358.31,54.7124 L 359.948,50"
     id="path3202"
     clip-path="url(#clipPath3231)"
     inkscape:connector-curvature="0"
     transform="translate(-830.25122,-1032.7429)" />
</svg>
