<?xml version="1.0" encoding="UTF-8" standalone="no"?>
<!-- Created with Inkscape (http://www.inkscape.org/) -->

<svg
   xmlns:dc="http://purl.org/dc/elements/1.1/"
   xmlns:cc="http://creativecommons.org/ns#"
   xmlns:rdf="http://www.w3.org/1999/02/22-rdf-syntax-ns#"
   xmlns:svg="http://www.w3.org/2000/svg"
   xmlns="http://www.w3.org/2000/svg"
   xmlns:sodipodi="http://sodipodi.sourceforge.net/DTD/sodipodi-0.dtd"
   xmlns:inkscape="http://www.inkscape.org/namespaces/inkscape"
   width="744.09448819"
   height="1052.3622047"
   id="svg3039"
   version="1.1"
   inkscape:version="0.48+devel r"
   sodipodi:docname="hershey_text.svg">
  <defs
     id="defs3041">
    <inkscape:path-effect
       effect="spiro"
       id="path-effect5875"
       is_visible="true" />
    <inkscape:path-effect
       effect="spiro"
       id="path-effect5375"
       is_visible="true" />
    <inkscape:path-effect
       effect="spiro"
       id="path-effect5371"
       is_visible="true" />
    <inkscape:path-effect
       effect="spiro"
       id="path-effect4279"
       is_visible="true" />
    <inkscape:path-effect
       effect="spiro"
       id="path-effect4256"
       is_visible="true" />
    <inkscape:path-effect
       effect="spiro"
       id="path-effect4236"
       is_visible="true" />
    <inkscape:path-effect
       effect="spiro"
       id="path-effect4232"
       is_visible="true" />
    <inkscape:path-effect
       effect="spiro"
       id="path-effect3346"
       is_visible="true" />
    <inkscape:path-effect
       effect="envelope"
       id="path-effect3344"
       is_visible="false"
       yy="true"
       xx="true"
       bendpath1="M 472.19965,-722.89534 L 3073.6226,-161.62933"
       bendpath2="M 2558.7605,768.65803 L 2609.5838,1625.8866"
       bendpath3="M 1733.9433,1561.805 C 2357.2798,1620.7306 16559.171,-350.78187 3603.9527,1738.5817"
       bendpath4="M 620.25013,-1847.6371 L 675.49285,1449.1099"
       bendpath1-nodetypes="cc"
       bendpath4-nodetypes="cc"
       bendpath2-nodetypes="cc"
       bendpath3-nodetypes="cc" />
    <inkscape:path-effect
       is_visible="true"
       id="path-effect3862"
       effect="spiro" />
    <inkscape:path-effect
       is_visible="true"
       id="path-effect3856"
       effect="spiro" />
    <inkscape:path-effect
       is_visible="true"
       id="path-effect3075"
       effect="spiro" />
    <inkscape:path-effect
       is_visible="true"
       id="path-effect3069"
       effect="spiro" />
    <inkscape:path-effect
       is_visible="true"
       id="path-effect3065"
       effect="spiro" />
    <inkscape:path-effect
       is_visible="true"
       id="path-effect3061"
       effect="spiro" />
    <inkscape:path-effect
       is_visible="true"
       id="path-effect3057"
       effect="spiro" />
    <inkscape:path-effect
       is_visible="true"
       id="path-effect3053"
       effect="spiro" />
    <inkscape:path-effect
       is_visible="true"
       id="path-effect3045"
       effect="spiro" />
    <inkscape:path-effect
       is_visible="true"
       id="path-effect3041"
       effect="spiro" />
    <inkscape:path-effect
       is_visible="true"
       id="path-effect3037"
       effect="spiro" />
    <inkscape:path-effect
       is_visible="true"
       id="path-effect3033"
       effect="spiro" />
    <inkscape:path-effect
       is_visible="true"
       id="path-effect3029"
       effect="spiro" />
  </defs>
  <sodipodi:namedview
     id="base"
     pagecolor="#ffffff"
     bordercolor="#666666"
     borderopacity="1.0"
     inkscape:pageopacity="0.0"
     inkscape:pageshadow="2"
     inkscape:zoom="2"
     inkscape:cx="243.47495"
     inkscape:cy="728.04857"
     inkscape:document-units="px"
     inkscape:current-layer="svg3039"
     showgrid="false"
     inkscape:window-width="2560"
     inkscape:window-height="1378"
     inkscape:window-x="0"
     inkscape:window-y="27"
     inkscape:window-maximized="1"
     showguides="false"
     inkscape:guide-bbox="true">
    <sodipodi:guide
       orientation="1,0"
       position="17.677669,1009.8369"
       id="guide5424" />
  </sodipodi:namedview>
  <metadata
     id="metadata3044">
    <rdf:RDF>
      <cc:Work
         rdf:about="">
        <dc:format>image/svg+xml</dc:format>
        <dc:type
           rdf:resource="http://purl.org/dc/dcmitype/StillImage" />
        <dc:title></dc:title>
      </cc:Work>
    </rdf:RDF>
  </metadata>
  <path
     inkscape:connector-curvature="0"
     d="M 164.83765,359.35803 L 162.83765,358.35803 L 161.83765,356.35803 L 161.83765,355.35803 L 162.83765,353.35803 L 164.83765,352.35803 L 165.83765,352.35803 L 167.83765,353.35803 L 168.83765,355.35803 L 168.83765,358.35803 L 167.83765,373.35803 M 177.83765,352.35803 L 167.83765,373.35803 M 177.83765,352.35803 L 175.83765,373.35803 M 189.83765,352.35803 L 187.83765,353.35803 L 184.83765,356.35803 L 181.83765,360.35803 L 178.83765,366.35803 L 175.83765,373.35803"
     style="fill:none;stroke:#000000"
     id="path6110" />
  <path
     inkscape:connector-curvature="0"
     d="M 193.83765,364.35803 L 191.83765,364.35803 L 189.83765,365.35803 L 188.83765,366.35803 L 187.83765,368.35803 L 187.83765,370.35803 L 188.83765,372.35803 L 190.83765,373.35803 L 192.83765,373.35803 L 194.83765,372.35803 L 195.83765,371.35803 L 196.83765,369.35803 L 196.83765,367.35803 L 195.83765,365.35803 L 193.83765,364.35803 L 192.83765,365.35803 L 192.83765,367.35803 L 193.83765,369.35803 L 195.83765,370.35803 L 198.83765,370.35803 L 200.83765,369.35803 L 201.83765,368.35803 L 203.83765,365.35803 L 206.83765,360.35803 L 207.83765,358.35803 L 208.83765,355.35803 L 208.83765,353.35803 L 207.83765,352.35803 L 205.83765,353.35803 L 204.83765,355.35803 L 203.83765,359.35803 L 202.83765,366.35803 L 202.83765,372.35803 L 203.83765,373.35803 L 204.83765,373.35803 L 206.83765,372.35803 L 207.83765,371.35803 L 209.72827,368.51038 L 213.83765,363.35803 L 215.83765,360.35803 L 216.83765,358.35803 L 217.83765,355.35803 L 217.83765,353.35803 L 216.83765,352.35803 L 214.83765,353.35803 L 213.83765,355.35803 L 211.83765,363.35803 L 208.83765,372.35803 L 205.83765,379.35803 L 204.83765,382.35803 L 204.83765,384.35803 L 205.83765,385.35803 L 207.83765,384.35803 L 208.83765,381.35803 L 209.83765,372.35803 L 210.83765,373.35803 L 212.83765,373.35803 L 214.83765,372.35803 L 215.83765,371.35803 L 217.83765,368.35803"
     style="fill:none;stroke:#000000"
     id="path6112"
     sodipodi:nodetypes="cccccccccccccccccccccccccccccccccccccccccccccccccccccccccccc" />
  <path
     inkscape:connector-curvature="0"
     d=""
     style="fill:none;stroke:#000000"
     id="path6118" />
  <path
     inkscape:connector-curvature="0"
     d="M 238.83765,359.35803 L 236.83765,358.35803 L 235.83765,356.35803 L 235.83765,355.35803 L 236.83765,353.35803 L 238.83765,352.35803 L 239.83765,352.35803 L 241.83765,353.35803 L 242.83765,355.35803 L 242.83765,357.35803 L 241.83765,361.35803 L 240.83765,364.35803 L 239.83765,368.35803 L 239.83765,371.35803 L 240.83765,373.35803 L 242.83765,373.35803 L 244.83765,372.35803 L 247.83765,369.35803 L 249.83765,366.35803 L 251.83765,362.35803 L 252.83765,359.35803 L 253.83765,355.35803 L 253.83765,353.35803 L 252.83765,352.35803 L 251.83765,352.35803 L 250.83765,353.35803 L 249.83765,355.35803 L 249.83765,357.35803 L 250.83765,360.35803 L 252.83765,362.35803 L 254.83765,363.35803"
     style="fill:none;stroke:#000000"
     id="path6120" />
  <path
     inkscape:connector-curvature="0"
     d="M 262.83765,364.35803 L 260.83765,364.35803 L 258.83765,365.35803 L 257.83765,366.35803 L 256.83765,368.35803 L 256.83765,370.35803 L 257.83765,372.35803 L 259.83765,373.35803 L 261.83765,373.35803 L 263.83765,372.35803 L 264.83765,371.35803 L 265.83765,369.35803 L 265.83765,367.35803 L 264.83765,365.35803 L 262.83765,364.35803 L 261.83765,365.35803 L 261.83765,367.35803 L 262.83765,369.35803 L 264.83765,370.35803 L 267.83765,370.35803 L 269.83765,369.35803 L 270.83765,368.35803 L 272.83765,365.35803 L 275.83765,360.35803 L 276.83765,358.35803 L 277.83765,355.35803 L 277.83765,353.35803 L 276.83765,352.35803 L 274.83765,353.35803 L 273.83765,355.35803 L 272.83765,359.35803 L 271.83765,366.35803 L 271.83765,372.35803 L 272.83765,373.35803 L 273.83765,373.35803 L 275.83765,372.35803 L 276.83765,371.35803 L 278.79858,368.42053 L 280.83765,365.35803 L 283.83765,360.35803 L 284.83765,358.35803 L 285.83765,355.35803 L 285.83765,353.35803 L 284.83765,352.35803 L 282.83765,353.35803 L 281.83765,355.35803 L 280.83765,359.35803 L 279.83765,366.35803 L 279.83765,372.35803 L 280.83765,373.35803 L 281.83765,373.35803 L 283.83765,372.35803 L 284.83765,371.35803 L 286.79077,368.42053 L 288.83765,365.35803 L 289.83765,363.35803 L 288.83765,367.35803 L 282.83765,385.35803"
     style="fill:none;stroke:#000000"
     id="path6122"
     sodipodi:nodetypes="cccccccccccccccccccccccccccccccccccccccccccccccccccccccccc" />
  <path
     inkscape:connector-curvature="0"
     d="M 288.83765,367.35803 L 289.83765,365.35803 L 291.83765,364.35803 L 293.83765,364.35803 L 295.83765,365.35803 L 296.83765,367.35803 L 296.83765,369.35803 L 295.83765,371.35803 L 294.83765,372.35803 L 292.83765,373.35803 M 288.83765,372.35803 L 290.83765,373.35803 L 293.83765,373.35803 L 296.83765,372.35803 L 298.83765,371.35803 L 301.89234,368.2799 L 303.83765,365.35803 L 304.83765,363.35803 L 304.83765,365.35803 L 307.83765,365.35803 L 308.83765,366.35803 L 308.83765,368.35803 L 307.83765,371.35803 L 307.83765,372.35803 L 308.83765,373.35803 L 309.83765,373.35803 L 311.83765,372.35803 L 312.83765,371.35803 L 314.8064,367.93616"
     style="fill:none;stroke:#000000"
     id="path6128"
     sodipodi:nodetypes="ccccccccccccccccccccccccccccc" />
  <path
     inkscape:connector-curvature="0"
     d="M 315.83765,371.35803 L 317.83765,370.35803 L 318.83765,369.35803 L 319.83765,367.35803 L 319.83765,365.35803 L 318.83765,364.35803 L 317.83765,364.35803 L 315.83765,365.35803 L 314.83765,367.35803 L 314.83765,370.35803 L 315.83765,372.35803 L 317.83765,373.35803 L 319.83765,373.35803 L 321.83765,372.35803 L 322.83765,371.35803 L 324.83765,368.35803"
     style="fill:none;stroke:#000000"
     id="path6132" />
  <path
     inkscape:connector-curvature="0"
     d="M 331.83765,366.35803 L 331.83765,365.35803 L 330.83765,364.35803 L 328.83765,364.35803 L 326.83765,365.35803 L 325.83765,366.35803 L 324.83765,368.35803 L 324.83765,370.35803 L 325.83765,372.35803 L 327.83765,373.35803 L 330.83765,373.35803 L 333.83765,371.35803 L 335.83765,368.35803 L 337.83765,365.35803 L 340.83765,360.35803 L 341.83765,358.35803 L 342.83765,355.35803 L 342.83765,353.35803 L 341.83765,352.35803 L 339.83765,353.35803 L 338.83765,355.35803 L 337.83765,359.35803 L 336.83765,365.35803 L 335.83765,373.35803"
     style="fill:none;stroke:#000000"
     id="path6134"
     sodipodi:nodetypes="cccccccccccccccccccccccc" />
  <path
     inkscape:connector-curvature="0"
     d="M 335.83765,373.35803 L 336.83765,370.35803 L 337.83765,368.35803 L 339.83765,365.35803 L 341.83765,364.35803 L 343.83765,364.35803 L 344.83765,365.35803 L 344.83765,367.35803 L 343.83765,370.35803 L 343.83765,372.35803 L 344.83765,373.35803 L 345.83765,373.35803 L 347.83765,372.35803 L 348.83765,371.35803 L 350.83765,368.35803 L 352.83765,365.35803 L 354.83765,361.35803"
     style="fill:none;stroke:#000000"
     id="path6136"
     sodipodi:nodetypes="ccccccccccccccccc" />
  <path
     inkscape:connector-curvature="0"
     d="M 357.83765,352.35803 L 351.83765,370.35803 L 351.83765,372.35803 L 352.83765,373.35803 L 354.83765,373.35803 L 356.83765,372.35803 L 357.83765,371.35803 L 359.83765,368.35803 M 351.83765,360.35803 L 358.83765,360.35803"
     style="fill:none;stroke:#000000"
     id="path6138"
     sodipodi:nodetypes="cccccccccc" />
  <path
     id="path6409"
     style="fill:none;stroke:#000000"
     d="M 162.66235,195.46506 L 162.66235,216.46506 M 162.66235,195.46506 L 171.66235,195.46506 L 174.66235,196.46506 L 175.66235,197.46506 L 176.66235,199.46506 L 176.66235,201.46506 L 175.66235,203.46506 L 174.66235,204.46506 L 171.66235,205.46506 M 162.66235,205.46506 L 171.66235,205.46506 L 174.66235,206.46506 L 175.66235,207.46506 L 176.66235,209.46506 L 176.66235,212.46506 L 175.66235,214.46506 L 174.66235,215.46506 L 171.66235,216.46506 L 162.66235,216.46506"
     inkscape:connector-curvature="0" />
  <path
     id="path6411"
     style="fill:none;stroke:#000000"
     d="M 182.66235,208.46506 L 194.66235,208.46506 L 194.66235,206.46506 L 193.66235,204.46506 L 192.66235,203.46506 L 190.66235,202.46506 L 187.66235,202.46506 L 185.66235,203.46506 L 183.66235,205.46506 L 182.66235,208.46506 L 182.66235,210.46506 L 183.66235,213.46506 L 185.66235,215.46506 L 187.66235,216.46506 L 190.66235,216.46506 L 192.66235,215.46506 L 194.66235,213.46506"
     inkscape:connector-curvature="0" />
  <path
     id="path6413"
     style="fill:none;stroke:#000000"
     d="M 212.66235,202.46506 L 212.66235,216.46506 M 212.66235,205.46506 L 210.66235,203.46506 L 208.66235,202.46506 L 205.66235,202.46506 L 203.66235,203.46506 L 201.66235,205.46506 L 200.66235,208.46506 L 200.66235,210.46506 L 201.66235,213.46506 L 203.66235,215.46506 L 205.66235,216.46506 L 208.66235,216.46506 L 210.66235,215.46506 L 212.66235,213.46506"
     inkscape:connector-curvature="0" />
  <path
     id="path6415"
     style="fill:none;stroke:#000000"
     d="M 231.66235,205.46506 L 229.66235,203.46506 L 227.66235,202.46506 L 224.66235,202.46506 L 222.66235,203.46506 L 220.66235,205.46506 L 219.66235,208.46506 L 219.66235,210.46506 L 220.66235,213.46506 L 222.66235,215.46506 L 224.66235,216.46506 L 227.66235,216.46506 L 229.66235,215.46506 L 231.66235,213.46506"
     inkscape:connector-curvature="0" />
  <path
     id="path6417"
     style="fill:none;stroke:#000000"
     d="M 238.66235,195.46506 L 238.66235,216.46506 M 238.66235,206.46506 L 241.66235,203.46506 L 243.66235,202.46506 L 246.66235,202.46506 L 248.66235,203.46506 L 249.66235,206.46506 L 249.66235,216.46506"
     inkscape:connector-curvature="0" />
  <path
     id="path6419"
     style="fill:none;stroke:#000000"
     d="M 257.66235,195.46506 L 257.66235,216.46506 M 257.66235,195.46506 L 266.66235,195.46506 L 269.66235,196.46506 L 270.66235,197.46506 L 271.66235,199.46506 L 271.66235,201.46506 L 270.66235,203.46506 L 269.66235,204.46506 L 266.66235,205.46506 M 257.66235,205.46506 L 266.66235,205.46506 L 269.66235,206.46506 L 270.66235,207.46506 L 271.66235,209.46506 L 271.66235,212.46506 L 270.66235,214.46506 L 269.66235,215.46506 L 266.66235,216.46506 L 257.66235,216.46506"
     inkscape:connector-curvature="0" />
  <path
     id="path6421"
     style="fill:none;stroke:#000000"
     d="M 282.66235,202.46506 L 280.66235,203.46506 L 278.66235,205.46506 L 277.66235,208.46506 L 277.66235,210.46506 L 278.66235,213.46506 L 280.66235,215.46506 L 282.66235,216.46506 L 285.66235,216.46506 L 287.66235,215.46506 L 289.66235,213.46506 L 290.66235,210.46506 L 290.66235,208.46506 L 289.66235,205.46506 L 287.66235,203.46506 L 285.66235,202.46506 L 282.66235,202.46506"
     inkscape:connector-curvature="0" />
  <path
     id="path6423"
     style="fill:none;stroke:#000000"
     d="M 298.66235,195.46506 L 298.66235,212.46506 L 299.66235,215.46506 L 301.66235,216.46506 L 303.66235,216.46506 M 295.66235,202.46506 L 302.66235,202.46506"
     inkscape:connector-curvature="0" />
  <path
     id="path6425"
     style="fill:none;stroke:#000000"
     d=""
     inkscape:connector-curvature="0" />
  <path
     id="path6427"
     style="fill:none;stroke:#000000"
     d="M 325.66235,195.46506 L 325.66235,216.46506 M 325.66235,195.46506 L 334.66235,195.46506 L 337.66235,196.46506 L 338.66235,197.46506 L 339.66235,199.46506 L 339.66235,202.46506 L 338.66235,204.46506 L 337.66235,205.46506 L 334.66235,206.46506 L 325.66235,206.46506"
     inkscape:connector-curvature="0" />
  <path
     id="path6429"
     style="fill:none;stroke:#000000"
     d="M 346.66235,202.46506 L 346.66235,216.46506 M 346.66235,208.46506 L 347.66235,205.46506 L 349.66235,203.46506 L 351.66235,202.46506 L 354.66235,202.46506"
     inkscape:connector-curvature="0" />
  <path
     id="path6431"
     style="fill:none;stroke:#000000"
     d="M 363.66235,202.46506 L 361.66235,203.46506 L 359.66235,205.46506 L 358.66235,208.46506 L 358.66235,210.46506 L 359.66235,213.46506 L 361.66235,215.46506 L 363.66235,216.46506 L 366.66235,216.46506 L 368.66235,215.46506 L 370.66235,213.46506 L 371.66235,210.46506 L 371.66235,208.46506 L 370.66235,205.46506 L 368.66235,203.46506 L 366.66235,202.46506 L 363.66235,202.46506"
     inkscape:connector-curvature="0" />
  <path
     id="path6433"
     style="fill:none;stroke:#000000"
     d="M 379.66235,195.46506 L 380.66235,196.46506 L 381.66235,195.46506 L 380.66235,194.46506 L 379.66235,195.46506 M 380.66235,202.46506 L 380.66235,219.46506 L 379.66235,222.46506 L 377.66235,223.46506 L 375.66235,223.46506"
     inkscape:connector-curvature="0" />
  <path
     id="path6435"
     style="fill:none;stroke:#000000"
     d="M 387.66235,208.46506 L 399.66235,208.46506 L 399.66235,206.46506 L 398.66235,204.46506 L 397.66235,203.46506 L 395.66235,202.46506 L 392.66235,202.46506 L 390.66235,203.46506 L 388.66235,205.46506 L 387.66235,208.46506 L 387.66235,210.46506 L 388.66235,213.46506 L 390.66235,215.46506 L 392.66235,216.46506 L 395.66235,216.46506 L 397.66235,215.46506 L 399.66235,213.46506"
     inkscape:connector-curvature="0" />
  <path
     id="path6437"
     style="fill:none;stroke:#000000"
     d="M 417.66235,205.46506 L 415.66235,203.46506 L 413.66235,202.46506 L 410.66235,202.46506 L 408.66235,203.46506 L 406.66235,205.46506 L 405.66235,208.46506 L 405.66235,210.46506 L 406.66235,213.46506 L 408.66235,215.46506 L 410.66235,216.46506 L 413.66235,216.46506 L 415.66235,215.46506 L 417.66235,213.46506"
     inkscape:connector-curvature="0" />
  <path
     id="path6439"
     style="fill:none;stroke:#000000"
     d="M 425.66235,195.46506 L 425.66235,212.46506 L 426.66235,215.46506 L 428.66235,216.46506 L 430.66235,216.46506 M 422.66235,202.46506 L 429.66235,202.46506"
     inkscape:connector-curvature="0" />
  <path
     inkscape:connector-curvature="0"
     d="M 162.84815,271.75123 L 162.84815,292.75123 M 162.84815,271.75123 L 175.84815,271.75123 M 162.84815,281.75123 L 170.84815,281.75123 M 162.84815,292.75123 L 175.84815,292.75123"
     style="fill:none;stroke:#000000"
     id="path13116" />
  <path
     inkscape:connector-curvature="0"
     d="M 185.84815,271.75123 L 185.84815,292.75123 M 178.84815,271.75123 L 192.84815,271.75123"
     style="fill:none;stroke:#000000"
     id="path13118" />
  <path
     inkscape:connector-curvature="0"
     d="M 197.84815,271.75123 L 197.84815,292.75123 M 211.84815,271.75123 L 211.84815,292.75123 M 197.84815,281.75123 L 211.84815,281.75123"
     style="fill:none;stroke:#000000"
     id="path13120" />
  <path
     inkscape:connector-curvature="0"
     d=""
     style="fill:none;stroke:#000000"
     id="path13122" />
  <path
     inkscape:connector-curvature="0"
     d="M 248.84815,271.75123 L 234.84815,292.75123 M 234.84815,271.75123 L 248.84815,271.75123 M 234.84815,292.75123 L 248.84815,292.75123"
     style="fill:none;stroke:#000000"
     id="path13124" />
  <path
     inkscape:connector-curvature="0"
     d="M 255.84815,278.75123 L 255.84815,288.75123 L 256.84815,291.75123 L 258.84815,292.75123 L 261.84815,292.75123 L 263.84815,291.75123 L 266.84815,288.75123 M 266.84815,278.75123 L 266.84815,292.75123"
     style="fill:none;stroke:#000000"
     id="path13126" />
  <path
     inkscape:connector-curvature="0"
     d="M 274.84815,278.75123 L 274.84815,292.75123 M 274.84815,284.75123 L 275.84815,281.75123 L 277.84815,279.75123 L 279.84815,278.75123 L 282.84815,278.75123"
     style="fill:none;stroke:#000000"
     id="path13128" />
  <path
     inkscape:connector-curvature="0"
     d="M 286.84815,271.75123 L 287.84815,272.75123 L 288.84815,271.75123 L 287.84815,270.75123 L 286.84815,271.75123 M 287.84815,278.75123 L 287.84815,292.75123"
     style="fill:none;stroke:#000000"
     id="path13130" />
  <path
     inkscape:connector-curvature="0"
     d="M 306.84815,281.75123 L 304.84815,279.75123 L 302.84815,278.75123 L 299.84815,278.75123 L 297.84815,279.75123 L 295.84815,281.75123 L 294.84815,284.75123 L 294.84815,286.75123 L 295.84815,289.75123 L 297.84815,291.75123 L 299.84815,292.75123 L 302.84815,292.75123 L 304.84815,291.75123 L 306.84815,289.75123"
     style="fill:none;stroke:#000000"
     id="path13132" />
  <path
     inkscape:connector-curvature="0"
     d="M 313.84815,271.75123 L 313.84815,292.75123 M 313.84815,282.75123 L 316.84815,279.75123 L 318.84815,278.75123 L 321.84815,278.75123 L 323.84815,279.75123 L 324.84815,282.75123 L 324.84815,292.75123"
     style="fill:none;stroke:#000000"
     id="path13134" />
</svg>
