<?xml version="1.0" encoding="UTF-8" standalone="no"?>
<svg
   xmlns:dc="http://purl.org/dc/elements/1.1/"
   xmlns:cc="http://creativecommons.org/ns#"
   xmlns:rdf="http://www.w3.org/1999/02/22-rdf-syntax-ns#"
   xmlns:svg="http://www.w3.org/2000/svg"
   xmlns="http://www.w3.org/2000/svg"
   xmlns:sodipodi="http://sodipodi.sourceforge.net/DTD/sodipodi-0.dtd"
   xmlns:inkscape="http://www.inkscape.org/namespaces/inkscape"
   x="0"
   y="0"
   width="1874.1167"
   height="1540.1637"
   version="1.1"
   id="svg21211"
   inkscape:version="0.48+devel r"
   sodipodi:docname="hershey_connected.svg">
  <metadata
     id="metadata21821">
    <rdf:RDF>
      <cc:Work
         rdf:about="">
        <dc:format>image/svg+xml</dc:format>
        <dc:type
           rdf:resource="http://purl.org/dc/dcmitype/StillImage" />
        <dc:title></dc:title>
      </cc:Work>
    </rdf:RDF>
  </metadata>
  <defs
     id="defs21819" />
  <sodipodi:namedview
     pagecolor="#ffffff"
     bordercolor="#666666"
     borderopacity="1"
     objecttolerance="10"
     gridtolerance="10"
     guidetolerance="10"
     inkscape:pageopacity="0"
     inkscape:pageshadow="2"
     inkscape:window-width="2560"
     inkscape:window-height="1378"
     id="namedview21817"
     showgrid="false"
     inkscape:zoom="0.58537323"
     inkscape:cx="916.85058"
     inkscape:cy="840.0918"
     inkscape:window-x="0"
     inkscape:window-y="27"
     inkscape:window-maximized="1"
     inkscape:current-layer="g21213"
     fit-margin-top="0"
     fit-margin-left="0"
     fit-margin-right="0"
     fit-margin-bottom="0" />
  <g
     stroke-miterlimit="10"
     font-weight="normal"
     font-size="12"
     mix-blend-mode="normal"
     id="g21213"
     style="font-weight:normal;font-size:12px;font-family:sans-serif;text-anchor:start;fill:none;stroke:none;stroke-width:2;stroke-linecap:butt;stroke-linejoin:miter;stroke-miterlimit:10;stroke-dasharray:none;stroke-dashoffset:0"
     transform="translate(58.158533,57.010889)">
    <polyline
       points="39.64105,1099.55715 26.54702,1093.01014 20,1079.9161 20,1073.36909 26.54702,1060.27505 39.64105,1053.72803 46.18807,1053.72803 59.2821,1060.27505 65.82912,1073.36909 65.82912,1093.01014 59.2821,1191.2154"
       id="polyline21215"
       style="stroke:#000000;stroke-width:6" />
    <path
       d="M 59.2821,1191.2154 C 59.24884,1191.7143 59.24884,1191.7143 59.24884,1191.7143 C 58.94227,1196.3129 58.71283,1200.9354 59.15103,1205.5233 C 59.58924,1210.1112 60.67668,1214.6243 62.2114,1218.97 C 63.74612,1223.3158 65.70691,1227.4965 67.45054,1231.7627 C 69.19417,1236.0289 70.71935,1240.4534 71.05925,1245.0496 C 71.67629,1253.3935 68.04979,1261.9421 61.62137,1267.2972 C 55.19295,1272.6523 46.1298,1274.6745 38.03471,1272.5601 C 29.93962,1270.4456 23.02314,1264.2495 20.03471,1256.4347 C 17.04628,1248.6199 18.06362,1239.3898 22.68233,1232.4135 C 25.22654,1228.5706 28.72064,1225.4572 32.32788,1222.5886 C 35.93512,1219.7201 39.68999,1217.0323 43.1539,1213.9922 C 46.61781,1210.9521 49.77343,1207.5473 52.39932,1203.7598 C 55.02521,1199.9722 57.08569,1195.8279 59.06715,1191.6668 C 59.28212,1191.2154 59.28212,1191.2154 59.28212,1191.2154"
       id="path21217"
       inkscape:connector-curvature="0"
       style="stroke:#ff0000" />
    <g
       id="g21219"
       style="stroke:#ff0000">
      <line
         x1="59.282101"
         y1="1191.2155"
         x2="59.282101"
         y2="1191.2155"
         id="line21221" />
      <polyline
         points="59.2821,1191.2154 59.2821,1191.2154 59.2821,1191.2154"
         id="polyline21223" />
    </g>
    <line
       x1="124.75228"
       y1="1053.728"
       x2="59.282101"
       y2="1191.2155"
       id="line21225"
       style="stroke:#000000;stroke-width:6" />
    <path
       d="M 124.75228,1053.728 C 124.96725,1053.2766 124.96725,1053.2766 124.96725,1053.2766 C 126.95506,1049.1022 129.02421,1044.9443 131.67635,1041.1571 C 134.32849,1037.3698 137.52649,1033.9808 141.04343,1030.9794 C 144.56037,1027.9781 148.37738,1025.352 152.05792,1022.5536 C 155.73845,1019.7553 159.31948,1016.7202 161.96722,1012.9298 C 166.80374,1006.0062 168.03918,996.70404 165.17752,988.75802 C 162.31586,980.812 155.43319,974.43345 147.29284,972.1833 C 139.1525,969.93315 129.97094,971.87124 123.4345,977.21944 C 116.89805,982.56764 113.18053,991.18373 113.77448,999.60844 C 114.09964,1004.2205 115.61344,1008.664 117.33423,1012.9554 C 119.05502,1017.2467 120.9814,1021.4604 122.45755,1025.842 C 123.9337,1030.2235 124.93711,1034.7739 125.26761,1039.3856 C 125.59811,1043.9973 125.23804,1048.6276 124.79969,1053.2303 C 124.75229,1053.7281 124.75229,1053.7281 124.75229,1053.7281"
       id="path21227"
       inkscape:connector-curvature="0"
       style="stroke:#ff0000" />
    <g
       id="g21229"
       style="stroke:#ff0000">
      <line
         x1="124.75228"
         y1="1053.728"
         x2="124.75228"
         y2="1053.728"
         id="line21231" />
      <polyline
         points="124.75228,1053.72803 124.75228,1053.72803 124.75228,1053.72803"
         id="polyline21233" />
    </g>
    <line
       x1="124.75228"
       y1="1053.728"
       x2="111.65824"
       y2="1191.2155"
       id="line21235"
       style="stroke:#000000;stroke-width:6" />
    <path
       d="M 111.65824,1191.2154 C 111.61084,1191.7132 111.61084,1191.7132 111.61084,1191.7132 C 111.17059,1196.3358 110.81122,1200.9881 111.17355,1205.6175 C 111.53589,1210.2469 112.60169,1214.8075 114.16924,1219.1785 C 115.73679,1223.5495 117.7817,1227.7304 119.64063,1231.9856 C 121.49956,1236.2409 123.17396,1240.6469 123.66332,1245.2646 C 124.56559,1253.7785 121.06703,1262.6407 114.5923,1268.2424 C 108.11756,1273.844 98.84433,1276.0315 90.54873,1273.9139 C 82.25313,1271.7964 75.16282,1265.432 72.16503,1257.4124 C 69.16724,1249.3928 70.34424,1239.9381 75.21674,1232.8982 C 77.85945,1229.08 81.44075,1226.0155 85.11174,1223.1718 C 88.78273,1220.3282 92.58132,1217.6389 96.05205,1214.554 C 99.52278,1211.469 102.64408,1207.9771 105.18091,1204.0878 C 107.71774,1200.1984 109.6321,1195.9431 111.46129,1191.675 C 111.65825,1191.2154 111.65825,1191.2154 111.65825,1191.2154"
       id="path21237"
       inkscape:connector-curvature="0"
       style="stroke:#ff0000" />
    <g
       id="g21239"
       style="stroke:#ff0000">
      <line
         x1="111.65824"
         y1="1191.2155"
         x2="111.65824"
         y2="1191.2155"
         id="line21241" />
      <polyline
         points="111.65824,1191.2154 111.65824,1191.2154 111.65824,1191.2154"
         id="polyline21243" />
    </g>
    <polyline
       points="203.31648,1053.72803 190.22245,1060.27505 170.5814,1079.9161 150.94035,1106.10417 131.29929,1145.38628 111.65824,1191.2154"
       id="polyline21245"
       style="stroke:#000000;stroke-width:6" />
    <path
       d="M 203.31648,1053.728 C 203.76369,1053.5044 203.76369,1053.5044 203.76369,1053.5044 C 208.12689,1051.3228 212.61708,1049.2192 217.4388,1048.479 C 222.26052,1047.7388 227.30548,1048.4047 231.70978,1050.502 C 236.11409,1052.5994 239.78979,1056.0308 242.67636,1059.9633 C 245.56293,1063.8958 247.71766,1068.3051 249.95766,1072.6386 C 253.2089,1078.9285 256.70445,1085.1192 259.24005,1091.7301 C 261.10278,1096.5867 262.43199,1101.7164 262.40087,1106.9178 C 262.36975,1112.1192 260.89803,1117.3576 257.88773,1121.5996 C 254.87743,1125.8415 250.38726,1128.9484 245.44114,1130.5583 C 240.49502,1132.1682 235.20606,1132.2922 230.00453,1132.2922 C 229.50453,1132.2922 229.50453,1132.2922 229.50453,1132.2922"
       id="path21247"
       inkscape:connector-curvature="0"
       style="stroke:#ff0000" />
    <polyline
       points="229.50455,1132.29224 216.41052,1132.29224 203.31648,1138.83926 196.76947,1145.38628 190.22245,1158.48031 190.22245,1171.57434 196.76947,1184.66838 209.8635,1191.2154 222.95754,1191.2154 236.05157,1184.66838 242.59859,1178.12136 249.1456,1165.02733 249.1456,1151.93329 242.59859,1138.83926 229.50455,1132.29224 222.95754,1138.83926 222.95754,1151.93329 229.50455,1165.02733 242.59859,1171.57434 262.23964,1171.57434 275.33367,1165.02733 281.88069,1158.48031 294.97473,1138.83926 314.61578,1106.10417 321.16279,1093.01014 327.70981,1073.36909 327.70981,1060.27505 321.16279,1053.72803 308.06876,1060.27505 301.52174,1073.36909 294.97473,1099.55715 288.42771,1145.38628 288.42771,1184.66838 294.97473,1191.2154 301.52174,1191.2154 314.61578,1184.66838 321.16279,1178.12136 333.54075,1159.47771 360.4449,1125.74522 373.53893,1106.10417 380.08595,1093.01014 386.63297,1073.36909 386.63297,1060.27505 380.08595,1053.72803 366.99192,1060.27505 360.4449,1073.36909 347.35086,1125.74522 327.70981,1184.66838 308.06876,1230.4975 301.52174,1250.13855 301.52174,1263.23259 308.06876,1269.7796 321.16279,1263.23259 327.70981,1243.59153 334.25683,1184.66838 340.80385,1191.2154 353.89788,1191.2154 366.99192,1184.66838 373.53893,1178.12136 386.63297,1158.48031"
       id="polyline21255"
       style="stroke:#000000;stroke-width:6" />
    <path
       d="M 386.63297,1158.4803 C 386.91032,1158.0643 386.91032,1158.0643 386.91032,1158.0643 C 391.66818,1150.9275 396.5814,1143.7903 402.89932,1137.989 C 409.21724,1132.1877 416.93617,1127.7561 425.35004,1126.0895 C 433.72519,1124.4305 442.45951,1125.5249 450.64261,1127.9605 C 458.82571,1130.3962 466.55114,1134.1348 474.23257,1137.8619 C 481.914,1141.589 489.63395,1145.3369 497.81093,1147.7931 C 505.98791,1150.2492 514.71552,1151.3763 523.09887,1149.7592 C 528.96078,1148.6285 534.64569,1146.0811 538.90442,1141.8974 C 543.16315,1137.7137 545.82911,1131.8769 545.8934,1125.9072 C 545.95769,1119.9376 543.40791,1114.0809 539.35142,1109.7008 C 535.29493,1105.3207 529.90726,1102.4506 524.56756,1099.7807 C 524.12035,1099.5571 524.12035,1099.5571 524.12035,1099.5571"
       id="path21257"
       inkscape:connector-curvature="0"
       style="stroke:#ff0000" />
    <polyline
       points="524.12033,1099.55715 511.0263,1093.01014 504.47928,1079.9161 504.47928,1073.36909 511.0263,1060.27505 524.12033,1053.72803 530.66735,1053.72803 543.76138,1060.27505 550.3084,1073.36909 550.3084,1086.46312 543.76138,1112.65119 537.21436,1132.29224 530.66735,1158.48031 530.66735,1178.12136 537.21436,1191.2154 550.3084,1191.2154 563.40243,1184.66838 583.04349,1165.02733 596.13752,1145.38628 609.23155,1119.19821 615.77857,1099.55715 622.32559,1073.36909 622.32559,1060.27505 615.77857,1053.72803 609.23155,1053.72803 602.68454,1060.27505 596.13752,1073.36909 596.13752,1086.46312 602.68454,1106.10417 615.77857,1119.19821 628.87261,1125.74522"
       id="polyline21265"
       style="stroke:#000000;stroke-width:6" />
    <path
       d="M 628.87261,1125.7452 C 629.31982,1125.9688 629.31982,1125.9688 629.31982,1125.9688 C 637.03432,1129.8261 644.49333,1134.1892 652.29598,1137.8649 C 656.19731,1139.7027 660.2647,1141.2808 664.52428,1141.9546 C 668.78386,1142.6284 673.29374,1142.3391 677.17442,1140.458 C 681.86544,1138.1842 685.26758,1133.7239 687.01647,1128.8129 C 688.76535,1123.902 688.99147,1118.5619 688.52544,1113.3698 C 687.59338,1102.9854 683.97754,1092.7779 684.85562,1082.3889 C 685.57666,1073.8579 689.458,1065.6161 695.63401,1059.6869 C 701.81002,1053.7577 710.22953,1050.2138 718.78789,1049.9841 C 727.34624,1049.7545 735.94379,1052.8453 742.4232,1058.4413 C 748.90262,1064.0373 753.19858,1072.0576 754.43035,1080.5299 C 755.66212,1089.0023 753.85986,1097.8313 749.69607,1105.312 C 745.53228,1112.7927 739.09046,1118.8994 731.65853,1123.1497 C 724.2266,1127.3999 715.85393,1129.8295 707.3793,1131.0455 C 698.90467,1132.2616 690.31018,1132.2923 681.74875,1132.2923 C 681.24875,1132.2923 681.24875,1132.2923 681.24875,1132.2923"
       id="path21267"
       inkscape:connector-curvature="0"
       style="stroke:#ff0000" />
    <polyline
       points="681.24874,1132.29224 668.15471,1132.29224 655.06068,1138.83926 648.51366,1145.38628 641.96664,1158.48031 641.96664,1171.57434 648.51366,1184.66838 661.60769,1191.2154 674.70173,1191.2154 687.79576,1184.66838 694.34278,1178.12136 700.8898,1165.02733 700.8898,1151.93329 694.34278,1138.83926 681.24874,1132.29224 674.70173,1138.83926 674.70173,1151.93329 681.24874,1165.02733 694.34278,1171.57434 713.98383,1171.57434 727.07787,1165.02733 733.62488,1158.48031 746.71892,1138.83926 766.35997,1106.10417 772.90699,1093.01014 779.454,1073.36909 779.454,1060.27505 772.90699,1053.72803 759.81295,1060.27505 753.26593,1073.36909 746.71892,1099.55715 740.1719,1145.38628 740.1719,1184.66838 746.71892,1191.2154 753.26593,1191.2154 766.35997,1184.66838 772.90699,1178.12136 785.74528,1158.8895 799.09506,1138.83926 818.73611,1106.10417 825.28312,1093.01014 831.83014,1073.36909 831.83014,1060.27505 825.28312,1053.72803 812.18909,1060.27505 805.64207,1073.36909 799.09506,1099.55715 792.54804,1145.38628 792.54804,1184.66838 799.09506,1191.2154 805.64207,1191.2154 818.73611,1184.66838 825.28312,1178.12136 838.07027,1158.8895 851.47119,1138.83926 858.01821,1125.74522 851.47119,1151.93329 812.18909,1269.7796"
       id="polyline21275"
       style="stroke:#000000;stroke-width:6" />
    <path
       d="M 812.18909,1269.7796 C 812.03098,1270.2539 812.03098,1270.2539 812.03098,1270.2539 C 809.48738,1277.8847 807.09479,1285.8277 807.90753,1293.8301 C 808.3139,1297.8313 809.50168,1301.7706 811.53869,1305.2383 C 813.57571,1308.706 816.46275,1311.6826 819.91437,1313.7468 C 823.36599,1315.811 827.36756,1316.9492 831.38908,1316.995 C 835.4106,1317.0408 839.43399,1315.9969 842.94608,1314.0373 C 846.45817,1312.0777 849.45086,1309.2156 851.63203,1305.8367 C 853.81319,1302.4578 855.18618,1298.5735 855.71099,1294.5862 C 856.53796,1288.3031 855.27585,1281.8939 853.1089,1275.9386 C 850.94196,1269.9834 847.88974,1264.3984 844.99082,1258.763 C 842.0919,1253.1277 839.31717,1247.3685 837.76437,1241.2244 C 836.21157,1235.0804 835.94053,1228.4701 838.0164,1222.4825 C 839.41613,1218.4452 841.83825,1214.8099 844.75369,1211.6859 C 847.66913,1208.5619 851.07333,1205.9246 854.64948,1203.5857 C 861.80178,1198.9079 869.56813,1195.261 877.21206,1191.439 C 877.65927,1191.2154 877.65927,1191.2154 877.65927,1191.2154"
       id="path21277"
       inkscape:connector-curvature="0"
       style="stroke:#ff0000" />
    <polyline
       points="851.47119,1151.93329 858.01821,1138.83926 871.11225,1132.29224 884.20628,1132.29224 897.30031,1138.83926 903.84733,1151.93329 903.84733,1165.02733 897.30031,1178.12136 890.7533,1184.66838 877.65926,1191.2154"
       id="polyline21285"
       style="stroke:#000000;stroke-width:6" />
    <path
       d="M 851.47119,1151.9333 C 851.24758,1152.3805 851.24758,1152.3805 851.24758,1152.3805 C 847.36705,1160.1416 843.95903,1168.1413 841.32402,1176.4087 C 838.68901,1184.676 836.49856,1193.2909 831.56995,1200.4325 C 825.64347,1209.0199 815.5755,1214.7038 805.14487,1214.966 C 799.92956,1215.0972 794.68023,1213.9198 790.04384,1211.528 C 785.40745,1209.1362 781.39678,1205.5306 778.56961,1201.1461 C 775.74244,1196.7616 774.11103,1191.6065 773.95197,1186.3919 C 773.79291,1181.1774 775.11294,1175.919 777.75991,1171.4235 C 780.40688,1166.9279 784.37732,1163.2142 789.06211,1160.9187 C 793.7469,1158.6232 799.13032,1157.7614 804.29038,1158.5299 C 808.72151,1159.1898 812.91067,1161.0033 816.79949,1163.2276 C 820.68831,1165.4519 824.32555,1168.0845 827.98376,1170.6706 C 835.30018,1175.8428 843.0099,1180.4378 851.02397,1184.4448 C 851.47118,1184.6684 851.47118,1184.6684 851.47118,1184.6684"
       id="path21287"
       inkscape:connector-curvature="0"
       style="stroke:#ff0000" />
    <polyline
       points="851.47119,1184.66838 864.56523,1191.2154 884.20628,1191.2154 903.84733,1184.66838 916.94137,1178.12136 936.94046,1157.96882 949.67645,1138.83926 956.22347,1125.74522 956.22347,1138.83926 975.86452,1138.83926 982.41154,1145.38628 982.41154,1158.48031 975.86452,1178.12136 975.86452,1184.66838 982.41154,1191.2154 988.95856,1191.2154 1002.05259,1184.66838 1008.59961,1178.12136 1021.48905,1155.71829"
       id="polyline21295"
       style="stroke:#000000;stroke-width:6" />
    <path
       d="M 1021.4891,1155.7183 C 1021.7384,1155.2849 1021.7384,1155.2849 1021.7384,1155.2849 C 1025.4805,1148.7808 1029.3773,1142.2134 1034.9245,1137.1601 C 1040.4718,1132.1068 1047.7838,1128.709 1055.2837,1128.9523 C 1059.0336,1129.074 1062.764,1130.096 1065.999,1131.9965 C 1069.2339,1133.897 1071.9581,1136.6783 1073.7185,1139.9916 C 1075.4788,1143.3049 1076.2602,1147.141 1075.8706,1150.8727 C 1075.481,1154.6043 1073.9139,1158.2127 1071.4099,1161.0068 C 1068.6541,1164.0819 1064.8362,1166.1132 1060.8112,1167.0354 C 1056.7862,1167.9577 1052.5621,1167.8111 1048.519,1166.9718 C 1040.4328,1165.2931 1033.191,1160.9652 1025.9828,1156.9347 C 1018.7745,1152.9041 1011.1732,1149.0285 1002.9381,1148.4068 C 998.82049,1148.096 994.59785,1148.6368 990.82621,1150.3178 C 987.05457,1151.9988 983.75958,1154.8644 981.88212,1158.5422 C 980.59683,1161.0599 979.99409,1163.9143 980.09479,1166.7394 C 980.19549,1169.5644 980.99407,1172.3552 982.3503,1174.8355 C 985.06275,1179.7961 989.97773,1183.382 995.40241,1184.975 C 1000.8271,1186.5679 1006.6851,1186.2578 1012.154,1184.824 C 1017.6229,1183.3902 1022.7366,1180.8734 1027.7934,1178.345 C 1028.2406,1178.1214 1028.2406,1178.1214 1028.2406,1178.1214"
       id="path21297"
       inkscape:connector-curvature="0"
       style="stroke:#ff0000" />
    <polyline
       points="1028.24066,1178.12136 1041.33469,1171.57434 1047.88171,1165.02733 1054.42873,1151.93329 1054.42873,1138.83926 1047.88171,1132.29224 1041.33469,1132.29224 1028.24066,1138.83926 1021.69364,1151.93329 1021.69364,1171.57434 1028.24066,1184.66838 1041.33469,1191.2154 1054.42873,1191.2154 1067.52276,1184.66838 1074.06978,1178.12136 1087.16382,1158.48031"
       id="polyline21305"
       style="stroke:#000000;stroke-width:6" />
    <path
       d="M 1087.1638,1158.4803 C 1087.4412,1158.0643 1087.4412,1158.0643 1087.4412,1158.0643 C 1092.1763,1150.9616 1095.8908,1143.2472 1098.9383,1135.2734 C 1100.462,1131.2864 1102.0536,1127.267 1104.5524,1123.8068 C 1105.8018,1122.0767 1107.2836,1120.4996 1109.0267,1119.2683 C 1110.7697,1118.0371 1112.7834,1117.1589 1114.8988,1116.8778 C 1117.134,1116.5807 1119.4436,1116.9617 1121.5008,1117.8849 C 1123.558,1118.8081 1125.3627,1120.2636 1126.7682,1122.0269 C 1129.5791,1125.5533 1130.7282,1130.2171 1130.5243,1134.7222 C 1130.3205,1139.2272 1128.8509,1143.5969 1126.8828,1147.6545 C 1124.9146,1151.712 1122.4483,1155.5034 1120.1056,1159.3568 C 1117.7628,1163.2102 1115.5245,1167.1651 1114.0669,1171.4327 C 1112.6093,1175.7003 1111.9598,1180.3287 1112.8548,1184.7487 C 1113.7498,1189.1687 1116.3132,1193.3525 1120.2035,1195.6336 C 1122.1486,1196.7741 1124.3931,1197.4204 1126.6479,1197.4048 C 1128.9027,1197.3891 1131.1606,1196.7003 1132.9929,1195.3863 C 1134.7413,1194.1324 1136.0702,1192.3421 1136.9307,1190.3702 C 1137.7912,1188.3983 1138.199,1186.2478 1138.2932,1184.0984 C 1138.4815,1179.7995 1137.4746,1175.5454 1136.4241,1171.3726 C 1134.3232,1163.027 1132.9929,1154.4923 1132.9929,1145.8863 C 1132.9929,1145.3863 1132.9929,1145.3863 1132.9929,1145.3863"
       id="path21307"
       inkscape:connector-curvature="0"
       style="stroke:#ff0000" />
    <polyline
       points="1132.99294,1145.38628 1132.99294,1138.83926 1126.44592,1132.29224 1113.35188,1132.29224 1100.25785,1138.83926 1093.71083,1145.38628 1087.16382,1158.48031 1087.16382,1171.57434 1093.71083,1184.66838 1106.80487,1191.2154 1126.44592,1191.2154 1146.08697,1178.12136 1159.18101,1158.48031 1172.27504,1138.83926 1191.91609,1106.10417 1198.46311,1093.01014 1205.01013,1073.36909 1205.01013,1060.27505 1198.46311,1053.72803 1185.36907,1060.27505 1178.82206,1073.36909 1172.27504,1099.55715 1165.72802,1138.83926 1159.18101,1191.2154"
       id="polyline21315"
       style="stroke:#000000;stroke-width:6" />
    <path
       d="M 1159.181,1191.2154 C 1159.119,1191.7115 1159.119,1191.7115 1159.119,1191.7115 C 1158.5364,1196.3726 1158.041,1201.0721 1158.3577,1205.7587 C 1158.6745,1210.4453 1159.7852,1215.0633 1161.4865,1219.4417 C 1163.1878,1223.8201 1165.4491,1227.9538 1167.5796,1232.1402 C 1169.71,1236.3266 1171.7174,1240.6476 1172.5551,1245.2696 C 1174.1485,1254.0613 1171.0625,1263.5642 1164.6079,1269.7424 C 1158.1532,1275.9205 1148.5244,1278.5878 1139.8109,1276.6113 C 1131.0973,1274.6348 1123.5617,1268.0742 1120.4043,1259.7158 C 1117.247,1251.3574 1118.5631,1241.453 1123.7938,1234.2092 C 1126.5437,1230.401 1130.2189,1227.369 1133.9471,1224.5115 C 1137.6753,1221.654 1141.4988,1218.9004 1144.9227,1215.6845 C 1148.3466,1212.4687 1151.3411,1208.7819 1153.6489,1204.6906 C 1155.9567,1200.5993 1157.5375,1196.146 1159.0229,1191.6897 C 1159.181,1191.2154 1159.181,1191.2154 1159.181,1191.2154"
       id="path21317"
       inkscape:connector-curvature="0"
       style="stroke:#ff0000" />
    <g
       id="g21319"
       style="stroke:#ff0000">
      <line
         x1="1159.181"
         y1="1191.2155"
         x2="1159.181"
         y2="1191.2155"
         id="line21321" />
      <polyline
         points="1159.18101,1191.2154 1159.18101,1191.2154 1159.18101,1191.2154"
         id="polyline21323" />
    </g>
    <polyline
       points="1159.18101,1191.2154 1165.72802,1171.57434 1172.27504,1158.48031 1185.36907,1138.83926 1198.46311,1132.29224 1211.55714,1132.29224 1218.10416,1138.83926 1218.10416,1151.93329 1211.55714,1171.57434 1211.55714,1184.66838 1218.10416,1191.2154 1224.65118,1191.2154 1237.74521,1184.66838 1244.29223,1178.12136 1257.38626,1158.48031 1270.4803,1138.83926 1283.57433,1112.65119"
       id="polyline21325"
       style="stroke:#000000;stroke-width:6" />
    <path
       d="M 1283.5743,1112.6512 C 1283.7979,1112.204 1283.7979,1112.204 1283.7979,1112.204 C 1285.9996,1107.8006 1288.1296,1103.2785 1288.9338,1098.4215 C 1289.7379,1093.5645 1289.1733,1088.4654 1287.1462,1083.979 C 1285.1191,1079.4926 1281.715,1075.7098 1277.7286,1072.821 C 1273.7422,1069.9321 1269.2139,1067.8896 1264.6638,1066.01 C 1216.8061,1046.241 1162.7408,1041.4554 1112.3568,1053.3982 C 1061.9729,1065.341 1015.5819,1094.0944 983.16965,1134.4753 C 950.7574,1174.8562 932.67879,1226.6922 933.84652,1278.459 C 935.01425,1330.2259 955.60488,1381.4779 991.22815,1419.0565 C 1026.8514,1456.6352 1077.2842,1480.0071 1129.0254,1482.0127 C 1180.7666,1484.0183 1233.1705,1464.4082 1270.2775,1428.2939 C 1307.3845,1392.1795 1328.4613,1339.9342 1325.9328,1288.216 C 1323.4042,1236.4977 1297.0519,1186.2531 1255.4242,1155.4586 C 1250.2112,1151.6022 1244.7307,1147.9591 1240.5425,1143.0088 C 1238.4484,1140.5336 1236.6969,1137.7476 1235.5618,1134.7106 C 1234.4266,1131.6737 1233.9217,1128.3889 1234.2169,1125.1602 C 1234.5122,1121.9315 1235.6143,1118.7773 1237.414,1116.0806 C 1239.2138,1113.3838 1241.6973,1111.1622 1244.5291,1109.5834 C 1247.3609,1108.0047 1250.5212,1107.068 1253.7286,1106.5948 C 1256.936,1106.1216 1260.1911,1106.1042 1263.4333,1106.1042 C 1263.9333,1106.1042 1263.9333,1106.1042 1263.9333,1106.1042"
       id="path21327"
       inkscape:connector-curvature="0"
       style="stroke:#ff0000" />
    <polyline
       points="1303.21539,1053.72803 1263.93328,1171.57434 1263.93328,1184.66838 1270.4803,1191.2154 1283.57433,1191.2154 1296.66837,1184.66838 1303.21539,1178.12136 1316.30942,1158.48031"
       id="polyline21335"
       style="stroke:#000000;stroke-width:6" />
    <line
       x1="1263.9332"
       y1="1106.1041"
       x2="1309.7625"
       y2="1106.1041"
       id="line21337"
       style="stroke:#000000;stroke-width:6" />
    <path
       d="M 1309.7624,1106.1042 C 1310.2624,1106.1042 1310.2624,1106.1042 1310.2624,1106.1042 C 1315.8868,1106.1042 1321.5606,1105.9 1327.008,1104.5001 C 1332.4554,1103.1003 1337.5429,1100.5835 1342.4792,1097.8878 C 1347.4155,1095.1921 1352.4058,1092.2887 1357.9578,1091.3889 C 1360.7337,1090.939 1363.6378,1091.0349 1366.2816,1091.9936 C 1368.9253,1092.9523 1371.2902,1094.8298 1372.5243,1097.3567 C 1373.5575,1099.4721 1373.7542,1101.9533 1373.2291,1104.2481 C 1372.704,1106.5429 1371.4828,1108.6509 1369.8744,1110.3699 C 1366.6575,1113.8079 1362.0562,1115.6224 1357.4617,1116.6515 C 1352.8673,1117.6805 1348.1393,1118.0301 1343.5554,1119.1048 C 1338.9714,1120.1795 1334.3953,1122.0928 1331.2825,1125.6253 C 1329.3067,1127.8675 1328.0244,1130.6376 1327.0401,1133.4594 C 1326.0559,1136.2812 1325.3347,1139.187 1324.4582,1142.0441 C 1322.7051,1147.7583 1319.9023,1153.0911 1316.5868,1158.0643 C 1316.3094,1158.4803 1316.3094,1158.4803 1316.3094,1158.4803"
       id="path21339"
       inkscape:connector-curvature="0"
       style="stroke:#ff0000" />
    <line
       x1="25.39937"
       y1="26.54702"
       x2="25.39937"
       y2="164.03438"
       id="line21347"
       style="stroke:#000000;stroke-width:6" />
    <path
       d="M 25.39937,164.03438 C 25.39937,164.53438 25.39937,164.53438 25.39937,164.53438 C 25.39937,172.80401 25.70598,181.06981 26.20342,189.32447 C 26.70087,197.57913 27.22609,205.96903 25.39937,214.03438 C 23.7578,221.28224 20.14101,228.07259 15.0424,233.4791 C 9.94378,238.88561 3.37691,242.89388 -3.76236,244.95712 C -10.90164,247.02036 -18.59432,247.13306 -25.79097,245.27987 C -32.98763,243.42667 -39.6691,239.6125 -44.92392,234.35768 C -50.17874,229.10286 -53.99291,222.42138 -55.84611,215.22473 C -57.69931,208.02807 -57.5866,200.33539 -55.52336,193.19612 C -53.46012,186.05684 -49.45185,179.48997 -44.04534,174.39136 C -38.63883,169.29274 -31.84848,165.67595 -24.60062,164.03439 C -16.53527,162.20767 -8.14537,162.73289 0.10929,163.23034 C 8.36395,163.72779 16.62974,164.03439 24.89938,164.03439 C 25.39938,164.03439 25.39938,164.03439 25.39938,164.03439"
       id="path21349"
       inkscape:connector-curvature="0"
       style="stroke:#ff0000" />
    <g
       id="g21351"
       style="stroke:#ff0000">
      <line
         x1="25.39937"
         y1="164.03438"
         x2="25.39937"
         y2="164.03438"
         id="line21353" />
      <polyline
         points="25.39937,164.03438 25.39937,164.03438 25.39937,164.03438"
         id="polyline21355" />
    </g>
    <polyline
       points="25.39937,26.54702 84.32253,26.54702 103.96358,33.09403 110.5106,39.64105 117.05761,52.73509 117.05761,65.82912 110.5106,78.92316 103.96358,85.47017 84.32253,92.01719"
       id="polyline21357"
       style="stroke:#000000;stroke-width:6" />
    <path
       d="M 84.32253,92.01719 C 83.84819,92.1753 83.84819,92.1753 83.84819,92.1753 C 79.3736,93.66683 74.87848,95.14686 70.24538,96.03059 C 65.61228,96.91432 60.82956,97.19497 56.17408,96.43793 C 51.5186,95.68089 47.00122,93.86422 43.30258,90.93733 C 39.60394,88.01044 36.7593,83.95903 35.50456,79.41235 C 34.57699,76.05122 34.52061,72.47699 35.14078,69.04582 C 35.76095,65.61465 37.0456,62.32233 38.73409,59.27166 C 42.11107,53.17033 47.03586,48.0889 52.01287,43.20428 C 56.98989,38.31966 62.12106,33.50329 66.04993,27.74185 C 69.97881,21.98041 72.66069,15.08316 72.0804,8.13381 C 71.50018,1.18537 67.45781,-5.42199 61.44936,-8.95979 C 58.44514,-10.72869 55.00316,-11.74563 51.52032,-11.90105 C 48.03747,-12.05646 44.52454,-11.35137 41.35312,-9.90344 C 35.01029,-7.0076 30.28694,-1.16059 27.91544,5.39635 C 25.54394,11.95329 25.39938,19.07439 25.39938,26.04701 C 25.39938,26.54701 25.39938,26.54701 25.39938,26.54701"
       id="path21359"
       inkscape:connector-curvature="0"
       style="stroke:#ff0000" />
    <polyline
       points="25.39937,92.01719 84.32253,92.01719 103.96358,98.56421 110.5106,105.11122 117.05761,118.20526 117.05761,137.84631 110.5106,150.94035 103.96358,157.48736 84.32253,164.03438 25.39937,164.03438"
       id="polyline21367"
       style="stroke:#000000;stroke-width:6" />
    <path
       d="M 25.39937,92.01719 C 24.89937,92.01719 24.89937,92.01719 24.89937,92.01719 C 20.87932,92.01719 16.8451,92.03466 12.8628,92.58436 C 8.88051,93.13406 4.94651,94.22517 1.39188,96.10279 C -2.16274,97.98041 -5.31749,100.65079 -7.61626,103.94874 C -9.91504,107.24669 -11.33607,111.15714 -11.64408,115.16537 C -11.95209,119.1736 -11.14731,123.2545 -9.38823,126.86925 C -7.62915,130.484 -4.93374,133.621 -1.70005,136.00932 C 4.76733,140.78596 13.15851,142.41716 21.18056,141.8787 C 36.52474,140.84876 50.35064,132.69474 63.54263,124.79055 C 76.73462,116.88636 90.62374,108.80266 105.9782,107.93943 C 114.31011,107.47101 122.59896,109.07999 130.87195,110.17434 C 139.14495,111.26869 147.49465,111.65824 155.83971,111.65824 C 156.33971,111.65824 156.33971,111.65824 156.33971,111.65824"
       id="path21369"
       inkscape:connector-curvature="0"
       style="stroke:#ff0000" />
    <polyline
       points="156.33972,111.65824 234.90392,111.65824 234.90392,98.56421 228.35691,85.47017 221.80989,78.92316 208.71585,72.37614 189.0748,72.37614 175.98077,78.92316 162.88673,92.01719 156.33972,111.65824 156.33972,124.75228 162.88673,144.39333 175.98077,157.48736 189.0748,164.03438 208.71585,164.03438 221.80989,157.48736 234.90392,144.39333"
       id="polyline21377"
       style="stroke:#000000;stroke-width:6" />
    <path
       d="M 234.90392,144.39333 C 235.25747,144.03978 235.25747,144.03978 235.25747,144.03978 C 241.27086,138.02639 247.16183,131.85655 253.74988,126.47887 C 260.33793,121.10119 268.00389,116.50448 276.47304,115.73296 C 282.58925,115.17579 288.75277,116.69048 294.37755,119.15633 C 300.00233,121.62218 305.16307,125.01631 310.28204,128.40964 C 315.40101,131.80297 320.53728,135.22825 326.13032,137.76524 C 331.72337,140.30223 337.84752,141.93235 343.9759,141.53051 C 349.49512,141.16861 354.93364,139.09141 359.10133,135.45505 C 363.26902,131.81869 366.0655,126.64432 366.80009,121.16225 C 367.53468,115.68018 366.21196,110.02837 363.56249,105.17316 C 360.91301,100.31796 357.01483,96.2818 353.10377,92.37074 C 352.75022,92.01719 352.75022,92.01719 352.75022,92.01719"
       id="path21379"
       inkscape:connector-curvature="0"
       style="stroke:#ff0000" />
    <line
       x1="352.75024"
       y1="72.376137"
       x2="352.75024"
       y2="164.03438"
       id="line21387"
       style="stroke:#000000;stroke-width:6" />
    <path
       d="M 352.75023,72.37614 C 352.75023,71.87614 352.75023,71.87614 352.75023,71.87614 C 352.75023,66.73694 352.83654,61.53613 354.16845,56.57252 C 355.50035,51.60891 358.09725,46.9396 361.88628,43.46762 C 365.67532,39.99564 370.58255,37.78995 375.68259,37.15667 C 380.78262,36.52338 386.01731,37.42183 390.76277,39.39466 C 400.03647,43.25 407.27322,50.99377 412.31361,59.68053 C 417.354,68.36728 420.42294,78.03249 423.38696,87.62831 C 426.35098,97.22413 429.28087,106.91724 434.0807,115.73919 C 438.88053,124.56114 445.7603,132.56759 454.80823,136.9265 C 460.77619,139.80161 467.69725,140.96243 474.13229,139.38983 C 480.56733,137.81723 486.30465,133.38305 489.17325,127.41195 C 490.60755,124.4264 491.34065,121.11265 491.34667,117.80046 C 491.35269,114.48826 490.63657,111.18933 489.37535,108.12665 C 486.85291,102.00129 482.18128,97.05492 477.49711,92.37076 C 477.14356,92.01721 477.14356,92.01721 477.14356,92.01721"
       id="path21389"
       inkscape:connector-curvature="0"
       style="stroke:#ff0000" />
    <polyline
       points="352.75023,92.01719 339.6562,78.92316 326.56217,72.37614 306.92111,72.37614 293.82708,78.92316 280.73304,92.01719 274.18603,111.65824 274.18603,124.75228 280.73304,144.39333 293.82708,157.48736 306.92111,164.03438 326.56217,164.03438 339.6562,157.48736 352.75023,144.39333"
       id="polyline21397"
       style="stroke:#000000;stroke-width:6" />
    <path
       d="M 352.75023,144.39333 C 353.10378,144.03978 353.10378,144.03978 353.10378,144.03978 C 357.15652,139.98704 361.47252,135.9662 366.81608,133.89355 C 372.15964,131.82091 378.34226,131.88723 383.5297,134.32442 C 388.71714,136.76162 392.69204,141.36203 395.0951,146.56537 C 397.49816,151.76871 398.46105,157.5039 399.29776,163.17394 C 400.5012,171.32918 401.53492,179.56744 401.05476,187.79701 C 400.5746,196.02657 398.49898,204.31642 393.92438,211.17421 C 391.63708,214.6031 388.73853,217.64131 385.32638,219.95352 C 381.91423,222.26573 377.98354,223.84077 373.89512,224.36408 C 369.8067,224.88739 365.56521,224.34136 361.80546,222.65218 C 358.04571,220.963 354.78995,218.11608 352.75023,214.53438 C 350.66178,210.86712 349.88662,206.5759 349.80265,202.3565 C 349.71868,198.1371 350.27859,193.93366 350.86133,189.75385 C 352.02682,181.39424 352.75023,172.97485 352.75023,164.53438 C 352.75023,164.03438 352.75023,164.03438 352.75023,164.03438"
       id="path21399"
       inkscape:connector-curvature="0"
       style="stroke:#ff0000" />
    <polyline
       points="477.14356,92.01719 464.04953,78.92316 450.95549,72.37614 431.31444,72.37614 418.22041,78.92316 405.12637,92.01719 398.57936,111.65824 398.57936,124.75228 405.12637,144.39333 418.22041,157.48736 431.31444,164.03438 450.95549,164.03438 464.04953,157.48736 477.14356,144.39333"
       id="polyline21407"
       style="stroke:#000000;stroke-width:6" />
    <path
       d="M 477.14356,144.39333 C 477.49711,144.03978 477.49711,144.03978 477.49711,144.03978 C 484.50541,137.03148 491.72413,129.67114 501.03815,126.28269 C 505.69516,124.58847 510.85929,124.01472 515.63884,125.32392 C 518.02862,125.97852 520.29898,127.10142 522.21146,128.67684 C 524.12394,130.25226 525.67165,132.28504 526.59493,134.5844 C 527.83863,137.68175 527.91281,141.18874 527.06378,144.41667 C 526.21476,147.6446 524.47652,150.60021 522.27211,153.10639 C 517.86328,158.11874 511.76244,161.27556 505.73806,164.15104 C 499.71369,167.02652 493.50123,169.80964 488.57389,174.31328 C 486.11022,176.5651 483.99844,179.24156 482.63592,182.28851 C 481.27341,185.33546 480.68536,188.76605 481.23061,192.05893 C 481.75676,195.23644 483.33738,198.21717 485.61144,200.49797 C 487.8855,202.77877 490.83536,204.35947 493.97463,205.07945 C 497.1139,205.79942 500.43202,205.66712 503.53245,204.79492 C 506.63288,203.92272 509.51313,202.32063 511.96294,200.22973 C 516.86254,196.04793 519.92348,190.01247 521.42681,183.7488 C 522.93014,177.48513 522.97268,170.97593 522.97268,164.53439 C 522.97268,164.03439 522.97268,164.03439 522.97268,164.03439"
       id="path21409"
       inkscape:connector-curvature="0"
       style="stroke:#ff0000" />
    <line
       x1="522.97266"
       y1="26.54702"
       x2="522.97266"
       y2="164.03438"
       id="line21417"
       style="stroke:#000000;stroke-width:6" />
    <path
       d="M 522.97268,26.54702 C 522.97268,26.04702 522.97268,26.04702 522.97268,26.04702 C 522.97268,17.65468 523.50811,9.2739 524.37407,0.92635 C 524.80705,-3.24742 525.22321,-7.43413 525.16362,-11.62988 C 525.10403,-15.82563 524.54549,-20.06272 522.97268,-23.95298 C 520.21826,-30.76587 514.34262,-36.15278 507.4552,-38.71516 C 500.56778,-41.27754 492.77469,-41.08716 485.85832,-38.604 C 478.94195,-36.12084 472.90604,-31.42454 468.43075,-25.59582 C 463.95545,-19.7671 461.00646,-12.83962 459.45266,-5.65714 C 456.34506,8.70782 458.75413,23.72868 462.84084,37.84632 C 466.92754,51.96397 472.67005,65.57415 476.42516,79.78359 C 477.86341,85.22596 479.04374,90.78926 481.46138,95.87286 C 483.87903,100.95646 487.67449,105.52933 492.71288,108.03982 C 497.75127,110.55031 503.82878,110.76589 509.1051,108.80415 C 514.38142,106.84242 518.63868,102.89821 522.61913,98.91776 C 522.97268,98.56421 522.97268,98.56421 522.97268,98.56421"
       id="path21419"
       inkscape:connector-curvature="0"
       style="stroke:#ff0000" />
    <polyline
       points="522.97268,98.56421 542.61374,78.92316 555.70777,72.37614 575.34882,72.37614 588.44286,78.92316 594.98987,98.56421 594.98987,164.03438"
       id="polyline21427"
       style="stroke:#000000;stroke-width:6" />
    <path
       d="M 594.98987,164.03438 C 594.98987,164.53438 594.98987,164.53438 594.98987,164.53438 C 594.98987,171.90174 595.15547,179.44277 597.79032,186.32286 C 599.10774,189.7629 601.01421,192.99267 603.51555,195.6969 C 606.01688,198.40113 609.11267,200.5671 612.54752,201.898 C 615.98237,203.2289 619.74652,203.71502 623.40144,203.2556 C 627.05636,202.79618 630.58885,201.39131 633.55814,199.21122 C 636.52743,197.03113 638.92526,194.08416 640.47595,190.74278 C 642.02664,187.40139 642.72985,183.67533 642.53901,179.9966 C 642.19458,173.35695 638.99472,167.13292 634.80261,161.97252 C 630.6105,156.81211 625.43776,152.55518 620.42208,148.19095 C 615.4064,143.82672 610.45481,139.25168 606.87068,133.65189 C 603.28656,128.0521 601.1596,121.25433 602.31026,114.70608 C 603.09835,110.22121 605.39774,106.06279 608.54954,102.77626 C 611.70134,99.48973 615.67773,97.05324 619.9239,95.4085 C 628.41624,92.11902 637.75884,92.0172 646.86601,92.0172 C 647.36601,92.0172 647.36601,92.0172 647.36601,92.0172"
       id="path21429"
       inkscape:connector-curvature="0"
       style="stroke:#ff0000" />
    <line
       x1="647.36603"
       y1="26.54702"
       x2="647.36603"
       y2="164.03438"
       id="line21437"
       style="stroke:#000000;stroke-width:6" />
    <path
       d="M 647.36601,26.54702 C 647.36601,26.04702 647.36601,26.04702 647.36601,26.04702 C 647.36601,17.77739 647.67262,9.51159 648.17006,1.25693 C 648.66751,-6.99773 649.19273,-15.38763 647.36601,-23.45298 C 645.72444,-30.70084 642.10765,-37.49119 637.00904,-42.8977 C 631.91042,-48.30421 625.34355,-52.31248 618.20428,-54.37572 C 611.065,-56.43896 603.37232,-56.55166 596.17567,-54.69847 C 588.97901,-52.84527 582.29754,-49.0311 577.04272,-43.77628 C 571.7879,-38.52146 567.97373,-31.83998 566.12053,-24.64333 C 564.26733,-17.44667 564.38004,-9.75399 566.44328,-2.61472 C 568.50652,4.52456 572.51479,11.09143 577.9213,16.19004 C 583.32781,21.28866 590.11816,24.90545 597.36602,26.54701 C 605.43137,28.37373 613.82127,27.84851 622.07593,27.35106 C 630.33059,26.85361 638.59638,26.54701 646.86602,26.54701 C 647.36602,26.54701 647.36602,26.54701 647.36602,26.54701"
       id="path21439"
       inkscape:connector-curvature="0"
       style="stroke:#ff0000" />
    <g
       id="g21441"
       style="stroke:#ff0000">
      <line
         x1="647.36603"
         y1="26.54702"
         x2="647.36603"
         y2="26.54702"
         id="line21443" />
      <polyline
         points="647.36601,26.54702 647.36601,26.54702 647.36601,26.54702"
         id="polyline21445" />
    </g>
    <polyline
       points="647.36601,26.54702 706.28917,26.54702 725.93022,33.09403 732.47724,39.64105 739.02425,52.73509 739.02425,65.82912 732.47724,78.92316 725.93022,85.47017 706.28917,92.01719"
       id="polyline21447"
       style="stroke:#000000;stroke-width:6" />
    <path
       d="M 706.28917,92.01719 C 705.81483,92.1753 705.81483,92.1753 705.81483,92.1753 C 697.35091,94.99661 688.66965,98.23802 682.41831,104.60342 C 679.29264,107.78612 676.84341,111.6627 675.51442,115.92101 C 674.18543,120.17932 673.99734,124.79932 675.06229,129.13121 C 676.12724,133.4631 678.44133,137.47854 681.64868,140.57892 C 684.85602,143.6793 688.93391,145.85305 693.27744,146.86949 C 697.62097,147.88592 702.21142,147.7543 706.5257,146.62011 C 710.83998,145.48592 714.87444,143.36453 718.35689,140.57671 C 723.41549,136.52713 727.26873,131.14258 730.33354,125.43334 C 733.39835,119.7241 735.72578,113.65574 738.18489,107.66063 C 740.644,101.66552 743.26137,95.69198 746.84228,90.29146 C 750.42319,84.89094 755.03672,80.04924 760.756,77.0032 C 768.1841,73.04706 776.87974,72.30419 785.29493,72.19318 C 793.71012,72.08217 802.12552,72.37613 810.54144,72.37613 C 811.04144,72.37613 811.04144,72.37613 811.04144,72.37613"
       id="path21449"
       inkscape:connector-curvature="0"
       style="stroke:#ff0000" />
    <polyline
       points="647.36601,92.01719 706.28917,92.01719 725.93022,98.56421 732.47724,105.11122 739.02425,118.20526 739.02425,137.84631 732.47724,150.94035 725.93022,157.48736 706.28917,164.03438 647.36601,164.03438"
       id="polyline21457"
       style="stroke:#000000;stroke-width:6" />
    <path
       d="M 647.36601,164.03438 C 646.86601,164.03438 646.86601,164.03438 646.86601,164.03438 C 638.59638,164.03438 630.33058,163.72777 622.07592,163.23033 C 613.82126,162.73288 605.43136,162.20766 597.36601,164.03438 C 590.11815,165.67595 583.3278,169.29274 577.92129,174.39135 C 572.51478,179.48997 568.50651,186.05684 566.44327,193.19611 C 564.38003,200.33539 564.26733,208.02807 566.12052,215.22472 C 567.97372,222.42138 571.78789,229.10285 577.04271,234.35767 C 582.29753,239.61249 588.97901,243.42666 596.17566,245.27986 C 603.37232,247.13306 611.065,247.02035 618.20427,244.95711 C 625.34355,242.89387 631.91042,238.8856 637.00903,233.47909 C 642.10765,228.07258 645.72444,221.28223 647.366,214.03437 C 649.19272,205.96902 648.6675,197.57912 648.17005,189.32446 C 647.6726,181.0698 647.366,172.80401 647.366,164.53437 C 647.366,164.03437 647.366,164.03437 647.366,164.03437"
       id="path21459"
       inkscape:connector-curvature="0"
       style="stroke:#ff0000" />
    <g
       id="g21461"
       style="stroke:#ff0000">
      <line
         x1="647.36603"
         y1="164.03438"
         x2="647.36603"
         y2="164.03438"
         id="line21463" />
      <polyline
         points="647.36601,164.03438 647.36601,164.03438 647.36601,164.03438"
         id="polyline21465" />
    </g>
    <polyline
       points="811.04144,72.37614 797.94741,78.92316 784.85337,92.01719 778.30636,111.65824 778.30636,124.75228 784.85337,144.39333 797.94741,157.48736 811.04144,164.03438 830.6825,164.03438 843.77653,157.48736 856.87056,144.39333 863.41758,124.75228 863.41758,111.65824 856.87056,92.01719 843.77653,78.92316 830.6825,72.37614 811.04144,72.37614"
       id="polyline21467"
       style="stroke:#000000;stroke-width:6" />
    <path
       d="M 811.04144,72.37614 C 811.48865,72.15253 811.48865,72.15253 811.48865,72.15253 C 817.91903,68.93734 824.5967,65.99861 831.71008,64.95606 C 838.82347,63.91351 846.09167,64.65817 853.13061,66.12123 C 860.16955,67.58429 867.08951,69.60731 874.17129,70.84652 C 881.25307,72.08573 888.46328,72.37614 895.65266,72.37614 C 896.15266,72.37614 896.15266,72.37614 896.15266,72.37614"
       id="path21469"
       inkscape:connector-curvature="0"
       style="stroke:#ff0000" />
    <polyline
       points="915.79372,26.54702 915.79372,137.84631 922.34074,157.48736 935.43477,164.03438 948.52881,164.03438"
       id="polyline21477"
       style="stroke:#000000;stroke-width:6" />
    <path
       d="M 948.52881,164.03438 C 949.02881,164.03438 949.02881,164.03438 949.02881,164.03438 C 955.84918,164.03438 962.69685,163.95512 969.43664,162.9098 C 976.17643,161.86448 982.77512,159.86624 988.90999,156.88615 C 1001.1797,150.92597 1011.0806,141.12155 1020.546,131.29929 C 1030.0114,121.47704 1039.9123,111.67261 1052.182,105.71243 C 1058.3169,102.73234 1064.9156,100.73411 1071.6554,99.68878 C 1078.3952,98.64346 1085.2428,98.5642 1092.0632,98.5642 C 1092.5632,98.5642 1092.5632,98.5642 1092.5632,98.5642"
       id="path21479"
       inkscape:connector-curvature="0"
       style="stroke:#ff0000" />
    <line
       x1="896.15265"
       y1="72.376137"
       x2="941.98181"
       y2="72.376137"
       id="line21487"
       style="stroke:#000000;stroke-width:6" />
    <path
       d="M 941.98179,72.37614 C 942.48179,72.37614 942.48179,72.37614 942.48179,72.37614 C 947.69789,72.37614 953.04561,72.18936 957.8648,70.19357 C 962.68398,68.19778 966.75343,64.41614 968.98804,59.70294 C 971.22265,54.98974 971.62141,49.57245 970.97118,44.39703 C 970.32096,39.22161 968.70956,34.22254 967.57813,29.13063 C 966.39976,23.82744 965.75524,18.39378 964.1187,13.21362 C 962.07457,6.7433 958.34595,0.65295 952.83635,-3.30784 C 950.08155,-5.28824 946.91679,-6.71122 943.58869,-7.37047 C 940.26059,-8.02972 936.77844,-7.9171 933.50879,-7.0114 C 930.23914,-6.1057 927.19625,-4.40976 924.67989,-2.13406 C 922.16353,0.14164 920.18088,2.98362 918.79345,6.07973 C 916.01859,12.27196 915.79371,19.26148 915.79371,26.04702 C 915.79371,26.54702 915.79371,26.54702 915.79371,26.54702"
       id="path21489"
       inkscape:connector-curvature="0"
       style="stroke:#ff0000" />
    <line
       x1="1092.5632"
       y1="26.54702"
       x2="1092.5632"
       y2="164.03438"
       id="line21497"
       style="stroke:#000000;stroke-width:6" />
    <path
       d="M 1092.5632,164.03438 C 1092.5632,164.53438 1092.5632,164.53438 1092.5632,164.53438 C 1092.5632,181.04858 1090.3577,197.66812 1092.5632,214.03438 C 1094.7817,230.4967 1103.1454,246.05827 1115.651,256.99167 C 1128.1566,267.92507 1144.6958,274.13556 1161.3069,274.13556 C 1177.918,274.13556 1194.4572,267.92507 1206.9628,256.99167 C 1219.4684,246.05827 1227.8321,230.4967 1230.0506,214.03438 C 1232.2561,197.66812 1230.0506,181.04858 1230.0506,164.53438 C 1230.0506,164.03438 1230.0506,164.03438 1230.0506,164.03438"
       id="path21499"
       inkscape:connector-curvature="0"
       style="stroke:#ff0000" />
    <polyline
       points="1092.56319,26.54702 1151.48634,26.54702 1171.12739,33.09403 1177.67441,39.64105 1184.22143,52.73509 1184.22143,72.37614 1177.67441,85.47017 1171.12739,92.01719 1151.48634,98.56421 1092.56319,98.56421"
       id="polyline21507"
       style="stroke:#000000;stroke-width:6" />
    <path
       d="M 1092.5632,26.54702 C 1092.0632,26.54702 1092.0632,26.54702 1092.0632,26.54702 C 1083.7936,26.54702 1075.5278,26.85363 1067.2731,27.35107 C 1059.0184,27.84852 1050.6285,28.37374 1042.5632,26.54702 C 1035.3153,24.90545 1028.525,21.28866 1023.1185,16.19005 C 1017.712,11.09143 1013.7037,4.52456 1011.6405,-2.61471 C 1009.5772,-9.75399 1009.4645,-17.44667 1011.3177,-24.64332 C 1013.1709,-31.83998 1016.9851,-38.52145 1022.2399,-43.77627 C 1027.4947,-49.03109 1034.1762,-52.84526 1041.3728,-54.69846 C 1048.5695,-56.55166 1056.2622,-56.43895 1063.4015,-54.37571 C 1070.5407,-52.31247 1077.1076,-48.3042 1082.2062,-42.89769 C 1087.3048,-37.49118 1090.9216,-30.70083 1092.5632,-23.45297 C 1094.3899,-15.38762 1093.8647,-6.99772 1093.3672,1.25694 C 1092.8698,9.5116 1092.5632,17.77739 1092.5632,26.04703 C 1092.5632,26.54703 1092.5632,26.54703 1092.5632,26.54703"
       id="path21509"
       inkscape:connector-curvature="0"
       style="stroke:#ff0000" />
    <g
       id="g21511"
       style="stroke:#ff0000">
      <line
         x1="1092.5632"
         y1="26.54702"
         x2="1092.5632"
         y2="26.54702"
         id="line21513" />
      <polyline
         points="1092.56319,26.54702 1092.56319,26.54702 1092.56319,26.54702"
         id="polyline21515" />
    </g>
    <line
       x1="1230.0505"
       y1="72.376137"
       x2="1230.0505"
       y2="164.03438"
       id="line21517"
       style="stroke:#000000;stroke-width:6" />
    <path
       d="M 1230.0506,72.37614 C 1230.0506,71.87614 1230.0506,71.87614 1230.0506,71.87614 C 1230.0506,63.47375 1230.6301,55.08491 1231.5667,46.73488 C 1232.0349,42.55986 1232.485,38.36969 1232.4199,34.169 C 1232.3548,29.96831 1231.7468,25.71967 1230.0506,21.87614 C 1227.5789,16.2757 1222.8082,11.79062 1217.1784,9.3866 C 1211.5486,6.98257 1205.1226,6.62048 1199.1769,8.07737 C 1193.2312,9.53427 1187.7736,12.76275 1183.4065,17.05251 C 1179.0393,21.34227 1175.7451,26.66844 1173.5549,32.38482 C 1169.1745,43.81758 1169.2267,56.53234 1171.2719,68.60351 C 1173.3172,80.67468 1177.2641,92.32613 1180.5381,104.12348 C 1182.2883,110.43019 1183.9161,116.88166 1187.2885,122.49102 C 1188.9747,125.2957 1191.0871,127.86258 1193.6411,129.90868 C 1196.1951,131.95477 1199.1917,133.46562 1202.3836,134.18762 C 1205.5755,134.90962 1208.947,134.83119 1212.0969,133.94353 C 1215.2467,133.05587 1218.1542,131.3671 1220.5585,129.14695 C 1222.9627,126.9268 1224.8587,124.19412 1226.3306,121.27128 C 1227.8025,118.34844 1228.8576,115.23719 1229.8924,112.13259 C 1230.0506,111.65825 1230.0506,111.65825 1230.0506,111.65825"
       id="path21519"
       inkscape:connector-curvature="0"
       style="stroke:#ff0000" />
    <polyline
       points="1230.05055,111.65824 1236.59757,92.01719 1249.6916,78.92316 1262.78564,72.37614 1282.42669,72.37614"
       id="polyline21527"
       style="stroke:#000000;stroke-width:6" />
    <path
       d="M 1282.4267,72.37614 C 1282.9267,72.37614 1282.9267,72.37614 1282.9267,72.37614 C 1340.8499,72.37614 1340.8499,72.37614 1340.8499,72.37614 C 1341.3499,72.37614 1341.3499,72.37614 1341.3499,72.37614"
       id="path21529"
       inkscape:connector-curvature="0"
       style="stroke:#ff0000" />
    <polyline
       points="1341.34984,72.37614 1328.25581,78.92316 1315.16177,92.01719 1308.61476,111.65824 1308.61476,124.75228 1315.16177,144.39333 1328.25581,157.48736 1341.34984,164.03438 1360.99089,164.03438 1374.08493,157.48736 1387.17896,144.39333 1393.72598,124.75228 1393.72598,111.65824 1387.17896,92.01719 1374.08493,78.92316 1360.99089,72.37614 1341.34984,72.37614"
       id="polyline21537"
       style="stroke:#000000;stroke-width:6" />
    <path
       d="M 1341.3498,72.37614 C 1341.7971,72.15253 1341.7971,72.15253 1341.7971,72.15253 C 1350.3842,67.85894 1359.1613,63.87651 1368.3638,61.1402 C 1377.5664,58.40389 1387.0502,56.75645 1396.4096,54.61733 C 1405.769,52.47821 1415.0479,49.62412 1423.4259,44.93539 C 1431.8038,40.24667 1438.9598,33.68933 1445.7486,26.90056 C 1446.1021,26.54701 1446.1021,26.54701 1446.1021,26.54701"
       id="path21539"
       inkscape:connector-curvature="0"
       style="stroke:#ff0000" />
    <polyline
       points="1446.10212,26.54702 1452.64914,33.09403 1459.19615,26.54702 1452.64914,20 1446.10212,26.54702"
       id="polyline21547"
       style="stroke:#000000;stroke-width:6" />
    <path
       d="M 1446.1021,26.54702 C 1445.7486,26.19347 1445.7486,26.19347 1445.7486,26.19347 C 1441.6893,22.13421 1437.6616,17.81279 1435.5793,12.46307 C 1433.4971,7.11334 1433.5508,0.92134 1435.982,-4.27906 C 1438.4133,-9.47946 1443.0167,-13.46983 1448.2309,-15.87139 C 1453.4451,-18.27294 1459.1958,-19.21664 1464.8827,-20.0005 C 1546.7628,-31.28659 1629.7439,-18.28193 1711.9096,-9.30831 C 1716.6507,-8.79052 1721.4201,-8.26978 1726.0007,-6.94147 C 1730.5813,-5.61316 1734.9647,-3.42784 1738.471,-0.19481 C 1741.9772,3.03822 1744.509,7.28152 1745.833,11.86337 C 1747.1569,16.44522 1747.2649,21.27773 1747.2649,26.04703 C 1747.2649,26.54703 1747.2649,26.54703 1747.2649,26.54703"
       id="path21549"
       inkscape:connector-curvature="0"
       style="stroke:#ff0000" />
    <polyline
       points="1452.64914,72.37614 1452.64914,183.67543 1446.10212,203.31648 1433.00808,209.8635 1419.91405,209.8635"
       id="polyline21557"
       style="stroke:#000000;stroke-width:6" />
    <path
       d="M 1419.9141,209.8635 C 1419.4141,209.8635 1419.4141,209.8635 1419.4141,209.8635 C 1402.9139,209.8635 1386.4124,209.62044 1369.9141,209.8635 C 1288.3474,211.06515 1205.201,229.07937 1137.2938,274.2809 C 1103.3403,296.88167 1073.6042,326.12661 1051.9686,360.70322 C 1030.333,395.27983 1016.9552,435.24323 1015.2154,475.99384 C 1014.5115,492.48026 1015.2154,508.9924 1015.2154,525.49384 C 1015.2154,525.99384 1015.2154,525.99384 1015.2154,525.99384"
       id="path21559"
       inkscape:connector-curvature="0"
       style="stroke:#ff0000" />
    <polyline
       points="1498.47826,111.65824 1577.04246,111.65824 1577.04246,98.56421 1570.49545,85.47017 1563.94843,78.92316 1550.8544,72.37614 1531.21334,72.37614 1518.11931,78.92316 1505.02527,92.01719 1498.47826,111.65824 1498.47826,124.75228 1505.02527,144.39333 1518.11931,157.48736 1531.21334,164.03438 1550.8544,164.03438 1563.94843,157.48736 1577.04246,144.39333"
       id="polyline21567"
       style="stroke:#000000;stroke-width:6" />
    <path
       d="M 1498.4783,111.65824 C 1497.9783,111.65824 1497.9783,111.65824 1497.9783,111.65824 C 1488.8994,111.65824 1479.7282,112.15019 1470.8054,110.47387 C 1466.3441,109.63571 1461.934,108.12976 1458.2669,105.45419 C 1454.5998,102.77862 1451.7226,98.80521 1451.084,94.31093 C 1450.6844,91.49834 1451.1742,88.59171 1452.2989,85.983 C 1453.4236,83.37428 1455.1666,81.05635 1457.2302,79.10395 C 1461.3575,75.19916 1466.6564,72.79273 1471.9491,70.72676 C 1477.2419,68.66079 1482.6851,66.84064 1487.5132,63.84548 C 1489.9273,62.3479 1492.1759,60.55682 1494.0292,58.4038 C 1495.8826,56.25078 1497.3341,53.72589 1498.0748,50.9833 C 1499.0625,47.32595 1498.7391,43.34226 1497.2506,39.85858 C 1495.7621,36.3749 1493.1298,33.40574 1489.8959,31.43258 C 1486.6619,29.45942 1482.8475,28.47953 1479.0597,28.54482 C 1475.2718,28.6101 1471.5223,29.70759 1468.2325,31.58614 C 1461.6529,35.34323 1457.1497,42.10372 1454.9426,49.35186 C 1452.7354,56.6 1452.6491,64.29941 1452.6491,71.87615 C 1452.6491,72.37615 1452.6491,72.37615 1452.6491,72.37615"
       id="path21569"
       inkscape:connector-curvature="0"
       style="stroke:#ff0000" />
    <polyline
       points="1694.88878,92.01719 1681.79474,78.92316 1668.70071,72.37614 1649.05965,72.37614 1635.96562,78.92316 1622.87159,92.01719 1616.32457,111.65824 1616.32457,124.75228 1622.87159,144.39333 1635.96562,157.48736 1649.05965,164.03438 1668.70071,164.03438 1681.79474,157.48736 1694.88878,144.39333"
       id="polyline21577"
       style="stroke:#000000;stroke-width:6" />
    <path
       d="M 1694.8888,144.39333 C 1695.2423,144.03978 1695.2423,144.03978 1695.2423,144.03978 C 1699.5829,139.6992 1703.9061,135.13314 1706.3566,129.50493 C 1708.807,123.87672 1709.2056,117.28815 1706.9507,111.57879 C 1704.6958,105.86944 1699.9007,101.29346 1694.2123,98.98611 C 1688.524,96.67877 1682.1082,96.54926 1676.1082,97.8458 C 1666.4293,99.93729 1657.8918,105.46007 1649.6795,110.99294 C 1641.4672,116.52581 1633.1349,122.26931 1623.59,124.9056 C 1615.3474,127.1822 1606.5899,127.26233 1598.4542,129.8954 C 1594.3863,131.21193 1590.5072,133.11721 1587.0064,135.5718 C 1583.5056,138.02639 1580.4194,141.01646 1577.396,144.03977 C 1577.0425,144.39332 1577.0425,144.39332 1577.0425,144.39332"
       id="path21579"
       inkscape:connector-curvature="0"
       style="stroke:#ff0000" />
    <polyline
       points="1747.26491,26.54702 1747.26491,137.84631 1753.81193,157.48736 1766.90597,164.03438 1780,164.03438"
       id="polyline21587"
       style="stroke:#000000;stroke-width:6" />
    <path
       d="M 1780,164.03438 C 1780.5,164.03438 1780.5,164.03438 1780.5,164.03438 C 1785.4131,164.03438 1790.3885,163.93568 1795.1197,162.61117 C 1799.8508,161.28665 1804.2627,158.73292 1807.588,155.11626 C 1810.9134,151.4996 1813.1025,146.91089 1814.1407,142.10877 C 1815.1789,137.30665 1815.1151,132.32426 1814.5726,127.44124 C 1813.7854,120.35626 1812.0298,113.42121 1810.5461,106.44874 C 1809.5686,101.85504 1808.6919,97.21933 1807.1151,92.79537 C 1805.5384,88.37141 1803.2157,84.16238 1799.9347,80.80195 C 1796.6537,77.44152 1792.4484,75.01917 1787.9266,73.75011 C 1783.4048,72.48105 1778.6495,72.37615 1773.953,72.37615 C 1773.453,72.37615 1773.453,72.37615 1773.453,72.37615"
       id="path21589"
       inkscape:connector-curvature="0"
       style="stroke:#ff0000" />
    <line
       x1="1727.6239"
       y1="72.376137"
       x2="1773.453"
       y2="72.376137"
       id="line21597"
       style="stroke:#000000;stroke-width:6" />
    <path
       d="M 1727.6239,72.37614 C 1727.1239,72.37614 1727.1239,72.37614 1727.1239,72.37614 C 1718.5586,72.37614 1710.0562,71.12693 1701.7227,69.14764 C 1697.5559,68.15799 1693.3176,67.20895 1689.0384,67.38059 C 1686.8988,67.46641 1684.7578,67.84551 1682.7744,68.6527 C 1680.7911,69.45989 1678.9671,70.70848 1677.6239,72.37615 C 1676.2631,74.06565 1675.4256,76.1569 1675.1619,78.31018 C 1674.8982,80.46346 1675.2001,82.67375 1675.9538,84.70798 C 1677.4611,88.77644 1680.7289,92.04051 1684.5337,94.12576 C 1688.3384,96.21101 1692.6577,97.20187 1696.9725,97.65646 C 1701.2873,98.11104 1705.6372,98.05225 1709.9744,98.16858 C 1714.3115,98.28491 1718.6794,98.58265 1722.8645,99.72696 C 1727.0496,100.87127 1731.0737,102.91602 1734.017,106.10369 C 1735.4887,107.69752 1736.6747,109.56527 1737.4126,111.60528 C 1738.1505,113.64529 1738.4337,115.85841 1738.1503,118.00918 C 1737.867,120.15995 1737.0087,122.24323 1735.6301,123.91825 C 1734.2515,125.59327 1732.3487,126.84634 1730.2441,127.37254 C 1728.1414,127.89828 1725.891,127.69353 1723.8455,126.97652 C 1721.8001,126.25951 1719.95,125.04765 1718.3433,123.59288 C 1715.1299,120.68335 1712.8753,116.88599 1710.7231,113.12306 C 1708.5709,109.36012 1706.444,105.56929 1703.8766,102.07645 C 1701.3092,98.58361 1698.3076,95.43602 1695.2423,92.37076 C 1694.8888,92.01721 1694.8888,92.01721 1694.8888,92.01721"
       id="path21599"
       inkscape:connector-curvature="0"
       style="stroke:#ff0000" />
    <line
       x1="26.615749"
       y1="525.99384"
       x2="26.615749"
       y2="663.4812"
       id="line21607"
       style="stroke:#000000;stroke-width:6" />
    <path
       d="M 26.61575,663.48121 C 26.61575,663.98121 26.61575,663.98121 26.61575,663.98121 C 26.61575,672.25084 26.92236,680.51664 27.4198,688.7713 C 27.91725,697.02596 28.44247,705.41586 26.61575,713.48121 C 24.97418,720.72907 21.35739,727.51942 16.25878,732.92593 C 11.16016,738.33244 4.59329,742.34071 -2.54598,744.40395 C -9.68526,746.46719 -17.37794,746.57989 -24.57459,744.7267 C -31.77125,742.8735 -38.45272,739.05933 -43.70754,733.80451 C -48.96236,728.54969 -52.77653,721.86821 -54.62973,714.67156 C -56.48293,707.4749 -56.37022,699.78222 -54.30698,692.64295 C -52.24374,685.50367 -48.23547,678.9368 -42.82896,673.83819 C -37.42245,668.73957 -30.6321,665.12278 -23.38424,663.48122 C -15.31889,661.6545 -6.92899,662.17972 1.32567,662.67717 C 9.58033,663.17462 17.84612,663.48122 26.11576,663.48122 C 26.61576,663.48122 26.61576,663.48122 26.61576,663.48122"
       id="path21609"
       inkscape:connector-curvature="0"
       style="stroke:#ff0000" />
    <g
       id="g21611"
       style="stroke:#ff0000">
      <line
         x1="26.615749"
         y1="663.4812"
         x2="26.615749"
         y2="663.4812"
         id="line21613" />
      <polyline
         points="26.61575,663.48121 26.61575,663.48121 26.61575,663.48121"
         id="polyline21615" />
    </g>
    <line
       x1="26.615749"
       y1="525.99384"
       x2="111.72697"
       y2="525.99384"
       id="line21617"
       style="stroke:#000000;stroke-width:6" />
    <path
       d="M 26.61575,525.99385 C 26.11575,525.99385 26.11575,525.99385 26.11575,525.99385 C 17.78657,525.99385 9.47293,525.376 1.20371,524.37841 C -2.9309,523.87961 -7.08292,523.40027 -11.24692,523.47032 C -15.41092,523.54037 -19.62936,524.19256 -23.38425,525.99385 C -28.50113,528.44851 -32.51091,533.01711 -34.5303,538.32087 C -36.54969,543.62463 -36.61438,549.60409 -34.96649,555.03476 C -33.3186,560.46543 -30.00321,565.33903 -25.73308,569.07719 C -21.46295,572.81534 -16.26266,575.43471 -10.78298,576.91148 C 0.17639,579.86502 11.96603,578.24591 22.64944,574.41238 C 33.33285,570.57885 43.11022,564.63364 52.80382,558.72895 C 62.49741,552.82426 72.27479,546.87904 82.95819,543.0455 C 93.64159,539.21197 105.43124,537.59285 116.39061,540.54638 C 121.87029,542.02315 127.07059,544.64251 131.34071,548.38066 C 135.61084,552.11881 138.92623,556.99241 140.57413,562.42308 C 142.22203,567.85375 142.15734,573.83322 140.13795,579.13697 C 138.11856,584.44073 134.10878,589.00933 128.9919,591.464 C 125.23701,593.26529 121.01858,593.91748 116.85457,593.98753 C 112.69057,594.05758 108.53855,593.57824 104.40394,593.07944 C 96.13471,592.08185 87.82108,591.464 79.4919,591.464 C 78.9919,591.464 78.9919,591.464 78.9919,591.464"
       id="path21619"
       inkscape:connector-curvature="0"
       style="stroke:#ff0000" />
    <line
       x1="26.615749"
       y1="591.46405"
       x2="78.99189"
       y2="591.46405"
       id="line21627"
       style="stroke:#000000;stroke-width:6" />
    <path
       d="M 26.61575,591.46402 C 26.11575,591.46402 26.11575,591.46402 26.11575,591.46402 C 21.38902,591.46402 16.59403,591.3452 12.07194,589.96945 C 7.54985,588.59371 3.40385,585.97653 0.28494,582.42486 C -2.83397,578.87319 -4.89572,574.49374 -6.23976,569.96212 C -7.58379,565.4305 -8.26419,560.73367 -9.23959,556.10868 C -11.48644,545.455 -15.3562,535.21729 -18.1651,524.69782 C -20.974,514.17835 -22.71645,503.09472 -20.6011,492.41416 C -19.54343,487.07388 -17.50964,481.89424 -14.36943,477.44718 C -11.22922,473.00012 -6.95806,469.30587 -1.96368,467.13944 C 3.0307,464.97301 8.75138,464.38716 14.00565,465.81192 C 19.25992,467.23668 23.98405,470.7282 26.61574,475.49386 C 28.65455,479.18588 29.4076,483.47121 29.48904,487.68798 C 29.57048,491.90474 29.02469,496.1063 28.45665,500.28543 C 27.32058,508.64368 26.61574,517.05876 26.61574,525.49386 C 26.61574,525.99386 26.61574,525.99386 26.61574,525.99386"
       id="path21629"
       inkscape:connector-curvature="0"
       style="stroke:#ff0000" />
    <line
       x1="26.615749"
       y1="663.4812"
       x2="111.72697"
       y2="663.4812"
       id="line21637"
       style="stroke:#000000;stroke-width:6" />
    <path
       d="M 111.72697,663.48121 C 112.22697,663.48121 112.22697,663.48121 112.22697,663.48121 C 117.14971,663.48121 122.15101,663.60516 126.84075,665.10175 C 131.53049,666.59833 135.79642,669.46137 138.82278,673.34397 C 141.84913,677.22657 143.59654,682.00273 144.32541,686.87122 C 145.05428,691.73971 144.82804,696.69478 144.57098,701.61081 C 137.93819,828.45469 120.04836,955.08357 84.62899,1077.0624 C 83.21649,1081.9268 81.74592,1086.8214 79.30889,1091.262 C 76.87186,1095.7025 73.39945,1099.654 68.99027,1102.1474 C 64.58109,1104.6407 59.33879,1105.5546 54.31702,1104.8916 C 49.29525,1104.2286 44.61886,1102.0461 40.08828,1099.7808 C 39.64107,1099.5572 39.64107,1099.5572 39.64107,1099.5572"
       id="path21639"
       inkscape:connector-curvature="0"
       style="stroke:#ff0000" />
    <line
       x1="177.19714"
       y1="525.99384"
       x2="177.19714"
       y2="663.4812"
       id="line21647"
       style="stroke:#000000;stroke-width:6" />
    <path
       d="M 177.19715,525.99385 C 177.19715,525.49385 177.19715,525.49385 177.19715,525.49385 C 177.19715,520.75514 177.31276,515.94969 178.6731,511.41043 C 180.03344,506.87117 182.62526,502.69673 186.16327,499.54428 C 189.70128,496.39183 194.08134,494.29373 198.62676,492.9541 C 203.17217,491.61447 207.88921,490.98069 212.55249,490.13851 C 220.83578,488.64257 228.99207,486.44176 237.33245,485.30652 C 245.67283,484.17128 254.34862,484.1437 262.29711,486.91356 C 266.27136,488.29849 270.02297,490.38216 273.15684,493.19135 C 276.29071,496.00054 278.79381,499.54749 280.18808,503.51847 C 281.58235,507.48945 281.83933,511.88448 280.7109,515.93902 C 279.58247,519.99356 277.03869,523.6753 273.52627,525.99384 C 269.9921,528.32674 265.66974,529.21557 261.43615,529.31272 C 257.20256,529.40987 252.98888,528.77942 248.80534,528.1231 C 240.43827,526.81046 231.99568,525.99384 223.52627,525.99384 C 223.02627,525.99384 223.02627,525.99384 223.02627,525.99384"
       id="path21649"
       inkscape:connector-curvature="0"
       style="stroke:#ff0000" />
    <line
       x1="131.36803"
       y1="525.99384"
       x2="223.02628"
       y2="525.99384"
       id="line21657"
       style="stroke:#000000;stroke-width:6" />
    <path
       d="M 131.36802,525.99385 C 130.86802,525.99385 130.86802,525.99385 130.86802,525.99385 C 112.22697,525.99385 112.22697,525.99385 112.22697,525.99385 C 111.72697,525.99385 111.72697,525.99385 111.72697,525.99385"
       id="path21659"
       inkscape:connector-curvature="0"
       style="stroke:#ff0000" />
    <line
       x1="255.76135"
       y1="525.99384"
       x2="255.76135"
       y2="663.4812"
       id="line21667"
       style="stroke:#000000;stroke-width:6" />
    <path
       d="M 255.76135,663.48121 C 255.76135,663.98121 255.76135,663.98121 255.76135,663.98121 C 255.76135,672.25229 256.07906,680.51924 256.59445,688.77425 C 257.10984,697.02925 257.65321,705.4294 255.76135,713.48121 C 253.70001,722.25436 248.60132,730.28341 241.53753,735.87986 C 234.47374,741.4763 225.49131,744.60333 216.47925,744.60333 C 207.46719,744.60333 198.48476,741.4763 191.42097,735.87986 C 184.35718,730.28342 179.25849,722.25436 177.19715,713.48121 C 175.3053,705.4294 175.84867,697.02925 176.36405,688.77425 C 176.87944,680.51925 177.19715,672.25229 177.19715,663.98121 C 177.19715,663.48121 177.19715,663.48121 177.19715,663.48121"
       id="path21669"
       inkscape:connector-curvature="0"
       style="stroke:#ff0000" />
    <line
       x1="347.41959"
       y1="525.99384"
       x2="347.41959"
       y2="663.4812"
       id="line21677"
       style="stroke:#000000;stroke-width:6" />
    <path
       d="M 347.41959,663.48121 C 347.41959,663.98121 347.41959,663.98121 347.41959,663.98121 C 347.41959,672.40703 346.748,680.81468 345.66473,689.17057 C 345.12309,693.34852 344.60263,697.54683 344.67961,701.75904 C 344.75659,705.97125 345.47045,710.24631 347.41959,713.98121 C 350.13638,719.18708 355.21158,723.02475 360.87815,724.56489 C 366.54472,726.10503 372.72611,725.41381 378.07323,722.98682 C 383.42035,720.55983 387.93758,716.45928 391.18608,711.56752 C 394.43457,706.67576 396.44366,701.01554 397.38299,695.21901 C 399.26165,683.62597 396.92718,671.75188 393.55111,660.50332 C 390.17504,649.25476 385.74596,638.30073 383.27493,626.81935 C 382.28076,622.20005 381.59379,617.506 380.24915,612.9763 C 378.90451,608.44659 376.84791,604.0672 373.73374,600.51357 C 370.61957,596.95995 366.47759,594.33916 361.9579,592.96123 C 357.43821,591.58329 352.64466,591.46401 347.91959,591.46401 C 347.41959,591.46401 347.41959,591.46401 347.41959,591.46401"
       id="path21679"
       inkscape:connector-curvature="0"
       style="stroke:#ff0000" />
    <line
       x1="255.76135"
       y1="591.46405"
       x2="347.41959"
       y2="591.46405"
       id="line21687"
       style="stroke:#000000;stroke-width:6" />
    <path
       d="M 255.76135,591.46402 C 255.26135,591.46402 255.26135,591.46402 255.26135,591.46402 C 250.53462,591.46402 245.73963,591.3452 241.21754,589.96945 C 236.69545,588.59371 232.54945,585.97653 229.43054,582.42486 C 226.31163,578.87319 224.24988,574.49374 222.90584,569.96212 C 221.56181,565.4305 220.88141,560.73367 219.90601,556.10868 C 217.65916,545.455 213.7894,535.21729 210.9805,524.69782 C 208.1716,514.17835 206.42915,503.09472 208.5445,492.41416 C 209.60217,487.07388 211.63596,481.89424 214.77617,477.44718 C 217.91638,473.00012 222.18754,469.30587 227.18192,467.13944 C 232.1763,464.97301 237.89698,464.38716 243.15125,465.81192 C 248.40552,467.23668 253.12965,470.7282 255.76134,475.49386 C 257.80015,479.18588 258.5532,483.47121 258.63464,487.68798 C 258.71608,491.90474 258.17029,496.1063 257.60225,500.28543 C 256.46618,508.64368 255.76134,517.05876 255.76134,525.49386 C 255.76134,525.99386 255.76134,525.99386 255.76134,525.99386"
       id="path21689"
       inkscape:connector-curvature="0"
       style="stroke:#ff0000" />
    <line
       x1="589.65924"
       y1="525.99384"
       x2="498.00098"
       y2="663.4812"
       id="line21697"
       style="stroke:#000000;stroke-width:6" />
    <path
       d="M 589.65923,525.99385 C 589.93658,525.57782 589.93658,525.57782 589.93658,525.57782 C 594.60263,518.57875 598.79559,511.27567 602.53832,503.74235 C 604.40968,499.97569 606.26673,496.19171 608.50405,492.63023 C 610.74137,489.06875 613.39506,485.71314 616.73029,483.15072 C 622.53893,478.68802 630.34224,476.93095 637.50304,478.47331 C 644.66384,480.01567 651.05186,484.82942 654.50823,491.28771 C 657.9646,497.746 658.42644,505.73134 655.73767,512.54503 C 653.0489,519.35873 647.25842,524.87682 640.32318,527.23445 C 636.34107,528.58816 632.07703,528.93481 627.87266,528.82081 C 623.66829,528.70682 619.48973,528.153 615.31763,527.6207 C 606.97343,526.5561 598.57107,525.99384 590.15923,525.99384 C 589.65923,525.99384 589.65923,525.99384 589.65923,525.99384"
       id="path21699"
       inkscape:connector-curvature="0"
       style="stroke:#ff0000" />
    <g
       id="g21701"
       style="stroke:#ff0000">
      <line
         x1="589.65924"
         y1="525.99384"
         x2="589.65924"
         y2="525.99384"
         id="line21703" />
      <polyline
         points="589.65923,525.99385 589.65923,525.99385 589.65923,525.99385"
         id="polyline21705" />
    </g>
    <line
       x1="498.00098"
       y1="525.99384"
       x2="589.65924"
       y2="525.99384"
       id="line21707"
       style="stroke:#000000;stroke-width:6" />
    <path
       d="M 498.00099,525.99385 C 497.50099,525.99385 497.50099,525.99385 497.50099,525.99385 C 489.22308,525.99385 480.95063,526.35958 472.69399,526.95254 C 464.43735,527.54551 455.98874,528.16631 448.00099,525.99385 C 437.52789,523.14543 428.94033,515.60742 421.98776,507.27308 C 415.0352,498.93874 409.32202,489.61361 402.16273,481.45616 C 395.00344,473.29871 385.97429,466.16093 375.31677,464.10746 C 369.98801,463.08072 364.35076,463.39623 359.30683,465.39837 C 354.2629,467.40051 349.85771,471.14561 347.4196,475.99385 C 345.54704,479.71748 344.86478,483.9435 344.79135,488.11082 C 344.71791,492.27814 345.21715,496.4325 345.73668,500.56796 C 346.77573,508.83888 347.41961,517.15792 347.41961,525.49385 C 347.41961,525.99385 347.41961,525.99385 347.41961,525.99385"
       id="path21709"
       inkscape:connector-curvature="0"
       style="stroke:#ff0000" />
    <line
       x1="498.00098"
       y1="663.4812"
       x2="589.65924"
       y2="663.4812"
       id="line21717"
       style="stroke:#000000;stroke-width:6" />
    <path
       d="M 498.00099,663.48121 C 497.50099,663.48121 497.50099,663.48121 497.50099,663.48121 C 489.08915,663.48121 480.68679,662.91894 472.34259,661.85435 C 468.17049,661.32205 463.99193,660.76824 459.78756,660.65424 C 455.58319,660.54025 451.31915,660.88689 447.33704,662.2406 C 440.4018,664.59822 434.61133,670.11632 431.92255,676.93002 C 429.23378,683.74372 429.69562,691.72906 433.15199,698.18734 C 436.60836,704.64563 442.99638,709.45937 450.15718,711.00174 C 457.31798,712.5441 465.12129,710.78703 470.92993,706.32433 C 474.26516,703.76192 476.91885,700.40631 479.15617,696.84482 C 481.39349,693.28334 483.25053,689.49937 485.1219,685.7327 C 488.86463,678.19938 493.05759,670.8963 497.72364,663.89723 C 498.00099,663.4812 498.00099,663.4812 498.00099,663.4812"
       id="path21719"
       inkscape:connector-curvature="0"
       style="stroke:#ff0000" />
    <g
       id="g21721"
       style="stroke:#ff0000">
      <line
         x1="498.00098"
         y1="663.4812"
         x2="498.00098"
         y2="663.4812"
         id="line21723" />
      <polyline
         points="498.00099,663.48121 498.00099,663.48121 498.00099,663.48121"
         id="polyline21725" />
    </g>
    <polyline
       points="635.48835,571.82297 635.48835,637.29314 642.03537,656.93419 655.12941,663.48121 674.77046,663.48121 687.86449,656.93419 707.50554,637.29314"
       id="polyline21727"
       style="stroke:#000000;stroke-width:6" />
    <path
       d="M 635.48835,571.82297 C 635.48835,571.32297 635.48835,571.32297 635.48835,571.32297 C 635.48835,563.75013 635.27086,555.95938 632.26566,549.00837 C 630.76306,545.53286 628.60242,542.32526 625.8282,539.74831 C 623.05398,537.17136 619.67061,535.24107 616.01826,534.24241 C 612.36591,533.24374 608.4597,533.18422 604.78143,534.08269 C 601.10316,534.98117 597.66678,536.8315 594.86487,539.37832 C 589.26106,544.47196 586.42411,552.27316 586.82589,559.83533 C 587.23711,567.57505 590.77585,574.87623 595.45272,581.05679 C 600.12959,587.23734 605.93105,592.45762 611.58126,597.76304 C 617.23147,603.06845 622.82145,608.56562 626.94059,615.13106 C 631.05973,621.6965 633.63374,629.50149 632.69176,637.19466 C 632.1312,641.77275 630.32794,646.18067 627.59457,649.89574 C 624.8612,653.61081 621.21357,656.623 617.12715,658.76176 C 613.04073,660.90051 608.53466,662.16764 603.96753,662.81141 C 599.4004,663.45518 594.7715,663.48122 590.15922,663.48122 C 589.65922,663.48122 589.65922,663.48122 589.65922,663.48122"
       id="path21729"
       inkscape:connector-curvature="0"
       style="stroke:#ff0000" />
    <line
       x1="707.50555"
       y1="571.823"
       x2="707.50555"
       y2="663.4812"
       id="line21737"
       style="stroke:#000000;stroke-width:6" />
    <path
       d="M 707.50554,663.48121 C 707.50554,663.98121 707.50554,663.98121 707.50554,663.98121 C 707.50554,672.41535 706.80406,680.82967 705.67331,689.18768 C 705.10794,693.36668 704.5647,697.56791 704.64569,701.7842 C 704.72668,706.00049 705.47575,710.28478 707.50554,713.98121 C 709.66256,717.90935 713.22945,721.00979 717.3495,722.7728 C 721.46955,724.53581 726.11374,724.98093 730.53001,724.21962 C 734.94628,723.45831 739.12967,721.51357 742.67955,718.77835 C 746.22943,716.04314 749.15313,712.5311 751.37115,708.63708 C 755.8072,700.84904 757.37422,691.69286 757.30662,682.73029 C 757.23902,673.76773 755.62093,664.89837 754.05308,656.07375 C 753.05536,650.45811 752.03414,644.76986 749.62673,639.59925 C 747.21932,634.42864 743.2918,629.83677 738.14398,627.38101 C 732.99616,624.92525 726.84195,624.81999 721.51693,626.86327 C 716.19191,628.90655 711.89214,632.90654 707.8591,636.93958 C 707.50555,637.29313 707.50555,637.29313 707.50555,637.29313"
       id="path21739"
       inkscape:connector-curvature="0"
       style="stroke:#ff0000" />
    <line
       x1="759.88165"
       y1="571.823"
       x2="759.88165"
       y2="663.4812"
       id="line21747"
       style="stroke:#000000;stroke-width:6" />
    <path
       d="M 759.88168,571.82297 C 759.88168,571.32297 759.88168,571.32297 759.88168,571.32297 C 759.88168,563.02806 760.34608,554.74194 761.09799,546.48118 C 761.8499,538.22042 762.62339,529.65167 759.88168,521.82297 C 757.99553,516.43725 754.40174,511.66392 749.74735,508.36238 C 745.09296,505.06084 739.40005,503.24676 733.69361,503.24676 C 727.98717,503.24676 722.29426,505.06084 717.63987,508.36238 C 712.98548,511.66392 709.39169,516.43726 707.50554,521.82297 C 704.76383,529.65167 705.53732,538.22042 706.28923,546.48118 C 707.04114,554.74194 707.50554,563.02806 707.50554,571.32297 C 707.50554,571.82297 707.50554,571.82297 707.50554,571.82297"
       id="path21749"
       inkscape:connector-curvature="0"
       style="stroke:#ff0000" />
    <polyline
       points="759.88168,611.10507 766.4287,591.46402 779.52273,578.36998 792.61677,571.82297 812.25782,571.82297"
       id="polyline21757"
       style="stroke:#000000;stroke-width:6" />
    <path
       d="M 759.88168,611.10507 C 759.72357,611.57941 759.72357,611.57941 759.72357,611.57941 C 757.07766,619.51714 754.99133,627.671 754.27338,636.00725 C 753.55543,644.3435 753.90333,652.85806 751.71446,660.93378 C 750.11633,666.82996 747.14853,672.24381 744.40017,677.69958 C 741.65181,683.15535 739.06583,688.82689 738.33141,694.89151 C 737.9642,697.92382 738.07383,701.03188 738.85344,703.98518 C 739.63304,706.93848 741.0988,709.73366 743.23324,711.91858 C 745.36769,714.1035 748.18546,715.65368 751.20812,716.09331 C 754.23078,716.53295 757.44131,715.81811 759.88169,713.9812 C 761.61456,712.67684 762.92332,710.85406 763.77022,708.85733 C 764.61712,706.8606 765.01692,704.6924 765.1085,702.52542 C 765.29166,698.19147 764.29867,693.90115 763.26295,689.68879 C 761.1915,681.26407 759.88169,672.65684 759.88169,663.9812 C 759.88169,663.4812 759.88169,663.4812 759.88169,663.4812"
       id="path21759"
       inkscape:connector-curvature="0"
       style="stroke:#ff0000" />
    <polyline
       points="838.44589,525.99385 844.99291,532.54086 851.53992,525.99385 844.99291,519.44683 838.44589,525.99385"
       id="polyline21767"
       style="stroke:#000000;stroke-width:6" />
    <path
       d="M 838.44589,525.99385 C 838.09234,526.3474 838.09234,526.3474 838.09234,526.3474 C 835.02428,529.41546 831.87299,532.41925 828.37358,534.98442 C 824.87417,537.54959 821.07465,539.6695 817.30346,541.81521 C 813.53226,543.96092 809.72568,546.21067 806.81581,549.42916 C 805.36088,551.0384 804.15149,552.89343 803.44279,554.94385 C 802.73408,556.99427 802.54401,559.24972 803.09056,561.34919 C 803.87214,564.35149 806.13975,566.85342 808.90374,568.26234 C 811.66773,569.67126 814.88137,570.05198 817.96475,569.70929 C 824.13151,569.02391 829.60714,565.64128 835.0904,562.73741 C 837.83203,561.28547 840.64475,559.929 843.62519,559.0678 C 846.60563,558.2066 849.77678,557.85433 852.82502,558.43131 C 855.87326,559.00829 858.7908,560.57126 860.67509,563.03583 C 861.61724,564.26812 862.29085,565.71144 862.58195,567.23506 C 862.87305,568.75868 862.77634,570.36101 862.25782,571.82296 C 861.51842,573.90764 859.94162,575.64171 858.04374,576.77778 C 856.14586,577.91385 853.9423,578.48065 851.73518,578.62642 C 847.32095,578.91796 842.96797,577.62558 838.75592,576.27316 C 834.54387,574.92074 830.3317,573.51559 825.97785,572.73176 C 821.624,571.94793 817.18167,571.82296 812.75782,571.82296 C 812.25782,571.82296 812.25782,571.82296 812.25782,571.82296"
       id="path21769"
       inkscape:connector-curvature="0"
       style="stroke:#ff0000" />
    <line
       x1="844.99292"
       y1="571.823"
       x2="844.99292"
       y2="663.4812"
       id="line21777"
       style="stroke:#000000;stroke-width:6" />
    <path
       d="M 844.99291,571.82297 C 844.99291,571.32297 844.99291,571.32297 844.99291,571.32297 C 844.99291,554.62211 845.01329,537.76473 841.44846,521.44876 C 837.21002,502.04974 827.77991,483.74542 814.08659,469.3656 C 800.39327,454.98578 782.43539,444.62217 763.02571,440.43281 C 743.61603,436.24345 722.83049,438.32219 704.83248,446.71013 C 686.83446,455.09807 671.7793,469.81991 663.41956,487.83105 C 655.05981,505.84218 653.56112,527.0257 659.75075,545.89299 C 665.94038,564.76028 679.85517,581.05552 697.72795,589.70713 C 715.60072,598.35873 737.21839,599.1201 755.47972,591.32201 C 773.74105,583.52393 788.23983,567.18319 793.371,548.00098 C 794.85412,542.45653 795.61595,536.71206 797.55514,531.3102 C 799.49433,525.90834 802.78587,520.81404 807.64486,517.75942 C 810.07436,516.23211 812.84095,515.23788 815.69112,514.90367 C 818.54129,514.56946 821.45883,514.89723 824.18731,515.78636 C 826.91579,516.67549 829.4447,518.1158 831.73067,519.85058 C 834.01665,521.58536 836.06317,523.61112 838.09235,525.6403 C 838.4459,525.99385 838.4459,525.99385 838.4459,525.99385"
       id="path21779"
       inkscape:connector-curvature="0"
       style="stroke:#ff0000" />
    <polyline
       points="969.38624,591.46402 956.2922,578.36998 943.19817,571.82297 923.55711,571.82297 910.46308,578.36998 897.36905,591.46402 890.82203,611.10507 890.82203,624.19911 897.36905,643.84016 910.46308,656.93419 923.55711,663.48121 943.19817,663.48121 956.2922,656.93419 969.38624,643.84016"
       id="polyline21787"
       style="stroke:#000000;stroke-width:6" />
    <path
       d="M 969.38624,643.84016 C 969.73979,643.48661 969.73979,643.48661 969.73979,643.48661 C 974.42395,638.80245 979.09559,633.85608 981.61803,627.73072 C 982.87925,624.66804 983.59537,621.3691 983.58935,618.05691 C 983.58333,614.74471 982.85023,611.43096 981.41593,608.44542 C 978.54733,602.47433 972.81001,598.04014 966.37497,596.46754 C 959.93993,594.89494 953.01887,596.05576 947.05091,598.93087 C 938.00297,603.28978 931.12321,611.29623 926.32338,620.11818 C 921.52355,628.94013 918.59366,638.63324 915.62964,648.22906 C 912.66562,657.82488 909.59669,667.49009 904.55629,676.17684 C 899.5159,684.86359 892.27915,692.60736 883.00545,696.46271 C 878.25999,698.43553 873.0253,699.33398 867.92527,698.7007 C 862.82524,698.06741 857.918,695.86172 854.12896,692.38975 C 850.33992,688.91777 847.74303,684.24846 846.41113,679.28485 C 845.07923,674.32124 844.99291,669.12043 844.99291,663.98123 C 844.99291,663.48123 844.99291,663.48123 844.99291,663.48123"
       id="path21789"
       inkscape:connector-curvature="0"
       style="stroke:#ff0000" />
    <line
       x1="1015.2153"
       y1="525.99384"
       x2="1015.2153"
       y2="663.4812"
       id="line21797"
       style="stroke:#000000;stroke-width:6" />
    <path
       d="M 1015.2154,663.48121 C 1015.2154,663.98121 1015.2154,663.98121 1015.2154,663.98121 C 1015.2154,672.25608 1014.8702,680.52608 1014.3104,688.782 C 1013.7506,697.03791 1013.1627,705.46497 1015.2154,713.48121 C 1017.244,721.40382 1021.972,728.60909 1028.4324,733.62369 C 1034.8929,738.63828 1043.0457,741.43112 1051.224,741.43112 C 1059.4022,741.43112 1067.5551,738.63828 1074.0155,733.62369 C 1080.4759,728.6091 1085.2039,721.40382 1087.2326,713.48121 C 1089.2852,705.46497 1088.6973,697.03791 1088.1375,688.782 C 1087.5777,680.52609 1087.2326,672.25608 1087.2326,663.98121 C 1087.2326,663.48121 1087.2326,663.48121 1087.2326,663.48121"
       id="path21799"
       inkscape:connector-curvature="0"
       style="stroke:#ff0000" />
    <polyline
       points="1015.21536,598.01104 1034.85641,578.36998 1047.95044,571.82297 1067.59149,571.82297 1080.68553,578.36998 1087.23255,598.01104 1087.23255,663.48121"
       id="polyline21807"
       style="stroke:#000000;stroke-width:6" />
    <path
       d="M 1015.2154,598.01104 C 1014.8618,598.36459 1014.8618,598.36459 1014.8618,598.36459 C 1007.7224,605.50401 999.99411,612.06145 991.52985,617.5659 C 987.29772,620.31813 982.97093,622.93359 978.8958,625.91335 C 974.82067,628.89311 970.97403,632.28778 968.12376,636.45451 C 964.52931,641.70915 962.65788,648.11467 962.81428,654.47918 C 962.97068,660.84368 965.14742,667.13719 968.92135,672.26445 C 972.69528,677.39171 978.04497,681.33446 984.04503,683.46299 C 990.04509,685.59151 996.67003,685.9033 1002.8541,684.39051 C 1009.0382,682.87773 1014.7609,679.55142 1019.1682,674.95717 C 1023.5755,670.36293 1026.6574,664.51927 1028.0029,658.29665 C 1029.3484,652.07403 1028.9589,645.49144 1026.9311,639.45661 C 1024.9032,633.42178 1021.247,627.94864 1016.4779,623.73124 C 1009.3733,617.44862 1000.2901,613.97335 992.01779,609.33493 C 983.74546,604.69651 976.44601,598.52379 969.7398,591.81758 C 969.38625,591.46403 969.38625,591.46403 969.38625,591.46403"
       id="path21809"
       inkscape:connector-curvature="0"
       style="stroke:#ff0000" />
  </g>
</svg>
